<?xml version="1.0" encoding="UTF-8"?>
<svg xmlns="http://www.w3.org/2000/svg" viewBox="0 0 518.697 102.371">
<title>PAL Express</title>
<desc>PAL Express logo</desc>
<metadata xmlns:rdf="http://www.w3.org/1999/02/22-rdf-syntax-ns#" xmlns:Airline="http://schema.org/Airline">
<rdf:RDF>
<Airline:name>PAL Express</Airline:name>
<Airline:iataCode>2P</Airline:iataCode>
<Airline:url>https://airlinelogos.aero/2P</Airline:url>
</rdf:RDF>
</metadata>
<g>
	<polygon fill="#2E378F" points="0,90.367 90.888,90.367 107.082,0 	"/>
	<path fill="#F6B624" d="M94.569,39.473L95.32,9.926l-2.487,2.099l-0.691,27.704l-3.347,12.292h0.006
		c-0.006,0.004-0.009,0.004-0.015,0.004l0.009-0.004l-5.737-10.479l-3.057-18.688l-2.157,1.818l2.699,16.869v13.192l0.074-0.027
		c-0.044,0.021-0.087,0.039-0.131,0.061l0.057-0.031l-7.91-9.272l-6.808-10.645l-1.829,1.542l6.508,10.181l3.093,11.851l0.084-0.043
		c-0.06,0.039-0.114,0.075-0.168,0.109l0.084-0.066L63.03,51.251l-6.683-8.437l-1.791,1.51l6.618,8.359l5.958,10.643L54.99,58.468
		l-8.889-7.006l-1.792,1.513l9.155,7.227l8.395,8.865l0.083-0.086c-0.046,0.052-0.088,0.107-0.13,0.164l0.048-0.078l-13.169-2.272
		l-13.64-6.008l-1.913,1.616l14.41,6.349l10.06,7.075l0.071-0.112c-0.042,0.087-0.083,0.171-0.126,0.255l0.055-0.143l-12.959-0.898
		l-19.955-5.398l-2.071,1.75l21.261,5.754l10.969,5.878l-12.848,1.514L9.25,82.559l-2.458,2.08l34.883,1.982l11.87,3.313
		l44.674-37.009L94.569,39.473L94.569,39.473z"/>
	<polygon fill="#EE272B" points="51.349,90.367 142.238,90.367 158.431,0 	"/>
	<g>
		<path fill="#2E378F" d="M179.418,90.675h-8.848l8.994-42.949h17.461c3.105,0,5.562,0.366,7.368,1.099
			c1.806,0.732,3.237,1.944,4.292,3.633c1.055,1.688,1.582,3.706,1.582,6.05c0,2.168-0.42,4.277-1.26,6.328
			c-0.84,2.051-1.871,3.691-3.091,4.922c-1.221,1.23-2.534,2.164-3.94,2.799c-1.406,0.635-3.301,1.117-5.684,1.449
			c-1.387,0.195-3.984,0.293-7.793,0.293h-5.654L179.418,90.675z M184.311,67.18h2.725c4.668,0,7.783-0.293,9.346-0.88
			c1.563-0.586,2.793-1.522,3.691-2.813c0.898-1.289,1.348-2.704,1.348-4.248c0-1.034-0.23-1.885-0.688-2.549
			c-0.459-0.664-1.104-1.146-1.934-1.449c-0.831-0.303-2.681-0.454-5.552-0.454h-6.328L184.311,67.18z"/>
		<path fill="#2E378F" d="M234.292,81.184H217.27l-5.156,9.491h-9.082l24.287-42.949h9.814l6.973,42.949h-8.379L234.292,81.184z
			 M233.208,74.034l-2.49-17.285l-10.371,17.285H233.208z"/>
		<path fill="#2E378F" d="M249.731,90.675l8.995-42.949h8.817l-7.472,35.771h21.855l-1.494,7.178H249.731z"/>
	</g>
	<g>
		<g>
			<path fill="#2E378F" d="M366.618,59.143h8.015l-0.678,3.213c1.708-1.416,3.31-2.426,4.803-3.035
				c1.492-0.608,3.095-0.913,4.804-0.913c3.279,0,5.918,1.129,7.912,3.389c1.993,2.259,2.99,5.628,2.99,10.106
				c0,5.639-1.72,10.402-5.156,14.291c-2.947,3.32-6.435,4.979-10.461,4.979c-4.146,0-7.279-1.68-9.399-5.038l-3.39,16.236h-8.457
				L366.618,59.143z M371.714,77.088c0,2.436,0.594,4.327,1.783,5.672c1.188,1.348,2.588,2.02,4.197,2.02
				c1.396,0,2.742-0.506,4.039-1.518c1.295-1.012,2.371-2.691,3.226-5.039c0.854-2.347,1.282-4.522,1.282-6.527
				c0-2.338-0.561-4.129-1.68-5.377s-2.545-1.871-4.272-1.871c-1.61,0-3.079,0.574-4.405,1.724s-2.354,2.839-3.078,5.069
				C372.078,73.469,371.714,75.418,371.714,77.088z"/>
			<path fill="#2E378F" d="M403.274,59.143h7.896l-1.268,6.07c2.947-4.538,6.14-6.807,9.576-6.807c1.219,0,2.524,0.305,3.921,0.912
				l-3.242,6.926c-0.767-0.275-1.581-0.412-2.445-0.412c-1.454,0-2.933,0.55-4.435,1.648c-1.504,1.102-2.678,2.569-3.522,4.406
				c-0.845,1.836-1.679,4.748-2.504,8.736l-2.063,9.813h-8.457L403.274,59.143z"/>
			<path fill="#2E378F" d="M451.159,77.412h-21.217c-0.021,0.334-0.029,0.59-0.029,0.766c0,2.084,0.594,3.764,1.783,5.039
				c1.188,1.277,2.637,1.916,4.346,1.916c2.81,0,4.999-1.453,6.571-4.361l7.572,1.268c-1.474,3.046-3.442,5.329-5.907,6.852
				c-2.466,1.522-5.23,2.283-8.295,2.283c-4.205,0-7.622-1.33-10.256-3.992c-2.633-2.662-3.947-6.184-3.947-10.563
				c0-4.283,1.188-8.096,3.564-11.434c3.241-4.52,7.867-6.777,13.879-6.777c3.831,0,6.875,1.184,9.136,3.55
				c2.259,2.368,3.389,5.683,3.389,9.944C451.748,73.943,451.551,75.781,451.159,77.412z M444.027,72.255
				c0.02-0.372,0.029-0.657,0.029-0.854c0-2.316-0.521-4.055-1.563-5.215c-1.042-1.158-2.437-1.738-4.186-1.738
				c-1.748,0-3.313,0.658-4.699,1.975s-2.322,3.262-2.813,5.834L444.027,72.255L444.027,72.255z"/>
			<path fill="#2E378F" d="M453.162,81.686l8.191-1.297c0.727,1.729,1.631,2.952,2.712,3.668c1.078,0.719,2.553,1.076,4.42,1.076
				c1.925,0,3.467-0.433,4.626-1.297c0.806-0.59,1.208-1.307,1.208-2.15c0-0.569-0.206-1.08-0.619-1.533
				c-0.433-0.432-1.602-0.961-3.507-1.592c-5.107-1.688-8.271-3.023-9.488-4.006c-1.905-1.533-2.857-3.537-2.857-6.012
				c0-2.477,0.924-4.607,2.771-6.395c2.573-2.496,6.395-3.742,11.463-3.742c4.027,0,7.072,0.736,9.135,2.209
				c2.063,1.474,3.369,3.468,3.919,5.982l-7.809,1.354c-0.413-1.14-1.081-1.993-2.004-2.563c-1.258-0.767-2.771-1.148-4.538-1.148
				c-1.769,0-3.04,0.295-3.815,0.884c-0.775,0.59-1.165,1.267-1.165,2.032c0,0.787,0.395,1.435,1.181,1.945
				c0.489,0.314,2.071,0.864,4.744,1.649c4.126,1.199,6.885,2.377,8.279,3.536c1.964,1.631,2.947,3.596,2.947,5.895
				c0,2.967-1.248,5.539-3.743,7.721c-2.495,2.181-6.012,3.271-10.549,3.271c-4.521,0-8.011-0.829-10.477-2.489
				C455.72,87.023,454.045,84.689,453.162,81.686z"/>
			<path fill="#2E378F" d="M486.725,81.686l8.192-1.297c0.726,1.729,1.63,2.952,2.711,3.668c1.079,0.719,2.553,1.076,4.419,1.076
				c1.926,0,3.468-0.433,4.627-1.297c0.807-0.59,1.208-1.307,1.208-2.15c0-0.569-0.206-1.08-0.619-1.533
				c-0.432-0.432-1.601-0.961-3.507-1.592c-5.106-1.688-8.27-3.023-9.488-4.006c-1.904-1.533-2.856-3.537-2.856-6.012
				c0-2.477,0.923-4.607,2.77-6.395c2.573-2.496,6.396-3.742,11.464-3.742c4.026,0,7.071,0.736,9.135,2.209
				c2.063,1.474,3.369,3.468,3.919,5.982l-7.81,1.354c-0.412-1.14-1.081-1.993-2.004-2.563c-1.258-0.767-2.77-1.148-4.538-1.148
				c-1.768,0-3.04,0.295-3.814,0.884c-0.776,0.59-1.165,1.267-1.165,2.032c0,0.787,0.394,1.435,1.18,1.945
				c0.49,0.314,2.072,0.864,4.744,1.649c4.126,1.199,6.885,2.377,8.28,3.536c1.964,1.631,2.945,3.596,2.945,5.895
				c0,2.967-1.247,5.539-3.741,7.721c-2.495,2.181-6.013,3.271-10.55,3.271c-4.52,0-8.011-0.829-10.477-2.489
				C489.284,87.023,487.609,84.689,486.725,81.686z"/>
		</g>
		<g>
			<path fill="#2E378F" d="M329.593,59.127h10.713l3.862,9.676l7.13-9.676h10.605l-12.484,15.23l7.857,16.219h-10.928l-4.433-10.104
				l-7.999,10.104h-10.863l13.749-16.391L329.593,59.127z"/>
		</g>
	</g>
</g>
<path fill="#2E378F" d="M324.616,77.042h-21.217c-0.021,0.334-0.029,0.59-0.029,0.766c0,2.084,0.594,3.764,1.783,5.039
	c1.188,1.277,2.637,1.916,4.346,1.916c2.81,0,4.999-1.453,6.571-4.361l7.572,1.268c-1.474,3.046-3.442,5.329-5.907,6.852
	c-2.466,1.522-5.23,2.283-8.295,2.283c-4.205,0-7.622-1.33-10.256-3.992c-2.633-2.662-3.947-6.184-3.947-10.563
	c0-4.283,1.188-8.096,3.564-11.434c3.241-4.52,7.867-6.777,13.879-6.777c3.831,0,6.875,1.184,9.136,3.55
	c2.259,2.368,3.389,5.683,3.389,9.944C325.205,73.573,325.008,75.411,324.616,77.042z M317.484,71.885
	c0.02-0.372,0.029-0.657,0.029-0.854c0-2.316-0.521-4.055-1.563-5.215c-1.042-1.158-2.437-1.738-4.186-1.738
	c-1.748,0-3.313,0.658-4.699,1.975s-2.322,3.262-2.813,5.834L317.484,71.885L317.484,71.885z"/>
</svg>
