<?xml version="1.0" encoding="UTF-8"?>
<svg xmlns="http://www.w3.org/2000/svg" viewBox="29.9 63.6 1421.2 433.1">
<title>Alpine Air Express logo</title>
<path d="M413.8 385.2H293.4l67.1-290.5h45.6l-56.5 244.8h74.7l-10.5 45.7z" />
<path d="M620.5 385.2h-45.7l67.1-290.5h45.6l-67 290.5z" />
<path d="M776.9 385.2h-26.6l-35.7-147.3-34 147.3h-45.7L702 94.7h26.6l35.8 146.9 33.9-146.9h45.6l-67 290.5z" />
<path d="M893.5 140.3l-22.3 96.9h51.4l-10.5 45.7h-51.4l-13.2 56.6h74.7l-10.5 45.7H791.3l67.1-290.5h120.3l-10.5 45.6h-74.7z" />
<path d="M1073.7 94.7L948.5 385.2h32.8l18-43.9 1.9-4.5h67.5l-.4 7.7-2.1 40.7h34l9-290.5h-35.5zm3.5 92.5l-6.1 109.4-.4 6.9h-56.2l4.1-10.1L1063 184l16.5-40.7-2.3 43.9z" fill="#499fb5" />
<path d="M1194.1 94.7l-67 290.5h32.9l67.1-290.5h-33z" fill="#499fb5" />
<path d="M1334.9 260.9l.2-.2c16.1-12.2 27-30 32.3-52.9l11-47.1c5.1-22.2 2.8-38.7-7.1-50.3-8.9-10.6-22.2-15.8-40.8-15.8H1264l-67.1 290.5h32.9l23.6-102.4 1.3-5.7h35.1l6.2 108h34.2l-6-117.2 3.5-2.1c2.6-1.3 5-3 7.2-4.8m-15.5-23.8c-5.9 4.5-13.8 6.7-23.5 6.7h-33.6l2.1-9 23.4-101.2 1.3-5.7h30.2c10.5 0 17.8 2.5 22.2 7.8l.1.1.1.1c4.8 6.2 5.7 15.4 2.8 27.9l-11 47.1c-2.7 12.5-7.3 21-14.1 26.2" fill="#499fb5" />
<path d="M81.5 311.7c0 12 9.8 21.8 21.8 21.8 9 0 16.9-5.4 20.3-13.8v-.2l13-29.7h-33.4c-11.9 0-21.7 9.8-21.7 21.9" fill="#499fb5" />
<path d="M247.2 63.6h-3.5L143.5 291.9l-13.4 30.5c-4.2 10.6-14.6 18.1-26.7 18.1-15.9 0-28.8-12.9-28.8-28.8s12.9-28.8 28.8-28.8h36.5l19.6-44.7h-56.1c-40.6 0-73.5 32.9-73.5 73.5s32.9 73.5 73.5 73.5c29 0 54-16.9 65.9-41.3L243 168.4l-6.7 119.8h-36.1l-19.3 46.1h52.7l-2.6 51h51.5l9.9-321.6h-45.2z" />
<path d="M604.7 112.1c-9.8-11.6-24.5-17.4-44.1-17.4h-68.9l-33.1 143.5h-31.4l-10.3 44.7h31.4l-23.6 102.3h45.7l23.5-102.3H517c19.9 0 37.3-5.7 52.1-17 16.8-12.7 27.9-30.8 33.3-54.4l10.6-45.4c5.3-23.3 2.6-41.3-8.3-54m-37.4 54l-10.6 45.4c-2.3 10-6 16.9-11 20.8-4.4 3.3-10.4 5-18.2 5h-23.2l22.5-96.9H550c7.7 0 13 1.7 15.9 5 3.2 4.1 3.6 11 1.4 20.7" />
<path d="M1406.8 94.7h19.1v2.8h-8v20.6h-3.1V97.5h-8v-2.8z" fill-rule="evenodd" clip-rule="evenodd" fill="#499fb5" />
<path d="M1448 118.1v-13.8c0-.7.1-3.7.1-5.8h-.1l-6.6 19.7h-3.1l-6.6-19.6h-.1c0 2.1.1 5.1.1 5.8v13.8h-3.1V94.7h4.5l6.7 19.8h.1l6.7-19.8h4.5v23.4h-3.1z" fill-rule="evenodd" clip-rule="evenodd" fill="#499fb5" />
<path d="M60.7 495.1l13.6-58.7h42.9l-.8 3.5-.8 3.5h-35l-4.1 17.9h31.9l-.8 3.5-.8 3.6h-32L70.3 488h35.4l-.8 3.5-.8 3.6H60.7z" />
<path d="M284.6 465.8l-12.8-29.4h9.9l9.1 22.9 20.8-22.9h9.5l-27.2 28.8 14.5 29.9h-9.7L288 471.4l-21.4 23.7H257l27.6-29.3z" />
<path d="M477.7 436.4h25.7c5.7 0 9.8 1.4 12.4 4.3 2.5 2.9 3.2 6.8 2.1 11.9-1.3 5.6-3.9 9.9-7.8 13.1-3.9 3.1-8.8 4.7-14.4 4.7-7.5 0-13.4 0-17.7.1l-5.7 24.7h-8l13.4-58.8zm1.7 27.1h15.8c4.1 0 7.3-.9 9.7-2.6 2.3-1.7 3.9-4.5 4.8-8.2.8-3.3.4-5.7-1.2-7.2s-4.4-2.3-8.5-2.3h-15.8l-4.8 20.3z" />
<path d="M679.6 436.4H707c6.2 0 10.7 1.4 13.3 4.1 2.6 2.7 3.3 6.7 2.1 11.9-1.2 5.1-3.8 9.2-7.9 12.1-1 .7-2.1 1.3-3.2 1.9l1.2.6c3.1 2.1 4.1 5.5 3.2 10.3l-2.2 10.7c-.4 1.8-.4 3-.2 3.8.2.8.8 1.4 1.9 2l-.3 1.3H705c-.1-.5 0-1.7.2-3.8.3-2 .6-4.3 1.1-6.7l.9-4.6c.7-3.6.4-6.2-.9-7.8-1.3-1.6-3.9-2.3-7.7-2.3h-18.8l-5.8 25.3h-8l13.6-58.8zm1.8 26.5H701c3.7 0 6.5-.8 8.6-2.4 2.1-1.6 3.5-4.2 4.3-7.6.8-3.4.5-5.9-1-7.4-1.4-1.6-4.1-2.4-8-2.4h-19l-4.5 19.8z" />
<path d="M872.1 495.1l13.6-58.7h42.9l-.8 3.5-.8 3.5h-35l-4.1 17.9h31.9l-.8 3.5-.8 3.6h-32l-4.5 19.6h35.4l-.8 3.5-.8 3.6h-43.4z" />
<path d="M1118.4 453.4c.5-3.7-.3-6.6-2.4-8.6s-5.3-3-9.7-3c-4.5 0-8.1.9-10.8 2.6-2.7 1.7-4.5 4.3-5.2 7.6-.5 2.3-.1 4 1.1 5.1 1.3 1.1 4.1 2.2 8.5 3.3l9.7 2.4c5.2 1.3 8.6 3.2 10.4 5.8 1.8 2.5 2.1 6.1 1 10.7-1.2 5.3-4.2 9.5-9 12.7-4.7 3.1-10.6 4.7-17.5 4.7-7.7 0-13.2-1.8-16.7-5.4-3.4-3.5-4.4-8.4-3-14.5l.1-.4h7.3c-.8 4.3-.1 7.5 2.4 9.9 2.4 2.3 6.3 3.5 11.5 3.5 4.9 0 8.8-.8 11.7-2.5 2.9-1.7 4.7-4.1 5.5-7.4.6-2.8.3-4.9-1-6.3-1.3-1.3-4.4-2.6-9.1-3.8l-9.7-2.4c-4.9-1.2-8.2-2.9-9.9-5.1-1.7-2.2-2.1-5.2-1.2-9.1 1.3-5.6 4.2-10.1 8.8-13.4 4.6-3.3 10.1-4.9 16.6-4.9 6.6 0 11.5 1.7 14.6 4.9 3.1 3.3 4.2 7.8 3.1 13.7h-7.1z" />
<path d="M1320.2 453.4c.5-3.7-.3-6.6-2.4-8.6s-5.3-3-9.7-3c-4.5 0-8.1.9-10.8 2.6-2.7 1.7-4.5 4.3-5.2 7.6-.5 2.3-.1 4 1.1 5.1 1.3 1.1 4.1 2.2 8.5 3.3l9.7 2.4c5.2 1.3 8.6 3.2 10.4 5.8 1.8 2.5 2.1 6.1 1 10.7-1.2 5.3-4.2 9.5-9 12.7-4.8 3.1-10.6 4.7-17.5 4.7-7.7 0-13.2-1.8-16.7-5.4-3.4-3.5-4.4-8.4-3-14.5l.1-.4h7.3c-.8 4.3-.1 7.5 2.4 9.9 2.4 2.3 6.3 3.5 11.5 3.5 4.9 0 8.8-.8 11.7-2.5 2.9-1.7 4.7-4.1 5.5-7.4.6-2.8.3-4.9-1-6.3-1.3-1.3-4.4-2.6-9.1-3.8l-9.7-2.4c-4.9-1.2-8.2-2.9-9.9-5.1-1.7-2.2-2.1-5.2-1.2-9.1 1.3-5.6 4.2-10.1 8.8-13.4 4.6-3.3 10.1-4.9 16.6-4.9 6.6 0 11.5 1.7 14.6 4.9 3.1 3.3 4.2 7.8 3.1 13.7h-7.1z" />
</svg>
