<?xml version="1.0" encoding="UTF-8"?>
<svg xmlns="http://www.w3.org/2000/svg" viewBox="0 0 596 204">
<title>Atlas Air logo</title>
<g transform="translate(-15.627357,-11.434756)">
  <path fill="#fbb920" d="m 139.45268,215.28004 c -5.68985,-0.96141 -9.2386,-5.81457 -9.2386,-12.63441 0,-5.7908 2.64509,-10.38803 6.89094,-11.9766 5.02307,-1.87938 10.81244,-0.74539 13.85786,2.71439 2.18386,2.48099 2.74862,4.3841 2.74862,9.26221 0,3.5638 -0.1031,4.41899 -0.71938,5.96707 -2.05099,5.15204 -7.27697,7.72552 -13.53944,6.66734 z m 6.20815,-4.87683 c 1.80758,-1.37872 2.31325,-3.14445 2.31325,-8.07758 0,-3.8433 -0.0609,-4.26868 -0.8,-5.58761 -1.17367,-2.09444 -2.53438,-2.89239 -4.93231,-2.89239 -2.71499,0 -3.94354,0.71482 -5.10655,2.97118 -0.74218,1.43991 -0.94976,2.32552 -1.07957,4.60576 -0.27336,4.80209 0.68734,7.66728 3.12605,9.32313 0.95154,0.64609 1.41823,0.73858 3.22769,0.63968 1.69772,-0.0928 2.33961,-0.28669 3.25144,-0.98217 z m -51.77258,4.16242 c -0.489081,-1.34231 -5.829212,-23.79858 -5.706534,-23.99707 0.08257,-0.13361 1.283933,-0.24293 2.669686,-0.24293 2.119261,0 2.547482,0.089 2.695367,0.56 0.0967,0.308 0.904531,4.08693 1.795184,8.39763 0.890653,4.31069 1.742934,7.96118 1.893961,8.11221 0.328288,0.32829 0.220723,0.67613 2.260515,-7.30984 0.899081,-3.52 1.846391,-7.156 2.105121,-8.08 l 0.47041,-1.68 h 3.02496 c 2.87311,0 3.03353,0.0362 3.19562,0.72 0.84564,3.56774 3.68154,15.98514 3.68154,16.12014 0,0.0953 0.17123,0.11612 0.38052,0.0464 0.2143,-0.0714 1.15783,-3.75236 2.16,-8.42667 l 1.77948,-8.29983 2.48,-0.0935 c 1.95893,-0.0738 2.48,9.6e-4 2.48,0.35535 0,0.85177 -5.83118,23.41912 -6.15436,23.81811 -0.21271,0.26261 -1.24831,0.4 -3.01487,0.4 -2.18998,0 -2.72804,-0.0969 -2.89064,-0.52062 -0.10988,-0.28634 -1.0778,-4.21034 -2.15093,-8.72 -1.07314,-4.50965 -2.09472,-8.15451 -2.27018,-8.09967 -0.17546,0.0548 -1.27634,3.82483 -2.4464,8.37777 -1.17006,4.55295 -2.22256,8.43208 -2.338885,8.6203 -0.313059,0.50654 -5.913277,0.45349 -6.099565,-0.0578 z m 72.71144,0.19895 c -0.12408,-0.12409 -0.22561,-5.67361 -0.22561,-12.33228 v -12.10667 h 6.34192 c 6.97621,0 8.84621,0.31818 10.6144,1.80601 1.43857,1.21048 2.02672,2.56493 2.00797,4.62415 -0.0233,2.55293 -1.0177,4.15497 -3.47754,5.60227 -0.55058,0.32395 -0.51299,0.39688 0.46518,0.90272 1.32411,0.68472 2.14621,2.46981 2.44309,5.30485 0.1198,1.144 0.42193,2.98894 0.6714,4.09986 0.24947,1.11092 0.45358,2.08292 0.45358,2.16 0,0.25801 -5.40003,0.1437 -5.56161,-0.11773 -0.0876,-0.14184 -0.38414,-1.97784 -0.65885,-4.08 -0.69058,-5.28449 -0.80973,-5.42213 -4.69407,-5.42213 h -3.00547 l -0.16,4.8 -0.16,4.8 -2.41439,0.0923 c -1.32791,0.0508 -2.51591,-0.009 -2.64,-0.13333 z m 12.06413,-14.81012 c 1.6422,-1.54357 1.26667,-4.30532 -0.69597,-5.11827 -0.52568,-0.21774 -1.99884,-0.33929 -3.45509,-0.28507 l -2.53868,0.0945 -0.0938,2.69326 c -0.0516,1.48128 -0.0146,2.89958 0.0821,3.15176 0.13917,0.36265 0.77225,0.43514 3.02844,0.34674 2.4882,-0.0975 2.95728,-0.21025 3.67296,-0.88293 z m 22.46661,14.51051 c -0.25504,-0.66462 -0.25704,-22.96885 -0.002,-23.63316 0.1545,-0.4023 0.71176,-0.50618 2.71563,-0.50618 h 2.52127 l 0.0845,10.16 0.0845,10.16 5.28,0.16 5.28,0.16 v 1.92 1.92 l -7.88365,0.0855 c -6.9798,0.0757 -7.90616,0.0268 -8.08,-0.42617 z m 28.12087,0.12883 c -0.0909,-0.23689 -0.12746,-5.75813 -0.0812,-12.26943 l 0.084,-11.83874 5.40129,-0.0879 c 6.13385,-0.0999 8.31091,0.27718 10.79132,1.86885 2.53003,1.62352 3.95237,4.21064 4.43913,8.0744 0.35834,2.84437 -0.0488,6.37477 -0.9865,8.55454 -0.85917,1.9972 -3.53903,4.51339 -5.63388,5.28979 -2.04859,0.75925 -13.74867,1.1003 -14.01414,0.40851 z m 11.94573,-4.75455 c 2.01556,-1.13281 3.01738,-3.36537 3.055,-6.80808 0.0674,-6.16328 -2.27066,-8.76036 -7.63795,-8.48429 l -1.92,0.0988 -0.086,7.67368 c -0.0473,4.22052 -0.009,7.87487 0.0856,8.12079 0.29007,0.75591 4.83668,0.33584 6.50331,-0.60085 z m 24.73177,4.08638 c -0.61897,-1.9221 -5.47472,-22.28589 -5.47472,-22.95959 0,-0.62872 0.14886,-0.66105 2.64,-0.57335 l 2.64,0.0929 1.62474,8.02524 c 1.80839,8.93228 1.96169,9.50121 2.36438,8.77476 0.14635,-0.264 1.14897,-3.936 2.22806,-8.16 1.07909,-4.224 2.03937,-7.932 2.13396,-8.24 0.14784,-0.48138 0.59398,-0.56 3.17809,-0.56 h 3.0061 l 0.30902,1.2 c 0.16996,0.66 1.06749,4.47868 1.99452,8.48594 0.99991,4.3223 1.82292,7.24015 2.02332,7.17337 0.18579,-0.0619 1.13186,-3.84458 2.10238,-8.40593 l 1.76456,-8.29338 2.47544,-0.0935 c 2.16109,-0.0816 2.47543,-0.0238 2.47543,0.45521 0,0.53766 -5.15025,21.03193 -5.79961,23.07825 l -0.33002,1.04 h -2.83631 c -1.55996,0 -2.90514,-0.11139 -2.98928,-0.24754 -0.0842,-0.13615 -1.03579,-3.97746 -2.11476,-8.53624 -1.07897,-4.55879 -2.04655,-8.42588 -2.15018,-8.59355 -0.33639,-0.5443 -0.65384,0.4584 -2.6658,8.42025 -1.08924,4.3104 -2.11456,8.08908 -2.27849,8.39708 -0.24962,0.46897 -0.76038,0.56 -3.14199,0.56 h -2.84393 z m 40.17861,0.82667 c -0.11733,-0.11733 -0.21333,-5.66133 -0.21333,-12.32 v -12.10667 h 2.52576 c 2.00797,0 2.56558,0.10377 2.72,0.50618 0.10683,0.27839 0.19424,5.59461 0.19424,11.81382 0,6.21921 -0.0874,11.53544 -0.19424,11.81383 -0.15232,0.39695 -0.69323,0.50617 -2.50667,0.50617 -1.27183,0 -2.40843,-0.096 -2.52576,-0.21333 z m 20.74388,-0.1585 c -0.0909,-0.23689 -0.12745,-5.75813 -0.0812,-12.26943 l 0.084,-11.83874 6.24,0.0138 c 5.7695,0.0128 6.38252,0.0702 8.13017,0.76177 3.5745,1.41442 5.67879,4.39725 6.32483,8.96546 0.92413,6.53478 -1.56384,11.92112 -6.38428,13.82172 -1.62157,0.63933 -2.53437,0.73632 -7.98948,0.84894 -4.95465,0.10228 -6.19107,0.0429 -6.32403,-0.30356 z m 10.75504,-4.15711 c 1.77015,-0.6004 2.88893,-1.56283 3.54755,-3.05173 1.28608,-2.90742 1.04538,-8.11954 -0.47948,-10.38229 -1.20183,-1.78337 -2.55444,-2.3456 -5.6577,-2.35169 l -2.72262,-0.005 -0.086,7.67368 c -0.0473,4.22052 -0.0157,7.85652 0.07,8.08 0.20035,0.5221 3.82419,0.54753 5.32825,0.0374 z m 22.90637,4.32089 c -0.12026,-0.12023 -0.21862,-5.66661 -0.21862,-12.32528 v -12.10667 h 8.12576 c 8.96764,0 8.51424,-0.11077 8.51424,2.08 0,2.13732 0.15926,2.08 -5.77975,2.08 h -5.39126 l -0.18919,1.04 c -0.10406,0.572 -0.0728,1.832 0.0696,2.8 l 0.25879,1.76 5.05097,0.0882 5.05098,0.0882 -0.095,1.9918 -0.0951,1.99179 -5.05149,0.0882 -5.05149,0.0882 0.0915,3.11182 0.0915,3.11181 5.6,0.16 5.6,0.16 v 1.92 1.92 l -8.18138,0.0853 c -4.49978,0.0469 -8.27978,-0.0131 -8.4,-0.13334 z M 16.054082,174.1137 c -0.629336,-0.25394 -0.536206,-3.82733 0.106172,-4.07383 0.935179,-0.35886 424.443356,-0.22236 425.114846,0.13702 0.48346,0.25873 0.61898,0.67664 0.61898,1.90874 0,1.23211 -0.13552,1.65001 -0.61898,1.90875 -0.63136,0.3379 -424.384631,0.45681 -425.221018,0.11932 z M 243.33408,154.1564 c -8.06112,-0.91321 -12.96664,-2.93538 -14.38823,-5.93115 -0.67857,-1.43 -0.7358,-4.18334 -0.1139,-5.48087 l 0.43075,-0.89875 h 10.71569 10.71569 l 0.0986,1.36484 c 0.14144,1.95718 0.96696,2.42018 4.0386,2.26507 2.02531,-0.10227 2.58884,-0.26538 3.75947,-1.08813 0.75736,-0.5323 1.51951,-1.37294 1.69365,-1.86811 0.277,-0.78766 0.20593,-0.99549 -0.56813,-1.66131 -1.09792,-0.94439 -3.08701,-1.52302 -8.22223,-2.39189 -9.71737,-1.64413 -13.2275,-3.13737 -14.74532,-6.27276 -0.89554,-1.84995 -0.69644,-3.85809 0.67261,-6.78368 3.19911,-6.83634 9.33982,-10.5665 19.79566,-12.02484 5.15746,-0.71934 13.52571,-0.9522 19.06538,-0.53054 8.51708,0.64829 12.74251,2.11428 14.43929,5.00962 0.75348,1.28571 0.83731,1.70446 0.69532,3.47326 -0.0888,1.10621 -0.36172,2.42916 -0.6065,2.93989 l -0.44507,0.92858 h -10.23568 -10.23569 l -0.0896,-0.8 c -0.21401,-1.91114 -0.43079,-2.28952 -1.58889,-2.77341 -2.15666,-0.90111 -5.48353,-0.0472 -6.73431,1.72859 -1.08449,1.53966 -1.15033,2.2308 -0.29407,3.08705 0.94861,0.94862 2.60114,1.29758 9.34686,1.97378 6.50367,0.65193 9.10285,1.19091 11.58843,2.40303 4.06985,1.9847 4.80981,5.27603 2.31633,10.30299 -3.48731,7.03057 -9.83891,10.83035 -21.03437,12.58361 -3.71592,0.58193 -16.38299,0.86287 -20.07039,0.44513 z M 16.119441,153.50194 c -0.116826,-0.18902 0.06847,-0.65702 0.411774,-1.04 0.343302,-0.38297 8.585354,-10.48831 18.31567,-22.45631 9.730317,-11.968 17.97647,-22.012 18.32479,-22.32 0.58545,-0.51768 1.862458,-0.56 16.898973,-0.56 8.946115,0 16.340002,0.12029 16.430863,0.26731 0.271527,0.43934 -4.313747,45.61859 -4.67392,46.05269 -0.254531,0.30678 -3.08438,0.4 -12.142735,0.4 -10.406775,0 -11.833642,-0.0594 -12.00248,-0.49935 -0.105392,-0.27464 0.04111,-1.65967 0.325549,-3.07783 0.284441,-1.41816 0.438691,-2.70546 0.342774,-2.86065 -0.09591,-0.15519 -3.046182,-0.28217 -6.55615,-0.28217 h -6.381763 l -2.301085,3.12 c -1.265597,1.716 -2.453306,3.2258 -2.639351,3.3551 -0.564156,0.3921 -24.108553,0.29659 -24.352909,-0.0988 z M 61.047636,136.1416 c 0.484352,-0.58361 3.585114,-15.35696 3.286832,-15.65986 -0.284032,-0.28843 -11.240387,14.93315 -11.240387,15.61619 0,0.64978 7.416727,0.69051 7.953555,0.0437 z m 31.199414,16.98858 c 0.101549,-0.3985 3.141674,-7.10726 6.755831,-14.90834 3.614159,-7.80109 6.571199,-14.38909 6.571199,-14.64 0,-0.38174 -1.2031,-0.45621 -7.370041,-0.45621 -5.989533,0 -7.401952,-0.0831 -7.540384,-0.44389 -0.182473,-0.47552 3.866695,-8.83809 4.469767,-9.23121 0.525552,-0.34258 71.310338,-0.29227 71.852738,0.0511 0.36323,0.22992 -0.90873,3.22472 -6.47211,15.23842 -3.8083,8.22374 -6.84724,15.07676 -6.75319,15.22893 0.094,0.15217 4.13478,0.27667 8.97941,0.27667 h 8.80842 l 1.0127,-1.14262 c 0.55698,-0.62845 6.34822,-7.50445 12.86941,-15.28 l 11.85673,-14.13738 14.94327,-0.0832 14.94328,-0.0832 v 1.12559 c 0,1.49089 -3.4826,38.28571 -3.67246,38.80074 -0.11401,0.30926 -2.61366,0.4 -11.01861,0.4 -5.97914,0 -10.94068,-0.11248 -11.02565,-0.24997 -0.085,-0.13748 0.0545,-1.24718 0.31003,-2.46599 0.25548,-1.21881 0.39302,-2.40232 0.30565,-2.63003 -0.12183,-0.31747 -1.50246,-0.41401 -5.92066,-0.41401 h -5.76178 l -2.11386,2.88 -2.11386,2.88 h -28.59552 c -16.91828,0 -28.6693,-0.11939 -28.77621,-0.29239 -0.0994,-0.16081 2.90453,-6.9613 6.67537,-15.11219 3.77085,-8.15089 6.78718,-14.93132 6.70294,-15.06761 -0.0842,-0.13629 -3.59943,-0.24781 -7.81155,-0.24781 -6.94991,0 -7.69009,0.0518 -8.0009,0.56 -0.18837,0.308 -3.40398,7.184 -7.14579,15.28 l -6.8033,14.72 -10.17275,0.0846 -10.17275,0.0845 z M 204.60297,138.5036 c 0.24297,-0.39313 2.72759,-12.15784 2.72958,-12.92463 9.6e-4,-0.32267 -0.13086,-0.53867 -0.29267,-0.48 -0.46456,0.16843 -9.6258,12.80988 -9.6258,13.28248 0,0.3264 0.80712,0.42418 3.50111,0.42418 1.92562,0 3.58512,-0.13591 3.68778,-0.30203 z m 95.53111,15.00204 c 0,-0.33495 31.47753,-37.99797 32.13955,-38.45511 0.18723,-0.1293 6.78445,-0.2373 14.66045,-0.24 l 14.32,-0.005 v 1.04535 c 0,1.78355 -3.4752,37.34329 -3.68224,37.67829 -0.1225,0.19817 -4.14954,0.31636 -10.77879,0.31636 h -10.58323 l 0.1791,-1.2 c 0.0985,-0.66 0.28106,-1.884 0.40564,-2.72 l 0.22649,-1.52 h -5.77478 -5.77478 l -2.01453,2.72 -2.01456,2.72 h -10.65416 c -7.30705,0 -10.65416,-0.10681 -10.65416,-0.33999 z m 39.18585,-14.35714 c 0.22221,-0.35952 2.73415,-12.31038 2.73415,-13.00797 0,-0.27097 -0.13898,-0.40677 -0.30884,-0.3018 -0.68096,0.42086 -9.62214,13.01025 -9.44438,13.29789 0.24474,0.39596 6.77488,0.40701 7.01907,0.0119 z m 21.80599,14.42863 c -0.16154,-0.26136 16.84556,-37.89441 17.4854,-38.6915 0.39261,-0.48905 18.64948,-0.58687 18.94944,-0.10154 0.17572,0.2843 -16.30905,36.83751 -17.29126,38.34154 -0.46966,0.71923 -0.4801,0.72 -9.7239,0.72 -5.08957,0 -9.32842,-0.12082 -9.41968,-0.2685 z m 27.32816,-0.0645 c 0,-0.43008 16.8304,-37.34149 17.47523,-38.32565 l 0.4879,-0.7446 17.65843,0.12835 c 19.12647,0.13903 19.72813,0.19044 22.71488,1.94079 3.38068,1.98122 3.64365,6.53593 0.71328,12.35487 -2.25059,4.46908 -5.92156,6.7917 -11.92972,7.5479 -1.03588,0.13038 -1.68,0.3676 -1.68,0.61871 0,0.22399 1.72812,3.96802 3.84028,8.32005 2.11216,4.35204 3.75968,8.04326 3.66112,8.20272 -0.10118,0.16372 -4.76272,0.28991 -10.70902,0.28991 -9.7104,0 -10.55126,-0.0436 -10.80474,-0.56 -0.1512,-0.308 -1.26966,-3.764 -2.4855,-7.68 -1.21581,-3.916 -2.36653,-7.12 -2.55712,-7.12 -0.19056,0 -1.75779,3.132 -3.48269,6.96 -1.72493,3.828 -3.33891,7.284 -3.58665,7.68 l -0.45044,0.72 h -9.43264 c -6.32144,0 -9.4326,-0.10985 -9.4326,-0.33305 z m 36.45401,-22.59393 c 1.87776,-0.93573 3.54599,-3.10268 3.54599,-4.60607 0,-1.54483 -1.0048,-2.05435 -4.29063,-2.17571 l -2.9447,-0.10877 -1.66784,3.62877 c -0.91728,1.99582 -1.66535,3.73676 -1.66231,3.86876 0.003,0.132 1.20119,0.24 2.66266,0.24 2.23216,0 2.92899,-0.13546 4.35683,-0.84698 z m 86.61283,21.94052 c -1.19817,-1.42396 -1.67123,-2.43527 -2.4808,-5.30372 -1.04877,-3.71594 -0.9735,-9.95168 0.17191,-14.242 0.88528,-3.316 2.14195,-6.44457 2.73612,-6.8118 0.8096,-0.50036 -0.54918,-4.24202 -2.10572,-5.79857 -0.41159,-0.4116 -0.74836,-0.95904 -0.74836,-1.21655 0,-0.2575 -0.53875,-0.73205 -1.19724,-1.05454 -0.91684,-0.44902 -1.31911,-0.92031 -1.7176,-2.01222 -0.3904,-1.06977 -0.75072,-1.50073 -1.44276,-1.72563 -1.46118,-0.47485 -2.55484,-1.37976 -3.52947,-2.92033 -0.9199,-1.45407 -1.19165,-1.63534 -4.99565,-3.33231 -1.27689,-0.56961 -2.86758,-1.6314 -3.88352,-2.59223 -1.53129,-1.44823 -1.9448,-1.66352 -3.75513,-1.95507 -2.73018,-0.43968 -6.05978,-2.25017 -8.09664,-4.402588 -4.42547,-4.67656 -4.53648,-4.7692 -5.98531,-4.995031 -2.2202,-0.346064 -2.39962,-0.442582 -3.27136,-1.759878 -0.52692,-0.796211 -2.00948,-2.028704 -4.09248,-3.402163 -17.70912,-11.676836 -31.27949,-30.572938 -38.9305,-54.208906 -2.53859,-7.842389 -4.25389,-16.071855 -4.33542,-20.8 l -0.0469,-2.72 1.40348,-0.100524 c 0.77191,-0.05529 1.52503,0.02104 1.6736,0.169614 0.14858,0.148575 0.42224,2.065811 0.60816,4.260523 0.55616,6.565221 1.76813,12.362311 4.04554,19.350387 1.56314,4.796416 2.97354,8.160806 3.41907,8.156038 0.20359,-0.0022 0.69251,-0.50166 1.0865,-1.109958 1.73885,-2.68464 7.52323,-6.517677 14.13504,-9.366646 2.21574,-0.954742 4.16377,-1.865574 4.32902,-2.02407 0.18672,-0.179113 0.0912,-1.773083 -0.25229,-4.211769 -0.30396,-2.157977 -0.71916,-6.34577 -0.92268,-9.306206 -0.31805,-4.626334 -0.30509,-5.423706 0.0922,-5.6751 0.55047,-0.348266 4.78618,-0.3941 5.30355,-0.05739 0.21248,0.138279 0.51063,2.211882 0.72391,5.0351 0.62483,8.27022 1.06915,11.728598 1.5295,11.90525 0.23293,0.08938 2.4759,-0.416412 4.98442,-1.123985 7.35452,-2.074484 13.27097,-3.386202 22.00092,-4.877769 2.2,-0.375883 4.072,-0.754946 4.16,-0.842364 0.088,-0.08742 0.16,-2.413933 0.16,-5.170036 v -5.011096 h 3.52 3.52 l 0.25287,3.52 c 0.1391,1.936 0.32918,4.006984 0.42243,4.602188 l 0.16954,1.082187 2.61756,-0.207122 c 11.36068,-0.898937 19.87853,-0.857182 29.1408,0.142848 2.20112,0.237654 3.26496,0.239742 3.49783,0.0069 0.18406,-0.184061 0.45046,-2.171944 0.59203,-4.417519 0.14154,-2.245575 0.32886,-4.269244 0.41629,-4.497042 0.11952,-0.311486 1.01328,-0.391644 3.6048,-0.323293 l 3.44585,0.09089 v 5.260249 5.260248 l 2.4,0.424496 c 7.70148,1.362183 16.43847,3.217209 21.65047,4.596793 6.3048,1.668844 6.69123,1.740886 6.9647,1.298412 0.23152,-0.37461 1.05949,-8.291893 1.32608,-12.680198 0.1176,-1.936 0.35856,-3.7 0.53546,-3.92 0.33456,-0.41603 4.22611,-0.5707 5.17712,-0.205764 0.40499,0.155409 0.50492,0.715123 0.49984,2.8 -0.007,2.760455 -0.67498,9.988203 -1.28704,13.919832 -0.20157,1.294738 -0.24503,2.460678 -0.0966,2.590977 0.14845,0.130301 1.49392,0.71797 2.98992,1.305932 8.56439,3.365996 13.7185,6.596009 15.7529,9.872153 0.61238,0.986124 0.70886,1.033558 1.07734,0.529641 0.22259,-0.304419 1.00042,-2.23183 1.72851,-4.283129 2.85053,-8.030983 4.82247,-15.925757 5.64352,-22.59418 0.26109,-2.120504 0.5914,-3.973286 0.73405,-4.117293 0.14263,-0.144007 0.81831,-0.216007 1.50151,-0.16 l 1.24217,0.101831 -0.0437,3.04 c -0.0984,6.834752 -2.78963,18.018532 -6.73792,28 -7.13408,18.035238 -18.09402,33.05401 -31.69197,43.428579 -1.90704,1.454967 -3.24765,2.755149 -3.78333,3.669239 -0.89795,1.532256 -1.3896,1.81246 -3.80224,2.167052 -1.46403,0.215175 -1.82716,0.476026 -4.97939,3.577024 -3.79088,3.729264 -7.44579,6.618466 -9.56707,7.562736 -1.07494,0.47851 -1.77402,0.57685 -2.97142,0.418 l -1.56576,-0.2077 -2.94858,3.01349 c -2.13741,2.18445 -3.3007,3.1234 -4.22858,3.41299 -1.55251,0.48456 -2.4,1.17835 -2.4,1.96476 0,1.12995 -1.2686,3.91161 -2.24192,4.9158 -0.90496,0.93369 -0.95126,1.08648 -0.58969,1.94565 0.61926,1.47155 0.45011,7.74459 -0.32384,12.0094 -0.37098,2.04435 -1.20288,5.50035 -1.84864,7.68 -1.20576,4.06975 -1.26723,4.49985 -0.89831,6.28359 0.14864,0.71868 0.0555,1.28441 -0.30118,1.82874 -0.93434,1.42596 -0.67539,2.21617 1.08477,3.31033 1.89875,1.18033 2.51325,2.24345 1.97705,3.42032 l -0.36451,0.8 h -4.76768 c -5.35222,0 -5.71197,-0.13537 -5.35907,-2.01651 0.10973,-0.58495 0.84365,-2.13452 1.63094,-3.44351 1.65789,-2.75652 1.84189,-3.81998 0.66096,-3.81998 -1.00188,0 -1.04873,-0.0921 -1.48214,-2.91293 -0.44426,-2.89155 -0.7257,-3.52773 -1.1759,-2.65823 -0.87962,1.69874 -2.689,7.72106 -3.01735,10.04292 -0.23225,1.64245 -0.62787,3.01491 -1.04976,3.64198 -0.66109,0.98256 -0.74179,1.00843 -3.42691,1.09816 -2.7385,0.0915 -2.75344,0.0877 -3.59997,-0.91836 z m 2.04826,-8.48268 c 0.005,-1.01561 0.30493,-2.0781 1.73923,-6.16151 1.1945,-3.40074 1.14829,-6.24633 -0.14592,-8.98202 -0.63408,-1.34038 -1.07987,-1.94387 -1.28464,-1.73911 -0.83277,0.83279 -1.38653,5.16493 -1.40499,10.99178 -0.0189,5.99352 0.22605,8.24783 0.7983,7.34332 0.16122,-0.25483 0.29533,-0.90843 0.29802,-1.45246 z m 13.56089,-6.45086 c 0.1096,-0.836 0.29341,-4.11435 0.40852,-7.28522 0.18854,-5.19416 0.1518,-5.87564 -0.37079,-6.88 -0.31904,-0.61313 -0.66416,-1.96724 -0.76691,-3.00915 -0.19923,-2.02029 -0.98682,-2.95314 -0.98682,-1.16885 0,0.54456 -0.2296,2.39256 -0.51024,4.10667 -0.5902,3.60516 -0.45302,6.0634 0.50429,9.03655 0.36835,1.144 0.75715,3.124 0.86403,4.4 0.10685,1.276 0.29879,2.32 0.4265,2.32 0.12771,0 0.32186,-0.684 0.43142,-1.52 z m -7.1814,-15.56939 c 0.20512,-0.24716 0.28595,-0.79604 0.17961,-1.21972 -0.15542,-0.61926 -0.0256,-0.84674 0.66176,-1.15993 0.86179,-0.39267 0.9305,-0.89987 0.31843,-2.35142 -0.18195,-0.43151 0.0349,-0.61123 1.07565,-0.89147 0.97946,-0.26374 1.35351,-0.55024 1.50467,-1.15243 0.42378,-1.68854 -2.23273,-2.88279 -3.14899,-1.41564 -0.50937,0.81563 -0.95379,0.80877 -1.70963,-0.0264 -0.33171,-0.36653 -1.08438,-0.86751 -1.67264,-1.11329 -1.35274,-0.56521 -1.05174,-1.10029 0.61888,-1.10029 1.74893,0 1.58781,-0.89985 -0.25859,-1.44438 -1.70791,-0.50368 -3.34323,-1.5226 -3.89879,-2.42921 -0.23926,-0.39047 -0.51126,-1.55065 -0.60444,-2.57818 -0.0932,-1.02752 -0.32941,-1.88262 -0.52496,-1.90021 -0.19556,-0.0176 -1.00356,-0.0698 -1.79556,-0.11598 -0.792,-0.0462 -2.30448,-0.19259 -3.36105,-0.32531 -1.68605,-0.21178 -2.17117,-0.13603 -3.9656,0.61923 -2.36275,0.99447 -2.93751,0.92827 -5.14906,-0.59301 -1.15616,-0.7953 -2.27597,-1.20402 -4.46217,-1.62865 -1.87268,-0.36375 -3.80228,-1.01082 -5.38432,-1.805604 -3.52599,-1.771354 -4.69418,-1.627626 -2.4913,0.306524 0.76528,0.67193 1.57939,1.03349 2.64,1.17248 1.94803,0.25529 2.6872,0.56017 5.0535,2.08444 1.056,0.68023 2.856,1.63539 4,2.12257 1.144,0.48719 2.7712,1.30522 3.61604,1.81785 1.45321,0.88182 2.3846,0.97009 1.56262,0.1481 -0.20826,-0.20825 -0.37866,-0.63785 -0.37866,-0.95465 0,-0.86413 2.17197,-0.77204 3.55268,0.15062 0.91228,0.60966 1.25059,1.20718 2.10163,3.71204 1.55862,4.58746 2.57475,5.37159 7.56985,5.84159 1.77447,0.16696 3.28676,0.364 3.36061,0.43786 0.0739,0.0739 0.0534,0.34503 -0.0454,0.60259 -0.1152,0.30025 -0.8471,0.54039 -2.03952,0.6692 -3.39753,0.36702 -3.86,1.33115 -1.00169,2.08841 2.44342,0.64736 2.48617,1.09727 0.18185,1.91397 -1.55187,0.55001 -0.98176,0.96772 1.32084,0.96772 1.49926,0 2.31968,-0.14325 2.57376,-0.44939 z m 14.13155,-16.0923 c 1.42016,-1.28302 3.33865,-3.88016 3.06697,-4.15185 -0.0927,-0.0927 -1.3654,0.0254 -2.82825,0.26249 l -2.65968,0.43105 -0.025,2.32 c -0.0221,2.03804 0.0457,2.32 0.55651,2.32 0.31981,0 1.17008,-0.53176 1.88947,-1.18169 z m 4.77385,-4.25831 c 0,-0.176 -0.20748,-0.32 -0.46112,-0.32 -0.2536,0 -0.55011,0.144 -0.65888,0.32 -0.10876,0.176 0.0987,0.32 0.46112,0.32 0.36237,0 0.65888,-0.144 0.65888,-0.32 z m -27.04,-2.239996 c 0.528,-0.34968 1.29437,-0.636733 1.70301,-0.637891 0.40867,-0.0013 1.34467,-0.353373 2.08,-0.782698 2.65808,-1.551888 6.26544,-1.361184 8.55722,0.452384 0.8392,0.664074 1.37187,0.858023 2.0176,0.734589 0.49968,-0.09552 1.41702,0.07564 2.13101,0.397603 1.24611,0.561909 1.26,0.560499 2.30243,-0.233161 2.77171,-2.110308 5.21081,-2.678352 6.98934,-1.627757 0.81744,0.482886 1.10663,0.495849 2.60935,0.116982 4.23379,-1.067398 12.39654,-4.108579 14.2007,-5.29072 0.43302,-0.283718 0.76842,-0.815619 0.76723,-1.216707 -0.003,-0.857293 -0.92419,-2.324637 -1.88118,-2.994928 -0.66026,-0.46247 -0.80394,-0.39168 -2.84605,1.402198 -3.29882,2.89786 -5.44614,4.404394 -8.06163,5.655972 -2.32016,1.110252 -3.84903,1.449011 -3.84903,0.852851 0,-0.160208 1.188,-1.266746 2.64,-2.458976 3.04007,-2.49617 7.92,-7.152995 7.92,-7.557875 0,-0.418301 -2.41174,-1.349652 -5.44,-2.100778 -3.69865,-0.917408 -10.21571,-1.830042 -10.53654,-1.47551 -0.14154,0.156432 -0.65594,1.364422 -1.14307,2.684422 -1.81226,4.910637 -4.56224,9.75471 -6.11555,10.772477 -1.56916,1.028141 -1.54592,0.143293 0.1326,-5.054003 1.79767,-5.566109 2.5153,-8.49184 2.16845,-8.840445 -0.36064,-0.362458 -9.95344,-0.645773 -15.62589,-0.461498 -4.72668,0.153552 -5.04,0.202503 -5.04,0.787411 0,1.001136 0.87732,4.227962 2.44388,8.98882 1.01542,3.085881 1.35686,4.534489 1.1238,4.767568 -1.06873,1.068723 -4.36547,-3.617482 -6.63315,-9.428784 -0.84381,-2.162349 -1.68726,-4.105943 -1.87437,-4.319092 -0.65747,-0.749062 -11.86729,1.163434 -15.30016,2.610349 -0.66,0.278183 -1.2,0.706323 -1.2,0.951424 0,0.512288 5.05866,5.362979 7.2536,6.955399 1.94324,1.409804 3.3064,2.698489 3.3064,3.12576 0,1.578697 -6.69411,-1.877319 -10.91203,-5.633639 -3.44678,-3.069549 -3.05814,-2.875865 -4.00173,-1.994377 -1.10646,1.03366 -1.80179,2.430457 -1.57132,3.15655 0.32345,1.019174 6.56188,3.649373 13.30048,5.607648 5.82288,1.692163 7.24579,1.879539 9.79084,1.289302 2.57866,-0.598032 4.50628,-0.388099 5.96224,0.649332 1.29175,0.920404 1.45402,0.929634 2.63152,0.149798 z m 48.92855,-9.170339 c 6.32509,-3.637555 11.47952,-7.534083 16.59145,-12.542474 2.68781,-2.633369 3.44,-3.558793 3.44,-4.232285 0,-1.352982 -2.36121,-4.571212 -4.57465,-6.235107 -2.21501,-1.665033 -5.34957,-3.34456 -6.21623,-3.330685 -0.38982,0.0062 -1.12355,1.039578 -2.32896,3.28 -2.25299,4.187444 -6.94364,11.233556 -9.6071,14.431376 -1.14019,1.368938 -2.41245,2.905866 -2.82723,3.415399 l -0.75421,0.926422 0.9736,1.323888 c 0.53549,0.728138 1.15408,2.028119 1.37469,2.888845 0.25043,0.97719 0.57689,1.56496 0.86915,1.56496 0.25744,0 1.63421,-0.670653 3.05949,-1.490339 z M 478.4646,90.144133 c 0.33082,-0.604176 1.02954,-1.639702 1.55271,-2.301177 0.56633,-0.716032 0.85369,-1.363447 0.71017,-1.6 -0.13254,-0.218525 -1.11501,-1.405322 -2.18323,-2.637322 -3.73037,-4.302362 -7.7921,-10.319936 -11.82563,-17.52 -0.46835,-0.836 -1.06624,-1.52 -1.32867,-1.52 -0.74951,0 -3.31236,1.396442 -5.44052,2.96441 -3.107,2.289171 -5.59318,5.72646 -4.976,6.87968 0.38954,0.727843 5.5648,5.472601 8.89687,8.156787 4.3111,3.472854 12.95094,9.010845 13.68829,8.773952 0.16748,-0.05381 0.57516,-0.592157 0.90601,-1.19633 z m 7.54931,-6.358009 c 2.11108,-1.076986 6.78464,-2.472957 10.76016,-3.21401 2.112,-0.393683 4.0361,-0.773853 4.27578,-0.844819 0.53744,-0.15913 0.4625,-0.618096 -1.01238,-6.201661 -0.62762,-2.376 -1.58932,-6.552 -2.13709,-9.28 -0.54781,-2.728 -1.06403,-5.284 -1.14723,-5.68 -0.13191,-0.627866 -0.35146,-0.72 -1.71581,-0.72 -3.58471,0 -13.76995,1.59473 -19.68333,3.081869 -3.79155,0.953523 -5.29994,1.545689 -5.29994,2.080665 0,0.587853 3.33415,7.028877 5.17783,10.00273 3.36736,5.431517 8.06467,11.37889 8.99491,11.388698 0.31501,0.0033 1.1192,-0.27274 1.7871,-0.613472 z m 68.08868,-2.50049 c 4.12233,-5.166586 6.85113,-9.420096 9.75216,-15.201066 1.37936,-2.748662 1.54508,-3.270332 1.16092,-3.65447 -0.5528,-0.552816 -6.77196,-2.105994 -11.9216,-2.977312 -4.87708,-0.825206 -13.52953,-1.784278 -13.78576,-1.528067 -0.10732,0.107331 -0.66921,2.545446 -1.24867,5.418032 -0.57945,2.872585 -1.66102,7.563187 -2.40352,10.423558 -0.74249,2.860371 -1.27491,5.396391 -1.1831,5.635603 0.0998,0.260074 0.9207,0.520212 2.04189,0.64706 3.13292,0.354448 8.41571,1.665913 11.45916,2.844771 1.584,0.613545 3.10826,1.132717 3.3872,1.153715 0.28077,0.02112 1.50471,-1.211962 2.74132,-2.761824 z m -33.16852,-2.469648 c 3.432,0.105642 6.528,0.255962 6.88,0.334048 1.13149,0.250998 1.5186,-0.376845 2.11549,-3.43127 0.87338,-4.469216 2.19971,-13.905018 2.28746,-16.27313 l 0.077,-2.08 -3.2,-0.202413 c -4.14755,-0.262352 -20.82707,-0.26248 -23.52,-1.85e-4 -2.02512,0.197254 -2.08243,0.22792 -2.17264,1.162598 -0.0983,1.017974 1.42106,12.051341 2.34944,17.061786 0.30388,1.639984 0.72516,3.15446 0.9362,3.3655 0.28492,0.284928 1.36502,0.317716 4.19536,0.127351 2.09641,-0.140999 6.61964,-0.16993 10.05164,-0.06428 z m 64.23203,-9.370352 c 2.0057,-2.435763 4.99837,-6.719197 6.98663,-10 2.50966,-4.141168 6.22134,-11.361814 6.22134,-12.102893 0,-0.976512 -2.05017,-3.382777 -4.3888,-5.151033 -3.33677,-2.522999 -13.66512,-7.358816 -14.31945,-6.704487 -0.10243,0.102419 -0.68528,2.167741 -1.29527,4.589607 -1.3808,5.482515 -3.49158,11.835424 -5.58937,16.822793 -0.88391,2.101421 -1.60711,3.946877 -1.60711,4.101011 0,0.154135 1.47664,1.014077 3.28141,1.910983 4.07165,2.02344 6.8152,4.187565 8.07859,6.372441 0.528,0.913101 1.05459,1.664999 1.17021,1.670884 0.11562,0.0059 0.77344,-0.673306 1.46182,-1.509306 z M 453.38003,69.02836 c 1.37843,-2.031856 4.3232,-4.379164 7.84243,-6.251302 1.51341,-0.805075 2.75161,-1.642166 2.75161,-1.860198 0,-0.218036 -0.58448,-1.754256 -1.29884,-3.413824 -1.84282,-4.281127 -4.5682,-12.497191 -5.86746,-17.688397 -0.60995,-2.437047 -1.19469,-4.516666 -1.29939,-4.621376 -0.38983,-0.389831 -6.96339,2.368697 -10.61891,4.456115 -3.01469,1.721482 -6.46471,4.861651 -7.49923,6.82575 l -0.77616,1.473549 1.6,3.101507 c 3.86227,7.486794 12.35804,19.618116 13.71724,19.587197 0.19952,-0.0045 0.85143,-0.728595 1.44871,-1.609021 z m 19.32864,-10.698012 c 2.14796,-0.613405 5.3454,-1.410596 7.1054,-1.771533 3.90151,-0.800109 13.20685,-2.233181 14.50068,-2.233181 1.5928,0 1.64553,-0.3692 0.8454,-5.92 -0.40588,-2.816 -1.04976,-8.36 -1.43078,-12.32 -0.8967,-9.319554 -0.73344,-8.64 -2.07603,-8.64 -4.69847,0 -28.92202,4.642424 -30.04352,5.757818 -1.00426,0.998761 5.73174,26.242182 7.00249,26.242182 0.10503,0 1.94836,-0.501878 4.09636,-1.115286 z m 95.21744,-1.764714 c 1.55126,-3.935984 3.76534,-11.862787 4.94489,-17.703757 0.98439,-4.874525 1.0009,-5.082275 0.43674,-5.495683 -1.98115,-1.451677 -29.12471,-6.437912 -30.19786,-5.547296 -0.2287,0.189805 -0.41766,0.867468 -0.4199,1.505918 -0.009,2.409072 -2.01306,19.64118 -2.74314,23.58134 -0.24102,1.300803 0.20992,1.608316 2.74723,1.87336 5.14845,0.537804 15.72148,2.60134 20.48,3.997081 3.39056,0.994496 3.51069,0.938595 4.75204,-2.210963 z m -43.31968,-3.261258 c 4.39577,0.200522 8.0959,0.260336 8.22246,0.132922 0.25651,-0.258195 0.94496,-6.940736 1.68867,-16.391664 0.27005,-3.432 0.57821,-7.066265 0.68474,-8.076145 0.18451,-1.748783 0.15523,-1.850781 -0.61546,-2.143788 -1.64025,-0.623634 -17.86681,-1.054507 -25.95523,-0.689205 -4.21437,0.190335 -7.78435,0.467969 -7.93338,0.616964 -0.46166,0.461693 1.76352,26.269768 2.29344,26.599502 0.15264,0.09497 3.28013,0.04086 6.94996,-0.12025 4.50249,-0.19766 9.27164,-0.174355 14.6648,0.07166 z"/>
  <path fill="#022663" d="m 139.45268,215.28004 c -5.68985,-0.96141 -9.2386,-5.81457 -9.2386,-12.63441 0,-5.7908 2.64509,-10.38803 6.89094,-11.9766 5.02307,-1.87938 10.81244,-0.74539 13.85786,2.71439 2.18386,2.48099 2.74862,4.3841 2.74862,9.26221 0,3.5638 -0.1031,4.41899 -0.71938,5.96707 -2.05099,5.15204 -7.27697,7.72552 -13.53944,6.66734 z m 6.20815,-4.87683 c 1.80758,-1.37872 2.31325,-3.14445 2.31325,-8.07758 0,-3.8433 -0.0609,-4.26868 -0.8,-5.58761 -1.17367,-2.09444 -2.53438,-2.89239 -4.93231,-2.89239 -2.71499,0 -3.94354,0.71482 -5.10655,2.97118 -0.74218,1.43991 -0.94976,2.32552 -1.07957,4.60576 -0.27336,4.80209 0.68734,7.66728 3.12605,9.32313 0.95154,0.64609 1.41823,0.73858 3.22769,0.63968 1.69772,-0.0928 2.33961,-0.28669 3.25144,-0.98217 z m -51.77258,4.16242 c -0.489081,-1.34231 -5.829212,-23.79858 -5.706534,-23.99707 0.08257,-0.13361 1.283933,-0.24293 2.669686,-0.24293 2.119261,0 2.547482,0.089 2.695367,0.56 0.0967,0.308 0.904531,4.08693 1.795184,8.39763 0.890653,4.31069 1.742934,7.96118 1.893961,8.11221 0.328288,0.32829 0.220723,0.67613 2.260515,-7.30984 0.899081,-3.52 1.846391,-7.156 2.105121,-8.08 l 0.47041,-1.68 h 3.02496 c 2.87311,0 3.03353,0.0362 3.19562,0.72 0.84564,3.56774 3.68154,15.98514 3.68154,16.12014 0,0.0953 0.17123,0.11612 0.38052,0.0464 0.2143,-0.0714 1.15783,-3.75236 2.16,-8.42667 l 1.77948,-8.29983 2.48,-0.0935 c 1.95893,-0.0738 2.48,9.6e-4 2.48,0.35535 0,0.85177 -5.83118,23.41912 -6.15436,23.81811 -0.21271,0.26261 -1.24831,0.4 -3.01487,0.4 -2.18998,0 -2.72804,-0.0969 -2.89064,-0.52062 -0.10988,-0.28634 -1.0778,-4.21034 -2.15093,-8.72 -1.07314,-4.50965 -2.09472,-8.15451 -2.27018,-8.09967 -0.17546,0.0548 -1.27634,3.82483 -2.4464,8.37777 -1.17006,4.55295 -2.22256,8.43208 -2.338885,8.6203 -0.313059,0.50654 -5.913277,0.45349 -6.099565,-0.0578 z m 72.71144,0.19895 c -0.12408,-0.12409 -0.22561,-5.67361 -0.22561,-12.33228 v -12.10667 h 6.34192 c 6.97621,0 8.84621,0.31818 10.6144,1.80601 1.43857,1.21048 2.02672,2.56493 2.00797,4.62415 -0.0233,2.55293 -1.0177,4.15497 -3.47754,5.60227 -0.55058,0.32395 -0.51299,0.39688 0.46518,0.90272 1.32411,0.68472 2.14621,2.46981 2.44309,5.30485 0.1198,1.144 0.42193,2.98894 0.6714,4.09986 0.24947,1.11092 0.45358,2.08292 0.45358,2.16 0,0.25801 -5.40003,0.1437 -5.56161,-0.11773 -0.0876,-0.14184 -0.38414,-1.97784 -0.65885,-4.08 -0.69058,-5.28449 -0.80973,-5.42213 -4.69407,-5.42213 h -3.00547 l -0.16,4.8 -0.16,4.8 -2.41439,0.0923 c -1.32791,0.0508 -2.51591,-0.009 -2.64,-0.13333 z m 12.06413,-14.81012 c 1.6422,-1.54357 1.26667,-4.30532 -0.69597,-5.11827 -0.52568,-0.21774 -1.99884,-0.33929 -3.45509,-0.28507 l -2.53868,0.0945 -0.0938,2.69326 c -0.0516,1.48128 -0.0146,2.89958 0.0821,3.15176 0.13917,0.36265 0.77225,0.43514 3.02844,0.34674 2.4882,-0.0975 2.95728,-0.21025 3.67296,-0.88293 z m 22.46661,14.51051 c -0.25504,-0.66462 -0.25704,-22.96885 -0.002,-23.63316 0.1545,-0.4023 0.71176,-0.50618 2.71563,-0.50618 h 2.52127 l 0.0845,10.16 0.0845,10.16 5.28,0.16 5.28,0.16 v 1.92 1.92 l -7.88365,0.0855 c -6.9798,0.0757 -7.90616,0.0268 -8.08,-0.42617 z m 28.12087,0.12883 c -0.0909,-0.23689 -0.12746,-5.75813 -0.0812,-12.26943 l 0.084,-11.83874 5.40129,-0.0879 c 6.13385,-0.0999 8.31091,0.27718 10.79132,1.86885 2.53003,1.62352 3.95237,4.21064 4.43913,8.0744 0.35834,2.84437 -0.0488,6.37477 -0.9865,8.55454 -0.85917,1.9972 -3.53903,4.51339 -5.63388,5.28979 -2.04859,0.75925 -13.74867,1.1003 -14.01414,0.40851 z m 11.94573,-4.75455 c 2.01556,-1.13281 3.01738,-3.36537 3.055,-6.80808 0.0674,-6.16328 -2.27066,-8.76036 -7.63795,-8.48429 l -1.92,0.0988 -0.086,7.67368 c -0.0473,4.22052 -0.009,7.87487 0.0856,8.12079 0.29007,0.75591 4.83668,0.33584 6.50331,-0.60085 z m 24.73177,4.08638 c -0.61897,-1.9221 -5.47472,-22.28589 -5.47472,-22.95959 0,-0.62872 0.14886,-0.66105 2.64,-0.57335 l 2.64,0.0929 1.62474,8.02524 c 1.80839,8.93228 1.96169,9.50121 2.36438,8.77476 0.14635,-0.264 1.14897,-3.936 2.22806,-8.16 1.07909,-4.224 2.03937,-7.932 2.13396,-8.24 0.14784,-0.48138 0.59398,-0.56 3.17809,-0.56 h 3.0061 l 0.30902,1.2 c 0.16996,0.66 1.06749,4.47868 1.99452,8.48594 0.99991,4.3223 1.82292,7.24015 2.02332,7.17337 0.18579,-0.0619 1.13186,-3.84458 2.10238,-8.40593 l 1.76456,-8.29338 2.47544,-0.0935 c 2.16109,-0.0816 2.47543,-0.0238 2.47543,0.45521 0,0.53766 -5.15025,21.03193 -5.79961,23.07825 l -0.33002,1.04 h -2.83631 c -1.55996,0 -2.90514,-0.11139 -2.98928,-0.24754 -0.0842,-0.13615 -1.03579,-3.97746 -2.11476,-8.53624 -1.07897,-4.55879 -2.04655,-8.42588 -2.15018,-8.59355 -0.33639,-0.5443 -0.65384,0.4584 -2.6658,8.42025 -1.08924,4.3104 -2.11456,8.08908 -2.27849,8.39708 -0.24962,0.46897 -0.76038,0.56 -3.14199,0.56 h -2.84393 z m 40.17861,0.82667 c -0.11733,-0.11733 -0.21333,-5.66133 -0.21333,-12.32 v -12.10667 h 2.52576 c 2.00797,0 2.56558,0.10377 2.72,0.50618 0.10683,0.27839 0.19424,5.59461 0.19424,11.81382 0,6.21921 -0.0874,11.53544 -0.19424,11.81383 -0.15232,0.39695 -0.69323,0.50617 -2.50667,0.50617 -1.27183,0 -2.40843,-0.096 -2.52576,-0.21333 z m 20.74388,-0.1585 c -0.0909,-0.23689 -0.12745,-5.75813 -0.0812,-12.26943 l 0.084,-11.83874 6.24,0.0138 c 5.7695,0.0128 6.38252,0.0702 8.13017,0.76177 3.5745,1.41442 5.67879,4.39725 6.32483,8.96546 0.92413,6.53478 -1.56384,11.92112 -6.38428,13.82172 -1.62157,0.63933 -2.53437,0.73632 -7.98948,0.84894 -4.95465,0.10228 -6.19107,0.0429 -6.32403,-0.30356 z m 10.75504,-4.15711 c 1.77015,-0.6004 2.88893,-1.56283 3.54755,-3.05173 1.28608,-2.90742 1.04538,-8.11954 -0.47948,-10.38229 -1.20183,-1.78337 -2.55444,-2.3456 -5.6577,-2.35169 l -2.72262,-0.005 -0.086,7.67368 c -0.0473,4.22052 -0.0157,7.85652 0.07,8.08 0.20035,0.5221 3.82419,0.54753 5.32825,0.0374 z m 22.90637,4.32089 c -0.12026,-0.12023 -0.21862,-5.66661 -0.21862,-12.32528 v -12.10667 h 8.12576 c 8.96764,0 8.51424,-0.11077 8.51424,2.08 0,2.13732 0.15926,2.08 -5.77975,2.08 h -5.39126 l -0.18919,1.04 c -0.10406,0.572 -0.0728,1.832 0.0696,2.8 l 0.25879,1.76 5.05097,0.0882 5.05098,0.0882 -0.095,1.9918 -0.0951,1.99179 -5.05149,0.0882 -5.05149,0.0882 0.0915,3.11182 0.0915,3.11181 5.6,0.16 5.6,0.16 v 1.92 1.92 l -8.18138,0.0853 c -4.49978,0.0469 -8.27978,-0.0131 -8.4,-0.13334 z M 16.054082,174.1137 c -0.629336,-0.25394 -0.536206,-3.82733 0.106172,-4.07383 0.935179,-0.35886 424.443356,-0.22236 425.114846,0.13702 0.48346,0.25873 0.61898,0.67664 0.61898,1.90874 0,1.23211 -0.13552,1.65001 -0.61898,1.90875 -0.63136,0.3379 -424.384631,0.45681 -425.221018,0.11932 z M 243.33408,154.1564 c -8.06112,-0.91321 -12.96664,-2.93538 -14.38823,-5.93115 -0.67857,-1.43 -0.7358,-4.18334 -0.1139,-5.48087 l 0.43075,-0.89875 h 10.71569 10.71569 l 0.0986,1.36484 c 0.14144,1.95718 0.96696,2.42018 4.0386,2.26507 2.02531,-0.10227 2.58884,-0.26538 3.75947,-1.08813 0.75736,-0.5323 1.51951,-1.37294 1.69365,-1.86811 0.277,-0.78766 0.20593,-0.99549 -0.56813,-1.66131 -1.09792,-0.94439 -3.08701,-1.52302 -8.22223,-2.39189 -9.71737,-1.64413 -13.2275,-3.13737 -14.74532,-6.27276 -0.89554,-1.84995 -0.69644,-3.85809 0.67261,-6.78368 3.19911,-6.83634 9.33982,-10.5665 19.79566,-12.02484 5.15746,-0.71934 13.52571,-0.9522 19.06538,-0.53054 8.51708,0.64829 12.74251,2.11428 14.43929,5.00962 0.75348,1.28571 0.83731,1.70446 0.69532,3.47326 -0.0888,1.10621 -0.36172,2.42916 -0.6065,2.93989 l -0.44507,0.92858 h -10.23568 -10.23569 l -0.0896,-0.8 c -0.21401,-1.91114 -0.43079,-2.28952 -1.58889,-2.77341 -2.15666,-0.90111 -5.48353,-0.0472 -6.73431,1.72859 -1.08449,1.53966 -1.15033,2.2308 -0.29407,3.08705 0.94861,0.94862 2.60114,1.29758 9.34686,1.97378 6.50367,0.65193 9.10285,1.19091 11.58843,2.40303 4.06985,1.9847 4.80981,5.27603 2.31633,10.30299 -3.48731,7.03057 -9.83891,10.83035 -21.03437,12.58361 -3.71592,0.58193 -16.38299,0.86287 -20.07039,0.44513 z M 16.119441,153.50194 c -0.116826,-0.18902 0.06847,-0.65702 0.411774,-1.04 0.343302,-0.38297 8.585354,-10.48831 18.31567,-22.45631 9.730317,-11.968 17.97647,-22.012 18.32479,-22.32 0.58545,-0.51768 1.862458,-0.56 16.898973,-0.56 8.946115,0 16.340002,0.12029 16.430863,0.26731 0.271527,0.43934 -4.313747,45.61859 -4.67392,46.05269 -0.254531,0.30678 -3.08438,0.4 -12.142735,0.4 -10.406775,0 -11.833642,-0.0594 -12.00248,-0.49935 -0.105392,-0.27464 0.04111,-1.65967 0.325549,-3.07783 0.284441,-1.41816 0.438691,-2.70546 0.342774,-2.86065 -0.09591,-0.15519 -3.046182,-0.28217 -6.55615,-0.28217 h -6.381763 l -2.301085,3.12 c -1.265597,1.716 -2.453306,3.2258 -2.639351,3.3551 -0.564156,0.3921 -24.108553,0.29659 -24.352909,-0.0988 z M 61.047636,136.1416 c 0.484352,-0.58361 3.585114,-15.35696 3.286832,-15.65986 -0.284032,-0.28843 -11.240387,14.93315 -11.240387,15.61619 0,0.64978 7.416727,0.69051 7.953555,0.0437 z m 31.199414,16.98858 c 0.101549,-0.3985 3.141674,-7.10726 6.755831,-14.90834 3.614159,-7.80109 6.571199,-14.38909 6.571199,-14.64 0,-0.38174 -1.2031,-0.45621 -7.370041,-0.45621 -5.989533,0 -7.401952,-0.0831 -7.540384,-0.44389 -0.182473,-0.47552 3.866695,-8.83809 4.469767,-9.23121 0.525552,-0.34258 71.310338,-0.29227 71.852738,0.0511 0.36323,0.22992 -0.90873,3.22472 -6.47211,15.23842 -3.8083,8.22374 -6.84724,15.07676 -6.75319,15.22893 0.094,0.15217 4.13478,0.27667 8.97941,0.27667 h 8.80842 l 1.0127,-1.14262 c 0.55698,-0.62845 6.34822,-7.50445 12.86941,-15.28 l 11.85673,-14.13738 14.94327,-0.0832 14.94328,-0.0832 v 1.12559 c 0,1.49089 -3.4826,38.28571 -3.67246,38.80074 -0.11401,0.30926 -2.61366,0.4 -11.01861,0.4 -5.97914,0 -10.94068,-0.11248 -11.02565,-0.24997 -0.085,-0.13748 0.0545,-1.24718 0.31003,-2.46599 0.25548,-1.21881 0.39302,-2.40232 0.30565,-2.63003 -0.12183,-0.31747 -1.50246,-0.41401 -5.92066,-0.41401 h -5.76178 l -2.11386,2.88 -2.11386,2.88 h -28.59552 c -16.91828,0 -28.6693,-0.11939 -28.77621,-0.29239 -0.0994,-0.16081 2.90453,-6.9613 6.67537,-15.11219 3.77085,-8.15089 6.78718,-14.93132 6.70294,-15.06761 -0.0842,-0.13629 -3.59943,-0.24781 -7.81155,-0.24781 -6.94991,0 -7.69009,0.0518 -8.0009,0.56 -0.18837,0.308 -3.40398,7.184 -7.14579,15.28 l -6.8033,14.72 -10.17275,0.0846 -10.17275,0.0845 z M 204.60297,138.5036 c 0.24297,-0.39313 2.72759,-12.15784 2.72958,-12.92463 9.6e-4,-0.32267 -0.13086,-0.53867 -0.29267,-0.48 -0.46456,0.16843 -9.6258,12.80988 -9.6258,13.28248 0,0.3264 0.80712,0.42418 3.50111,0.42418 1.92562,0 3.58512,-0.13591 3.68778,-0.30203 z m 95.53111,15.00204 c 0,-0.33495 31.47753,-37.99797 32.13955,-38.45511 0.18723,-0.1293 6.78445,-0.2373 14.66045,-0.24 l 14.32,-0.005 v 1.04535 c 0,1.78355 -3.4752,37.34329 -3.68224,37.67829 -0.1225,0.19817 -4.14954,0.31636 -10.77879,0.31636 h -10.58323 l 0.1791,-1.2 c 0.0985,-0.66 0.28106,-1.884 0.40564,-2.72 l 0.22649,-1.52 h -5.77478 -5.77478 l -2.01453,2.72 -2.01456,2.72 h -10.65416 c -7.30705,0 -10.65416,-0.10681 -10.65416,-0.33999 z m 39.18585,-14.35714 c 0.22221,-0.35952 2.73415,-12.31038 2.73415,-13.00797 0,-0.27097 -0.13898,-0.40677 -0.30884,-0.3018 -0.68096,0.42086 -9.62214,13.01025 -9.44438,13.29789 0.24474,0.39596 6.77488,0.40701 7.01907,0.0119 z m 21.80599,14.42863 c -0.16154,-0.26136 16.84556,-37.89441 17.4854,-38.6915 0.39261,-0.48905 18.64948,-0.58687 18.94944,-0.10154 0.17572,0.2843 -16.30905,36.83751 -17.29126,38.34154 -0.46966,0.71923 -0.4801,0.72 -9.7239,0.72 -5.08957,0 -9.32842,-0.12082 -9.41968,-0.2685 z m 27.32816,-0.0645 c 0,-0.43008 16.8304,-37.34149 17.47523,-38.32565 l 0.4879,-0.7446 17.65843,0.12835 c 19.12647,0.13903 19.72813,0.19044 22.71488,1.94079 3.38068,1.98122 3.64365,6.53593 0.71328,12.35487 -2.25059,4.46908 -5.92156,6.7917 -11.92972,7.5479 -1.03588,0.13038 -1.68,0.3676 -1.68,0.61871 0,0.22399 1.72812,3.96802 3.84028,8.32005 2.11216,4.35204 3.75968,8.04326 3.66112,8.20272 -0.10118,0.16372 -4.76272,0.28991 -10.70902,0.28991 -9.7104,0 -10.55126,-0.0436 -10.80474,-0.56 -0.1512,-0.308 -1.26966,-3.764 -2.4855,-7.68 -1.21581,-3.916 -2.36653,-7.12 -2.55712,-7.12 -0.19056,0 -1.75779,3.132 -3.48269,6.96 -1.72493,3.828 -3.33891,7.284 -3.58665,7.68 l -0.45044,0.72 h -9.43264 c -6.32144,0 -9.4326,-0.10985 -9.4326,-0.33305 z m 36.45401,-22.59393 c 1.87776,-0.93573 3.54599,-3.10268 3.54599,-4.60607 0,-1.54483 -1.0048,-2.05435 -4.29063,-2.17571 l -2.9447,-0.10877 -1.66784,3.62877 c -0.91728,1.99582 -1.66535,3.73676 -1.66231,3.86876 0.003,0.132 1.20119,0.24 2.66266,0.24 2.23216,0 2.92899,-0.13546 4.35683,-0.84698 z"/>
</g>
</svg>
