<?xml version="1.0" encoding="UTF-8"?>
<svg xmlns="http://www.w3.org/2000/svg" viewBox="0 0 201.3 18.2">
<title>K-Mile Air</title>
<desc>K-Mile Air logo</desc>
<metadata xmlns:rdf="http://www.w3.org/1999/02/22-rdf-syntax-ns#" xmlns:Airline="http://schema.org/Airline">
<rdf:RDF>
<Airline:name>K-Mile Air</Airline:name>
<Airline:iataCode>8K</Airline:iataCode>
<Airline:url>https://airlinelogos.aero/8K</Airline:url>
</rdf:RDF>
</metadata>
<path fill="#0053a1" d="M146.32,14.92l-4.77,3.19h-1.16s14.94-10.01,14.94-10.01l-.06,9.99h-1.16s0-3.18,0-3.18h-7.81ZM154.16,9.66l-6.99,4.68h6.96s.03-4.68.03-4.68Z"/>
<path fill="#0053a1" d="M171.12,9.98c-.28-.69-1.08-1.14-2.75-1.14-1.91,0-3.97.84-4.73,1.85-.76,1.01.69,1.44,1.85,1.81l2.68.96c1,.46,1.24,1.05.59,1.92-1.2,1.61-4.79,2.82-7.67,2.82-2.48,0-3.79-.83-3.68-2.07l1.17-.25c-.01,1.03.84,1.74,2.99,1.74,2.33,0,5.14-1.01,6.1-2.29.82-1.09-.89-1.55-2.12-1.96l-2.52-.92c-.88-.4-1.12-.96-.54-1.73,1.08-1.44,3.72-2.45,6.39-2.46,1.79,0,3.1.52,3.32,1.35l-1.07.36Z"/>
<path fill="#0053a1" d="M172.21,18.06h-1.13s7.25-9.68,7.25-9.68h1.13s-7.25,9.68-7.25,9.68Z"/>
<path fill="#0053a1" d="M181.57,14.87l-4.77,3.19h-1.16s14.94-10.01,14.94-10.01l-.06,9.99h-1.16s0-3.18,0-3.18h-7.81ZM189.42,9.61l-6.99,4.68h6.96s.03-4.68.03-4.68Z"/>
<path fill="#0053a1" d="M17.9,17.94l-4.32-7.77-5.81,7.77H0S13.42,0,13.42,0h7.76s-5.53,7.4-5.53,7.4L30.69,0h9.6s-18.25,8.5-18.25,8.5l5.9,9.44h-10.05Z"/>
<path fill="#0053a1" d="M29.13,13.37l2.68-3.58h11.35s-2.68,3.58-2.68,3.58h-11.35Z"/>
<path fill="#0053a1" d="M69.58,17.95l5.53-10.33-14.95,10.33h-3.09s.82-10.33.82-10.33l-10.28,10.33h-7.72S58.37,0,58.37,0h7.67s-1.11,9.58-1.11,9.58L78.51.01h7.76s-8.93,17.94-8.93,17.94h-7.76Z"/>
<path fill="#0053a1" d="M81.51,17.95L94.93.02h7.76s-13.42,17.94-13.42,17.94h-7.76Z"/>
<path fill="#0053a1" d="M94.79,17.96L108.21.02h7.76s-10.46,13.99-10.46,13.99h9.33s-2.96,3.95-2.96,3.95h-17.09Z"/>
<path fill="#0053a1" d="M115.12,17.96L128.54.02h17s-2.96,3.96-2.96,3.96h-9.24s-2.23,2.98-2.23,2.98h8.75s-2.96,3.96-2.96,3.96h-8.75s-2.31,3.09-2.31,3.09h9.24s-2.96,3.95-2.96,3.95h-17Z"/>
<polygon fill="#ffd300" points="153.58 .47 153.26 .89 200.99 .86 201.3 .45 153.58 .47"/>
<polygon fill="#ffd300" points="152.69 1.66 152.38 2.07 200.11 2.05 200.42 1.63 152.69 1.66"/>
<polygon fill="#ffd300" points="151.8 2.84 151.49 3.26 199.22 3.23 199.53 2.82 151.8 2.84"/>
<polygon fill="#ffd300" points="150.91 4.03 150.6 4.45 198.33 4.42 198.64 4 150.91 4.03"/>
<polygon fill="#ffd300" points="149.98 5.27 149.67 5.68 197.4 5.66 197.71 5.24 149.98 5.27"/>
</svg>
