<?xml version="1.0" encoding="UTF-8"?>
<svg xmlns="http://www.w3.org/2000/svg" viewBox="0 0 1000 54.95">
<title>Southern Air logo</title>
<path fill="#231f20" d="M582.31-.37a4.49,4.49,0,0,1-.44,1.31c-2.81,3.72-5.69,7.39-8.47,11.13a2.83,2.83,0,0,1-2.61,1.22c-19.09-.06-38.19,0-57.28-.11a3.48,3.48,0,0,0-3.14,1.38c-1.63,2.1-3.43,4.06-5.43,6.39h57.77c-3.12,4.13-6,8-9,11.85H495.91l-6.27,8.28H551.3c-.41.64-.63,1-.9,1.4-2.82,3.79-5.69,7.54-8.47,11.36a2.48,2.48,0,0,1-2.3,1.09q-33.89,0-67.79,0c-5.54,0-8.21-3.69-6.35-8.95a19.58,19.58,0,0,1,2.77-5.13c6.91-9.23,13.76-18.51,20.95-27.52A36.18,36.18,0,0,1,511.34-.11c.08,0,.14-.17.21-.26Z"/>
<path fill="#242021" d="M126-.37c-3.12,4.16-6.21,8.36-9.42,12.46a3.32,3.32,0,0,1-2.34.92q-24.32.08-48.65,0c-3.07,0-6.14,0-9.21,0a2.55,2.55,0,0,0-1.76.64c-1.77,2.16-3.41,4.43-5.34,7h4c13.15,0,26.29-.07,39.44.06a16.79,16.79,0,0,1,6.55,1.41c3.79,1.7,4.86,4.88,2.78,8.49A94,94,0,0,1,95.5,40,38,38,0,0,1,73.27,54.28a22.34,22.34,0,0,1-5.09.6q-34.1.06-68.18,0v-.37a13.73,13.73,0,0,0,1-1c2.63-3.39,5.27-6.78,7.85-10.21A2.86,2.86,0,0,1,11.47,42c3.37.09,6.75,0,10.13,0,15.66,0,31.32.12,47,.13a3,3,0,0,0,2.1-.65c2.28-2.77,4.43-5.65,6.81-8.74H75.22c-13.88,0-27.76.09-41.64,0a11.69,11.69,0,0,1-5.71-1.55c-3.59-2.18-4.17-6.17-1.57-10.5C30.67,13.47,36.16,7.22,44,3.6c3.5-1.62,7.26-2.67,10.9-4Z"/>
<path fill="#231f20" d="M661.55-.37c.06.09.11.26.19.27,4.44.65,6,4.73,4.67,8.84a8.25,8.25,0,0,1-.83,2c-4.15,6.3-8.32,12.58-14.5,17.18a36,36,0,0,1-17,6.74V54.8H610.88c.62-6.57,1.24-13.1,1.88-19.85H609c-6.2,0-12.4,0-18.6,0A2.61,2.61,0,0,0,588,36.1C583.52,42.05,579,48,574.51,53.83a2.41,2.41,0,0,1-1.53,1c-7,.07-14.08,0-21.45,0,2.78-3.69,5.39-7.13,8-10.58L593.37-.37ZM642.06,13c-12.16,0-23.88,0-35.6,0a1.82,1.82,0,0,0-1.3.45c-2.21,2.82-4.36,5.69-6.5,8.51.18.2.22.28.25.28q17.6,0,35.18,0a1.77,1.77,0,0,0,1.25-.53C637.53,19,639.66,16.18,642.06,13Z"/>
<path fill="#231f20" d="M206-.37s0,.15.08.16c5,1.64,6.67,4.87,4.34,9.7a57.7,57.7,0,0,1-5.94,9c-5.64,7.56-11.27,15.15-17.16,22.52a36.81,36.81,0,0,1-22.57,13.7,14.84,14.84,0,0,1-2.75.18h-54c-.49,0-1,0-1.47,0-4.51-.36-7-3.56-5.66-7.85a21.11,21.11,0,0,1,3.16-6.33q9.84-13.3,20-26.38A38.12,38.12,0,0,1,146.34.08a6.32,6.32,0,0,0,1.08-.45h1.47a6,6,0,0,0,1.34.35c3.16,0,6.33,0,9.49,0a6,6,0,0,0,1.34-.35ZM125.28,41.22h40.83l21.29-27.8c-13.65,0-26.84,0-40,0a2.62,2.62,0,0,0-1.74,1c-3.83,4.94-7.61,9.92-11.39,14.9C131.32,33.2,128.42,37.06,125.28,41.22Z"/>
<path fill="#242020" d="M994.35-.37s0,.15.07.16c5.29,1.66,6.86,5,4.53,10.1a26.12,26.12,0,0,1-3.54,5.55c-3,3.71-5.85,7.62-9.35,10.81-5.61,5.13-8.93,6.31-18.8,8.57v20h-23.1c.65-6.53,1.3-13,2-19.7-.52,0-1-.12-1.44-.12-6.94,0-13.88,0-20.81,0a2.62,2.62,0,0,0-2.4,1.24c-4.28,5.76-8.65,11.45-12.91,17.22a3.45,3.45,0,0,1-3.18,1.56c-6.55-.08-13.11,0-20,0l26.08-34.65L913.92,17l22.22-.29-4,5.43h35.38a1.33,1.33,0,0,0,1-.36c2.22-2.87,4.4-5.78,6.7-8.83H939.08c-.91,0-1.83-.06-2.75-.07l-19.1-.09c.31-.45.6-.9.93-1.34q4.37-5.93,8.74-11.83Z"/>
<path fill="#241f20" d="M767-.37A4.78,4.78,0,0,1,766.47,1q-20.1,26.43-40.27,52.8a2.8,2.8,0,0,1-1.87,1.1c-7.12.07-14.25,0-21.37,0a4,4,0,0,1-.64-.13L690.84,19.41c-9.3,11.92-18.46,23.67-27.66,35.45H641.59L683.66-.37h20.27a7.56,7.56,0,0,0,.23,1.05q4.62,13.89,9.25,27.76l3.28,9.87L745.94-.37Z"/>
<path fill="#231f20" d="M312.16-.37c-.8,1.19-1.55,2.42-2.42,3.56C300.06,15.85,290.49,28.6,280.6,41.1A36.67,36.67,0,0,1,258,54.76a13.47,13.47,0,0,1-2.38.14H201.44a11.58,11.58,0,0,1-2.2-.16c-4.47-.87-6.21-3.73-5.06-8.19.89-3.44,3.11-6.06,5.19-8.78Q214,18.7,228.5-.37h21a4.51,4.51,0,0,1-.42,1.3q-13.6,17.94-27.24,35.87c-1,1.33-2,2.68-3.17,4.26.58,0,.81,0,1,0,12.7,0,25.4.1,38.1.06a3,3,0,0,0,2-1.13q15.53-20.17,31-40.41Z"/>
<path fill="#242021" d="M488.7-.37q-20.49,27.15-41,54.3a2.62,2.62,0,0,1-1.77.94c-6.69.06-13.38,0-20.49,0L440.2,35.43c-.78,0-1.35-.11-1.91-.11q-12.81,0-25.61,0c-2.45,0-4.91-.05-7.36-.17a2.62,2.62,0,0,0-2.46,1.19c-4.29,5.75-8.64,11.45-12.93,17.2a3,3,0,0,1-2.71,1.41c-6.5-.08-13,0-19.85,0C381.51,36.34,395.48,18,409.46-.37h21A5.48,5.48,0,0,1,430,.7q-7.55,10-15.13,19.91c-.34.44-.66.9-1.24,1.71,12.09,0,23.68,0,35.28-.05a3.08,3.08,0,0,0,2-1.16c5.5-7.13,10.94-14.32,16.4-21.48Z"/>
<path fill="#242020" d="M402.46-.37c-3.26,4.29-6.48,8.62-9.81,12.85a3.24,3.24,0,0,1-2.24,1.1c-8.77.06-17.55,0-26.33,0a2.66,2.66,0,0,0-2.42,1.2q-14.73,19.52-29.59,39a3.06,3.06,0,0,1-2,1.16c-7.48.08-15,0-22.87,0l31.41-41.4H309.27c3.34-4.42,6.41-8.46,9.46-12.51a11.67,11.67,0,0,0,.8-1.37Z"/>
<path fill="#242020" d="M783.49,26.89c1.4-2,2.73-4,4.22-5.91,2.86-3.66,5.53-7.53,8.79-10.82A35.65,35.65,0,0,1,815.19-.07c.15,0,.28-.2.41-.3h58.6c4.85,2.33,6.21,5.43,3.65,10.2-2,3.72-4.82,7-7.28,10.47-1.39.28-2.8.47-4.16.85-2.27.62-4.52,1.34-6.75,2.1-.38.13-.63.65-.94,1l-.7.18c-.88-.44-3.81.06-4.4.77-.09.12,0,.35-.06.53l-.69.17c-.43-.15-.91-.5-1.28-.41-2.85.68-5.69,1.43-8.52,2.23-.26.07-.38.63-.57,1l-.7.15a7.38,7.38,0,0,0-2-.37,27.76,27.76,0,0,0-3.08.67c-1.26.26-2.54.44-3.79.78-.31.09-.49.66-.73,1l-.7.12c-1.85-.88-3.26-.64-3.72.63l-.69.14c-.43-.16-.89-.49-1.29-.45-1.37.16-2.71.59-4.07.68q-6.81.47-13.63.75c-2.33.1-4.67,0-7,0a8.75,8.75,0,0,0-1.71.38l-.72-.06a5.11,5.11,0,0,0-1.43-1c-1.88-.52-3.79-.94-5.7-1.33-1-.19-2-.24-2.94-.35l-.69-.38C787.43,28.81,785,27.05,783.49,26.89Zm71.2-13.63c-13.27,0-26,0-38.79,0a1.51,1.51,0,0,0-1.07.48c-3,3.79-5.9,7.62-8.85,11.46.26.14.36.24.45.24q19,0,38,0a2,2,0,0,0,1.39-.6C848.68,21.15,851.52,17.4,854.69,13.26Z"/>
<path fill="#252120" d="M895.58-.37h22.11A13.33,13.33,0,0,1,916.9,1q-4.39,6-8.82,11.87a18.06,18.06,0,0,1-2.25.66c-6.21,1-12.42,2-18.64,3.05l-4.93.83c2.33-3.05,4.68-6.08,7-9.14C891.38,5.42,893.47,2.51,895.58-.37Z"/>
<path fill="#262221" d="M783.49,26.89c1.48.16,3.94,1.92,4.4,3.14l-3.39-1.88-.23.36,3.34,2.68c1.8,1,3.52,2.22,5.4,3.07,9.12,4.13,18.83,5.21,28.69,5.31a131.15,131.15,0,0,0,31.5-3.72c2.48-.58,4.95-1.23,7.43-1.85L859,36.33c-2.26,2.81-4.56,5.59-6.78,8.43-2.6,3.33-5.13,6.72-7.7,10.11H823.27l8.8-11.65c-.58-.06-1-.15-1.45-.15q-18.32,0-36.63,0a2.48,2.48,0,0,0-2.27,1.12c-2.4,3.26-4.85,6.48-7.38,9.63a3.09,3.09,0,0,1-2.06,1.07c-6.63.08-13.26,0-20.11,0,.34-.55.57-1,.87-1.4Q772.69,40.76,782.36,28A12.15,12.15,0,0,1,783.49,26.89Z"/>
<path fill="#242020" d="M901.76,21.24a14.34,14.34,0,0,0-1.41,1.4q-11.83,15.6-23.62,31.23c-.26.34-.53.67-.8,1h-22l16.71-22,2.07-3.2.12-.28h.13v-.14c3.64-1.45,7.22-3.05,10.92-4.31,6.42-2.2,12.92-4.18,19.38-6.26Z"/>
<path fill="#83847b" d="M901.76,21.24l1.44-2.6L913.92,17l-2.49,3.24L903,21.2C902.59,21.24,902.18,21.23,901.76,21.24Z"/>
<path fill="#86867a" d="M872.66,29.63l-2.07,3.2a6,6,0,0,0-1.7.08c-2.91,1-5.79,2.16-8.68,3.23a6.82,6.82,0,0,1-1.2.19L860.63,34c1.33-.54,2.64-1.13,4-1.61C867.28,31.44,870,30.55,872.66,29.63Z"/>
<path fill="#f7e726" d="M872.66,29.63c-2.69.92-5.38,1.81-8,2.76-1.34.48-2.65,1.07-4,1.61-2.48.62-5,1.27-7.43,1.85a131.15,131.15,0,0,1-31.5,3.72c-9.86-.1-19.57-1.18-28.69-5.31-1.88-.85-3.6-2-5.4-3.07l.93-.61,10.11,2.55.72.06a3.49,3.49,0,0,0,.88.24,114.24,114.24,0,0,0,26.82-1.63l.69-.14,3.72-.63.7-.12,9.62-2.09.7-.15,10.37-2.78.69-.17,4.46-1.3.7-.18,11.81-3.4C874,19.9,877.52,19,881,18a7.5,7.5,0,0,0,1.25-.59l4.93-.83c6.22-1,12.43-2,18.64-3.05a18.06,18.06,0,0,0,2.25-.66l9.15-.08,19.1.09c.92,0,1.84,0,2.75.07l-2.94,3.77L913.92,17,903.2,18.64c-6.46,2.08-13,4.06-19.38,6.26-3.7,1.26-7.28,2.86-10.92,4.31l-.12,0v.12Z"/>
<path fill="#262221" d="M827.07,31.8a114.24,114.24,0,0,1-26.82,1.63,3.49,3.49,0,0,1-.88-.24,8.75,8.75,0,0,1,1.71-.38c2.33,0,4.67.07,7,0q6.81-.28,13.63-.75c1.36-.09,2.7-.52,4.07-.68C826.18,31.31,826.64,31.64,827.07,31.8Z"/>
<path fill="#262221" d="M870.53,20.84l-11.81,3.4c.31-.34.56-.86.94-1,2.23-.76,4.48-1.48,6.75-2.1,1.36-.38,2.77-.57,4.16-.85Z"/>
<path fill="#262221" d="M798.65,33.13l-10.11-2.55,0-.17c1,.11,2,.16,2.94.35,1.91.39,3.82.81,5.7,1.33A5.11,5.11,0,0,1,798.65,33.13Z"/>
<path fill="#262221" d="M852.87,25.89,842.5,28.67c.19-.33.31-.89.57-1,2.83-.8,5.67-1.55,8.52-2.23C852,25.39,852.44,25.74,852.87,25.89Z"/>
<path fill="#262221" d="M841.8,28.82l-9.62,2.09c.24-.35.42-.92.73-1,1.25-.34,2.53-.52,3.79-.78a27.76,27.76,0,0,1,3.08-.67A7.38,7.38,0,0,1,841.8,28.82Z"/>
<path fill="#d9cf54" d="M788.58,30.41l0,.17-.93.61-3.34-2.68.23-.36L787.89,30Z"/>
<path fill="#262221" d="M858,24.42l-4.46,1.3c0-.18,0-.41.06-.53C854.21,24.48,857.14,24,858,24.42Z"/>
<path fill="#262221" d="M831.48,31l-3.72.63C828.22,30.39,829.63,30.15,831.48,31Z"/>
<polygon fill="#86867a" points="872.78 29.35 872.78 29.23 872.9 29.21 872.91 29.35 872.78 29.35"/>
</svg>
