<?xml version="1.0" encoding="UTF-8"?>
<svg xmlns="http://www.w3.org/2000/svg" viewBox="26.5 280.5 600 92">
<title>Aegean Airlines logo</title>
<path fill="#213368" d="M170.3,328.4c-5.1,1.2-28,12-37.3,16.7c-0.2,0.1-5.1,1.2-5.5,1.2c-2.8-0.7-40.5-13.2-60.6-6.7 c-9.8,3.2-39.5,11-39.5,11c-3,0.9,1.7,1.3,3.2,1c1.4-0.2,6.3-1,12.1-2.1c11.6-2.3,18.1-2.7,24.2-3.1c11.6-0.7,29,1.1,43,8 c1.1,0.5,1.6,1.1,1.6,1.8c0.1,2-3.1,5.2-4.4,6c0,0,4.1,0.2,6.6-0.6c1-0.3,2-0.3,3.5-0.4c1.9-0.1,4.5-0.3,8.6-1.1 c8-1.5,11.7-3.5,15.5-5.6l0.3-0.2c2.4-1.3,24.5-10.3,24.5-10.3c13.2-5.4,18.7-0.2,34.5-1.9c15.8-1.7,28.3-6.3,38-7.1 c1.8-0.1-2.3-1.4-3.4-1.5c-4.7-0.5-26.9,0-33.6-0.9C186.5,330.7,175.5,327.3,170.3,328.4"/>
<path fill="#213368" d="M204,349.9c0,6.6-3.1,18.6-3.1,18.6c-0.1,0.5-0.3,1.2-0.4,1.5c-0.1,0.3,0.2,0.6,0.7,0.6h8.1c0.5,0,1-0.1,1-0.3 c0-0.2,0.2-0.7,0.3-1.2c0,0,2.8-12.3,2.8-19.2c0-2.2-0.2-4.3-0.4-6.4c-2.9,0.6-6,1.1-9.2,1.5C203.9,346.5,204,348.2,204,349.9"/>
<path fill="#213368" d="M210.5,330.2c-1.8-6.1-4.4-11.9-7.7-17.2c-4.5,0.3-7.9,0-11.1-0.3c-0.2,0-0.5,0-0.7,0c4,5,7.2,10.8,9.5,16.9 c0.4,0,0.8,0.1,1.3,0.2C203.6,330,206.8,330.1,210.5,330.2"/>
<path fill="#213368" d="M74.6,349.9c0,6.8,2.8,19.2,2.8,19.2c0.1,0.5,0.3,1,0.3,1.2c0.1,0.2,0.5,0.3,1.1,0.3h8.1 c0.5,0,0.8-0.3,0.7-0.6c-0.1-0.4-0.3-1-0.5-1.5c0,0-2.9-11.5-3-18.2c-3.3-0.4-6.4-0.7-9.4-0.8V349.9z"/>
<path fill="#213368" d="M85.9,334.9c1.7-6.6,4.5-12.9,8.3-18.4c-3.1,0.2-6.8,0.7-11.8,1.6c-2.7,5.2-4.8,10.9-6.1,16.8 C79.3,334.7,82.5,334.7,85.9,334.9"/>
<path fill="#213368" d="M105.9,303.6c10.3-8.6,23.7-13.7,38.1-13.7c11,0,21.3,3,30.2,8.2c2.5-1,4.5-1.7,5.5-2c2.2-0.5,5-0.2,8.5,0.4 c-12-10-27.4-16-44.3-16c-22.3,0-42.2,10.6-54.9,27.1c3.4-1,6.5-1.8,8.5-2.5C100,304.3,102.8,303.8,105.9,303.6"/>
<path fill="#213368" d="M180.4,299c-4,0.9-22.2,9.5-29.6,13.2c-0.1,0-4.1,0.9-4.4,0.9c-2.2-0.5-32.1-10.4-48-5.3 c-7.8,2.5-31.3,8.7-31.3,8.7c-2.4,0.7,1.4,1,2.5,0.8c1.1-0.2,5-0.8,9.6-1.7c9.2-1.9,14.3-2.2,19.2-2.5c9.2-0.5,23,0.9,34,6.4 c0.9,0.4,1.3,0.9,1.3,1.5c0,1.5-2.5,4.1-3.5,4.7c0,0,3.2,0.1,5.2-0.4c0.8-0.2,1.6-0.3,2.8-0.3c1.5-0.1,3.6-0.3,6.8-0.9 c6.4-1.2,9.2-2.8,12.3-4.4l0.2-0.1c1.9-1.1,19.4-8.2,19.4-8.2c10.5-4.3,14.9-0.1,27.4-1.5c12.5-1.3,22.5-5,30.1-5.6 c1.5-0.1-1.8-1.1-2.7-1.2c-3.7-0.4-21.3,0-26.7-0.8C193.2,300.8,184.5,298.1,180.4,299"/>
<path fill="#213368" d="M309.7,368.8c0.1,0.8-0.4,1.5-1.3,1.5h-16.1c-0.8,0-1.7-0.7-1.8-1.6l-0.5-4.2c-0.1-0.9-0.9-1.6-1.8-1.6h-17.2 c-0.9,0-1.9,0.6-2.2,1.4l-1.9,4.5c-0.4,0.8-1.4,1.4-2.3,1.4h-17.3c-0.9,0-1.3-0.6-0.9-1.4l29.6-60.7c0.4-0.8,1.4-1.5,2.3-1.5h17.2 c0.9,0,1.7,0.7,1.9,1.6L309.7,368.8z M287.6,350l-3.1-22c-0.1-0.9-0.5-1-0.8-0.1l-8.7,20.7c-0.3,0.8,0.1,1.5,1,1.5H287.6"/>
<path fill="#213368" d="M373.3,306.7l-2,13.5c-0.1,0.9-1,1.6-1.9,1.6h-26.2c-0.9,0-1.8,0.7-1.9,1.6l-0.9,5.6c-0.1,0.8,0.5,1.5,1.4,1.5 h22.8c0.9,0,1.5,0.7,1.3,1.6l-1.8,11.1c-0.1,0.9-0.9,1.6-1.8,1.6h-22.7c-0.9,0-1.7,0.7-1.8,1.6l-1,7.1c-0.1,0.9,0.5,1.6,1.4,1.6 h28.1c0.9,0,1.5,0.7,1.3,1.6l-1.7,12.1c-0.1,0.9-1,1.6-1.8,1.6h-48.3c-0.9,0-1.5-0.7-1.3-1.6l9.2-60.4c0.1-0.9,1-1.6,1.8-1.6H373.3 "/>
<path fill="#213368" d="M495.8,306.7l-2,13.5c-0.1,0.9-1,1.6-1.8,1.6h-26.2c-0.9,0-1.7,0.7-1.9,1.6l-0.9,5.5c-0.1,0.9,0.5,1.6,1.4,1.6 h22.8c0.9,0,1.5,0.7,1.4,1.6l-1.8,11.1c-0.1,0.9-1,1.6-1.9,1.6h-22.7c-0.8,0-1.7,0.7-1.8,1.6l-1,7.1c-0.1,0.9,0.5,1.6,1.4,1.6h28.2 c0.9,0,1.5,0.7,1.4,1.6l-1.7,12.1c-0.1,0.9-1,1.6-1.8,1.6h-48.3c-0.9,0-1.5-0.7-1.4-1.6l9.2-60.4c0.1-0.9,0.9-1.6,1.8-1.6H495.8"/>
<path fill="#213368" d="M553.7,368.8c0.2,0.8-0.4,1.5-1.3,1.5h-16c-0.9,0-1.7-0.7-1.8-1.6l-0.5-4.2c-0.1-0.9-0.9-1.6-1.8-1.6h-17.2 c-0.9,0-1.9,0.6-2.3,1.4l-1.9,4.5c-0.3,0.8-1.4,1.4-2.2,1.4h-17.3c-0.9,0-1.3-0.6-0.9-1.4l29.7-60.7c0.4-0.8,1.4-1.5,2.3-1.5h17.2 c0.9,0,1.7,0.7,2,1.6L553.7,368.8z M531.7,350l-3-22c-0.1-0.9-0.5-1-0.9-0.1l-8.6,20.7c-0.3,0.8,0.1,1.5,1,1.5H531.7"/>
<path fill="#213368" d="M626.4,306.7l-9.4,62c-0.1,0.9-0.9,1.6-1.8,1.6h-15.6c-0.8,0-1.9-0.6-2.2-1.4l-13.8-30c-0.3-0.8-0.8-2.2-1-3 l-0.7-3.9c-0.1-0.9-0.2-1.2-0.2-0.7c0,0.5,0,1.6,0,2.5c0,0,0,1.5-0.1,2.4c-0.1,0.8-0.2,2.2-0.4,3.1l-4.4,29.6 c-0.1,0.9-1,1.6-1.8,1.6h-15.8c-0.9,0-1.5-0.7-1.4-1.6l9.1-60.4c0.1-0.9,1-1.6,1.9-1.6h15.4c0.8,0,1.9,0.7,2.3,1.5l13.4,29.6 c0.4,0.8,0.9,2.2,1.2,3l1,4.4c0.2,0.9,0.3,0.9,0.3,0l0.3-4.6c0.1-0.9,0.2-2.3,0.4-3.2l4.4-29.1c0.1-0.9,1-1.6,1.9-1.6H626.4"/>
<path fill="#213368" d="M420,334.7c-0.9,0-1.6,0-1.6,0.1c0,0-0.7,0-1.6,0h-3.3c-0.9,0-1.7,0.7-1.9,1.6l-1.8,11.1 c-0.1,0.9,0.5,1.6,1.4,1.6h2.1c0.9,0,1.2,0.6,0.8,1.4c0,0-0.8,1.5-1.8,2.5c-2.7,2.8-6.1,4.2-10.2,4.2c-4,0-7-1.4-8.9-4.3 c-1.9-2.9-2.3-7.6-1.3-14.1c0.9-6.6,2.9-11.4,5.6-14.2c2.8-2.8,6.1-4.3,10-4.3c4,0,7,1.4,9,4.3l0.3,0.4c0.2,0.5,1.2,0.9,2.1,0.9 h16.9c0.8,0,1.4-0.7,1.2-1.6c0,0-1.9-7.2-4.6-10.5c-4.7-5.8-12.2-8.7-22.5-8.7c-10,0-18.4,3-24.9,8.8c-6.5,5.9-10.6,14.2-12.2,24.8 c-1.2,7.5-0.7,13.8,1.4,18.9c2.1,5.1,5.2,8.8,9.4,11.1c4.2,2.3,9.9,3.5,16.8,3.5c6.9,0,12.8-1.4,17.8-4.1c5-2.7,9.1-6.5,12.3-11.4 c3.2-4.9,5.3-11.1,6.5-18.6c0.1-1.2,0.2-1.8,0.2-1.8c0.1-0.9-0.5-1.6-1.4-1.6H420z"/>
</svg>
