<?xml version="1.0" encoding="UTF-8"?>
<svg xmlns="http://www.w3.org/2000/svg" viewBox="0 0 121 33">
<title>Azul Linhas Aéreas Brasileiras logo</title>
<g transform="translate(-537.14286,-592.50456)">
<path fill="#8cd0e0" d="m 607.94986,603.72456 -6.78,0 0,11.08 c 0,3.667 -2.233,4.624 -3.71,4.624 -2.152,0 -3.35,-0.957 -3.35,-3.708 l 0,-11.996 -6.78,0 0,12.434 c 0,5.42 1.716,8.847 7.66,8.847 2.39,0 5.024,-1.313 6.3,-3.424 l 0.08,0 0,2.83 6.58,0 0,-20.687 z" />
<path fill="#002e5f" d="m 609.54286,624.40656 6.78,0 0,-28.452 -6.78,0 0,28.45 z m -42.59,0 19.7,0 0,-5.18 -11.084,0 10.33,-10.362 0,-5.14 -18.11,0 0,5.18 9.49,0 -10.323,10.243 0,5.26 z m -29.31,0 7.617,0 1.794,-5.1 9.933,0 1.754,5.1 7.737,0 -10.65,-28.45 -7.535,0 -10.65,28.448 z m 14.356,-20.562 0.08,0 3.15,9.963 -6.46,0 3.23,-9.963 z" />
<path fill="#5061aa" d="m 645.73786,595.96456 1.854,0 0,1.46 -1.856,0 z" />
<path fill="#8b328a" d="m 638.90286,611.61056 5.675,0 0,6.05 -5.675,0 z" />
<path fill="#5d80c0" d="m 642.63486,618.95456 3.73,0 0,2.26 -3.73,0 z" />
<path fill="#e94e29" d="m 640.42286,620.01056 4.483,0 0,4.438 -4.482,0 z" />
<path fill="#d5262a" d="m 645.97586,615.98156 3.838,0 0,1.68 -3.836,0 z" />
<path fill="#f6a022" d="m 644.57286,612.92256 3.935,0 0,0.995 -3.935,0 z" />
<path fill="#6a95cd" d="m 649.80886,615.98156 2.75,0 0,0.757 -2.75,0 z" />
<path fill="#306fb6" d="m 644.57286,608.10456 3.76,0 0,4.82 -3.76,0 z" />
<path fill="#73c8dd" d="m 637.22886,604.40856 7.35,0 0,7.203 -7.35,0 z" />
<path fill="#92c143" d="m 632.95286,604.41056 4.908,0 0,3.984 -4.908,0 z" />
<path fill="#5061aa" d="m 639.32086,597.66456 8.316,0 0,6.797 -8.316,0 z" />
<path fill="#169bd6" d="m 648.32586,605.29056 6.06,0 0,7.397 -6.06,0 z" />
<path fill="#f6a022" d="m 647.37286,609.50056 5.187,0 0,6.5 -5.188,0 z" />
<path fill="#d5262a" d="m 644.57286,613.90256 3.838,0 0,3.753 -3.838,0 z" />
<path fill="#199aa6" d="m 642.32986,616.25956 4.952,0 0,2.72 -4.954,0 z" />
<path fill="#a5bfdf" d="m 652.55286,612.02856 1.06,0 0,3.257 -1.06,0 z" />
<path fill="#3fb7af" d="m 654.38286,605.06156 2.773,0 0,1.714 -2.772,0 z" />
<path fill="#ae2258" d="m 654.12586,606.77456 2,0 0,1.115 -2,0 z" />
<path fill="#79c199" d="m 644.57286,601.51956 3.76,0 0,6.594 -3.76,0 z" />
<path fill="#e5df1f" d="m 648.32586,598.86456 5.058,0 0,6.425 -5.056,0 z" />
<path fill="#33bacf" d="m 647.63086,597.66456 3.687,0 0,6.024 -3.687,0 z" />
<path fill="#6ca9db" d="m 652.61286,603.52156 5.03,0 0,1.77 -5.03,0 z" />
<path fill="#de5097" d="m 653.38886,599.64156 2.402,0 0,3.882 -2.402,0 z" />
<path fill="#604596" d="m 655.06986,600.86256 2.228,0 0,1.628 -2.228,0 z" />
<path fill="#fad803" d="m 654.49786,602.49156 3.145,0 0,1.627 -3.145,0 z" />
<path fill="#5061aa" d="m 645.72286,595.89456 1.89,0 0,1.53 -1.89,0 z m -6.402,0.047 3.43,0 0,3.803 -3.43,0 z" />
<path fill="#0bb8e7" d="m 628.72586,595.94156 10.61,0 0,8.52 -10.61,0 z" />
<path fill="#41ad4c" d="m 634.16786,593.00456 3.692,0 0,4.805 -3.692,0 z" />
<path fill="#e7b720" d="m 626.49286,603.73456 6.85,0 0,2.67 -6.85,0 z" />
<path fill="#b9cf37" d="m 642.74286,593.44056 2.66,0 0,4.224 -2.66,0 z" />
<path fill="#92c143" d="m 646.29486,609.50056 1.077,0 0,1.074 -1.08,0 z" />
</g>
</svg>
