<?xml version="1.0" encoding="UTF-8"?>
<svg xmlns="http://www.w3.org/2000/svg" viewBox="0 0 1617 647">
<title>Aero Contractors</title>
<desc>Aero Contractors logo</desc>
<metadata xmlns:rdf="http://www.w3.org/1999/02/22-rdf-syntax-ns#" xmlns:Airline="http://schema.org/Airline">
<rdf:RDF>
<Airline:name>Aero Contractors</Airline:name>
<Airline:iataCode>AJ</Airline:iataCode>
<Airline:url>https://airlinelogos.aero/AJ</Airline:url>
</rdf:RDF>
</metadata>
<path d="M 1429.00 32.39 C 1483.03 32.41 1537.07 32.28 1591.10 32.42 C 1585.11 44.62 1578.64 56.59 1572.63 68.78 C 1534.09 69.08 1495.54 68.82 1457.00 68.98 C 1435.27 69.57 1414.39 78.67 1399.02 94.01 C 1394.25 98.71 1390.27 104.00 1386.49 109.50 C 1349.14 163.15 1311.79 216.80 1274.45 270.45 C 1266.84 282.42 1255.53 292.56 1242.89 298.96 C 1231.00 304.95 1218.92 306.02 1205.96 307.89 C 1187.91 310.16 1170.10 309.13 1152.00 309.49 C 1138.77 309.46 1125.53 309.55 1112.30 309.44 C 1128.89 284.69 1145.51 259.95 1161.99 235.13 C 1181.51 235.00 1200.43 235.62 1219.81 232.37 C 1226.64 231.09 1232.98 230.73 1239.20 227.26 C 1250.40 221.31 1260.56 212.11 1267.36 201.38 C 1297.52 158.21 1327.71 115.06 1357.88 71.90 C 1361.05 67.42 1364.07 62.78 1367.57 58.56 C 1371.65 53.61 1376.83 49.70 1382.13 46.16 C 1395.90 37.15 1412.52 32.07 1429.00 32.39 Z" fill="#f28121" />
<path d="M 1467.00 83.67 C 1499.69 83.68 1532.38 83.59 1565.07 83.69 C 1558.89 94.92 1553.06 106.33 1547.52 117.90 C 1541.67 118.30 1535.85 118.06 1530.00 118.11 C 1508.00 118.11 1486.00 118.12 1464.00 118.11 C 1455.81 118.05 1447.69 121.03 1441.83 126.82 C 1438.17 130.26 1436.19 134.34 1433.53 138.53 C 1393.29 203.63 1353.10 268.78 1312.83 333.86 C 1303.27 347.60 1292.15 360.55 1279.23 371.25 C 1258.18 388.64 1232.89 399.14 1206.18 404.17 C 1186.88 407.94 1166.62 408.66 1147.00 408.50 C 1113.36 408.45 1079.72 408.54 1046.08 408.45 C 1063.22 382.76 1080.45 357.14 1097.58 331.44 C 1127.75 331.44 1157.83 331.38 1188.00 331.28 C 1200.79 331.04 1213.45 329.86 1226.02 327.48 C 1238.48 325.68 1250.05 320.70 1259.94 312.93 C 1266.08 308.02 1271.86 302.76 1276.15 296.11 C 1314.43 241.07 1352.75 186.06 1391.04 131.02 C 1396.34 123.53 1400.98 116.07 1407.52 109.52 C 1423.06 93.58 1444.69 83.98 1467.00 83.67 Z" fill="#f28121" />
<path d="M 1473.00 132.66 C 1495.25 132.71 1517.51 132.59 1539.77 132.72 C 1532.99 144.30 1527.30 156.53 1521.12 168.44 C 1513.73 168.46 1506.35 168.39 1498.97 168.46 C 1492.26 168.48 1485.23 169.90 1479.47 173.47 C 1473.87 176.98 1469.85 182.06 1466.68 187.79 C 1438.31 239.02 1409.97 290.27 1381.40 341.40 C 1366.11 368.72 1350.90 396.10 1335.12 423.15 C 1331.04 430.40 1325.90 437.17 1320.75 443.75 C 1314.21 452.13 1306.94 459.94 1299.01 467.02 C 1284.22 480.06 1266.84 489.88 1248.20 496.26 C 1223.61 504.80 1196.90 507.52 1171.00 507.44 C 1107.27 507.38 1043.54 507.46 979.81 507.40 C 996.95 481.84 1014.11 456.29 1031.14 430.66 C 1076.42 430.27 1121.72 430.61 1167.00 430.43 C 1193.73 429.81 1220.28 426.26 1245.17 416.09 C 1263.37 408.70 1280.07 397.86 1293.99 383.99 C 1302.32 375.61 1310.06 366.46 1316.71 356.69 C 1360.08 286.74 1403.45 216.76 1446.79 146.79 C 1452.44 137.89 1462.54 132.77 1473.00 132.66 Z" fill="#f28121" />
<path d="M 136.01 235.37 C 153.61 234.59 171.37 235.16 188.82 237.65 C 199.72 239.45 210.14 241.90 220.02 247.01 C 231.12 252.69 241.35 260.30 248.09 270.97 C 253.46 279.28 255.31 289.44 256.85 299.05 C 258.80 313.36 258.88 327.59 258.75 342.00 C 258.59 365.00 258.38 388.00 258.30 411.00 C 258.26 430.01 258.03 448.14 261.56 466.95 C 264.08 479.11 268.52 490.39 273.85 501.56 C 251.12 501.60 228.39 501.56 205.66 501.58 C 201.93 492.31 199.73 482.57 196.46 473.17 C 182.12 487.07 165.35 497.93 146.01 503.35 C 128.72 508.25 110.10 508.62 92.49 505.36 C 76.35 502.28 61.28 495.12 49.87 483.13 C 36.19 469.47 28.83 450.27 29.28 431.00 C 28.74 414.52 33.81 398.01 43.89 384.93 C 51.88 374.34 62.81 366.92 75.01 361.94 C 94.55 353.99 115.45 350.05 136.04 346.13 C 154.51 342.20 173.69 338.49 191.25 331.42 C 191.31 322.60 191.35 314.25 188.05 305.89 C 185.80 300.26 181.69 295.49 176.12 292.95 C 166.94 288.66 156.96 288.25 147.00 287.80 C 135.90 287.76 124.57 288.71 115.21 295.29 C 107.16 301.08 102.08 311.26 98.92 320.43 C 78.02 316.78 57.17 312.84 36.28 309.22 C 39.11 298.92 43.11 288.77 48.58 279.58 C 56.66 265.88 68.14 254.41 82.48 247.36 C 99.09 239.22 117.72 236.41 136.01 235.37 Z" fill="#000000" />
<path d="M 387.50 235.74 C 406.29 234.02 425.72 235.55 443.78 241.20 C 467.44 248.61 488.32 264.33 501.80 285.16 C 516.25 307.48 521.93 333.86 524.31 359.99 C 524.83 370.39 525.55 380.70 525.24 391.13 C 467.60 391.15 409.95 391.13 352.31 391.14 C 352.50 398.85 353.49 406.49 355.48 413.94 C 358.83 426.24 365.66 437.39 375.91 445.13 C 385.29 452.46 397.10 456.17 409.00 455.80 C 419.74 456.03 430.32 452.62 438.20 445.17 C 445.65 438.15 449.88 428.30 452.74 418.64 C 475.50 422.36 498.22 426.40 521.00 429.96 C 520.38 434.27 518.47 437.88 516.79 441.82 C 509.10 459.02 497.74 474.33 482.54 485.59 C 466.26 497.76 447.05 504.12 427.00 506.44 C 402.95 508.90 377.17 507.18 354.39 498.62 C 335.31 491.50 318.58 478.75 306.79 462.13 C 292.17 441.65 284.93 417.71 282.53 392.85 C 280.30 367.08 282.00 339.85 290.22 315.18 C 297.28 293.88 310.00 274.63 327.46 260.44 C 344.38 246.25 365.55 237.79 387.50 235.74 Z" fill="#000000" />
<path d="M 675.00 235.08 C 691.65 234.61 707.63 239.52 721.95 247.83 C 720.54 253.41 718.25 258.77 716.41 264.23 C 711.30 278.84 705.93 293.37 700.97 308.03 C 696.55 305.69 692.48 303.07 687.83 301.19 C 679.35 297.65 670.17 295.75 661.01 297.48 C 651.17 298.99 642.16 304.31 636.82 312.82 C 628.52 325.94 625.50 342.01 624.41 357.28 C 622.67 376.53 622.36 395.67 622.28 415.00 C 622.27 443.85 622.27 472.71 622.28 501.56 C 599.28 501.60 576.28 501.57 553.28 501.58 C 553.27 418.72 553.28 335.86 553.27 253.00 C 553.27 248.92 553.24 244.84 553.37 240.76 C 570.58 240.80 587.79 240.76 605.00 240.78 C 609.21 240.81 613.29 240.50 617.47 241.22 C 617.38 253.41 617.32 265.62 617.51 277.81 C 624.12 267.23 631.69 256.35 640.97 247.95 C 650.32 239.55 662.53 235.39 675.00 235.08 Z" fill="#000000" />
<path d="M 850.00 235.13 C 874.18 235.78 897.83 241.64 918.46 254.54 C 941.57 269.05 960.22 291.09 970.19 316.54 C 979.51 340.17 981.54 366.94 978.44 392.00 C 975.57 415.09 966.93 437.31 952.70 455.78 C 936.23 477.32 913.64 493.88 887.52 501.58 C 851.40 512.15 811.38 508.40 777.75 491.53 C 759.13 482.49 743.03 468.58 731.99 451.02 C 718.64 430.20 712.24 404.52 711.21 379.99 C 709.21 356.40 713.31 332.48 722.98 310.86 C 729.26 296.64 737.48 283.53 748.46 272.45 C 758.78 261.91 771.12 253.65 784.54 247.59 C 805.10 238.17 827.48 234.47 850.00 235.13 Z" fill="#000000" />
<path d="M 415.00 288.68 C 427.25 290.94 438.26 298.46 445.41 308.57 C 453.74 320.51 456.17 334.57 456.67 348.83 C 422.29 348.85 387.92 348.84 353.54 348.84 C 353.61 339.69 354.53 330.41 357.72 321.76 C 361.91 309.89 370.38 299.53 381.50 293.52 C 391.55 288.04 403.83 286.71 415.00 288.68 Z" fill="#ffffff" />
<path d="M 831.48 292.70 C 844.76 289.95 859.57 291.03 871.79 297.21 C 886.20 304.43 897.22 317.34 902.75 332.42 C 909.07 349.32 909.33 366.24 908.35 384.04 C 906.86 398.70 903.43 412.68 895.00 425.00 C 887.12 436.06 876.09 444.95 862.91 448.77 C 849.59 452.76 835.03 452.07 822.14 446.84 C 807.70 440.80 795.88 428.76 789.50 414.52 C 782.38 398.73 780.82 380.11 781.65 362.99 C 782.67 347.53 785.77 332.39 794.29 319.20 C 802.99 306.17 816.00 296.10 831.48 292.70 Z" fill="#ffffff" />
<path d="M 191.23 376.43 C 191.19 386.36 191.44 396.26 190.78 406.19 C 190.34 413.31 189.85 421.35 186.96 427.96 C 184.76 433.35 181.36 438.15 177.16 442.17 C 168.35 450.61 156.13 456.66 144.05 458.37 C 136.89 458.99 129.00 459.18 122.20 456.60 C 112.50 453.27 104.02 445.06 100.30 435.52 C 98.07 430.07 97.90 423.71 98.59 417.94 C 99.98 409.63 106.04 402.38 113.09 398.09 C 119.79 394.39 127.63 392.32 134.98 390.28 C 153.78 385.62 172.70 382.37 191.23 376.43 Z" fill="#ffffff" />
<path d="M 1056.38 530.60 C 1055.77 533.48 1055.15 536.35 1054.45 539.20 C 1050.08 538.41 1044.68 536.98 1040.80 539.90 C 1039.47 544.06 1038.53 548.30 1037.56 552.55 C 1041.30 552.61 1045.03 552.60 1048.76 552.60 C 1048.25 555.18 1047.70 557.76 1047.24 560.36 C 1043.50 560.38 1039.77 560.38 1036.03 560.41 C 1032.49 577.38 1028.92 594.34 1025.38 611.32 C 1022.05 611.31 1018.72 611.32 1015.39 611.31 C 1018.85 594.33 1022.58 577.40 1025.96 560.41 C 1023.01 560.38 1020.06 560.38 1017.11 560.36 C 1017.63 557.77 1018.17 555.18 1018.71 552.59 C 1021.67 552.59 1024.64 552.60 1027.60 552.61 C 1028.64 548.16 1029.38 543.63 1030.60 539.23 C 1031.61 535.41 1033.71 532.09 1037.43 530.47 C 1043.58 527.86 1050.13 529.20 1056.38 530.60 Z" fill="#000000" />
<path d="M 108.56 530.43 C 107.86 533.47 107.18 536.51 106.51 539.56 C 97.73 539.56 88.96 539.53 80.19 539.58 C 75.20 563.49 70.23 587.41 65.23 611.31 C 61.61 611.32 57.99 611.32 54.36 611.30 C 59.45 587.41 64.36 563.47 69.36 539.56 C 60.58 539.55 51.81 539.57 43.03 539.55 C 43.43 536.47 43.93 533.43 44.75 530.44 C 66.01 530.34 87.30 530.37 108.56 530.43 Z" fill="#000000" />
<path d="M 118.54 530.49 C 121.81 530.23 125.13 530.42 128.41 530.41 C 126.39 540.69 123.92 550.90 122.19 561.23 C 125.82 557.93 129.31 554.82 133.97 553.04 C 137.81 551.37 141.90 551.19 146.01 551.62 C 151.33 552.36 155.98 556.31 157.22 561.59 C 158.07 565.91 157.20 570.28 156.29 574.51 C 153.66 586.77 151.21 599.07 148.58 611.33 C 145.26 611.31 141.93 611.31 138.61 611.31 C 141.28 598.55 143.94 585.77 146.64 573.02 C 147.22 570.08 147.93 566.75 147.30 563.79 C 145.94 560.85 143.12 559.59 139.99 559.55 C 131.47 559.51 123.83 565.15 120.59 572.91 C 117.54 580.40 116.26 589.13 114.51 597.00 C 113.46 601.76 112.53 606.55 111.51 611.32 C 108.18 611.31 104.84 611.31 101.51 611.30 C 105.90 590.54 110.17 569.74 114.54 548.97 C 115.96 542.84 116.83 536.54 118.54 530.49 Z" fill="#000000" />
<path d="M 385.91 530.41 C 380.52 557.40 374.68 584.34 369.15 611.30 C 365.81 611.32 362.48 611.32 359.14 611.30 C 364.70 584.37 370.45 557.47 375.92 530.52 C 379.24 530.30 382.59 530.39 385.91 530.41 Z" fill="#000000" />
<path d="M 401.42 530.47 C 404.61 530.24 407.84 530.41 411.04 530.41 C 410.48 534.16 409.72 537.87 408.92 541.58 C 405.64 541.60 402.36 541.60 399.07 541.59 C 399.75 537.89 400.25 534.05 401.42 530.47 Z" fill="#000000" />
<path d="M 489.49 530.47 C 492.70 530.24 495.95 530.42 499.17 530.42 C 497.47 540.04 495.16 549.55 493.40 559.15 C 498.28 554.89 503.17 551.26 510.00 551.43 C 518.79 551.06 526.10 557.76 528.07 566.07 C 531.38 580.39 526.87 597.77 515.06 607.12 C 508.72 612.21 499.77 614.53 492.23 610.63 C 487.75 608.40 486.04 604.62 483.18 600.82 C 482.63 604.34 482.01 607.84 481.19 611.32 C 478.26 611.31 475.32 611.31 472.38 611.30 C 477.47 587.23 482.47 563.14 487.46 539.05 C 488.08 536.19 488.56 533.24 489.49 530.47 Z" fill="#000000" />
<path d="M 562.00 530.41 C 556.68 557.42 550.81 584.35 545.26 611.31 C 541.92 611.32 538.58 611.32 535.24 611.30 C 540.79 584.39 546.71 557.47 551.95 530.51 C 555.30 530.37 558.65 530.36 562.00 530.41 Z" fill="#000000" />
<path d="M 1071.00 530.42 C 1065.68 557.42 1059.80 584.34 1054.26 611.31 C 1050.92 611.32 1047.58 611.32 1044.24 611.30 C 1048.69 590.22 1053.04 569.12 1057.47 548.03 C 1058.53 542.17 1060.13 536.41 1060.95 530.51 C 1064.30 530.37 1067.65 530.36 1071.00 530.42 Z" fill="#000000" />
<path d="M 914.75 531.32 C 913.23 538.40 911.83 545.51 910.30 552.59 C 913.51 552.60 916.72 552.60 919.92 552.59 C 919.55 555.22 919.07 557.79 918.48 560.38 C 915.22 560.38 911.97 560.38 908.72 560.39 C 906.14 572.58 903.47 584.76 901.08 596.99 C 900.47 599.55 900.71 601.09 901.69 603.47 C 904.78 603.71 907.78 603.68 910.87 603.44 C 910.29 606.08 909.73 608.73 909.22 611.39 C 903.48 612.55 896.82 613.18 892.21 608.80 C 889.29 605.80 890.22 601.94 890.81 598.23 C 893.33 585.60 896.07 573.01 898.70 560.40 C 896.13 560.38 893.56 560.38 891.00 560.38 C 891.36 557.74 891.80 555.14 892.45 552.56 C 895.06 552.59 897.68 552.60 900.29 552.60 C 901.41 547.72 902.20 542.80 903.52 537.97 C 907.35 535.88 911.03 533.57 914.75 531.32 Z" fill="#000000" />
<path d="M 198.99 551.44 C 206.89 551.41 214.52 555.83 218.03 562.98 C 221.49 569.61 220.73 577.22 220.20 584.40 C 205.70 584.55 191.19 584.42 176.69 584.47 C 176.44 590.76 176.88 597.56 182.14 601.83 C 187.86 606.44 195.81 604.37 201.03 600.06 C 204.09 597.73 205.58 594.54 207.69 591.47 C 210.84 591.57 213.99 592.07 217.11 592.47 C 215.17 598.43 211.14 603.41 206.17 607.14 C 197.69 613.69 184.48 614.65 175.61 608.34 C 169.99 604.31 167.29 597.76 166.66 591.05 C 165.79 580.63 169.17 569.79 175.75 561.66 C 181.29 554.87 190.21 550.87 198.99 551.44 Z" fill="#000000" />
<path d="M 302.78 553.49 C 301.38 556.45 300.07 559.44 298.91 562.51 C 295.66 561.29 292.66 560.32 289.23 561.65 C 282.32 564.59 278.38 571.16 276.15 578.03 C 272.73 588.84 271.18 600.30 268.44 611.32 C 265.31 611.31 262.18 611.31 259.05 611.30 C 263.22 591.73 267.04 572.07 271.46 552.57 C 274.30 552.59 277.15 552.60 280.00 552.60 C 279.35 556.52 278.57 560.42 277.80 564.31 C 281.34 559.51 285.27 554.30 291.03 552.08 C 295.20 550.61 298.95 551.73 302.78 553.49 Z" fill="#000000" />
<path d="M 335.24 551.86 C 342.34 553.28 348.32 558.27 350.88 565.05 C 353.13 571.14 352.89 578.15 351.89 584.47 C 337.46 584.46 323.03 584.46 308.59 584.48 C 308.18 591.99 309.32 600.38 317.14 603.61 C 326.26 606.85 335.92 599.78 339.28 591.47 C 342.55 591.67 345.81 592.03 349.06 592.45 C 346.66 599.51 341.49 605.31 335.14 609.10 C 327.29 613.51 316.65 613.96 308.84 609.21 C 304.24 606.44 301.15 601.91 299.65 596.80 C 297.56 589.61 298.28 581.53 300.64 574.48 C 303.60 566.19 308.42 558.59 316.52 554.55 C 322.29 551.41 328.83 550.83 335.24 551.86 Z" fill="#000000" />
<path d="M 443.01 551.42 C 449.94 551.26 457.01 552.94 462.03 557.98 C 465.15 561.30 465.81 565.64 465.22 570.03 C 464.07 578.43 461.79 586.68 460.10 594.99 C 458.91 600.43 459.04 605.90 460.33 611.31 C 456.95 611.31 453.57 611.31 450.19 611.32 C 449.77 608.92 449.40 606.52 449.07 604.11 C 444.67 607.48 440.55 610.56 435.02 611.81 C 428.46 613.36 421.12 612.78 415.98 608.02 C 409.84 602.36 409.15 592.66 413.79 585.86 C 416.43 581.87 420.55 579.62 425.05 578.34 C 434.81 575.46 444.64 577.65 454.42 574.56 C 454.98 571.62 455.78 568.81 455.32 565.79 C 454.07 561.86 450.23 560.40 446.51 559.73 C 441.61 559.10 435.83 559.52 431.91 562.86 C 429.37 564.89 427.97 567.54 426.38 570.28 C 423.12 569.81 419.86 569.53 416.57 569.32 C 418.03 565.69 419.65 562.25 422.43 559.42 C 427.72 553.68 435.34 551.24 443.01 551.42 Z" fill="#000000" />
<path d="M 946.71 551.92 C 951.92 551.17 957.92 551.03 962.86 553.13 C 968.61 555.43 973.20 560.30 975.12 566.19 C 977.51 573.34 976.85 581.67 974.78 588.82 C 972.34 597.09 967.46 604.43 959.78 608.64 C 950.77 613.84 938.62 614.19 929.98 608.04 C 924.44 604.06 921.58 597.72 921.19 591.01 C 920.79 582.19 922.64 572.97 927.50 565.50 C 931.86 558.61 938.62 553.47 946.71 551.92 Z" fill="#000000" />
<path d="M 406.64 552.61 C 402.48 572.16 398.47 591.76 394.33 611.32 C 391.00 611.31 387.68 611.32 384.35 611.30 C 388.49 591.76 392.38 572.15 396.71 552.65 C 400.02 552.53 403.34 552.60 406.64 552.61 Z" fill="#000000" />
<path d="M 596.00 551.46 C 603.41 551.64 610.50 555.56 614.08 562.13 C 617.81 569.11 617.81 576.85 616.51 584.47 C 602.11 584.46 587.71 584.47 573.31 584.47 C 573.27 587.29 573.13 590.27 573.60 593.06 C 574.50 597.89 577.79 602.45 582.61 603.92 C 587.52 605.38 592.68 603.63 596.69 600.73 C 600.10 598.35 602.11 595.02 603.99 591.41 C 607.25 591.69 610.49 592.06 613.73 592.46 C 611.34 599.15 606.56 604.59 600.71 608.52 C 592.47 613.70 580.59 614.19 572.44 608.56 C 565.84 604.05 562.85 595.78 563.16 588.00 C 562.87 579.99 565.33 572.23 569.50 565.46 C 575.05 556.33 585.21 550.58 596.00 551.46 Z" fill="#000000" />
<path d="M 777.03 551.85 C 782.27 552.75 788.02 555.38 790.98 559.99 C 792.94 563.10 792.89 566.45 792.58 570.00 C 791.45 580.16 788.01 589.97 786.82 599.95 C 786.30 603.90 787.14 607.46 787.71 611.33 C 784.36 611.31 781.01 611.31 777.66 611.31 C 777.24 608.89 776.81 606.48 776.43 604.07 C 772.09 607.65 767.65 610.70 762.05 611.90 C 755.21 613.41 747.76 612.58 742.71 607.33 C 738.21 602.69 737.41 596.03 739.15 589.99 C 741.04 584.35 746.09 580.13 751.75 578.55 C 761.72 575.40 771.74 577.68 781.78 574.61 C 782.40 571.55 783.57 567.53 782.25 564.57 C 780.50 561.35 776.46 560.00 773.04 559.62 C 767.94 559.13 762.38 559.82 758.54 563.51 C 756.40 565.39 755.33 567.75 754.03 570.21 C 750.67 569.79 747.30 569.55 743.92 569.31 C 746.06 564.17 748.70 559.51 753.40 556.29 C 760.31 551.32 768.83 550.79 777.03 551.85 Z" fill="#000000" />
<path d="M 660.52 552.60 C 663.76 552.59 667.00 552.59 670.24 552.62 C 671.17 565.48 673.21 578.35 673.61 591.25 C 673.72 594.22 674.10 597.15 674.40 600.10 C 675.72 595.07 677.52 590.23 679.70 585.52 C 684.69 574.53 689.68 563.54 694.76 552.59 C 698.34 552.60 701.93 552.60 705.52 552.59 C 706.14 561.06 706.67 569.53 707.32 577.99 C 707.92 585.17 707.33 592.29 708.52 599.42 C 710.44 592.95 713.71 586.69 716.49 580.52 C 720.91 571.21 725.26 561.86 729.74 552.59 C 733.06 552.60 736.38 552.59 739.69 552.62 C 730.11 572.16 720.56 591.71 711.05 611.28 C 707.58 611.32 704.10 611.32 700.62 611.32 C 699.82 595.74 698.10 580.31 698.15 564.69 C 691.40 580.34 684.22 595.80 677.16 611.31 C 673.66 611.31 670.16 611.31 666.66 611.31 C 664.66 591.75 662.61 572.15 660.52 552.60 Z" fill="#000000" />
<path d="M 806.38 552.60 C 809.65 552.59 812.92 552.60 816.18 552.60 C 818.52 568.26 820.98 583.82 822.83 599.54 C 823.97 597.76 825.07 595.95 826.11 594.11 C 833.75 580.27 841.48 566.47 849.11 552.63 C 852.60 552.59 856.08 552.59 859.57 552.61 C 847.00 575.02 834.38 597.41 821.75 619.80 C 818.61 625.04 814.92 631.71 808.91 634.00 C 804.56 635.80 800.58 635.02 796.14 634.17 C 796.27 630.96 796.48 627.76 796.71 624.55 C 800.72 625.36 804.99 626.41 808.40 623.41 C 811.53 620.23 813.80 615.99 815.70 611.98 C 815.98 609.06 815.23 605.96 814.77 603.07 C 811.89 586.26 809.16 569.42 806.38 552.60 Z" fill="#000000" />
<path d="M 1076.40 552.60 C 1079.67 552.59 1082.93 552.60 1086.20 552.60 C 1088.52 568.21 1091.00 583.83 1092.85 599.51 C 1095.64 595.29 1097.89 590.81 1100.38 586.42 C 1106.63 575.15 1112.90 563.90 1119.14 552.62 C 1122.62 552.59 1126.10 552.59 1129.58 552.61 C 1117.04 574.98 1104.44 597.33 1091.84 619.68 C 1089.06 624.33 1085.78 630.19 1080.99 632.99 C 1076.76 635.75 1070.92 634.80 1066.19 634.29 C 1066.28 631.04 1066.49 627.80 1066.71 624.56 C 1070.38 625.28 1074.60 626.32 1077.84 623.87 C 1080.94 621.34 1082.91 617.26 1084.87 613.83 C 1086.34 611.59 1085.69 609.46 1085.45 606.99 C 1082.36 588.89 1079.39 570.72 1076.40 552.60 Z" fill="#000000" />
<path d="M 207.24 562.80 C 211.12 566.67 211.32 571.58 211.41 576.75 C 200.38 576.67 189.34 576.87 178.31 576.64 C 180.32 571.38 182.42 566.53 187.01 562.99 C 192.43 558.51 202.07 557.39 207.24 562.80 Z" fill="#ffffff" />
<path d="M 339.65 563.35 C 343.10 567.16 343.24 571.86 343.35 576.73 C 332.31 576.71 321.27 576.83 310.24 576.67 C 312.40 570.64 315.06 565.22 320.71 561.75 C 326.26 558.22 335.15 557.91 339.65 563.35 Z" fill="#ffffff" />
<path d="M 604.46 563.55 C 607.79 567.47 607.70 571.81 607.83 576.69 C 596.87 576.79 585.90 576.74 574.94 576.71 C 576.89 570.77 579.49 565.42 584.97 561.98 C 590.61 558.14 599.88 557.86 604.46 563.55 Z" fill="#ffffff" />
<path d="M 948.45 559.62 C 952.21 558.99 956.66 558.79 959.93 561.09 C 963.36 563.31 965.51 566.79 966.28 570.77 C 967.54 577.18 966.05 584.29 963.61 590.27 C 961.02 596.37 956.34 602.29 949.74 604.19 C 945.36 605.26 940.44 605.11 936.80 602.13 C 932.94 599.17 931.51 594.71 931.20 590.01 C 930.93 584.49 932.05 578.84 934.03 573.69 C 936.53 567.48 941.75 561.33 948.45 559.62 Z" fill="#ffffff" />
<path d="M 501.49 560.60 C 506.38 558.35 512.08 559.22 515.64 563.37 C 520.19 568.33 519.75 576.88 518.39 582.99 C 516.92 589.36 514.22 596.77 508.99 601.01 C 504.88 604.55 498.14 605.75 493.44 602.72 C 489.32 600.28 487.48 595.63 487.28 591.02 C 486.80 584.13 488.68 577.72 491.51 571.52 C 493.63 567.05 496.91 562.74 501.49 560.60 Z" fill="#ffffff" />
<path d="M 452.78 581.66 C 451.51 588.68 449.89 595.36 444.21 600.17 C 440.13 603.75 435.39 605.21 429.98 604.73 C 426.24 604.60 422.72 602.33 421.34 598.81 C 419.23 594.00 422.25 587.86 427.13 586.16 C 434.10 583.53 442.54 584.18 449.53 582.54 C 450.61 582.26 451.70 581.96 452.78 581.66 Z" fill="#ffffff" />
<path d="M 780.08 581.75 C 779.33 586.79 778.14 591.97 775.22 596.24 C 771.43 601.86 764.83 605.38 757.99 604.77 C 754.19 604.70 750.61 602.88 749.01 599.31 C 746.85 594.28 749.18 588.40 754.24 586.30 C 762.14 583.17 771.74 584.42 780.08 581.75 Z" fill="#ffffff" />
</svg>
