<?xml version="1.0" encoding="UTF-8"?>
<svg xmlns="http://www.w3.org/2000/svg" viewBox="0 0 86 29">
<title>Advanced Air</title>
<desc>Advanced Air logo</desc>
<metadata xmlns:rdf="http://www.w3.org/1999/02/22-rdf-syntax-ns#" xmlns:Airline="http://schema.org/Airline">
<rdf:RDF>
<Airline:name>Advanced Air</Airline:name>
<Airline:iataCode>AN</Airline:iataCode>
<Airline:url>https://airlinelogos.aero/AN</Airline:url>
</rdf:RDF>
</metadata>
<path fill="#0b233f" d="M81.127 9.32173H55.9924L54.7408 6.54492H85.8267C85.1749 9.28913 81.127 9.32173 81.127 9.32173Z" />
<path fill="#0b233f" d="M76.2317 13.6235H57.9805L56.7289 10.8467H80.9314C80.2796 13.5909 76.2317 13.6235 76.2317 13.6235Z" />
<path fill="#0b233f" d="M66.9366 17.9838H60.0598L58.8083 15.207H71.6363C70.9845 17.9512 66.9366 17.9838 66.9366 17.9838Z" />
<path fill="#0b233f" d="M4.69319 9.32173H29.8278L31.0793 6.54492H0C0.61924 9.28913 4.69319 9.32173 4.69319 9.32173Z" />
<path fill="#0b233f" d="M9.62104 13.6235H27.8723L29.1239 10.8467H4.89526C5.52102 13.6235 9.62104 13.6235 9.62104 13.6235Z" />
<path fill="#0b233f" d="M18.8901 17.9838H25.7669L27.0184 15.207H14.1838C14.8357 17.9512 18.8836 17.9838 18.8836 17.9838" />
<path fill="#0b233f" d="M59.2971 22.0971L49.3828 0.358507C49.3246 0.261238 49.245 0.17844 49.1502 0.116343C49.0553 0.0542455 48.9477 0.0144668 48.8352 0H48.5158C48.4025 0.0144519 48.2939 0.0541694 48.198 0.116221C48.1021 0.178273 48.0214 0.261073 47.9618 0.358507L42.9166 11.4918L37.8649 0.358507C37.8067 0.261238 37.7272 0.17844 37.6323 0.116343C37.5375 0.0542455 37.4298 0.0144668 37.3174 0H36.998C36.8847 0.0144519 36.7761 0.0541694 36.6802 0.116221C36.5843 0.178273 36.5035 0.261073 36.4439 0.358507L26.5687 22.0971C26.5207 22.1876 26.4978 22.2892 26.5024 22.3915C26.507 22.4938 26.5389 22.593 26.5948 22.6788C26.6506 22.7646 26.7285 22.8339 26.8201 22.8795C26.9118 22.925 27.0141 22.9452 27.1162 22.938H29.1499C29.308 22.9381 29.4627 22.8918 29.5947 22.8049C29.7268 22.718 29.8305 22.5943 29.893 22.4491C30.5448 20.9694 31.1967 19.5158 31.8485 18.0297H39.9834L39.0643 20.0569L34.9577 28.9479C38.1256 29.5997 40.1333 25.3954 40.1333 25.3954L41.7563 21.7973L42.9362 19.1899L44.129 21.7973L45.6543 25.3563C45.6543 25.3563 47.6619 29.5866 50.8298 28.9087L46.7754 20.0373L45.8564 18.0101H53.9847C54.6365 19.4963 55.2884 20.9499 55.9402 22.4295C56.0034 22.5743 56.1072 22.6975 56.2391 22.7843C56.3711 22.8711 56.5254 22.9177 56.6833 22.9184H58.717C58.8198 22.9279 58.9233 22.9092 59.0163 22.8642C59.1092 22.8192 59.1881 22.7497 59.2445 22.6632C59.3008 22.5766 59.3325 22.4764 59.336 22.3732C59.3395 22.2699 59.3148 22.1677 59.2645 22.0775L59.2971 22.0971ZM37.0371 6.39447H37.1935L41.1632 15.2333H33.087L37.0371 6.39447ZM44.6765 15.2333L48.6462 6.39447H48.8092L52.7201 15.2333H44.6765Z" />
</svg>
