<?xml version="1.0" encoding="UTF-8"?>
<svg xmlns="http://www.w3.org/2000/svg" viewBox="0 0 183 29">
<title>Aerolíneas Argentinas logo</title>
<path fill="#0078BE" d="M88.215589,12.5566852 C87.9940643,12.5184707 87.7868701,12.4838388 87.5957977,12.4509983 C87.39756,12.4205461 87.1802151,12.3936765 86.9515252,12.3721809 C86.7228354,12.3548649 86.461902,12.3381461 86.1782788,12.3250099 C85.8916701,12.3118736 85.5501281,12.3064997 85.1506672,12.3064997 C84.6293977,12.3064997 84.1051426,12.3506852 83.5796933,12.4420417 C83.042302,12.5357867 82.5664122,12.6999896 82.1478441,12.9448012 C81.7280817,13.1866272 81.3835542,13.5114504 81.1136643,13.9079258 C80.8389977,14.3264939 80.7076354,14.8405983 80.7076354,15.4406852 C80.7088296,16.3787316 81.3429513,17.2069113 82.5108817,17.9180591 L84.3965281,19.0477751 C84.8765977,19.3236359 85.1882846,19.5618794 85.314273,19.7284707 C85.4575774,19.9093925 85.514302,20.0724012 85.5154962,20.2413809 C85.514302,20.5214214 85.4575774,20.7417519 85.3489049,20.9143142 C85.2348586,21.1000128 85.0837919,21.2397345 84.9010788,21.3466157 C84.7058267,21.454691 84.4771368,21.5412707 84.2126209,21.5926214 C83.9433281,21.6475548 83.6680643,21.6750214 83.3742904,21.6750214 C83.2005339,21.6750214 82.9760238,21.6696475 82.7138962,21.65472 C82.4428122,21.642778 82.1633687,21.6290446 81.8695948,21.607549 C81.5758209,21.5908301 81.2808528,21.5669461 80.9966325,21.5412707 C80.7088296,21.5161925 80.440731,21.4905171 80.1929339,21.4660359 L80.0514209,21.4660359 C79.7803368,21.4481229 79.5146267,21.6344186 79.4704412,21.9043084 L79.3462441,22.5808243 L79.3438557,22.5951548 L79.3438557,22.672778 C79.3390788,22.8113055 79.4023716,22.9713287 79.534331,23.0513403 C79.6238962,23.1110504 79.722418,23.1516533 79.8358672,23.1809113 C80.0848586,23.2340533 80.3481803,23.2830157 80.6335948,23.3194388 C80.9213977,23.3582504 81.211589,23.3875084 81.5053629,23.4054214 C81.79436,23.42632 82.0785803,23.4412475 82.3520528,23.455578 C82.6308991,23.4669229 82.8828759,23.4752823 83.1061919,23.4752823 L83.1205223,23.4752823 C83.6925455,23.4752823 84.248447,23.4185577 84.7947948,23.3063026 C85.3489049,23.1958388 85.8409165,23.0071548 86.2738151,22.7498041 C86.7102962,22.4840939 87.0613919,22.1329983 87.3205339,21.6983084 C87.5886325,21.2528707 87.7146209,20.7083142 87.7146209,20.0706099 C87.7158151,19.6132301 87.5754962,19.1719722 87.3050093,18.776691 C87.0237745,18.3694678 86.5257919,17.9556765 85.8080759,17.5150157 L83.9433281,16.3882852 C83.5898441,16.1727316 83.3205513,15.9762852 83.1408238,15.8019316 C82.9730383,15.6371316 82.9037745,15.4759142 82.9037745,15.2878272 C82.9037745,15.0382388 82.965873,14.8585113 83.0703658,14.7277461 C83.1885919,14.5814562 83.3378672,14.4644243 83.5301339,14.3718736 C83.7218035,14.2769345 83.9403426,14.2130446 84.1803774,14.1772186 C84.4210093,14.1407954 84.655073,14.1234794 84.8825687,14.1234794 C85.4528006,14.1234794 86.0134788,14.138407 86.5538557,14.1694562 C87.0936354,14.2005055 87.5450441,14.2339432 87.8943484,14.2751432 L87.9785397,14.2751432 C88.2705223,14.2936533 88.5398151,14.0828765 88.5768354,13.791491 L88.6831194,13.1597577 L88.6843136,13.1460243 L88.6843136,13.0510852 C88.6962557,12.7913461 88.4657745,12.5853461 88.215589,12.5566852 Z M76.2884875,20.6384533 C75.7427368,20.9710388 75.2519194,21.224807 74.8190209,21.4057287 C74.3711948,21.5860533 73.9227716,21.6750214 73.4671832,21.6750214 C73.0080122,21.6750214 72.6384064,21.5436591 72.3201513,21.2803374 C72.0335426,21.042691 71.8627716,20.5924765 71.8627716,19.877149 C71.8627716,19.7422041 71.8669513,19.6042736 71.8824759,19.4567896 C71.8932238,19.3087084 71.9165107,19.1695838 71.9421861,19.0364301 L72.3129861,17.0642041 C72.4998788,16.0724186 72.8629165,15.339178 73.3919484,14.8465693 C73.9084412,14.3587374 74.6709397,14.1049693 75.7140759,14.1025809 C76.1511542,14.1025809 76.5189687,14.1234794 76.8169223,14.1599026 C77.05636,14.1885635 77.2790788,14.2202099 77.4934383,14.2560359 L76.2884875,20.6384533 Z M79.8949803,13.2248417 C79.8866209,12.9412186 79.6298672,12.7955258 79.3665455,12.7507432 C78.8440817,12.6205751 78.2589223,12.5154852 77.6206209,12.4289055 C76.9793339,12.3482968 76.3464064,12.3064997 75.7140759,12.3064997 C75.0811484,12.3064997 74.4691194,12.3817345 73.8732122,12.5298157 C73.2761107,12.6832707 72.724389,12.9376359 72.2305861,13.2869403 C71.7326035,13.6416186 71.3068701,14.1073577 70.9521919,14.6805751 C70.5891542,15.2609577 70.3294151,15.975091 70.1616296,16.8211838 L69.7896354,18.7139954 C69.7084296,19.1164417 69.6666325,19.5141113 69.6666325,19.8968533 C69.6666325,20.5023142 69.7490325,21.0325403 69.9359252,21.4881287 C70.1156528,21.9383432 70.3598672,22.31392 70.6709571,22.6100823 C70.9796586,22.9014678 71.3444875,23.1194099 71.7654441,23.2633113 C72.1744586,23.4036301 72.6049687,23.4752823 73.0641397,23.4752823 L73.0772759,23.4752823 C73.4259832,23.4752823 73.7448354,23.4519954 74.0356238,23.4054214 C74.3210383,23.3582504 74.5974962,23.2842099 74.8655948,23.1832997 C75.125931,23.0853751 75.3934325,22.9653577 75.6543658,22.8166794 C75.808418,22.7366678 75.9654557,22.6405345 76.1356296,22.5384301 L76.1045803,22.6948707 L76.1033861,22.7092012 L76.1033861,22.8417577 C76.1033861,22.9575954 76.1326441,23.078807 76.2001165,23.1743432 C76.3064006,23.3092881 76.4550788,23.3373519 76.6043542,23.3385461 L77.4307426,23.3385461 C77.5853919,23.3421287 77.7346672,23.2776417 77.8522962,23.1779258 C77.9693281,23.0817925 78.051131,22.9540128 78.0893455,22.8154852 L79.8645281,13.4183026 C79.8866209,13.3579954 79.8949803,13.2929113 79.8949803,13.2248417 Z M66.9737049,16.9507548 L61.8977455,16.9507548 C61.9902962,16.5733867 62.1174788,16.2288591 62.2822788,15.9112012 C62.4697687,15.5601055 62.6906962,15.2514041 62.9617803,14.9874852 C63.2262962,14.7229693 63.5320122,14.5199548 63.8795252,14.3748591 C64.2270383,14.232749 64.6151542,14.1599026 65.0432759,14.1599026 C66.4757223,14.1897577 67.0572991,14.7277461 67.0835716,15.9959896 C67.0835716,16.2831954 67.0489397,16.6008533 66.9737049,16.9507548 Z M68.2968817,13.3950157 C67.9607136,13.0540707 67.5439368,12.7883606 67.0572991,12.5948997 C66.5593165,12.4008417 65.9807252,12.3064997 65.3131658,12.3064997 C63.8072759,12.3035142 62.5521687,12.720291 61.5860586,13.5663838 C60.61756,14.4088939 59.9792586,15.6222041 59.658018,17.181833 L59.3905165,18.5211316 C59.3033397,18.953433 59.2585571,19.3618504 59.2585571,19.7422041 C59.2585571,20.4163316 59.3797687,20.9973113 59.6335368,21.4755896 C59.8795426,21.9472997 60.2049629,22.3360128 60.6080064,22.6321751 C61.0044817,22.9289345 61.464847,23.1420997 61.9729803,23.2770446 C62.4739484,23.4078099 62.995218,23.4752823 63.5164875,23.4752823 C64.2270383,23.4752823 64.855189,23.4454272 65.408702,23.3875084 C65.9526614,23.3307838 66.5378209,23.249578 67.1600006,23.1462794 C67.3516701,23.1176186 67.5093049,23.0746272 67.6293223,22.9540128 C67.7308296,22.8507142 67.7797919,22.7133809 67.8114383,22.5569403 L67.9374267,21.9031142 L67.9374267,21.8881867 L67.9374267,21.7896649 C67.945189,21.6857693 67.8914499,21.5591838 67.7917339,21.4905171 C67.6961977,21.4224475 67.5934962,21.4099084 67.480047,21.4069229 L67.3552528,21.4069229 C66.8518962,21.4737983 66.2918151,21.5317171 65.6475426,21.5908301 C65.0092412,21.642778 64.3852701,21.6750214 63.7869745,21.6750214 C63.0107426,21.6750214 62.4231948,21.5215664 62.0058209,21.2301809 C61.6069571,20.9501403 61.4009571,20.5142562 61.3967774,19.8204243 C61.3967774,19.6472649 61.4069281,19.4729113 61.4290209,19.2890041 C61.447531,19.1098736 61.4863426,18.9199954 61.5514267,18.7122041 L61.5776991,18.6172649 L68.3494267,18.6172649 C68.5267658,18.6172649 68.7005223,18.5683026 68.8151658,18.4315664 C68.9035368,18.3216997 68.9554846,18.1891432 68.9877281,18.0464359 L69.1525281,17.2385577 C69.2408991,16.8211838 69.281502,16.4253055 69.281502,16.0521171 C69.281502,15.5380128 69.2014904,15.0483896 69.0462441,14.5945925 C68.8832354,14.1342272 68.6372296,13.7335722 68.2968817,13.3950157 Z M57.8595484,13.2272301 C57.5890614,12.9376359 57.2397571,12.7101403 56.8277571,12.5441461 C56.4103832,12.3841229 55.9106093,12.3064997 55.3445571,12.3064997 C54.6238557,12.3064997 54.0010788,12.3960649 53.4642846,12.5817635 C53.0588528,12.7232765 52.6623774,12.8886736 52.2670962,13.079149 L52.2730672,13.0415316 L52.2760528,13.0277983 L52.2760528,12.9376359 C52.2796354,12.8176186 52.2336586,12.7029751 52.1626035,12.6110214 C52.0718441,12.4838388 51.9177919,12.4372649 51.7750846,12.4384591 L50.7612064,12.4384591 C50.6077513,12.4384591 50.4560875,12.4957809 50.3372643,12.6008707 C50.2214267,12.6958099 50.1384296,12.8229925 50.1026035,12.9651026 L48.2593513,22.7444301 L48.2593513,22.8417577 C48.2581571,22.9575954 48.2999542,23.0746272 48.3680238,23.1665809 C48.457589,23.290778 48.605073,23.3385461 48.7453919,23.3385461 L49.7706151,23.3385461 C49.9270557,23.3421287 50.0781223,23.2830157 50.1993339,23.1832997 C50.3223368,23.0853751 50.411902,22.9635664 50.4513107,22.8166794 L51.9625745,14.8298504 C52.5763948,14.5635432 53.0851252,14.3868012 53.4857803,14.2996243 C53.9133049,14.2046852 54.3193339,14.1599026 54.7020759,14.1599026 C55.4430788,14.1557229 55.9082209,14.2936533 56.0980991,14.4889055 C56.314847,14.7020707 56.4324759,15.0006214 56.4324759,15.4245635 C56.4324759,15.5666736 56.4223252,15.727891 56.4020238,15.9058272 C56.3829165,16.0897345 56.3572412,16.269462 56.3297745,16.4432186 L55.2567832,22.7306968 L55.2567832,22.8226504 C55.2508122,22.9575954 55.2944006,23.0997055 55.397102,23.1958388 C55.502789,23.2931664 55.6371368,23.3242157 55.7750672,23.3242157 L56.768047,23.3242157 C56.9203078,23.3272012 57.0719716,23.2668939 57.1955716,23.1665809 C57.3167832,23.0704475 57.4075426,22.9450562 57.4457571,22.7999606 L58.5253165,16.5100939 C58.5939832,16.1410852 58.6310035,15.7852128 58.6310035,15.4406852 C58.6327948,15.0149519 58.5706962,14.6089229 58.4464991,14.232749 C58.3217049,13.8506041 58.1258557,13.5162272 57.8595484,13.2272301 Z M46.5510441,11.4275664 L47.6676238,11.4275664 C47.8001803,11.4275664 47.9273629,11.4036823 48.0378267,11.3236707 C48.1088817,11.2681403 48.198447,11.1917113 48.3112991,11.0878157 L50.3904064,9.34487652 C50.4817629,9.26068522 50.5575948,9.1705229 50.5623716,9.02602435 C50.5599832,8.78778087 50.3080064,8.72329391 50.1658962,8.7173229 L48.8009223,8.7173229 C48.657618,8.72329391 48.522673,8.74478957 48.4128064,8.82300986 C48.3363774,8.87615188 48.2492006,8.95198377 48.1351542,9.05826783 L46.3760933,10.7683664 C46.2787658,10.8627084 46.1981571,10.9654099 46.1921861,11.1188649 C46.1921861,11.3236707 46.4149049,11.4275664 46.5510441,11.4275664 Z M47.7261397,12.4384591 L46.7379368,12.4384591 C46.5826904,12.4384591 46.4322209,12.4945867 46.309218,12.5948997 C46.1874093,12.6934214 46.0978441,12.820007 46.056047,12.9633113 L44.2116006,22.7444301 L44.2116006,22.8417577 C44.2116006,22.9767026 44.2516064,23.1176186 44.3578904,23.2137519 C44.4576064,23.3063026 44.5919542,23.3385461 44.7298846,23.3385461 L45.7246557,23.3385461 C45.8810962,23.3385461 46.0315658,23.2830157 46.15636,23.1832997 C46.2745861,23.0853751 46.3659426,22.9635664 46.4077397,22.8154852 L48.2492006,13.031978 L48.2492006,12.9376359 C48.2492006,12.802691 48.210389,12.6587896 48.104702,12.567433 C48.0014035,12.4712997 47.8658614,12.4384591 47.7261397,12.4384591 Z M44.6558441,9.60461565 C44.6558441,9.47862725 44.6253919,9.34965333 44.5268701,9.25352 C44.4331252,9.15917797 44.3011658,9.12753159 44.1751774,9.12753159 L43.1021861,9.12753159 C42.7821397,9.10424464 42.4973223,9.33174029 42.4597049,9.64880116 L39.9841223,22.7444301 L39.9841223,22.8417577 C39.9841223,22.9749113 40.0127832,23.1038852 40.1083194,23.2047954 C40.1966904,23.3003316 40.3286499,23.3385461 40.4516528,23.3385461 L41.5341977,23.3385461 C41.6906383,23.3421287 41.8428991,23.2776417 41.9527658,23.1755374 C42.0614383,23.0746272 42.136673,22.9540128 42.1760817,22.8166794 L44.6558441,9.70134609 L44.6558441,9.60461565 Z M37.4834614,16.5733867 C37.4721165,16.7435606 37.4458441,16.9250794 37.4034499,17.1251084 L37.1389339,18.5820359 C37.0577281,19.0406099 36.9221861,19.4484301 36.7346962,19.8204243 C36.5442209,20.1918214 36.3119484,20.5094794 36.0402672,20.7728012 C35.7709745,21.0355258 35.4592875,21.2439142 35.1022209,21.3913983 C34.749931,21.5412707 34.3624122,21.6182968 33.931902,21.6182968 C33.1473107,21.6182968 32.6224586,21.4481229 32.3304759,21.1597229 C32.0283426,20.8629635 31.8629455,20.4043896 31.8629455,19.7463838 C31.8617513,19.4269345 31.9023542,19.0638968 31.9817687,18.6524939 L32.2510614,17.1997461 C32.424818,16.2431896 32.7884528,15.5081577 33.3383832,14.9671838 C33.8841339,14.4297925 34.5690093,14.162291 35.4336122,14.1599026 C36.2164122,14.1599026 36.7424586,14.3354504 37.0362325,14.6393751 C37.3431426,14.9468823 37.5037629,15.4138157 37.5049571,16.0742099 C37.5049571,16.2324417 37.498389,16.4002272 37.4834614,16.5733867 Z M38.6884122,13.3747142 C38.3438846,13.0349635 37.9193455,12.773433 37.4255426,12.5853461 C36.9221861,12.3960649 36.3483716,12.3064997 35.6957397,12.3064997 C32.5579716,12.2850041 30.6078383,13.9527084 30.0346209,17.1274968 L29.7695078,18.5820359 C29.7378614,18.7677345 29.7127832,18.9438794 29.694273,19.1188301 C29.6757629,19.2985577 29.6614325,19.4818678 29.6614325,19.6687606 C29.6614325,20.2240649 29.7480122,20.7339896 29.9229629,21.1991316 C30.0955252,21.6624823 30.3486962,22.0655258 30.6860586,22.4028881 C31.0281977,22.7444301 31.4461687,23.0065577 31.9429571,23.1958388 C32.442731,23.3833287 33.0141571,23.4752823 33.6524586,23.4752823 C34.4812354,23.4752823 35.2222383,23.3642214 35.8706904,23.1391142 C36.5191426,22.914007 37.0780296,22.5921693 37.5491426,22.1730041 C38.0118962,21.7538388 38.392847,21.2457055 38.6854267,20.6509925 C38.9732296,20.0604591 39.1905745,19.394691 39.3296991,18.6524939 L39.6001861,17.1997461 C39.6276528,17.011062 39.6521339,16.8301403 39.6724354,16.6492186 C39.6957223,16.4623258 39.7046788,16.2760301 39.7046788,16.0915258 C39.7046788,15.5505519 39.6216817,15.0460012 39.4556875,14.5814562 C39.287902,14.1169113 39.0299542,13.7096881 38.6884122,13.3747142 Z M30.3301861,13.6792359 L30.4746846,12.8761345 L30.4776701,12.8576243 L30.4776701,12.7626852 C30.4830441,12.6349055 30.423931,12.4868243 30.3068991,12.4086041 C30.1910614,12.3297867 30.0632817,12.3064997 29.9157977,12.3064997 L29.8751948,12.3064997 C29.3772122,12.3064997 28.8732586,12.3650157 28.363931,12.4838388 C27.9525281,12.578778 27.5327658,12.7626852 27.092702,13.037949 L27.092702,13.031978 L27.092702,12.9376359 C27.0944933,12.802691 27.0592643,12.6689403 26.9565629,12.5710157 C26.8610267,12.4724939 26.7224991,12.4384591 26.5917339,12.4384591 L25.6202499,12.4384591 C25.4667948,12.4384591 25.3175194,12.4945867 25.1963078,12.6008707 C25.0822614,12.6958099 25.0010557,12.8217983 24.9610499,12.9633113 L23.1189919,22.7444301 L23.1189919,22.8417577 C23.1189919,22.9767026 23.1530267,23.1110504 23.2533397,23.2065867 C23.3488759,23.3045113 23.4838209,23.3385461 23.6151832,23.3385461 L24.6302557,23.3385461 C24.785502,23.3421287 24.9353745,23.2830157 25.0571832,23.1832997 C25.1831716,23.0895548 25.2745281,22.9575954 25.3133397,22.8154852 L26.804302,14.8722446 C27.2736238,14.6089229 27.7053281,14.4297925 28.0970267,14.3264939 C28.5090267,14.2166272 29.005218,14.1599026 29.5814209,14.1599026 L29.6465049,14.1599026 C29.9737165,14.1772186 30.2794325,13.9956997 30.3301861,13.6792359 Z M20.7568586,16.9507548 L15.6856759,16.9507548 C15.7788238,16.5733867 15.9054093,16.2288591 16.0725977,15.9112012 C16.2541165,15.5601055 16.4774325,15.2514041 16.7485165,14.9874852 C17.0118383,14.7229693 17.3157629,14.5199548 17.6650672,14.3748591 C18.010789,14.232749 18.3971136,14.1599026 18.8329977,14.1599026 C20.2618614,14.1897577 20.8440354,14.7277461 20.8703078,15.9959896 C20.8703078,16.2831954 20.8320933,16.6008533 20.7568586,16.9507548 Z M22.0877977,13.3950157 C21.7474499,13.0540707 21.3318672,12.7883606 20.8440354,12.5948997 C20.3460528,12.4008417 19.7656701,12.3035142 19.1010962,12.3035142 C17.5940122,12.3035142 16.3383078,12.720291 15.3727948,13.5663838 C14.4042962,14.4088939 13.7642035,15.6222041 13.4441571,17.181833 L13.1736701,18.5211316 C13.0882846,18.953433 13.0458904,19.3618504 13.0458904,19.7463838 C13.0458904,20.4181229 13.1676991,20.9973113 13.4208701,21.4755896 C13.6644875,21.9484939 13.9887136,22.3360128 14.3929513,22.6321751 C14.7924122,22.9289345 15.2497919,23.1432939 15.7621049,23.2770446 C16.2588933,23.4054214 16.7729977,23.4752823 17.293073,23.4752823 L17.3038209,23.4752823 C18.010789,23.4752823 18.6395368,23.4454272 19.1918557,23.3875084 C19.7405919,23.3307838 20.3245571,23.249578 20.9485281,23.1462794 C21.1396006,23.1170214 21.2942499,23.0746272 21.4160586,22.9540128 C21.5157745,22.8519084 21.5683194,22.7133809 21.5987716,22.5521635 L21.7229687,21.9031142 L21.7259542,21.8863954 L21.7259542,21.7920533 C21.7301339,21.6857693 21.6793803,21.5591838 21.577873,21.4905171 C21.4853223,21.4224475 21.3796354,21.4099084 21.2667832,21.4069229 L21.1425861,21.4069229 C20.6398267,21.4737983 20.0785513,21.5317171 19.435473,21.5908301 C18.7906035,21.642778 18.1726035,21.6750214 17.5707252,21.6750214 C16.7992701,21.6750214 16.2111252,21.5215664 15.7913629,21.2301809 C15.3948875,20.9501403 15.1888875,20.5142562 15.1847078,19.8204243 C15.1847078,19.6472649 15.1930672,19.4729113 15.21516,19.2866157 C15.2336701,19.1098736 15.2760643,18.9199954 15.3393571,18.7122041 L15.3626441,18.6172649 L22.1343716,18.6172649 C22.3152933,18.6172649 22.4902441,18.5683026 22.6030962,18.4315664 C22.690273,18.3216997 22.7410267,18.1891432 22.7750614,18.0464359 L22.9422499,17.2385577 C23.0258441,16.8211838 23.0706267,16.4253055 23.0706267,16.0521171 C23.0706267,15.5380128 22.990018,15.0483896 22.8317861,14.5969809 C22.67236,14.1342272 22.4209803,13.732378 22.0877977,13.3950157 Z M5.30745565,16.8719374 L7.93589623,12.1327432 C8.03561217,11.943462 8.28758899,11.9100243 8.43686435,11.9165925 C8.76109043,11.9345055 8.79572232,12.1327432 8.79572232,12.1327432 L9.35042957,16.8719374 L5.30745565,16.8719374 Z M10.4258093,10.8292707 C10.2968354,10.625062 10.1308412,10.454291 9.93320058,10.3312881 C9.73973971,10.2118678 9.53254551,10.1270794 9.30982667,10.0840881 C9.09666145,10.0452765 8.88827304,10.024378 8.68585565,10.024378 C8.47866145,10.024378 8.25892812,10.0494562 8.02964116,10.0960301 C7.78960638,10.1443954 7.55793101,10.2273925 7.33162957,10.3402446 C7.09458029,10.4578736 6.88141507,10.6184939 6.68198319,10.8161345 C6.4789687,11.019149 6.29685275,11.2753055 6.14220348,11.584007 L0.0607252174,22.6238157 C0.0219136232,22.7020359 0.000417971014,22.7981693 0.000417971014,22.9002736 C-0.00376173913,23.0184997 0.0392295652,23.1462794 0.138945507,23.2310678 C0.239258551,23.3116765 0.359275942,23.3385461 0.479293333,23.3385461 L1.73917739,23.3385461 C1.86934551,23.3385461 1.9911542,23.2949577 2.10221507,23.2256939 C2.21267884,23.1522504 2.30343826,23.0573113 2.34822087,22.9402794 L4.44046435,18.6542852 L9.49492812,18.6542852 L9.99171652,22.884749 C10.0114209,22.9976012 10.0526209,23.0943316 10.1075542,23.1743432 C10.1899542,23.2913751 10.3314672,23.3385461 10.459247,23.3385461 L11.7113687,23.3385461 C11.8558672,23.3385461 12.0069339,23.2985403 12.1084412,23.1922562 C12.2153223,23.0817925 12.2529397,22.9366968 12.2529397,22.785033 L12.2529397,22.6948707 L10.6921165,11.6269983 C10.6473339,11.3123258 10.5619484,11.0466157 10.4258093,10.8292707 Z" />
<path fill="#0078BE" d="M93.1130748,16.854502 L95.739127,12.1129194 C95.83944,11.9248325 96.0914168,11.8931861 96.2430806,11.9009484 C96.5649183,11.9152788 96.6025357,12.1129194 96.6025357,12.1129194 L97.1560487,16.854502 L93.1130748,16.854502 Z M98.2308313,10.8118354 C98.1024545,10.6082238 97.934669,10.4380499 97.7376255,10.3120614 C97.5453588,10.1926412 97.3363733,10.109047 97.1136545,10.0666528 C96.9040719,10.0248557 96.6938922,10.0057484 96.4896835,10.0057484 C96.2824893,10.0057484 96.0609646,10.0296325 95.8322748,10.0779977 C95.5946284,10.1251687 95.3617588,10.2117484 95.133069,10.3234064 C94.9025878,10.4398412 94.68584,10.5998643 94.4876023,10.7975049 C94.2863791,11.0011165 94.0988893,11.257273 93.9430458,11.5659745 L87.8681357,22.6027977 C87.823353,22.6834064 87.8042458,22.7795397 87.8042458,22.881047 C87.8024545,22.9980788 87.8436545,23.1294412 87.9433704,23.2142296 C88.0430864,23.2948383 88.1619096,23.3211107 88.2867038,23.3211107 L89.5441994,23.3211107 C89.6731733,23.3211107 89.7979675,23.2775223 89.9048487,23.2064672 C90.0177009,23.1366064 90.1078632,23.0392788 90.15384,22.9216499 L92.2448893,18.6380441 L97.3017414,18.6380441 L97.7955443,22.8667165 C97.81704,22.9765832 97.8546574,23.0745078 97.9125762,23.1563107 C97.9967675,23.2715513 98.1370864,23.3211107 98.2648661,23.3211107 L99.5157936,23.3211107 C99.6620835,23.3211107 99.8107617,23.2822991 99.9152545,23.1712383 C100.022136,23.0643571 100.056768,22.9162759 100.056768,22.7664035 L100.056768,22.6774354 L98.4977357,11.6113542 C98.4541472,11.2936962 98.3657762,11.0261948 98.2308313,10.8118354 Z M147.690536,12.8975107 L146.697556,12.8975107 C146.566791,12.8975107 146.441399,12.9452788 146.330936,13.0324557 C146.221069,13.116647 146.144043,13.2271107 146.112397,13.3483223 L144.344976,22.8338759 L144.344976,22.9216499 C144.344976,23.1628788 144.519927,23.3193194 144.77071,23.3193194 L145.766675,23.3193194 C145.892663,23.3193194 146.02104,23.2715513 146.126727,23.1885542 C146.238385,23.0995861 146.312426,22.9909136 146.348252,22.8667165 L148.117463,13.387731 L148.117463,13.2981658 C148.117463,13.0539513 147.939527,12.8975107 147.690536,12.8975107 Z M124.995307,17.1040904 L124.992321,17.124989 L119.716333,17.124989 C119.810675,16.6944788 119.952188,16.3027803 120.136095,15.9427281 C120.327168,15.5826759 120.560634,15.2686006 120.832912,14.9909484 C121.105191,14.723447 121.421654,14.512073 121.782901,14.3610064 C122.141162,14.2165078 122.54122,14.1406759 122.983672,14.1406759 C124.442391,14.1567977 125.103382,14.7604672 125.117115,16.0728962 C125.117115,16.3815977 125.077707,16.7291107 124.995307,17.1040904 Z M126.167417,13.5382006 C125.843191,13.2097948 125.438356,12.951847 124.960675,12.7625658 C124.476426,12.5708962 123.909179,12.4777484 123.25595,12.4777484 C121.762002,12.4747629 120.536153,12.8885542 119.58915,13.7179281 C118.637968,14.5425252 118.00922,15.7331455 117.689173,17.277847 L117.423463,18.6171455 C117.337481,19.0404904 117.294489,19.4465194 117.294489,19.8244846 C117.294489,20.4818933 117.411521,21.0467513 117.655139,21.5124904 C117.896965,21.9710643 118.213428,22.3448499 118.602739,22.6320557 C118.988466,22.9216499 119.433904,23.1294412 119.933678,23.2614006 C120.427481,23.3879861 120.929643,23.4536672 121.44315,23.4536672 L121.455092,23.4536672 C122.159075,23.4536672 122.78424,23.4232151 123.332976,23.3694759 C123.879921,23.3115571 124.463886,23.2315455 125.084872,23.1294412 C125.269973,23.1037658 125.406112,23.0613716 125.495678,22.9652383 C125.58166,22.8834354 125.629428,22.7664035 125.656895,22.6141426 L125.781092,21.9621078 L125.781092,21.9525542 L125.781092,21.8683629 C125.781092,21.680873 125.610321,21.5817542 125.418652,21.5817542 L125.29744,21.5817542 C124.799457,21.6432557 124.241168,21.7059513 123.59391,21.7638701 C122.950831,21.8211919 122.32686,21.8492557 121.726176,21.8492557 C120.939794,21.8492557 120.327168,21.6892325 119.888895,21.3876962 C119.460176,21.0897426 119.242831,20.6072846 119.238652,19.8985252 C119.238652,19.7241716 119.249997,19.5402643 119.272089,19.3533716 C119.289405,19.1700614 119.332397,18.9718238 119.400466,18.7586586 L119.445846,18.5968441 L126.283852,18.5968441 C126.449846,18.5968441 126.591956,18.5532557 126.679133,18.44936 C126.754368,18.355018 126.80333,18.2385832 126.833782,18.101847 L126.997388,17.29576 C127.081579,16.8855513 127.123376,16.4956441 127.123376,16.1296209 C127.12457,15.6226817 127.048141,15.1485832 126.894686,14.7025484 C126.737052,14.2559165 126.49642,13.8672035 126.167417,13.5382006 Z M136.798808,13.3686238 C136.539666,13.0891803 136.208275,12.869447 135.802843,12.7100209 C135.400397,12.5523861 134.91555,12.4777484 134.359052,12.4777484 C133.645515,12.4777484 133.031695,12.5673136 132.506246,12.7530122 C132.051852,12.9112441 131.602831,13.1017194 131.156797,13.3214528 L131.190234,13.1070933 L131.190234,13.0133484 C131.192623,12.9142296 131.156797,12.8216788 131.100072,12.7446528 C131.029614,12.6497136 130.913776,12.6091107 130.786594,12.610902 L129.77391,12.610902 C129.642547,12.610902 129.516559,12.6586701 129.413857,12.7488325 C129.31235,12.8336209 129.237115,12.9422933 129.206663,13.0652962 L127.365202,22.8338759 L127.365202,22.9216499 C127.365202,23.0159919 127.399834,23.1115281 127.458947,23.1885542 C127.528808,23.2822991 127.642854,23.3193194 127.765857,23.3193194 L128.782124,23.3193194 C128.914083,23.3193194 129.043057,23.2715513 129.152924,23.1885542 C129.261597,23.0995861 129.335637,22.9897194 129.370269,22.8667165 L130.890489,14.8398817 C131.525805,14.5556614 132.056031,14.3729484 132.477585,14.282189 C132.911678,14.1896383 133.323081,14.1406759 133.717765,14.1406759 C134.465336,14.1406759 134.949585,14.2726354 135.177081,14.4977426 C135.417712,14.7318064 135.540715,15.0578238 135.540715,15.500873 C135.540715,15.64776 135.532356,15.8137542 135.510263,15.9958701 C135.488768,16.1809716 135.465481,16.3606991 135.438014,16.5350528 L134.240826,22.8338759 L134.240826,22.9216499 C134.240826,23.1628788 134.415776,23.3193194 134.666559,23.3193194 L135.656553,23.3193194 C135.790304,23.3193194 135.918083,23.2715513 136.025562,23.1849716 C136.134234,23.1037658 136.21126,22.9909136 136.244101,22.8667165 L137.443081,16.5714759 C137.514136,16.2084383 137.548768,15.8567455 137.545782,15.5199803 C137.548768,15.100218 137.489057,14.7097136 137.367846,14.3401078 C137.249023,13.976473 137.056756,13.6450817 136.798808,13.3686238 Z M157.823347,13.3704151 C157.563011,13.0891803 157.23162,12.869447 156.827382,12.7142006 C156.420756,12.5523861 155.937104,12.4777484 155.378217,12.4777484 C154.667666,12.4777484 154.05504,12.5673136 153.53377,12.7530122 C153.072211,12.9112441 152.623191,13.1017194 152.178947,13.3214528 L152.213579,13.105302 L152.213579,13.0133484 C152.213579,12.916618 152.181933,12.8216788 152.119237,12.7434586 C152.049973,12.6497136 151.93115,12.610902 151.808147,12.610902 L150.794866,12.610902 C150.664698,12.610902 150.53871,12.6586701 150.434217,12.7488325 C150.33271,12.8366064 150.26046,12.9452788 150.230008,13.0652962 L148.385562,22.8338759 L148.385562,22.9192614 C148.385562,23.0159919 148.421985,23.1073484 148.481098,23.1885542 C148.547973,23.2822991 148.660228,23.3193194 148.785023,23.3193194 L149.804275,23.3193194 C149.93922,23.3211107 150.066402,23.2715513 150.176269,23.1849716 C150.283747,23.1037658 150.360176,22.9909136 150.395405,22.8667165 L151.913834,14.8398817 C152.54915,14.5610354 153.078182,14.3753368 153.502124,14.282189 C153.935023,14.1896383 154.34762,14.1406759 154.739915,14.1406759 C155.483904,14.1406759 155.97293,14.2726354 156.19744,14.4977426 C156.439863,14.7318064 156.559881,15.0578238 156.561672,15.500873 C156.561672,15.64776 156.552118,15.8137542 156.530623,15.9958701 C156.513904,16.1809716 156.487631,16.3595049 156.460165,16.5350528 L155.262379,22.8338759 L155.262379,22.9192614 C155.262379,23.1628788 155.437927,23.3193194 155.688112,23.3193194 L156.678107,23.3193194 C156.811857,23.3211107 156.936054,23.2715513 157.045921,23.1885542 C157.154594,23.1037658 157.234605,22.9909136 157.26446,22.8667165 L158.464634,16.5714759 C158.535689,16.2084383 158.569127,15.8567455 158.569127,15.5169948 C158.569127,15.100218 158.511208,14.7097136 158.389399,14.3418991 C158.271173,13.9734875 158.080101,13.6450817 157.823347,13.3704151 Z M177.928947,13.128589 C177.939098,12.9142296 177.772507,12.7595803 177.542026,12.7273368 C177.319307,12.6903165 177.115695,12.652102 176.924026,12.6234412 C176.724594,12.5906006 176.51322,12.5631339 176.285724,12.545818 C176.057034,12.5243223 175.802072,12.5087977 175.518449,12.4968557 C175.234826,12.4843165 174.891492,12.4789426 174.489046,12.4789426 C173.976733,12.4777484 173.46024,12.522531 172.938373,12.610902 C172.41591,12.7028557 171.945394,12.8670586 171.535782,13.1041078 C171.13035,13.3369774 170.794779,13.6540383 170.536831,14.0397658 C170.27351,14.4356441 170.142744,14.9330296 170.142744,15.5169948 C170.144536,16.4078701 170.747011,17.2067919 171.903597,17.91376 L173.785063,19.044073 C174.269312,19.3229194 174.588762,19.56176 174.733857,19.7432788 C174.881341,19.9403223 174.952994,20.1254238 174.952994,20.3182875 C174.952994,20.6138528 174.890298,20.8497078 174.771475,21.0437658 C174.647278,21.2396151 174.487254,21.392473 174.286031,21.5065194 C174.084808,21.6223571 173.847759,21.7065484 173.572495,21.7638701 C173.297828,21.8211919 173.01122,21.8492557 172.713863,21.8492557 C172.541898,21.8492557 172.317388,21.8420904 172.051081,21.8313426 C171.780594,21.8164151 171.499359,21.8020846 171.206779,21.7829774 C170.913005,21.7638701 170.618037,21.7423745 170.330831,21.7131165 C170.040043,21.6892325 169.773736,21.6641542 169.52773,21.6354933 L169.392785,21.6354933 C169.14857,21.6295223 168.951527,21.7680499 168.909133,22.0003223 L168.784339,22.6732557 L168.782547,22.681018 L168.782547,22.746102 C168.77777,22.8667165 168.83151,22.9867339 168.927046,23.0488325 C169.007654,23.0995861 169.097817,23.1366064 169.204698,23.1628788 C169.44533,23.2184093 169.705666,23.263789 169.988095,23.2984209 C170.27351,23.340218 170.562507,23.3694759 170.850907,23.3879861 C171.143486,23.4082875 171.424124,23.4232151 171.698791,23.4375455 C171.975846,23.4482933 172.223046,23.4548614 172.450541,23.4548614 C173.017788,23.4548614 173.575481,23.4023165 174.117052,23.2912557 C174.664594,23.181389 175.148246,22.9980788 175.566217,22.7449078 C175.988965,22.4857658 176.326327,22.1436267 176.578304,21.727447 C176.83446,21.2987281 176.96224,20.7726817 176.96224,20.1451281 C176.96224,19.7074528 176.827295,19.291273 176.566959,18.9079339 C176.301846,18.5180267 175.812223,18.1114006 175.098686,17.6761136 L173.23573,16.5458006 C172.876275,16.3308441 172.601011,16.1296209 172.41591,15.9457136 C172.234988,15.7677774 172.152588,15.5820788 172.152588,15.3659281 C172.152588,15.100218 172.216478,14.8983977 172.336495,14.7455397 C172.465469,14.5867107 172.626089,14.458931 172.831492,14.3610064 C173.034507,14.2660672 173.259017,14.193818 173.508008,14.1597832 C173.754014,14.12336 173.994049,14.105447 174.225724,14.105447 C174.798941,14.105447 175.359023,14.1161948 175.900594,14.1478412 C176.442165,14.1854586 176.889991,14.2200904 177.247057,14.2559165 L177.319307,14.2559165 C177.58024,14.2660672 177.784449,14.1084325 177.826246,13.8534701 L177.927753,13.2223339 L177.928947,13.2044209 L177.928947,13.128589 Z M165.711057,20.7750701 C165.155156,21.1195977 164.648814,21.3876962 164.198599,21.5692151 C163.739428,21.7567049 163.274883,21.8492557 162.808547,21.8492557 C162.335046,21.8468672 161.933794,21.7065484 161.597626,21.4318817 C161.281162,21.16856 161.108599,20.680131 161.108599,19.9540557 C161.108599,19.8179165 161.116362,19.6716267 161.125915,19.5229484 C161.142037,19.3730759 161.161144,19.2309658 161.18682,19.0918412 L161.558814,17.124989 C161.751678,16.1182759 162.120686,15.3623455 162.666437,14.8518238 C163.210397,14.3436904 163.999765,14.0839513 165.056634,14.0839513 C165.497295,14.0839513 165.867498,14.105447 166.169034,14.1406759 L166.171423,14.1406759 C166.444895,14.1753078 166.704037,14.2129252 166.948849,14.2559165 L165.711057,20.7750701 Z M169.137823,13.3011513 C169.134837,13.0879861 168.945556,12.9685658 168.689399,12.9207977 C168.165144,12.7912267 167.584762,12.6855397 166.948849,12.6007513 C166.313533,12.5183513 165.682397,12.4777484 165.056634,12.4777484 C164.432663,12.4777484 163.820634,12.5523861 163.237863,12.7004672 C162.650315,12.8491455 162.112327,13.0969426 161.625689,13.4420672 C161.142037,13.7895803 160.723469,14.2445716 160.373568,14.8088325 C160.023069,15.3742875 159.762136,16.0800614 159.597336,16.9154064 L159.226536,18.8070238 C159.142344,19.2076788 159.098159,19.5975861 159.099353,19.97376 C159.099353,20.5678759 159.185933,21.0897426 159.363869,21.5298064 C159.542402,21.9710643 159.782437,22.3317136 160.079197,22.616531 C160.37715,22.9001542 160.730634,23.1115281 161.137857,23.2494586 C161.53911,23.3855977 161.964843,23.4548614 162.417446,23.4548614 C162.764959,23.4548614 163.076049,23.4339629 163.361463,23.3855977 C163.642101,23.3420093 163.913185,23.2703571 164.169341,23.1712383 C164.433857,23.0745078 164.691805,22.9556846 164.949753,22.8123803 C165.155156,22.7001252 165.372501,22.5681658 165.606565,22.4147107 L165.540286,22.7908846 L165.540286,22.8446238 L165.540286,22.9216499 C165.539092,23.0255455 165.56835,23.1198875 165.620298,23.1921368 C165.690756,23.2912557 165.809579,23.3193194 165.948107,23.3211107 L166.773898,23.3211107 C166.907052,23.3211107 167.031846,23.2715513 167.134547,23.181389 C167.234263,23.0971977 167.308304,22.9897194 167.33577,22.8667165 L169.114536,13.470131 C169.131254,13.4337078 169.137823,13.3734006 169.137823,13.3011513 Z M142.122565,14.2200904 L144.270936,14.2200904 C144.408269,14.2200904 144.534257,14.1693368 144.635765,14.0809658 C144.735481,13.9931919 144.80773,13.8857136 144.841168,13.7633078 L144.965962,13.1070933 L144.965962,13.1017194 L144.965962,13.0133484 C144.965962,12.769731 144.792205,12.610902 144.543214,12.610902 L142.428281,12.610902 L142.716083,11.0076846 L142.716083,10.9420035 C142.716083,10.733018 142.57875,10.5753832 142.371556,10.5753832 L142.311846,10.5753832 L141.20482,10.7312267 C140.918808,10.7664557 140.712211,10.933047 140.667428,11.1927861 L140.415452,12.610902 L139.046298,12.6497136 C138.92031,12.6479223 138.799695,12.6855397 138.701173,12.7625658 C138.600263,12.8389948 138.532791,12.9422933 138.498756,13.0611165 L138.394263,13.5853716 L138.393069,13.5943281 L138.393069,13.6600093 C138.387098,13.8809368 138.569811,14.0284209 138.80686,14.0451397 L140.118692,14.2051629 L138.872541,20.7810412 C138.846269,20.9327049 138.824773,21.0646643 138.814026,21.174531 C138.799695,21.29216 138.790739,21.4145658 138.790739,21.5441368 C138.78835,22.2272209 139.040327,22.7407281 139.544281,23.0303223 C140.030321,23.3145426 140.632797,23.4548614 141.341556,23.4548614 C141.537405,23.4548614 141.752959,23.4453078 141.988814,23.4232151 C142.22646,23.4100788 142.444999,23.3855977 142.653985,23.3587281 C142.816994,23.3318586 142.937608,23.2912557 143.017023,23.2172151 C143.088078,23.1515339 143.13704,23.0643571 143.167492,22.963447 L143.292286,22.2678238 L143.295272,22.2612557 L143.295272,22.1770643 C143.301243,22.068989 143.260043,21.9549426 143.148982,21.9203107 C143.080912,21.8928441 143.001498,21.8862759 142.909544,21.8862759 L141.652049,21.8862759 C141.332002,21.8862759 141.094356,21.8552267 140.965979,21.798502 C140.865666,21.7590933 140.798791,21.6408672 140.798791,21.3727687 C140.798791,21.2420035 140.816704,21.0592904 140.858501,20.8341832 L142.122565,14.2200904 Z M107.381411,14.1406759 C107.689515,14.1478412 107.922982,14.0051339 107.965973,13.7394238 L108.114054,12.934531 L108.118234,12.9243803 L108.118234,12.8419803 C108.11704,12.6007513 107.909249,12.4789426 107.650704,12.4789426 L107.610101,12.4789426 C107.117492,12.4777484 106.622495,12.5374586 106.118541,12.6497136 C105.666536,12.7595803 105.189452,12.9787165 104.688483,13.3166759 L104.732072,13.1070933 L104.732072,13.1017194 L104.732072,13.0133484 C104.732072,12.7715223 104.564286,12.610902 104.324849,12.610902 L103.353365,12.610902 C103.224988,12.610902 103.097208,12.6586701 102.994507,12.7530122 C102.892999,12.8336209 102.819556,12.9440846 102.790298,13.0652962 L100.948837,22.8338759 L100.948837,22.9216499 C100.948837,23.1604904 101.111846,23.3193194 101.355463,23.3193194 L102.36755,23.3193194 C102.502495,23.3193194 102.624304,23.2715513 102.733573,23.1885542 C102.844037,23.0995861 102.920466,22.9909136 102.95271,22.8667165 L104.455017,14.8906354 C104.94046,14.6147745 105.391869,14.4207165 105.806257,14.3084614 C106.230199,14.1985948 106.731765,14.1406759 107.325283,14.1406759 L107.381411,14.1406759 Z M148.688292,10.5300035 L148.688292,10.444618 C148.688292,10.2021948 148.51155,10.0433658 148.260768,10.0433658 L147.208675,10.0433658 C147.075521,10.0409774 146.951921,10.0887455 146.840263,10.1795049 C146.730994,10.2642933 146.658147,10.3735629 146.621724,10.4983571 L146.517828,11.3289252 L146.517828,11.4155049 C146.517828,11.6615107 146.692779,11.8179513 146.94177,11.8179513 L148.000431,11.8179513 C148.132391,11.8179513 148.255394,11.7666006 148.363469,11.6824093 C148.475127,11.598218 148.550959,11.4895455 148.583799,11.36296 L148.688292,10.5300035 Z M113.687997,21.6516151 C113.537527,21.6856499 113.37213,21.710131 113.191208,21.7322238 C112.977446,21.7602875 112.764281,21.7829774 112.552907,21.8020846 C112.339741,21.8211919 112.135533,21.8313426 111.938489,21.8373136 C111.739057,21.845673 111.56351,21.8492557 111.416026,21.8492557 C110.640391,21.8492557 110.076727,21.7065484 109.72802,21.4497948 C109.385283,21.1960267 109.20257,20.7249136 109.200779,20.0137658 C109.200779,19.8280672 109.20675,19.6166933 109.228246,19.3903919 C109.247353,19.1640904 109.289747,18.9276383 109.340501,18.6738701 L109.610988,17.2736672 C109.827736,16.165447 110.204507,15.3587629 110.72697,14.8518238 C111.253017,14.3430933 111.974912,14.0851455 112.920721,14.0839513 C113.358994,14.0839513 113.773382,14.1060441 114.169857,14.1478412 C114.52155,14.1896383 114.827266,14.2326296 115.080437,14.276218 L113.687997,21.6516151 Z M116.799492,12.9196035 C116.331962,12.8163049 115.76591,12.716589 115.103724,12.6234412 C114.43915,12.5243223 113.793683,12.4777484 113.172698,12.4777484 C112.393481,12.4777484 111.692483,12.5607455 111.077469,12.7291281 C110.463649,12.8975107 109.922078,13.1721774 109.454547,13.5507397 C108.988211,13.929302 108.601289,14.4207165 108.294976,15.0255803 C107.988066,15.6292499 107.752211,16.3636846 107.585023,17.2420209 L107.319312,18.6380441 C107.229747,19.0990064 107.188547,19.5366817 107.188547,19.9343513 C107.188547,20.5469774 107.287069,21.0789948 107.487098,21.5226412 C107.68653,21.9710643 107.960002,22.3364904 108.309307,22.622502 C108.658014,22.9055281 109.077776,23.1139165 109.562026,23.2512499 C110.046275,23.3855977 110.569336,23.4548614 111.125237,23.4548614 C111.281678,23.4548614 111.464988,23.4447107 111.67875,23.4232151 C111.898483,23.4082875 112.117023,23.3855977 112.344518,23.3587281 C112.571417,23.334247 112.78697,23.3014064 112.988194,23.2715513 C113.127915,23.2512499 113.252112,23.2315455 113.361979,23.2112441 L113.344663,23.3014064 C113.262263,23.7325136 113.15777,24.0865948 113.040739,24.3714122 C112.920721,24.6550354 112.755324,24.8795455 112.552907,25.0461368 C112.344518,25.2115339 112.08657,25.3351339 111.776675,25.406189 C111.462599,25.4844093 111.077469,25.5208325 110.63024,25.5208325 C110.357962,25.5208325 110.058217,25.5082933 109.739962,25.4903803 C109.415736,25.4700788 109.092704,25.45336 108.766686,25.4342528 C108.447237,25.4139513 108.148686,25.3948441 107.875214,25.3691687 C107.601741,25.3399107 107.374246,25.3160267 107.198698,25.2939339 L107.16526,25.2939339 L107.120478,25.2939339 C106.999266,25.2939339 106.880443,25.3172209 106.790281,25.3870817 C106.691759,25.4485832 106.630257,25.5500904 106.595028,25.6695107 C106.595028,25.6695107 106.472026,26.3149774 106.46904,26.3436383 C106.472026,26.547847 106.647573,26.6762238 106.890594,26.7407107 C107.174217,26.8195281 107.621446,26.8977484 108.247208,26.9723861 C108.869985,27.0523977 109.578744,27.0900151 110.363933,27.0900151 C111.110907,27.0900151 111.762344,27.030902 112.324217,26.9150643 C112.884298,26.7992267 113.36795,26.5914354 113.773382,26.2976614 C114.177023,26.0020962 114.511399,25.5972614 114.771736,25.0980846 C115.031475,24.5953252 115.228518,23.97016 115.370031,23.2237832 L117.22642,13.4635629 L117.22642,13.4552035 C117.22642,13.4354991 117.230599,13.4253484 117.230599,13.4253484 C117.238959,13.3859397 117.247915,13.352502 117.247915,13.3202586 C117.247915,13.1017194 117.058634,12.9685658 116.799492,12.9196035 Z" />
<path fill="#0078BE" d="M167.532694,5.12062261 C163.52077,5.8162458 158.071025,6.33333565 153.96655,7.56276754 C153.906242,7.58187478 153.91281,7.61531246 153.982671,7.61172986 C163.88739,7.31556754 174.609541,7.36512696 182.620254,7.63262841 C182.638764,7.63382261 182.666231,7.59799652 182.662051,7.57590377 C182.470979,6.63009507 181.733558,5.55770087 179.514132,5.56725449 L178.230364,5.56725449 C178.230364,5.56725449 178.196926,5.59113855 178.202897,5.60069217 C178.564741,6.50709217 177.550863,7.10837333 176.897037,6.5608313 C176.620579,6.32736464 176.346509,5.75593855 177.049297,5.26332986 C177.56579,4.90029217 178.382625,4.36708058 178.854335,4.06793275 C180.551297,2.99195594 180.316637,1.4484487 178.063773,1.27588638 C172.621193,0.863886377 162.903964,0.306790725 159.061019,0.000477681159 C158.973245,-0.00728463768 158.926671,0.0572023188 158.986381,0.0894457971 C162.162961,1.80909797 165.052932,1.96613565 168.228915,3.14959072 C170.035744,3.82073275 169.679871,4.74862841 167.532694,5.12062261" />
</svg>
