<?xml version="1.0" encoding="UTF-8"?>
<svg xmlns="http://www.w3.org/2000/svg" viewBox="0 0 13547 5656">
<title>ITA Airways</title>
<desc>ITA Airways logo</desc>
<metadata xmlns:rdf="http://www.w3.org/1999/02/22-rdf-syntax-ns#" xmlns:Airline="http://schema.org/Airline">
<rdf:RDF>
<Airline:name>ITA Airways</Airline:name>
<Airline:alternateName>Italia Trasporto Aereo</Airline:alternateName>
<Airline:iataCode>AZ</Airline:iataCode>
<Airline:url>https://airlinelogos.aero/AZ</Airline:url>
</rdf:RDF>
</metadata>
<path fill="#00683E" d="M1099 2373c0,627 -380,730 -612,777 -165,34 -332,69 -487,95 0,-791 0,-1582 0,-2373 0,-627 380,-730 612,-777 165,-34 332,-69 487,-95 0,791 0,1582 0,2373z"/>
<path fill="#00683E" d="M1484 900l0 -900 6769 0c-127,166 -233,336 -349,495 -161,220 -356,405 -776,405l-1859 0 0 2346 -1099 0 0 -2346 -2687 0z"/>
<path fill="#BF1E0C" d="M8704 2473c259,-357 483,-442 846,-442l804 0 -883 1214 -1328 0 562 -772z"/>
<path fill="#00683E" d="M8405 442c259,-357 483,-442 846,-442 645,0 1290,0 1935,0 787,1082 1574,2164 2361,3246l-804 0c-362,0 -586,-85 -846,-442l-1941 -2669 -2262 3111 -1328 0 2039 -2804z"/>
<path fill="#00683E" d="M1654 4544l-233 499 467 0 -233 -499zm-333 712l-161 344 -303 0 796 -1619 796 1619 -303 0 -161 -344 -665 0z"/>
<path fill="#00683E" d="M8796 4544l-233 499 467 0 -233 -499zm-332 712l-161 344 -303 0 796 -1619 796 1619 -303 0 -161 -344 -665 0z"/>
<rect fill="#00683E" x="3052" y="4037" width="303" height="1563"/>
<polygon fill="#00683E" points="10370,5599 10651,5599 10651,4895 11241,4037 10922,4037 10522,4631 10106,4037 9787,4037 10370,4895"/>
<path fill="#00683E" d="M4160 5599l266 0 0 -609 150 0 457 609 322 0 -487 -648c188,-73 319,-242 319,-437 0,-263 -238,-477 -531,-477l-497 0 0 1563zm266 -1328l231 0c130,0 236,109 236,242 0,134 -106,242 -236,242l-231 0 0 -485z"/>
<polygon fill="#00683E" points="6387,5004 5996,4037 5694,4037 6352,5656 6797,4614 7227,5656 7885,4037 7597,4037 7206,5004 6797,3995"/>
<path fill="#00683E" d="M12609 4168l0 296c-156,-144 -299,-214 -430,-214 -154,0 -233,74 -233,190 0,103 118,186 393,285 242,86 348,253 348,435 0,267 -223,467 -548,467 -172,0 -333,-44 -484,-161l0 -289c160,140 319,212 477,212 175,0 290,-84 290,-198 0,-132 -122,-182 -347,-276 -271,-113 -400,-251 -400,-448 0,-288 217,-452 497,-452 167,0 312,46 436,154z"/>
</svg>
