<?xml version="1.0" encoding="UTF-8"?>
<svg xmlns="http://www.w3.org/2000/svg" viewBox="0 0 513.11 159">
<title>Air Busan</title>
<desc>Air Busan logo</desc>
<metadata xmlns:rdf="http://www.w3.org/1999/02/22-rdf-syntax-ns#" xmlns:Airline="http://schema.org/Airline">
<rdf:RDF>
<Airline:name>Air Busan</Airline:name>
<Airline:iataCode>BX</Airline:iataCode>
<Airline:url>https://airlinelogos.aero/BX</Airline:url>
</rdf:RDF>
</metadata>
<path fill="#293982" d="M233.3,79.81c8-16.27,20-28.95,35.06-39.15-1.19-.24-2.16-.41-3.12-.63a58.15,58.15,0,0,1-18.75-8.22c-6.61-4.25-13.07-8.76-19.56-13.2a54.27,54.27,0,0,0-20.93-9c-6.76-1.24-13.41-1.17-19.9,1.36-1.09.42-2.1,1-3.2,1.58,2.36,1.45,4.6,2.68,6.67,4.15,8,5.71,13.28,13.56,17,22.55a84.42,84.42,0,0,1,5.76,23.24c.37,3.45.59,6.91.91,10.7a4.55,4.55,0,0,1-.59-.52c-7.22-12-18-19.43-31.14-23.61A84.24,84.24,0,0,0,158,45.33c-18.25-.47-35.71,3.38-52.77,9.53a126.75,126.75,0,0,1-26.84,6.75c-13.05,1.7-25.89,1.12-38.25-3.94A44.35,44.35,0,0,1,27.84,50.2a12.3,12.3,0,0,1-3.31-4.3l.17-.33a13.42,13.42,0,0,1,2.08.82,54.83,54.83,0,0,0,11.1,5.28,62.66,62.66,0,0,0,23.23,3c13.08-.66,25.47-4.36,37.81-8.39,8.55-2.79,17.09-5.68,25.76-8.08a84.18,84.18,0,0,1,30.15-2.55,86,86,0,0,1,45.95,17.92c.78.61,1.53,1.26,2.32,1.91.06-.15.13-.24.1-.3-3.5-8.75-7.33-17.33-13.17-24.84-7.48-9.61-17.07-15.67-29.19-17.63a65.55,65.55,0,0,0-12.73-1.16c-1.16,0-2.31.2-3.46.22s-1.34-.53-.91-1.48a2.69,2.69,0,0,1,.43-.71c3.53-3.88,7.6-6.4,13.16-5.54,4.3.66,8.61,1.26,12.93,1.66a12.29,12.29,0,0,0,5-.58A101.44,101.44,0,0,1,192,.59a46.48,46.48,0,0,1,28,4.26,128.31,128.31,0,0,1,17.51,10.8c6.36,4.44,12.79,8.77,20,11.72A55,55,0,0,0,281,31.55a55.24,55.24,0,0,0,13.19-2.71,112.63,112.63,0,0,1,23.26-4.25,121.2,121.2,0,0,1,53.49,8c10.61,4,21.23,8.07,31.9,11.94a150.63,150.63,0,0,0,27.94,7.33,98.76,98.76,0,0,0,25.3.85c18.38-1.83,34.32-9.36,48.68-20.62,2-1.55,3.87-3.22,5.83-4.79a25.11,25.11,0,0,1,2.13-1.39l.36.27a7.14,7.14,0,0,1-.63,2.07,71.35,71.35,0,0,1-4.47,6,76.72,76.72,0,0,1-40.95,25.12A98.46,98.46,0,0,1,448.25,62c-16.77.74-33.08-2-49.1-6.65-11.22-3.22-22.31-6.89-33.48-10.26a227.71,227.71,0,0,0-29.15-7,104.82,104.82,0,0,0-28-.92A106.6,106.6,0,0,0,261.05,54a108.18,108.18,0,0,0-27,25.06c-.17.22-.34.44-.52.65A.44.44,0,0,1,233.3,79.81Z"/>
<path fill="#293982" d="M467.81,113.6v43.87H449.68V87.59c.46,0,.89-.06,1.32-.06,5.27,0,10.55,0,15.83,0a1.92,1.92,0,0,1,1.91,1.06q12.57,20.31,25.2,40.58a2.37,2.37,0,0,0,.94,1V87.62c.54,0,1-.09,1.38-.09,5.16,0,10.31,0,15.47,0,1.07,0,1.34.32,1.34,1.36q0,33.67,0,67.36c0,1.05-.29,1.36-1.35,1.35-5,0-10.07,0-15.11,0a1.86,1.86,0,0,1-1.8-1q-13-20.75-26-41.48C468.54,114.67,468.27,114.29,467.81,113.6Z"/>
<path fill="#293982" d="M165.87,157.55v-70c.49,0,.95-.07,1.42-.07,7.88,0,15.75-.06,23.63,0,5.51.06,11,.28,16.26,2.32,7.48,2.92,11.56,8.81,11.33,16.58-.17,5.44-2.84,9.43-7.46,12.19l-1.4.82,1.91.86c6,2.76,10,7.2,10.72,13.91.82,7.81-1.94,14.17-8.6,18.64a24.37,24.37,0,0,1-11.76,4c-4.81.39-9.65.58-14.47.65-6.68.11-13.36,0-20,0ZM184,136c0,2.4,0,4.79,0,7.19,0,.62,0,1.1.87,1.09,2.36,0,4.72.09,7.07-.05a38.93,38.93,0,0,0,7.09-.86c4-1,5.68-3.82,5.38-8.26-.26-3.87-2.47-6.34-6.52-6.65-4.33-.33-8.69-.25-13-.37-.73,0-.86.35-.86,1C184,131.33,184,133.65,184,136Zm0-21.8a6.17,6.17,0,0,0,.76.09c2.51,0,5,.06,7.54-.1a17.62,17.62,0,0,0,4.78-.94c2.78-1,3.84-3,3.72-6.25a5.35,5.35,0,0,0-4.17-5.21c-4.13-1.28-8.37-.62-12.63-.8Z"/>
<path fill="#293982" d="M276.41,87.6c.52,0,.87-.07,1.23-.07,5.35,0,10.71,0,16.07,0,1,0,1.29.27,1.29,1.28,0,14.46,0,28.93,0,43.39,0,5.77-1.12,11.26-4.71,16a24.8,24.8,0,0,1-13.9,9c-9.92,2.61-19.79,2.55-29.26-1.75-8.9-4-13.61-11.27-13.8-21-.29-15.3-.16-30.6-.22-45.9,0-.54,0-1,.77-1l17.39,0c.11,0,.22.09.41.16v1.52q0,20.74,0,41.48a35.16,35.16,0,0,0,.46,5.11,9.14,9.14,0,0,0,7.21,7.88,17.67,17.67,0,0,0,9.46-.06c4.6-1.29,7.08-4.4,7.37-9.32.16-2.75.23-5.51.24-8.26,0-12.3,0-24.61,0-36.92Z"/>
<path fill="#293982" d="M362.51,109.14h-17a13.52,13.52,0,0,1-.24-1.51,6.79,6.79,0,0,0-4.33-6.1,13.26,13.26,0,0,0-10.91,0,7,7,0,0,0-2.33,1.64c-2,2.09-1.69,4.56.75,6.07a26.79,26.79,0,0,0,4.64,2.15c5.82,2.18,11.7,4.19,17.49,6.45,4,1.55,7.64,3.66,10.31,7.14a18.05,18.05,0,0,1,3.58,13.3c-1,9.62-6.5,15.8-15.54,18.63a40.45,40.45,0,0,1-28.79-1.28,22.19,22.19,0,0,1-13.67-16.84,21.34,21.34,0,0,1-.31-2.25c-.05-.67,0-1.34,0-2.09h16.64c.13.59.24,1.17.4,1.74a10.3,10.3,0,0,0,6.39,7.12,16.76,16.76,0,0,0,12.38.18,9.4,9.4,0,0,0,2.41-1.31c2.36-1.76,2.52-4.7.09-6.34a41.25,41.25,0,0,0-7.09-3.64c-5.51-2.32-11.13-4.37-16.6-6.75a21.65,21.65,0,0,1-9.28-7.35,19.15,19.15,0,0,1,5.74-26.94,32.66,32.66,0,0,1,15.24-4.78,33.86,33.86,0,0,1,17.37,3c7.3,3.44,11.66,9.08,12.4,17.28C362.34,107.46,362.42,108.25,362.51,109.14Z"/>
<path fill="#293982" d="M441.18,157.55h-2.32c-5.16,0-10.31,0-15.47,0a1.61,1.61,0,0,1-1.84-1.35c-1.24-3.91-2.6-7.78-3.86-11.68a1.32,1.32,0,0,0-1.51-1.1q-11.1.06-22.19,0a1.26,1.26,0,0,0-1.43,1c-1.3,4-2.68,8-4,12-.22.66-.47,1.07-1.3,1.07-5.8,0-11.59,0-17.39,0-.19,0-.39,0-.72-.06.14-.46.23-.86.38-1.25q12.94-33.75,25.88-67.5a1.63,1.63,0,0,1,1.82-1.23q7.86.07,15.71,0a1.55,1.55,0,0,1,1.76,1.15q13,33.9,26.1,67.79C440.9,156.74,441,157,441.18,157.55Zm-36-48.86-.29,0c-2.32,6.78-4.63,13.56-7,20.41h14.3C409.89,122.2,407.56,115.44,405.22,108.69Z"/>
<path fill="#293982" d="M86.42,157.45V87.62c.46,0,.88-.09,1.3-.09,5,0,9.91-.08,14.87,0,4.7.09,9.42.12,14,1.56a18,18,0,0,1,13,17.12c.25,9.44-4.07,16-12.85,19.51l-1.55.62,18.45,31.19h-3.69c-1.56,0-3.12-.05-4.68,0a1.67,1.67,0,0,1-1.69-1c-5.48-9.33-11-18.62-16.47-28a1.78,1.78,0,0,0-1.79-1c-3.6,0-7.19,0-10.93,0v29.81ZM94.32,121c5.28-.2,10.5-.25,15.69-.64a11.8,11.8,0,0,0,8.11-4c3.08-3.5,3.72-7.65,2.94-12.1-.62-3.57-2.44-6.4-5.79-7.84a21.63,21.63,0,0,0-6.64-1.8c-4.49-.36-9-.29-13.52-.38a3.6,3.6,0,0,0-.79.12Z"/>
<path fill="#293982" d="M55.16,157.54c-2.63,0-5.06,0-7.49,0-.3,0-.72-.55-.85-.92-1.86-5.42-3.72-10.85-5.51-16.3a1.62,1.62,0,0,0-1.84-1.34q-11.88.08-23.75,0A1.49,1.49,0,0,0,14,140.15c-1.83,5.48-3.75,10.93-5.6,16.4-.24.71-.54,1-1.33,1-2.31,0-4.62,0-7.1,0l3.31-9.64q10.14-29.55,20.26-59.1a1.6,1.6,0,0,1,1.88-1.31,38.68,38.68,0,0,0,4.44,0,1.51,1.51,0,0,1,1.79,1.23c4.34,12.82,8.75,25.62,13.13,38.43l9.93,29.06C54.86,156.59,55,157,55.16,157.54Zm-27.4-60h-.32l-10.91,34.6H38.77C35.07,120.55,31.42,109.06,27.76,97.57Z"/>
<path fill="#293982" d="M63.44,87.6h8v69.87h-8Z"/>
</svg>
