<?xml version="1.0" encoding="UTF-8"?>
<svg xmlns="http://www.w3.org/2000/svg" viewBox="0 0 290 290">
<title>AirAsia X</title>
<desc>AirAsia X logo</desc>
<metadata xmlns:rdf="http://www.w3.org/1999/02/22-rdf-syntax-ns#" xmlns:Airline="http://schema.org/Airline">
<rdf:RDF>
<Airline:name>AirAsia X</Airline:name>
<Airline:iataCode>D7</Airline:iataCode>
<Airline:url>https://airlinelogos.aero/D7</Airline:url>
</rdf:RDF>
</metadata>
<g transform="translate(-5.312 -5.306)">
<path fill="#e32526" d="M295.312 150.305c0 80.078-64.913 145.001-145.006 145.001-80.072 0-144.994-64.924-144.994-145.001S70.234 5.306 150.306 5.306c80.092.001 145.006 64.922 145.006 144.999"/>
<path fill="#fff" d="M109.494 121.304c3.279-.593 5.716 1.4 5.471 4.431-.245 3.027-3.111 5.985-6.384 6.57-3.258.581-5.716-1.412-5.456-4.445.249-3.032 3.096-5.956 6.369-6.556M74.235 143.04c2.838-10.566 6.273-21.355 9.672-29.411-6.849 8.978-14.188 20.401-20.801 31.806 3.849-.901 7.593-1.7 11.129-2.395m58.331-8.234c2.556-.465 8.297 3.01 5.551 6.23-2.854 3.313-6.074 2.652-11.129 4.762-2.865 1.188-5.063 3.753-8.201 8.268-3.99 5.854-5.818 11.588-6.146 15.897-.027 1.279-.129 1.918-.805 2.359-6.68 4.363-8.735 1.084-8.566-2.924.043-.946.374-2.442.964-4.284-5.14 7.707-9.69 11.605-12.666 12.14-3.989.721-6.24-2.048-5.811-7.171.196-2.33.897-5.069 2.202-8.521 1.368-3.505 3.524-8.297 5.52-12.223.509-1.023 1.001-2.005 1.415-2.884a390.4 390.4 0 0 0-12.381 2.626c-.068.166-.125.257-.187.267-2.149 10.038-2.318 13.822-3.476 22.574-.49 3.828.248 7.946-4.311 8.575-4.558.661-6.071-4.033-6.098-8.041-.059-4.081.695-8.985 3.579-20.856a317.403 317.403 0 0 0-14.696 4.114c-.07.111-.119.169-.119.169-8.227 15.06-16.347 33.694-17.69 39.72-1.071 4.831-3.254 6.311-6.466 4.911-3.206-1.405-5.073-4.635-3.907-8.236 2.113-6.464 8.548-20.973 14.28-31.386-.043.019 0-.125.135-.389-4.201 1.632-8.107 3.382-11.521 5.264-2.251 1.212-5.077.092-5.619-2.422-.388-1.783-1.24-5.304 3.121-7.218 6.588-2.88 13.715-5.319 20.834-7.379 15.119-25.437 33.911-51.608 39.315-51.13 2.339.202 1.969 2.73 4.032 5.021 2.036 2.281 2.333 3.678-.104 9.725-4.997 12.412-4.599 9.521-9.394 28.884 8.793-1.458 16.447-2.299 17.164-2.41 2.427-.345 6.604 1.308 4.396 6.048 0 0-2.314 4.075-3.227 5.82-1.65 2.887-3.791 7.226-5.083 10.158-.821 1.729-1.194 3.051-1.261 4.019-.067.629.169.985.677.894.673-.122 1.66-.849 2.85-2.081 1.157-1.353 5.064-4.558 12.047-16.323l1.843-3.812c.594-1.136 1.445-3.138 1.607-4.057.193-1.366.245-1.721 1.387-2.44 1.843-1.176 5.174-2.149 7.097-.894 1.81 1.197 1.341 3.365-.162 5.995 6.086-6.853 7.651-7.135 9.01-7.359m119.083 19.811c3.422-4.208 8.716-13.862 9.047-16.498.152-1.21-.196-1.688-1.147-1.565-1.176.156-3.815 2.312-6.327 5.387-3.679 4.415-8.633 13.32-9.021 16.254-.163 1.2.327 1.988 1.173 1.887 1.361-.187 3.713-2.229 6.275-5.465m20.504-6.966c1.487-2.361 4.635-1.589 3.793.582-.727 1.879-2.101 4.929-5.604 9.067-4.305 5.293-8.27 7.861-11.854 8.337-2.89.407-4.938-.831-5.438-3.42l-.168-.527c-.009-.456-.238-.683-.489-.641-.264.028-.457.225-.94.681-3.635 3.852-6.415 6.221-9.775 6.681-5.019.656-7.94-3.262-7.229-8.947-1.343 1.988-2.73 3.898-4.007 5.307-3.922 4.357-7.137 7.125-10.12 7.515-4.025.538-6.132-2.331-5.454-7.414.303-2.316 1.166-5.013 2.639-8.435 1.53-3.413 3.903-8.105 6.096-11.932 1.751-3.136 3.441-6.682 3.704-7.891.202-.952.306-1.136 1.05-1.62.935-.664 2.78-1.451 3.905-1.54 2.841-.214 6.611 1.84 4.117 6.099l-.94 1.62c-.135.333-1.841 3.416-2.822 5.098-1.81 2.834-4.127 7.058-5.582 9.917-.903 1.702-1.341 3.004-1.46 3.952-.099.634.119 1.012.615.938.695-.086 1.718-.769 2.961-1.969 1.275-1.334 2.054-2.219 4.896-5.979l1.031-1.301c.82-1.07 7.296-9.539 9.243-11.636 5.224-6.233 11.124-10.651 14.913-11.141 2.489-.343 4.497.793 5.465 3.092.683 1.877.818 2.006 2.483 2.725 2.663 1.056 3.536 1.95 3.331 3.307-.099.968-.462 1.718-2.155 4.379a140.473 140.473 0 0 0-3.441 6.242c-1.979 3.917-3.062 6.583-1.143 7.263.727.251 2.071-.44 3.749-2.217 1.856-1.967 3.17-3.915 4.63-6.192m-34.315-19.654c3.268-.582 6.123-3.527 6.381-6.567.235-3.034-2.211-5.009-5.463-4.424-3.275.588-6.141 3.53-6.38 6.574-.261 3.027 2.201 5.005 5.462 4.417m-49.691-14.374c-6.8 8.931-14.105 20.305-20.725 31.664a300.29 300.29 0 0 1 11.068-2.308c2.858-10.53 6.265-21.311 9.657-29.356m1.708 27.451c1.953-.288 8.304-1.041 8.06 1.623-.374 4.293-1.991 4.229-7.671 5.447a275.52 275.52 0 0 1-3.416.741c-.087.288-.179.456-.245.466-2.14 10.038-2.309 13.834-3.484 22.574-.505 3.828.244 7.946-4.313 8.575-4.556.661-6.13-4.036-6.103-8.041.016-7.088 3.592-20.985 3.61-21.067-4.636 1.181-9.607 2.525-14.553 4.068-5.893 10.008-16.633 34.12-17.962 40.146-1.081 4.831-3.261 6.311-6.482 4.896-3.205-1.39-4.996-4.592-3.897-8.221 2.991-9.976 14.298-31.581 14.476-31.971-4.194 1.685-8.104 3.493-11.475 5.416-2.088 1.188-4.752.055-5.318-2.449-.374-1.801-1.204-5.309 2.875-7.173 6.542-2.982 13.655-5.476 20.758-7.524 15.095-25.389 33.815-51.438 39.209-50.957 2.351.199 1.985 2.728 4.04 5.018 2.045 2.275 2.333 3.678-.118 9.725-4.974 12.421-4.565 9.521-9.377 28.918.474-.066.923-.142 1.386-.21m7.211 35.186c3.729-.382 14.629-2.771 14.738-14.738.025-4.632-4.402-7.074-5.478-10.303-.694-1.995-.527-6.112 2.621-7.349 3.889-1.531 4.694 1.025 6.037 2.936.558.784 2.339.597 2.948-.04.849-.882 2.089-2.202 2.624-4.443.472-2.054-1.708-5.505-8.042-5.291-2.214.049-5.346.426-9.782 4.657-2.046 1.947-8.559 10.854-3.738 18.502 1.301 2.076 4.43 4.614 2.418 6.564-3.139 3.025-8.531-1.661-9.556-3.076-.462-.651-1.8-1.412-2.679-.122-.508.74-2.927 5.052-2.553 6.646 1.089 4.975 7.509 6.351 10.442 6.057"/>
</g>
<path fill="#fff" d="M237.264 180.106a.456.456 0 0 0 .121-.031c-.042.01-.083.018-.121.03zm.335-.176-.002.008c.002 0 .002 0 .002-.002zm-25.584 48.439c-.043.027-.089.048-.128.08.043-.03.087-.056.128-.08zm-.96-24.657.243.129-.243.172c.42.048.512-.187.72-.325-.31.043-.369-.403-.72.024zm19.92-21.368c-.004.007-.007.012-.007.018l.022-.013zm-.007.018a2.648 2.648 0 0 1-.255.128c.1-.03.217-.041.255-.128zm6.628-2.424c-.07.046-.122.102-.21.137.093-.023.183-.05.21-.137zm.28-.402-.478-.05.038.291zm.267 1.236-.024-.052-.375.19.075.064zm-.502.413-.037-.078-.358.123.035.079zm-3.163 1.74-.244.174.2-.069zm3.347-2.288-.336.266.277-.093c.068-.053.136-.107.059-.173zm.474-.884c-.265.03-.249.266-.502.11a.406.406 0 0 0-.199.073c.018.113.621.143.701-.183zm4.686-4.253a.125.125 0 0 0-.066.082c.034-.022.059-.05.066-.082zm-4.933 3.915c.164-.074.006-.095-.047-.132-.074.065.076-.042.047.132zm2.94-2.03-.023-.05-.376.188.077.064zm1.796-1.608c.152-.03.113-.12.131-.195-.116.068-.327.075-.131.195zm19.095 34.03-.21-.208-.144.292c.115-.049.266-.18.354-.085zm-47.644-9.715a.288.288 0 0 1 .02-.013l.076-.08zm26.251-22.295-.036-.077-.359.122.036.08zm1.157-.485-.063-.039-.256.148.067.039zm-1.746 1.623c-.354.028-.63.335-.533.543.595-.203-.126-.378.533-.543zm-1.896.349.124-.106c-.156.052-.16.082-.124.106zm.317 1.335.218-.226-.062-.037-.258.239zm.91-1.034-.559.282.394-.136zm-.686 1.26.252-.146-.063-.04-.257.148zm-24.615 44.499.58-.325c-.23-.019-.414.205-.58.325zm47.47-10.573c.043-.085.625-1.143 1.051-1.899-.008.007-.02.01-.028.015.107-.407-.688-.231-.149-.79-.58-.998-.594-1.879-1.357-2.504l.321-.204c-.02-.317-.216-.465-.333-.676l-.142.29c-.214-.105-.055-.436-.082-.657-.631-.255-1.377-1.183-1.721-1.299-.215-.466-.575-.641-.59-1.158l.044-.03c-1.599-1.49-2.793-2.711-4.694-3.829.018-.403-.674-.536-.198-.867l.07.034-.972-.832c-.062.125-.084.266-.213.255-.685-1.057-1.744-2.067-2.726-2.985l.032-.044c.753-1.016 1.703-2.081 2.7-3.178 0-.002.007-.007.009-.011l.163-.184c1.22-1.347 2.493-2.737 3.534-4.14 3.304-3.66 6.598-7.603 4.477-11.19-2.724-1.753-7.167-4.364-11.784-2.484-.029-.07-.092-.123-.098-.182-.592 1.04-.288-.596-1.258-.382-.404-.284-1.005-.29-1.2-.615-.768.833-.651-.53-1.516-.205l-.135.406c-.036-.379-.3-.048-.724-.171.009.116.186.206.022.352-.407.109.022-.157-.317-.192-.17.028-.2.158-.298.253.036.077.032.169.164.153-.241.382-.527.36-.918.614.08-.026.226-.106.303-.043l-.045.107c.202-.16.588.282.618-.06.071-.025.14-.06.199-.067.208-.709.77.02.955.03-.165.011-.199.132-.312.173l-.203-.143c-.328.29.206.052.027.262-.473.07-.286.488-.874.298l.233-.29c-.123.133-.322.2-.502.11.013-.016.022-.035.035-.056l-.208.176c-.316.017-.187-.208-.342-.246-.303.044-.481.256-.617.363l.484.047c.183.51-.655.282-.757.77-.358.122-.415-.312-.793-.03-.124.02-.06.087-.074.141.141-.107.287-.148.47.024l-.14.2c-.973.186-.103.8-.969.929.048-.042.03-.105.046-.161-.108.065-.296.076-.16.174l-.002.001c.003.004.009.004.014.009.005.002.008.007.017.012l.007-.001c.166.074.341-.014.504-.084.024.07.037.143.152.129a.743.743 0 0 1-.08.11c-.498.184-1.3.391-1.47.81l.454-.04c-.263.061-.428.247-.553.346l.482.047c.045.12.03.196-.018.256a.258.258 0 0 1-.238-.05c-.134.105-.516.176-.475.465a.039.039 0 0 1 .016-.004.415.415 0 0 0-.04.103c-.357.122-.415-.31-.793-.031-.125.022-.062.088-.075.143.139-.103.28-.144.458.014l-.74.327-.036-.079c.087-.064.17-.14.248-.206l-.253-.061-.069.107-.009-.022c-.21.04-.345.149-.418.292l-.36-.086c-.084-.184.338-.267.134-.41-.484.047.1.119-.114.252-.468.189-.461-.204-.56-.322-.255.012.146 1.21.374 2.04l-.059.02c-.02-.144-.496-.074-.263-.274-.13.016-.254.148-.392.044.028-.037.044-.105.174-.119l-.058-.131c-.637.218-.214-.47-.366-.296l-.23.198-.202-.141c-.006.092-.191.185-.116.25.13-.013.146-.08.176-.12l.359.09-.195.277c-.049-.013-.143-.013-.125-.078l-.399.135.36.09-.1.183c-.173.215-.464.174-.687.115.019-.032-.063-.14-.138-.223-1.34-.469-.872-.38-1.732.124l.431.74c-.206.107-.46.148-.74.155a111.995 111.995 0 0 1-5.923-5.911c-1.177-.42-1.58-1.592-2.774-1.97-.043-2.277-2.499-2.348-4.076-3.219-2.513-1.586-5.602-.632-8.409.202-2.86.754-6.158 2.32-7.263 5.676-1.01 6.991 4.982 10.018 8.294 14.25 1.327 1.577 2.873 2.91 4.532 4.11-.189.145-.33.305-.406.365.222.495-1.482.988-1.145 1.326-.211.042-.204.159-.361.214.198-.017.504-.159.827-.271-.139.144-.248.266-.357.38-.376.098-.99.57-.804.575a.42.42 0 0 1 .19-.048 3.907 3.907 0 0 1-.23.15l-.06.063c-.077-.011-.165.026-.295.183l.083.044-.024.028.15.079-.209.15a.084.084 0 0 0 .02.002c-.311.16-.53.427-.636.513.057.122-.006.243-.126.364l-.044.023.029-.01c-.376.36-1.253.697-1.004.946-.212.044-.202.16-.362.214.354-.03 1.04-.444 1.559-.413-.016.068-.032.136-.122.136-.077.073-.291.117-.285.211l-.01.007a.387.387 0 0 1-.049.095l-.395.088c-.226-.195-1.265.553-1.03.564.295-.161.53.15.637-.218l.26.047c-.198.152-.381.295-.429.428a.54.54 0 0 0-.142.065.403.403 0 0 0 .14-.045.13.13 0 0 0 .006.103.87.87 0 0 0-.424.41 1.251 1.251 0 0 1-.216.052l.055-.08c-.107.068-.342.056-.375.187a11.993 11.993 0 0 1 .513-.123c-.099.175-.195.345-.483.442l.115.052c-.456.82-1.61 1.213-2.038 1.994-.61.268-.734.912-1.207 1.285l.306.044a.099.099 0 0 1-.025.014l.116.05c-.457.818-1.61 1.213-2.04 1.993-.61.27-.734.914-1.207 1.286l.738.111c-.14.198-.29.37-.57.465.354-.03.728-.219 1.094-.223l-.554.701 1.233-.421-.415.504.733-.309c.671-.14.2.443.482.557.7-.176.102.629.866.49l-.44.45.198-.066c.348.362-.45 1.028-.482 1.37l-.142-.012c-.315.318.102.327.202.444.082.183-.25.263-.37.4l.432-.06c-.251.356-.427.478-.755.77l.2-.068c.052.013.143.012.128.077-.006.093-.164.146-.245.174l.061.13c-.08.027-.68.023-.654.282.397.168.12-.34.455-.213.006.417-.913.823-1.144 1.324-.295.464.005.722-.708 1.177-.113.16-.404.53-.033.433l-.77 1.136c.734-.1.128.591.398.68.898.054.163.968 1.03.854-.087.21-.37.396-.18.513.385-.465.608.125 1.117-.17.126.078.004.21-.08.33l.595-.205c.279-.096.334.129.502.19l-.256.148.456-.005c-.072.144-.23.199-.313.318.26-.03.36-.213.537-.333.417-.294 1.11-.29 1.49-.36l-.394.346 1.09-.432c.019.146-.133.315-.394.345l.083.184c.384-.165.633-.43 1.072-.368-.127.225-.33.386-.533.544.218.378.005 1.025-.329 1.197l.56.021-.135.408c.518.034.634-.217 1.032-.352-.246.568.541.48.74.41.58-.136 1.12-.565 1.792-.4.607-.18.529-.152.966-.602l.207.049c.065-.262.68-.322.75-.376l-.155-.039c.392-.042.149-.379.647-.283l.003.002-.053.08.51-.087a.647.647 0 0 1 .294-.01c-.607.246-1.516.236-1.814.861l.417.01c-.195.304-.664.325-1.063.434.54-.137 1.018.105 1.345-.32-.28.395-.385.673-1.033.864l.58-.14c-.341.235-.415.58-.469.866-.235-.04-.488-.075-.644.272l.397-.136c-.105 1.09-1.934.598-2.382 1.535l.419.009c-.194.308-.665.328-1.063.438.54-.138 1.019.103 1.344-.322-.28.396-.384.674-1.032.864l.582-.139c-.353.24-.422.597-.475.888 1.008-.314 1.764-.875 2.224-1.484.657-.376 1.387-.685 1.705-1.308-.198-.838 1.71-.582 1.997-1.464-.484-.258.333-.687-.158-.76.147-.081.233.01.375.02-.097-.116.81-.243.44-.45 1.66-.898 2.526-2.126 4.1-3.119 1.304-1.378 3.223-2.819 4.954-4.164 1.233-.602 4.08-3.082 7.368-6.118.53.424 1.002.932 1.657 1.198-.21 1.794 1.865 1.372 2.279 2.342l.14-.29c.105.614.6.601.973.833l-.1.208c1.388.522 1.575 2.51 3.32 2.85 1.272 3.134 4.904 3.524 7.135 5.69 1.067-.455 1.801.414 2.689.593.078-.885 1.153.101 1.166-.2l-.032-.118.83.303c-.2-.407-.901-.337-.987-.893-.397-.56-1.412-.487-1.646-1.044.051.017.137.035.149-.04l-.114.049c-.016-.007-.03-.012-.04-.018a.753.753 0 0 1-.043-.33c.054.099.18.175.197.3l.167-.07c.107.672.49.424.757.55-.283-.328-.635-.588-.95-.938l-.028-.29.532.003-.231-.626c.551.063 1.299.531 1.563 1.173 1.258-.206 2.493.908 3.55 1.475.059-.123.12-.25.25-.236l.18.447c.28-.12.532.364.788.385l.034-.343.18.087c.217-.353 0-.459-.018-.777l.78.125c-.03-.116-.154-.228-.037-.377.096-.108.22.006.293.041-.008-.258-.096-1.173-.276-1.621.214.104.315-.922.742-.614l-.048-.174.43-.152c-.003.102.045.178-.03.243l.072.036.1-.207-.073-.036c.84-.257.022-.862.096-1.287l.492.086c-.361-.535-.771-.785-.868-1.498l.132-.091c-.404.009-.432-.569-.752-.828l.454-.29-.079-.296-.13.09c.337-.602-.36-.636-.199-1.325.056-.024.135-.09.24-.037zm-45.8 11.383a4.62 4.62 0 0 0 .495-.186c-.097.245-.286.221-.494.186zm20.915-42.177.091-.107c.003.1-.022.144-.091.107zm2.829-3.178c-.079.046-.187.076-.294.116.006-.102-.017-.18.294-.116zm-.053.572a.997.997 0 0 1-.2.011l.23-.079a.413.413 0 0 1-.03.068zm.148-.11a.248.248 0 0 0-.155-.055.29.29 0 0 0-.023-.093c-.012-.08.232-.04.464-.07zm.847-1.023a.4.4 0 0 1-.202-.038.228.228 0 0 0 .033-.057l-.206.176c-.3.016-.2-.188-.323-.24l.184-.014c-.065-.038-.156-.037-.18-.09.086-.07.176-.142.266-.212.05-.01.096-.01.128.018l-.041.105c.12-.094.302.022.438.06-.127.082-.187.14.049.163a.744.744 0 0 1-.146.13zm-.288-.583c.161-.119.329-.232.509-.316-.149.169-.314.23-.509.316zm1.092-.202a.787.787 0 0 1-.202.063.223.223 0 0 1 .202-.063zm-.239.344-.086.123-.157.069zm-.29.029a.461.461 0 0 0 .04-.014.426.426 0 0 1-.045.03c0-.006 0-.01.005-.016zm.165.579a.286.286 0 0 1-.128.024c.089-.142.14-.324.328-.247a.645.645 0 0 1-.2.223zm.202-.555.037-.042-.098-.024.216-.169.178.09zm.882-1.87c-.055-.222.441.058.3-.253-.014-.119.525.024.756-.175a.637.637 0 0 0 .095-.177.282.282 0 0 1-.095.177c-.207.277-.637.51-1.056.428zm.792.628a.48.48 0 0 1-.034-.039l.064.006zm.342-.723c-.022.078-.064.153-.234.15l.234-.15c.029-.117.011-.245.26-.17zm.944-.21-.11.085a.51.51 0 0 1 .11-.086l.23-.181-.154-.036.269-.215c.23.173-.13.297-.345.432zm5.166 41.176a.242.242 0 0 0-.1.195c-.833-.66-1.842-1.41-2.483-1.928.266-.177-.245-.223-.267-.54.4.451.886 1.098 1.59.93-.37.485.402.452.434.57l.101-.21c.445.111.512.819.725.983.113-.084.292-.09.393-.176-.184.215-.302.243-.393.176zm3.395 2.416c-.278-.341-.763-.528-.838-.922-.332.403-.428-.31-.795-.287l-.068-.134c.12.212.809-.015.57.38.227.266 1.26-.667.862.422l.079.294c.098-.107.183-.014.291.04zm.68.345c0-.006 0-.01.003-.013l.006.001a.023.023 0 0 0-.008.012zm-40.629 6.265-.323.2.28-.096zm27.617-47.734.092-.076a.168.168 0 0 0-.092.076zm-2.306 1.22c-.023.018-.049.037-.07.057h.002c.048-.014.064-.035.068-.057zm-24.587 44.969.516.128c-.21.042-.254.146-.395.344.252-.055.495-.227.702-.178-.164.146.276.206-.082.329.29.233.24-.382.637-.52l-.476.164.152-.174c-.225.017-.48-.348-1.054-.093zm49.473-14.283c-.094.145-.055.328-.055.492.113-.198.199-.347.235-.403zm-.055.492c-.059.1-.123.211-.19.331.157-.078.187-.199.19-.331zm-48.088 13.789c.108-.065.424-.082.364-.211l-.4.134zm.798-1.84-.324.2.28-.093zm18.778-41.342c-.024-.023-.028-.027 0 0zm-19.264 41.839zm.303.774.64-.311-1.117.172zm-1.239-.417-.114.064a.372.372 0 0 0 .114-.064zm-3.663-20.429.281-.094.495-.322zm30.33-26.88c.042-.016.06-.036.064-.058-.024.017-.048.036-.071.055zm-.463.853a.123.123 0 0 0-.065.08c.036-.02.061-.047.065-.08zm-6.004 4.26.075.082.013.007a2.072 2.072 0 0 1-.088-.09zm24.633 23.033a23.147 23.147 0 0 1-.219-.203c.029.112.074.2.22.202zM240.1 178.352c.197-.039.345-.197.49-.321l-.252-.062zm-1.065 1.812.016-.036-.117.01zm19.47 25.636-.09.059c.044.038.087.08.13.118-.014-.058-.025-.118-.04-.178zm-9.789-29.579c.019-.032.038-.068.06-.11-.05.042-.063.074-.06.11zm-5.052.372.152-.172-.104-.026-.137.199zm-.694.161.092-.075a.18.18 0 0 0-.092.075zm.64-.383.102.024a.116.116 0 0 0-.101-.024zm10.602 46.25c.077.09.151.182.213.281-.05-.16-.124-.239-.213-.28z"/>
</svg>
