<?xml version="1.0" encoding="UTF-8"?>
<svg xmlns="http://www.w3.org/2000/svg" width="300" height="81.9">
 <title>Nok Air logo</title>
 <g>
   <path d="m1.05934,40.64647c0,-21.86011 17.72685,-39.59057 39.59041,-39.59057c21.86011,0 39.59041,17.73046 39.59041,39.59057c0,21.86668 -17.7303,39.59025 -39.59041,39.59025c-21.86356,0 -39.59041,-17.72358 -39.59041,-39.59025" id="path478" fill-rule="nonzero" fill="#ffffff"/>
   <path d="m40.64975,2.11868c-21.25137,0 -38.5309,17.28315 -38.5309,38.52778c0,21.24464 17.27953,38.52746 38.5309,38.52746c21.2379,0 38.52418,-17.28283 38.52418,-38.52746c0,-21.24463 -17.28627,-38.52778 -38.52418,-38.52778zm0,79.17721c-22.41827,0 -40.64975,-18.23132 -40.64975,-40.64943c0,-22.40858 18.23148,-40.64647 40.64975,-40.64647c22.41499,0 40.64301,18.23788 40.64301,40.64647c0,22.41811 -18.22803,40.64943 -40.64301,40.64943" id="path482" fill-rule="nonzero" fill="#231f20"/>
   <path d="m31.00089,35.58475c-1.91358,0.02036 -4.97731,0.32646 -6.52092,0.37014c-1.55034,0.04697 -2.72414,-1.38235 -2.22641,-2.84516c0.50775,-1.46314 2.21294,-6.33963 7.9302,-11.76097c6.28905,-5.96588 12.17775,-7.7315 13.13955,-7.98374c0.97543,-0.25584 2.35416,0.06733 3.33961,0.84734c7.71492,6.16786 6.5513,12.1206 11.75736,17.04438c3.61533,3.41663 1.68483,8.28326 -1.26461,10.48602c-4.35511,3.26227 -18.45317,8.88198 -22.42517,9.67218c-2.99312,0.59183 -5.05811,0.07751 -5.5693,-1.56397c-0.34978,-1.16 0.89463,-5.31691 1.21403,-7.95024c0.31283,-2.51213 0.56161,-5.89559 0.62565,-6.31598" id="path486" fill-rule="nonzero" fill="#231f20"/>
   <path d="m45.1832,42.02192c1.24096,-0.82731 2.27337,-1.14358 2.2599,-1.72194c-0.01347,-0.58197 -1.23767,-2.89902 -4.16019,-2.09175c-2.92234,0.80366 -5.06483,2.15908 -6.49398,4.07939c0,0 0.86425,-1.79584 2.01785,-2.91249c1.15343,-1.10975 1.52686,-1.34195 1.52686,-1.34195c0,0 -2.05152,-0.9416 -3.71287,0.2322c-1.65461,1.1669 -2.6064,2.40441 -3.03007,4.93691c-0.42039,2.5256 0.2051,3.55128 0.80366,3.69284c0.59527,0.13761 2.07845,-0.47425 2.84861,-0.85785c0.77345,-0.37309 6.70599,-3.18147 7.94022,-4.01535" id="path490" fill-rule="evenodd" fill="#ea2227"/>
   <path d="m32.25203,35.50067c0,0 -0.05714,2.88227 -0.65915,6.3058c-0.59856,3.43371 -1.94724,7.56696 -0.87099,8.25994c1.85627,1.19712 6.63193,-0.48081 12.8571,-3.13122c6.23847,-2.65336 11.65309,-4.63411 13.5532,-6.99188c1.46298,-1.81259 2.16581,-3.72272 1.48318,-5.95603c-0.49773,-1.6244 -3.19838,-3.61861 -3.83734,-4.69486c-0.63895,-1.07264 -4.80571,-9.662 -6.93129,-11.72025c-2.12213,-2.04807 -2.7509,-3.25537 -5.21952,-2.4146c-2.45499,0.84406 -8.48508,3.7664 -12.53426,8.2698c-4.04573,4.49288 -5.45156,7.17351 -6.56805,10.27418c-0.18835,0.5245 0.68263,1.34195 2.42822,1.07954c1.75216,-0.2657 10.16318,-0.65915 14.82454,0.14122c4.65447,0.81384 12.02979,1.3991 13.86586,0.93832c1.8162,-0.46407 2.6335,-0.83387 1.50666,0.27916c-1.71849,1.6983 -4.21044,4.07611 -13.47586,8.6534c-1.96728,0.9751 -8.83814,4.47942 -10.16662,3.29215c-0.99547,-0.88774 -0.13778,-3.07375 0.48426,-6.91437c0.47425,-2.92596 0.72993,-5.68705 0.72993,-5.68705l-1.46971,0.01675" id="path494" fill-rule="evenodd" fill="#ffcc08"/>
   <path d="m41.8807,24.0159c0.20855,-0.40364 1.11304,-1.71176 1.9236,-1.90685c0.82386,-0.18852 1.5638,0.26898 0.84077,0.85752c-0.72976,0.58526 -1.33177,0.66934 -1.76563,0.94489c-0.43385,0.27916 -1.21074,0.51136 -0.99874,0.10444" id="path498" fill-rule="evenodd" fill="#231f20"/>
   <path d="m47.40615,59.37864c0,0.81384 -0.87444,2.52922 -4.04918,4.59732c-1.04916,0.66933 -3.53125,0.73666 -6.00315,0.73666l-0.42696,-0.06043c-0.76343,-0.4171 -1.14358,-0.97542 -1.14358,-1.67826c0,-0.34977 0.13121,-0.88117 0.38015,-1.57743c0.24878,-0.71268 0.37671,-1.2408 0.37671,-1.59747l-0.12792,-0.28573l-0.12447,-0.30609c0,-0.18819 0.61219,-0.54815 1.82277,-1.06279c1.23767,-0.51793 2.06498,-0.78363 2.4921,-0.78363c1.2142,0 2.60328,0.20527 4.18038,0.61219c1.74543,0.44075 2.62315,0.91138 2.62315,1.40567" id="path502" fill-rule="evenodd" fill="#ffcc08"/>
   <path d="m42.36824,60.77445c-0.48755,-0.36324 -1.00564,-0.46078 -2.08173,-0.63551c-0.3061,-0.06733 -0.77689,0 -0.82402,0c0.08408,0 -0.0404,0.0335 -0.39017,0.10411c-0.13778,0.46407 -0.20494,0.7232 -0.20494,0.77016c0,0.60201 0.40003,0.9012 1.18365,0.9012c0.3969,0 0.8475,-0.09754 1.35197,-0.28902c0.5112,-0.19837 0.84406,-0.66933 0.96525,-0.85096" id="path506" fill-rule="nonzero" fill="#ffffff"/>
   <path d="m33.76214,61.75973c0,0.43057 -0.15469,1.35542 -0.45733,2.77456c-0.65242,0.12447 -1.28481,0.09426 -1.9103,0.21545c-0.74996,0.13794 -1.4193,0.20493 -1.98419,0.20493c-1.1536,0 -1.85315,-0.28244 -2.11212,-0.83715c-0.08408,-0.52155 -0.1514,-2.09209 -0.23203,-2.62348c-0.23548,-0.558 -1.68483,-0.47064 -2.71067,-0.05714c-0.51448,0.21873 -0.48098,0.78363 -1.1536,1.517c-0.64897,0.73962 -1.36199,1.59386 -2.23298,1.59386c-1.80602,0 -2.67028,0.1514 -3.06718,-0.15469c0.03021,-0.4171 -0.02348,-1.87302 0.3969,-2.78802c0.39345,-0.86081 0.59182,-1.53343 0.59182,-2.01424l-0.12776,-0.58854l-0.08408,-0.59216c0,-0.85062 0.99891,-1.27791 3.00658,-1.27791c1.11994,0 1.87992,0.12448 2.27682,0.36324c0.22546,0.16487 0.36997,0.4575 0.41365,0.87788c0.06043,0.48739 -0.13104,1.03915 0.09426,1.25426l0.71958,-0.29919c0.35996,-0.29953 0.85752,-0.77345 1.83952,-0.89792c1.01254,-0.12447 2.24332,-0.49461 2.78473,-0.49461c1.12338,0 2.0952,0.65915 3.13434,0.85785c0.50791,0.70612 0.814,2.08847 0.814,2.96603" id="path510" fill-rule="evenodd" fill="#ffcc08"/>
   <path d="m64.25529,55.21516c-0.36669,0.40035 -1.4799,1.31174 -3.33288,2.71741c-1.69501,1.30845 -2.59966,2.07172 -2.71067,2.31048c0.53813,0.46407 1.39582,0.95507 2.57947,1.45953c1.04259,0.40364 2.09864,0.81746 3.16472,1.23784c-0.0202,0.28573 -0.67262,0.58854 -1.94051,0.89103c-1.12667,0.27916 -2.05825,0.42367 -2.78802,0.43713c-0.47754,-0.19147 -1.40911,-0.42367 -2.79147,-0.70284c-1.01221,-0.21183 -2.02787,-0.42696 -3.04353,-0.62532c-0.41694,0.02332 -0.76671,0.21512 -1.04916,0.56818c-0.42384,0.56851 -0.67936,0.88445 -0.76688,0.95178c-0.3969,0.32974 -0.96853,0.48443 -1.73196,0.4575l-0.50791,0c-0.30938,-0.3465 -0.46407,-0.60201 -0.46407,-0.78362c0,-0.17506 0.05386,-0.44075 0.17144,-0.7971c0.13794,-0.36652 0.20855,-0.63912 0.20855,-0.81713c0,-0.1918 -0.07061,-0.47425 -0.20855,-0.85424c-0.14451,-0.40036 -0.21183,-0.6897 -0.21183,-0.87789c0,-0.36324 0.10772,-0.7232 0.33302,-1.06279c0.70284,-0.16488 1.38547,-0.81385 2.03477,-1.94725c0.5043,-0.99874 1.01221,-2.00111 1.52341,-2.99986c0.53139,-1.06936 1.02568,-1.62768 1.473,-1.67465c0.28589,-0.01708 0.6961,-0.05058 1.2275,-0.09755l0.67606,-0.424c0.28245,-0.2657 0.63896,-0.39674 1.0559,-0.39674l2.03148,0l0.12776,0.17834c-0.14812,0.24533 -0.94521,1.30156 -2.41805,3.15783c-1.03586,1.32849 -1.56068,2.3811 -1.56068,3.17129l0.21529,0.42039c0.14467,-0.07389 1.26789,-0.79676 3.38,-2.16893c1.40911,-0.91138 2.66354,-1.57415 3.75983,-1.99454c0.67607,0.06076 1.19728,0.15141 1.56397,0.2657" id="path514" fill-rule="evenodd" fill="#ffcc08"/>
   <path d="m103.72778,19.08227l10.70148,0l8.98953,26.35661l0.1143,-0.11462c-0.44059,-5.05121 -1.27135,-10.04198 -1.27135,-15.09681l0,-11.14518l10.8092,0l0,43.77408l-10.8092,0l-8.38408,-25.25375l-0.11102,0.1179c0.27917,4.11979 0.77345,8.18243 0.77345,12.30879l0,12.82705l-10.81232,0l0,-43.77408" id="path518" fill-rule="nonzero" fill="#000000"/>
   <path d="m154.29883,52.57855c4.25429,0 4.42244,-8.87837 4.42244,-11.60924c0,-2.73087 -0.16815,-11.61285 -4.42244,-11.61285c-4.24098,0 -4.4024,8.88198 -4.4024,11.61285c0,2.73087 0.16142,11.60924 4.4024,11.60924zm0,-34.25298c11.42778,0 15.89046,11.9623 15.89046,22.64374c0,10.68439 -4.46268,22.64702 -15.89046,22.64702c-11.41104,0 -15.8773,-11.96263 -15.8773,-22.64702c0,-10.68143 4.46626,-22.64374 15.8773,-22.64374" id="path522" fill-rule="nonzero" fill="#000000"/>
   <path d="m204.93687,19.08227l-8.9861,21.13363l10.03197,22.64045l-12.07692,0l-7.00191,-20.08791l0.05386,0l-0.11118,0l0,20.08791l-11.24927,0l0,-43.77408l11.24927,0l0,18.63824l0.05731,0l6.17805,-18.63824l11.8549,0" id="path526" fill-rule="nonzero" fill="#000000"/>
   <path d="m235.97488,47.93427l-1.2175,-10.15989c-0.33286,-2.7243 -0.55157,-5.51232 -0.83075,-8.2363l-0.10426,0c-0.32614,2.72397 -0.61533,5.51199 -1.04918,8.2363l-1.54361,10.15989l4.7453,0zm2.14888,14.92208l-0.82385,-5.63318l-7.55695,0l-0.94159,5.63318l-11.58577,0l9.98846,-43.77408l13.7312,0l8.825,43.77408l-11.63651,0" id="path530" fill-rule="nonzero" fill="#000000"/>
   <path d="m253.45952,62.85635l11.24617,0l0,-43.77408l-11.24617,0l0,43.77408z" id="path532" fill-rule="nonzero" fill="#000000"/>
   <path d="m282.34186,39.34819c2.97626,0 4.57715,-2.73087 4.57715,-5.57603c0,-3.83045 -2.20294,-5.45485 -5.29013,-5.28998l0,10.79869l0.71298,0.06733zm5.45816,23.50816l-6.22845,-18.23132l-0.11102,0.11429c0.05731,2.15218 0.16833,4.3047 0.16833,6.44374l0,11.67328l-11.2496,0l0,-43.77408l10.85944,0c9.76315,0 16.81876,3.01661 16.81876,14.5756c0,4.81244 -1.98093,9.11057 -6.45032,10.96716l8.38406,18.23132l-12.19119,0" id="path536" fill-rule="nonzero" fill="#000000"/>
 </g>
</svg>
