<?xml version="1.0" encoding="UTF-8"?>
<svg xmlns="http://www.w3.org/2000/svg" viewBox="0 0 637 284">
<title>Pacific Blue</title>
<desc>Pacific Blue logo</desc>
<metadata xmlns:rdf="http://www.w3.org/1999/02/22-rdf-syntax-ns#" xmlns:Airline="http://schema.org/Airline">
<rdf:RDF>
<Airline:name>Pacific Blue</Airline:name>
<Airline:iataCode>DJ</Airline:iataCode>
<Airline:url>https://airlinelogos.aero/DJ</Airline:url>
</rdf:RDF>
</metadata>
<path d="M 397.94 0.11 C 396.50 6.97 395.13 13.85 393.70 20.71 C 388.80 20.23 381.08 19.34 377.19 23.12 C 374.47 26.51 374.06 32.02 373.11 36.14 C 379.33 36.06 385.55 35.96 391.77 36.00 C 390.30 42.64 389.02 49.32 387.59 55.97 C 381.42 56.07 375.24 56.16 369.07 56.14 C 366.01 71.01 362.96 85.89 359.93 100.77 C 358.97 105.46 358.51 110.59 355.52 114.53 C 353.47 117.37 350.57 119.33 347.03 119.64 C 340.99 120.15 334.88 119.90 328.82 120.01 C 333.00 98.82 337.29 77.65 341.63 56.50 C 337.98 56.50 334.33 56.51 330.68 56.48 C 332.05 49.78 333.36 43.07 334.78 36.38 C 338.45 36.37 342.11 36.38 345.78 36.37 C 347.21 29.12 348.51 20.78 352.28 14.34 C 355.57 8.65 361.06 5.09 367.25 3.23 C 376.94 0.25 387.88 0.16 397.94 0.11 Z" fill="#df173b" />
<path d="M 494.29 12.34 C 520.44 21.33 546.03 33.06 569.80 47.20 C 583.32 55.45 596.10 64.45 607.52 75.50 C 616.15 84.17 623.71 93.30 628.42 104.73 C 633.37 116.50 633.69 130.05 628.95 141.94 C 622.73 157.74 611.05 169.57 598.17 180.17 C 579.57 194.95 558.16 206.62 536.71 216.70 C 497.90 234.65 456.68 248.65 415.74 260.84 C 394.86 266.76 373.99 273.04 352.86 278.00 C 371.32 272.93 389.37 266.74 407.45 260.45 C 429.45 252.41 451.59 243.69 472.77 233.66 C 499.89 220.84 527.28 205.60 550.46 186.44 C 560.79 177.63 570.43 168.34 577.97 156.95 C 584.84 146.74 589.72 135.43 590.67 123.05 C 592.06 108.08 586.83 92.77 578.57 80.42 C 571.31 69.16 561.66 59.16 551.49 50.51 C 533.83 35.39 514.52 23.60 494.29 12.34 Z" fill="#0060a9" />
<path d="M 480.00 40.61 C 487.67 40.74 497.66 40.95 504.12 45.63 C 508.87 49.23 509.47 54.24 510.01 59.77 C 497.34 59.74 484.66 60.01 471.99 60.12 C 467.82 60.27 463.80 60.44 461.13 64.12 C 457.84 68.92 456.68 75.46 455.39 81.06 C 454.48 85.97 452.87 91.93 454.20 96.84 C 455.17 100.28 459.06 100.22 461.97 100.39 C 475.27 100.37 488.57 99.91 501.87 99.87 C 500.18 103.74 498.53 107.46 495.65 110.63 C 491.63 115.26 485.63 117.58 479.74 118.66 C 472.00 119.96 463.83 119.99 456.00 119.85 C 449.83 119.65 442.71 118.87 437.30 115.69 C 432.44 112.80 430.16 107.53 429.91 102.04 C 429.39 91.83 431.79 81.09 434.44 71.26 C 437.02 62.29 440.50 53.99 448.15 48.18 C 456.60 41.47 469.65 40.61 480.00 40.61 Z" fill="#df173b" />
<path d="M 253.01 41.37 C 260.40 41.57 270.28 41.89 276.30 46.75 C 280.68 50.36 281.30 55.15 281.85 60.49 C 269.56 60.51 257.28 60.75 245.00 60.84 C 241.79 60.97 237.60 60.82 234.94 62.89 C 231.44 65.45 230.17 69.89 229.01 73.86 C 227.51 79.81 226.05 85.88 225.49 92.01 C 225.38 94.79 225.17 98.43 227.89 100.12 C 230.27 101.25 233.42 101.10 236.00 101.17 C 248.52 101.01 261.05 100.68 273.57 100.62 C 271.69 104.74 270.06 108.61 266.89 111.95 C 262.46 116.56 256.45 118.67 250.26 119.62 C 241.91 120.79 233.37 120.81 224.97 120.48 C 219.40 120.07 212.83 119.12 208.15 115.85 C 203.88 112.89 202.00 108.10 201.69 103.05 C 201.05 93.38 203.36 83.25 205.67 73.89 C 208.17 64.71 211.59 55.35 219.40 49.36 C 228.28 41.98 241.99 41.30 253.01 41.37 Z" fill="#df173b" />
<path d="M 408.95 42.21 C 415.01 41.89 421.10 42.04 427.17 42.00 C 422.49 64.47 417.87 87.07 413.27 109.56 C 412.28 114.11 409.80 118.73 404.84 119.68 C 398.51 120.47 391.93 119.77 385.56 119.70 C 389.78 99.07 394.24 78.49 398.54 57.88 C 399.25 54.63 399.76 51.13 401.06 48.07 C 402.41 44.94 405.40 42.27 408.95 42.21 Z" fill="#df173b" />
<path d="M 304.94 42.71 C 311.00 42.45 317.08 42.75 323.15 42.48 C 318.87 63.33 314.53 84.17 310.31 105.03 C 309.36 109.53 308.91 114.10 305.57 117.58 C 303.56 119.69 300.88 120.32 298.06 120.47 C 292.54 120.68 286.99 120.33 281.47 120.19 C 285.76 100.23 289.86 80.22 294.11 60.25 C 294.97 56.46 295.44 52.39 296.88 48.77 C 298.28 45.78 301.43 42.69 304.94 42.71 Z" fill="#df173b" />
<path d="M 42.99 44.15 C 48.21 43.77 53.48 43.95 58.71 43.90 C 58.11 47.30 57.42 50.72 56.33 54.00 C 59.62 48.56 64.00 45.46 70.26 44.26 C 77.53 43.11 85.32 42.93 92.50 44.68 C 98.17 46.15 102.95 49.84 104.45 55.70 C 106.70 63.86 104.48 73.70 102.89 81.89 C 100.58 92.06 98.34 103.30 91.56 111.53 C 85.64 118.54 76.95 121.40 67.99 121.69 C 62.09 121.80 54.30 122.20 49.18 118.78 C 46.41 117.07 45.50 114.45 44.15 111.67 C 41.27 125.79 38.12 139.85 35.24 153.97 C 23.81 154.17 12.36 154.11 0.92 154.38 C 4.07 152.20 6.99 150.17 8.58 146.55 C 11.19 140.73 12.22 134.08 13.67 127.89 C 18.01 108.70 21.71 89.39 25.44 70.07 C 26.45 65.34 27.14 60.34 28.79 55.78 C 31.15 49.72 36.35 44.86 42.99 44.15 Z" fill="#df173b" />
<path d="M 143.09 44.13 C 150.18 43.20 158.10 42.77 165.01 44.89 C 169.28 46.23 171.35 49.35 172.99 53.28 C 173.32 50.22 173.76 47.17 174.22 44.13 C 183.72 44.06 193.22 44.26 202.71 44.01 C 200.24 46.95 198.37 49.89 197.64 53.72 C 193.93 70.79 190.39 87.94 186.70 105.00 C 186.15 107.73 185.61 110.94 186.34 113.67 C 187.12 116.39 189.46 118.75 191.26 120.87 C 180.26 120.86 169.26 120.90 158.26 120.86 C 159.06 117.61 159.85 114.36 160.81 111.16 C 158.95 113.93 157.15 116.50 154.17 118.17 C 148.11 121.74 140.82 121.79 134.00 121.69 C 128.66 121.51 122.16 120.60 117.85 117.17 C 114.03 114.20 112.31 109.73 111.96 105.01 C 111.39 97.60 112.98 89.79 114.41 82.54 C 116.27 74.26 118.39 65.08 122.75 57.74 C 127.09 50.24 134.55 45.40 143.09 44.13 Z" fill="#df173b" />
<path d="M 64.52 59.59 C 68.74 58.45 75.86 58.10 78.09 62.85 C 80.14 67.67 78.61 74.25 77.74 79.27 C 76.26 85.94 75.23 93.74 71.58 99.62 C 68.67 104.07 63.95 104.85 58.99 104.91 C 55.62 104.88 51.51 104.66 49.76 101.24 C 48.38 98.08 48.91 93.87 49.30 90.51 C 50.31 83.92 51.59 77.22 53.89 70.94 C 55.84 65.92 59.09 61.16 64.52 59.59 Z" fill="#ffffff" />
<path d="M 153.51 60.64 C 157.07 60.10 161.35 59.79 164.71 61.30 C 167.77 62.69 168.21 65.97 168.31 68.97 C 168.28 74.62 166.84 80.39 165.68 85.90 C 164.41 91.37 162.81 97.66 158.81 101.81 C 154.90 106.17 147.88 107.30 142.52 105.47 C 139.76 104.43 138.49 101.83 138.24 99.04 C 137.62 92.79 139.34 86.00 140.58 79.87 C 141.72 75.11 142.84 69.64 145.54 65.50 C 147.38 62.70 150.29 61.23 153.51 60.64 Z" fill="#ffffff" />
<path d="M 191.56 140.85 C 197.40 139.69 203.68 140.46 209.63 140.25 C 202.51 171.03 195.59 202.01 188.56 232.82 C 187.43 237.66 184.06 241.78 178.98 242.60 C 173.24 243.22 167.36 242.74 161.58 242.87 C 168.07 213.18 174.92 183.56 181.52 153.89 C 182.75 148.34 185.60 142.42 191.56 140.85 Z" fill="#0060a9" />
<path d="M 94.06 141.05 C 99.93 140.05 106.12 140.64 112.07 140.50 C 109.40 152.12 106.37 163.67 103.54 175.25 C 109.29 168.38 117.42 166.51 126.01 166.10 C 133.53 165.82 142.70 165.77 149.30 169.92 C 154.27 172.99 156.55 178.29 157.07 183.94 C 157.75 192.62 155.09 202.04 153.35 210.53 C 151.67 218.55 149.96 226.26 144.77 232.84 C 139.31 239.91 130.71 243.08 122.04 243.75 C 114.50 244.21 106.43 244.09 99.16 241.89 C 94.78 240.46 92.36 237.92 90.46 233.82 C 90.10 236.89 89.59 239.95 89.07 243.00 C 79.28 242.98 69.49 242.99 59.70 243.21 C 61.64 241.19 63.64 239.43 64.83 236.84 C 66.16 233.90 66.84 230.61 67.60 227.48 C 72.92 203.80 78.50 180.18 83.68 156.47 C 84.31 153.64 84.85 150.67 85.90 147.97 C 87.31 144.49 90.28 141.68 94.06 141.05 Z" fill="#0060a9" />
<path d="M 360.99 165.48 C 368.34 165.79 376.35 166.43 382.87 170.16 C 387.51 172.91 390.02 177.75 390.80 182.97 C 392.11 191.38 389.98 200.39 388.32 208.63 C 369.76 208.61 351.20 208.64 332.64 208.62 C 331.85 213.14 330.31 219.25 332.45 223.55 C 334.32 227.00 338.51 227.19 341.98 227.27 C 356.12 227.25 370.29 227.24 384.43 227.26 C 383.17 230.98 382.23 234.48 379.47 237.43 C 376.18 240.99 371.92 242.79 367.07 242.68 C 356.05 242.54 345.02 242.70 334.00 242.59 C 327.39 242.33 319.74 241.63 314.03 238.00 C 310.10 235.55 307.66 231.59 306.95 227.05 C 305.46 218.73 307.59 209.30 309.29 201.11 C 311.19 192.90 312.99 183.03 318.21 176.23 C 322.48 170.53 329.19 167.99 335.98 166.79 C 344.15 165.30 352.70 165.22 360.99 165.48 Z" fill="#0060a9" />
<path d="M 226.00 166.97 C 231.86 166.43 237.82 166.89 243.70 166.76 C 240.48 181.52 237.36 196.30 234.25 211.09 C 233.60 214.50 232.87 218.34 233.50 221.78 C 233.92 223.94 235.20 225.85 237.25 226.74 C 239.91 227.81 243.18 227.68 246.01 227.64 C 250.76 227.44 255.89 226.89 259.66 223.70 C 263.91 220.08 266.01 214.04 267.37 208.79 C 269.93 197.96 272.04 187.03 274.60 176.20 C 275.74 172.05 278.22 167.43 283.01 166.97 C 289.09 166.42 295.28 166.90 301.39 166.75 C 296.57 189.08 291.60 211.66 287.06 234.03 C 286.27 238.02 288.27 240.40 290.85 243.06 C 280.64 242.92 270.43 243.06 260.22 242.98 C 261.00 239.33 261.74 235.68 262.59 232.05 C 260.42 234.79 258.09 237.28 254.96 238.92 C 247.88 242.76 238.90 243.59 230.99 243.83 C 225.86 243.94 219.96 243.88 215.17 241.85 C 211.29 240.27 208.23 236.97 207.29 232.85 C 205.80 226.77 207.45 219.93 208.73 213.93 C 211.36 201.54 214.03 189.02 216.74 176.65 C 217.68 172.20 221.22 167.51 226.00 166.97 Z" fill="#0060a9" />
<path d="M 112.44 182.71 C 117.48 181.63 124.84 181.24 128.37 185.82 C 131.67 190.13 130.89 197.23 130.10 202.25 C 128.69 209.16 126.88 217.58 122.12 223.01 C 117.48 228.31 110.20 229.02 103.74 227.20 C 99.94 226.05 97.18 222.83 96.46 218.95 C 95.42 213.41 96.43 207.30 97.82 201.89 C 99.19 196.84 100.84 191.34 104.45 187.41 C 106.55 185.03 109.37 183.44 112.44 182.71 Z" fill="#ffffff" />
<path d="M 354.00 181.74 C 357.36 181.83 361.96 181.80 364.20 184.78 C 366.10 187.42 365.12 191.80 364.94 194.86 C 354.62 194.88 344.29 194.89 333.97 194.85 C 335.20 191.18 335.95 187.64 339.18 185.15 C 343.11 182.03 349.20 181.82 354.00 181.74 Z" fill="#ffffff" />
</svg>
