<?xml version="1.0" encoding="UTF-8"?>
<svg xmlns="http://www.w3.org/2000/svg" viewBox="0 0 1500 300.38">
<title>Sunclass Airlines</title>
<desc>Sunclass Airlines logo</desc>
<metadata xmlns:rdf="http://www.w3.org/1999/02/22-rdf-syntax-ns#" xmlns:Airline="http://schema.org/Airline">
<rdf:RDF>
<Airline:name>Sunclass Airlines</Airline:name>
<Airline:iataCode>DK</Airline:iataCode>
<Airline:url>https://airlinelogos.aero/DK</Airline:url>
</rdf:RDF>
</metadata>
<path fill="#fe8c00" d="M302.59,689l-6.34-17H269.19l-6.45,17h-14.5L276,615H289.7L317,689Zm-19.87-56.93-9.56,28h19.23Z" transform="translate(-210 -389.81)"/>
<path fill="#fe8c00" d="M327.12,689V615h13.64v74Z" transform="translate(-210 -389.81)"/>
<path fill="#fe8c00" d="M395.08,689,376,661.4H373.6V689H360V615h25.14c15.57,0,23.41,10.74,23.41,22.77,0,10.85-6.33,20.09-17.5,22.24l20.4,29Zm-13.54-40.17c9.13,0,13-4.52,13-10.53,0-6.77-4.94-10.74-13.1-10.74H373.6v21.27Z" transform="translate(-210 -389.81)"/>
<path fill="#fe8c00" d="M424,689V615h13.64v61.55H462V689Z" transform="translate(-210 -389.81)"/>
<path fill="#fe8c00" d="M473.43,689V615h13.64v74Z" transform="translate(-210 -389.81)"/>
<path fill="#fe8c00" d="M554.17,689,519.9,639.6V689H506.26V615h12.46l34.16,49.3V615h13.53v74Z" transform="translate(-210 -389.81)"/>
<path fill="#fe8c00" d="M585.78,689V615h41.46v12.57H599.42v17.94h25.46v12.35H599.42v18.69h28.25V689Z" transform="translate(-210 -389.81)"/>
<path fill="#fe8c00" d="M674.28,635.41a9.2,9.2,0,0,0-9.67-9.13c-4.41,0-9.78,2.25-9.78,8.38,0,3.22,1.51,5.9,6.56,7.84,2.68,1.07,10,3.54,12.89,4.62,8.48,3.33,14.71,9.45,14.71,19.76,0,11.17-7.3,23.31-24.38,23.31-15.68,0-25-10.31-25.24-22.56h13.85c.22,6.12,4.62,10.31,11.07,10.31s11-4.19,11-10c0-4.51-2.68-7-7.19-8.59-7.42-2.68-9.78-3.54-13.11-4.83-5.26-2-13.75-6.55-13.75-18.69,0-13,9.67-22.24,23-22.24s23.63,9.46,23.63,21.81Z" transform="translate(-210 -389.81)"/>
<path fill="#fe8c00" d="M210,522.14l13.32-2c2.55,24.65,21.53,46.47,54.4,46.47,28.9,0,49.87-16.43,50.15-43.35.29-26.07-21.25-36-39.38-41.09l-10.77-3.11c-23.52-6.8-37.4-14.74-37.4-33.44,0-18.13,13.6-32.3,36.27-32.3,25.5,0,36.27,17.57,38,33.15l-13.32,2c-2.27-11.9-8.79-22.1-24.65-22.1-13.32,0-22.67,7.09-22.67,18.7,0,13.32,10.2,17,27.48,21.82L292.74,470c26.92,7.37,48.73,21.82,48.73,52.7,0,35.71-28.9,57-63.75,57C236.92,579.66,213.12,551,210,522.14Zm24.08-3.4,13.32-2.27c2.27,15.87,10.49,26.63,30.32,26.63,16.44,0,25.5-7.65,25.5-20.4,0-12.46-11.05-16.71-24.65-20.12L264.4,498.9c-22.95-5.95-48.73-19-48.73-51.85,0-37.69,29.47-57.24,60.92-57.24,34.57,0,60.92,23.8,61.77,53l-13,2.26c-2.26-22.1-19-42.21-48.73-42.21-27.2,0-47,15.58-47.32,43.35-.29,25.22,19.27,34.57,41.65,40.8l14.45,4c15,4.25,31.45,11.33,31.45,31.73,0,19.84-15,33.44-39.1,33.44C248.54,556.14,235.79,536.87,234.08,518.74Z" transform="translate(-210 -389.81)"/>
<path fill="#fe8c00" d="M365.56,505.13V392.64h13.6V506.27c0,38,22.39,60.35,58.65,60.35s58.66-22.38,58.66-60.35V392.64h13.6V505.13c0,49-29.19,74.53-72.26,74.53S365.56,554.15,365.56,505.13Zm24.65-1.41V392.64h13.6v110.8c0,24.08,12.47,39.66,34,39.66s34-15.58,34-39.66V392.64h13.6V503.72c0,33.43-18.42,52.42-47.61,52.42S390.21,537.15,390.21,503.72Z" transform="translate(-210 -389.81)"/>
<path fill="#fe8c00" d="M542.66,392.64h10.2L680.37,576.82H664.5L580.91,455.27V576.82h-13.6V434l-11-15.58V576.82h-13.6Zm23.8,0h15.87L666.2,514.77V392.64h13.6v143.1l11.05,15.58V392.64h13.6V576.82H694Z" transform="translate(-210 -389.81)"/>
<path fill="#fe8c00" d="M907.33,526.1c-13.31,33.44-45.9,53.56-83.87,53.56-54.12,0-94.35-40.52-94.35-94.93s40.23-94.92,94.35-94.92c33.72,0,66.59,17.85,81,51l-12.75,5.1c-11.9-28.33-38.25-43.35-68.29-43.06-47.88.56-80.47,33.71-80.47,81.88s32.59,81.61,80.47,81.89c34.29,0,60.36-17.85,71.12-45.62Zm-139.4-41.37c0,34.29,23,58.37,55.53,58.37,22.67,0,40.24-11.61,48.46-31.45l12.46,5.1c-10.2,24.37-30.6,39.39-60.92,39.39-40.52,0-69.42-29.47-69.42-71.41s28.9-71.4,69.42-71.4c26.35,0,48.17,13,58.37,37.4l-12.75,5.38c-6.8-18.7-23.8-29.75-45.62-29.75C790.88,426.36,767.93,450.45,767.93,484.73Z" transform="translate(-210 -389.81)"/>
<path fill="#fe8c00" d="M928,392.64h13.6V576.82H928V392.64Zm38.25,160.67v10.48h82.18v13H952.67V392.64h13.6V540.27h82.18v13Z" transform="translate(-210 -389.81)"/>
<path fill="#fe8c00" d="M1147.06,392.64l-74,184.18h-14.73l51.35-127.41,22.88-56.77Zm17,20.41-6.24,14.45,59.79,149.32h-14.74l-12.75-31.73h-77.63l-12.76,31.73H1085l74-184.18h10.2l75.08,184.18h-14.73Zm21,119-4.25-10.48h-58.93l-4.25,10.48Zm-33.72-84.44-24.36,60.93h48.73Z" transform="translate(-210 -389.81)"/>
<path fill="#fe8c00" d="M1244.53,522.14l13.32-2c2.55,24.65,21.53,46.47,54.4,46.47,28.9,0,49.87-16.43,50.15-43.35.29-26.07-21.25-36-39.38-41.09l-10.77-3.11c-23.52-6.8-37.4-14.74-37.4-33.44,0-18.13,13.6-32.3,36.27-32.3,25.5,0,36.27,17.57,38,33.15l-13.32,2c-2.27-11.9-8.79-22.1-24.65-22.1-13.32,0-22.67,7.09-22.67,18.7,0,13.32,10.2,17,27.48,21.82l11.34,3.12c26.92,7.37,48.73,21.82,48.73,52.7,0,35.71-28.9,57-63.75,57C1271.45,579.66,1247.65,551,1244.53,522.14Zm24.08-3.4,13.32-2.27c2.27,15.87,10.48,26.63,30.32,26.63,16.43,0,25.5-7.65,25.5-20.4,0-12.46-11-16.71-24.65-20.12l-14.17-3.68c-23-5.95-48.73-19-48.73-51.85,0-37.69,29.46-57.24,60.92-57.24,34.57,0,60.92,23.8,61.77,53l-13,2.26c-2.26-22.1-19-42.21-48.73-42.21-27.21,0-47,15.58-47.32,43.35-.29,25.22,19.26,34.57,41.65,40.8l14.45,4c15,4.25,31.45,11.33,31.45,31.73,0,19.84-15,33.44-39.1,33.44C1283.06,556.14,1270.31,536.87,1268.61,518.74Z" transform="translate(-210 -389.81)"/>
<path fill="#fe8c00" d="M1391.87,522.14l13.32-2c2.55,24.65,21.53,46.47,54.4,46.47,28.9,0,49.87-16.43,50.16-43.35.28-26.07-21.26-36-39.39-41.09l-10.77-3.11c-23.52-6.8-37.4-14.74-37.4-33.44,0-18.13,13.6-32.3,36.27-32.3,25.5,0,36.27,17.57,38,33.15l-13.32,2c-2.27-11.9-8.78-22.1-24.65-22.1-13.32,0-22.67,7.09-22.67,18.7,0,13.32,10.2,17,27.49,21.82l11.33,3.12c26.92,7.37,48.74,21.82,48.74,52.7,0,35.71-28.91,57-63.76,57C1418.79,579.66,1395,551,1391.87,522.14Zm24.09-3.4,13.31-2.27c2.27,15.87,10.49,26.63,30.32,26.63,16.44,0,25.5-7.65,25.5-20.4,0-12.46-11-16.71-24.65-20.12l-14.16-3.68c-23-5.95-48.74-19-48.74-51.85,0-37.69,29.47-57.24,60.92-57.24,34.57,0,60.92,23.8,61.77,53l-13,2.26c-2.27-22.1-19-42.21-48.74-42.21-27.2,0-47,15.58-47.32,43.35-.28,25.22,19.27,34.57,41.65,40.8l14.45,4c15,4.25,31.45,11.33,31.45,31.73,0,19.84-15,33.44-39.1,33.44C1430.41,556.14,1417.66,536.87,1416,518.74Z" transform="translate(-210 -389.81)"/>
<path fill="#fe8c00" d="M1685.49,402.15c-11.85,4.49-19.61,7.69-27.78,9.52-1.5.34-2.93.63-4.3.87a54.59,54.59,0,0,1-6.82.88c-5.74.39-10-.32-13.19-2.18l-.06,0c-.17-.1-.33-.21-.49-.32a8.86,8.86,0,0,1-3.69-7.33v-1.13c0-.07,0-.13,0-.2v0a12.3,12.3,0,0,0-.46-3.31,11.73,11.73,0,0,0-4.68-6.46l-.54-.34c-4.93-2.9-12.66-3-24.32-.43a232.2,232.2,0,0,0-30.17,9.52c-7.58,2.88-14.84,5.89-21,8.54v13.59c6.44-2.8,14.3-6.08,22.53-9.2a230,230,0,0,1,30.17-9.53c1.5-.33,2.93-.62,4.3-.87a54.26,54.26,0,0,1,6.82-.87c5.74-.4,10,.32,13.2,2.18l0,0,.47.3a8.57,8.57,0,0,1,3.61,7h0s0,.07,0,.11v1.17A13.3,13.3,0,0,0,1630,418a11.67,11.67,0,0,0,4.41,5.77c.19.13.39.25.58.36,4.93,2.91,12.66,3,24.32.44,8.16-1.83,15.92-5,27.78-9.53,5.1-1.93,11.23-4.38,16.57-6.58l6.39-16.41C1703,395.18,1695.68,398.29,1685.49,402.15Z" transform="translate(-210 -389.81)"/>
<path fill="#fe8c00" d="M1685.5,426.8c-11.86,4.49-19.62,7.7-27.78,9.52-1.5.34-2.94.63-4.31.87a52.76,52.76,0,0,1-6.82.88c-5.74.39-10-.32-13.19-2.18l-.06,0-.48-.31a8.88,8.88,0,0,1-3.7-7.33v-1.14c0-.07,0-.13,0-.2v0a11.92,11.92,0,0,0-.46-3.31,11.73,11.73,0,0,0-4.68-6.46,4.86,4.86,0,0,0-.54-.33c-4.93-2.91-12.65-3.05-24.32-.44a230.91,230.91,0,0,0-30.17,9.53c-7.58,2.87-14.84,5.88-21,8.53V448c6.44-2.81,14.3-6.09,22.53-9.21a231.72,231.72,0,0,1,30.17-9.52c1.5-.34,2.93-.63,4.3-.87a52.87,52.87,0,0,1,6.83-.88c5.73-.4,10,.32,13.19,2.18l.06,0,.46.29a8.57,8.57,0,0,1,3.61,7h0s0,.07,0,.11v1.18a13.39,13.39,0,0,0,.79,4.38,11.67,11.67,0,0,0,4.42,5.77l.57.36c4.93,2.9,12.66,3,24.32.43,8.17-1.83,15.92-5,27.78-9.53,1.65-.62,3.4-1.3,5.2-2l6.24-16C1694.62,423.27,1690.39,424.94,1685.5,426.8Z" transform="translate(-210 -389.81)"/>
</svg>
