<?xml version="1.0" encoding="UTF-8"?>
<svg xmlns="http://www.w3.org/2000/svg" viewBox="0 0 4805.08 526.74">
<title>ExpressJet</title>
<desc>ExpressJet logo</desc>
<metadata xmlns:rdf="http://www.w3.org/1999/02/22-rdf-syntax-ns#" xmlns:Airline="http://schema.org/Airline">
<rdf:RDF>
<Airline:name>ExpressJet</Airline:name>
<Airline:iataCode>EV</Airline:iataCode>
<Airline:url>https://airlinelogos.aero/EV</Airline:url>
</rdf:RDF>
</metadata>
<path fill="#c2262d" d="M334.4.77h690.36c-2,2.71-3.59,4.94-5.29,7.07q-140.78,176-281.5,352c-13.88,17.39-31.44,26-53.64,25.76s-44.67-.14-67,.05c-3.68,0-5.19-1.17-6.26-4.57a151.17,151.17,0,0,0-21.37-43.23c-5.56-7.72-7.31-8.06-15.79-3.95-1.5.72-2.95,1.53-4.41,2.33-11.73,6.46-11.73,6.46-17.71,17.49-2.73-4.84-5.31-9.41-7.88-14q-12.1-21.56-24.2-43.12c-3.1-5.54-2.86-6.35,2.59-9.26q22.73-12.11,45.44-24.19a28.63,28.63,0,0,1,7.45-2.76q85.38-18.81,170.75-37.66c3.53-.78,5.15-1.63,2.77-5.31-2.08-3.2-3.62-6.76-5.7-10-6.26-9.64-14.57-14.52-26.73-13.93-43.93,2.14-87.9,3.66-131.75,6.87a441.79,441.79,0,0,1-97.12-3.16c-6.75-1-13.54-1.9-20.34-2.28-4.59-.26-7.17-2.34-9.36-6.16-19.7-34.21-39.39-68.44-59.4-102.46-10.55-17.93-19.69-36.72-32.4-53.32C357.38,21.91,348,11.54,336.78,3,336.18,2.56,335.67,2,334.4.77Z"/>
<path fill="#c2262d" d="M293.5,19.38a166.29,166.29,0,0,0,21.56,66.94c14.55,25.45,29.25,50.82,43.88,76.23,12,20.92,24,41.89,36.18,62.74a10.64,10.64,0,0,1,.63,10.77q-12.48,27.8-24.58,55.77c-4.68,10.78-11.43,20.28-17.85,30q-19.79,30-39.49,60.12c-1.56,2.39-3.14,3.69-6.31,3.69q-152.23-.15-304.47-.09c-.65,0-1.31-.06-3-.14Z"/>
<path fill="#c2262d" d="M487.7,385.36h-109c-.65-1.82,1-2.36,1.71-3.33,1-1.34,2.28-2.41,3.32-3.71a126.78,126.78,0,0,1,38.36-32c9.31-5.11,18.13-11.12,27.1-16.86,2.93-1.87,5.07-1.94,7,1.32q15.69,26.64,31.49,53.22C487.82,384.21,487.7,384.6,487.7,385.36Z"/>
<path fill="#8e908f" d="M766.31,385.4c7.72-9.68,14.74-18.49,21.77-27.28q100.5-125.67,201-251.33c23.11-28.87,46.05-57.88,69.65-86.34,10.69-12.88,25.4-19.24,42.19-19.67C1116,.39,1131.14.7,1147.28.7l-22.07,27.43q-85.57,106.25-171.15,212.5-49.69,61.68-99.54,123.24A56.32,56.32,0,0,1,813,385.21C798,386.11,782.77,385.4,766.31,385.4Z"/>
<path fill="#233e95" d="M1195,300.67h258c-5.79,20-10.9,39.75-22.52,57-12.54,18.61-30,27.45-52.43,27.44q-145-.12-290,.05c-4.8,0-4.52-1.63-3.37-5.26q47-148.7,93.85-297.46c3.55-11.27,7.32-22.47,10.63-33.8C1197.05,21.5,1226.6,0,1255.35.18c95.32.77,190.66.29,286,.29,6.33,0,6.34,0,4.53,6.11-4.54,15.31-9,30.65-16.89,44.7-12.52,22.21-31,33.82-56.93,33.69-50.83-.26-101.66-.08-152.49-.08-17.34,0-34.67.13-52-.1-3.73,0-5.14,1.22-6.18,4.64-5.5,18.15-11.25,36.22-16.93,54.31-2.16,6.9-2.18,6.9,4.83,6.9h204c6.24,0,6.22,0,4.43,6-4.42,14.83-8.75,29.67-16.2,43.39-12.65,23.3-31.68,35.22-58.65,35-53.83-.36-107.66,0-161.49-.21-4.46,0-6.22,1.26-7.51,5.56C1207.88,260.32,1201.46,280.09,1195,300.67Z"/>
<path fill="#233e95" d="M3133.18.47c-6.38,22.47-11.83,44.67-26.7,62.88-10.79,13.2-24.8,20.79-41.85,21.2-23.81.58-47.65.32-71.48.33-45.83,0-91.66.11-137.49-.12-5.32,0-7.72,1.3-9.28,6.61-5.75,19.61-12.09,39-18.39,59.11h217c-6.69,22.56-12.08,45-27.19,63.28-10.73,13-24.57,20.7-41.48,20.84-50.16.41-100.32.28-150.48.36-6.83,0-13.67.16-20.49-.07-3-.09-4.41.88-5.3,3.76-5.94,19.24-11.91,38.47-18.19,57.59-1.42,4.34.07,4.49,3.64,4.48q102.48-.12,205-.06c14.83,0,29.66,0,44.49,0,2.44,0,3.79.19,2.86,3.25-5,16.22-9.33,32.67-17.86,47.54-9.81,17.1-23.33,29.44-43.52,32.67a92.59,92.59,0,0,1-14.42,1q-143.74.09-287.47,0c-5.86,0-5.86,0-4.13-5.51q52-164.89,104-329.76c8.19-25.86,26-41.92,52.37-48.46a38.85,38.85,0,0,1,9.43-.87h296.89Z"/>
<path fill="#233e95" d="M2610.59,385.08c-12.32-.29-24.6-.69-36.87-2.34-21.19-2.85-33.67-15-39.64-34.93-5.26-17.59-8.07-35.68-11-53.74-3-18.56-6.1-37.11-9-55.69-.44-2.75-1.69-3.47-4.32-3.46-32.83.07-65.66.12-98.49,0-3.76,0-4.28,2.11-5.09,4.69-10.3,32.69-20.89,65.29-30.85,98.07-7.33,24.11-34.74,48.9-65.32,47.52-9.81-.44-19.67-.24-29.49,0-4.44.12-5.28-.86-3.87-5.29q25.56-80.37,50.77-160.86,26.63-84.48,53.3-168.95c8.43-26.51,26.62-42.73,53.74-48.75,4-.89,8.28-.8,12.43-.8q98-.07,196-.08c15.62,0,30.61,2.27,43.81,11.17,21.93,14.8,30,36.14,27.79,61.75-1.64,18.94-9.56,36.28-14.88,54.26-4.38,14.82-8.47,29.81-16.68,43.17-16.14,26.25-38.45,45.25-67.24,56.33-4.1,1.58-5.12,3.33-4.43,7.49,8.18,48.74,16.16,97.51,24.35,146.25.57,3.39,0,4.4-3.45,4.3C2624.93,384.93,2617.76,385.08,2610.59,385.08Zm-79.8-300.19c-23.83,0-47.66,0-71.49-.06-3.08,0-4.62.66-5.62,3.94q-8.61,28.4-17.86,56.61c-1.42,4.34-.73,5.27,3.81,5.26,45-.15,90-.06,135-.14a87.62,87.62,0,0,0,12.92-1.16c11.69-1.78,20.45-7.7,25.17-18.8a141.28,141.28,0,0,0,9.86-32.39c1.1-6.64-.88-9.59-7.44-11.34a68.56,68.56,0,0,0-17.83-1.92Z"/>
<path fill="#233e95" d="M3553.56,385.08c-42.82,0-85.65-.05-128.47.08-4.21,0-5.58-.52-4-5.1,3.9-11.31,7-22.9,11-34.2,9.3-26.68,35.64-45.19,63.86-45.19q85.74,0,171.47,0a132.78,132.78,0,0,0,15.94-.94c13.28-1.61,22.58-8.31,27.45-20.84a200.39,200.39,0,0,0,8.74-28.1c2.1-9.16.17-12.16-8.88-14.34-6.53-1.57-13.21-1.59-19.87-1.6-45.16,0-90.32.4-135.47-.27-41.17-.61-69.4-35.43-62.53-76,3.84-22.74,12.87-44,19.18-66a117.55,117.55,0,0,1,23.52-44.16c21.91-25.82,49-42.68,83-47.33A107.5,107.5,0,0,1,3632.92.5q116-.06,231.95,0c5.79,0,5.81,0,4,5.68-3.55,11.26-7,22.55-10.75,33.74-8.14,24.35-35.7,45.57-63.94,45.19-52.65-.7-105.31-.19-158-.2a106.83,106.83,0,0,0-18.88,1.63c-11.67,2.07-19.53,8.77-23.92,19.6a181,181,0,0,0-9,28.53c-2.07,9.28.06,12.53,9.33,14.53a65.92,65.92,0,0,0,13.89,1.38c46,0,92-.19,138,.15,48.28.36,75.39,40,63.8,85.47a631.32,631.32,0,0,1-21.61,68.5c-16.33,43-65.28,81.06-115.27,80.49C3632.88,384.72,3593.22,385.08,3553.56,385.08Z"/>
<path fill="#233e95" d="M3179.23,385.08h-128.5c-5.6,0-5.61,0-3.89-5.46,3.36-10.63,6.67-21.27,10.12-31.86a68.34,68.34,0,0,1,65-47.1q86,0,172,0a90.56,90.56,0,0,0,19.83-1.94c9.59-2.14,16.62-7.52,20.79-16.36a130.53,130.53,0,0,0,10.78-34.16c1.14-6.76-.81-9.62-7.39-11.35-6.16-1.62-12.5-1.89-18.84-1.9-46.33-.08-92.67.31-139-.37-38.55-.56-66-32.36-62.6-70.66,1.26-14.31,6-27.59,10.36-41,5.27-16.28,8.74-33.3,16.58-48.58,21-41,54.13-66.15,100.11-73.35,4.41-.7,9-.5,13.47-.5q116.25,0,232.49,0c5.6,0,5.6,0,3.85,5.58-3.34,10.63-6.78,21.23-10,31.9-7.54,25-35.78,47.54-64.64,47.15-52.66-.72-105.33-.2-158-.21a107.79,107.79,0,0,0-18.88,1.64c-11.48,2-19.32,8.53-23.75,19.14a154.58,154.58,0,0,0-9.43,30.46c-1.55,8.07.32,10.85,8.42,12.87a70.69,70.69,0,0,0,17.35,1.65q66.26,0,132.49,0c19.15,0,36.62,4.61,50.74,18.32,13.74,13.35,19,30,18.83,48.81-.16,15.62-5.6,30-10.35,44.53-5.43,16.59-8.95,33.92-17,49.5-20.82,40.27-53.41,65.08-98.49,72.61-4.89.81-10,.65-15,.66Q3238,385.12,3179.23,385.08Z"/>
<path fill="#233e95" d="M1741.65,117.91c11.93-11,23.54-21.72,35.13-32.44q42.71-39.53,85.41-79.06c2.1-1.95,4.1-3.46,7.36-3.45,40,.12,80,.07,120,.1,1.08,0,2.33-.5,3.6,1-3.23,3-6.44,6-9.69,9q-100.64,93.15-201.34,186.21c-2.45,2.26-2.09,3.93-1,6.43q38.73,86,77.36,172.07c3.21,7.13,3.23,7.12-4.34,7.12-31.83,0-63.66-.07-95.49.09-3.76,0-5.44-1.21-6.94-4.61-15.37-34.67-31-69.22-46.37-103.9-1.7-3.84-2.61-3.78-5.54-1.1-24.56,22.48-48.29,45.87-74.11,67-19.82,16.18-41,29.53-66.92,33.8-14.52,2.4-29.17,2.84-43.81,3.13-17.32.33-34.66.08-52,.07-.77,0-1.55-.06-2.4-.1,0-2.13,1.58-2.72,2.59-3.65q99.55-92.1,199.21-184.08c2.58-2.39,2.73-4.13,1.34-7.2q-40.1-88.66-80-177.43c-.55-1.21-1-2.47-1.67-3.62-1.58-2.8-.39-3.28,2.3-3.27,22.65.13,45.3-.16,67.92,1.69C1673.78,3.44,1690,13.1,1701,31.9c11.34,19.47,19.89,40.25,29.23,60.67C1734,100.84,1737.69,109.15,1741.65,117.91Z"/>
<path fill="#233e95" d="M2119.26,235c-28.66,0-57.33.07-86-.08-3.57,0-5.19,1-6.28,4.49q-14.82,47.91-30,95.71c-8.33,26-25.9,42.44-52.51,48.92a51.74,51.74,0,0,1-11.41,1c-10.83.13-21.67-.07-32.49.11-3.53.06-4.65-.46-3.42-4.32C1908,346.92,1918.61,313,1929.31,279q36-114.22,72.08-228.42c8.45-26.68,26.5-43.2,53.85-49.27,4.17-.93,8.61-.82,12.93-.82q97.48-.07,195-.08c15.78,0,31,2.15,44.34,11.09,20.56,13.73,28.85,33.63,28.16,57.77-.3,10.42-3.14,20.32-6.35,30.17-5.46,16.76-10.28,33.73-16.1,50.36-11.41,32.56-33.86,55.62-63.78,71.81-17.63,9.53-36.54,13.76-56.67,13.43C2168.25,234.66,2143.75,235,2119.26,235Zm-64.08-84.6c1.45.09,2.28.18,3.1.18q69.24,0,138.48,0a66.68,66.68,0,0,0,15.83-2c8.68-2.14,15.48-6.93,19.48-15.06a133.68,133.68,0,0,0,11.45-35.51c1.15-6.39-.83-9.32-7.14-11.05-6.15-1.68-12.48-2-18.82-2q-67,0-134,0c-9.08,0-7.15-1.8-10,7.31C2067.42,111.38,2061.42,130.58,2055.18,150.36Z"/>
<path fill="#8e908f" d="M3690.23,526.65c-5,0-10-.08-15,0-2.64.06-3.59-.5-2.66-3.41,5.36-16.63,10.58-33.31,15.77-50,.66-2.12,2-2.62,4-2.91,17.95-2.55,35.85-5.29,53.42-10,35.83-9.62,60.9-32.24,78.86-63.85,17-30,28.73-62.23,39.14-94.93q32.09-100.87,63.73-201.89c5.81-18.41,11.71-36.8,17.43-55.23,7.26-23.41,34-45.41,60.55-44,8.64.46,17.34.29,26,0,4.33-.15,4.47,1.18,3.32,4.79q-19,59.46-37.67,119c-21,66.33-41.65,132.77-63.17,198.92-13.81,42.46-32.28,82.84-59.18,118.86-24.59,32.92-55.14,58-94.5,71.55-20.3,7-41.27,10.4-62.57,11.89C3708.54,526.08,3699.41,527,3690.23,526.65Z"/>
<path fill="#8e908f" d="M4122.72,385H3967.24c-6.07,0-6.11,0-4.32-5.73q34.85-110.49,69.71-221c11.81-37.46,23.48-75,35.44-112.4,7.55-23.63,23.75-38.31,47.7-44.56a36.91,36.91,0,0,1,9.43-.75q146.72,0,293.45-.1c4.6,0,5.65.83,4.22,5.41-3.58,11.46-7,22.94-12.8,33.52-11.75,21.4-29.32,32.55-54.27,32.45-73-.28-146,0-219-.21-4.38,0-6.29,1-7.61,5.41-7.58,25-15.55,49.91-23.37,74.85-1.71,5.45-1.67,5.51,4.12,5.51h215c7.13,0,7.08,0,5.13,6.8-3.68,12.84-8,25.39-15.11,36.83-11.7,18.74-28.67,27.55-50.56,27.54-59,0-118,.07-177-.14-4.82,0-6.49,1.59-7.81,5.9-7.6,24.83-15.46,49.58-23.37,74.32-1.28,4-.89,5.2,3.82,5.19q136-.22,272-.11c6.25,0,6.21,0,4.5,6-4.55,16.1-9.86,31.84-20.64,45.08-10.12,12.41-23.08,19.73-39.19,19.85-42.66.32-85.32.21-128,.27Z"/>
<path fill="#8e908f" d="M4651.49.54h148.45c5.79,0,5.94.07,4.09,5.4-4.35,12.53-6.27,26-14.21,37.14-12.74,17.79-29.45,28.61-52,28.63-28.33,0-56.65.1-85-.09-3.88,0-5.44,1.25-6.56,4.83-27.69,88.13-55.61,176.18-83.18,264.34-7.49,24-33.31,45.67-59.55,44.21-6.81-.38-13.67-.26-20.49,0-4.23.17-4.78-1.42-3.62-5,3.85-11.87,7.57-23.79,11.32-35.69q42.1-133.58,84.19-267.16c1.72-5.43,1.71-5.45-3.85-5.45h-124c-5.88,0-6-.06-4-5.71,4.28-12.2,6.24-25.33,13.83-36.22C4469.56,11.7,4486.21.55,4509,.55Q4580.27.52,4651.49.54Z"/>
</svg>
