<?xml version="1.0" encoding="UTF-8"?>
<svg xmlns="http://www.w3.org/2000/svg" viewBox="0 0 102 45.111">
<title>Firefly</title>
<desc>Firefly logo</desc>
<metadata xmlns:rdf="http://www.w3.org/1999/02/22-rdf-syntax-ns#" xmlns:Airline="http://schema.org/Airline">
<rdf:RDF>
<Airline:name>Firefly</Airline:name>
<Airline:iataCode>FY</Airline:iataCode>
<Airline:url>https://airlinelogos.aero/FY</Airline:url>
</rdf:RDF>
</metadata>
<defs>
  <clipPath id="clip-path">
    <rect id="Rectangle_58628" data-name="Rectangle 58628" width="102" height="45.111" fill="none"/>
  </clipPath>
  <clipPath id="clip-path-2">
    <rect id="Rectangle_67461" data-name="Rectangle 67461" width="101.998" height="45.11" fill="none"/>
  </clipPath>
</defs>
<g id="Group_30509" data-name="Group 30509" clip-path="url(#clip-path)">
  <g id="Group_31282" data-name="Group 31282" transform="translate(0.003)" clip-path="url(#clip-path-2)">
    <path id="Path_360274" data-name="Path 360274" d="M13.733.632h0a.249.249,0,0,0-.05.022.492.492,0,0,0-.05.018v0C-.81,6.539,27.355,33.793,27.355,33.793l.026-.012S28.1-5.4,13.733.632" transform="translate(-3.052 0)" fill="#ef5713"/>
    <path id="Path_360275" data-name="Path 360275" d="M.48,38.287h0c-.006.012-.009.024-.014.037a.264.264,0,0,1-.016.034l0,0C-3.874,48.828,24.329,48.416,24.329,48.416l.007-.021S5.149,27.919.48,38.287" transform="translate(0 -11.344)" fill="#ef5713"/>
    <path id="Path_360276" data-name="Path 360276" d="M2.784,39.586h0a.073.073,0,0,0-.011.024c0,.011-.007.018-.01.026h0c-3.2,7.153,18.46,7.967,18.46,7.967l.007-.018s-15.253-14.609-18.446-8" transform="translate(-0.783 -12.151)" fill="#fc9200"/>
    <path id="Path_360277" data-name="Path 360277" d="M5.419,41.1h0a.034.034,0,0,0-.006.014.111.111,0,0,0-.006.014h0C3.185,45.383,18.52,46.711,18.52,46.711l0-.009s-11.33-9.258-13.1-5.6" transform="translate(-1.664 -12.912)" fill="#ffc200"/>
    <path id="Path_360278" data-name="Path 360278" d="M15.184,3.107h0l-.039.016-.037.013v0C4.272,7.723,26.346,30.22,26.346,30.22l.02-.012s-.251-31.7-11.182-27.1" transform="translate(-3.887 -0.851)" fill="#fc9200"/>
    <path id="Path_360279" data-name="Path 360279" d="M16.627,5.536v0a.265.265,0,0,1-.027.012.108.108,0,0,1-.026.01h0C9.452,8.663,25.079,26.2,25.306,26.439l.017-.008s-1.182-24.149-8.7-20.9" transform="translate(-4.721 -1.679)" fill="#ffc200"/>
    <path id="Path_360280" data-name="Path 360280" d="M46.494,30.671a5.717,5.717,0,0,1,.454-2.411,4.47,4.47,0,0,1,1.174-1.576,3.984,3.984,0,0,1,1.624-.834,7.264,7.264,0,0,1,1.812-.238h.333V23.9h-.333a8.862,8.862,0,0,0-6.268,2.081,7.323,7.323,0,0,0-2.174,5.592V44.815h3.378V34.974h5.421V33.63H46.494Z" transform="translate(-13.834 -7.669)" fill="#ef5713"/>
    <path id="Path_360281" data-name="Path 360281" d="M105.669,30.671a5.683,5.683,0,0,1,.458-2.411,4.422,4.422,0,0,1,1.174-1.576,4.029,4.029,0,0,1,1.624-.834,7.292,7.292,0,0,1,1.811-.238h.336V23.9h-.336a8.867,8.867,0,0,0-6.266,2.081,7.318,7.318,0,0,0-2.174,5.592V44.815h3.373V34.974H111.1V33.63h-5.429Z" transform="translate(-32.823 -7.669)" fill="#ef5713"/>
    <rect id="Rectangle_67460" data-name="Rectangle 67460" width="3.373" height="14.815" transform="translate(39.785 22.333)" fill="#ef5713"/>
    <path id="Path_360282" data-name="Path 360282" d="M60.019,22.98a1.872,1.872,0,0,0-1.385.581,2,2,0,0,0,0,2.789,1.864,1.864,0,0,0,1.385.577,1.77,1.77,0,0,0,.7-.152,2.333,2.333,0,0,0,.646-.437,2.159,2.159,0,0,0,.46-.632,1.7,1.7,0,0,0,.17-.748,1.984,1.984,0,0,0-1.974-1.977" transform="translate(-18.631 -7.373)" fill="#ef5713"/>
    <path id="Path_360283" data-name="Path 360283" d="M70.368,34.977a7.321,7.321,0,0,0-2.217,5.634v7.1h3.375V39.436a5.837,5.837,0,0,1,.454-2.45,4.272,4.272,0,0,1,1.186-1.563,4.57,4.57,0,0,1,1.641-.831,2.951,2.951,0,0,1,1.241-.226l-.029-1.451a7.181,7.181,0,0,0-5.652,2.063" transform="translate(-21.867 -10.56)" fill="#ef5713"/>
    <path id="Path_360284" data-name="Path 360284" d="M81.847,39.571a7.9,7.9,0,0,1,.359-1.73,5.449,5.449,0,0,1,.718-1.472,3.834,3.834,0,0,1,1.127-1.037,2.884,2.884,0,0,1,1.546-.4h.064a3.461,3.461,0,0,1,2.648,1.1,5.869,5.869,0,0,1,1.269,3.541Zm9.09-4.143a6.81,6.81,0,0,0-2.27-1.563,6.961,6.961,0,0,0-5.785.039,7.289,7.289,0,0,0-2.259,1.582,7.04,7.04,0,0,0-1.493,2.287A7.148,7.148,0,0,0,78.6,40.55a8.044,8.044,0,0,0,.634,2.922,7.173,7.173,0,0,0,1.552,2.291,7.03,7.03,0,0,0,2.287,1.493,7.636,7.636,0,0,0,2.882.531,8.028,8.028,0,0,0,5.811-2.511l.006-1.032a8.068,8.068,0,0,1-5.17,2.012,4.654,4.654,0,0,1-2.215-.471,4.362,4.362,0,0,1-1.428-1.179,4.73,4.73,0,0,1-.8-1.564,9.293,9.293,0,0,1-.339-1.66H92.8c0-.117,0-.27.011-.454s.016-.335.016-.425a7,7,0,0,0-.44-2.767,6.9,6.9,0,0,0-1.453-2.308" transform="translate(-25.219 -10.67)" fill="#ef5713"/>
    <path id="Path_360285" data-name="Path 360285" d="M122.407,41.844a4.536,4.536,0,0,1-1.083-1.551,5.766,5.766,0,0,1-.424-2.358V23.967h-3.375V37.016a7.426,7.426,0,0,0,2.1,5.565,8.335,8.335,0,0,0,5.879,2.136V43a5.845,5.845,0,0,1-1.612-.3,4,4,0,0,1-1.482-.865" transform="translate(-37.709 -7.69)" fill="#ef5713"/>
    <path id="Path_360286" data-name="Path 360286" d="M143.281,39.368V32.884h-3.375V41.6a4.031,4.031,0,0,1-3.86,4.317c-.6.019-3.946-.1-3.946-5.064V32.884h-3.376v7.068a9.156,9.156,0,0,0,1.217,4.93,6.72,6.72,0,0,0,5.8,2.827c3.035,0,4.174-1.3,4.188-1.3v2.482a5.666,5.666,0,0,1-.459,2.412,4.444,4.444,0,0,1-1.169,1.575,4.053,4.053,0,0,1-1.627.834,7.2,7.2,0,0,1-1.813.238h-.33V55.66h.33a8.913,8.913,0,0,0,6.268-2.077A7.309,7.309,0,0,0,143.3,47.99V39.368Z" transform="translate(-41.302 -10.551)" fill="#ef5713"/>
  </g>
</g>
</svg>
