<?xml version="1.0" encoding="UTF-8"?>
<svg xmlns="http://www.w3.org/2000/svg" viewBox="0 0 68 26">
<title>Sky Airline</title>
<desc>Sky Airline logo</desc>
<metadata xmlns:rdf="http://www.w3.org/1999/02/22-rdf-syntax-ns#" xmlns:Airline="http://schema.org/Airline">
<rdf:RDF>
<Airline:name>Sky Airline</Airline:name>
<Airline:iataCode>H2</Airline:iataCode>
<Airline:url>https://airlinelogos.aero/H2</Airline:url>
</rdf:RDF>
</metadata>
<path d="M60.5209 1.38856L55.4522 10.4673L50.3595 1.38856H43.5L52.0896 16.37V24.6163H58.4375V16.3658L67.1832 1.38428L60.5209 1.38856Z" fill="#78028A"/>
<path d="M11.9234 10.5827L8.26049 9.50756C6.99968 9.11757 6.24971 8.70603 6.24971 7.62869C6.24971 6.46086 7.62791 5.9502 9.44087 5.9502C12.0748 5.9655 14.6412 6.77736 16.797 8.27725V2.6751C14.4501 1.44114 11.8204 0.831635 9.16479 0.906117C4.06068 0.906117 0 3.47448 0 8.11996C0 12.0113 2.24772 13.9376 6.32579 15.0946L9.99954 16.1289C11.3038 16.5792 12.0494 16.9692 12.0494 18.1025C12.0494 19.5483 10.3104 19.9793 8.30396 19.9793C5.52866 19.8944 2.83127 19.0495 0.510846 17.538V23.1833C2.95378 24.474 5.68583 25.1329 8.45396 25.0988C13.9124 25.0988 18.3665 22.8514 18.3665 17.7729C18.3665 14.1767 16.3579 11.9294 11.9234 10.5827Z" fill="#78028A"/>
<rect x="35.2812" y="1.3844" width="6.28329" height="23.232" fill="#78028A"/>
<path d="M26.0612 1.3844H18.8516L27.5918 12.9908L18.8516 24.6164H26.0612L34.8015 12.9908L26.0612 1.3844Z" fill="#46DC28"/>
</svg>
