<?xml version="1.0" encoding="UTF-8"?>
<svg xmlns="http://www.w3.org/2000/svg" viewBox="0 0 946.3 270.6">
<title>Hawaiian Airlines</title>
<desc>Hawaiian Airlines logo</desc>
<metadata xmlns:rdf="http://www.w3.org/1999/02/22-rdf-syntax-ns#" xmlns:Airline="http://schema.org/Airline">
<rdf:RDF>
<Airline:name>Hawaiian Airlines</Airline:name>
<Airline:iataCode>HA</Airline:iataCode>
<Airline:url>https://airlinelogos.aero/HA</Airline:url>
</rdf:RDF>
</metadata>
<g id="g556" transform="translate(-493.102 338.807)">
<g id="g564" transform="translate(258.404 77.59)"><path id="path566" d="M925.3-165c0-.6-.3-.9-1-.9H923c-.1 0-.1 0-.1.1v1.5c0 .1 0 .1.1.1h1.3c.7.1 1-.3 1-.8m-3.4 4.4c-.1 0-.2-.1-.2-.2v-5.8c0-.1.1-.2.2-.2h2.4c1.4 0 2.2.7 2.2 1.9 0 .9-.5 1.5-1.2 1.7l1.3 2.4c.1.1 0 .2-.1.2h-.8c-.1 0-.2-.1-.3-.2l-1.2-2.3h-1.1c-.1 0-.1 0-.1.1v2.2c0 .1-.1.2-.2.2h-.9zm6.6-3.1c0-2.7-2-4.7-4.6-4.7-2.7 0-4.6 2-4.6 4.7s2 4.7 4.6 4.7c2.6-.1 4.6-2.1 4.6-4.7m-10.2 0c0-3.2 2.4-5.6 5.6-5.6 3.2 0 5.6 2.4 5.6 5.6 0 3.2-2.4 5.7-5.6 5.7-3.2-.1-5.6-2.5-5.6-5.7" fill="#413691"/></g>
<g id="g568" transform="translate(192.215 102.67)"><path id="path570" d="M382.2-357.3v86.1c0 3.8 0 9.3-5.2 9.3h-14.4v-39h-42.1v29.7c0 3.8.3 9.3-4.9 9.3h-14.7V-348c0-3.8 0-9.3 5.2-9.3h14.4v41h42.1V-348c0-3.7-.3-9.3 4.9-9.3h14.7z" fill="#413691"/></g>
<g id="g572" transform="translate(202.844 94.595)"><path id="path574" d="M442.5-295.4 429-335.5l-19.1 53 .8.1c2.6-4.8 8.9-13.1 19.9-13.1h11.9v.1zm31.2 41.6h-17.2l-9-26.6H410l-6.5 19.6c-1.1 3.1-2.6 7-7.5 7h-14.3l30.7-87.5c1.1-3 2.6-7.9 7.8-7.9h23.3l32.4 92.3c.6 1.8-.3 3.1-2.2 3.1" fill="#413691"/></g>
<g id="g576" transform="translate(227.7 102.67)"><path id="path578" d="M583.3-357.3 552-268.9c-.7 2-1.9 7-6.8 7h-12l-17.9-50.8-15.9 43.9c-.7 2-1.9 7-6.8 7h-13.1L447-354.2c-.7-1.9.3-3.1 2.2-3.1h17.3l23.4 71.1 16.9-50.6-6.1-17.4c-.7-1.9.3-3.1 2.2-3.1h17.4l21.7 69.2 18.9-62.3c1-3.1 2.6-6.9 7.4-6.9h15z" fill="#413691"/></g>
<g id="g580" transform="translate(235.896 94.595)"><path id="path582" d="m629.8-295.4-13.5-40.1-19.1 53 .8.1c2.6-4.8 8.9-13.1 19.9-13.1h11.9v.1zm31.2 41.6h-17.2l-9-26.6h-37.5l-6.5 19.6c-1.1 3.1-2.6 7-7.5 7H569l30.7-87.5c1.1-3 2.6-7.9 7.8-7.9h23.3l32.4 92.3c.6 1.8-.3 3.1-2.2 3.1" fill="#413691"/></g>
<g id="g584" transform="translate(242.58 101.28)"><path id="path586" d="M667.6-346.7c0-3.8 0-9.3 4.6-9.3h15v86.1c0 3.8 0 9.3-4.6 9.3h-15v-86.1z" fill="#413691"/></g>
<g id="g588" transform="translate(248.548 101.28)"><path id="path590" d="M701.5-346.7c0-3.8 0-9.3 4.6-9.3h15V-269.9c0 3.8 0 9.3-4.6 9.3h-15v-86.1z" fill="#413691"/></g>
<g id="g592" transform="translate(262.12 94.595)"><path id="path594" d="m778.4-295.4-13.5-40.1-19.1 53 .8.1c2.6-4.8 8.9-13.1 19.9-13.1h11.9v.1zm31.2 41.6h-17.2l-9-26.6h-37.5l-6.5 19.6c-1.1 3.1-2.6 7-7.5 7h-14.3l30.7-87.5c1.1-3 2.6-7.9 7.8-7.9h23.3l32.4 92.3c.6 1.8-.3 3.1-2.2 3.1" fill="#413691"/></g>
<g id="g596" transform="translate(281.19 102.67)"><path id="path598" d="M886.4-357.3v86.1c0 3.8 0 9.3-4.6 9.3h-12.3L822.9-325v53.8c0 3.8 0 9.3-5 9.3h-14V-348c0-3.8 0-9.3 4.6-9.3h12.8l46.1 64.3v-55c0-3.8-.8-9.3 4.5-9.3h14.5z" fill="#413691"/></g>
<g id="g600" transform="translate(209.08 79.083)"><path id="path602" d="m645.8-176.5-7.5-21.7h-.1l-7.6 21.7h15.2zm-10.7-30.1c.1-.4.3-.7.8-.7h4.6c.5 0 .8.3.9.7l16.3 46.3c.1.4-.1.7-.5.7h-4.9c-.5 0-.8-.2-.9-.7l-3.6-10.4h-19.3l-3.7 10.4c-.2.5-.5.7-.9.7H619c-.4 0-.6-.3-.5-.7l16.6-46.3z" fill="#413691"/></g>
<g id="g604" transform="translate(213.12 83.607)"><path id="path606" d="M668.7-211.2c0-.4.3-.7.7-.7h4.8c.4 0 .7.3.7.7V-164.9c0 .4-.3.7-.7.7h-4.8c-.4 0-.7-.3-.7-.7v-46.3z" fill="#413691"/></g>
<g id="g608" transform="translate(221.297 81.65)"><path id="path610" d="M715-196.2c0-5-3.3-7.9-8.8-7.9H695c-.3 0-.4.1-.4.4v15c0 .3.1.4.4.4h11.2c5.5.1 8.8-2.9 8.8-7.9m1 34c-.5 0-.7-.2-.9-.7l-9.5-19.5H695c-.3 0-.4.1-.4.4v19.1c0 .4-.3.7-.7.7h-4.8c-.4 0-.7-.3-.7-.7v-46.3c0-.4.3-.7.7-.7h17.3c8.9 0 14.9 5.5 14.9 13.7 0 6.5-3.6 11.2-9.4 13l10.2 20.1c.3.4.1.8-.4.8l-5.7.1z" fill="#413691"/></g>
<g id="g612" transform="translate(225.054 83.607)"><path id="path614" d="M736.3-211.2c0-.4.3-.7.7-.7h4.8c.4 0 .7.3.7.7v40.8c0 .3.1.4.4.4h22.7c.4 0 .7.3.7.7v4.4c0 .4-.3.7-.7.7H737c-.4 0-.7-.3-.7-.7v-46.3z" fill="#413691"/></g>
<g id="g616" transform="translate(231.663 83.607)"><path id="path618" d="M773.8-211.2c0-.4.3-.7.7-.7h4.8c.4 0 .7.3.7.7v46.3c0 .4-.3.7-.7.7h-4.8c-.4 0-.7-.3-.7-.7v-46.3z" fill="#413691"/></g>
<g id="g620" transform="translate(235.84 83.607)"><path id="path622" d="M797.5-211.2c0-.4.3-.7.7-.7h4.5c.6 0 .9.1 1.2.7l21.6 35.8h.3v-35.8c0-.4.3-.7.7-.7h4.4c.4 0 .7.3.7.7v46.3c0 .4-.3.7-.7.7h-4.5c-.5 0-.9-.1-1.2-.7l-21.7-35.6h-.2v35.6c0 .4-.3.7-.7.7h-4.4c-.4 0-.7-.3-.7-.7v-46.3z" fill="#413691"/></g>
<g id="g624" transform="translate(244.196 83.607)"><path id="path626" d="M844.8-211.2c0-.4.3-.7.7-.7h28.7c.4 0 .7.3.7.7v4.4c0 .4-.3.7-.7.7h-22.7c-.3 0-.4.1-.4.4v14c0 .3.1.4.4.4h19.3c.4 0 .7.3.7.7v4.4c0 .4-.3.7-.7.7h-19.3c-.3 0-.4.1-.4.4v14.5c0 .3.1.4.4.4h22.7c.4 0 .7.3.7.7v4.4c0 .4-.3.7-.7.7h-28.7c-.4 0-.7-.3-.7-.7v-46.1z" fill="#413691"/></g>
<g id="g628" transform="translate(251.09 77.337)"><path id="path630" d="M883.9-163.1c-.3-.3-.4-.7-.1-1.1l3.1-3.6c.3-.3.6-.3 1-.1 3.1 2.5 7.9 4.9 13.3 4.9 6.6 0 10.5-3.3 10.5-8.1 0-4.1-2.3-6.8-10-7.8l-2.4-.4c-9.3-1.3-14-5.7-14-13.2 0-8.5 6.1-14 15.6-14 5.6 0 11 1.8 14.5 4.4.4.3.4.6.1 1l-2.4 3.9c-.3.4-.6.4-1 .1-3.9-2.4-7.4-3.6-11.5-3.6-5.8 0-9 3.2-9 7.7 0 4 2.7 6.7 10 7.6l2.3.3c9.3 1.3 14 5.5 14 13.3 0 8.3-5.9 14.4-17.4 14.4-6.6.3-13.1-2.5-16.6-5.7" fill="#413691"/></g>
</g>
<g id="g646"><linearGradient id="path656_1_" x1="268.9051" x2="272.4885" y1="229.3396" y2="229.3396" gradientTransform="scale(-42.601 42.601) rotate(87.7 244.222 -34.641)" gradientUnits="userSpaceOnUse"><stop offset="0" style="stop-color:#d2068a"/><stop offset="0.737" style="stop-color:#413691"/><stop offset="1" style="stop-color:#413691"/></linearGradient><path id="path656" d="M710.8 111.9c0 55.2 39.5 101 91.5 110.2-.4 4-.9 7.7-1.5 10.7-3.6 17.7-15.7 33.9-22.2 37.8 17.5-1.5 31.4-6.7 39.7-15-.6 0-6.1-.1-6.5-.1 3.3-1.3 6.6-2.8 9.7-4.7 1.2-10.3.8-22.6-1.9-37.6-3.5-19.6-10.9-26.1-12-27.4-.1-.1-.1-.2-.1-.2 0-.1.2-.2.3-.2 6.2-3.9 11.6-8.5 14.1-10.7 1.9-1.6 1.2-2.4-.8-1.5-5.2 2.4-13.8 5.4-24.7 6.8-9.6 1.2-21 1-33.4-1.4 0 0-8.7-1.3-7.4-10.1.3-2.5 1.6-5 2.6-7.5.3-.8 1.1-3.2.7-5.1-.1-.5-.7-1.4-1.1-1.9-.6-1-.9-2.3-.2-3.9.6-1.3 2.8-3.3 6.1-3.6 1.6-.1 3.3-.1 5.1-.1 2.3 0 4.6 0 6.5-.3 5-.9 8-4.3 7.5-5.4-.4-.7-4.9.2-6.4.5-2.2.4-6.3-1.4-8.5-2.1-3.3-1.1-5.1-1.9-7.9-.7-1.8.8-3.2 4.4-3.7 2.7-.2-.8.2-1.6.8-2.5.6-.9 1.8-2.5 1.9-3.4.2-1 .4-2.5-2.5-4.6-2.1-1.5-3.5-2.6-4.3-3.5-2.8-2.8-3.3-5.7 2.1-10.2 3.8-3.2 12.2-11.9 14.7-17.2.4-.8 2.4-4.1.2-7.5-1.7-2.6-2-3-2.5-3.9-1.2-2.4-.4-4.5 1.7-7.7 1-1.5 1.8-3.4 3.9-10 2.4-7.4 6.1-13.9 11.3-19.4.4-1.1 1-9.6 5.9-17.5 1.6-3.1 3.8-6.4 6.7-9.6 2-2.1 5.1-4.6 9.2-7 4.1-2.4 9.2-4.7 15.2-6.5 7.1-2.1 15.4-3.5 24.7-3.4 6.9.1 13.5.6 21.3 2.7 0 0 .4.1.9.3C853.5 3.6 837.9 0 821.4 0c-61.1 0-110.6 50.1-110.6 111.9m44.2 13.7c-.1.4.2.6.6.8 2 1 3 1.4 6.7 3.6 4.3 2.6 6.2.4 7.1-1.2.3-.4.6-2.3.2-2.9-.4-.6-1.2-.2-2 .6-.9.9-3.2.4-4 .3-.8-.1-4.3-1-6.5-1.4-.4-.1-.8-.1-1.1-.1-.7 0-1 .1-1 .3" style="fill:url(#path656_1_)"/></g>
<g id="g666" transform="translate(227.093 148.467)"><path id="path668" d="M578.2-74.5c-.6-.2-15.2-3.4-20.1-3.1-4.9.3-9 3.1-11.6 6.1-1.4 1.6-2 3.2-2.3 4.5-.2 2.3 1.5 3.5 3.4 2.8 1.4-.5 2.5-1.5 4-3.7.9-1.4 1.5-3.1 2.9-4 2.3-1.5 6.3-1.8 12.9-1.7 5 .1 9.1.4 10 .4 2 .1 1.5-1.1.8-1.3" fill="#413691"/></g>
<g id="g670" transform="translate(225.32 145.619)"><path id="path672" d="M571.5-58.1c-2.7-1.6-6.4-1.5-7.1-1.7-.7-.1-.9-.9.2-1.4 1.5-.7 4.3-.1 4.4-.6.1-.4-.5-1.4-2.7-2.2-1.1-.4-3.3-.7-4.9-.6-4.5.5-6.9 3.3-7.4 3.8s-1.3 1.3-1.5 2.5c-.3 1.6.7 2.8 1.7 4.3.5.8.9 1.4 1.1 1.9.2.8.1 1.2-.6 1.7-.8.6-.3 1.7 1.3 1.3 1.8-.5 2.8-1 4.1-2.2 1.9-1.6 1.9-2.7 3.2-4s5.6-1.3 7.8-1c2.5.5 3.1-.2.4-1.8" fill="#413691"/></g>
<g id="g674" transform="translate(253.875 141.247)"><path id="path676" d="M679.3-32.8c0-5-1.4-14.9-1.7-17.1-.6-6-2-14.4-6.7-26-5-12.6-9.1-21.5-21.5-33.7-14.5-14.3-31.7-20.3-35.8-21.5-.6-.2-1-.3-1-.3-7.8-2.1-14.4-2.6-21.3-2.7-24.6-.4-42.7 10-49.1 16.8-3 3.2-5.1 6.5-6.7 9.6-5 7.9-5.6 16.5-5.9 17.5.4-.3 6.3-6.9 13-8.8 1.6 2.7 5.1 6.3 11.9 9.8 7 3.6 14.7 5.6 14.7 5.6s9.6 2.8 19.3 6.2c7.8 2.8 15.8 12.8 15.8 14.9 0 4.3-4.2 8.3-8.4 21.3-4.5 13.9-6 27.1-4.6 42.5v.2c.9 9.2 2.9 19.3 5.9 30.8 2.5 9.3 3.3 18.6 3 27.5-2.2 22.9-16.1 40.1-32.8 49.7-3.2 1.8-6.4 3.4-9.8 4.7.5 0 6 .1 6.5.1 14-.2 33.9-2.9 50.9-20.7 5.9-6.2 10.5-12.6 13.4-18.7 1.2-2.5 6.2-11.5 9.1-29.4.4-2.4 1.6-10.1 1.6-10.1s.8 5.5.9 10.4c.1 6.7.4 15.1-3.6 27.9 1.4-.3 8-5.2 15.8-15.9 2.9-3.9 5.5-7.9 7.9-12.1 11.6-17.6 19.6-38.6 19.2-78.5" fill="#413691"/></g>
<g id="g678" transform="translate(241.135 149.427)"><path id="path680" d="M631.2-80.1c-.1.8.2 1 .9.5 3.1-2.5 8.1-6.2 15-7.5 8.3-1.5 12.9-5.5 15.1-10.1 1.3-2.7 2.3-7.7 6.3-10.6 1.3-.9 0-1.3-1.1-1.1-1 .2-6.5 1.7-10 5.5-2.4-2.5-2.2-6-1.9-8 .2-.6-.3-1-1.1-.4-2.7 2.2-4.5 5.1-5.1 7.1 0 0-2.2-1.5-1-5.4.2-.6-.3-.4-.5-.2-3.9 2.8-3.5 7.1-3.6 7.6 0 0-3.9-2.2-9.9-3-1-4-7.4-5.1-8.5-1-1 3.7 5.2 6.5 7.9 3.5 0 0 8.5.9 16 8.4.8.8 1 1.4.5 1.8-.3.3-1.4-.3-2.8-1.3-1.5-1-11.7-7.6-20.6-3.1-.4.2-.5.6-.1.7 1.7.5 5.4 1.8 6.3 4.2-2.4.6-6.2 2.1-8.9 7.7-.7 1.5.2 1.7 1 1.1.9-.7 6.5-3.7 8.5-3.5.2.2-1.7 2.9-2.4 7.1m70.6-42.2c-.3 2.8.5 10.8 2.7 18.2 2.3 7.8-1.8 14.8-8.8 18.8-2.2-3.4-6.7-5.1-10.6-5.3-2.3-.1-1.7.9-.5 1.3 16.4 6.9 10.6 26 8.5 30.1-2.2 4.1-1.6 9.6-1.6 9.6-5.1-1.5-9.8-.5-13.9.1-8.1 1.3-13.6-.2-17.8-2.1-3.4-1.5-8.7-5.1-9.5-11.7-.2-1.2-.9-2.1-1.4.2-.8 3.9-.2 8.6 2.5 11.6-3 14.9-32.3 13.8-32.3 13.8-1.9-6.4-15.3-8.4-18.3-17.8-1.4-4.4-.3-9.1-.3-9.1 7.7 1.8 12.1-1.8 14.6-4.9 1.4-1.8.3-1.9-.7-1.2-9.7 6.1-18.7 0-20.6-8.6-2.5-9.5-11.7-12.6-11.7-12.6 6.7-4.2 4.8-11.5 8.3-17.7 9.2-16.3 22.3-11.4 22.3-11.4 1.3 3.9 5.1 6.7 8.9 7.8 2.2.7 1.9-.4.9-1.2-9.3-6.7-7-17.4.3-22.3 12.8-8.7 15-12.5 15-12.5 2.3 1.8 8.6 3.3 15.1 3.9 14.7 1.3 18.1 8.9 18.4 11.9-1.7.9-4.7 3.7-6.1 8-.7 2.2.4 1.9 1.2.9 5.7-7.8 12.7-6.3 19.3-3.3 4.1 2 10.1 6.8 16.1 5.5" style="fill:#ef3138"/></g>
<path d="M856.2 79.9c1.4-1.8.3-1.9-.7-1.2-9.7 6.1-18.7 0-20.6-8.6-1.9-7.3-7.8-10.8-10.4-12-.9-.3-1.5-.4-1.5-.4s-7.7-2-14.7-5.6c-6.8-3.5-10.3-7.1-11.9-9.8-6.2 1.7-11.6 7.4-12.8 8.6 0 .2-.1.3-.1.4-5.2 5.5-8.9 12-11.3 19.4-2.1 6.6-2.9 8.5-3.9 10-2.1 3.2-2.9 5.3-1.7 7.7.5.9.8 1.3 2.5 3.9 2.2 3.4.2 6.7-.2 7.5-2.5 5.3-10.9 14-14.7 17.2-5.4 4.5-4.9 7.4-2.1 10.2.8.9 2.2 2 4.3 3.5 2.9 2.1 2.7 3.6 2.5 4.6-.1.9-1.3 2.5-1.9 3.4-.6.9-1 1.7-.8 2.5.5 1.7 1.9-1.9 3.7-2.7 2.8-1.2 4.6-.4 7.9.7 2.2.7 6.3 2.5 8.5 2.1 1.5-.3 6-1.2 6.4-.5.5 1.1-2.5 4.5-7.5 5.4-1.9.3-4.2.3-6.5.3-1.8 0-3.5 0-5.1.1-3.3.3-5.5 2.3-6.1 3.6-.7 1.6-.4 2.9.2 3.9.4.5 1 1.4 1.1 1.9.4 1.9-.4 4.3-.7 5.1-1 2.5-2.3 5-2.6 7.5-1.3 8.8 7.4 10.1 7.4 10.1 12.4 2.4 23.8 2.6 33.4 1.4 10.9-1.4 19.5-4.4 24.7-6.8 2-.9 2.7-.1.8 1.5-2.5 2.2-7.9 6.8-14.1 10.7-.1 0-.3.1-.3.2 0 0 0 .1.1.2 1.1 1.3 8.5 7.8 12 27.4 2.7 14.9 3.1 27.1 1.9 37.4 16.6-9.6 30.4-26.8 32.6-49.6.3-8.9-.5-18.2-3-27.5-3-11.5-5-21.6-5.9-30.8v-.2c-1.3-14.5-.1-27.1 3.9-40.2-3.1-2.1-5.9-4.7-7.1-8.4-1.4-4.4-.3-9.1-.3-9.1 7.7 1.7 12.1-1.9 14.6-5zm-86.8 48.9c-.9 1.6-2.8 3.8-7.1 1.2-3.7-2.2-4.7-2.6-6.7-3.6-.4-.2-.7-.4-.6-.8 0-.2.3-.3 1-.3.3 0 .7 0 1.1.1 2.2.4 5.7 1.3 6.5 1.4.8.1 3.1.6 4-.3.8-.8 1.6-1.2 2-.6.4.6.1 2.5-.2 2.9zm27-39.5c-2.2-.3-6.5-.3-7.8 1-1.3 1.3-1.3 2.4-3.2 4-1.3 1.2-2.3 1.7-4.1 2.2-1.6.4-2.1-.7-1.3-1.3.7-.5.8-.9.6-1.7-.2-.5-.6-1.1-1.1-1.9-1-1.5-2-2.7-1.7-4.3.2-1.2 1-2 1.5-2.5s2.9-3.3 7.4-3.8c1.6-.1 3.8.2 4.9.6 2.2.8 2.8 1.8 2.7 2.2-.1.5-2.9-.1-4.4.6-1.1.5-.9 1.3-.2 1.4.7.2 4.4.1 7.1 1.7 2.7 1.6 2.1 2.3-.4 1.8zm8.1-14c-.9 0-5-.3-10-.4-6.6-.1-10.6.2-12.9 1.7-1.4.9-2 2.6-2.9 4-1.5 2.2-2.6 3.2-4 3.7-1.9.7-3.6-.5-3.4-2.8.3-1.3.9-2.9 2.3-4.5 2.6-3 6.7-5.8 11.6-6.1 4.9-.3 19.5 2.9 20.1 3.1.7.2 1.2 1.4-.8 1.3z" fill="#fff"/>
</svg>
