<?xml version="1.0" encoding="UTF-8"?>
<svg xmlns="http://www.w3.org/2000/svg" viewBox="0 0 452.57 70.54">
<title>Greater Bay Airlines</title>
<desc>Greater Bay Airlines logo</desc>
<metadata xmlns:rdf="http://www.w3.org/1999/02/22-rdf-syntax-ns#" xmlns:Airline="http://schema.org/Airline">
<rdf:RDF>
<Airline:name>Greater Bay Airlines</Airline:name>
<Airline:iataCode>HB</Airline:iataCode>
<Airline:url>https://airlinelogos.aero/HB</Airline:url>
</rdf:RDF>
</metadata>
<path fill="#000" d="M42.88,68.51a24.93,24.93,0,0,1-9.73,2,34.65,34.65,0,0,1-13.93-2.69A29.91,29.91,0,0,1,8.78,60.44a32.87,32.87,0,0,1-6.51-11.1A40.75,40.75,0,0,1,0,35.6a42.15,42.15,0,0,1,2.27-14A33.85,33.85,0,0,1,8.78,10.29,29.74,29.74,0,0,1,19.22,2.74,34,34,0,0,1,33.15,0,32.79,32.79,0,0,1,43.21,1.56,28.39,28.39,0,0,1,52,6.14,24.77,24.77,0,0,1,61.58,23.8H47.41a14.17,14.17,0,0,0-5.1-8.5,14.82,14.82,0,0,0-9.16-2.83,17.31,17.31,0,0,0-8.5,1.93A16.07,16.07,0,0,0,19,19.59,22.8,22.8,0,0,0,15.82,27a36.91,36.91,0,0,0-1,8.59,34.33,34.33,0,0,0,1,8.26A22.24,22.24,0,0,0,19,51.09a16.12,16.12,0,0,0,5.67,5.14,17.2,17.2,0,0,0,8.5,1.94q7.37,0,11.38-3.73T49.2,43.63H34.28V32.58H62.62V69H53.17l-1.51-7.65a22.16,22.16,0,0,1-8.78,7.13"/>
<path fill="#000" d="M101,1.61a41.79,41.79,0,0,1,8.78.85,18.89,18.89,0,0,1,6.8,2.78A13,13,0,0,1,121,10.39a18,18,0,0,1,1.56,7.93,14.8,14.8,0,0,1-2.31,8.5,16.87,16.87,0,0,1-6.85,5.57,16.25,16.25,0,0,1,9.3,6.28,18.66,18.66,0,0,1,3.07,10.81,18.56,18.56,0,0,1-2,8.83,17.09,17.09,0,0,1-5.34,6.09,23.59,23.59,0,0,1-7.65,3.5A34.71,34.71,0,0,1,101.93,69H69.25V1.61ZM99.1,28.9A10.62,10.62,0,0,0,105.61,27q2.55-1.89,2.55-6.14a7.81,7.81,0,0,0-.85-3.87,6.19,6.19,0,0,0-2.26-2.36,9.51,9.51,0,0,0-3.26-1.18A21.66,21.66,0,0,0,98,13.13H84.08V28.9ZM100,57.51a19.93,19.93,0,0,0,4.15-.42,10.34,10.34,0,0,0,3.5-1.42A7.11,7.11,0,0,0,110,53a9.27,9.27,0,0,0,.9-4.35q0-5.19-2.92-7.41A12.53,12.53,0,0,0,100.23,39H84.08V57.51Z"/>
<path fill="#000" d="M164.43,1.61,189.65,69H174.26l-5.1-15H143.94l-5.29,15H123.73l25.5-67.42ZM165.28,43l-8.5-24.74h-.19L147.81,43Z"/>
<path fill="#000" d="M221.43,42h16.24v2.82H221.23c-.25,1.27-.48,2.5-.72,3.76h2.7a26.63,26.63,0,0,0,15.16,17.74v2.78l-.3-.07A28.59,28.59,0,0,1,227,62.7a26.73,26.73,0,0,1-6.46-9c-.27-.63-.49-1.28-.74-1.92,0-.11-.07-.21-.14-.39-.06.15-.11.25-.14.34A26.27,26.27,0,0,1,215.31,59,30.74,30.74,0,0,1,208,65.4,45.88,45.88,0,0,1,201.1,69l-.41.15v-2.8l.26-.14a34.68,34.68,0,0,0,6.78-4.46,26.41,26.41,0,0,0,7.13-9.33,27.53,27.53,0,0,0,2.1-7.23,2,2,0,0,0,0-.3H201.42V42h15.87c.11-3.13,0-6.25.07-9.37h4.17c0,3.11.05,6.21-.1,9.37"/>
<polygon fill="#000" points="344.9 66.41 344.9 69.07 308.44 69.07 308.44 33.92 344.55 33.92 344.55 36.56 312.49 36.56 312.49 66.41 344.9 66.41"/>
<path fill="#000" d="M318.79,49.15V39.39H340c0,.1,0,.2,0,.29v5.61a3.92,3.92,0,0,1-.61,2.25,3.65,3.65,0,0,1-2.07,1.39,5.91,5.91,0,0,1-1.72.24H319.1l-.31,0M336,42H322.76v4.5h11.48a3.82,3.82,0,0,0,.68,0A1.14,1.14,0,0,0,336,45.39c0-.15,0-.3,0-.45V42.33c0-.09,0-.19,0-.32"/>
<path fill="#000" d="M330.48,63.51V52.08h12.27a2.66,2.66,0,0,1,0,.28v7.35a4.48,4.48,0,0,1-.3,1.73,3,3,0,0,1-2.26,1.86,6.54,6.54,0,0,1-1.51.21c-2.69,0-5.37,0-8,0h-.18m3.94-8.78v6.12h3.1a1.77,1.77,0,0,0,.33,0,1,1,0,0,0,1-1,1.23,1.23,0,0,0,0-.27V55c0-.09,0-.17,0-.27Z"/>
<path fill="#000" d="M328.29,52.08v7.47a5.36,5.36,0,0,1-.2,1.6,3,3,0,0,1-2.36,2.15,6.47,6.47,0,0,1-1.51.21c-2.68,0-5.36,0-8,0H316V52.08Zm-8.38,8.76.24,0h3a1.12,1.12,0,0,0,1.25-1.21s0-.1,0-.15c0-1.49,0-3,0-4.47a2.83,2.83,0,0,0,0-.29h-4.44Z"/>
<path fill="#000" d="M451.74,36.32v7.57h-4V39.06h-7.39c0,.12,0,.23,0,.33v7.29c0,.1,0,.2,0,.3a.86.86,0,0,0,.8.83c.2,0,.42,0,.63,0H451v2.7H440.81a7.54,7.54,0,0,1-2.16-.28,2.93,2.93,0,0,1-2.29-2.59,8.24,8.24,0,0,1-.08-1.22q0-3.49,0-7V39.1c-.23-.08-15.95-.1-16.36,0v4.82h-4V36.32H433l0-.06a6.42,6.42,0,0,1-1.73-3.6h4.58a5.83,5.83,0,0,0,1,3.66Z"/>
<path fill="#000" d="M452.57,69.08H415.05v-2.7h16.69V57.47H417.46V54.79h32.7v2.67H435.92c-.08.24-.12,8.31,0,8.91h16.69Z"/>
<path fill="#000" d="M416.75,51.37V48.68l1.26-.23a27.93,27.93,0,0,0,4.11-1.08,10.21,10.21,0,0,0,2.6-1.35,7,7,0,0,0,2.53-3.79c.09-.31.17-.62.25-.92l0,0h4.34c-.11.39-.2.75-.31,1.11a12.27,12.27,0,0,1-2.24,4.24,10.5,10.5,0,0,1-4,2.93,20.85,20.85,0,0,1-4.84,1.35c-1.18.19-2.37.32-3.56.47h-.15"/>
<path fill="#000" d="M264.26,64.21v-.69c0-.53,0-1.06,0-1.59a.85.85,0,0,1,.05-.35c.57-1.39,1.14-2.79,1.73-4.2l.41,0H283.9a3.26,3.26,0,0,0,.54,0,1.29,1.29,0,0,0,1.07-1.19c0-.24,0-.48,0-.75H263.91V52.92h25.56c0,.1,0,.2,0,.29v3.06a4.26,4.26,0,0,1-.39,1.86,2.5,2.5,0,0,1-1.37,1.32,6.05,6.05,0,0,1-2,.4H269.06c-.24.59-.48,1.18-.75,1.82h22.61c0,.14,0,.23,0,.33,0,1.14,0,2.29,0,3.44a7.31,7.31,0,0,1-.19,1.48,2.34,2.34,0,0,1-1.53,1.75,7.07,7.07,0,0,1-2.45.4c-.58,0-1.16,0-1.74,0H273.44V66.6l.37,0H285.4a3.3,3.3,0,0,0,.83-.09.92.92,0,0,0,.73-.88c0-.45,0-.9,0-1.39Z"/>
<path fill="#000" d="M282,40.33c0-.14,0-.24,0-.34,0-.94,0-1.88,0-2.82a.67.67,0,0,1,.18-.48,13.62,13.62,0,0,0,2-2.95c.12-.25.22-.51.34-.79h4.21a15.28,15.28,0,0,1-1.94,2.41c-.71.73-1.45,1.42-2.21,2.16H285c.39,0,.78-.06,1.17-.07a.4.4,0,0,0,.35-.23c.27-.46.55-.91.83-1.36l.16-.26h4.22c-.08.13-.13.22-.19.3a27.78,27.78,0,0,1-3.05,3.54c-1,1-2,1.86-3,2.8a1.8,1.8,0,0,0-.32.35,29.94,29.94,0,0,0,3.39-.21,7.36,7.36,0,0,1-.43-2.27h2.94c0,.12,0,.24,0,.36.06.55.1,1.11.19,1.66a2.69,2.69,0,0,0,.56,1.18.56.56,0,0,1,.13.32c0,.76,0,1.52,0,2.28a.66.66,0,0,1,0,.13A9.29,9.29,0,0,1,290,44.58,54.94,54.94,0,0,1,282.07,46V42.53a26.78,26.78,0,0,0,2.21-2.38l-2.29.18"/>
<path fill="#000" d="M269.41,33a24.55,24.55,0,0,1-4,4.52,7.26,7.26,0,0,0,1.68-.06l1.13-1.82h4.23a37,37,0,0,1-3.09,3.69c-1.09,1.16-2.26,2.22-3.44,3.3a26.25,26.25,0,0,0,3.3-.17,10.61,10.61,0,0,1-.4-2.35h3a5.9,5.9,0,0,0,.68,3.37V46a5.18,5.18,0,0,1-1-.61c-.32-.24-.62-.5-.95-.77a51.65,51.65,0,0,1-7.62,1.31,24.06,24.06,0,0,1-.05-3.34c.39-.42.78-.81,1.15-1.21s.73-.81,1.1-1.22l0-.06-2.35.21V36.91a14.31,14.31,0,0,0,2.54-4Z"/>
<path fill="#000" d="M273.14,44.77h8.1c0,.1,0,.18,0,.25,0,1.23,0,2.46,0,3.69a4.27,4.27,0,0,1-.08.87,2.5,2.5,0,0,1-2.11,2.1,5.29,5.29,0,0,1-1.13.12h-4.56l-.23,0Zm4.76,2.42h-1.42v2.18c.28,0,.55,0,.82,0a.57.57,0,0,0,.6-.58c0-.52,0-1,0-1.59"/>
<path fill="#000" d="M258.84,53.37h2.9v.31a44.41,44.41,0,0,1-.51,6A15.18,15.18,0,0,1,260,63.79a10.44,10.44,0,0,1-4.16,4.52c-.45.27-.91.5-1.37.74l-.21.08v-4l.38-.27a9.11,9.11,0,0,0,3.46-5,15.24,15.24,0,0,0,.58-3.21c.08-1,.1-2.05.15-3.08,0-.06,0-.12,0-.22"/>
<path fill="#000" d="M254.39,32.66h4c0,.4.08.78.14,1.17a10.19,10.19,0,0,0,.61,2.49,4.85,4.85,0,0,0,2.07,2.44,1.13,1.13,0,0,1,.18.12v2.56h-.15a13.22,13.22,0,0,1-3.66-1.88,7.11,7.11,0,0,1-2.48-3.48,16.63,16.63,0,0,1-.72-3.18,1.76,1.76,0,0,1,0-.23"/>
<path fill="#000" d="M261.53,51.17a10.31,10.31,0,0,1-4.91-2.94,10.23,10.23,0,0,1-2.25-5.67h4l.06.47a11.34,11.34,0,0,0,.69,2.87,5.08,5.08,0,0,0,2.22,2.55l.1.07.06.06Z"/>
<path fill="#000" d="M272.84,37.08V34.65h2.75a3,3,0,0,1-.82-2h4.55a3.58,3.58,0,0,0,.35,2h1.8a11.84,11.84,0,0,1,0,2.44Z"/>
<path fill="#000" d="M281.24,38v2.36h-8.06a12.17,12.17,0,0,1,0-2.36Z"/>
<path fill="#000" d="M273.15,41.31h8.09v2.37h-8.06a12.23,12.23,0,0,1,0-2.37"/>
<path fill="#000" d="M263.27,46.49h2.9a7.14,7.14,0,0,1-.81,3.4,6.84,6.84,0,0,1-2.78,2.43c0-.12,0-.19,0-.27,0-.73,0-1.46,0-2.18a.69.69,0,0,1,.12-.39,3.17,3.17,0,0,0,.59-1.76c0-.4,0-.81,0-1.23"/>
<path fill="#000" d="M282.71,46.49h2.88a7.55,7.55,0,0,1-.77,3.35A6.45,6.45,0,0,1,282,52.32a1.39,1.39,0,0,1,0-.23V49.84a.53.53,0,0,1,.07-.28,3.57,3.57,0,0,0,.67-2.16c0-.3,0-.6,0-.91"/>
<path fill="#000" d="M269.45,46.48h2.3c.05,1.1-.07,2.21.68,3.16V52.3l-.21-.09a5,5,0,0,1-2.54-3.73c-.08-.65-.15-1.3-.23-2"/>
<path fill="#000" d="M291.82,52.31a5.25,5.25,0,0,1-2.73-3.78c-.08-.6-.12-1.21-.18-1.82v-.22h2.28v.34a5.81,5.81,0,0,0,.22,2c.09.24.23.46.34.69a.74.74,0,0,1,.1.27c0,.8,0,1.6,0,2.4a.53.53,0,0,1,0,.13"/>
<path fill="#000" d="M286.11,46.48h2.23c0,.12,0,.24,0,.36a6.93,6.93,0,0,0,.24,1.92,2.33,2.33,0,0,0,.26.63A1,1,0,0,1,289,50c0,.67,0,1.34,0,2,0,.09,0,.19,0,.28h-.08a5.28,5.28,0,0,1-2.67-4c-.05-.56-.1-1.13-.15-1.74"/>
<path fill="#000" d="M266.75,46.48h2.17v.33c0,.48,0,1,.07,1.44a2,2,0,0,0,.61,1.4v2.62a.22.22,0,0,1-.12,0,7.59,7.59,0,0,1-1.87-1.75,4.21,4.21,0,0,1-.72-1.86c-.08-.65-.11-1.31-.16-2a1.54,1.54,0,0,1,0-.19"/>
<path fill="#000" d="M368.84,69.07V66.4l.36,0h3.06c.21,0,.43,0,.63,0A1.32,1.32,0,0,0,374.16,65V52.41h-6.1v.36c0,1.69,0,3.38,0,5.07a13.34,13.34,0,0,1-1,5,11.12,11.12,0,0,1-1.82,2.91A18.36,18.36,0,0,1,361.56,69l-.15.09a2.5,2.5,0,0,1,0-.25c0-.72,0-1.44,0-2.16a1,1,0,0,1,.18-.58,13.85,13.85,0,0,0,2.11-4.54,14.52,14.52,0,0,0,.42-3.47c0-1.83,0-3.66,0-5.49,0-.06,0-.13,0-.24h-2.59V49.64h2.61V36.88h4.24a11.2,11.2,0,0,0,.6-4.22h4.46a8.4,8.4,0,0,1-1.76,4.18c.75,0,1.45,0,2.15,0h4.32c0,.14,0,.25,0,.35V64.86a6.51,6.51,0,0,1-.24,2,2.72,2.72,0,0,1-1.92,2,7.89,7.89,0,0,1-2.1.3H369l-.19,0m-.74-29.43c-.07.39-.05,9.76,0,10h6v-10Z"/>
<path fill="#000" d="M382.22,45.14h13.67c0,.14,0,.28,0,.41V65.13c0,.91.29,1.2,1.2,1.2.54,0,1.08,0,1.62,0H399a16.29,16.29,0,0,1,0,2.73,1.71,1.71,0,0,1-.25,0c-1.18,0-2.36,0-3.54,0a10.11,10.11,0,0,1-1.34-.12,2.11,2.11,0,0,1-2-2.06,10.14,10.14,0,0,1-.07-1.23V47.86h-5.58c0,.13,0,.26,0,.38q0,3.48,0,7a35,35,0,0,1-.21,4.46,10.22,10.22,0,0,1-1.75,4.91,11.83,11.83,0,0,1-2.88,2.81c-.8.56-1.64,1-2.46,1.56l-.18.09a15.56,15.56,0,0,1-.05-2.61c.46-.5.93-1,1.34-1.46a8.55,8.55,0,0,0,1.84-4.1,25.14,25.14,0,0,0,.3-4.06V45.14Z"/>
<path fill="#000" d="M379.52,40.34V37.67h8.32a10.39,10.39,0,0,1-1.94-5h4.33a10.57,10.57,0,0,0,1,5h7.36v2.68Z"/>
<path fill="#000" d="M373.22,61.67l-.31-.14a6.09,6.09,0,0,1-3.33-4.22,14.21,14.21,0,0,1-.34-3.18,1.92,1.92,0,0,1,0-.22h2.9c0,.12,0,.22,0,.33,0,.7,0,1.4.06,2.09a5.43,5.43,0,0,0,.43,1.86,8.43,8.43,0,0,0,.54.88Z"/>
<path fill="#000" d="M369.27,41.14h2.9c0,.53,0,1,.08,1.54a9.47,9.47,0,0,0,.17,1.19,2.61,2.61,0,0,0,.8,1.49v2.7l-.32-.12a5.76,5.76,0,0,1-3.24-3.68,10.16,10.16,0,0,1-.42-2.95,1.55,1.55,0,0,1,0-.17"/>
</svg>
