<?xml version="1.0" encoding="UTF-8"?>
<svg xmlns="http://www.w3.org/2000/svg" viewBox="0 0 252 70">
<title>Juneyao Air logo</title>
<desc>吉祥航空公司</desc>
<path fill="#BB9271" d="M49.2,32.2l-0.4-0.3l0.3-0.3c2.3-0.2,4.4-0.6,6.3-1.5c2.4-1,4-2.2,4.6-3.4c0.7-1.3,0.6-2.8,0.1-3.6
	c-0.5-0.9-1.6-1.5-2.6-1.1c-0.7,0.3-1.1,1.1-0.8,1.8c0.2,0.5,0.8,0.8,1.4,0.6c0.2-0.1,0.3-0.2,0.4-0.4c0.1-0.2,0.1-0.4,0-0.6
	l0.2-0.4l0.4,0.2c0.1,0.4,0.1,0.7,0,1.1c-0.2,0.3-0.4,0.6-0.8,0.8c-0.8,0.3-1.8-0.1-2.2-1c-0.4-1,0.1-2.2,1.1-2.7
	c1.3-0.5,2.8,0.3,3.4,1.4c0.5,0.9,0.7,2.7-0.1,4.2c-0.8,1.3-2.4,2.5-5,3.7C53.6,31.5,51.5,32,49.2,32.2 M47.7,34
	c0.8-0.9,2-1.1,2.9-0.5c0.8,0.5,1,1.6,0.4,2.4c-0.4,0.7-1.4,0.8-2,0.3l-0.1-0.4l0.4-0.1c0.4,0.3,0.9,0.2,1.1-0.2
	c0.4-0.5,0.2-1.2-0.3-1.5c-0.7-0.5-1.6-0.2-2.1,0.4c-0.8,0.9-2.1,1.5-3.2,0.7c-0.9-0.6-1.2-1.8-0.6-2.7c0.2-0.4,0.6-0.6,1-0.7
	c0.4-0.1,0.8,0,1.2,0.2l0.1,0.4l-0.4,0.1c-0.2-0.1-0.5-0.2-0.7-0.1c-0.3,0.1-0.5,0.2-0.6,0.5c-0.4,0.6-0.2,1.5,0.4,1.9
	C46.1,35.2,47.1,34.7,47.7,34 M41.2,13.9c-1.1,0.2-2.9,0.1-5-0.8c1.4-1.2,2.9-2.4,3.9-2.6c0.9-0.2,2.1,0,2.4,1.1l0,0
	c-0.1-0.2-0.3-0.3-0.5-0.4c-0.7-0.3-1.5-0.1-1.8,0.5c-0.3,0.6,0.1,1.4,0.8,1.7c0.3,0.1,0.5,0.2,0.8,0.1
	C41.6,13.8,41.4,13.9,41.2,13.9 M6.3,37.8c-1.1,1.8-0.9,4.3,0.1,6.1c1.3,2.5,4,3.1,5.3,3.5c-0.8,1.2-1.7,3.5-0.3,5.9
	c0.1,0.2,0.2,0.4,0.4,0.6c1.2,1.7,3.4,3.4,5.8,4.8c7,3.8,14.1,1.9,16.6-0.1c1.5-1.3,2.4-2.4,3.5-3.7c0.9-1,1.8-2.1,3-3.4
	c2.8-2.8,7.4-3.7,10.4-2.2c1.8,0.9,2.4,2.2,2.6,3.1c0.3,1.1,0.1,2.2-0.5,3.1c-0.7,1-2.3,1.7-3.8,1.7c0.7,0.2,1.5,0.3,2.3,0
	c1.7-0.4,3.1-1.9,3.2-4.1c0.1-2.5-1.7-4.7-3.9-5h0.6c7,0.5,11.9-2.2,12-7.7c0-2.8-1.2-4.7-2.9-5.9c1.2,1.4,1.7,3.4,1.6,5.2
	c-0.3,4-3.5,6.1-9.7,6.1c-1.2,0-9.6-0.1-17.7-0.1c-7.3,0-14.7-0.1-16.7-0.1c-2.5,0-5.6,0.7-5.9,3.9c-0.1,0.8,0.2,1.6,0.7,2.2
	c0.6,0.8,1.6,1.2,2.5,1.3c1,0.1,2-0.3,2.6-0.9c0.4-0.5,0.5-1.1,0.3-1.6v0c-0.4-0.8-1.2-1.1-1.8-0.5c0.2,0.7-0.4,1.4-1.3,1.2
	c-0.5-0.1-1.7-0.9-0.9-2.3c0.5-0.9,1.2-1.2,4.3-1.2c2.4,0,16.4,0.3,25.4,0.3c-0.9,0.2-1.7,0.6-2.2,0.9c-1.6,0.9-4,2.8-5,4.6
	c-0.2-2-1.3-4-3.3-4.6c-1.8-0.5-3.4-0.2-4.6,0.9c-0.2,0.2-0.4,0.4-0.6,0.7c0.7-0.5,1.7-0.9,2.8-0.9c1.5-0.1,2.9,0.6,3.7,1.9
	c0.8,1.3,0.9,2.8,0.3,4.2l-0.4,0.2l-0.2-0.4c0.5-1.2,0.4-2.5-0.3-3.6c-0.7-1.1-1.9-1.7-3.2-1.6c-1.4,0.1-2.4,0.6-3,1.4
	c-0.3,0.5-0.5,1-0.5,1.5l0,0.4l0,0.2l0,0.1c0.2,0.9,0.8,1.9,1.5,2.1c0.8,0.3,1.7-0.5,1.6-1c-0.5-0.1-0.8-0.6-0.7-0.9
	c0.1-0.3,0.5-0.9,1.1-1c0.6,0,1.5,0.3,1.5,1.6c0,0.7-0.5,1.6-1.4,2.2c-0.8,0.5-2.1,1.3-5.8,1.1c-3.8-0.1-6.7-1.3-8.1-2.3
	c-0.6-0.4-1.3-1.1-1.8-1.5c1.1-0.3,1.9-0.9,2.3-1.6c-0.7,0.7-1.8,1.1-2.9,1c-1.1-0.1-2.2-0.6-2.9-1.5c-0.6-0.8-1-1.7-0.9-2.7
	c0.2-2.9,2.6-4.5,6.5-4.5c2,0,9.5,0,16.7,0.1c8.1,0.1,16.5,0.1,17.7,0.1c5.8-0.1,8.8-1.9,9.1-5.6c0.2-2.8-1.2-5.9-4.7-6.5
	c-1.6,0.8-3.4,1.4-4.5,1.6l-0.3-0.3l0.2-0.3c1-0.2,2.5-0.6,3.9-1.3c0.7-0.4,1.3-0.7,3-1.9c2.6-1.8,4.5-5.1,2.7-8.3
	c-1.6-2.8-4.9-3.1-6.6-1.7c-1,0.9-1.2,2.4-0.8,3.3c0.3,0.8,1.2,1.6,2,1.6c-0.2,0.3-0.4,0.5-0.6,0.7c-1.9,1.7-4.6,1.8-8.6,1.8
	l-0.9,0h-0.5c-2.2,0-6,0-7.8,2.5c-0.8,1-0.9,2.4-0.4,3.4c0.7,1.4,2.5,2.1,5.1,2.1l0.3,0.3l-0.3,0.3c-3.7,0-5.1-1.4-5.7-2.5
	c-0.6-1.2-0.4-2.8,0.4-4c2-2.8,6.1-2.8,8.3-2.8h0.5h0.9c2.8,0,4.8-0.1,6.5-0.6C52.8,27,50.9,27,48.3,27c-5.6,0-11.1-0.3-12.8,4.5
	c-2.1,0.1-3.1,0.1-4.1,0.1c0.4-2.2-0.4-4.7-2.3-5.2l0.1,0.1c1,0.9,1.9,2.8,1.1,5.5c-0.7,2.6-3.6,3.9-6.8,3.2l-0.2-0.4l0.4-0.2
	c2.9,0.6,5.4-0.5,6.1-2.8c0.6-2.2,0-4-0.9-4.9c-0.6-0.5-1.2-0.6-1.8-0.3h0c-0.7,0.4-0.8,1.2-0.7,1.7c0.6-0.2,1.6-0.2,1.8,0.8
	c0.2,1-0.7,1.9-2.3,1.5c-1.4-0.4-2.1-2.6-1.1-4.5c0.9-1.7,2.5-2.7,3.7-3.2c-0.3-0.7-0.2-1.5,0.1-2.2c0.3-0.7,0.9-1.2,1.6-1.5
	c0.6-0.2,1.2-0.2,1.8,0.1c0.6,0.2,1,0.7,1.2,1.3c0.2,0.5,0.2,1,0,1.5c-0.2,0.5-0.6,0.9-1.1,1c-0.4,0.2-0.8,0.1-1.2,0
	c-0.4-0.2-0.7-0.5-0.8-0.9c-0.1-0.3-0.1-0.7,0-1c0.2-0.3,0.4-0.6,0.7-0.7l0.4,0.2L30.8,21c-0.2,0.1-0.3,0.2-0.4,0.4l0,0.5
	c0.1,0.3,0.3,0.4,0.5,0.5c0.2,0.1,0.5,0.1,0.7,0c0.3-0.1,0.6-0.4,0.7-0.7c0.1-0.3,0.2-0.7,0-1c-0.2-0.4-0.5-0.7-0.9-1
	c-0.4-0.2-0.9-0.2-1.3,0c-0.5,0.2-1,0.6-1.2,1.2c-0.2,0.5-0.3,1.1-0.1,1.7c0.4,1.1,2.1,1.9,3.5,1.3c1.8-0.8,2.7-2.5,5.3-3.8
	c3-1.5,4.8-1.3,5.7-0.9c1.3,0.7,0.8,2.4,0,2.5c-0.8,0.1-1.2-0.3-1.1-0.7c-0.7-0.1-1.1,0.6-0.9,1.1c0.2,0.5,1.3,1.4,3.1,1.2
	c1.8-0.2,3.1-1.8,3.2-3.3c0.1-1.6-0.3-2.6-1-3.3c1-0.1,3.2,0.1,3.9,0.2c1.5,0.2,2.3,0.8,2.3,1.5c0,0.5-0.6,1.2-1.2,0.6
	c-0.7,0.2-0.9,0.7-0.7,1.3c0.3,1,1.8,1.2,2.9,0.8c1-0.3,1.9-1.4,2.2-2.5c0.4-1.6,0.1-3.7-1.9-5.3c-1.9-1.6-4.6-1.5-6.3-1.6
	c-1.9-0.1-1.3-0.5-1.7-2.2c-0.3-1.3-1.5-2.8-3.6-3.2c-2.1-0.4-3.6-0.2-6.6,1.3c-2.9,1.4-5.1,3-7,3.7c-1.9,0.7-3.4,1-4.3,0.6
	c-0.8-0.4-0.6-1.2-0.4-1.5c0.3-0.3,0.8-0.7,1.4-1c-0.3-0.6-0.8-1.3-1.1-1.7c-0.2,0-0.5,0.1-0.8,0.2l-0.9,0.5c-1.5,0.8-3,2.8-2,4.9
	c0.9,1.7,3.4,2.3,6.9,1.5c2.9-0.7,5.9-2.6,8.3-4.1c0.8-0.5,1.6-0.9,2.2-1.3c1.4-0.8,2.9-1,4-0.5c0.9,0.3,1.4,1,1.7,1.9l-0.2,0.4
	l-0.4-0.2c-0.2-0.7-0.7-1.3-1.3-1.5c-1-0.4-2.2-0.2-3.5,0.5c-0.6,0.4-1.4,0.8-2.2,1.3C34,13,31,14.9,28,15.6
	c-3.8,0.9-6.6,0.2-7.6-1.8c-0.8-1.6-0.3-3.1,0.5-4.3c-0.4,0.3-0.8,0.6-1.1,0.9c-1.1,1.4-0.7,3.3-0.1,4.2c-1.6,0.3-3.3,0.6-5.4,1.6
	c-2.1,1-4.1,2.3-5.3,3.8c-1.3,1.5-1.8,2.8-2,4.4c-0.2,1.2,0.1,2.7,0.6,3.5c0.6,0.9,1.8,1.8,3.3,1.9c1.2,0.1,2.6-0.3,3.3-1.2
	c0.5-0.6,0.7-1.3,0.8-2c-0.4,1-1.2,1.8-2.1,2.1c-1.9,0.7-3.7,0.1-4.6-1.5c-1.1-2-0.4-4.7,1.8-6.6c1.1-1,5.2-4.1,10.8-4.1l0.3,0.3
	L21,17.2c-5.4,0-9.3,3.1-10.4,4c-2,1.7-2.7,4-1.7,5.8c0.7,1.3,2.3,1.8,3.9,1.2c0.8-0.3,1.5-1,1.8-2c0.2-0.6,0.3-1.3,0.1-1.7
	c-0.2-0.4-0.5-0.7-0.7-0.9c-0.3,0.3-0.7,0.7-1,0.8c0.1,0.7,0.2,1.2-0.2,1.6c-0.3,0.3-1,0.5-1.4-0.1c-0.6-0.8-0.2-2.3,0.6-3.2
	c0.8-0.8,2-1.7,3.2-2.2c1.2-0.5,2.3-0.8,3.4-0.5c-1.1,1.3-2.3,3.3-2.8,4.7c-0.5,1.4-1.4,5.3,0.3,8.5c2.1,3.9,5.4,6.7,12.9,6.8h1.3
	c-2.6-0.4-4.7-1-6.5-1.8c-4-1.8-6.1-4.8-6.4-9.1c-0.5-6.1,4.2-9.7,8.8-11l0.4,0.2l-0.2,0.4c-4.3,1.3-8.8,4.6-8.4,10.4
	c0.6,7.9,7.3,11.1,22.4,10.9l0.1,0C45.8,40,50.5,40,51.7,40c1.3,0,2.8,0,2.8,1c0.5-0.2,0.7-0.5,0.7-0.8c0-0.5-0.7-1.2-1.9-1.3
	c-1.5-0.1-4.4-0.1-7.4-0.1c-3.6,0-7.4,0.1-9.6-0.1L36,38.4l0.3-0.3c2.2,0.2,6,0.2,9.6,0.1c3.1,0,5.9-0.1,7.4,0
	c1.5,0.1,2.5,1,2.5,1.9c0,0.3-0.2,1.3-2.1,1.7c-0.4,0.1-1.1,0.1-1.9,0.2c-2.2,0.2-29.1-0.1-32.4,0c-2.2,0-5.8,0.4-7-0.3
	c-1.1-0.7-1.6-1.5-1.2-2.4c0.3-0.7,1.9-0.6,1.9,0.5c0.7,0.5,1.7,0,1.9-1.1v-0.3c-0.1-0.6-0.4-1.1-1-1.5c-1-0.7-2.4-0.8-3.4-0.6
	c-0.9,0.2-1.7,0.8-2.2,1.7c-0.6,0.9-0.8,2.1-0.6,3c0.4,2,2.1,3.5,4,3.7l0.3,0.3l-0.3,0.3c-2.2-0.3-4.1-2-4.6-4.2
	c-0.2-1.1,0-2.4,0.7-3.5c0.6-1,1.6-1.7,2.6-2c0.9-0.2,2.2-0.1,3.3,0.3c-0.6-0.6-1.5-1-2.3-1.1C9.4,34.8,7.5,36,6.3,37.8 M34.6,59
	c-1.9,1.6-6.6,3.1-11.9,2.1c0.9,0.3,1.7,0.6,2.3,0.7c3.1,0.6,6,0.3,8.3-0.4c2.6-0.9,5.3-3.1,7.5-5.2c2.6-2.4,5.1-4.5,7.2-4.7
	c1.6-0.1,2.6,0.4,2.8,1.4c0.1,1.4-1.6,1.3-1.5,0.5c-0.5-0.3-1-0.2-1.3,0.1c-0.4,0.5-0.4,1.6,0,2.2c0.4,0.5,1.1,0.6,1.5,0.6
	c1.3,0.1,2.7-0.5,3.3-1.4c0.3-0.5,0.6-1.5,0.4-2.6c-0.2-0.7-0.7-1.8-2.3-2.6c-2.4-1.2-6.8-0.8-9.7,2.1c-1.3,1.3-2.1,2.3-3,3.3
	C37.1,56.6,36.1,57.8,34.6,59 M34.6,0.9c-18.8,0-34,15.2-34,34c0,18.8,15.2,34,34,34c18.8,0,34-15.3,34-34
	C68.6,16.1,53.4,0.9,34.6,0.9 M34.6,67C16.9,67,2.5,52.6,2.5,34.8c0-17.7,14.4-32.1,32.1-32.1c17.7,0,32.1,14.4,32.1,32.1
	C66.7,52.6,52.3,67,34.6,67 M34.6,3.3C17.3,3.3,3.1,17.5,3.1,34.8c0,17.4,14.1,31.5,31.5,31.5c17.4,0,31.5-14.1,31.5-31.5
	C66.1,17.5,52,3.3,34.6,3.3 M3.7,34.8C3.7,17.8,17.6,4,34.6,4c17.1,0,30.9,13.8,30.9,30.9c0,17.1-13.9,30.9-30.9,30.9
	C17.6,65.7,3.7,51.9,3.7,34.8"/>
<path fill="#4F1024" d="M230.8,42.1c1-0.7,1.8,0.1,2.6,0.8c1.2,0.9,2.5,1.7,3.8,2.5c0.1,0.1,2.4,1.2,1.7,1.5c-1.9,0.7-6.5-0.4-8.2-1.7
	C229.6,44.3,229.6,42.9,230.8,42.1"/>
<path fill="#4F1024" d="M173.8,46.5c0-1.7-0.1-2.9-0.4-4.6c-0.2-0.8-0.3-2.1,0.5-2.6c1-0.7,2.4-0.4,3.6-0.5c1.1-2.6,1-4.5,2.2-4.7
	c0.5-0.1,1.6,0.3,2,1.6c0.3,0.7-0.6,1.6-0.9,1.8c-0.6,0.5-1,1-1.2,1.2h4.8c2,0,2.2,1.3,1.8,2.9c-1.1,5-0.7,10.2-0.4,15.3
	c0.5,0.2,0.9,0.3,1.5,0c1.4-0.6,2.6-1.8,3.2-3.2c1-2.4,0.5-4.9,0.5-7.5c0-0.7-0.1-1.4,0.4-1.9c0.5-0.7,1.5-0.7,2.3-0.7
	c1.5,0,2.9,0,4.4,0c0.9,0,2,0,2.7,0.7c0.5,0.5,0.6,1.3,0.5,2c-0.1,1.6-0.4,3.3-0.4,4.9c-0.1,3.5,0.6,4.1,1.3,4.9
	c1.2,1.4,4,1.1,5.6,0.4c0.6-0.3,1.5,0,1.5,0.7c0,1.7-2.4,2.6-3.7,2.9c-2.3,0.7-5.1,0.4-6.4-1.8c-0.6-1-0.8-2.2-0.9-3.3
	c-0.2-2.7,0.3-4.9,0.1-7.6c-0.1-1.9-2.2-2.4-3.7-1.6c-0.8,0.4-0.8,1.4-0.8,2.2c-0.1,1.1,0,2.3-0.1,3.4c-0.3,2.4-1,4.6-2.6,6.4
	c-0.7,0.8-1.5,1.4-2.5,1.6c-1,0.1-1.9-0.3-2.6-1.1c-0.2,1.7-1.3,2.9-3.4,2.9c-1.1,0-2.4-0.7-3.3-1.2c-0.5-0.3-1.8-1-1.5-1.7
	c0.1-0.4,0.8-0.2,1.1-0.1c0.5,0.1,0.9,0.3,1.4,0.3c0.9,0.1,2.1,0.2,2.8-0.5c0.3-0.2,0.4-0.7,0.4-1.1v-8.7c-1.5,0-4.4,0.1-6.9,0.3
	c-0.5,2.9-1.1,5.4-1.9,7.6c-0.5,1.5-1.2,2.9-2.6,4c-1.1,0.8-2.3,1-3.7,0.3c-0.8-0.3-0.9-1-0.4-1.4c1.4-1.1,3-2,3.7-3.3
	c1.4-2.3,2-4.8,2.3-7.2c-2.3,0.2-3.8,0.6-4.9,0.7c-0.8,0.1-1.4-0.3-1.5-1.1c-0.1-1.2,0.5-1.8,1.5-1.8H173.8z M176.4,46.5h6.9
	c0.1-1.1,0.2-2.2,0.2-3.3c0-0.6,0.1-1.4-0.1-2c-0.3-0.8-1.3-0.9-2-0.9c-0.9-0.1-1.8,0-2.7,0.1c-0.5,0.1-1,0.1-1.4,0.3
	c-0.8,0.1-0.8,0.5-0.8,1.3C176.5,43.4,176.4,44.9,176.4,46.5 M202.6,38.9c0.7,0,4.1-0.3,4,0.6c0,0.5-0.8,1.1-1.1,1.3
	c-1.2,0.8-2.1,0.3-5.1,0.3c-6,0-9.6,0.1-11.1,0.6c-0.6,0.1-1.6,0.3-1.9-0.5c-0.3-1,0.5-2,1.3-2.2c0.7-0.2,1.3-0.2,2-0.1
	c0.9,0,2.6,0,3.6-0.1c0.1-0.9-0.3-2,0.2-2.8c0.5-0.8,1.6-1,2.3-0.8c1.4,0.5,1.4,2.2,1.3,3.6H202.6z M180.1,41.8
	c0.4,0.5,0.4,1.1,0.6,1.6c0.1,0.5,0.5,1.1,0.5,1.6c0,0.5-0.2,0.7-0.8,0.7c-0.7,0-1.4-0.3-1.8-1.1c-0.3-0.5-0.8-1-0.8-1.8
	c0-0.7,0.6-1.3,1.1-1.5C179.5,41.3,179.9,41.5,180.1,41.8 M179.8,50.1c0.3,0.4,0.6,0.9,0.8,1.3c0.2,0.4,1.7,3.4,0.6,3.4
	c-0.4,0-0.7-0.5-1-0.7c-0.4-0.4-0.8-0.7-1.2-1.1c-0.6-0.6-1.8-1.6-1.7-2.5c0.1-0.7,0.9-1.3,1.6-1C179.3,49.6,179.6,49.8,179.8,50.1"/>
<path fill="#4F1024" d="M229.6,34.3c0.6,0.3,1,0.8,1.2,1.5c0.2,0.8,0.1,1.4,0,2.2c3.1,0,6.1,0,9.2,0c1.1,0,2,0.1,2.8,0.8
	c0.9,0.9,0.9,2.3,0.9,3.5c0,1.3-0.2,2.6-0.4,4c-0.1,0.8-0.1,1.8-0.5,2.4c-0.5,0.7-1.1,0.4-1.6-0.2c-0.5-0.7-0.4-1.7-0.5-2.5
	c-0.1-1.3,0.1-4.8-1.6-5.2c-3.2-0.7-5.3-0.6-8.3-0.8c-4.7-0.1-9.1,0-13.3,0.8c-1.9,0.4-1.7,4-1.8,5.5c-0.1,0.9,0,1.6-0.3,2.5
	c-0.4,1.1-1.4,0.8-1.9-0.8c-0.4-1.6-0.7-3-0.7-4.6c0-1.5-0.1-3.5,0.6-4.6c0.4-0.6,1.2-0.8,1.7-0.8h10.5c0.8,0,0.1-1.3,0.4-2.2
	C226.7,34.2,228.3,33.7,229.6,34.3"/>
<path fill="#4F1024" d="M223.5,42.8c0.7-0.6,1.4-1.2,2.2-0.7c1.2,0.6,1.5,1.1,0.7,2.1c-0.9,1.2-2.2,1.9-3.5,2.5
	c-1.3,0.5-2.8,1-4.2,0.7c-0.4-0.1-1.3-0.1-1.2-0.5c0.2-0.6,2-1.3,2.9-1.8C221.4,44.3,222.5,43.7,223.5,42.8"/>
<path fill="#4F1024" d="M223,49.2h9.9c1.2,0,5-0.2,4.9,0.8c-0.1,1.2-1.4,1.6-2.2,1.6c-1.8,0-4.6-0.3-5.5,0.2c-0.7,0.4-0.7,4.7,0.3,5
	c0.9,0.3,3.7,0.2,5.4,0.2c3.4,0,6.6-0.1,10,0c0.7,0,1.6,0,2.1,0.5c0.7,0.8-0.5,1.6-1,2c-1.4,1.1-3.1,1.2-4.8,0.9
	c-4.9-0.7-9.7-1.2-14.6-1.3c-4.2-0.1-7.1,0.2-11.2,0.8c-1.2,0.2-2.4,0.5-3.5,0.6c-0.8,0.1-1.7-0.1-1.8-1c-0.1-0.8,0.7-1.5,1.5-1.9
	c0.9-0.5,2.8-0.7,4.2-0.7c2.2,0,3.3,0.1,5.6,0c1.4,0,3.7,0.4,4-0.7c0.3-1,0.2-2.7,0.1-3.8c-0.1-1.4-3.3-0.8-4.4-0.7
	c-0.9,0.1-2,0.2-2.9-0.1c-0.9-0.3-0.8-1.6,0-2.1C220.1,49,221.7,49.2,223,49.2"/>
<path fill="#4F1024" d="M101.8,38.9c0.6,0,1-0.4,0.9-1.1c-0.2-0.9-0.7-2.7,0.2-3.4c0.3-0.2,0.8-0.3,1.2-0.3c1.3,0.2,3.6,1.2,3,2.7
	c0,0-0.6,2.1,0.5,2.1c0,0,11.5,0,12.5,0c0.8,0,3.1-0.2,3.3,0.6c0.2,0.8-0.3,1.7-0.9,2.3c-0.7,0.6-1.5,0.7-2.4,0.7
	c-1.4,0-2.3-0.4-3.2-0.5c-1.7-0.3-2.8-0.5-5.4-0.7c-2.1-0.2-3.7-0.3-4.3,0c-0.5,0.2-0.5,1-0.5,1.4c0,0.5-0.1,1.4,0.4,1.8
	c0.4,0.3,0.8,0.3,1.3,0.3c0.6,0,1.1,0,1.7,0c2.1,0.1,4.2,0,6.2,0.2c0.7,0.1,2.4,0.1,2.7,1c0.2,0.6-0.5,1.1-0.9,1.3
	c-0.9,0.3-2,0.2-3,0.2l-6.9-0.2c-0.2,0-5.8,0-8.3,0.1c-2.2,0.1-4.5,0.1-6.6,0.6c-0.7,0.2-1.5,0.5-2.2,0.1c-0.6-0.3-0.7-1.1-0.5-1.7
	c0.4-1.2,2-1.5,3-1.6c2.2-0.1,4.5,0,6.7,0c0.7,0,2.3,0.2,2.7-0.3c0.4-0.5,0.7-3-0.7-3.3c-1,0-2,0.1-3,0.2c-2.5,0.2-5,0.3-7.5,0.6
	c-1,0.1-2,0.6-3,0.7c-0.7,0.1-1.6,0.1-1.7-0.8c-0.2-0.8,0.1-1.5,1.1-2.3c1.5-1.1,8.3-0.7,10-0.7H101.8z M104.9,50
	c5.5,0,11.2,0.3,11.6,0.4c1.3,0.3,1.7,1,1.7,1.3c0.1,1.1-0.4,2.2-0.6,3.2c-0.4,1.9-1,4.6-1.6,5.7c-0.4,0.9-1.8,0.7-2.8,0.4
	c-2.2-0.6-4.5-0.9-6.8-1c-2.1-0.1-4.3,0-6.4,0.2c-0.6,0.1-1.2,0.2-1.8,0.3c-0.4,0.1-0.8,0.2-1.2,0.3c-0.9,0.3-2.1,0.6-2.8-0.1
	c-0.7-0.7-0.8-1.7-0.9-2.6c-0.2-1.5-0.2-1.6-0.7-3.3c-0.1-0.5-0.6-1.7-0.7-2.2c-0.1-0.7,0.1-1.5,0.6-1.9c0.5-0.4,1.2-0.5,1.8-0.5
	C94.5,50.2,99.6,50,104.9,50 M105.1,57.5c2.3,0,4.6,0.4,6.9,0.5c0.7,0,1.4,0,1.8-0.6c0.4-0.6,0.4-1.4,0.4-2.1
	c0-0.7,0.1-1.3-0.2-1.9c-0.3-0.6-1-0.7-1.6-0.8c-0.9-0.1-1.9-0.1-2.8-0.1c0,0-6.5-0.1-8.9,0c-0.9,0-1.8,0-2.7,0.2
	c-0.6,0.1-1.2,0.1-1.5,0.8c-0.4,0.7-0.2,1.3-0.1,2.1c0.1,0.7,0.2,1.7,0.9,2.2c0.8,0.5,1.9,0.2,2.7,0.1
	C101.6,57.6,103.3,57.4,105.1,57.5"/>
<path fill="#4F1024" d="M137.1,51c0.1,2.2,0.2,5.1,0.1,7.3c0,0.5,0,1.1-0.2,1.6c-0.4,0.9-1.9,1.8-2.5,0.8c-0.9-1.2-0.5-2.6-0.3-4
	c0.2-1.3,0.8-7.4,0-7.4c-0.5,0-1,0.9-2.9,2.1c-1.9,1.3-2.7,2-4.5,2.1c-0.8,0.1-1.6,0.1-2.3-0.3c-0.5-0.3-1-0.7-1.1-1.3
	c-0.2-0.6,0.2-1.1,0.9-1.2c2.4-0.1,3.6-0.4,5.4-1.2c1.2-0.6,2.3-1.2,3.5-2c1-0.7,2-1.8,2.6-2.8c0.3-0.5,0.3-1-0.2-1.4
	c-0.6-0.4-7.1,1.3-8,0c-0.5-0.7-0.3-1.3,0.2-1.9c0.7-0.8,2.4-0.7,3.5-0.6c1.9,0,5.6-0.1,6.5-0.2c0.8-0.1,2-0.1,2.5,0.6
	c0.5,0.7-0.2,1.6-0.7,2.2l-1.3,1.8c0.8,0.6,1.2,0.9,2,1.3c0.8,0.4,2,0.7,2.1,1.5c0.1,0.5-0.4,0.9-0.9,0.9c-1.2,0-3-1.1-3.3-1.2
	c-0.6-0.1-1,0.3-1.1,0.9L137.1,51z M140.9,38.2c-1,0.7-3.8,0.7-8.2,0.5c-2.1,0-3.1-0.5-3-1.8c0-0.4,0.3-1,1.2-1.5
	c0.7-0.4,1.7-0.4,2.3-0.2c2.2,1.2,4.1,2,6.6,2C141.1,37.3,141.4,37.9,140.9,38.2 M149.9,54.2c-0.3-0.2-0.8-0.2-1.4-0.1
	c-1,0.1-2,0.2-3,0.4c-1.6,0.3-1.9,0.3-3.3,0.6c-1,0.2-1.6,0.3-1.9,0.1c-0.3-0.2-0.9-0.6-0.8-1.4c0.2-1.4,1.9-1.6,3.5-1.7
	c1.7-0.1,6.2,0.2,7.1-0.4c0.6-0.4,0.8-2,0.5-2.8c-0.1-0.3-0.4-0.5-0.6-0.6c-0.8-0.3-2.6-0.2-3.4-0.2c-0.8,0-1.7,0.1-2.7,0
	c-0.4-0.1-0.8-0.4-0.8-1c0.1-1.6,3-1,4.3-1.1c0.4,0,2.3,0.1,2.7-0.2c0.4-0.4,0.3-0.9,0.3-1.5c0-0.6,0-1.8-0.9-1.8
	c-0.9,0-3.7,0.1-4.6,0.1c-1.5,0-3.1,0.2-3.2-0.9c0-1.9,2.7-1.4,4.6-1.4c0.7,0,1.4,0,2.1,0c0.2,0,0.4-0.1-0.1-0.5
	c-0.3-0.2-0.8-0.4-1-0.5c-0.8-0.5-1.9-1.1-2.1-2c-0.3-1.2-0.2-2.6,1.2-2.7c2.6-0.3,2.5,3.4,3.5,4.9c0.1,0.2,0.3,0.5,0.9,0.7
	c0.1,0,2,0.2,2.4-0.2c0.2-0.2,0.8-0.3,1.6-2.3c0.3-0.7,0.6-2.5,0.8-2.8c0.2-0.3,0.4-0.6,1-0.7c0.7,0,1.4,0.4,1.9,1.1
	c0.5,0.7,0.6,1.8,0,2.4c-0.2,0.3-3.5,2.7-3.5,2.7h1.7c1.2,0,2.4,0,3.6,0c0.7,0,1.3,0,2,0.2c0.5,0.2,0.3,1.3-0.7,1.8
	c-1,0.5-4.2,0.3-5.8,0.2c-0.6,0-1.7-0.1-2,0.6c-0.2,0.6-0.2,1.4-0.2,2c0,1,0.9,1,1.8,1c1.4,0,2.9-0.1,4.4,0c0.5,0,1.4,0.2,1.2,0.9
	c-0.1,0.7-0.9,1.2-1.5,1.2c-1.4,0.1-2.5,0-3.7,0c-0.5,0-1.9-0.2-2.1,0.5c-0.2,0.6-0.1,2.1,0,2.6c0.1,0.9,2,0.6,4.2,0.7
	c2.5,0.1,7.1-0.5,7.7,0.3c0.4,0.5,0.1,1.1-0.9,2c-1,0.9-2.1,0.8-4.6,0.5c-1.5-0.1-6.2-1.5-6.3,0.3c0,0.7,0,1.4,0,2.1
	c0,0,0.2,1.5,0.1,2.2c-0.1,0.7-0.3,2.3-2.1,2.3c-0.9,0-1.7-1.5-1.5-2.7c0.1-1.1,0.3-2,0.4-3.1C150.4,54.9,150.3,54.4,149.9,54.2"/>
<path fill="#4F1024" d="M192.4,11.4c-2.9,0-4.8,2.2-4.8,6.1c0,3.9,1.9,6.2,4.8,6.2c2.9,0,4.7-2.3,4.7-6.2
	C197.1,13.5,195.2,11.4,192.4,11.4 M192.2,26.7c-5,0-8.4-3.7-8.4-9.1c0-5.5,3.6-9.4,8.7-9.4c5.9,0,8.5,4.6,8.5,9.1
	C201,23.1,197.6,26.7,192.2,26.7"/>
<path fill="#4F1024" d="M164.2,8.5l-3.9,7.1l-0.3,0.2l-0.2-0.1l-4-7.2h-3.5L158,19v7.3h2.6c0.7,0,1.2-0.5,1.2-1.2V19l5.9-10.5H164.2z"/>
<path fill="#4F1024" d="M239.9,16.7H238v-5.8h2.2c2.1,0,3.4,1,3.4,2.8C243.5,15.6,242.1,16.7,239.9,16.7 M243.8,18.2l-0.6-0.2l0.8-0.3
	c1.5-0.6,3.1-2.1,3.1-4.2c0-1.6-0.5-2.8-1.6-3.7c-1.1-0.9-2.9-1.3-5.9-1.3h-5.2v17.9h2.2c0.8,0,1.4-0.6,1.4-1.4v-6h1.5
	c3.4,0,4.6,6.1,4.8,7.4h3.7C247.7,24.9,246.2,19,243.8,18.2"/>
<path fill="#4F1024" d="M131.8,8.5v13.1h0c-0.3,0-0.5-0.2-0.7-0.4l-6.2-11.9c-0.3-0.5-0.8-0.7-1.3-0.7h-3.8v17.9h3.3V12.9l0.3,0
	l0.4,0.3l6.7,12.5c0.2,0.3,0.6,0.7,1.3,0.7h3.3V8.5H131.8z"/>
<path fill="#4F1024" d="M226.2,10.3v16.1h3.6V8.5H228C227,8.5,226.2,9.3,226.2,10.3"/>
<path fill="#4F1024" d="M114.1,8.5c-1,0-1.8,0.8-1.8,1.8l0,8.8c0,3.1-1.1,4.4-3.7,4.4c-2.5,0-3.6-1.4-3.6-4.4V8.5h-1.8
	c-1,0-1.8,0.8-1.8,1.8v8.7c0,5.3,2.2,7.6,7.1,7.6c5.1,0,7.4-2.4,7.4-7.6V8.5H114.1z"/>
<path fill="#4F1024" d="M95.5,8.5c-1,0-1.8,0.8-1.8,1.8l0,9.5c0,3.1-1.2,3.7-3.1,3.7h-4v3.1h4.4c4.3,0,6.3-2.2,6.3-6.8V8.5H95.5z"/>
<path fill="#4F1024" d="M150.4,10.3V8.5h-11.1v17.9h10c0.6,0,1.1-0.5,1.1-1.1v-1.8h-7.8v-4.7h5.9c0.6,0,1.1-0.5,1.1-1.1V16h-7v-4.7
	h6.7C149.9,11.3,150.4,10.9,150.4,10.3"/>
<path fill="#4F1024" d="M172,19.3l2-7.1c0.1-0.3,0.3-0.4,0.6-0.4h0.3l2.1,7.5H172z M177,8.5h-3.5c-0.8,0-1.5,0.5-1.7,1.3l-5,16.6h3.5
	l1.3-4.5h6l1.3,4.5h3.7L177,8.5z"/>
<path fill="#4F1024" d="M212.8,19.3l2-7.1c0.1-0.3,0.3-0.5,0.6-0.5h0.3l2.1,7.5H212.8z M217.8,8.5h-3.5c-0.8,0-1.5,0.5-1.7,1.3
	l-5,16.6h3.5l1.3-4.5h6l1.3,4.5h3.7L217.8,8.5z"/>
</svg>
