<?xml version="1.0" encoding="UTF-8"?>
<svg xmlns="http://www.w3.org/2000/svg" viewBox="0 0 740 188">
<title>Buffalo Airways</title>
<desc>Buffalo Airways logo</desc>
<metadata xmlns:rdf="http://www.w3.org/1999/02/22-rdf-syntax-ns#" xmlns:Airline="http://schema.org/Airline">
<rdf:RDF>
<Airline:name>Buffalo Airways</Airline:name>
<Airline:iataCode>J0</Airline:iataCode>
<Airline:url>https://airlinelogos.aero/J0</Airline:url>
</rdf:RDF>
</metadata>
<path d="M 0.00 0.00 L 335.53 0.00 C 323.49 0.47 310.30 2.73 300.88 10.86 C 294.90 15.89 291.29 22.64 289.37 30.14 C 283.08 30.11 276.80 30.16 270.51 30.10 C 270.51 42.70 270.51 55.30 270.51 67.90 C 276.38 67.85 282.24 67.88 288.11 67.88 C 288.11 72.50 288.11 77.12 288.11 81.75 C 281.50 82.47 274.79 82.42 268.17 81.83 C 268.11 64.59 268.19 47.36 268.16 30.13 C 228.94 30.13 189.73 30.12 150.51 30.14 C 148.19 22.57 143.95 16.15 137.46 11.53 C 128.67 5.06 117.62 3.75 107.00 3.53 C 71.34 3.55 35.67 3.53 0.00 3.54 L 0.00 0.00 Z" fill="#ffffff" />
<path d="M 335.53 0.00 L 339.08 0.00 C 347.13 0.38 355.94 1.70 362.84 6.16 C 366.05 8.16 368.46 10.93 370.68 13.94 C 380.61 3.31 394.61 0.59 408.57 0.00 L 412.08 0.00 C 421.98 0.45 433.03 2.37 440.29 9.72 C 445.39 14.80 447.15 21.61 446.29 28.67 C 448.78 26.29 451.15 24.21 454.72 23.75 C 462.01 22.72 469.50 22.70 476.83 22.00 C 482.00 21.71 486.74 20.79 491.78 22.39 C 495.34 23.26 498.38 25.23 501.99 25.75 C 505.22 26.33 508.26 27.35 511.21 28.77 C 517.36 31.68 523.51 34.56 529.71 37.36 C 534.95 40.26 541.13 43.31 544.90 48.03 C 546.44 49.84 547.94 51.66 549.28 53.64 C 552.73 59.19 557.94 62.96 560.78 68.96 C 560.50 59.43 560.88 49.89 560.55 40.36 C 554.61 39.97 548.66 39.90 542.72 39.62 C 542.72 27.20 542.72 14.77 542.72 2.35 C 565.87 2.38 589.03 2.36 612.18 2.36 C 612.17 24.57 612.18 46.78 612.18 68.99 C 612.56 73.61 611.85 78.43 612.80 82.96 C 613.46 77.43 612.56 72.00 613.66 66.47 C 615.57 55.37 622.21 45.78 631.32 39.30 C 643.96 30.32 660.73 26.99 676.00 27.16 C 692.44 26.94 710.69 30.68 723.70 41.30 C 733.82 49.40 739.65 61.56 740.00 74.50 L 740.00 76.42 C 739.49 87.26 734.87 97.60 727.47 105.49 C 719.88 113.61 708.81 118.51 698.14 121.01 C 685.73 123.85 672.57 124.11 660.00 122.25 C 649.01 120.58 638.45 116.80 629.53 110.07 C 629.52 113.33 629.52 116.59 629.52 119.85 C 600.58 119.79 571.65 119.81 542.71 119.84 C 542.72 117.39 542.73 114.95 542.77 112.50 C 540.62 112.09 538.50 111.61 536.39 111.03 C 532.97 113.11 528.92 114.40 526.15 117.13 C 523.32 119.83 520.36 121.85 518.17 125.16 C 516.50 127.65 514.87 129.85 511.82 130.68 C 506.31 131.90 499.80 131.81 496.00 126.99 C 493.50 123.99 493.65 120.72 493.83 117.04 C 492.93 116.69 492.03 116.34 491.13 115.99 C 489.80 116.48 488.47 116.97 487.14 117.45 C 485.93 120.71 484.72 123.68 481.66 125.65 C 477.31 128.82 470.99 128.85 467.01 125.05 C 463.91 122.06 462.31 117.68 459.67 114.24 C 457.20 110.94 456.03 107.97 455.23 103.93 C 450.74 105.45 446.42 106.69 442.12 103.85 C 439.14 101.44 436.81 98.44 433.44 96.44 C 432.98 104.22 433.32 112.04 433.22 119.83 C 364.81 119.80 296.41 119.82 228.00 119.82 C 223.74 119.77 219.39 120.13 215.31 119.27 C 206.00 122.94 196.08 123.45 186.23 122.26 C 175.58 120.79 165.59 115.66 159.31 106.76 C 156.28 102.53 154.76 97.69 153.86 92.60 C 152.04 100.27 148.34 107.20 142.07 112.12 C 134.68 118.02 125.30 119.72 116.06 119.82 C 77.37 119.83 38.69 119.82 0.00 119.82 L 0.00 80.76 C 6.97 80.53 14.81 81.50 21.53 79.54 C 22.09 76.44 21.80 73.15 21.86 70.00 C 21.75 61.22 22.06 52.41 21.67 43.64 C 14.43 42.11 7.33 42.59 0.00 42.54 L 0.00 3.54 C 35.67 3.53 71.34 3.55 107.00 3.53 C 117.62 3.75 128.67 5.06 137.46 11.53 C 143.95 16.15 148.19 22.57 150.51 30.14 C 189.73 30.12 228.94 30.13 268.16 30.13 C 268.19 47.36 268.11 64.59 268.17 81.83 C 274.79 82.42 281.50 82.47 288.11 81.75 C 288.11 77.12 288.11 72.50 288.11 67.88 C 282.24 67.88 276.38 67.85 270.51 67.90 C 270.51 55.30 270.51 42.70 270.51 30.10 C 276.80 30.16 283.08 30.11 289.37 30.14 C 291.29 22.64 294.90 15.89 300.88 10.86 C 310.30 2.73 323.49 0.47 335.53 0.00 Z" fill="#000000" />
<path d="M 339.08 0.00 L 408.57 0.00 C 394.61 0.59 380.61 3.31 370.68 13.94 C 368.46 10.93 366.05 8.16 362.84 6.16 C 355.94 1.70 347.13 0.38 339.08 0.00 Z" fill="#ffffff" />
<path d="M 412.08 0.00 L 740.00 0.00 L 740.00 74.50 C 739.65 61.56 733.82 49.40 723.70 41.30 C 710.69 30.68 692.44 26.94 676.00 27.16 C 660.73 26.99 643.96 30.32 631.32 39.30 C 622.21 45.78 615.57 55.37 613.66 66.47 C 612.56 72.00 613.46 77.43 612.80 82.96 C 611.85 78.43 612.56 73.61 612.18 68.99 C 612.18 46.78 612.17 24.57 612.18 2.36 C 589.03 2.36 565.87 2.38 542.72 2.35 C 542.72 14.77 542.72 27.20 542.72 39.62 C 548.66 39.90 554.61 39.97 560.55 40.36 C 560.88 49.89 560.50 59.43 560.78 68.96 C 557.94 62.96 552.73 59.19 549.28 53.64 C 547.94 51.66 546.44 49.84 544.90 48.03 C 541.13 43.31 534.95 40.26 529.71 37.36 C 523.51 34.56 517.36 31.68 511.21 28.77 C 508.26 27.35 505.22 26.33 501.99 25.75 C 498.38 25.23 495.34 23.26 491.78 22.39 C 486.74 20.79 482.00 21.71 476.83 22.00 C 469.50 22.70 462.01 22.72 454.72 23.75 C 451.15 24.21 448.78 26.29 446.29 28.67 C 447.15 21.61 445.39 14.80 440.29 9.72 C 433.03 2.37 421.98 0.45 412.08 0.00 Z" fill="#ffffff" />
<path d="M 340.02 4.88 C 348.27 5.26 357.84 7.00 363.85 13.17 C 367.41 16.72 368.70 21.20 368.78 26.15 C 370.86 20.85 374.33 16.26 378.97 12.93 C 384.78 8.76 392.04 6.58 399.06 5.60 C 407.68 4.46 417.07 4.38 425.49 6.75 C 430.95 8.38 436.61 11.42 439.49 16.55 C 443.04 22.49 442.36 30.50 437.58 35.57 C 435.08 38.37 431.91 39.72 428.53 41.16 C 428.55 48.31 428.55 55.46 428.54 62.61 C 430.96 60.59 433.40 58.88 436.29 57.59 C 437.40 52.08 439.24 46.70 441.35 41.50 C 443.11 37.27 446.26 34.58 449.32 31.28 C 451.57 28.86 453.63 27.64 456.97 27.37 C 465.29 26.67 473.64 26.27 481.96 25.55 C 487.78 24.80 493.51 26.41 498.41 29.53 C 504.82 29.33 509.52 32.50 515.14 34.96 C 523.28 38.88 531.31 41.86 538.61 47.36 C 543.73 51.69 546.45 57.29 550.88 62.08 C 553.77 65.57 556.90 68.06 557.32 72.92 C 557.93 78.41 555.54 82.57 552.94 87.13 C 556.66 86.69 560.95 87.06 564.47 85.66 C 565.40 83.32 565.33 80.50 565.37 78.01 C 565.33 66.67 565.34 55.33 565.36 43.99 C 565.38 41.41 565.08 38.88 564.63 36.34 C 558.95 35.12 553.20 35.21 547.40 35.14 C 547.38 25.77 547.38 16.41 547.40 7.05 C 567.42 7.11 587.45 7.10 607.47 7.05 C 607.52 31.39 607.49 55.72 607.48 80.06 C 607.52 81.98 607.59 83.81 608.32 85.62 C 611.58 86.93 615.56 86.71 619.02 87.01 C 616.77 77.02 616.95 66.80 621.67 57.54 C 627.32 46.36 638.05 39.32 649.73 35.62 C 663.99 31.21 679.60 30.78 694.23 33.45 C 706.23 35.73 718.44 40.99 726.41 50.56 C 735.80 61.77 737.90 78.32 731.38 91.46 C 727.27 100.16 720.13 107.16 711.45 111.29 C 696.87 118.53 679.05 119.74 663.10 117.91 C 648.27 115.99 634.27 110.64 624.81 98.55 C 624.86 104.10 624.84 109.65 624.83 115.19 C 599.01 115.21 573.20 115.19 547.39 115.21 C 547.39 112.75 547.39 110.30 547.40 107.85 C 542.81 108.67 540.12 108.80 536.33 105.87 C 533.86 107.89 531.47 109.36 528.56 110.68 C 524.73 112.39 522.51 115.43 519.05 118.15 C 516.36 120.29 514.92 123.23 512.70 125.74 C 510.62 127.81 506.55 127.37 503.87 127.22 C 499.66 126.69 496.32 122.26 498.10 118.11 C 499.16 115.23 502.51 114.57 504.55 112.60 C 507.91 109.28 511.04 105.71 514.01 102.04 C 511.16 103.26 508.41 104.65 505.68 106.12 C 504.64 108.99 503.75 111.47 500.72 112.74 C 497.16 114.36 494.17 113.16 491.07 111.26 C 488.57 112.83 486.19 113.59 483.28 114.11 C 482.81 116.66 482.92 119.02 481.01 121.00 C 478.90 123.28 475.22 125.04 472.17 123.67 C 469.29 122.62 467.91 120.04 466.44 117.55 C 464.89 114.80 463.01 112.27 461.37 109.59 C 459.59 106.75 459.60 103.60 458.33 100.66 C 454.96 97.97 450.46 102.70 446.45 101.49 C 442.36 100.35 440.04 95.00 435.96 93.59 C 433.46 93.13 430.97 92.71 428.51 92.06 C 428.58 99.77 428.54 107.48 428.53 115.20 C 359.40 115.20 290.27 115.21 221.14 115.19 C 221.14 113.59 221.15 111.98 221.15 110.38 C 210.36 118.27 196.75 119.48 183.94 117.01 C 173.84 114.96 164.29 108.55 160.38 98.75 C 156.65 89.28 157.97 77.86 157.63 67.91 C 157.40 66.46 157.68 64.66 155.96 64.12 C 151.63 63.01 146.90 63.19 142.45 62.66 C 142.44 59.64 142.45 56.61 142.47 53.58 C 140.13 56.77 137.75 59.23 134.60 61.61 C 140.15 65.04 144.76 69.67 147.29 75.76 C 152.09 87.19 148.71 101.26 138.68 108.71 C 131.44 114.18 122.81 114.99 114.03 115.19 C 77.32 115.21 40.58 115.20 3.87 115.20 C 3.87 105.30 3.86 95.41 3.87 85.51 C 9.85 85.48 15.92 85.83 21.80 84.51 C 24.51 83.79 26.28 81.69 26.50 78.89 C 26.96 73.62 26.65 68.28 26.73 63.00 C 26.65 56.70 26.96 50.32 26.41 44.04 C 26.36 41.18 24.11 39.47 21.56 38.81 C 15.80 37.51 9.74 37.89 3.88 37.83 C 3.86 27.96 3.86 18.09 3.87 8.22 C 37.93 8.20 71.99 8.21 106.05 8.22 C 116.18 8.49 126.89 9.38 135.21 15.79 C 141.56 20.38 145.29 27.32 146.59 34.96 C 164.32 34.81 182.06 34.94 199.80 34.89 C 199.84 48.27 199.79 61.66 199.81 75.04 C 199.99 79.33 200.20 83.33 204.20 85.83 C 210.16 89.16 218.80 85.45 220.53 78.80 C 221.46 74.81 221.36 70.17 220.84 66.12 C 220.73 63.82 218.72 63.96 216.97 63.57 C 212.84 63.14 208.66 63.11 204.52 62.79 C 204.52 53.49 204.50 44.19 204.52 34.89 C 224.10 34.90 243.68 34.89 263.25 34.89 C 263.31 50.17 263.19 65.46 263.31 80.73 C 263.62 82.63 263.11 86.02 265.77 86.14 C 272.72 87.36 280.02 87.29 287.04 86.65 C 288.82 86.46 290.52 86.34 292.10 85.43 C 293.42 78.20 292.41 70.43 292.71 63.08 C 286.93 63.12 281.15 63.09 275.37 63.11 C 275.34 53.70 275.35 44.30 275.37 34.89 C 281.34 34.91 287.32 34.85 293.29 34.94 C 294.10 31.29 294.80 27.82 296.40 24.41 C 299.48 17.85 304.96 12.61 311.56 9.65 C 320.24 5.65 330.57 4.62 340.02 4.88 Z" fill="#ffffff" />
<path d="M 332.99 10.46 C 341.15 10.07 351.61 10.51 358.42 15.61 C 362.90 18.81 364.64 24.98 361.91 29.88 C 357.51 37.71 344.08 38.34 338.74 31.29 C 336.27 27.78 337.81 24.91 339.05 21.37 C 337.48 21.28 335.79 21.03 334.24 21.32 C 331.77 22.11 329.82 24.25 329.59 26.88 C 329.18 31.36 329.48 35.92 329.42 40.42 C 336.23 40.40 343.05 40.43 349.86 40.40 C 349.87 46.14 349.87 51.87 349.86 57.60 C 343.04 57.58 336.23 57.61 329.41 57.58 C 329.43 65.34 329.35 73.11 329.43 80.87 C 329.62 84.77 330.12 89.02 334.11 90.87 C 338.79 92.83 344.84 92.20 349.86 92.54 C 349.87 98.27 349.87 103.99 349.86 109.72 C 326.84 109.70 303.82 109.71 280.80 109.72 C 280.80 104.00 280.80 98.27 280.80 92.55 C 285.14 92.19 290.52 92.49 294.44 90.44 C 297.82 88.48 298.04 84.53 298.21 81.03 C 298.24 73.22 298.19 65.40 298.21 57.58 C 292.41 57.60 286.61 57.59 280.80 57.60 C 280.80 51.87 280.80 46.14 280.80 40.41 C 286.60 40.42 292.39 40.41 298.18 40.42 C 299.04 33.49 299.97 27.12 304.61 21.59 C 311.21 13.44 323.05 10.99 332.99 10.46 Z" fill="#000000" />
<path d="M 405.99 10.46 C 413.99 10.07 424.03 10.50 430.88 15.17 C 435.53 18.25 437.63 24.07 435.29 29.28 C 431.12 37.88 416.38 38.63 411.35 30.57 C 409.34 27.15 411.07 24.64 412.13 21.33 C 410.75 21.25 409.42 21.13 408.04 21.22 C 405.21 21.62 402.93 23.98 402.64 26.84 C 402.12 31.32 402.49 35.92 402.41 40.43 C 409.22 40.40 416.03 40.42 422.85 40.40 C 422.86 46.14 422.86 51.87 422.85 57.60 C 416.03 57.58 409.22 57.61 402.40 57.58 C 402.44 65.34 402.32 73.10 402.44 80.86 C 402.70 84.69 403.18 89.04 407.11 90.86 C 411.79 92.80 417.83 92.21 422.85 92.54 C 422.86 98.27 422.86 103.99 422.85 109.72 C 399.83 109.70 376.81 109.70 353.79 109.72 C 353.79 104.00 353.79 98.27 353.79 92.55 C 358.16 92.20 363.51 92.47 367.48 90.47 C 370.82 88.65 371.08 84.42 371.32 81.06 C 371.45 73.24 371.32 65.40 371.36 57.58 C 365.50 57.61 359.65 57.58 353.79 57.60 C 353.79 51.87 353.79 46.14 353.79 40.40 C 359.60 40.43 365.41 40.39 371.22 40.43 C 372.11 33.28 373.11 26.70 378.09 21.11 C 384.79 13.35 396.23 11.00 405.99 10.46 Z" fill="#000000" />
<path d="M 553.10 12.49 C 569.34 12.49 585.58 12.50 601.82 12.49 C 601.85 34.33 601.78 56.19 601.85 78.04 C 602.11 81.70 601.76 87.43 605.01 89.91 C 608.84 92.54 614.90 92.17 619.39 92.54 C 619.38 98.27 619.38 104.00 619.39 109.73 C 597.29 109.68 575.20 109.71 553.10 109.72 C 553.10 103.99 553.09 98.26 553.11 92.53 C 557.42 92.23 562.65 92.51 566.62 90.67 C 570.54 88.77 570.67 83.80 570.83 80.03 C 570.93 67.35 570.95 54.66 570.82 41.98 C 570.65 38.09 570.54 33.45 566.53 31.47 C 562.51 29.72 557.43 29.98 553.11 29.68 C 553.09 23.95 553.10 18.22 553.10 12.49 Z" fill="#000000" />
<path d="M 9.57 13.66 C 42.04 13.70 74.55 13.63 107.02 13.69 C 114.40 14.03 122.98 14.60 129.45 18.52 C 135.21 21.84 139.48 27.47 140.75 34.03 C 142.46 41.78 139.62 50.40 133.47 55.47 C 128.01 59.91 121.72 61.56 114.96 62.92 C 122.89 63.25 130.23 64.16 136.39 69.66 C 145.93 77.88 146.55 93.69 137.50 102.51 C 131.22 108.79 122.44 109.51 114.03 109.68 C 79.21 109.76 44.38 109.66 9.57 109.74 C 9.56 103.48 9.55 97.22 9.57 90.96 C 14.25 90.90 19.25 90.90 23.78 89.65 C 28.90 88.01 32.01 83.37 32.10 78.06 C 32.35 68.38 32.17 58.67 32.19 48.99 C 31.95 45.00 32.32 39.87 29.06 36.96 C 24.48 32.06 15.74 32.53 9.56 32.37 C 9.56 26.13 9.56 19.89 9.57 13.66 Z" fill="#000000" />
<path d="M 485.07 30.91 C 488.91 30.75 492.18 32.32 495.45 34.10 C 494.42 35.75 493.37 37.38 492.28 38.99 C 490.00 40.50 489.53 41.30 488.66 43.88 C 486.62 46.50 484.89 49.24 483.23 52.11 C 483.32 53.71 483.47 55.36 483.38 56.96 C 481.31 59.62 477.40 60.80 475.91 63.77 C 478.27 65.52 481.88 65.09 483.98 66.98 C 485.28 69.20 484.96 72.55 484.86 75.04 C 484.83 77.11 482.50 78.77 481.51 80.51 C 481.32 82.04 481.49 83.61 481.40 85.15 C 480.68 86.52 479.65 87.75 478.75 89.02 C 479.94 90.85 481.12 92.68 482.27 94.53 C 481.78 95.43 481.30 96.32 480.81 97.22 C 481.10 98.27 481.40 99.31 481.69 100.36 C 480.06 101.46 478.42 102.55 476.81 103.67 C 480.48 105.22 483.45 103.54 487.12 103.87 C 487.58 105.51 487.64 107.23 485.86 108.01 C 482.39 108.57 478.63 107.37 475.17 108.04 C 472.82 108.93 473.50 110.69 473.60 112.71 C 474.94 113.47 476.40 114.03 477.98 114.42 C 477.28 116.55 476.24 117.94 474.71 119.60 C 471.68 116.10 469.45 111.93 466.86 108.10 C 464.76 105.10 464.92 101.84 463.41 98.57 C 461.93 95.44 461.79 92.26 461.32 88.86 C 459.65 87.56 457.94 86.41 456.01 85.51 C 457.55 88.85 459.47 91.89 460.39 95.48 C 458.96 94.76 457.54 94.02 456.12 93.27 C 453.51 94.43 450.74 95.67 447.94 96.26 C 444.91 93.92 442.04 90.36 438.55 88.43 C 436.56 87.90 434.44 87.88 432.44 87.39 C 430.76 86.84 429.28 85.53 427.84 84.53 C 427.57 80.90 427.24 77.28 426.83 73.67 C 426.05 72.83 425.28 71.98 424.51 71.13 C 426.20 70.35 427.91 69.63 429.64 68.94 C 433.12 65.59 435.94 63.68 440.56 62.14 C 442.82 55.42 443.70 48.06 447.54 41.53 C 449.43 38.84 451.78 36.34 454.23 34.14 C 455.65 32.81 458.12 32.70 459.98 32.56 C 468.36 32.26 476.69 31.28 485.07 30.91 Z" fill="#0f6d20" />
<path d="M 66.28 32.31 C 70.84 32.07 75.43 32.29 80.00 32.22 C 86.69 32.25 92.97 31.85 99.53 33.68 C 104.56 35.42 107.63 40.76 106.01 45.97 C 104.34 50.58 99.61 52.69 94.95 52.69 C 85.37 52.75 75.77 52.67 66.18 52.72 C 66.26 45.92 66.00 39.09 66.28 32.31 Z" fill="#ffffff" />
<path d="M 500.18 35.06 C 504.32 35.40 508.47 37.99 512.25 39.62 C 520.07 43.49 527.66 46.09 534.77 51.29 C 539.88 55.44 542.06 60.78 546.55 65.42 C 548.52 67.88 551.96 70.58 551.90 73.96 C 552.52 80.84 544.64 86.65 545.19 93.13 C 546.63 93.99 548.21 94.60 549.63 95.49 C 550.03 97.51 549.62 99.56 547.94 100.88 C 545.76 102.82 543.27 102.86 540.52 103.24 C 541.83 102.22 543.18 101.30 544.57 100.40 C 544.67 98.86 545.10 97.04 544.46 95.61 C 543.74 93.42 542.41 91.88 543.33 89.50 C 544.85 83.36 549.81 80.59 549.86 73.98 C 550.07 70.62 547.72 69.61 545.53 67.66 C 543.43 72.12 545.38 76.63 543.05 80.98 C 540.29 86.38 536.40 91.19 533.49 96.52 C 532.67 98.23 532.57 100.36 532.24 102.22 C 528.91 104.71 524.89 106.04 521.65 108.61 C 516.94 112.97 511.98 116.34 508.81 122.10 C 506.62 121.78 504.43 121.47 502.27 121.01 C 509.27 117.20 513.04 111.00 518.50 105.49 C 520.47 103.28 522.92 101.11 524.29 98.47 C 525.11 95.74 524.88 92.54 524.08 89.82 C 520.75 90.23 520.38 94.20 517.06 95.09 C 510.90 97.36 504.91 99.81 499.58 103.74 C 499.64 104.93 499.70 106.13 499.76 107.32 C 498.28 107.65 496.80 107.95 495.31 108.25 C 496.15 105.57 496.84 102.08 499.24 100.31 C 502.70 97.71 507.38 95.63 510.56 92.52 C 512.88 90.54 512.71 86.64 513.39 83.83 C 512.90 83.25 512.41 82.66 511.92 82.07 C 510.67 82.47 509.41 82.87 508.16 83.28 C 506.82 82.37 505.46 81.32 504.00 80.64 C 500.26 81.15 496.75 82.67 492.94 82.99 C 490.27 83.25 486.21 84.29 484.12 82.13 C 485.63 80.02 487.80 78.27 489.05 76.00 C 489.60 72.52 489.16 68.86 489.17 65.34 C 486.50 64.48 483.81 63.77 481.22 62.65 C 482.73 60.97 484.40 59.47 486.01 57.91 C 488.42 55.95 487.41 51.71 489.05 49.08 C 490.73 45.81 493.93 44.10 495.39 40.79 C 496.50 38.40 497.74 36.29 500.18 35.06 Z" fill="#0f6d20" />
<path d="M 664.22 38.05 C 675.98 36.61 688.31 37.15 699.74 40.41 C 708.27 42.91 716.25 47.10 722.06 53.97 C 728.34 61.36 730.87 71.53 729.12 81.03 C 727.59 88.83 723.15 96.02 717.14 101.17 C 709.76 107.32 699.64 110.65 690.27 112.13 C 678.45 113.85 666.12 113.59 654.50 110.72 C 644.73 108.20 635.71 103.64 629.50 95.47 C 620.06 82.99 621.04 63.33 632.12 52.12 C 640.30 43.54 652.71 39.44 664.22 38.05 Z" fill="#000000" />
<path d="M 147.88 40.42 C 163.37 40.39 178.87 40.44 194.36 40.39 C 194.39 52.24 194.33 64.09 194.39 75.93 C 194.52 80.83 195.36 85.43 199.15 88.85 C 206.30 95.62 219.60 92.50 224.16 84.12 C 227.24 78.92 226.57 73.70 226.56 67.92 C 226.45 64.49 225.72 61.27 222.52 59.47 C 218.92 57.65 214.08 57.91 210.13 57.59 C 210.10 51.86 210.12 46.13 210.12 40.40 C 226.00 40.41 241.89 40.42 257.77 40.40 C 257.80 53.60 257.75 66.81 257.79 80.02 C 257.97 83.67 258.04 88.26 261.61 90.36 C 265.53 92.48 270.99 92.21 275.35 92.54 C 275.35 98.27 275.36 104.00 275.35 109.73 C 259.09 109.70 242.83 109.69 226.58 109.74 C 226.57 105.90 226.57 102.06 226.56 98.22 C 220.80 103.83 215.26 109.02 207.27 111.19 C 199.44 113.15 190.81 113.20 183.00 111.13 C 174.99 109.02 167.39 103.31 164.92 95.16 C 162.26 86.50 163.57 75.87 163.06 66.92 C 162.83 63.54 161.53 60.32 158.18 58.99 C 154.92 57.95 151.28 57.90 147.89 57.60 C 147.88 51.87 147.89 46.14 147.88 40.42 Z" fill="#000000" />
<path d="M 0.00 42.54 C 7.33 42.59 14.43 42.11 21.67 43.64 C 22.06 52.41 21.75 61.22 21.86 70.00 C 21.80 73.15 22.09 76.44 21.53 79.54 C 14.81 81.50 6.97 80.53 0.00 80.76 L 0.00 42.54 Z" fill="#ffffff" />
<path d="M 436.62 42.59 C 435.46 45.81 434.46 49.08 433.34 52.32 C 433.24 49.71 433.21 47.10 433.21 44.49 C 434.34 43.86 435.48 43.22 436.62 42.59 Z" fill="#ffffff" />
<path d="M 669.46 54.62 C 675.64 52.45 683.19 53.40 688.16 57.84 C 692.40 61.56 694.60 67.43 694.86 72.97 C 695.30 79.48 694.20 85.83 689.90 90.93 C 683.76 98.13 672.12 99.01 664.71 93.29 C 660.56 90.14 658.23 84.96 657.49 79.91 C 656.84 74.13 657.15 68.19 659.97 62.97 C 661.98 59.13 665.36 56.08 669.46 54.62 Z" fill="#ffffff" />
<path d="M 671.53 59.72 C 675.67 58.48 680.85 58.84 684.26 61.75 C 687.79 64.67 689.27 69.52 689.47 73.94 C 689.69 78.80 688.88 83.82 685.53 87.55 C 680.51 93.10 670.68 92.88 666.06 86.93 C 662.50 82.33 662.09 75.55 663.19 70.04 C 664.11 65.43 666.97 61.30 671.53 59.72 Z" fill="#000000" />
<path d="M 334.85 63.10 C 345.18 63.10 355.52 63.12 365.86 63.09 C 365.67 70.21 366.36 77.54 365.37 84.59 C 365.46 85.85 363.54 86.10 362.63 86.34 C 354.79 87.42 346.84 87.19 338.98 86.52 C 337.20 86.19 335.39 86.13 335.27 83.87 C 334.37 77.05 335.06 69.98 334.85 63.10 Z" fill="#000000" />
<path d="M 407.83 63.10 C 414.70 63.12 421.56 63.09 428.43 63.07 C 425.43 64.82 421.32 65.51 420.14 69.21 C 418.90 72.17 420.82 74.38 421.51 77.16 C 422.09 80.47 422.35 83.83 422.91 87.14 C 418.57 86.49 412.50 87.65 408.72 85.34 C 407.00 78.27 408.18 70.37 407.83 63.10 Z" fill="#000000" />
<path d="M 672.43 64.48 C 675.65 63.11 680.20 63.63 682.39 66.60 C 684.31 69.19 684.85 72.89 684.78 76.03 C 684.64 79.07 683.98 82.50 681.67 84.68 C 679.31 87.09 675.03 87.30 672.11 85.89 C 668.22 83.80 667.36 79.01 667.36 74.98 C 667.45 71.12 668.53 66.22 672.43 64.48 Z" fill="#ffffff" />
<path d="M 148.72 68.03 C 150.07 68.12 151.42 68.20 152.76 68.28 C 152.88 71.25 152.96 74.21 153.05 77.18 C 151.76 74.04 150.35 71.01 148.72 68.03 Z" fill="#ffffff" />
<path d="M 204.48 67.55 C 208.47 67.75 212.45 68.03 216.44 68.24 C 216.31 72.24 217.34 78.00 213.76 80.79 C 211.44 82.48 206.30 83.46 205.20 79.88 C 204.21 75.95 204.58 71.58 204.48 67.55 Z" fill="#ffffff" />
<path d="M 339.54 67.87 C 346.73 67.88 353.93 67.87 361.12 67.88 C 361.13 72.50 361.13 77.13 361.09 81.75 C 354.03 82.53 346.83 82.32 339.74 81.94 C 339.45 77.25 339.53 72.57 339.54 67.87 Z" fill="#ffffff" />
<path d="M 412.68 67.88 C 413.84 67.87 414.99 67.86 416.15 67.85 C 414.94 73.29 417.75 77.10 418.40 82.29 C 416.51 82.15 414.61 81.99 412.72 81.82 C 412.67 77.18 412.68 72.53 412.68 67.88 Z" fill="#ffffff" />
<path d="M 66.29 70.37 C 75.52 70.17 84.79 70.32 94.03 70.31 C 98.24 70.58 103.20 70.32 106.26 73.76 C 109.68 77.25 109.53 82.78 106.53 86.48 C 103.92 89.80 100.10 90.77 96.05 90.89 C 86.10 90.99 76.14 90.86 66.18 90.93 C 66.26 84.09 66.00 77.21 66.29 70.37 Z" fill="#ffffff" />
<path d="M 740.00 76.42 L 740.00 188.00 L 660.12 188.00 C 663.51 187.64 666.70 186.61 669.17 184.17 C 673.90 179.87 673.79 171.91 669.99 167.05 C 666.35 162.10 660.65 159.62 656.84 155.08 C 654.86 152.75 654.70 149.14 656.85 146.87 C 659.55 144.12 664.63 144.05 667.60 146.40 C 669.76 148.08 670.16 150.91 671.19 153.31 C 671.60 150.02 671.46 146.64 671.61 143.31 C 667.11 142.38 661.66 141.66 657.24 143.21 C 653.01 144.71 649.73 148.40 649.75 153.04 C 649.59 157.47 651.82 161.11 654.93 164.07 C 658.06 167.28 662.32 169.55 664.99 173.05 C 667.01 175.77 667.67 179.65 665.50 182.49 C 662.14 186.87 654.12 186.35 651.34 181.57 C 650.25 179.42 649.82 176.90 649.03 174.62 C 648.63 178.50 648.45 182.33 648.51 186.24 C 650.80 186.99 653.06 187.73 655.46 188.00 L 387.53 188.00 C 391.97 174.91 396.15 161.73 400.81 148.71 C 401.35 147.46 401.80 145.79 402.85 144.88 C 404.15 144.13 405.60 143.62 406.97 143.02 C 402.11 143.28 397.26 143.14 392.40 143.20 C 394.00 143.78 395.61 144.33 397.22 144.90 C 395.04 155.41 391.26 165.61 388.39 175.96 C 383.66 164.88 379.54 153.45 374.26 142.64 C 369.68 153.73 365.90 165.16 361.46 176.31 C 358.27 165.86 354.69 155.43 352.33 144.75 C 353.71 144.18 355.09 143.63 356.46 143.07 C 350.80 143.24 345.18 143.31 339.52 142.96 C 341.78 144.14 344.09 144.32 344.92 147.11 C 349.62 160.68 353.97 174.43 358.68 188.00 L 0.00 188.00 L 0.00 119.82 C 38.69 119.82 77.37 119.83 116.06 119.82 C 125.30 119.72 134.68 118.02 142.07 112.12 C 148.34 107.20 152.04 100.27 153.86 92.60 C 154.76 97.69 156.28 102.53 159.31 106.76 C 165.59 115.66 175.58 120.79 186.23 122.26 C 196.08 123.45 206.00 122.94 215.31 119.27 C 219.39 120.13 223.74 119.77 228.00 119.82 C 296.41 119.82 364.81 119.80 433.22 119.83 C 433.32 112.04 432.98 104.22 433.44 96.44 C 436.81 98.44 439.14 101.44 442.12 103.85 C 446.42 106.69 450.74 105.45 455.23 103.93 C 456.03 107.97 457.20 110.94 459.67 114.24 C 462.31 117.68 463.91 122.06 467.01 125.05 C 470.99 128.85 477.31 128.82 481.66 125.65 C 484.72 123.68 485.93 120.71 487.14 117.45 C 488.47 116.97 489.80 116.48 491.13 115.99 C 492.03 116.34 492.93 116.69 493.83 117.04 C 493.65 120.72 493.50 123.99 496.00 126.99 C 499.80 131.81 506.31 131.90 511.82 130.68 C 514.87 129.85 516.50 127.65 518.17 125.16 C 520.36 121.85 523.32 119.83 526.15 117.13 C 528.92 114.40 532.97 113.11 536.39 111.03 C 538.50 111.61 540.62 112.09 542.77 112.50 C 542.73 114.95 542.72 117.39 542.71 119.84 C 571.65 119.81 600.58 119.79 629.52 119.85 C 629.52 116.59 629.52 113.33 629.53 110.07 C 638.45 116.80 649.01 120.58 660.00 122.25 C 672.57 124.11 685.73 123.85 698.14 121.01 C 708.81 118.51 719.88 113.61 727.47 105.49 C 734.87 97.60 739.49 87.26 740.00 76.42 Z" fill="#ffffff" />
<path d="M 502.68 86.57 C 504.10 87.31 505.50 88.08 506.91 88.82 C 501.19 93.21 495.05 94.74 491.77 101.14 C 490.27 100.04 488.76 99.01 487.18 98.03 C 487.95 94.28 487.22 92.26 485.57 88.97 C 491.36 88.87 497.09 88.09 502.68 86.57 Z" fill="#000000" />
<path d="M 493.78 92.14 C 493.60 93.42 492.90 94.29 491.67 94.75 C 490.11 93.01 491.91 91.56 493.78 92.14 Z" fill="#ffffff" />
<path d="M 87.69 141.24 C 89.04 143.68 90.12 146.24 91.14 148.83 C 95.02 158.63 98.94 168.41 102.89 178.19 C 103.89 180.54 105.00 183.36 106.89 185.14 C 108.63 186.16 110.82 186.46 112.71 187.12 C 107.65 187.37 102.56 187.15 97.50 187.26 C 98.13 182.15 94.42 176.79 93.04 171.90 C 88.39 171.88 83.73 171.88 79.08 171.90 C 77.54 176.24 75.39 180.64 74.59 185.18 C 76.14 186.03 77.89 186.58 79.53 187.25 C 74.03 187.15 68.53 187.30 63.04 187.14 C 64.96 186.43 67.31 186.17 69.02 185.01 C 70.47 183.44 71.28 181.13 72.10 179.18 C 75.67 170.11 79.30 161.06 82.93 152.00 C 84.46 148.25 85.61 144.65 87.69 141.24 Z" fill="#000000" />
<path d="M 476.87 141.19 C 481.38 150.59 484.76 160.55 488.80 170.17 C 490.81 174.74 492.24 179.87 495.02 184.03 C 496.30 186.15 499.66 186.25 501.79 187.12 C 496.75 187.37 491.69 187.16 486.65 187.25 C 487.17 182.10 483.63 176.79 482.17 171.90 C 477.62 171.95 473.04 171.70 468.51 172.01 C 466.23 176.13 464.70 180.86 463.72 185.46 C 465.40 186.04 467.07 186.60 468.76 187.15 C 463.25 187.25 457.67 187.27 452.16 187.14 C 454.07 186.44 456.35 186.17 458.07 185.08 C 459.44 183.71 460.19 181.60 460.95 179.85 C 464.64 170.56 468.34 161.28 472.06 152.00 C 473.59 148.24 474.76 144.65 476.87 141.19 Z" fill="#000000" />
<path d="M 671.61 143.31 C 671.46 146.64 671.60 150.02 671.19 153.31 C 670.16 150.91 669.76 148.08 667.60 146.40 C 664.63 144.05 659.55 144.12 656.85 146.87 C 654.70 149.14 654.86 152.75 656.84 155.08 C 660.65 159.62 666.35 162.10 669.99 167.05 C 673.79 171.91 673.90 179.87 669.17 184.17 C 666.70 186.61 663.51 187.64 660.12 188.00 L 655.46 188.00 C 653.06 187.73 650.80 186.99 648.51 186.24 C 648.45 182.33 648.63 178.50 649.03 174.62 C 649.82 176.90 650.25 179.42 651.34 181.57 C 654.12 186.35 662.14 186.87 665.50 182.49 C 667.67 179.65 667.01 175.77 664.99 173.05 C 662.32 169.55 658.06 167.28 654.93 164.07 C 651.82 161.11 649.59 157.47 649.75 153.04 C 649.73 148.40 653.01 144.71 657.24 143.21 C 661.66 141.66 667.11 142.38 671.61 143.31 Z" fill="#000000" />
<path d="M 166.46 143.03 C 172.72 143.28 178.88 143.28 185.14 143.06 C 183.44 143.71 181.66 144.22 180.05 145.05 C 179.47 146.92 179.50 149.06 179.48 151.00 C 179.53 160.34 179.52 169.68 179.49 179.01 C 179.55 181.09 179.41 183.66 180.46 185.50 C 182.52 186.20 184.72 186.51 186.83 187.07 C 180.06 187.41 173.24 187.11 166.47 187.18 C 168.14 186.60 169.92 186.18 171.53 185.41 C 172.40 182.80 172.34 179.73 172.36 177.00 C 172.32 167.99 172.35 158.98 172.36 149.97 C 172.25 148.45 172.50 146.03 171.29 144.90 C 169.76 144.12 168.06 143.64 166.46 143.03 Z" fill="#000000" />
<path d="M 246.29 143.10 C 251.19 143.04 256.06 143.41 260.95 143.18 C 265.34 143.14 270.12 142.80 274.12 144.92 C 278.32 147.07 280.12 152.40 278.81 156.81 C 277.71 161.13 274.54 163.85 271.46 166.81 C 275.97 172.18 280.06 178.05 285.03 182.99 C 287.55 185.58 290.61 186.02 293.89 187.11 C 289.10 187.04 282.04 188.43 278.33 184.72 C 274.02 180.76 270.85 175.20 267.32 170.56 C 266.00 168.02 262.15 169.08 259.74 168.71 C 259.91 174.11 259.07 180.14 260.61 185.35 C 262.55 186.13 264.67 186.50 266.68 187.11 C 260.21 187.35 253.73 187.13 247.26 187.22 C 248.82 186.68 250.35 186.11 251.87 185.49 C 253.51 181.50 252.67 176.27 252.89 172.00 C 252.63 163.17 253.43 154.10 252.46 145.35 C 250.70 144.13 248.28 143.84 246.29 143.10 Z" fill="#000000" />
<path d="M 339.52 142.96 C 345.18 143.31 350.80 143.24 356.46 143.07 C 355.09 143.63 353.71 144.18 352.33 144.75 C 354.69 155.43 358.27 165.86 361.46 176.31 C 365.90 165.16 369.68 153.73 374.26 142.64 C 379.54 153.45 383.66 164.88 388.39 175.96 C 391.26 165.61 395.04 155.41 397.22 144.90 C 395.61 144.33 394.00 143.78 392.40 143.20 C 397.26 143.14 402.11 143.28 406.97 143.02 C 405.60 143.62 404.15 144.13 402.85 144.88 C 401.80 145.79 401.35 147.46 400.81 148.71 C 396.15 161.73 391.97 174.91 387.53 188.00 L 386.40 188.00 C 381.66 177.25 377.31 166.30 372.83 155.44 C 368.51 166.27 364.87 177.54 359.70 188.00 L 358.68 188.00 C 353.97 174.43 349.62 160.68 344.92 147.11 C 344.09 144.32 341.78 144.14 339.52 142.96 Z" fill="#000000" />
<path d="M 546.49 142.93 C 551.95 143.33 557.32 143.32 562.78 143.06 C 561.87 143.69 560.96 144.33 560.04 144.97 C 563.16 151.90 567.44 158.30 571.04 165.00 C 574.33 158.39 578.81 152.14 581.21 145.18 C 580.18 144.47 579.14 143.76 578.11 143.05 C 583.05 143.34 587.89 143.26 592.83 142.98 C 590.01 144.22 587.31 144.74 585.43 147.43 C 581.57 152.70 578.36 158.51 575.13 164.19 C 572.35 168.74 573.43 173.80 573.24 179.00 C 573.42 180.91 572.98 183.99 574.36 185.50 C 576.36 186.21 578.50 186.53 580.54 187.09 C 573.84 187.36 567.09 187.14 560.38 187.20 C 562.02 186.56 563.76 186.08 565.33 185.28 C 566.38 181.03 565.78 176.31 565.91 171.95 C 566.15 167.03 563.38 163.88 561.08 159.86 C 558.53 155.78 556.18 151.50 553.30 147.63 C 551.54 145.18 549.07 144.26 546.49 142.93 Z" fill="#000000" />
<path d="M 259.75 145.71 C 262.74 145.78 265.41 145.28 268.05 147.00 C 271.51 149.24 272.61 153.09 272.48 157.04 C 272.45 160.42 271.18 164.47 267.90 166.02 C 265.38 166.76 262.36 166.17 259.78 165.90 C 259.66 159.17 259.69 152.44 259.75 145.71 Z" fill="#ffffff" />
<path d="M 86.12 153.21 C 88.22 158.51 90.06 163.91 92.01 169.26 C 88.06 169.31 84.10 169.31 80.14 169.26 C 82.08 163.90 84.07 158.54 86.12 153.21 Z" fill="#ffffff" />
<path d="M 475.24 153.21 C 477.30 158.53 479.24 163.89 481.13 169.26 C 477.17 169.31 473.21 169.31 469.25 169.27 C 470.84 164.90 472.49 160.55 474.11 156.19 C 474.49 155.19 474.86 154.20 475.24 153.21 Z" fill="#ffffff" />
<path d="M 372.83 155.44 C 377.31 166.30 381.66 177.25 386.40 188.00 L 359.70 188.00 C 364.87 177.54 368.51 166.27 372.83 155.44 Z" fill="#ffffff" />
</svg>
