<?xml version="1.0" encoding="UTF-8"?>
<svg xmlns="http://www.w3.org/2000/svg" viewBox="0 0 1000 220">
<title>Badr Airlines</title>
<desc>Badr Airlines logo</desc>
<metadata xmlns:rdf="http://www.w3.org/1999/02/22-rdf-syntax-ns#" xmlns:Airline="http://schema.org/Airline">
<rdf:RDF>
<Airline:name>Badr Airlines</Airline:name>
<Airline:iataCode>J4</Airline:iataCode>
<Airline:url>https://airlinelogos.aero/J4</Airline:url>
</rdf:RDF>
</metadata>
<path d="M 139.00 1.08 C 159.07 0.67 179.32 6.10 196.53 16.43 C 223.90 32.65 243.37 61.10 248.40 92.54 C 246.42 93.07 244.44 93.63 242.50 94.27 C 242.55 95.00 242.59 95.73 242.64 96.46 C 243.65 97.58 244.66 98.70 245.66 99.82 C 243.16 103.26 240.78 106.79 238.37 110.30 C 237.72 106.20 237.72 101.36 234.99 98.02 C 233.52 95.96 231.52 94.51 231.05 91.99 C 229.27 84.47 227.27 77.23 223.68 70.33 C 211.72 45.18 187.76 26.00 160.45 20.31 C 137.54 15.20 112.80 19.40 92.89 31.85 C 70.56 45.55 54.53 69.08 50.41 95.00 C 49.08 101.67 49.08 108.37 49.17 115.14 C 49.28 116.77 48.18 118.06 47.38 119.36 C 43.38 125.05 39.21 130.62 35.38 136.41 C 34.20 132.51 33.42 128.52 32.89 124.48 C 28.76 93.71 38.69 61.51 59.23 38.25 C 79.14 15.36 108.65 1.52 139.00 1.08 Z" fill="#05b0ef" />
<path d="M 84.97 53.17 C 109.29 53.22 133.68 53.19 158.00 53.19 C 163.85 53.22 170.26 52.92 175.97 54.22 C 179.96 55.11 184.01 57.19 186.55 60.46 C 188.63 63.15 189.04 66.70 187.87 69.87 C 185.50 76.23 180.68 80.51 175.20 84.21 C 164.03 91.58 151.08 94.50 138.00 96.25 C 138.16 97.31 138.32 98.37 138.49 99.44 C 143.34 100.33 148.56 101.04 153.17 102.80 C 155.87 103.89 158.46 105.56 159.42 108.46 C 160.16 111.64 158.63 115.30 157.13 118.06 C 152.79 125.40 147.14 132.12 140.36 137.33 C 129.27 145.77 116.33 149.10 103.00 152.18 C 101.01 152.54 99.02 152.52 97.00 152.52 C 68.92 152.27 40.81 152.43 12.74 152.05 L 13.98 150.61 C 17.74 149.75 23.52 151.30 26.84 148.97 C 30.28 145.78 33.37 142.04 36.28 138.35 C 53.08 114.97 69.12 91.03 85.04 67.04 C 86.51 64.63 89.20 60.85 88.10 57.90 C 86.83 54.75 82.79 55.08 80.07 54.17 C 81.68 53.63 83.25 53.14 84.97 53.17 Z" fill="#303393" />
<path d="M 137.97 58.93 C 142.20 57.75 146.36 58.09 150.65 58.65 C 150.73 63.00 148.17 65.58 145.96 68.96 C 141.60 75.33 137.26 82.35 131.88 87.90 C 127.57 92.27 122.33 95.49 116.01 95.52 C 114.39 95.48 111.61 95.99 110.54 94.50 C 109.59 92.46 111.02 90.71 112.02 89.02 C 116.91 81.89 121.61 74.64 126.47 67.50 C 129.18 63.49 133.18 60.08 137.97 58.93 Z" fill="#ffffff" />
<path d="M 86.71 59.40 C 86.35 60.81 85.92 62.20 85.45 63.57 C 83.27 63.99 79.05 64.75 78.22 61.94 C 80.25 58.39 83.29 59.69 86.71 59.40 Z" fill="#303393" />
<path d="M 148.49 61.36 C 147.32 63.43 146.07 65.45 144.76 67.43 C 139.92 67.36 135.08 69.29 131.38 72.35 C 125.82 77.63 121.93 85.40 117.48 91.50 C 116.39 93.26 114.41 92.94 112.59 93.49 C 117.47 86.06 122.09 78.45 127.22 71.19 C 129.78 67.55 132.16 64.22 136.35 62.33 C 140.30 60.43 144.29 60.70 148.49 61.36 Z" fill="#303393" />
<path d="M 190.22 70.60 C 189.77 73.69 189.78 77.42 188.15 80.11 C 185.62 84.29 182.40 87.98 178.77 91.25 C 173.88 91.49 169.49 92.02 168.07 97.47 C 164.41 99.29 160.63 100.79 156.86 102.37 C 152.06 100.73 146.74 99.72 142.34 97.15 C 145.68 96.70 148.77 96.61 151.97 95.79 C 162.96 92.85 173.19 88.36 181.77 80.75 C 185.22 77.77 187.53 74.22 190.22 70.60 Z" fill="#303393" />
<path d="M 643.64 76.60 C 646.98 82.39 651.26 86.26 657.95 87.68 C 655.91 92.13 655.30 96.34 650.45 98.66 C 650.69 104.85 650.27 110.23 648.74 116.25 C 653.57 113.27 657.72 110.09 662.81 107.77 C 668.89 104.95 675.51 101.85 682.20 100.79 C 685.24 100.80 688.43 102.41 690.86 104.16 C 695.25 107.77 699.30 111.07 699.97 117.14 C 699.19 118.37 698.42 119.60 697.64 120.83 C 702.81 120.84 707.98 120.87 713.14 120.78 C 712.76 114.00 712.08 107.16 710.69 100.51 C 710.24 98.21 709.22 95.72 709.33 93.37 C 711.84 89.05 714.67 84.90 717.24 80.60 C 722.04 87.32 721.34 94.18 722.20 101.97 C 722.49 108.08 723.32 114.13 723.66 120.24 C 732.45 122.09 740.89 120.54 749.73 120.81 C 749.67 116.77 749.84 112.53 749.13 108.55 C 747.98 102.68 745.15 96.92 742.20 91.76 C 744.68 87.23 747.89 83.30 751.08 79.27 C 754.43 86.28 760.45 89.16 766.54 93.32 C 764.37 97.41 761.18 100.46 758.17 103.89 C 758.40 111.61 759.10 119.59 758.44 127.29 C 758.09 131.37 756.73 135.03 754.78 138.59 C 743.85 138.56 732.92 138.54 722.00 138.61 C 720.34 138.58 718.50 138.63 716.89 138.16 C 715.93 136.37 715.32 134.33 714.63 132.42 C 712.99 134.73 712.73 139.24 709.02 138.58 C 660.83 138.57 612.53 138.54 564.34 138.59 C 559.97 132.98 558.59 126.49 557.43 119.64 C 552.96 122.02 549.76 125.37 544.59 126.30 C 542.72 133.81 540.35 141.27 535.27 147.28 C 531.56 151.79 525.78 154.02 519.99 153.12 C 511.07 151.75 503.38 146.23 496.89 140.24 C 502.90 142.24 508.83 143.25 515.04 141.41 C 523.47 139.41 530.00 134.21 535.48 127.70 C 533.11 121.90 529.75 116.73 525.93 111.79 C 528.59 107.51 531.28 103.26 534.39 99.29 C 537.27 102.71 540.02 106.69 543.61 109.38 C 545.15 110.65 547.69 110.20 549.53 109.95 C 551.98 109.43 554.96 108.68 556.48 106.51 C 558.99 103.08 560.88 99.20 563.21 95.64 C 564.59 101.04 565.92 106.31 566.64 111.82 C 567.04 114.71 567.71 117.51 568.63 120.28 C 576.74 121.01 584.86 120.62 592.98 121.10 C 598.67 121.41 604.31 120.79 610.00 120.82 C 620.79 120.84 631.57 120.65 642.36 120.40 C 642.28 111.79 641.93 102.49 639.45 94.21 C 638.58 91.36 637.01 89.03 635.37 86.59 C 637.77 82.93 640.23 79.41 643.64 76.60 Z" fill="#303393" />
<path d="M 496.00 81.10 C 498.01 95.91 499.93 109.98 498.33 125.02 C 497.42 131.03 495.03 136.60 489.50 139.68 C 489.08 131.43 487.85 123.14 486.53 114.99 C 485.66 108.37 485.10 101.70 484.25 95.07 C 488.30 90.53 492.06 85.73 496.00 81.10 Z" fill="#303393" />
<path d="M 865.02 86.00 C 867.20 90.13 869.11 94.33 870.09 98.92 C 871.75 106.35 873.47 113.71 876.25 120.81 C 905.42 120.85 934.58 120.87 963.74 120.80 C 962.71 114.45 958.08 112.07 954.64 107.16 C 957.93 103.00 960.28 98.28 963.43 94.03 C 965.76 95.82 968.33 97.56 969.84 100.15 C 973.23 105.86 973.95 112.50 973.32 119.01 C 972.56 125.88 970.46 132.74 966.71 138.59 C 935.46 138.54 904.19 138.56 872.95 138.58 C 871.89 138.59 870.86 138.47 869.85 138.25 C 868.02 136.48 867.17 133.61 866.04 131.36 C 864.61 133.65 863.25 136.51 861.12 138.23 C 859.85 138.66 858.35 138.56 857.02 138.61 C 848.73 138.53 840.45 138.59 832.16 138.55 C 831.35 133.02 830.97 127.52 831.96 121.97 C 832.84 117.37 833.68 113.06 837.12 109.60 C 837.46 112.88 837.17 116.20 837.54 119.46 C 838.54 120.37 839.72 120.52 840.99 120.72 C 848.73 121.91 856.51 120.48 864.43 120.75 C 863.96 113.28 861.20 106.67 858.13 99.97 C 860.37 95.27 863.06 90.84 865.02 86.00 Z" fill="#303393" />
<path d="M 447.87 87.15 C 451.95 89.68 455.83 92.34 460.31 94.17 C 457.24 98.05 454.12 100.97 449.83 103.49 C 445.64 101.16 441.43 98.93 436.97 97.13 C 440.26 93.90 443.80 89.25 447.87 87.15 Z" fill="#303393" />
<path d="M 175.95 94.12 C 189.95 94.10 203.99 94.15 218.01 94.10 C 222.56 93.97 227.27 95.31 230.84 98.17 C 233.69 100.98 234.98 105.08 234.34 109.04 C 233.08 117.09 228.07 124.72 222.69 130.67 C 210.88 143.85 193.12 154.48 175.00 154.27 C 161.65 154.20 148.28 154.35 134.94 154.23 C 133.07 154.33 132.40 153.42 131.12 152.28 C 134.32 151.79 137.23 151.82 140.08 150.11 C 142.76 148.69 144.37 146.45 146.07 144.03 C 154.14 132.14 162.36 120.35 170.42 108.45 C 173.05 104.59 175.89 101.41 177.33 96.88 C 175.15 96.74 172.97 96.64 170.79 96.47 C 172.42 95.18 173.68 93.95 175.95 94.12 Z" fill="#303393" />
<path d="M 256.00 94.17 C 270.67 94.32 285.36 94.40 300.03 94.50 C 303.26 94.48 306.85 95.44 309.02 97.97 C 310.54 100.02 309.97 102.76 308.88 104.86 C 305.54 110.97 300.00 114.88 293.83 117.79 C 286.94 121.42 279.23 125.19 273.46 130.46 C 271.57 132.35 268.84 135.15 269.59 138.07 C 270.52 139.89 272.02 141.17 273.71 142.26 C 278.45 145.80 285.91 144.35 291.59 144.77 C 289.84 148.04 287.99 151.25 286.15 154.47 C 277.43 154.57 268.72 154.46 260.00 154.53 C 256.62 154.51 253.48 154.92 250.31 153.45 C 254.79 145.76 259.02 137.89 263.79 130.37 C 260.29 130.33 256.80 130.32 253.31 130.33 C 248.68 136.91 244.13 143.57 239.84 150.37 C 241.72 151.45 243.69 151.91 245.81 152.34 C 242.43 154.98 238.98 154.10 235.00 154.23 C 224.63 154.11 214.24 154.44 203.88 154.10 C 207.12 150.42 211.68 152.60 214.53 148.53 C 225.60 134.46 235.10 119.07 245.44 104.45 C 247.02 102.37 248.02 100.35 248.82 97.87 C 247.10 97.27 245.37 96.66 243.66 96.02 C 247.62 93.38 251.54 94.22 256.00 94.17 Z" fill="#303393" />
<path d="M 210.87 100.34 C 213.23 100.98 212.84 103.43 212.28 105.25 C 210.93 108.26 208.41 110.81 206.56 113.55 C 200.04 122.66 194.18 132.45 187.15 141.12 C 184.22 144.86 179.82 147.90 174.98 148.24 C 171.79 148.28 169.32 145.41 171.45 142.44 C 176.10 135.18 181.23 128.20 186.01 121.01 C 190.28 115.17 194.00 108.16 199.57 103.58 C 202.69 100.94 206.80 99.60 210.87 100.34 Z" fill="#ffffff" />
<path d="M 285.31 102.56 C 280.79 107.23 277.92 112.89 274.06 118.03 C 272.69 119.72 270.78 121.94 268.59 122.44 C 265.15 122.85 261.61 122.57 258.15 122.56 C 262.68 116.40 266.23 107.84 272.35 103.31 C 276.29 100.36 280.96 100.93 285.31 102.56 Z" fill="#ffffff" />
<path d="M 210.15 102.63 C 209.32 104.11 208.48 105.59 207.60 107.04 C 205.49 107.37 203.58 107.40 201.90 108.89 C 198.14 112.01 195.12 116.37 192.34 120.36 C 187.27 127.96 182.50 135.80 177.27 143.29 C 176.40 144.66 175.13 145.08 173.68 145.65 C 181.34 134.30 188.54 122.64 196.42 111.44 C 198.67 108.33 201.41 104.68 204.90 102.91 C 206.43 102.05 208.45 102.56 210.15 102.63 Z" fill="#303393" />
<path d="M 279.68 104.02 C 278.41 105.85 277.24 108.16 275.19 109.18 C 273.04 110.46 270.92 111.30 269.35 113.36 C 267.31 115.76 266.60 118.48 263.44 119.66 C 266.73 112.61 270.82 104.44 279.68 104.02 Z" fill="#303393" />
<path d="M 808.11 105.08 C 814.17 108.41 820.05 113.69 822.74 120.16 C 824.46 125.11 823.84 131.07 822.78 136.10 C 821.34 140.44 817.48 144.10 814.58 147.56 C 810.84 151.38 806.83 156.17 801.04 156.33 C 790.85 156.54 781.89 150.08 774.61 143.61 C 779.98 145.29 785.37 146.34 791.01 145.47 C 799.55 144.54 807.78 139.82 812.81 132.84 C 814.94 130.57 812.89 127.58 811.45 125.54 C 808.70 122.52 805.51 119.90 802.73 116.89 C 804.45 112.89 806.80 109.27 808.11 105.08 Z" fill="#303393" />
<path d="M 112.91 107.33 C 114.96 107.47 116.65 108.76 116.64 110.96 C 116.17 114.21 114.01 116.55 112.13 119.10 C 106.80 126.05 102.57 133.50 96.96 139.99 C 95.18 142.10 92.79 143.36 90.18 144.14 C 85.44 145.41 80.80 146.22 76.11 144.25 C 77.49 138.84 81.01 135.50 84.00 131.00 C 89.63 123.15 95.20 115.26 100.85 107.43 C 104.84 107.13 108.91 107.01 112.91 107.33 Z" fill="#ffffff" />
<path d="M 102.54 109.57 C 106.77 109.09 111.13 109.47 115.38 109.43 C 113.72 111.71 112.02 113.96 110.28 116.19 C 107.04 116.15 103.81 116.16 100.57 116.21 C 95.40 123.78 89.99 131.19 84.75 138.71 C 82.79 141.23 82.12 143.84 78.28 143.55 C 80.26 139.24 83.20 135.78 85.94 131.97 C 91.55 124.59 96.78 116.79 102.54 109.57 Z" fill="#303393" />
<path d="M 464.14 107.92 C 468.62 115.92 472.36 125.72 471.64 135.01 C 471.21 142.72 467.01 150.27 460.29 154.22 C 452.65 158.31 443.65 159.56 435.14 158.07 C 429.85 156.89 424.95 154.80 421.79 150.18 C 419.17 147.09 419.74 142.58 420.87 139.00 C 422.76 133.54 425.12 127.47 429.48 123.49 C 431.44 121.61 433.75 120.37 436.14 119.12 C 434.50 122.40 432.04 125.39 430.76 128.82 C 430.10 131.52 429.90 134.79 430.56 137.49 C 432.55 139.31 435.40 140.31 437.95 141.04 C 446.41 143.20 455.71 142.19 463.63 138.58 C 461.45 131.73 457.91 125.63 454.35 119.43 C 457.43 115.28 459.77 110.96 464.14 107.92 Z" fill="#303393" />
<path d="M 309.76 109.46 C 307.82 114.10 305.58 118.40 301.66 121.68 C 292.43 129.57 280.83 129.41 272.38 138.80 C 272.52 137.51 272.70 136.24 272.93 134.97 C 274.37 131.29 278.46 129.34 281.82 127.76 C 288.66 124.39 295.29 121.98 301.47 117.44 C 304.72 115.20 307.05 112.27 309.76 109.46 Z" fill="#303393" />
<path d="M 674.13 114.49 C 677.49 115.48 679.05 118.01 680.84 120.77 C 672.26 120.88 663.66 120.88 655.08 120.77 C 659.78 115.64 667.22 112.31 674.13 114.49 Z" fill="#ffffff" />
<path d="M 160.87 115.99 C 160.30 119.68 158.11 122.08 156.05 125.03 C 151.46 131.44 146.82 137.75 141.87 143.88 C 140.86 145.02 139.80 146.42 138.43 147.13 C 135.85 148.11 132.31 148.33 130.18 150.15 C 129.18 151.21 128.83 152.94 128.26 154.27 C 118.22 157.51 108.78 161.33 98.00 161.43 C 84.33 161.38 70.67 161.46 57.00 161.27 C 41.39 161.31 25.74 161.60 10.14 161.29 C 10.99 158.09 13.41 156.53 16.48 155.85 C 21.26 154.93 26.13 154.45 31.00 154.48 C 53.33 154.49 75.67 154.24 98.00 154.34 C 104.25 154.52 110.77 152.46 116.76 150.81 C 129.65 147.18 141.12 140.02 150.00 130.00 C 154.20 125.73 157.05 120.51 160.87 115.99 Z" fill="#303393" />
<path d="M 313.46 124.06 C 313.40 131.45 315.90 138.56 321.15 143.85 C 329.23 151.99 339.71 155.36 350.46 158.41 C 356.91 160.29 363.56 160.57 370.11 162.07 C 363.70 162.57 357.41 161.61 351.00 161.75 C 331.81 161.77 312.63 161.64 293.44 161.71 C 300.11 149.16 307.03 136.73 313.46 124.06 Z" fill="#ed1c24" />
<path d="M 254.61 133.57 C 255.93 133.35 257.29 133.33 258.63 133.26 C 254.98 139.19 251.73 145.33 248.24 151.36 C 247.19 150.21 246.14 149.08 245.07 147.96 C 248.34 143.22 251.30 138.26 254.61 133.57 Z" fill="#303393" />
<path d="M 216.10 141.61 C 214.77 143.61 213.31 145.51 211.80 147.38 C 209.26 147.74 206.98 148.28 204.74 149.58 C 204.65 149.26 204.55 148.93 204.46 148.61 C 208.50 146.52 212.21 143.94 216.10 141.61 Z" fill="#303393" />
<path d="M 956.99 148.64 C 961.59 150.69 965.44 153.91 970.19 155.69 C 967.31 159.23 963.73 161.85 960.22 164.71 C 955.65 162.90 951.39 160.53 947.06 158.23 C 949.77 154.23 953.41 151.84 956.99 148.64 Z" fill="#303393" />
<path d="M 201.65 150.69 C 201.34 151.59 201.03 152.50 200.73 153.41 C 202.58 155.87 204.74 157.46 207.98 157.29 C 219.00 157.26 230.01 157.29 241.03 157.28 C 243.59 157.42 245.31 156.10 247.36 154.84 C 248.88 155.92 249.92 157.24 251.93 157.23 C 263.65 157.41 275.41 157.13 287.13 157.35 C 288.58 155.81 289.88 154.22 291.12 152.51 C 291.93 152.50 292.74 152.49 293.55 152.48 C 291.65 155.40 289.92 158.41 288.22 161.44 C 259.13 161.43 230.08 161.28 201.00 161.41 C 177.86 161.29 154.67 161.63 131.54 161.23 C 132.99 160.00 134.14 159.40 135.99 159.01 C 139.38 158.23 142.46 157.11 146.00 157.22 C 155.33 157.25 164.67 157.39 174.00 157.37 C 183.46 157.54 193.11 154.59 201.65 150.69 Z" fill="#303393" />
<path d="M 543.15 149.43 C 547.02 151.24 550.24 154.18 554.12 155.89 C 557.37 154.66 560.11 151.33 562.91 149.25 C 567.04 151.90 570.81 154.82 575.57 156.32 C 573.22 160.41 569.57 162.73 565.91 165.50 C 561.32 164.01 557.79 162.20 553.98 159.24 C 551.53 161.14 549.47 163.47 547.02 165.35 C 542.21 164.93 537.85 160.99 533.35 159.20 C 536.50 155.84 539.81 152.62 543.15 149.43 Z" fill="#303393" />
<path d="M 217.25 162.48 C 223.75 162.02 230.37 162.56 236.90 162.54 C 234.16 166.95 231.56 171.30 228.47 175.48 C 215.85 192.64 198.16 205.88 178.18 213.23 C 150.75 223.21 118.84 221.70 92.75 208.43 C 72.54 198.52 56.06 182.24 45.16 162.60 C 51.84 162.62 58.52 162.74 65.20 162.73 C 67.58 165.72 69.80 168.80 72.34 171.67 C 89.23 191.25 115.10 203.14 141.00 202.61 C 169.11 203.12 196.80 189.02 213.71 166.71 C 214.83 165.28 215.91 163.71 217.25 162.48 Z" fill="#05b0ef" />
<path d="M 424.32 171.47 C 433.53 171.21 442.79 171.38 452.01 171.39 C 457.45 171.41 462.57 174.61 464.07 179.99 C 465.59 185.58 462.49 191.13 457.02 192.92 C 460.46 193.81 463.40 195.41 465.29 198.52 C 468.48 204.62 465.85 212.60 459.62 215.52 C 455.67 217.00 451.19 217.30 447.00 217.41 C 439.41 217.42 431.81 217.40 424.22 217.40 C 424.34 202.11 424.12 186.74 424.32 171.47 Z" fill="#ed1c24" />
<path d="M 485.50 171.51 C 490.38 171.20 495.79 171.23 500.68 171.50 C 502.51 174.49 503.29 178.19 504.59 181.44 C 509.30 193.37 513.49 205.51 518.24 217.42 C 513.30 217.39 508.36 217.38 503.43 217.44 C 502.58 214.88 501.79 212.31 501.04 209.71 C 495.67 209.66 490.29 209.69 484.91 209.67 C 484.10 212.25 483.30 214.84 482.53 217.43 C 477.67 217.39 472.81 217.41 467.95 217.40 C 471.03 210.69 473.08 203.63 475.88 196.82 C 479.17 188.44 481.95 179.77 485.50 171.51 Z" fill="#ed1c24" />
<path d="M 546.87 171.44 C 552.96 171.60 558.88 174.82 561.79 180.25 C 565.22 186.24 565.72 194.03 564.66 200.74 C 563.86 206.61 560.30 212.41 554.88 215.06 C 550.91 216.96 546.35 217.44 542.00 217.43 C 535.58 217.40 529.15 217.41 522.73 217.39 C 522.77 202.06 522.79 186.72 522.72 171.39 C 530.76 171.38 538.83 171.25 546.87 171.44 Z" fill="#ed1c24" />
<path d="M 601.59 171.53 C 606.72 171.80 611.61 174.44 613.40 179.44 C 614.07 182.54 614.12 186.17 613.26 189.23 C 611.48 193.44 607.97 195.37 603.98 197.09 C 611.27 200.82 613.69 210.72 617.88 217.41 C 612.53 217.40 607.18 217.40 601.82 217.41 C 598.72 212.05 596.11 206.38 592.81 201.14 C 591.46 198.78 589.18 199.02 586.83 198.41 C 586.81 204.74 586.80 211.07 586.85 217.40 C 582.09 217.41 577.33 217.40 572.56 217.41 C 572.60 202.06 572.63 186.71 572.55 171.36 C 582.22 171.45 591.93 171.14 601.59 171.53 Z" fill="#ed1c24" />
<path d="M 656.26 171.52 C 661.36 171.10 666.55 171.45 671.67 171.38 C 677.46 186.71 683.30 202.03 688.94 217.41 C 683.97 217.40 679.01 217.43 674.04 217.35 C 673.33 214.73 672.52 212.16 671.58 209.61 C 666.31 209.72 661.05 209.68 655.78 209.67 C 655.06 212.27 654.29 214.85 653.50 217.43 C 648.65 217.39 643.81 217.41 638.96 217.40 C 644.78 202.17 650.40 186.71 656.26 171.52 Z" fill="#ed1c24" />
<path d="M 708.29 171.40 C 708.22 186.72 708.24 202.06 708.28 217.38 C 703.44 217.42 698.60 217.42 693.76 217.36 C 694.37 211.24 694.14 205.14 694.17 199.00 C 694.01 189.84 694.57 180.59 693.73 171.47 C 698.58 171.30 703.43 171.33 708.29 171.40 Z" fill="#ed1c24" />
<path d="M 718.53 171.47 C 726.33 171.17 734.18 171.46 742.00 171.35 C 746.15 171.39 751.57 171.30 755.03 173.92 C 759.30 176.82 760.83 182.12 759.79 187.04 C 758.79 192.31 754.36 195.81 749.31 197.01 C 751.43 198.12 753.45 199.07 754.86 201.09 C 758.57 206.05 760.58 212.15 763.92 217.41 C 758.53 217.40 753.15 217.40 747.76 217.42 C 744.65 212.09 742.11 206.37 738.77 201.18 C 737.46 198.82 735.17 199.06 732.84 198.35 C 732.82 204.70 732.78 211.05 732.89 217.39 C 728.08 217.41 723.26 217.40 718.44 217.41 C 718.57 202.12 718.36 186.74 718.53 171.47 Z" fill="#ed1c24" />
<path d="M 768.31 171.47 C 772.99 171.17 777.71 171.43 782.40 171.37 C 782.32 182.96 782.41 194.55 782.35 206.15 C 789.76 206.22 797.17 206.17 804.58 206.18 C 804.52 209.92 804.52 213.66 804.56 217.40 C 792.44 217.39 780.32 217.42 768.20 217.39 C 768.39 202.11 768.16 186.74 768.31 171.47 Z" fill="#ed1c24" />
<path d="M 825.78 171.36 C 825.66 186.69 825.67 202.06 825.77 217.39 C 821.04 217.41 816.30 217.41 811.56 217.40 C 811.59 202.06 811.62 186.71 811.55 171.37 C 816.29 171.35 821.03 171.35 825.78 171.36 Z" fill="#ed1c24" />
<path d="M 849.22 171.40 C 854.97 179.91 860.89 188.32 866.47 196.95 C 866.39 188.42 866.49 179.89 866.37 171.36 C 870.86 171.35 875.36 171.35 879.85 171.36 C 879.76 186.70 879.77 202.06 879.85 217.40 C 875.30 217.41 870.77 217.46 866.23 217.30 C 860.87 208.72 854.92 200.45 849.21 192.09 C 849.36 200.52 849.24 208.96 849.32 217.39 C 844.81 217.41 840.30 217.42 835.80 217.37 C 835.82 202.07 835.86 186.76 835.77 171.46 C 840.25 171.31 844.74 171.33 849.22 171.40 Z" fill="#ed1c24" />
<path d="M 889.29 171.47 C 901.97 171.21 914.71 171.41 927.41 171.38 C 927.37 174.67 927.36 177.96 927.38 181.26 C 919.37 181.28 911.37 181.25 903.37 181.28 C 903.39 183.67 903.39 186.07 903.40 188.47 C 910.78 188.40 918.15 188.44 925.53 188.44 C 925.50 191.56 925.50 194.68 925.51 197.80 C 918.14 197.81 910.76 197.79 903.39 197.81 C 903.40 200.81 903.39 203.82 903.35 206.83 C 911.43 206.78 919.52 206.89 927.60 206.75 C 927.77 210.30 927.79 213.85 927.78 217.40 C 914.91 217.40 902.05 217.42 889.18 217.39 C 889.37 202.11 889.14 186.74 889.29 171.47 Z" fill="#ed1c24" />
<path d="M 948.92 170.84 C 955.33 170.51 962.50 170.04 967.95 174.08 C 971.44 176.70 972.24 180.39 973.48 184.33 C 968.97 184.62 964.46 184.71 959.96 185.23 C 959.14 183.43 958.80 181.06 956.87 180.13 C 954.91 179.03 951.92 178.99 949.84 179.72 C 948.91 180.55 948.22 181.70 947.50 182.71 C 948.03 183.56 948.57 184.40 949.11 185.25 C 956.31 187.24 964.17 187.92 970.31 192.68 C 975.31 196.80 975.91 204.34 972.71 209.73 C 969.69 214.93 963.92 217.70 958.02 217.87 C 951.96 217.98 945.31 218.51 940.00 215.01 C 935.50 211.98 933.86 207.39 932.75 202.32 C 937.26 201.79 941.79 201.56 946.32 201.36 C 946.70 202.44 947.10 203.51 947.52 204.57 C 948.79 209.28 956.11 210.30 959.44 207.45 C 961.75 205.23 961.11 202.30 958.53 200.67 C 952.61 197.74 945.80 198.02 940.03 193.89 C 935.58 190.91 933.46 185.25 935.41 180.16 C 937.45 174.38 943.10 171.42 948.92 170.84 Z" fill="#ed1c24" />
<path d="M 438.42 180.67 C 441.70 180.76 445.50 180.31 448.62 181.43 C 451.65 183.04 451.15 187.81 447.90 188.91 C 444.90 189.74 441.48 189.37 438.39 189.44 C 438.40 186.52 438.41 183.59 438.42 180.67 Z" fill="#ffffff" />
<path d="M 587.15 180.66 C 590.54 180.75 594.44 180.29 597.69 181.40 C 600.74 183.03 600.43 187.80 597.23 189.15 C 594.15 190.26 590.41 190.08 587.17 190.18 C 587.15 187.01 587.14 183.83 587.15 180.66 Z" fill="#ffffff" />
<path d="M 732.82 180.67 C 736.75 180.56 740.61 180.67 744.49 181.39 C 745.53 184.19 746.70 186.64 743.81 188.84 C 740.63 190.38 736.30 190.05 732.83 190.15 C 732.82 186.99 732.82 183.83 732.82 180.67 Z" fill="#ffffff" />
<path d="M 536.80 181.62 C 540.70 181.74 544.82 181.24 547.95 184.05 C 551.20 187.09 550.73 191.96 550.79 196.00 C 550.74 199.90 550.42 203.57 546.86 205.88 C 543.97 207.29 539.95 206.69 536.78 206.80 C 536.84 198.40 536.81 190.01 536.80 181.62 Z" fill="#ffffff" />
<path d="M 493.05 183.58 C 494.68 189.01 496.27 194.44 498.21 199.77 C 494.76 199.74 491.31 199.73 487.86 199.67 C 489.57 194.31 491.19 188.90 493.05 183.58 Z" fill="#ffffff" />
<path d="M 664.05 183.54 C 665.64 188.97 666.92 194.45 668.97 199.74 C 665.58 199.74 662.18 199.73 658.78 199.71 C 660.71 194.27 661.67 188.72 664.05 183.54 Z" fill="#ffffff" />
<path d="M 438.50 198.28 C 442.22 198.11 446.38 197.77 449.98 198.84 C 453.24 200.89 452.18 203.25 451.32 206.33 C 447.05 207.96 442.85 207.52 438.38 207.50 C 438.40 204.43 438.27 201.34 438.50 198.28 Z" fill="#ffffff" />
</svg>
