<?xml version="1.0" encoding="UTF-8"?>
<svg xmlns="http://www.w3.org/2000/svg" viewBox="0 0 254.1 66.3">
<title>Armenian Airlines</title>
<desc>Armenian Airlines logo</desc>
<metadata xmlns:rdf="http://www.w3.org/1999/02/22-rdf-syntax-ns#" xmlns:Airline="http://schema.org/Airline">
<rdf:RDF>
<Airline:name>Armenian Airlines</Airline:name>
<Airline:iataCode>JI</Airline:iataCode>
<Airline:url>https://airlinelogos.aero/JI</Airline:url>
</rdf:RDF>
</metadata>
<g>
	<g>
		<path fill="#E3050D" d="M72.9,65c-0.1-0.2-0.4-0.8-0.7-1.2c-0.9-1.6-26.1-47.2-35-63.2c0,0-23.3,43.1-35,64.6c0,0,18.8,0,18.8,0
			c0.2,0,0.4-0.1,0.5-0.3c0.8-1.6,15.2-28.4,15.7-29.2c0.1-0.1,0.1-0.2,0.2-0.2c0.1,0,0.2,0.1,0.2,0.2c0.2,0.4,0.4,0.8,0.6,1.2
			c1,1.9,15.2,28,15.2,28c0.1,0.2,0.3,0.3,0.5,0.3c6.3,0,12.5,0,18.8,0C72.7,65.2,73,65.2,72.9,65z"/>
		<path fill="#22368D" d="M62.7,0.9C62.6,1,55.4,14.2,51.8,20.8c-0.1,0.2,0,0.4,0.1,0.6c3,5.5,9.1,16.6,9.2,16.7c0.5-1,1.1-2,1.6-3.1
			l16.1,29.8c0.1,0.3,0.3,0.4,0.6,0.4l18.4,0C92.8,56,63.2,1.9,62.7,0.9z"/>
		<path fill="#F6A831" d="M67.8,44.4c1.2-1.2,2.3-2.4,3.5-3.5c2.2-2.1,4.4-4.2,7-5.8c0.8-0.5,1.6-0.9,2.4-1.2c2.9-1.1,5.9-0.7,8.9-0.6
			c-2.7,0.9-4.9,2.3-6.8,4.4c-2.5,3-3.6,4.9-5,7.1c-1.2,2-4.5,7.1-5.3,8.3c-0.9,1.2-2,2.5-3.1,3.6l-0.7,0.8c0,0-1,1-1.6,1.4
			c-2.8,2.2-6,3.7-9.4,4.6c-1.5,0.4-4.9,0.8-5,0.9c-3.6,0.5-7.2,0.4-10.9-0.2c-2.9-0.5-5.7-1.4-8.3-2.8c-2.8-1.6-5.1-3.7-6.3-6.7
			c0-0.1-0.3-0.6,0.1-0.6c0.3,0,0.6,0.2,0.8,0.3c2.3,1,4.7,1.9,7.1,2.5c1.8,0.5,3.6,0.8,5.4,0.9c2.8,0.2,7.4-0.3,8.2-0.5
			c0.8-0.1,2.2-0.4,3.8-1c1.6-0.6,4.8-2.6,7-4.2c1.3-1,2.5-2.1,3.8-3.2c0.2-0.1,1.5-1.4,2.1-2C66.2,46.1,67.1,45.3,67.8,44.4z"/>
	</g>
	<g>
		<g>
			<path fill="#22368D" d="M128.8,32h-4.3l-2.1-6h-9.2l-2,6H107l8.8-23.4h4.4L128.8,32z M121.4,22.8l-3.2-9.3c-0.1-0.3-0.2-0.8-0.3-1.5
				h-0.1c-0.1,0.6-0.2,1.1-0.3,1.5l-3.2,9.3H121.4z"/>
			<path fill="#22368D" d="M141.3,18.8c-0.5-0.4-1.1-0.5-2-0.5c-1.1,0-2.1,0.5-2.8,1.5c-0.8,1-1.1,2.4-1.1,4.1v8h-3.8V15.2h3.8v3.4h0.1
				c0.4-1.2,0.9-2.1,1.7-2.7c0.8-0.7,1.6-1,2.6-1c0.7,0,1.2,0.1,1.6,0.3V18.8z"/>
			<path fill="#22368D" d="M169,32h-3.8v-9.1c0-1.8-0.2-3-0.7-3.8c-0.5-0.8-1.3-1.2-2.5-1.2c-1,0-1.8,0.5-2.5,1.5c-0.7,1-1,2.2-1,3.6v9
				h-3.8v-9.4c0-3.1-1.1-4.7-3.3-4.7c-1,0-1.9,0.5-2.5,1.4c-0.7,0.9-1,2.1-1,3.6v9H144V15.2h3.8v2.6h0.1c1.2-2,3-3,5.3-3
				c1.2,0,2.2,0.3,3,1c0.9,0.6,1.5,1.5,1.8,2.5c1.2-2.3,3.1-3.5,5.5-3.5c3.7,0,5.5,2.3,5.5,6.8V32z"/>
			<path fill="#22368D" d="M187.7,24.6h-11.4c0,1.5,0.5,2.7,1.4,3.6c0.9,0.8,2.2,1.3,3.7,1.3c1.8,0,3.4-0.5,4.9-1.6v3.1
				c-1.5,1-3.5,1.4-6,1.4c-2.5,0-4.4-0.8-5.8-2.3c-1.4-1.5-2.1-3.7-2.1-6.4c0-2.6,0.8-4.7,2.3-6.4c1.5-1.6,3.5-2.5,5.7-2.5
				c2.3,0,4.1,0.7,5.3,2.2c1.3,1.5,1.9,3.5,1.9,6.1V24.6z M184.1,21.9c0-1.4-0.3-2.4-1-3.2c-0.6-0.8-1.5-1.1-2.6-1.1
				c-1.1,0-2,0.4-2.8,1.2c-0.8,0.8-1.2,1.8-1.4,3.1H184.1z"/>
			<path fill="#22368D" d="M206.2,32h-3.8v-9.4c0-3.1-1.1-4.7-3.3-4.7c-1.2,0-2.1,0.4-2.9,1.3c-0.8,0.9-1.1,2-1.1,3.3V32h-3.8V15.2h3.8
				V18h0.1c1.3-2.1,3.1-3.2,5.4-3.2c1.8,0,3.2,0.6,4.2,1.8c1,1.2,1.4,2.9,1.4,5.1V32z"/>
			<path fill="#22368D" d="M212.8,11.7c-0.6,0-1.2-0.2-1.6-0.6c-0.4-0.4-0.7-0.9-0.7-1.5c0-0.6,0.2-1.1,0.7-1.6c0.4-0.4,1-0.6,1.6-0.6
				c0.6,0,1.2,0.2,1.6,0.6c0.4,0.4,0.7,0.9,0.7,1.6c0,0.6-0.2,1.1-0.7,1.5C213.9,11.5,213.4,11.7,212.8,11.7z M214.6,32h-3.8V15.2
				h3.8V32z"/>
			<path fill="#22368D" d="M232.4,32h-3.7v-2.6h-0.1c-1.2,2-2.8,3-5.1,3c-1.6,0-2.9-0.4-3.9-1.3c-0.9-0.9-1.4-2.1-1.4-3.5
				c0-3.2,1.8-5,5.5-5.5l5-0.7c0-2.4-1.1-3.6-3.4-3.6c-2,0-3.8,0.7-5.4,2.1v-3.3c1.8-1,3.8-1.6,6.1-1.6c4.2,0,6.3,2.1,6.3,6.2V32z
				 M228.7,23.7l-3.5,0.5c-1.1,0.1-1.9,0.4-2.5,0.8c-0.5,0.4-0.8,1.1-0.8,2c0,0.7,0.3,1.3,0.8,1.7c0.5,0.5,1.2,0.7,2,0.7
				c1.2,0,2.1-0.4,2.9-1.2c0.8-0.8,1.1-1.8,1.1-3.1V23.7z"/>
			<path fill="#22368D" d="M251.9,32h-3.8v-9.4c0-3.1-1.1-4.7-3.3-4.7c-1.2,0-2.1,0.4-2.9,1.3c-0.8,0.9-1.1,2-1.1,3.3V32H237V15.2h3.8
				V18h0.1c1.3-2.1,3.1-3.2,5.4-3.2c1.8,0,3.2,0.6,4.2,1.8c1,1.2,1.4,2.9,1.4,5.1V32z"/>
			<path fill="#22368D" d="M128.8,65.4h-4.3l-2.1-6h-9.2l-2,6H107l8.8-23.4h4.4L128.8,65.4z M121.4,56.2l-3.2-9.3
				c-0.1-0.3-0.2-0.8-0.3-1.5h-0.1c-0.1,0.6-0.2,1.1-0.3,1.5l-3.2,9.3H121.4z"/>
			<path fill="#22368D" d="M133.5,45.2c-0.6,0-1.2-0.2-1.6-0.6c-0.4-0.4-0.7-0.9-0.7-1.5s0.2-1.1,0.7-1.6c0.4-0.4,1-0.6,1.6-0.6
				c0.6,0,1.2,0.2,1.6,0.6c0.4,0.4,0.7,0.9,0.7,1.6c0,0.6-0.2,1.1-0.7,1.5C134.7,44.9,134.2,45.2,133.5,45.2z M135.4,65.4h-3.8V48.7
				h3.8V65.4z"/>
			<path fill="#22368D" d="M150,52.3c-0.5-0.4-1.1-0.5-2-0.5c-1.1,0-2.1,0.5-2.8,1.5c-0.8,1-1.1,2.4-1.1,4.1v8h-3.8V48.7h3.8v3.4h0.1
				c0.4-1.2,0.9-2.1,1.7-2.7c0.8-0.7,1.6-1,2.6-1c0.7,0,1.2,0.1,1.6,0.3V52.3z"/>
			<path fill="#22368D" d="M156.5,65.4h-3.8V40.6h3.8V65.4z"/>
			<path fill="#22368D" d="M163.4,45.2c-0.6,0-1.2-0.2-1.6-0.6c-0.4-0.4-0.7-0.9-0.7-1.5s0.2-1.1,0.7-1.6c0.4-0.4,1-0.6,1.6-0.6
				c0.6,0,1.2,0.2,1.6,0.6c0.4,0.4,0.7,0.9,0.7,1.6c0,0.6-0.2,1.1-0.7,1.5C164.5,44.9,164,45.2,163.4,45.2z M165.2,65.4h-3.8V48.7
				h3.8V65.4z"/>
			<path fill="#22368D" d="M185.1,65.4h-3.8V56c0-3.1-1.1-4.7-3.3-4.7c-1.2,0-2.1,0.4-2.9,1.3s-1.1,2-1.1,3.3v9.5h-3.8V48.7h3.8v2.8
				h0.1c1.3-2.1,3.1-3.2,5.4-3.2c1.8,0,3.2,0.6,4.2,1.8c1,1.2,1.4,2.9,1.4,5.1V65.4z"/>
			<path fill="#22368D" d="M203.8,58h-11.4c0,1.5,0.5,2.7,1.4,3.6c0.9,0.8,2.2,1.3,3.7,1.3c1.8,0,3.4-0.5,4.9-1.6v3.1
				c-1.5,1-3.5,1.4-6,1.4c-2.5,0-4.4-0.8-5.8-2.3c-1.4-1.5-2.1-3.7-2.1-6.4c0-2.6,0.8-4.7,2.3-6.4c1.5-1.6,3.5-2.5,5.7-2.5
				c2.3,0,4.1,0.7,5.3,2.2c1.3,1.5,1.9,3.5,1.9,6.1V58z M200.2,55.4c0-1.4-0.3-2.4-1-3.2c-0.6-0.8-1.5-1.1-2.6-1.1
				c-1.1,0-2,0.4-2.8,1.2c-0.8,0.8-1.2,1.8-1.4,3.1H200.2z"/>
			<path fill="#22368D" d="M206.4,64.8v-3.5c1.4,1.1,3,1.6,4.7,1.6c2.3,0,3.4-0.7,3.4-2c0-0.4-0.1-0.7-0.3-1c-0.2-0.3-0.5-0.5-0.8-0.7
				c-0.3-0.2-0.7-0.4-1.2-0.6c-0.5-0.2-1-0.3-1.5-0.6c-0.7-0.3-1.3-0.6-1.9-0.9c-0.5-0.3-1-0.6-1.4-1c-0.4-0.4-0.6-0.8-0.8-1.3
				c-0.2-0.5-0.3-1.1-0.3-1.7c0-0.8,0.2-1.5,0.6-2.1c0.4-0.6,0.9-1.1,1.5-1.6c0.6-0.4,1.4-0.7,2.2-0.9c0.8-0.2,1.7-0.3,2.5-0.3
				c1.5,0,2.9,0.2,4.1,0.7v3.3c-1.2-0.8-2.5-1.2-4-1.2c-0.5,0-0.9,0-1.3,0.1c-0.4,0.1-0.7,0.2-1,0.4c-0.3,0.2-0.5,0.4-0.6,0.6
				c-0.2,0.2-0.2,0.5-0.2,0.8c0,0.4,0.1,0.7,0.2,0.9c0.2,0.3,0.4,0.5,0.7,0.7c0.3,0.2,0.7,0.4,1.1,0.5c0.4,0.2,0.9,0.3,1.4,0.5
				c0.7,0.3,1.4,0.6,1.9,0.9c0.6,0.3,1.1,0.7,1.5,1c0.4,0.4,0.7,0.8,0.9,1.3c0.2,0.5,0.3,1.1,0.3,1.8c0,0.8-0.2,1.6-0.6,2.2
				c-0.4,0.6-0.9,1.2-1.6,1.6c-0.7,0.4-1.4,0.7-2.3,0.9c-0.9,0.2-1.8,0.3-2.7,0.3C209.3,65.8,207.7,65.5,206.4,64.8z"/>
		</g>
	</g>
</g>
</svg>
