<?xml version="1.0" encoding="UTF-8"?>
<svg xmlns="http://www.w3.org/2000/svg" viewBox="0 0 599.51 54.46">
<title>Japan Airlines</title>
<desc>Japan Airlines logo</desc>
<metadata xmlns:rdf="http://www.w3.org/1999/02/22-rdf-syntax-ns#" xmlns:Airline="http://schema.org/Airline">
<rdf:RDF>
<Airline:name>Japan Airlines</Airline:name>
<Airline:alternateName>日本航空</Airline:alternateName>
<Airline:iataCode>JL</Airline:iataCode>
<Airline:url>https://airlinelogos.aero/JL</Airline:url>
</rdf:RDF>
</metadata>
<path d="M595.84,32.67c-2.9,7.5-12.9,9.8-23.7,9.8s-17.7-2.3-16.1-9.8h13.7c-.4,2,.9,3.3,4.9,3.3s6.7-1.3,7.4-3.3c1.9-4.9-25.2-.1-20.9-11.3,2.4-6.3,11.9-9.2,22.7-9.2s16.8,2.3,15.5,9.2h-13.4c.2-1.9-.4-3.3-4.4-3.3s-6.2,1.4-6.9,3.3c-1.9,4.9,25.5.1,21.2,11.3m-239.9,9h-13.7l11-28.7h13.7Zm103.7,0h-13.7l11-28.7h13.7Zm88.3,0h-33.4l11-28.7h33.3l-2.1,5.5h-19.6l-2.2,5.8h16.3l-2.1,5.5h-16.3l-2.2,5.8h19.6Zm-272.4,0h-11.1l-9.3-17-6.5,17h-11.1l11-28.7h12.9l8.2,15.1,5.8-15.1h11.1Zm230.5,0h-11.1l-9.3-17-6.5,17H468L479,13h12.9l8.2,15.1,5.8-15.1H517Zm-397-9.6c-3.8,9.8-13,10.6-19.6,10.6a43.18,43.18,0,0,1-9.5-1l2.3-6.1c6.3.7,11.7.2,13.8-5.3l6.7-17.3h13.7L109,32.07M186.74,13h-21.3l-11,28.7h13.7l4-10.4h7.6c12.7,0,19.5-3.4,21.7-9.1s-2-9.2-14.7-9.2m1,9.1a6.42,6.42,0,0,1-5.9,3.6h-7.6l2.8-7.3h7.6c2.5.1,3.9,1.6,3.1,3.7m209-9.1h-21.3l-11,28.7h13.7l4-10.4h4.1l2.7,10.4h15l-3.7-11.5c6.1-1.4,9.7-4.2,11.2-8.1,2.2-5.7-2-9.1-14.7-9.1m1,9.1a6.42,6.42,0,0,1-5.9,3.6h-7.6l2.8-7.3h7.6c2.5.1,3.9,1.6,3.1,3.7m29,13.5,8.7-22.6h-13.7l-11,28.7h31.1l2.3-6.1ZM148.14,13h-12.3a6.1,6.1,0,0,0-4.2,2.1l-23,26.6h11.3l4.6-5.6h12.4l.2,5.6h13.7L148.14,13M129,30.47l7.4-9.2.3,9.2ZM231.34,13h-12.2a6.1,6.1,0,0,0-4.2,2.1l-23,26.6h11.3l4.6-5.6h12.4l.2,5.6h13.7L231.34,13m-19.1,17.5,7.4-9.2.3,9.2ZM335.94,13h-12.3a6.1,6.1,0,0,0-4.2,2.1l-23,26.6h11.3l4.6-5.6h12.4l.2,5.6h13.7L335.94,13m-19.1,17.5,7.4-9.2.3,9.2Z"/>
<path fill="#c00" d="M54,29.67a30.09,30.09,0,0,0-.1-6h0a16.41,16.41,0,0,1-6,9.2h0a19.92,19.92,0,0,0,5.5-12.2,25.67,25.67,0,0,0-2.8-6.9h0a18.92,18.92,0,0,1-4.7,15.1h0A21.25,21.25,0,0,0,49,11.07a27.31,27.31,0,0,0-38.2-5.7,25.69,25.69,0,0,0-5.7,5.7,21.25,21.25,0,0,0,3.1,17.8h0a18.57,18.57,0,0,1-4.7-15.1h0a27.76,27.76,0,0,0-2.8,6.9,19.92,19.92,0,0,0,5.5,12.2h0a16.41,16.41,0,0,1-6-9.2h0a24.1,24.1,0,0,0-.1,6,16.5,16.5,0,0,0,5,7.2h0a14.62,14.62,0,0,1-4.5-4.1h0a27.34,27.34,0,0,0,53.5,0h0a16.11,16.11,0,0,1-4.5,4.1h0A22.42,22.42,0,0,0,54,29.67Zm-37.3,17.8a11.53,11.53,0,0,1-2.6-.3l.6-1.7c1.7.2,3.2.1,3.7-1.4l1.8-4.7h3.7l-2,5.2C21,47.27,18.54,47.47,16.74,47.47Zm12.7-.3-.1-1.5h-3.4l-1.2,1.5h-3.1l6.2-7.2a1.74,1.74,0,0,1,1.1-.6h3.3l.7,7.8Zm13.2,0h-8.5l3-7.8h3.7l-2.4,6.1h4.7Zm-3.4-16.4c-5.6,5.4-13.9,2-13.1-4.7.7-5.1,7-10.3,11.7-13V13h0a38.33,38.33,0,0,1-2.8-2.9,5.44,5.44,0,0,0-7.7-.9,5.73,5.73,0,0,0-1.1,1.1l-13.7,1.2h0l14.7.8c2.6.2,3.5,2.5.9,4.4-9.4,7.1-11,14.6-8.9,20.5h0a11,11,0,0,1-1.8-4.3,17.6,17.6,0,1,1,24.3-5.4A21.93,21.93,0,0,1,39.24,30.77Zm-12,13.4h2.1l-.1-2.5Z"/>
</svg>
