<?xml version="1.0" encoding="UTF-8"?>
<svg xmlns="http://www.w3.org/2000/svg" viewBox="0 0 489.74 365.37">
<title>Key Lime Air</title>
<desc>Key Lime Air logo</desc>
<metadata xmlns:rdf="http://www.w3.org/1999/02/22-rdf-syntax-ns#" xmlns:Airline="http://schema.org/Airline">
<rdf:RDF>
<Airline:name>Key Lime Air</Airline:name>
<Airline:iataCode>KG</Airline:iataCode>
<Airline:url>https://airlinelogos.aero/KG</Airline:url>
</rdf:RDF>
</metadata>
<path fill="#fdfdfd" d="M281.27,285.13A363.41,363.41,0,0,0,328.48,282a508.82,508.82,0,0,0,75.89-15.79c1.34-.38,3.23-.23,3.11-2.4-.14-2.45-2.18-2.11-3.74-2.23-6.12-.48-12.27-.78-18.39-1.33-36.58-3.29-71.92-11.49-105.57-26.55-43-19.25-77.11-49.49-106.61-85.49-26.52-32.37-52.6-65.13-82.45-94.61A479.94,479.94,0,0,0,29,1.77c-1.12-.79-2.27-3-4.06-.67-1.55,2,.39,2.55,1.33,3.44C36.92,14.64,44.33,27,50.73,40c16.09,32.67,26.87,67.31,37,102.14,7.31,25.27,16,49.85,30.93,71.76,15.86,23.24,35.78,42.07,61.93,53C212.66,280.36,246.6,285.09,281.27,285.13Zm127.59-28.62c-1.27-.95-2.5-1.95-3.8-2.85Q292.65,176,180.23,98.29,110.62,50.17,41,2c-1.16-.8-2.57-3.5-4.44-1s1.13,3,2.3,3.82C67.25,24,92.2,47.12,116.53,71c23.54,23.11,43.43,49.35,64.8,74.32,39.75,46.46,87.23,81.15,146.93,97.68C354.56,250.3,381.17,255.53,408.86,256.51Z"/>
<path fill="#2c2829" d="M281.27,285.13c-34.67,0-68.61-4.77-100.73-18.22-26.15-10.94-46.07-29.77-61.93-53C103.65,192,95,167.41,87.68,142.14,77.6,107.31,66.82,72.67,50.73,40,44.33,27,36.92,14.64,26.26,4.54c-.94-.89-2.88-1.48-1.33-3.44C26.72-1.19,27.87,1,29,1.77A479.94,479.94,0,0,1,90.72,53.61c29.85,29.48,55.93,62.24,82.45,94.61,29.5,36,63.61,66.24,106.61,85.49,33.65,15.06,69,23.26,105.57,26.55,6.12.55,12.27.85,18.39,1.33,1.56.12,3.6-.22,3.74,2.23.12,2.17-1.77,2-3.11,2.4A508.82,508.82,0,0,1,328.48,282,363.41,363.41,0,0,1,281.27,285.13ZM42.9,17.94l-.27-1.23-.54.31.75,1c4.29,7.76,8.93,15.36,12.82,23.33,9,18.39,16.07,37.56,22.37,57,4.62,14.25,9.45,28.45,13.45,42.88a319.06,319.06,0,0,0,15.58,44.12,164.54,164.54,0,0,0,28.41,44c12.06,13.32,26,24.43,42.42,32,14.7,6.77,30.14,11.07,46.07,14.26a268.28,268.28,0,0,0,49.2,5.54,393.4,393.4,0,0,0,58-3.55c16.24-2.18,32.09-6.09,48.2-8.75,3.67-.61,7.22-2,10.83-3-11.12-2.38-22.25-2.95-33.07-5.09-15.66-3.1-31.28-6.51-46.58-11.31-31.71-10-60.88-24.8-86.87-45.35a339.9,339.9,0,0,1-54.31-54.39c-17.67-22.06-35.5-44-54.35-65.06S76.26,43.88,54.49,26C50.9,23,48,18.77,42.9,17.94Z"/>
<path fill="#2c2829" d="M408.86,256.51c-27.69-1-54.3-6.21-80.6-13.5-59.7-16.53-107.18-51.22-146.93-97.68-21.37-25-41.26-51.21-64.8-74.32C92.2,47.12,67.25,24,38.89,4.88c-1.17-.79-4.23-1.19-2.3-3.82s3.28.17,4.44,1q69.64,48,139.2,96.26Q292.63,176,405.06,253.66C406.36,254.56,407.59,255.56,408.86,256.51ZM99,48.08c0,.36-.06.8.11,1,4.73,4.65,9.43,9.32,14.22,13.9,24.41,23.34,45.19,49.87,66.81,75.67,20.88,24.92,44.22,47.23,71.09,65.65,19.84,13.59,41.69,23.13,64.31,31,23.73,8.28,48.27,13.1,73,17,1.44.22,3.58,1.08,4.45-.9.95-2.15-1.32-2.84-2.56-3.63-7.68-4.89-15-10.28-22.58-15.34-19.55-13.09-38.58-27-58-40.29-17.27-11.87-34.59-23.69-51.8-35.64q-27.31-18.93-54.61-37.9c-16.43-11.35-32.77-22.83-49.39-33.91-16.86-11.23-33.21-23.23-49.85-34.8C102.77,48.89,101.38,46.88,99,48.08Z"/>
<path fill="#357843" d="M42.9,17.94c5.12.83,8,5.07,11.59,8C76.26,43.88,96.2,63.76,115,84.72s36.68,43,54.35,65.06a339.9,339.9,0,0,0,54.31,54.39c26,20.55,55.16,35.39,86.87,45.35,15.3,4.8,30.92,8.21,46.58,11.31,10.82,2.14,22,2.71,33.07,5.09-3.61,1-7.16,2.35-10.83,3-16.11,2.66-32,6.57-48.2,8.75a393.4,393.4,0,0,1-58,3.55,268.28,268.28,0,0,1-49.2-5.54c-15.93-3.19-31.37-7.49-46.07-14.26-16.43-7.58-30.36-18.69-42.42-32a164.54,164.54,0,0,1-28.41-44,319.06,319.06,0,0,1-15.58-44.12c-4-14.43-8.83-28.63-13.45-42.88-6.3-19.45-13.39-38.62-22.37-57-3.89-8-8.53-15.57-12.82-23.33Z"/>
<path fill="#357843" d="M42.84,18l-.75-1,.54-.31.27,1.23Z"/>
<path fill="#add040" d="M99,48.08c2.37-1.2,3.76.81,5.23,1.84,16.64,11.57,33,23.57,49.85,34.8,16.62,11.08,33,22.56,49.39,33.91q27.35,18.9,54.61,37.9c17.21,11.95,34.53,23.77,51.8,35.64,19.4,13.33,38.43,27.2,58,40.29,7.56,5.06,14.9,10.45,22.58,15.34,1.24.79,3.51,1.48,2.56,3.63-.87,2-3,1.12-4.45.9-24.74-3.93-49.28-8.75-73-17-22.62-7.9-44.47-17.44-64.31-31-26.87-18.42-50.21-40.73-71.09-65.65-21.62-25.8-42.4-52.33-66.81-75.67-4.79-4.58-9.49-9.25-14.22-13.9C99,48.88,99.05,48.44,99,48.08Z"/>
<path fill="#231f20" d="M9,319.51H23.17l-3.4,17.33L38,319.51H56.87L36.73,336.82l11.89,28.55H31.17l-6-18.86-8.83,7.67-2.2,11.19H0Z"/>
<path fill="#231f20" d="M62.28,319.51h38l-1.92,9.79H74.56l-1.43,7.29H95.19l-1.84,9.35h-22l-1.78,9H94l-2,10.39H53.28Z"/>
<path fill="#231f20" d="M104,319.51H119.7L125.9,335l12.3-15.47h15.65l-23.06,26.65L127,365.37h-14.2l3.77-19.21Z"/>
<path fill="#231f20" d="M179.79,319.51H194l-6.78,34.57H209.3l-2.22,11.29H170.79Z"/>
<path fill="#231f20" d="M223.09,319.51H237.3l-9,45.86H214.09Z"/>
<path fill="#231f20" d="M247.31,319.51H266l1.71,27.9,12.61-27.9H298.9l-9,45.86H278.29l6.86-35-15.8,35H258.84l-2.06-35-6.87,35h-11.6Z"/>
<path fill="#231f20" d="M307.91,319.51h38L344,329.3H320.19l-1.43,7.29h22.06L339,345.94H316.93l-1.78,9h24.47l-2,10.39H298.91Z"/>
<path fill="#231f20" d="M396.26,357.8H380.17l-3.72,7.57H362l26.24-45.86h15.46l8.23,45.86H397.07Zm-1-9.92-1.83-16.49-8.24,16.49Z"/>
<path fill="#231f20" d="M426,319.51h14.21l-9,45.86H417Z"/>
<path fill="#231f20" d="M441.54,365.37l9-45.86h23.62q6.57,0,9.83,1.12a8.13,8.13,0,0,1,4.78,4.18,11.4,11.4,0,0,1,.67,7.43,15.32,15.32,0,0,1-2.92,6.58,16.9,16.9,0,0,1-5.36,4.49,20.67,20.67,0,0,1-5.34,1.82,11.18,11.18,0,0,1,3.36,1.69,10.54,10.54,0,0,1,1.8,2.41,14.07,14.07,0,0,1,1.42,2.85l4.26,13.29h-16l-4.82-14a8.32,8.32,0,0,0-1.87-3.53,5.06,5.06,0,0,0-3.27-1.06h-1.25l-3.65,18.61Zm19.59-27.28h6a23.14,23.14,0,0,0,3.87-.63,4.72,4.72,0,0,0,2.59-1.44,5.23,5.23,0,0,0,1.41-2.66,3.61,3.61,0,0,0-.74-3.41c-.78-.79-2.47-1.18-5.05-1.18H463Z"/>
</svg>
