<?xml version="1.0" encoding="UTF-8"?>
<svg xmlns="http://www.w3.org/2000/svg" viewBox="0 0 2000 465">
<title>Contour Airlines</title>
<desc>Contour Airlines logo</desc>
<metadata xmlns:rdf="http://www.w3.org/1999/02/22-rdf-syntax-ns#" xmlns:Airline="http://schema.org/Airline">
<rdf:RDF>
<Airline:name>Contour Airlines</Airline:name>
<Airline:iataCode>LF</Airline:iataCode>
<Airline:url>https://airlinelogos.aero/LF</Airline:url>
</rdf:RDF>
</metadata>
<path fill="#005EB8" d="M415.71,209.9c-9.25-4.85-75.68-22.04-129.56-31.33c-17.95-3.48-36.15-5.5-54.42-6.04
	c32.5,1.33,58.18,28.05,58.2,60.59l0,0c0,1.3-0.11,2.57-0.19,3.86c-0.72,17.8-2.76,35.53-6.12,53.03l156.58-37.19
	c0.14-1.4,0.21-2.82,0.21-4.25C440.4,231.96,430.76,216.87,415.71,209.9z"/>
<path fill="#014FB7" d="M290.15,232.97v55.51l-7.16,1.7L290.15,232.97"/>
<path fill="#0077C8" d="M229.21,293.84L229.21,293.84c-2.13,0-4.25-0.12-6.37-0.34c-16.98-0.86-33.89-2.87-50.6-6.02
	l37.17,156.48c1.4,0.14,2.82,0.21,4.25,0.21c16.62,0,31.73-9.66,38.69-24.76c4.85-9.24,21.99-75.54,31.29-129.38
	c3.36-17.5,5.41-35.22,6.12-53.03C287.74,268.96,261.23,293.84,229.21,293.84z"/>
<path fill="#0067C7" d="M229.29,293.97h-55.52l-1.7-7.16L229.29,293.97"/>
<path fill="#00A3E0" d="M168.49,233.12c0-0.07,0-0.14,0-0.22c0-1.07,0.1-2.12,0.16-3.18
	c0.65-18.04,2.69-36,6.12-53.72L18.19,213.2c-0.14,1.41-0.21,2.82-0.21,4.25c0,16.62,9.66,31.73,24.76,38.69
	c9.25,4.85,75.68,22.03,129.55,31.32c16.71,3.15,33.61,5.16,50.6,6.02C191.98,290.24,168.5,264.2,168.49,233.12z"/>
<path fill="#0195DF" d="M168.2,233.07v-55.51l7.16-1.7L168.2,233.07"/>
<path fill="#71C5E8" d="M248.98,22.09c-1.41-0.14-2.82-0.21-4.25-0.21c-16.62,0-31.73,9.66-38.69,24.76
	c-4.85,9.25-21.99,75.54-31.28,129.38c-3.43,17.72-5.48,35.68-6.12,53.72c1.77-32.14,28.34-57.3,60.52-57.32l0,0
	c0.87,0,1.68,0.1,2.52,0.13c18.29,0.53,36.51,2.55,54.47,6.03L248.98,22.09z"/>
<path fill="#082C88" d="M230.06,171.95h-0.87c-33.66,0-60.97,27.26-61.02,60.92v0.2c0,33.34,26.81,60.48,60.15,60.88
	h0.87c33.66,0,60.97-27.26,61.02-60.92v-0.2C290.22,199.49,263.4,172.35,230.06,171.95z"/>
<path fill="#FFFFFF" d="M228.98,267.24c-11.75-0.3-22.46-6.84-28.1-17.15c-70.81-5.25-147.34-16.27-148.22-16.27
	c-1.32,0-1.75-1.32-1.75-2.2c-0.08-1.14,0.78-2.13,1.92-2.22c0.07-0.01,0.14-0.01,0.22,0l143.82,3.08l0,0
	c-0.36-15.83,10.19-29.84,25.51-33.86l4.84-58.94c-0.07-1.14,0.8-2.13,1.94-2.2c0.08-0.01,0.17-0.01,0.25,0l0,0
	c1.14-0.07,2.13,0.8,2.2,1.94c0.01,0.08,0.01,0.17,0,0.25l5.25,58.94c15.12,4.23,25.44,18.17,25.07,33.86l0,0l143.43-3.08
	c1.15-0.06,2.13,0.81,2.2,1.96c0,0.08,0,0.16,0,0.23c0.11,1.09-0.67,2.06-1.75,2.2c-0.87,0-77.85,10.56-148.21,15.83
	C252.03,260.32,241.04,267.09,228.98,267.24z"/>
<path fill="#21356A" d="M618.08,344.35c-13.8,0-25.56-1.68-35.29-5.03c-9.73-3.35-17.4-8.29-23.01-14.82
	c-5.61-6.53-9.66-14.06-12.14-22.6c-2.48-8.53-3.72-18.55-3.72-30.04v-77.19c0-11.76,1.24-21.96,3.72-30.63
	c2.48-8.66,6.53-16.24,12.14-22.73c5.61-6.49,13.25-11.36,22.93-14.63s21.47-4.9,35.36-4.9c13.3,0,24.64,1.48,34.02,4.44
	c9.38,2.96,16.73,7.31,22.04,13.06c5.31,5.75,9.13,12.28,11.47,19.59c2.33,7.31,3.5,15.8,3.5,25.47v19.07H635.8V181.6
	c0-3.4-0.05-5.96-0.15-7.71c-0.1-1.74-0.45-3.98-1.04-6.73c-0.6-2.74-1.47-4.81-2.61-6.2c-1.14-1.39-2.9-2.63-5.29-3.72
	c-2.38-1.09-5.26-1.63-8.64-1.63c-3.38,0-6.25,0.54-8.64,1.63c-2.38,1.09-4.19,2.4-5.43,3.92c-1.24,1.52-2.23,3.61-2.98,6.27
	c-0.74,2.66-1.19,5.07-1.34,7.25c-0.15,2.18-0.22,4.88-0.22,8.1v100.97c0,8.71,1.29,15.35,3.87,19.92
	c2.58,4.57,7.49,6.86,14.74,6.86c3.28,0,6.08-0.54,8.41-1.63c2.33-1.09,4.09-2.37,5.29-3.85c1.19-1.48,2.11-3.57,2.75-6.27
	c0.64-2.7,1.02-5.05,1.12-7.05c0.1-2,0.15-4.66,0.15-7.97v-22.73h53.31v18.68c0,7.75-0.7,14.76-2.08,21.03
	c-1.39,6.27-3.75,12.17-7.07,17.7c-3.33,5.53-7.65,10.17-12.95,13.91c-5.31,3.75-12.09,6.68-20.33,8.82
	C638.43,343.28,628.9,344.35,618.08,344.35z"/>
<path fill="#21356A" d="M829.32,344.35c-13.7,0-25.39-1.59-35.07-4.77c-9.68-3.18-17.37-7.92-23.08-14.24
	c-5.71-6.31-9.83-13.73-12.36-22.27c-2.53-8.53-3.8-18.59-3.8-30.17v-79.94c0-11.67,1.27-21.75,3.8-30.24
	c2.53-8.49,6.65-15.87,12.36-22.14c5.71-6.27,13.4-10.97,23.08-14.11c9.68-3.13,21.37-4.7,35.07-4.7c26.7,0,45.84,5.99,57.4,17.96
	c11.56,11.97,17.35,29.72,17.35,53.23v79.94c0,23.51-5.78,41.3-17.35,53.36C875.15,338.32,856.02,344.35,829.32,344.35z
	 M820.9,308.95c2.33,1.04,5.14,1.57,8.41,1.57c3.28,0,6.1-0.5,8.49-1.5c2.38-1,4.22-2.26,5.51-3.79c1.29-1.52,2.31-3.5,3.05-5.94
	c0.74-2.44,1.21-4.72,1.41-6.86c0.2-2.13,0.3-4.68,0.3-7.64V180.95c0-2.87-0.1-5.38-0.3-7.51c-0.2-2.13-0.67-4.4-1.41-6.79
	c-0.74-2.39-1.76-4.33-3.05-5.81c-1.29-1.48-3.13-2.72-5.51-3.72c-2.38-1-5.21-1.5-8.49-1.5c-3.28,0-6.08,0.5-8.41,1.5
	c-2.33,1-4.15,2.22-5.43,3.66c-1.29,1.44-2.29,3.4-2.98,5.88c-0.7,2.48-1.12,4.72-1.27,6.73c-0.15,2-0.22,4.53-0.22,7.58v103.84
	c0,3.05,0.07,5.6,0.22,7.64c0.15,2.05,0.57,4.31,1.27,6.79c0.69,2.48,1.69,4.46,2.98,5.94
	C816.76,306.65,818.57,307.91,820.9,308.95z"/>
<path fill="#21356A" d="M968.4,342.11V126.18h44.02l58.18,103.67V126.18h51.87v215.94h-42.31l-58.35-111.75v111.75H968.4z"/>
<polygon fill="#21356A" points="1343.79,125.89 1186.98,125.89 1186.98,171.89 1240.02,171.95 1240.02,342.28 1291.91,342.28 
	1291.91,171.95 1343.79,171.89"/>
<path fill="#21356A" d="M1470.39,344.35c-13.7,0-25.39-1.59-35.07-4.77c-9.68-3.18-17.37-7.92-23.08-14.24
	c-5.71-6.31-9.83-13.73-12.36-22.27c-2.53-8.53-3.8-18.59-3.8-30.17v-79.94c0-11.67,1.27-21.75,3.8-30.24
	c2.53-8.49,6.65-15.87,12.36-22.14c5.71-6.27,13.4-10.97,23.08-14.11s21.37-4.7,35.07-4.7c26.7,0,45.84,5.99,57.4,17.96
	c11.56,11.97,17.35,29.72,17.35,53.23v79.94c0,23.51-5.78,41.3-17.35,53.36C1516.22,338.32,1497.09,344.35,1470.39,344.35z
	 M1461.97,308.95c2.33,1.04,5.14,1.57,8.41,1.57c3.28,0,6.1-0.5,8.49-1.5c2.38-1,4.22-2.26,5.51-3.79c1.29-1.52,2.31-3.5,3.05-5.94
	c0.74-2.44,1.21-4.72,1.41-6.86c0.2-2.13,0.3-4.68,0.3-7.64V180.95c0-2.87-0.1-5.38-0.3-7.51c-0.2-2.13-0.67-4.4-1.41-6.79
	c-0.74-2.39-1.76-4.33-3.05-5.81c-1.29-1.48-3.13-2.72-5.51-3.72c-2.38-1-5.21-1.5-8.49-1.5c-3.28,0-6.08,0.5-8.41,1.5
	c-2.33,1-4.15,2.22-5.43,3.66c-1.29,1.44-2.29,3.4-2.98,5.88c-0.7,2.48-1.12,4.72-1.27,6.73c-0.15,2-0.22,4.53-0.22,7.58v103.84
	c0,3.05,0.07,5.6,0.22,7.64c0.15,2.05,0.57,4.31,1.27,6.79c0.69,2.48,1.69,4.46,2.98,5.94
	C1457.83,306.65,1459.64,307.91,1461.97,308.95z"/>
<path fill="#21356A" d="M1759.49,126.02l0,66.96v79.94c0,23.51-5.78,41.3-17.35,53.36c-11.57,12.06-30.7,18.09-57.4,18.09
	c-13.7,0-25.39-1.59-35.07-4.77c-9.68-3.18-17.37-7.92-23.08-14.24c-5.71-6.31-9.83-13.73-12.36-22.27
	c-2.53-8.53-3.8-18.59-3.8-30.17v-79.94l-0.07-66.96h56.06V284.8c0,3.05,0.07,5.6,0.22,7.64c0.15,2.05,0.57,4.31,1.27,6.79
	c0.69,2.48,1.69,4.46,2.98,5.94c1.29,1.48,3.1,2.74,5.43,3.79c2.33,1.04,5.14,1.57,8.41,1.57c3.28,0,6.1-0.5,8.49-1.5
	c2.38-1,4.22-2.26,5.51-3.79c1.29-1.52,2.31-3.5,3.05-5.94c0.74-2.44,1.21-4.72,1.41-6.86c0.2-2.13,0.3-4.68,0.3-7.64V126.02
	H1759.49z"/>
<path fill="#21356A" d="M1824.18,342.53V126.46h68.6c10.62,0,20.03,0.52,28.23,1.56c8.2,1.04,15.88,2.87,23.07,5.47
	c7.18,2.61,13.1,6.04,17.76,10.3c4.65,4.26,8.3,9.73,10.93,16.42c2.63,6.69,3.95,14.51,3.95,23.46c0,14.16-2.23,25.54-6.68,34.14
	c-4.45,8.6-12.5,15.29-24.13,20.07l34.6,104.65h-57.52l-25.8-89.66l-17.45,0.19v89.47H1824.18z M1879.72,218.33h14.27
	c11.33,0,19.32-2.52,23.98-7.56c4.65-5.04,6.98-12.64,6.98-22.81c0-9.99-2.1-17.4-6.3-22.22c-4.2-4.82-11.46-7.23-21.78-7.23
	h-17.15V218.33z"/>
</svg>
