<?xml version="1.0" encoding="UTF-8"?>
<svg xmlns="http://www.w3.org/2000/svg" viewBox="0 0 766.90002 228.47501">
<title>Jet2.com</title>
<desc>Jet2.com logo</desc>
<metadata xmlns:rdf="http://www.w3.org/1999/02/22-rdf-syntax-ns#" xmlns:Airline="http://schema.org/Airline">
<rdf:RDF>
<Airline:name>Jet2.com</Airline:name>
<Airline:iataCode>LS</Airline:iataCode>
<Airline:url>https://airlinelogos.aero/LS</Airline:url>
</rdf:RDF>
</metadata>
<g fill="#ee3123">
<path d="M200.053 31.35l-4.217 16.454h15.83s-3.288 15.296-5.68 26.376c-1.79 8.27-6.936 29.787-3.245 37.783 2.674 5.795 9.72 9.296 15.317 9.614 11.583.666 25.68.387 25.68.387l4.008-21.38-8.682.22s-7.614.36-8.69-3.558c-2.365-8.642 8.508-49.44 8.508-49.44l19.776-.002 2.97-16.193-18.945-.26 5.957-26.75s-15.143-.45-18.71 0c-4.952.62-8.908 6.456-10.688 11.804-2.172 6.505-3.565 14.922-3.565 14.922l-15.623.025M250.84 121.95s2.26-16.38 10.49-27.155c10.896-14.27 36.94-25.726 45.154-29.568C321.46 58.215 330.37 48.92 330.37 40.68c0-5.8-4.68-14.703-15.813-14.703-11.138 0-20.71 9.355-21.823 21.827-3.19-.02-7.602-.02-14.865-.02-3.146 0-13.645.02-13.645.02s4.015-22.25 17.147-32.073c10.53-7.87 18.498-11.21 32.963-11.798 16.48-.67 32.07 5.12 39.194 16.478 6.827 10.886 8.824 28.82-1.48 40.197-9.033 9.977-18.324 15.455-26.454 20.17-11 6.374-25.785 13.864-30.036 15.982-3.63 1.784-3.05 3.6-3.05 3.6h47.637c7.143 0 10.967-2.79 10.967-2.79s3.062 9.957-1.82 16.574c-1.732 2.35-6.733 7.805-15.418 7.805H250.84M364.756 121.96l5.023-29.668 32.906-.03-5.064 29.697h-32.866M507.63 88.804c0 28.396-28.17 35.425-30.37 36.092-5.776 1.745-14.13 2.475-22.375 2.51-17.483.08-38.985-14.972-38.985-39.913 0-34.17 20.92-60.103 57.43-58.82 37.956 1.332 38.637 30.69 38.282 36.228H482.78c0-2.21.647-13.983-14.428-13.983-17.806 0-24.367 16.186-24.367 34.254 0 13.356 8.442 20.032 18.852 20.032 3.917 0 6.355-1.108 8.977-2.662 7.198-4.746 7.116-11.133 6.955-13.75l28.86.014M558.92 106.006c14.865 0 23.442-21.92 23.442-37.734 0-8.763-3.817-17.718-14.678-17.718-15.817 0-23.82 22.866-23.82 37.348 0 10.863 5.528 18.104 14.862 18.104h.194zm-3.623 20.964c-23.816 0-39.64-15.438-39.64-38.496 0-32.205 22.494-58.885 55.647-58.885 25.156 0 39.64 17.15 39.64 38.494 0 33.922-23.44 58.886-55.453 58.886h-.192M613.05 123.926l12.115-61.314c2.38-11.518 3.77-21.365 4.964-29.536h24.624l-1.79 14.863h.397c8.94-11.71 20.656-16.91 33.17-16.91 15.493 0 22.24 9.287 23.036 17.276 8.738-11.702 20.85-17.276 33.56-17.276 14.9 0 23.638 9.104 23.638 24.525 0 3.716-.798 10.962-1.59 15.605l-10.53 52.766h-27.8l9.73-49.606c.796-3.53 1.39-7.435 1.39-10.963 0-6.32-2.98-10.775-9.53-10.775-9.535 0-19.068 11.89-22.84 30.283l-8.14 41.06h-27.605l10.125-49.977c.596-3.528 1.19-7.063 1.19-10.218 0-6.32-2.182-11.148-9.135-11.148-9.73 0-19.86 12.63-23.237 30.47l-8.14 40.874H613.05"/>
<path d="M168.87 66.69l-36.22.11s2.796-18.33 20.57-18.33c16.32 0 15.65 18.22 15.65 18.22zm-15.985-35.88c-13.78.506-24.816 2.848-36.723 15.425-12.693 13.41-15.08 49.39-11.56 56.726 3.52 7.336 9.866 21.107 41.56 22.122 36.668 1.177 45.473-29.602 45.473-29.602l-29.045-.027s-.298 9.68-15.26 9.975c-21.12.412-16.453-21.145-16.453-21.145l64.572.023s.078-1.306 1.17-18.19c1.175-18.167-15.7-36.346-43.735-35.306M87.23 38.99l7.37 17.604-3.36-.07L78.496 38.97s-3.37-.07-4.71-.123c-.58-.022-1.35-.048-2.2-.187-1.143 7.075-2.68 16.31-4.655 26.39-3.866 19.737-3.56 33.71-20.576 33.71-5.405 0-10.5-2.466-10.523-6.468-.04-7.213 1.067-19.71 1.067-19.71l-28.773-.126s-1.29 12.008-1.29 24.835c0 11.61 12.66 26.665 37.73 26.582 19.126-.07 31.8-4.53 42.813-20.18 5.505-7.826 8.226-26.392 12.52-46.725 1.246-5.912 2.52-11.872 3.74-17.543l-1.13-1.318-15.278.883zm8.694-34.3c-5.59.1-12.26 1.194-16.017 5.7-3.76 4.515-5.833 13.154-6.76 18.63-.235 1.382-.513 3.094-.824 5.057.555-.055 1.06-.076 1.464-.09 1.34-.05 4.71-.118 4.71-.118L91.24 16.31l3.36-.076-7.37 17.61 15.283.88 2.85-3.326c3.28-15.19 5.82-26.71 5.82-26.71s-9.65-.105-15.26 0M364.47 6.493h.87c.99 0 1.828-.36 1.828-1.29 0-.657-.48-1.314-1.827-1.314-.39 0-.655.03-.87.055v2.548zm0 4.157h-1.193V3.14c.625-.092 1.228-.18 2.123-.18 1.137 0 1.885.24 2.33.57.452.328.69.835.69 1.553 0 .99-.655 1.583-1.466 1.826v.058c.662.12 1.11.716 1.26 1.826.18 1.165.36 1.614.476 1.856h-1.255c-.176-.242-.36-.926-.507-1.915-.182-.956-.66-1.316-1.618-1.316h-.84v3.23zm1.26-9.607c-2.965 0-5.388 2.545-5.388 5.685 0 3.203 2.423 5.716 5.418 5.716 2.99.032 5.386-2.513 5.386-5.686 0-3.17-2.395-5.715-5.386-5.715h-.03zm.03-1.047c3.68 0 6.61 2.993 6.61 6.732 0 3.805-2.93 6.763-6.64 6.763-3.68 0-6.674-2.957-6.674-6.762 0-3.74 2.994-6.732 6.675-6.732h.03M11.066 142.044h47.196l-2.377 15.272H28.262l-2.104 13.538h18.385l-2.196 14.358H23.872l-4.298 26.527H0l11.066-69.696M56.62 162.623h16.74l-1.282 8.048c4.39-5.577 8.69-8.14 14.543-8.14.458 0 .916.093 1.463.093l-3.29 17.56c-3.11-1.098-5.49-1.645-7.227-1.645-2.653 0-4.94.73-7.134 2.468l-4.847 30.733h-16.74l7.775-49.117M93.93 156.312l2.287-14.268h16.74l-2.288 14.268H93.93zm-8.688 55.427l7.774-49.118h16.647l-7.683 49.117H85.242M144.688 180.64c0-6.036-2.103-8.872-6.585-8.872-4.483 0-7.684 3.384-8.873 9.97h15.457v-1.097zm12.896 19.3c-6.128 9.055-13.17 13.352-22.408 13.352-14.27 0-23.507-9.054-23.507-22.682 0-7.043 2.012-13.536 5.67-18.66 4.757-6.857 11.616-10.426 20.12-10.426 13.356 0 21.13 8.415 21.13 23.413 0 1.832-.182 3.66-.366 5.673H128.59c-.09.73-.182 1.464-.182 2.194 0 5.49 3.383 8.965 8.23 8.965 3.842 0 7.318-2.29 10.427-6.86l10.52 5.03M168.825 162.623h16.74l-1.007 6.31c5.303-4.94 10.608-7.41 15.73-7.41 7.227 0 11.982 4.664 11.982 12.257 0 1.83-.365 4.39-.915 7.685l-4.846 30.274h-16.74l4.664-29.27c.367-2.104.55-3.568.55-4.207 0-3.02-1.282-4.39-3.842-4.39-2.47 0-5.488 2.193-8.415 6.493l-4.938 31.373h-16.74l7.775-49.117M244.18 172.5c-6.493 0-10.975 8.232-10.975 22.41 0 5.12 2.195 7.864 5.67 7.864 2.38 0 4.94-1.463 8.234-4.207l3.75-23.05c-2.38-2.01-4.484-3.017-6.68-3.017zm17.563 39.24h-16.738l.547-4.392c-4.847 3.932-9.602 5.944-14.633 5.944-9.33 0-15-6.674-15-18.565 0-19.665 10.06-33.02 23.048-33.02 5.303 0 9.33 1.83 12.896 5.944l4.115-25.606h16.738l-10.975 69.695M269.87 211.74l10.976-69.696h16.74L286.61 211.74h-16.74M297.546 215.67c1.096.093 2.01.093 3.018.093 7.408 0 10.792-2.012 10.792-7.136 0-1.553-.55-3.2-1.006-5.03l-11.524-40.975h16.83l4.664 17.287c.73 2.833 1.28 5.76 1.738 8.962.548-2.652 1.556-5.397 2.926-8.23l8.416-18.02h13.902l-24.878 50.58c-2.926 5.944-4.94 10.427-11.16 13.262-2.834 1.37-6.218 2.01-10.15 2.01-1.1 0-2.288-.09-3.568-.18V215.67M368.906 211.74l10.976-69.696h16.738l-10.976 69.695h-16.738M418.017 201.86c5.304 0 9.055-7.867 9.055-20.945 0-5.214-2.012-7.958-5.762-7.958-5.396 0-9.148 7.775-9.148 20.855 0 5.304 2.104 8.047 5.856 8.047zm3.75-40.336c13.812 0 22.227 8.415 22.227 21.678 0 18.11-10.61 30-26.617 30-13.903 0-22.135-8.14-22.135-21.403 0-18.476 10.703-30.276 26.525-30.276M447.368 162.623h16.552l2.836 17.468c.365 2.38.64 5.306.824 8.782.64-2.836 1.555-5.578 2.744-8.23l8.324-18.02h12.072l2.563 17.195c.365 2.562.64 5.58.82 8.964.733-2.834 1.738-5.577 3.02-8.414l8.048-17.744h13.63l-24.422 49.117H482.67l-2.56-17.928c-.274-1.922-.55-4.573-.64-7.866-.73 2.378-1.74 4.94-3.11 7.774l-8.6 18.02h-12.255l-8.138-49.118M552.346 173.6h-6.496l1.83-10.977h6.405l1.28-8.69c1.37-9.238 6.31-13.353 16.186-13.353 2.564 0 5.58.455 9.056 1.28l-1.83 11.89c-1.37-.09-2.285-.275-2.834-.275-3.292 0-4.022 1.65-4.57 5.58l-.55 3.567h8.047l-1.74 10.976h-8.046l-6.038 38.14H546.31l6.036-38.14M602.097 189.97c-6.586 0-10.702 3.475-10.702 8.324 0 2.376 2.104 4.388 5.12 4.388 2.106 0 4.485-1.003 7.228-2.926l1.282-9.604c-1.19-.09-2.196-.182-2.927-.182zm.914 21.77l-.09-4.3c-5.03 3.75-9.604 5.577-13.992 5.577-7.962 0-13.54-5.67-13.54-13.626 0-11.34 10.337-17.744 30.276-17.744h.823c.365-1.92.548-3.2.548-4.025 0-3.016-1.74-4.664-4.756-4.664-3.66 0-6.036 1.648-8.416 5.58l-13.993-3.293c4.21-9.235 11.89-13.72 23.14-13.72 12.9 0 20.305 5.58 20.305 13.354 0 1.65-.182 3.843-.64 6.678l-2.745 17.196c-.455 2.56-.64 4.758-.64 6.495 0 2.013.094 4.206.275 6.494H603.01M634.1 162.623h16.736l-1.28 8.048c4.39-5.577 8.69-8.14 14.544-8.14.458 0 .915.093 1.464.093l-3.295 17.56c-3.11-1.098-5.486-1.645-7.225-1.645-2.65 0-4.94.73-7.135 2.468l-4.846 30.733h-16.738l7.773-49.117M697.2 180.64c0-6.036-2.103-8.872-6.584-8.872-4.48 0-7.682 3.384-8.87 9.97H697.2v-1.097zm12.9 19.3c-6.13 9.055-13.174 13.352-22.41 13.352-14.27 0-23.506-9.054-23.506-22.682 0-7.043 2.012-13.536 5.67-18.66 4.756-6.857 11.617-10.426 20.122-10.426 13.353 0 21.13 8.415 21.13 23.413 0 1.832-.186 3.66-.367 5.673H681.1c-.09.73-.18 1.464-.18 2.194 0 5.49 3.382 8.965 8.23 8.965 3.843 0 7.318-2.29 10.43-6.86l10.517 5.03M721.98 194.635c3.567 5.305 7.682 7.864 13.17 7.864 3.75 0 5.852-1.464 5.852-3.84 0-.916-.546-1.83-1.553-2.745-1.74-1.554-5.49-1.737-10.06-3.385-7.41-2.653-11.528-7.957-11.528-14.54 0-9.057 8.69-16.466 20.582-16.466 8.506 0 15.455 3.75 20.762 11.25l-9.604 6.404c-4.21-4.665-8.416-6.953-12.622-6.953-2.56 0-4.115 1.28-4.115 3.203 0 3.657 4.115 3.75 9.785 5.67 9.695 3.294 14.36 7.59 14.36 14.908 0 9.788-8.506 17.195-22.226 17.195-10.52 0-18.11-3.565-23.415-11.52l10.61-7.045M759.008 155.374h.87c.987 0 1.826-.36 1.826-1.29 0-.658-.48-1.314-1.826-1.314-.39 0-.657.03-.87.056v2.548zm0 4.156h-1.194v-7.51c.625-.09 1.227-.18 2.122-.18 1.138 0 1.885.238 2.33.57.453.328.69.836.69 1.554 0 .99-.654 1.582-1.466 1.826v.058c.662.12 1.11.717 1.26 1.827.18 1.164.36 1.614.476 1.855h-1.255c-.175-.24-.36-.926-.506-1.914-.183-.956-.66-1.316-1.618-1.316h-.838v3.23zm1.26-9.606c-2.967 0-5.39 2.545-5.39 5.685 0 3.202 2.423 5.715 5.418 5.715 2.992.03 5.387-2.513 5.387-5.686 0-3.17-2.395-5.716-5.387-5.716h-.028zm.028-1.048c3.68 0 6.61 2.994 6.61 6.733 0 3.802-2.93 6.76-6.638 6.76-3.682 0-6.676-2.958-6.676-6.76 0-3.74 2.994-6.734 6.675-6.734h.03"/>
</g>
</svg>
