<?xml version="1.0" encoding="UTF-8"?>
<svg xmlns="http://www.w3.org/2000/svg" viewBox="0 0 263 112">
<title>Air Mediterranean</title>
<desc>Air Mediterranean logo</desc>
<metadata xmlns:rdf="http://www.w3.org/1999/02/22-rdf-syntax-ns#" xmlns:Airline="http://schema.org/Airline">
<rdf:RDF>
<Airline:name>Air Mediterranean</Airline:name>
<Airline:iataCode>MV</Airline:iataCode>
<Airline:url>https://airlinelogos.aero/MV</Airline:url>
</rdf:RDF>
</metadata>
<circle fill="#FFC80C" cx="245.012" cy="70.353" r="13.121"/>
<path fill-rule="evenodd" clip-rule="evenodd" fill="#28A8E0" d="M10.75 88.105l2.04-5.002 2.066 5.346-3.92-.14-.187-.205zm-.664 1.82h5.378l2.12 5.438 5.167-.508-6.73-14.677h-4.557l-6.65 14.654 2.967.462 2.306-5.37zM26.564 78.31c-.848 0-1.537.6-1.537 1.337 0 .762.69 1.338 1.537 1.338s1.536-.6 1.536-1.338c0-.737-.688-1.336-1.536-1.336zm2.252 16.868l.053-11.43-4.533.53.398 10.9h4.08zm3.949-.045h3.763l.16-2.328c.237-3.48 2.436-5.76 5.3-5.76h.344l-1.246-2.858c-2.2.07-3.71 1.476-4.53 4.263h-.106l-.026-4.447-4.107.324.448 10.806z"/>
<path fill-rule="evenodd" clip-rule="evenodd" fill="#08509D" d="M59.605 80.246l-.9 14.793h3.205l.238-10.99h.16l4.106 10.114h3.074l3.95-9.838h.21l1.087 10.783 4.637-.162-1.696-14.794h-5.194l-3.71 9.31-3.788-9.446m29.151 9.379c-.053-3.664-2.146-5.69-5.59-5.69-3.87 0-6.785 2.786-6.785 6.704 0 3.34 2.2 5.022 6.6 5.022 2.542 0 4.502-.416 5.854-1.176l-.714-1.682a7.47 7.47 0 0 1-3.55.875c-2.545 0-3.737-1.106-3.737-3.456 0-.185 0-.393.026-.6h7.895zm-3.444-1.45h-4.08l-.106-.188c.424-1.658 1.378-2.557 2.28-2.557 1.217 0 1.907.923 1.907 2.744zm13.599-.763v1.705c-.558 2.512-1.46 3.78-2.518 3.78-1.22 0-1.643-.97-1.643-2.95 0-3.018.874-4.54 2.384-4.54.74 0 1.298.67 1.775 2.005zm4.08-9.262l-4.453.37.45 6.058c-.874-.438-1.748-.62-2.755-.62-3.233 0-5.67 2.603-5.67 6.704 0 3.363 1.245 5.023 3.815 5.023 2.04 0 3.498-.992 4.53-3.04l.372 3.5 4.344-.23c-.45-1.59-.662-6.13-.662-13.625 0-1.296.027-2.685.027-4.14zm5.376.39c-.848 0-1.537.6-1.537 1.337 0 .762.688 1.338 1.536 1.338s1.537-.6 1.537-1.338c0-.737-.69-1.336-1.537-1.336zM116 95.18l.05-11.43-4.53.53.398 10.9h4.08zm12.85-.717l-.503-1.428c-.795.37-1.51.553-2.172.553-1.3 0-1.67-.873-1.67-2.947 0-1.083.08-2.33.24-3.733h3.63l.158-1.475h-3.656l.477-3.55-4.452.323-.372 3.227h-2.675l-.212 1.475h2.756c-.133 1.61-.186 2.834-.186 3.64 0 3.57.98 4.886 4.08 4.886 1.668 0 3.152-.3 4.557-.97zm13.377-5.068c-.053-3.664-2.146-5.69-5.592-5.69-3.868 0-6.783 2.786-6.783 6.704 0 3.34 2.2 5.022 6.597 5.022 2.544 0 4.504-.416 5.855-1.176l-.716-1.682a7.474 7.474 0 0 1-3.552.875c-2.543 0-3.735-1.106-3.735-3.456 0-.185 0-.393.025-.6h7.9zm-3.446-1.45h-4.08l-.105-.188c.423-1.658 1.377-2.557 2.278-2.557 1.22 0 1.908.923 1.908 2.744zm6.629 7.188h3.764l.158-2.328c.238-3.48 2.438-5.76 5.3-5.76h.344l-1.245-2.858c-2.198.07-3.71 1.476-4.53 4.263h-.105l-.026-4.447-4.107.324.447 10.806zm11.3 0h3.76l.16-2.328c.238-3.48 2.437-5.76 5.3-5.76h.344l-1.246-2.858c-2.198.07-3.71 1.476-4.53 4.263h-.106l-.026-4.447-4.106.324.45 10.806zm17.894-3.227c-.08 1.082-1.113 1.89-2.12 1.89-.874 0-1.537-.485-1.537-1.08 0-.81.69-1.27 1.908-1.27.61 0 1.166.16 1.75.46zm-7.42-3.687l3.074.667c.53-2.465 1.404-3.686 2.677-3.686 1.404 0 1.615 1.407 1.615 4.68v.712c-.82-.322-1.88-.53-3.073-.53-2.596 0-4.398 1.224-4.398 2.858 0 1.52 1.165 2.512 3.26 2.512 1.8 0 3.39-.62 4.29-1.613h.054l.16 1.82 4.238-.3c-.424-2.674-.424-4.816-.424-6.406 0-.945 0-1.706-.08-2.234-.37-2.166-1.827-2.996-4.875-2.996-3.365 0-5.54 1.52-6.52 4.515zm19.37-4.631h-4.425l.13 11.45h3.95l.08-2.233c.132-3.595 1.695-5.69 2.992-5.69.742 0 1.114.505 1.114 1.52 0 .137-.028.275-.028.438l-.423 5.922.08.115 4.318-.16.345-8.204v-.185c0-1.61-1.06-2.487-2.888-2.487-2.174 0-3.95 1.13-5.274 3.41h-.158l.186-3.895zm22.882 5.807c-.054-3.664-2.146-5.69-5.59-5.69-3.87 0-6.785 2.786-6.785 6.704 0 3.34 2.2 5.022 6.6 5.022 2.543 0 4.504-.416 5.855-1.176l-.716-1.682a7.472 7.472 0 0 1-3.55.875c-2.545 0-3.737-1.106-3.737-3.456 0-.185 0-.393.025-.6h7.898zm-3.446-1.45h-4.08l-.105-.188c.423-1.658 1.377-2.557 2.277-2.557 1.22 0 1.908.923 1.908 2.744zm12.645 3.961c-.08 1.082-1.113 1.89-2.12 1.89-.874 0-1.537-.485-1.537-1.08 0-.81.688-1.27 1.908-1.27.608 0 1.165.16 1.75.46zm-7.42-3.687l3.073.667c.53-2.465 1.405-3.686 2.677-3.686 1.405 0 1.616 1.407 1.616 4.68v.712c-.82-.322-1.88-.53-3.072-.53-2.598 0-4.4 1.224-4.4 2.858 0 1.52 1.168 2.512 3.26 2.512 1.803 0 3.393-.62 4.294-1.613h.053l.16 1.82 4.238-.3c-.424-2.674-.424-4.816-.424-6.406 0-.945 0-1.706-.08-2.234-.372-2.166-1.828-2.996-4.876-2.996-3.366 0-5.54 1.52-6.52 4.515zm19.369-4.631h-4.425l.132 11.45h3.948l.08-2.233c.132-3.595 1.694-5.69 2.993-5.69.742 0 1.113.505 1.113 1.52 0 .137-.027.275-.027.438l-.424 5.922.08.115 4.318-.16.345-8.204v-.185c0-1.61-1.062-2.487-2.89-2.487-2.173 0-3.948 1.13-5.273 3.41h-.158l.184-3.895zM107.21 68.787l-.165.12s-13.6 3.75-22.307 2.735c-6.117-.716-15.164-4.408-15.164-4.408s9.99 2.95 16.575 3.438c8.224.61 21.06-1.885 21.06-1.885z"/>
<path fill="none" stroke="#08509D" stroke-width=".343" stroke-miterlimit="3.864" d="M107.21 68.787l-.165.12s-13.6 3.75-22.307 2.735c-6.117-.716-15.164-4.408-15.164-4.408s9.99 2.95 16.575 3.438c8.224.61 21.06-1.885 21.06-1.885z"/>
<circle fill="#08509D" cx="52.64" cy="63.109" r=".698"/>
<path fill-rule="evenodd" clip-rule="evenodd" fill="#08509D" d="M61.29 75.015s-5.836 2.675-7.9 5.925c-4.203 6.615 4.717 19.53 4.717 19.53s-4.668-11.595-1.975-18.214c1.306-3.21 5.157-7.24 5.157-7.24z"/>
<path fill="none" stroke="#08509D" stroke-width=".259" stroke-miterlimit="3.864" d="M61.29 75.015s-5.836 2.675-7.9 5.925c-4.203 6.615 4.717 19.53 4.717 19.53s-4.668-11.595-1.975-18.214c1.306-3.21 5.157-7.24 5.157-7.24z"/>
<path fill-rule="evenodd" clip-rule="evenodd" fill="#08509D" d="M121.748 9.507s-32.7 16.02-42.025 32.37c-3.85 6.748 4.59 14.127-.597 19.91-3.354 3.742-11.82 5.13-11.82 5.13s12.293-.18 16.032-5.654c3.735-5.47-3.003-10.823-.543-16.972 6.144-15.36 38.953-34.783 38.953-34.783z"/>
<path fill="none" stroke="#08509D" stroke-width=".259" stroke-miterlimit="3.864" d="M121.748 9.507s-32.7 16.02-42.025 32.37c-3.85 6.748 4.59 14.127-.597 19.91-3.354 3.742-11.82 5.13-11.82 5.13s12.293-.18 16.032-5.654c3.735-5.47-3.003-10.823-.543-16.972 6.144-15.36 38.953-34.783 38.953-34.783z"/>
<path fill-rule="evenodd" clip-rule="evenodd" fill="#08509D" d="M45.946 66.088s3.654-.827 5.996-.62c5.75.515 6.984 6.114 12.42 8.065 7.667 2.752 13.338-2.738 20.886.328C91.495 76.4 98.58 84.868 98.58 84.868l.053.117s-8.363-8.3-15.277-10.04c-6.84-1.722-11.286 3.618-18.023 1.53-6.2-1.922-6.858-8.805-13.215-10.123-2.358-.487-6.172-.262-6.172-.262z"/>
<path fill="none" stroke="#08509D" stroke-width=".259" stroke-miterlimit="3.864" d="M45.946 66.088s3.654-.827 5.996-.62c5.75.515 6.984 6.114 12.42 8.065 7.667 2.752 13.338-2.738 20.886.328C91.495 76.4 98.58 84.868 98.58 84.868l.053.117s-8.363-8.3-15.277-10.04c-6.84-1.722-11.286 3.618-18.023 1.53-6.2-1.922-6.858-8.805-13.215-10.123-2.358-.487-6.172-.262-6.172-.262z"/>
<path fill-rule="evenodd" clip-rule="evenodd" fill="#08509D" d="M122.735 4.352S74.145 21.64 63.483 40.89c-3.034 5.476 6.063 9.004 4.806 15.026-.577 2.758-.96 4.65-3.035 6.557-4.018 3.69-9.265-4.178-13.926-1.342-1.194.728-2.74 2.313-2.74 2.313s2.478-1.445 4.234-1.842c4.894-1.106 7.5 5.874 12.193 4.103 4.494-1.697 5.987-5.672 6.53-10.443.603-5.326-8.234-8.287-5.215-12.716 11.756-17.257 56.403-38.192 56.403-38.192z"/>
<path fill="none" stroke="#08509D" stroke-width=".259" stroke-miterlimit="3.864" d="M122.735 4.352S74.145 21.64 63.483 40.89c-3.034 5.476 6.063 9.004 4.806 15.026-.577 2.758-.96 4.65-3.035 6.557-4.018 3.69-9.265-4.178-13.926-1.342-1.194.728-2.74 2.313-2.74 2.313s2.478-1.445 4.234-1.842c4.894-1.106 7.5 5.874 12.193 4.103 4.494-1.697 5.987-5.672 6.53-10.443.603-5.326-8.234-8.287-5.215-12.716 11.756-17.257 56.403-38.192 56.403-38.192z"/>
<path fill-rule="evenodd" clip-rule="evenodd" fill="#08509D" d="M59.844 71.264s-16.72 3.848-17.203 12.018c-.34 5.748 4.79 7.646 7.417 12.77 2.235 4.358 5.228 11.417 5.228 11.417s-1.813-7.333-3.543-11.826c-1.813-4.708-5.874-6.626-5.6-11.663.395-7.28 13.702-12.716 13.702-12.716z"/>
<path fill="none" stroke="#08509D" stroke-width=".259" stroke-miterlimit="3.864" d="M59.844 71.264s-16.72 3.848-17.203 12.018c-.34 5.748 4.79 7.646 7.417 12.77 2.235 4.358 5.228 11.417 5.228 11.417s-1.813-7.333-3.543-11.826c-1.813-4.708-5.874-6.626-5.6-11.663.395-7.28 13.702-12.716 13.702-12.716z"/>
<path fill-rule="evenodd" clip-rule="evenodd" fill="#28A8E0" d="M122.406 6.106S81.04 24.21 69.628 42.536c-3.148 5.054 6.485 9.517 4.47 15.462-1.447 4.268-7.872 8.457-7.872 8.457s8.17-1.676 11.192-5.484c4.522-5.704-2.95-13.782-.548-18.653 7.57-15.362 45.536-36.21 45.536-36.21z"/>
<path fill="none" stroke="#28A8E0" stroke-width=".259" stroke-miterlimit="3.864" d="M122.406 6.106S81.04 24.21 69.628 42.536c-3.148 5.054 6.485 9.517 4.47 15.462-1.447 4.268-7.872 8.457-7.872 8.457s8.17-1.676 11.192-5.484c4.522-5.704-2.95-13.782-.548-18.653 7.57-15.362 45.536-36.21 45.536-36.21z"/>
<path fill-rule="evenodd" clip-rule="evenodd" fill="#28A8E0" d="M59.938 73.834s-9.68 2.5-11.488 7.545c-2.633 7.35 5.596 13.495 5.596 13.495s-3.84-6.693-3.072-11.63c.778-5.01 8.964-9.41 8.964-9.41z"/>
<path fill="none" stroke="#28A8E0" stroke-width=".259" stroke-miterlimit="3.864" d="M59.938 73.834s-9.68 2.5-11.488 7.545c-2.633 7.35 5.596 13.495 5.596 13.495s-3.84-6.693-3.072-11.63c.778-5.01 8.964-9.41 8.964-9.41z"/>
<path fill-rule="evenodd" clip-rule="evenodd" fill="#28A8E0" d="M106.33 70.764l.166-.687s-7.477 2.166-12.4 2.522c-3.287.24-8.448-.11-8.448-.11s7.815 2.334 12.728 1.428c3.282-.607 7.954-3.154 7.954-3.154zM99.912 84.12s-1.382-4.958-3.62-7.13c-2.862-2.775-9.63-3.43-9.63-3.43s4.042 1.957 6.338 3.648c3.07 2.263 6.912 6.913 6.912 6.913z"/>
</svg>
