<?xml version="1.0" encoding="UTF-8"?>
<svg xmlns="http://www.w3.org/2000/svg" viewBox="0 0 286 79">
<title>Spirit Airlines</title>
<desc>Spirit Airlines logo</desc>
<metadata xmlns:rdf="http://www.w3.org/1999/02/22-rdf-syntax-ns#" xmlns:Airline="http://schema.org/Airline">
<rdf:RDF>
<Airline:name>Spirit Airlines</Airline:name>
<Airline:iataCode>NK</Airline:iataCode>
<Airline:url>https://airlinelogos.aero/NK</Airline:url>
</rdf:RDF>
</metadata>
    <g transform="matrix(0.24,0,0,0.24,-35.9996,-104.631)">
        <g transform="matrix(4.16667,0,0,4.16667,0,0)">
            <g transform="matrix(1,0,0,1,272.885,153.166)">
                <path d="M0,-32.41L9.425,-32.41L12.524,-46.999L30.515,-46.999L27.406,-32.41L39.292,-32.41L36.764,-20.539L24.885,-20.539L20.949,-2.037C20.069,2.121 20.962,2.707 25.801,2.707C28.001,2.707 29.808,2.625 32.205,2.542L29.821,13.741C26.064,14.247 21.238,14.589 15.975,14.589C4.266,14.589 0.04,11.71 2.152,1.779L6.904,-20.539L-2.52,-20.539L0,-32.41Z" style="fill:rgb(35,31,32);fill-rule:nonzero;"/>
            </g>
            <g transform="matrix(1,0,0,1,248.461,166.742)">
                <path d="M0,-45.986L17.985,-45.986L8.214,0L-9.771,0L0,-45.986Z" style="fill:rgb(35,31,32);fill-rule:nonzero;"/>
            </g>
            <g transform="matrix(1,0,0,1,251.886,115.492)">
                <path d="M0,-10.861L17.987,-10.861L15.676,0L-2.31,0L0,-10.861Z" style="fill:rgb(35,31,32);fill-rule:nonzero;"/>
            </g>
            <g transform="matrix(-0.20794,0.978142,0.978142,0.20794,227.971,144.752)">
                <path d="M-17.824,-31.553L29.19,-31.553L25.551,-14.435L-21.464,-14.433L-17.824,-31.553Z" style="fill:rgb(35,31,32);fill-rule:nonzero;"/>
            </g>
            <g transform="matrix(1,0,0,1,239.017,143.886)">
                <path d="M0,-25.174C-8.031,-25.174 -20.814,-17.262 -24.184,-3.174L-25.049,0L-24.747,0C-22.193,-6.114 -15.792,-9.387 -7.169,-9.387C-4.846,-9.387 -2.204,-9.069 -0.079,-8.591L3.416,-25.012C2.272,-25.114 1.078,-25.174 0,-25.174" style="fill:rgb(35,31,32);fill-rule:nonzero;"/>
            </g>
            <g transform="matrix(1,0,0,1,175.427,166.742)">
                <path d="M0,-45.986L17.982,-45.986L8.21,0L-9.775,0L0,-45.986Z" style="fill:rgb(35,31,32);fill-rule:nonzero;"/>
            </g>
            <g transform="matrix(1,0,0,1,178.848,115.492)">
                <path d="M0,-10.861L17.988,-10.861L15.683,0L-2.306,0L0,-10.861Z" style="fill:rgb(35,31,32);fill-rule:nonzero;"/>
            </g>
            <g transform="matrix(1,0,0,1,130.968,147.398)">
                <path d="M0,8.139C8.236,8.139 13.597,4.067 15.215,-3.566C16.839,-11.211 13.209,-15.275 4.983,-15.275C-3.418,-15.275 -8.805,-10.699 -10.317,-3.566C-11.833,3.56 -8.398,8.139 0,8.139M-23.403,-26.642L-5.927,-26.642L-7.221,-20.536L-7.053,-20.536C-2.241,-25.203 4.681,-27.831 11.979,-27.831C28.268,-27.831 36.959,-18.844 33.569,-2.89C30.736,10.432 18.599,21.199 1.721,21.199C-6.254,21.199 -11.799,18.571 -14.138,15.181L-14.305,15.181L-18.73,35.97L-36.712,35.97L-23.403,-26.642Z" style="fill:rgb(35,31,32);fill-rule:nonzero;"/>
            </g>
            <g transform="matrix(1,0,0,1,57.1279,135.083)">
                <path d="M0,17.32C-0.103,19.014 0.287,20.372 1.715,21.228C3.131,22.161 5.483,22.661 9.386,22.661C13.372,22.661 17.778,21.899 18.482,18.591C19.004,16.132 17.364,15.449 13.063,14.942L-2.564,12.991C-12.808,11.717 -17.361,7.986 -15.697,0.177C-13.054,-12.291 -1.53,-16.193 15.692,-16.193C27.911,-16.193 42.881,-13.992 41.124,-0.926L20.936,-0.926C21.179,-2.877 20.174,-4.146 18.538,-4.828C16.918,-5.585 14.6,-5.847 12.305,-5.847C7.13,-5.847 3.826,-4.658 3.156,-1.518C2.851,-0.074 3.769,1.195 8.241,1.707L23.408,3.402C35.504,4.761 40.8,8.578 38.892,17.57C36.582,28.428 25.152,33.513 6.064,33.513C-6.667,33.513 -23.407,31.233 -20.871,17.32L0,17.32Z" style="fill:rgb(35,31,32);fill-rule:nonzero;"/>
            </g>
            <g transform="matrix(1,0,0,1,317.526,124.509)">
                <path d="M0,-0.132C0.213,-0.132 0.383,-0.182 0.509,-0.282C0.633,-0.382 0.696,-0.521 0.696,-0.696C0.696,-0.859 0.643,-0.994 0.536,-1.1C0.43,-1.207 0.258,-1.26 0.02,-1.26L-0.432,-1.26L-0.432,-0.132L0,-0.132ZM-1.372,-1.975L0.188,-1.975C0.602,-1.975 0.956,-1.881 1.251,-1.693C1.545,-1.505 1.693,-1.191 1.693,-0.753C1.693,-0.539 1.634,-0.339 1.515,-0.151C1.395,0.037 1.223,0.181 0.997,0.282L1.824,1.768L0.828,1.768L0.207,0.545L-0.432,0.545L-0.432,1.768L-1.372,1.768L-1.372,-1.975ZM0.075,2.877C0.464,2.877 0.828,2.806 1.166,2.661C1.505,2.517 1.797,2.316 2.041,2.059C2.285,1.802 2.477,1.494 2.614,1.138C2.752,0.78 2.821,0.382 2.821,-0.057C2.821,-0.496 2.752,-0.897 2.614,-1.26C2.477,-1.624 2.285,-1.937 2.041,-2.2C1.797,-2.464 1.505,-2.668 1.166,-2.812C0.828,-2.956 0.464,-3.028 0.075,-3.028C-0.326,-3.028 -0.692,-2.956 -1.024,-2.812C-1.357,-2.668 -1.646,-2.464 -1.89,-2.2C-2.134,-1.937 -2.325,-1.624 -2.463,-1.26C-2.602,-0.897 -2.67,-0.496 -2.67,-0.057C-2.67,0.382 -2.602,0.78 -2.463,1.138C-2.325,1.494 -2.134,1.802 -1.89,2.059C-1.646,2.316 -1.357,2.517 -1.024,2.661C-0.692,2.806 -0.326,2.877 0.075,2.877M0.075,3.686C-0.426,3.686 -0.896,3.595 -1.335,3.413C-1.773,3.231 -2.159,2.974 -2.491,2.642C-2.824,2.31 -3.084,1.915 -3.271,1.457C-3.46,1 -3.554,0.495 -3.554,-0.057C-3.554,-0.608 -3.46,-1.116 -3.271,-1.58C-3.084,-2.044 -2.824,-2.442 -2.491,-2.774C-2.159,-3.107 -1.773,-3.364 -1.335,-3.546C-0.896,-3.727 -0.426,-3.818 0.075,-3.818C0.577,-3.818 1.047,-3.727 1.486,-3.546C1.925,-3.364 2.311,-3.107 2.643,-2.774C2.975,-2.442 3.235,-2.044 3.423,-1.58C3.611,-1.116 3.705,-0.608 3.705,-0.057C3.705,0.495 3.611,1 3.423,1.457C3.235,1.915 2.975,2.31 2.643,2.642C2.311,2.974 1.925,3.231 1.486,3.413C1.047,3.595 0.577,3.686 0.075,3.686" style="fill:rgb(35,31,32);fill-rule:nonzero;"/>
            </g>
        </g>
    </g>
</svg>
