<?xml version="1.0" encoding="utf-8"?>
<svg xmlns="http://www.w3.org/2000/svg" viewBox="0 0 160 28">
<title>AirJapan</title>
<desc>AirJapan logo</desc>
<metadata xmlns:rdf="http://www.w3.org/1999/02/22-rdf-syntax-ns#" xmlns:Airline="http://schema.org/Airline">
<rdf:RDF>
<Airline:name>AirJapan</Airline:name>
<Airline:iataCode>NQ</Airline:iataCode>
<Airline:url>https://airlinelogos.aero/NQ</Airline:url>
</rdf:RDF>
</metadata>
<path fill="#113961" d="M32.148 6.587h-4.086v14.304h4.086zM18.721 20.89V18.26H9.086v2.628H5v-8.611c0-3.971 2.603-5.986 7.736-5.986h2.336c5.132 0 7.736 2.015 7.736 5.986v8.611zM12.738 9.502c-1.664 0-3.65.482-3.65 2.773v2.772h9.633v-2.772c0-2.293-1.983-2.773-3.65-2.773h-2.335zM84.111 20.89V18.26h-9.633v2.628h-4.086v-8.611c0-3.971 2.603-5.986 7.736-5.986h2.336c5.132 0 7.736 2.015 7.736 5.986v8.611H84.11M78.126 9.502c-1.664 0-3.65.482-3.65 2.773v2.772h9.633v-2.772c0-2.293-1.983-2.773-3.65-2.773h-2.335zM127.897 20.89V18.26h-9.633v2.628h-4.086v-8.611c0-3.971 2.603-5.986 7.736-5.986h2.336c5.132 0 7.736 2.015 7.736 5.986v8.611h-4.0889999999999995m-5.985-11.387c-1.664 0-3.65.482-3.65 2.773v2.772h9.633v-2.772c0-2.293-1.983-2.773-3.649-2.773h-2.336zM150.084 20.89v-8.612c0-2.293-1.983-2.772-3.65-2.772h-2.335c-1.665 0-3.65.481-3.65 2.772v8.611h-4.086v-8.611c0-3.971 2.603-5.986 7.736-5.986h2.335c5.133 0 7.736 2.015 7.736 5.986v8.611zM92.576 20.89v-8.612c0-3.971 2.604-5.986 7.736-5.986h2.336c5.133 0 7.736 2.015 7.736 5.986s-2.603 5.983-7.736 5.983h-5.985v2.628zm7.736-11.387c-1.664 0-3.65.482-3.65 2.773v2.772h5.986c1.664 0 3.65-.482 3.65-2.772s-1.984-2.773-3.65-2.773z"/>
<path fill="#EF8F81" d="M46.306 6.002c-5.907 0-8.903 2.505-8.903 7.444v7.443h4.086v-6.86c0-3.003 1.816-4.526 5.4-4.526 1.543 0 3.015.196 4.379.583l.875-3.21C50.33 6.294 48.363 6 46.304 6zM57.107 21.474c5.907 0 8.904-2.504 8.904-7.443V6.587h-4.086v6.859c0 3.003-1.817 4.525-5.4 4.525-1.543 0-3.016-.196-4.38-.583l-.875 3.21c1.815.582 3.78.876 5.84.876z"/>
</svg>
