<?xml version="1.0" encoding="UTF-8"?>
<svg xmlns="http://www.w3.org/2000/svg" viewBox="0 0 316.47 89.86">
<title>JTA Japan Transocean Air logo</title>
<desc>JTA日本トランスオーシャン航空</desc>
<path fill="#231815" d="M162.81,54.56c-7.45,19.43-25.83,21-38.94,21A87.33,87.33,0,0,1,105,73.68l4.64-12.12c12.48,1.45,23.15.37,27.33-10.52l13.24-34.48H177.4Z" />
<path fill="#231815" d="M311,16.57H286.65a11.78,11.78,0,0,0-8.38,4.23L232.65,73.68h22.49l9.08-11.24h24.58l.44,11.24h27.24ZM273.06,51.46,287.72,33.2l.68,18.26Z" />
<polygon fill="#231815" points="257.99 16.56 188.71 16.56 184.49 27.54 205.51 27.54 187.8 73.68 215.03 73.68 232.75 27.54 253.78 27.54 257.99 16.56" />
<circle fill="#ffffff" cx="44.93" cy="44.93" r="44.93" />
<polygon fill="#e60012" points="45.55 71.44 48.83 71.44 48.69 67.52 45.55 71.44" />
<path fill="#e60012" d="M87.54,48.7a43.58,43.58,0,0,0-.22-9.46c0-.05-.06-.05-.07,0a25.61,25.61,0,0,1-9.4,14.41c-.05.05-.11,0-.07-.08a31.28,31.28,0,0,0,8.63-19.11A42.8,42.8,0,0,0,82.08,23.7s-.08,0-.07,0A29.39,29.39,0,0,1,74.6,47.47a.05.05,0,0,1-.08-.07,33.34,33.34,0,0,0,4.82-27.9,42.8,42.8,0,0,0-68.85,0,33.36,33.36,0,0,0,4.82,27.9.05.05,0,0,1-.08.07,29.37,29.37,0,0,1-7.4-23.75c0-.06,0-.06-.07,0A42.37,42.37,0,0,0,3.43,34.46a31.23,31.23,0,0,0,8.63,19.11c0,.05,0,.13-.06.08a25.53,25.53,0,0,1-9.4-14.41c0-.05-.07-.05-.08,0A43.6,43.6,0,0,0,2.3,48.7,25.73,25.73,0,0,0,10.13,60c.06.05,0,.12-.05.09a23.25,23.25,0,0,1-7-6.35c0-.05-.08,0-.06,0a42.79,42.79,0,0,0,83.75,0s0-.07-.06,0a23.26,23.26,0,0,1-7,6.35c-.06,0-.11,0-.06-.09A25.77,25.77,0,0,0,87.54,48.7ZM29,76.6a19,19,0,0,1-4.05-.4l1-2.6c2.67.31,5,.08,5.85-2.25L34.67,64H40.5l-3.12,8.14C35.78,76.26,31.84,76.6,29,76.6Zm20-.4-.09-2.41H43.65l-1.94,2.41H36.89l9.78-11.33A2.51,2.51,0,0,1,48.46,64h5.22l1.17,12.24Zm20.64,0H56.41L61.11,64h5.83L63.24,73.6h7.41ZM64.28,50.36C55.52,58.87,42.45,53.43,43.78,43c1-8.07,10.91-16.1,18.39-20.45a.06.06,0,0,0,0-.09c-1-.93-3-3-4.33-4.63A8.6,8.6,0,0,0,44.1,18L22.58,20a.07.07,0,0,0,0,.13l23.07,1.33c4.09.23,5.42,3.95,1.48,6.93-14.65,11.11-17.26,22.85-14,32.17a.06.06,0,0,1-.11.05A18.85,18.85,0,0,1,30.13,54a27.53,27.53,0,1,1,34.15-3.62Z" />
</svg>
