<?xml version="1.0" encoding="UTF-8"?>
<svg xmlns="http://www.w3.org/2000/svg" viewBox="0 0 92 24">
<title>Play</title>
<desc>Play logo</desc>
<metadata xmlns:rdf="http://www.w3.org/1999/02/22-rdf-syntax-ns#" xmlns:Airline="http://schema.org/Airline">
<rdf:RDF>
<Airline:name>Play</Airline:name>
<Airline:iataCode>OG</Airline:iataCode>
<Airline:url>https://airlinelogos.aero/OG</Airline:url>
</rdf:RDF>
</metadata>
<path fill="#ec0c31" d="M68.838 24h6.71l2.146-9.427a31.096 31.096 0 01-7.56 3.7L68.837 24zM51.432 13.232c1.613.101 3.23.067 4.838-.103l-1.125-8.166-3.713 8.269zM36.378 9.464c2.929 1.338 5.551 2.262 8.446 2.88L50.853.001h9.505L62.57 12.24a25.434 25.434 0 006.438-2.399L63.116.002h4.598a1.07 1.07 0 01.75.24l6.914 5.554a57.86 57.86 0 006.097-5.28c.409-.41.681-.514 1.26-.514H92c-9.196 9.702-17.201 15.46-26.67 17.828l-1.669.41L64.716 24h-6.945l-.68-4.972a44.082 44.082 0 01-8.142-.308L46.566 24h-7.457l3.542-7.234-.483-.268a12.72 12.72 0 01-5.79-7.034zM21.9 24h15.226l1.362-5.83h-8.617L33.994.003h-6.642L21.9 24zM9.469 11.587l1.363-5.965h3.1c1.6 0 2.895.48 2.895 2.539 0 1.781-1.299 3.43-3.986 3.43l-3.372-.004zM0 24h6.642l1.566-6.925h5.11c6.438 0 10.287-4.9 10.287-9.736 0-4.937-3.44-7.337-8.585-7.337H5.446L0 24z" />
</svg>
