<?xml version="1.0" encoding="UTF-8"?>
<svg xmlns="http://www.w3.org/2000/svg" viewBox="0 0 560.23 191.74">
<title>Omni Air International logo</title>
<path fill="#535a5c" d="M539.41,65l-21.85,1.37-7-7.8.12,0,0,0h.05v0h.11l.05,0h.13l0,0,0,0h.14l0,0h4.53l.11,0h1l0,0h.21l.14,0h.16l.12,0h.05l0,0H518l.06,0h.14l0,0,.06,0h.12l.07,0,0,0h.1l0,0H519v0h0v0h0v0h0v0h0v0h0v-.06h0v0h0v0h0v-.05h0v-.06h0v-.05h0v0h0v0h0v-.06h0v0h0v0h0V57.3h0v0h0v0h0v-.27h0v0h0v0h0v-.1h0v-.4h0v0h0v-.35h0v-.1h0v-.05h0v0h0v-.1h0v-.2h0v0h0v0h0v0h0v0h0V55h0v-.1h0v-.1h0v-.05h0v0h0v-.05h0v0h0v0h0v0h0V54.4h0v0h0v0h0v0h0v0h0v0h0v0h0v0h0v0h-.64l0,0h-5.34l-.11,0h-.32l-.34,0h-.61l0,0h-.18l0,0-.07,0h-.07L511,54l0,0h-.08l-.06,0-.05,0h0l-.07,0v0h-.06l-.05,0v0h0v0h0v0h0v0h0v0h0v.06h0v0h0v.05h0l-.11,0h-.1l-.11,0h-.2l-.12,0-.09,0h-.22l-.11,0-.1,0h-.1l-.1,0-.1,0h-.09l-.1,0-.09,0h-.1l-.09,0-.1,0h-.09l-.19,0-.11,0-.12,0L508,55l-.12,0h-.11l-.12,0h-.12l-26.3-29.5s-.07-.1-.11-.13l-.15-.09-.17-.08-.18,0h-.16l-4.85.3,16.29,29.9,0-.11,2.61,12.5-.62,0h-.41l-.34,0-.4,0-.35,0-.49,0-.52,0-.48,0h-.37l-.37,0h-.37l-.38,0-.36,0-.38,0-.36,0-.39,0-.38,0-.39.05-.35,0-.37,0h0l-.24,0-.21,0h-.21l-.23,0h-.24l-.24,0h-.2l-.21,0-.21,0-.21,0-.2,0h-.21l-.21,0h-.21l-.2,0h-.21l-.21,0h-.17l-.22,0h-.18L482,69h-.18l-.21,0h-.18l-.14,0h-.14l-.17,0-.11,0-.17,0-.15,0-.13,0-.18,0-.11,0-.17,0-.15,0,0,0h0l-.42.07-.43.09-.88.17-.45.09-.21,0-.13,0-.19,0-.1,0-.12,0-.15,0h-.14l-.12,0-.11,0-.14,0-.14,0-.14,0-.1,0-.12,0-.14,0-.15,0-.12,0-.11,0-.14,0-.15,0-.13.06-.1,0-.15,0-.14,0-.14,0L459.88,55.31h0l0,0,0,0h0l0,0v0h0l0,0,0,0h0v0h-.07l0,0v0h0l0,0,0,0h0l0,0,0,0h-.05l0,0,0,0h-.1v0h-.63l-5.17.32,7.31,18.12-.08,0h-.12l0,0-.08,0h-.12l0,0-.1,0,0,0h-.13l-.06,0-.07,0h-.12l0,0h-.13l-.06,0-.07,0h0l-.09,0,0,0h-.14l0,0h-.13l-.08,0h-.07l0,0-.1,0h0l-.07,0-.08,0h0l-.09,0-.06,0-.05.39-.1,0H458l-.1,0-.09,0h-.1l-.1,0-.11,0-.1,0h-.11l-.1,0H457l-.1,0-.1,0h-.1l-.09,0-.1,0h-.09l-.1,0h-.09l-.09,0-.18,0-.13,0-.09,0-.11,0-.1,0-.1,0-.09,0-.09,0-.09,0-.09,0-.08,0-.1,0h-.1l-.05,0-.06,0h-.1l-.07,0,0,0h-.1l0,0-.07,0h-.08l0,0,0,0-.07,0H454l0,0v0h-.06l0,0,0,0h-.09l0,0,0,0h-.19l0,0h-.4v.47h-.19l0,0h-.08l0,0h0l0,0,0,0h0l0,0,0,0h0l0,0,0,0h0v0l0,0h-.07l0,0,0,0h0l0,.27h.1l0,0h.09l0,0h.09v0l0,0h.11l0,0h.36l.08.46.13,0h.53v0l.06,0h.14l.06,0h1l.09,0,.1,0h.21l.1,0h.3l.09,0,.14,0h.17l.09,0,.1,0H457l.1,0h1.29l.08.39h.1l0,0h.07l.09,0h.12l.08,0,0,0h.2l.09,0h0l.08,0h.24l.07,0H461l-5,18.89,5.16-.32h.35l0,0h0l0,0h.09l0,0h0v0l0,0h0v0H462l0,0v0h0l0,0h0v0l0,0,0,0h0v0h0l0,0,0,0,0,0v0h0l0,0,0,0,0,0v0h0l0,0,0,0,0,0,12.25-17,.18,0h.14l.1,0h.16l.15,0,.11,0h.13l.15,0,.15,0h.1l.13,0,.15,0h.25l.13,0,.15,0h.25l.12,0,.15,0h.44l.13,0,.2,0,.47,0,.91.07.42,0,.43,0h.63l.15,0h5.88l.36,0,.36,0h.76l.4,0,.35,0h.75l.38,0h.73l.38,0h.48l.52,0h.5l.34,0,.41,0h.33l.41,0,.63,0-1,12.73,0-.11-12.38,31.68,4.84-.3.15,0a.27.27,0,0,0,.18-.07l.16-.07.16-.13s.06-.08.11-.15l22.35-32.6.2,0h.12l.1,0,.12,0h2.55v0h0v.1h0v0h0v0h0v0h0v0h0l0,0H513l0,0,.05,0h0l0,0h2.19l.13,0h.92l.14,0h.15l.14,0,.09,0h.12l.1,0h.32l.11,0h.1l.1,0,.11,0,.1,0h.2l.43-.07,0,0h.25l0,0h.1l.08,0,0,0h.07l0,0h.11l.13,0,.16,0,0,0h.2l.1,0,.06,0h0v0h.07l0,0h.14l.06,0h0l0,0,.06,0h0v0h.1l0,0h.05v0l0,0h.06l0,0h.24l0,0h.06v0h0v0h0v0h0v0h0v0h0v0h0v0h0v0h0v0h0v0h0v-.05h0v0h0v-.09h0V89.5h0v-.1h0v-.11h0v-.1h0v-.1h0V89h0v-.74h0v-.1h0v-.71h0v-.29h0V87h0v0h0v0h0v0h0v0h0v0h0v-.05h0v-.05h0v0h0v0h0v0h0v0h0v0h0v0h0v0h0v0h0v0h-.05v0h0v0h-4l-.13,0-.16,0h-.13l-.13,0-.17,0h-.26l-.12,0-.13,0h-.13l-.11,0-.1,0h-.23l-.13,0-.13,0h-.13l-.12,0-.1,0-.17,0-.16,0h-.42l0,0-.07,0h-.06l-.06,0h0l-.07,0h-.06l-.07,0v0h0l-.05,0v0h-.1l0,0-.07,0h0l0,0h-.1l0,0,0,0h0l0,0,0,0h0l-.11.06,5.9-8.6,21.84-1.39h0l.14,0h.48l.12,0,.18,0h.3l.16,0,.14,0H542l.19,0,.11,0h.19l.13,0,.16,0h.15l.15,0,.17,0h.12l.18,0,.13,0h.17l.14,0,.15,0,.17,0,.12,0h.18l.12,0,.17,0,.14,0,.15,0,.17,0,.13,0,.18,0,.11,0,.18,0,.14,0h.15l.17,0,.12,0,.18,0,.12,0,.15,0,.16,0,.11,0,.17,0,.14,0,.13,0,.17,0,.12,0,.15,0,.17,0,.11,0,.16,0,.16,0,.1-.06.18,0,.14,0,.15,0,.16,0,.13,0,.18,0,.11,0,.17,0,.15,0,.14-.05.16,0,.13,0,.13,0,.16,0,.13,0,.12,0,.16,0,.14,0,.12-.05.16,0,.14,0,.11,0,.16,0,.15,0,.1-.06.16,0,.16,0,.11,0,.14,0,.18-.06.19-.07.15-.07.18-.06.11,0,.15,0,.14,0,.13,0,.1,0,.13,0,.15,0,.14,0,.11-.05.11,0,.11,0,.1,0,.11,0,.1,0,.11,0,.1,0,.11,0,.09,0,.09,0,.08-.05.09,0,.17-.07.11-.06.15-.06.08,0,.08,0,.11,0,.1,0,.11,0,.08,0,0,0h.09l0,0h.08v0l.11,0,.1,0,.11-.06.1-.06.11,0,0,0,.05,0,.11,0,0-.05.05,0,.09,0,0-.05.08,0,0,0,.08,0,0,0,.08,0,0,0,.08,0,0,0,.06,0,0,0,0,0,.06,0,0,0,.07,0v0l.07,0,0-.05,0,0,.06,0v0l.06,0,0,0v0l.06,0,0,0v0l.06,0,.05,0v0l0-.05,0,0v0l0,0,0,0,0,0v0l0,0,0,0h0v0l0,0,0,0,0,0v0l0,0,0,0,0,0v0l0,0h0l0,0,0,0v-.09l0,0,0,0,0,0v0l0,0V70h0v0h0v-.16h0v0h0v-.16h0v0h0V69.4h0v0h0v-.11h0v0h0l0,0v-.08h0l0,0h0l0,0,0,0v-.06l0,0h0l0,0v0l0,0-.05,0,0,0v0l0,0h0v0h0l0,0h0v0l0,0,0,0v0l-.06,0h0v0l-.05,0-.06,0v0l-.06,0,0,0v0l-.06,0,0,0,0,0-.06,0,0,0-.07,0,0,0h-.06l0-.05h0l-.06,0h0l-.08,0v0l-.09,0,0,0-.09,0,0,0-.07,0,0,0-.07,0-.05,0,0,0-.06,0h0l-.07,0-.06,0-.08-.05-.1,0,0,0-.07,0-.09,0-.11,0-.1,0-.12,0-.1,0-.06,0h-.05l-.07,0,0,0-.1,0-.09,0-.09,0-.09,0-.09,0-.09,0-.09,0-.18,0-.13,0-.15,0h-.1l-.09,0h-.1l-.09,0h-.1l-.1,0-.12,0-.11,0-.12,0-.12,0-.12,0h-.12l-.12,0-.13,0-.11,0-.15,0-.15,0-.11,0-.12,0-.16,0-.14,0L553,66l-.16,0-.2,0-.18,0-.14,0-.13,0-.17,0-.12,0-.15,0-.17,0-.1,0-.16,0-.16,0H551l-.17,0h-.14l-.12,0h-.17l-.14,0-.13,0-.16,0-.13,0h-.14l-.17,0-.13,0h-.19l-.11,0h-.18l-.13,0-.18,0h-.3l-.15,0h-.31l-.12,0-.15,0h-.16l-.12,0-.18,0-.12,0h-.43l-.18,0h-.57l-.18,0h-5.8l-.12,0h-.31" />
<path fill="#5c1d15" d="M372.34,83.54l0,29.57c0,6.17,1.37,10.39,4.08,12.59s8,3.34,15.72,3.34v4.41l-68.16-.06V129q11.73,0,15.72-3.18c2.64-2.11,4-6.35,4-12.71l0-28.57V69.85l0-46c0-6.36-1.33-10.61-4-12.72s-7.89-3.2-15.72-3.21V3.38l68.16.06V8c-7.82,0-13.11,1.07-15.79,3.21s-4,6.39-4,12.68l0,44.85Zm-83.65,3.07,10.53,24.3a64.41,64.41,0,0,0,4.79,9.4,18,18,0,0,0,4.63,5.21,16.27,16.27,0,0,0,4.56,2.17,21.08,21.08,0,0,0,5.7.75v4.95L255,133.33l.1-4.57q7.73-.27,11.47-2.42a6.91,6.91,0,0,0,3.71-6.38,9.3,9.3,0,0,0-.34-2.3,31.35,31.35,0,0,0-1.06-3.23q-5.19-13.26-10.39-26.51l-5.44-13.86Q243.67,50,234.26,26c-7.38,16.76-14.87,33.45-22.14,50.23L206,90.56q-4.36,10.29-8.55,20.65a23.25,23.25,0,0,0-1.17,3.35,15.32,15.32,0,0,0-.34,3.38c0,3.36,1.06,6,3.15,7.71s5.18,2.69,9.19,2.69h1.93v4.95l-49.11,0v-4.57a22.13,22.13,0,0,0,12.73-5.93q5.08-4.91,12.62-22.23l4-9.07,6.24-14.37L221.08,20.8c1.23-2.83,2.58-5.81,3.89-9s2.61-6.51,3.95-10l23,0L282.62,72.6ZM169.44,92.73a58.72,58.72,0,0,1-14,22.78q-17.92,18.12-48.18,18.09T59,115.4A58.4,58.4,0,0,1,47.46,98.8L42.38,82.53A87.4,87.4,0,0,1,41,66.65q0-30.44,18.06-48.56T107.36,0q30.23,0,48.14,18.18T173.39,67a90.7,90.7,0,0,1-.71,11.5Zm-28.28,1.9A56.94,56.94,0,0,1,135.42,107q-9.57,15.06-28.17,15T79,106.92a50.93,50.93,0,0,1-3.83-7.31L70.58,84.36c-3.76-19.91-1-43.34,8.52-58q9.66-15,28.25-14.95t28.14,15c8.68,13.63,11.68,34.82,9,53.73Z" style="fill-rule:evenodd"/>
<path fill="#535a5c" d="M445.37,68.78,431,84.3c-109.89,3.45-226.7,7.31-336.21,16.91C-40.43,113.06-14.83,20.7,71.07,8.77,1.1,33.44-23.38,93.94,94,86.16,208.73,78.56,330.43,72.39,445.37,68.78Z" style="fill-rule:evenodd" />
<path fill="#5c1d15" d="M545.12,157.33c2.19-.32,4.28-.41,6.31-.71s3.91-.59,5.7-.79l-6.83,28.82a2.48,2.48,0,0,1-.15.66,5.09,5.09,0,0,0-.11.94c0,.16.1.57.25.57a.78.78,0,0,0,.68.53c.28,0,.6-.35,1-.57.35-.47,1-1.56,2-3l1.32.9a19.76,19.76,0,0,1-4.39,5.44,7.38,7.38,0,0,1-4.51,1.66,5.41,5.41,0,0,1-3.3-1.08,4.2,4.2,0,0,1-1.29-3.25,32.41,32.41,0,0,1,.94-5.07l.06-.39,4.54-19a4.12,4.12,0,0,0,.16-.6,14.52,14.52,0,0,0,.4-2.5,1.25,1.25,0,0,0-.58-1,2.7,2.7,0,0,0-1.7-.31h-.45Zm-7.24,10.78-3.7,14.36h0a24.13,24.13,0,0,0-.79,3.84,2.13,2.13,0,0,0,.24,1,1.14,1.14,0,0,0,.58.11c.71,0,1.58-.59,2.6-2.19.3-.57.54-.73.73-1.09l1.28,1.09a17.86,17.86,0,0,1-4,4.86,7.18,7.18,0,0,1-4.54,1.66,5.21,5.21,0,0,1-3.17-1,2.65,2.65,0,0,1-1.17-2.24,7.38,7.38,0,0,1,.05-1.29c0-.45.12-1.17.24-2a14.56,14.56,0,0,1-4.05,4.86,8.19,8.19,0,0,1-5,1.66,6.63,6.63,0,0,1-4.67-1.66,6.48,6.48,0,0,1-1.87-4.68,16.9,16.9,0,0,1,1.31-7A19.77,19.77,0,0,1,516,172a25,25,0,0,1,4.32-3.62,12.76,12.76,0,0,1,4.43-1.08,5.07,5.07,0,0,1,3.27,1,4.65,4.65,0,0,1,1.66,2.82l.68-2.93Zm-9.55,4.09a3.43,3.43,0,0,0-.56-1.67,2.09,2.09,0,0,0-1.35-.55,3.76,3.76,0,0,0-2.17,1.08,14.19,14.19,0,0,0-2.31,3.44,32.31,32.31,0,0,0-2.33,5.79,13.93,13.93,0,0,0-.74,4.72,3.43,3.43,0,0,0,.6,1.81,1.44,1.44,0,0,0,1.44.59,3.88,3.88,0,0,0,2.61-1.25,15,15,0,0,0,2.39-4.21,37.06,37.06,0,0,0,1.82-5.45A17.27,17.27,0,0,0,528.33,172.2ZM480.69,169a54.34,54.34,0,0,0,6.91-.69,47,47,0,0,0,4.94-.75l-2.29,8.67c2-3.37,3.92-5.74,5.67-6.92a8.77,8.77,0,0,1,6-2.08,5.14,5.14,0,0,1,3.32,1.08,3.72,3.72,0,0,1,1.32,3,12.57,12.57,0,0,1-.3,2.61,40,40,0,0,1-1,4.21l-2.11,6.54c0,.09,0,.25,0,.45a5,5,0,0,0-.23,1.15c0,.09.11.57.28.57.19.33.41.53.71.53s.59-.35.93-.57c.37-.47,1-1.56,2.05-3l1.41.9a19.84,19.84,0,0,1-4.37,5.44,7.48,7.48,0,0,1-4.63,1.65,6.3,6.3,0,0,1-3.42-1.07,3.56,3.56,0,0,1-1.3-2.76,14.73,14.73,0,0,1,.32-3.2c.3-1.15.81-2.91,1.6-5.49l1.59-5c.11-.48.19-.94.24-1.09a4.49,4.49,0,0,0,.1-1c0-.2-.14-.55-.31-.55a.88.88,0,0,0-.68-.4c-1.72,0-3.61,2-5.65,5.65a48.73,48.73,0,0,0-4.64,13.81h-7.93l3.71-15.8.11-.46a10.68,10.68,0,0,0,.5-2.8c0-.41-.2-.59-.61-1a10.92,10.92,0,0,0-1.66-.17h-.51Zm-13.21-1.77a10.63,10.63,0,0,1,7.07,2.17,8.35,8.35,0,0,1,2.82,6,13.43,13.43,0,0,1-1,5.44,16.16,16.16,0,0,1-3.25,5.45,13.88,13.88,0,0,1-5.13,3.91,15.13,15.13,0,0,1-6.53,1.52,11.12,11.12,0,0,1-6.94-2.18,8.39,8.39,0,0,1-2.76-6,12.28,12.28,0,0,1,1.11-5.54,18.42,18.42,0,0,1,3.48-5.62,14.84,14.84,0,0,1,5.15-3.81A15.84,15.84,0,0,1,467.48,167.25Zm1.85,5.33a4.69,4.69,0,0,0-.66-2.6,2,2,0,0,0-1.77-.6,2.45,2.45,0,0,0-2.19,1.1,7.91,7.91,0,0,0-2,3.29,33.61,33.61,0,0,0-2.24,7.09,22.62,22.62,0,0,0-.74,6,3.57,3.57,0,0,0,.71,2.17c.35.48,1,.58,1.8.58a3.13,3.13,0,0,0,2.3-1.09,11.82,11.82,0,0,0,2.09-3.83,33,33,0,0,0,2.1-6.53A21.93,21.93,0,0,0,469.33,172.58Zm-30.48,2.28c.23-.88.41-1.62.5-2.17a5.56,5.56,0,0,0,.13-1.09c0-.51-.2-.68-.61-1.09-.4,0-1-.22-1.72-.22h-.47l0-1.36a25.75,25.75,0,0,0,5.74-.58,50.63,50.63,0,0,0,6.31-.87l-4.19,17.17c-.1.57-.15.75-.18,1.08a2.17,2.17,0,0,0,0,.52c0,.19.1.57.27.57.13.36.31.53.63.53s.64-.39,1.07-.71a20.39,20.39,0,0,0,1.94-2.9l1.39.9a20.41,20.41,0,0,1-4.42,5.44,7.69,7.69,0,0,1-4.65,1.66,5.78,5.78,0,0,1-3.34-1.08,4.26,4.26,0,0,1-1.25-3.25,14.29,14.29,0,0,1,.2-2.16c.18-.95.46-2.07.81-3.3Zm6.72-19.3a3.92,3.92,0,0,1,3.23,1.36,3.79,3.79,0,0,1,1.46,3,3.34,3.34,0,0,1-1.18,2.94,3.74,3.74,0,0,1-3.15,1.48,4.08,4.08,0,0,1-3.26-1.48,3.64,3.64,0,0,1-1.46-2.94,3.4,3.4,0,0,1,1.23-3A3.61,3.61,0,0,1,445.57,155.56Zm-12.24,5.49-1.94,7.14h4.16l-.39,2.2H431L427.65,183c-.24,1-.36,1.6-.45,2.18a5.12,5.12,0,0,0-.18,1.38,1.83,1.83,0,0,0,.32.79c.16,0,.43.21.64.21a1.75,1.75,0,0,0,1.38-.78,19.45,19.45,0,0,0,2.35-3.26l1.39,1a20.94,20.94,0,0,1-4.45,5.49,7.69,7.69,0,0,1-4.84,1.66,6.21,6.21,0,0,1-3.53-1.08,3.36,3.36,0,0,1-1.31-2.75,6.68,6.68,0,0,1,.09-1.6,9.83,9.83,0,0,1,.32-1.67l3.44-14.25h-3l.5-2.06a14.53,14.53,0,0,0,5.36-2.59,22.66,22.66,0,0,0,4.63-4.69Zm-18.67,7.06L411,182.47h0a33,33,0,0,0-.85,3.84,1.84,1.84,0,0,0,.31,1,.94.94,0,0,0,.56.11c.69,0,1.59-.59,2.63-2.19.25-.57.54-.73.68-1.09l1.25,1.09a17.44,17.44,0,0,1-4,4.86,7.25,7.25,0,0,1-4.55,1.66,4.9,4.9,0,0,1-3.14-1,2.6,2.6,0,0,1-1.19-2.24,5.73,5.73,0,0,1,.07-1.29c0-.45.1-1.17.2-2a15.09,15.09,0,0,1-4,4.86,8.39,8.39,0,0,1-5.06,1.66,6.55,6.55,0,0,1-4.64-1.66,6.71,6.71,0,0,1-1.9-4.68,16.19,16.19,0,0,1,1.35-7,20.13,20.13,0,0,1,4-6.49,29,29,0,0,1,4.33-3.62,13.14,13.14,0,0,1,4.43-1.08,4.9,4.9,0,0,1,3.26,1,4.46,4.46,0,0,1,1.69,2.82l.72-2.93Zm-9.58,4.09a3,3,0,0,0-.57-1.67,2,2,0,0,0-1.32-.55,3.6,3.6,0,0,0-2.16,1.08,13.57,13.57,0,0,0-2.34,3.44,30.17,30.17,0,0,0-2.32,5.79,13.16,13.16,0,0,0-.71,4.72,3,3,0,0,0,.6,1.81c.32.57.79.59,1.39.59a3.71,3.71,0,0,0,2.59-1.25,14.11,14.11,0,0,0,2.45-4.21,43.88,43.88,0,0,0,1.8-5.45A15.86,15.86,0,0,0,405.08,172.2ZM357.44,169a54,54,0,0,0,6.87-.69,44.44,44.44,0,0,0,5-.75L367,176.25c2-3.37,3.89-5.74,5.66-6.92a8.85,8.85,0,0,1,6.06-2.08,5.38,5.38,0,0,1,3.36,1.08,3.88,3.88,0,0,1,1.26,3,10.61,10.61,0,0,1-.28,2.61c-.24,1.16-.56,2.6-1,4.21L380,184.65c0,.09,0,.25,0,.45a3.23,3.23,0,0,0-.31,1.15c0,.09.12.57.35.57a.77.77,0,0,0,.65.53c.31,0,.61-.35,1-.57.34-.47,1.05-1.56,2.06-3l1.34.9a18.47,18.47,0,0,1-4.37,5.44,7.2,7.2,0,0,1-4.55,1.65,6.61,6.61,0,0,1-3.48-1.07,3.64,3.64,0,0,1-1.27-2.76,13.65,13.65,0,0,1,.33-3.2c.25-1.15.78-2.91,1.55-5.49l1.6-5c.16-.48.24-.94.29-1.09a6.37,6.37,0,0,0,.05-1c0-.2-.09-.55-.32-.55a.78.78,0,0,0-.7-.4c-1.68,0-3.53,2-5.57,5.65a46.31,46.31,0,0,0-4.69,13.81H356l3.7-15.8.12-.46a14.66,14.66,0,0,0,.49-2.8c0-.41-.27-.59-.62-1a10.69,10.69,0,0,0-1.7-.17h-.47Zm-23,0a54,54,0,0,0,6.89-.69,44.58,44.58,0,0,0,5-.75L344,176.5c1.9-3.43,3.55-6,4.91-7.17a5.13,5.13,0,0,1,4-2.08,3.07,3.07,0,0,1,2.48,1.08,4.89,4.89,0,0,1,.18,5.54,2.59,2.59,0,0,1-2.47,1.1,2.86,2.86,0,0,1-2.41-.91c-.67-.77-1.16-.91-1.51-.91-1.09,0-2.47,1.71-4.26,5a50.46,50.46,0,0,0-4,12.52H333l3.72-15.8.13-.46a12.62,12.62,0,0,0,.46-2.8c0-.41-.2-.59-.6-1a9.9,9.9,0,0,0-1.69-.17h-.48Zm-4.53,15.62a13.39,13.39,0,0,1-4.42,5.43,12.29,12.29,0,0,1-6.5,1.67,10.57,10.57,0,0,1-7.05-2.17,7.64,7.64,0,0,1-2.69-6,13.54,13.54,0,0,1,1.22-6,16,16,0,0,1,3.75-5.45,20.13,20.13,0,0,1,5.25-3.76,18.86,18.86,0,0,1,5.73-1.13,9.5,9.5,0,0,1,4.91,1.28,4.24,4.24,0,0,1,2,3.62c.08,2.18-1.13,4.35-3.74,6a24.7,24.7,0,0,1-10.48,3.34c-.11.49-.17,1-.21,1.26a5.08,5.08,0,0,0,0,.84,5.17,5.17,0,0,0,1.1,3.44c.7.88,1.71,1.07,3,1.07a5.39,5.39,0,0,0,3.53-1,13.6,13.6,0,0,0,3-3.45Zm-11.79-5.28a10.77,10.77,0,0,0,5.66-3,6.62,6.62,0,0,0,2.05-5,2.09,2.09,0,0,0-.49-1.41,1.29,1.29,0,0,0-1.24-.56c-1.11,0-2.21,1-3.31,2.73A25.19,25.19,0,0,0,318.14,179.36Zm-10.76-18.31-1.9,7.14h4.15l-.36,2.2H305L301.73,183c-.21,1-.4,1.6-.49,2.18a8.22,8.22,0,0,0-.12,1.38,1.52,1.52,0,0,0,.28.79c.21,0,.4.21.67.21a1.73,1.73,0,0,0,1.33-.78,16.84,16.84,0,0,0,2.39-3.26l1.38,1a22,22,0,0,1-4.41,5.49,8,8,0,0,1-4.86,1.66,6.22,6.22,0,0,1-3.56-1.08,3.35,3.35,0,0,1-1.3-2.75,12.33,12.33,0,0,1,0-1.6,9.14,9.14,0,0,1,.38-1.67l3.4-14.25H294l.47-2.06a14.41,14.41,0,0,0,5.33-2.59,23.32,23.32,0,0,0,4.67-4.69Zm-45.17,8a53.82,53.82,0,0,0,6.89-.69,44.71,44.71,0,0,0,5-.75l-2.29,8.67c2-3.37,3.91-5.74,5.67-6.92a8.81,8.81,0,0,1,6.05-2.08,5.24,5.24,0,0,1,3.34,1.08,3.77,3.77,0,0,1,1.29,3,10.71,10.71,0,0,1-.29,2.61c-.22,1.16-.57,2.6-1,4.21l-2.1,6.54c0,.09,0,.25-.05.45a4.27,4.27,0,0,0-.27,1.15c0,.09.11.57.32.57a.81.81,0,0,0,.67.53c.29,0,.61-.35,1-.57.32-.47,1-1.56,2-3l1.37.9a19.12,19.12,0,0,1-4.36,5.44,7.37,7.37,0,0,1-4.59,1.65,6.48,6.48,0,0,1-3.46-1.07,3.64,3.64,0,0,1-1.28-2.76,13.65,13.65,0,0,1,.33-3.2c.26-1.15.79-2.91,1.56-5.49l1.6-5c.14-.48.23-.94.28-1.09a6.55,6.55,0,0,0,.06-1c0-.2-.1-.55-.31-.55a.83.83,0,0,0-.69-.4c-1.71,0-3.57,2-5.59,5.65a46.59,46.59,0,0,0-4.69,13.81h-7.9l3.71-15.8.13-.46a13,13,0,0,0,.48-2.8c0-.41-.24-.59-.63-1a10,10,0,0,0-1.68-.17h-.48Zm-24.56,21.64-.05-1.09a6.17,6.17,0,0,0,3.53-1.09c.71-.58,1.3-1.82,1.75-3.83l5-21.11a13.7,13.7,0,0,0,.38-1.73,6.4,6.4,0,0,0,.09-1.09,2,2,0,0,0-1-1.85,8,8,0,0,0-3-.85l0-1.1H263l.06,1.15a7.32,7.32,0,0,0-3.61,1,6.6,6.6,0,0,0-1.6,3.44l-5.07,22.3a7.5,7.5,0,0,0-.21,1.43,4.85,4.85,0,0,0,0,1,2.34,2.34,0,0,0,.95,1.74,4.6,4.6,0,0,0,2.69.58l0,1.09ZM203.45,169a53.48,53.48,0,0,0,6.87-.69,46.06,46.06,0,0,0,5-.75L213,176.5c1.93-3.43,3.57-6,4.91-7.17a5.21,5.21,0,0,1,4-2.08,3,3,0,0,1,2.45,1.08,4.16,4.16,0,0,1,1,2.73,4.05,4.05,0,0,1-.79,2.81,2.55,2.55,0,0,1-2.45,1.1,2.88,2.88,0,0,1-2.44-.91c-.7-.77-1.19-.91-1.5-.91-1.09,0-2.5,1.71-4.23,5a47.7,47.7,0,0,0-4.06,12.52H202l3.68-15.8.15-.46a12.21,12.21,0,0,0,.47-2.8c0-.41-.22-.59-.63-1a10,10,0,0,0-1.67-.17h-.5Zm-15,5.84c.23-.88.42-1.62.52-2.17a4.88,4.88,0,0,0,.13-1.09c0-.51-.2-.68-.63-1.09a15.18,15.18,0,0,0-1.7-.22h-.49l0-1.36a24.94,24.94,0,0,0,5.71-.58,49.58,49.58,0,0,0,6.34-.87l-4.19,17.17c-.06.57-.15.75-.18,1.08a2.17,2.17,0,0,0,0,.52c0,.19.13.57.24.57.18.36.34.53.61.53s.71-.39,1.07-.71a19,19,0,0,0,2-2.9l1.35.9a18.86,18.86,0,0,1-4.48,5.44,7.4,7.4,0,0,1-4.59,1.66,5.55,5.55,0,0,1-3.33-1.08,4.28,4.28,0,0,1-1.31-3.25c0-.34.12-1.1.24-2.16s.47-2.07.78-3.3Zm6.74-19.3a4.09,4.09,0,0,1,3.24,1.36,3.89,3.89,0,0,1,1.44,3,3.38,3.38,0,0,1-1.16,2.94,3.72,3.72,0,0,1-3.16,1.48,4.14,4.14,0,0,1-3.27-1.48,4.06,4.06,0,0,1-.28-6A3.73,3.73,0,0,1,195.23,155.56Zm-27.36,10.06-10.12,12.55H168Zm-24,25,0-1.09a5,5,0,0,0,2.45-1.09,19.24,19.24,0,0,0,3-2.75l23.56-29.41h4.27l.49,28v.32a5.19,5.19,0,0,0,1.41,3.67,6.32,6.32,0,0,0,3.84,1.26l.09,1.09H163.87l-.09-1.09a5.43,5.43,0,0,0,3.53-1.09c.54-.58.8-2,.8-4.21v-3.9h-12l-3.44,4.27c-.58.8-.94,1.41-1.17,1.78a2.54,2.54,0,0,0-.31,1.37c0,.47.31.72.87,1.2a11.77,11.77,0,0,0,2.5.58l.1,1.09Zm-23.54-15.8c.19-.88.39-1.62.47-2.17a2.68,2.68,0,0,0,.19-1.09c0-.51-.26-.68-.6-1.09-.45,0-1-.22-1.8-.22h-.42l0-1.36a25.5,25.5,0,0,0,5.73-.58,50.17,50.17,0,0,0,6.38-.87L126,184.65c0,.57-.08.75-.09,1.08a1.29,1.29,0,0,0,0,.52c0,.19.07.57.2.57a.72.72,0,0,0,.65.53c.3,0,.61-.39,1.08-.71a22.05,22.05,0,0,0,1.95-2.9l1.35.9a19.84,19.84,0,0,1-4.39,5.44,7.6,7.6,0,0,1-4.6,1.66,5.64,5.64,0,0,1-3.38-1.08,4.08,4.08,0,0,1-1.25-3.25,9.9,9.9,0,0,1,.24-2.16,17.83,17.83,0,0,1,.73-3.3Zm6.69-19.3a4.89,4.89,0,0,1,4.73,4.39,3.27,3.27,0,0,1-1.22,2.94,3.61,3.61,0,0,1-3.06,1.48,3.9,3.9,0,0,1-3.27-1.48,3.47,3.47,0,0,1-1.54-2.94,3.52,3.52,0,0,1,1.26-3A3.68,3.68,0,0,1,127,155.56ZM86.9,169a55.49,55.49,0,0,0,6.91-.69,48.23,48.23,0,0,0,4.92-.75l-2.27,8.67c2-3.37,3.89-5.74,5.65-6.92a8.78,8.78,0,0,1,6.09-2.08,5.09,5.09,0,0,1,3.29,1.08,3.9,3.9,0,0,1,1.34,3,16.11,16.11,0,0,1-.3,2.61c-.23,1.16-.57,2.6-1,4.21l-2.15,6.54c0,.09,0,.25,0,.45a4.12,4.12,0,0,0-.26,1.15c0,.09.12.57.28.57.24.33.49.53.75.53s.59-.35.89-.57c.41-.47,1.07-1.56,2.13-3l1.37.9a21.22,21.22,0,0,1-4.36,5.44,7.49,7.49,0,0,1-4.62,1.65,6.48,6.48,0,0,1-3.5-1.07,3.7,3.7,0,0,1-1.26-2.76,12.58,12.58,0,0,1,.39-3.2c.25-1.15.76-2.91,1.52-5.49l1.58-5a6,6,0,0,0,.24-1.09,3.39,3.39,0,0,0,.13-1c0-.2-.16-.55-.32-.55a.8.8,0,0,0-.67-.4c-1.71,0-3.56,2-5.68,5.65a50.35,50.35,0,0,0-4.64,13.81h-7.9l3.77-15.8,0-.46a13.33,13.33,0,0,0,.53-2.8c0-.41-.25-.59-.58-1a13.84,13.84,0,0,0-1.72-.17H87ZM38.61,190.66l3.8-15.8v-.46a11.25,11.25,0,0,0,.54-2.8c0-.41-.26-.59-.55-1a14,14,0,0,0-1.72-.17h-.45L40.16,169a55.54,55.54,0,0,0,6.89-.69,44.43,44.43,0,0,0,4.9-.75l-2.22,8.67c1.94-3.37,3.85-5.74,5.65-6.92a8.68,8.68,0,0,1,6.07-2.08,5,5,0,0,1,3.27,1.08,3.81,3.81,0,0,1,1.36,3,8.85,8.85,0,0,1-.27,2.3,12.71,12.71,0,0,1-.73,2.66c2.09-3.37,4-5.74,5.65-6.92a9,9,0,0,1,6.1-2.08,5.3,5.3,0,0,1,3.39,1.08,3.93,3.93,0,0,1,1.33,3,13.9,13.9,0,0,1-.31,2.48c-.21,1.09-.6,2.69-1,4.34l-2.14,6.54c0,.09,0,.25,0,.45a2.44,2.44,0,0,0-.27,1.15c0,.09,0,.57.28.57.21.33.4.53.67.53s.67-.35,1-.57c.37-.47,1.08-1.56,2.07-3l1.39.9a18.43,18.43,0,0,1-4.51,5.44A7.37,7.37,0,0,1,74,191.74a6.11,6.11,0,0,1-3.26-1.09,4.82,4.82,0,0,1-1.32-3.14,13.19,13.19,0,0,1,.44-2.87c.26-1.09.76-2.94,1.49-5.43l1.57-5a4.49,4.49,0,0,0,.33-1.24,2.05,2.05,0,0,0,.14-.86c0-.17-.19-.55-.36-.55a.83.83,0,0,0-.7-.4c-1.78,0-3.6,2-5.67,5.65A48.74,48.74,0,0,0,62,190.66H53l4.46-16.41c.15-.48.16-1,.25-1.24a2.48,2.48,0,0,0,.11-.86c0-.2-.2-.55-.32-.55a.89.89,0,0,0-.7-.4c-1.67,0-3.55,2-5.66,5.65a50,50,0,0,0-4.67,13.81ZM22.83,156.14c4.34,0,7.76,1.14,10.34,3.42a11.6,11.6,0,0,1,4.31,8.83,23.83,23.83,0,0,1-1.59,8.49A24.39,24.39,0,0,1,31,184.64a26.27,26.27,0,0,1-7.33,5.19A19.88,19.88,0,0,1,15,191.74c-4.45,0-8-1.08-10.62-3.28a12,12,0,0,1-4.18-9.25,17.53,17.53,0,0,1,1.67-8.36,23.91,23.91,0,0,1,5.15-8A19.67,19.67,0,0,1,14.31,158,20.72,20.72,0,0,1,22.83,156.14Zm4.64,8.4a7.37,7.37,0,0,0-1.39-4.7,4.61,4.61,0,0,0-3.61-1.6,6.19,6.19,0,0,0-4.25,1.86,16.54,16.54,0,0,0-3.8,5.47,44.76,44.76,0,0,0-3.27,9.26,30.5,30.5,0,0,0-1,8.28,8.08,8.08,0,0,0,1.54,4.79,4.23,4.23,0,0,0,3.55,1.67,6.66,6.66,0,0,0,4.63-2.18,19,19,0,0,0,3.86-6.19,48.62,48.62,0,0,0,2.93-9A33.93,33.93,0,0,0,27.47,164.54Z" />
</svg>

