<?xml version="1.0" encoding="UTF-8"?>
<svg xmlns="http://www.w3.org/2000/svg" viewBox="0 0 130 24">
<title>Pegasus Airlines</title>
<desc>Pegasus Airlines logo</desc>
<metadata xmlns:rdf="http://www.w3.org/1999/02/22-rdf-syntax-ns#" xmlns:Airline="http://schema.org/Airline">
<rdf:RDF>
<Airline:name>Pegasus Airlines</Airline:name>
<Airline:iataCode>PC</Airline:iataCode>
<Airline:url>https://airlinelogos.aero/PC</Airline:url>
</rdf:RDF>
</metadata>
<path fill="#DC2C2B" d="M118.5,2.032 C120.082,1.168 121.711,0.545 123.616,0.545 C124.693,0.545 125.858,0.745 127.152,1.212 C130.734,2.505 129.348,2.235 129.615,2.348 C129.882,2.462 130.151,2.635 129.895,3.291 C129.641,3.948 129.448,5.256 129.185,5.557 C128.925,5.859 128.554,5.807 128.227,5.397 C127.903,4.989 127.029,3.525 126.014,3.247 C124.999,2.972 123.714,2.227 121.656,3.334 C119.602,4.441 121.466,8.136 122.274,8.832 C123.081,9.527 125.696,13.389 125.923,14.392 C126.151,15.392 126.833,18.165 124.683,20.044 C122.532,21.922 121.061,23.017 116.598,23.104 C116.598,23.104 115.32,23.071 114.733,22.904 C114.147,22.737 114.196,22.499 113.612,22.511 C113.027,22.523 112.283,22.597 112.071,22.541 C111.855,22.486 111.589,22.373 111.691,22.015 C111.791,21.658 112.41,20.402 112.41,20.402 C112.41,20.402 112.613,19.864 113.033,19.559 C113.453,19.256 113.242,19.319 113.786,20.079 C114.329,20.837 114.918,21.004 115.291,21.175 C115.666,21.345 117.687,21.425 118.533,21.11 C119.378,20.8 120.162,19.895 120.206,19.241 C120.247,18.591 120.289,17.76 118.612,15.956 C116.936,14.15 115.085,11.402 114.995,9.033 C114.905,6.664 116.022,3.384 118.5,2.033 L118.5,2.032 Z M83.887,1.471 C84.946,1.035 85.858,0.897 86.644,0.897 C87.659,0.897 88.461,1.128 89.092,1.249 C90.212,1.466 91.122,1.98 91.764,2.206 C92.406,2.429 92.353,2.432 92.944,2.776 C93.533,3.119 93.117,3.778 93.117,3.778 C93.117,3.778 92.764,4.97 92.56,5.507 C92.356,6.046 92.413,6.221 92.04,6.17 C91.967,6.16 91.916,6.164 91.875,6.166 C91.695,6.176 91.693,6.188 91.121,5.239 C90.411,4.068 89.228,3.143 86.784,3.191 C84.34,3.238 84.046,4.903 84.118,6.206 C84.194,7.508 86.148,10.076 87.179,11.479 C88.212,12.881 89.304,14.696 89.536,16.056 C89.771,17.414 89.316,18.963 88.326,20.286 C87.338,21.608 84.909,22.663 83.956,22.978 C83.005,23.292 80.352,23.522 79.659,23.478 C78.968,23.431 77.739,23.04 77.365,22.928 C77.151,22.865 76.665,22.884 76.196,22.904 C75.842,22.918 75.499,22.932 75.292,22.91 C74.811,22.86 75.065,21.967 75.065,21.967 L75.888,20.291 L68.343,20.437 C67.968,20.327 68.175,19.848 68.486,19.369 C68.798,18.888 68.626,18.181 68.626,18.181 L67.212,12.696 L62.003,12.799 C62.003,12.799 58.117,19.154 57.857,19.575 C57.597,19.995 57.757,19.993 57.757,19.993 C58.35,20.515 57.555,20.589 57.555,20.589 L54.472,20.649 C54.045,20.539 54.302,20.059 54.619,19.816 C54.934,19.573 55.295,18.854 55.295,18.854 L65.66,1.942 C65.66,1.942 71.505,1.769 71.825,1.824 C72.146,1.875 72.153,2.409 71.999,2.708 C71.844,3.008 71.953,3.183 71.953,3.183 C71.953,3.183 75.485,18.343 75.65,18.695 C75.816,19.047 75.657,19.109 76.138,19.279 C76.62,19.448 76.465,19.805 76.465,19.805 C76.725,19.445 77.385,20.795 77.601,21.087 C77.818,21.38 78.726,21.539 79.366,21.706 C80.007,21.871 81.334,21.784 82.596,20.99 C83.861,20.194 83.683,19.071 83.187,17.955 C82.692,16.839 80.155,14.341 79.444,13.111 C78.734,11.88 77.566,8.643 78.956,5.713 C80.346,2.783 81.456,2.464 83.886,1.471 L83.887,1.471 Z M65.737,6.86 L63.352,10.639 L66.646,10.574 L65.736,6.86 L65.737,6.86 Z M44.476,3.54 C47.064,2.09 49.049,1.497 51.233,1.497 C51.362,1.497 51.491,1.499 51.621,1.503 C53.962,1.578 54.813,1.619 55.828,1.956 C56.842,2.291 57.165,2.462 57.697,2.511 C57.809,2.522 57.927,2.517 58.04,2.511 C58.455,2.49 58.796,2.469 58.56,3.265 C58.256,4.278 57.367,5.245 57.102,5.248 C56.837,5.254 56.89,5.371 56.566,5.023 C56.243,4.673 55.318,3.446 54.466,3.285 C53.613,3.125 51.645,3.104 50.326,3.722 C49.007,4.34 47.119,5.916 45.976,7.656 C44.834,9.399 43.702,11.731 43.406,13.278 C43.111,14.823 42.718,16.846 43.478,17.838 C44.238,18.831 45.513,18.808 46.042,18.678 C46.572,18.548 48.468,17.386 49.194,16.247 C49.921,15.107 50.584,13.435 50.74,13.075 C50.892,12.718 50.835,12.421 50.618,12.19 C50.402,11.956 50.08,11.726 50.076,11.49 C50.071,11.252 50.226,10.893 50.226,10.893 L57.081,10.761 C57.081,10.761 57.78,11.278 57.101,12.004 C57.101,12.004 56.366,12.552 56.16,12.97 C55.953,13.389 55.141,15.952 55.043,16.31 C54.941,16.668 54.5,19.046 53.823,19.89 C53.146,20.732 53.25,20.73 53.25,20.73 L49.212,20.81 C49.212,20.81 49.41,19.857 48.408,20.35 C47.406,20.843 45.662,21.588 44.652,21.608 C43.644,21.628 41.402,21.02 40.596,20.504 C39.79,19.984 38.496,18.766 37.996,17.472 C37.496,16.177 37.299,13.634 38.531,10.884 C39.765,8.135 41.737,5.074 44.476,3.54 Z M108.11,1.971 L115.31,1.831 C115.31,1.831 116.317,1.924 115.68,2.891 C115.68,2.891 111.837,11.611 111.445,12.349 C111.053,13.087 109.159,17.559 106.714,18.955 C104.267,20.349 102.261,21.247 99.854,21.5 C97.239,21.778 94.314,21.496 92.215,19.404 C90.118,17.312 91.363,13.189 91.945,11.662 C92.525,10.135 94.992,3.8 94.992,3.8 C94.992,3.8 95.192,3.57 95.035,3.292 C94.88,3.015 94.768,2.288 95.27,2.166 C95.772,2.043 96.074,2.15 96.074,2.15 L102.872,2.018 C102.872,2.018 103.932,2.221 102.891,3.196 C102.891,3.196 102.636,3.09 102.157,4.556 C101.676,6.026 97.747,15.703 97.747,15.703 C97.747,15.703 96.882,18.303 98.1,18.897 C99.2159455,19.4567988 100.574251,19.0922915 101.26,18.049 C101.898,17.083 108.11,1.971 108.11,1.971 Z M26.6,2.576 C26.6,2.576 37.328,2.314 39.51,2.314 C39.66,2.314 39.77,2.315 39.833,2.317 C40.809,2.359 40.335,3.217 40.335,3.217 C40.335,3.217 40.019,3.826 39.755,4.316 C39.491,4.803 38.942,4.33 38.942,4.33 C38.612,3.973 38.45,4.098 38.45,4.098 L33.082,4.202 L30.574,10.358 C30.574,10.358 34.913,10.273 35.401,10.266 C35.889,10.255 35.987,9.648 35.987,9.648 C36.955,9.025 36.707,10.542 36.504,11.514 C36.304,12.484 35.93,12.915 35.55,12.922 C35.17,12.93 35.055,12.448 34.994,12.087 C34.934,11.725 34.608,11.67 34.608,11.67 L29.999,11.761 L26.912,18.956 C26.912,18.956 35.427,18.85 35.48,18.789 C35.683,18.554 35.955,18.054 35.955,18.054 C37.087,17.548 36.885,18.398 36.791,19.368 C36.697,20.338 35.628,21.266 35.628,21.266 L19.088,21.587 C18.492,21.597 18.646,21.11 18.646,21.11 C18.646,21.11 25.343,5.32 25.656,4.588 C25.971,3.856 25.264,3.811 24.936,3.574 C24.606,3.339 25.299,2.6 25.299,2.6 L26.601,2.576 L26.6,2.576 Z M6.078,2.663 L20.743,2.378 C20.743,2.378 22.995,3.107 23.303,5.836 C23.613,8.566 22.217,11.327 20.1,12.44 C17.983,13.551 16.601,13.815 15,13.846 L10.362,13.936 L7.895,19.931 C7.895,19.931 8.925,20.861 7.865,21.299 L0.185,21.449 C0.185,21.449 -0.138,21.277 0.069,20.856 C0.276,20.435 6.596,5.092 6.596,5.092 C6.596,5.092 7.283,4.602 6.634,4.022 C6.634,4.022 5.88,3.62 5.826,3.561 C5.55,3.263 6.078,2.663 6.078,2.663 Z M11.285,11.601 C11.285,11.601 11.515,11.631 11.865,11.631 C12.437,11.631 13.33,11.551 14.053,11.13 C14.73,10.736 15.844,9.787 16.253,8.65 C16.563,7.786 16.968,6.554 16.366,5.614 C15.901,4.888 15.658,4.678 14.802,4.515 C14.378,4.435 14.109,4.528 14.109,4.528 L11.285,11.601 Z"/>
</svg>
