<?xml version="1.0" encoding="UTF-8"?>
<svg xmlns="http://www.w3.org/2000/svg" viewBox="0 0 492.001 134.811">
<title>Aeroperú</title>
<desc>Aeroperú logo</desc>
<metadata xmlns:rdf="http://www.w3.org/1999/02/22-rdf-syntax-ns#" xmlns:Airline="http://schema.org/Airline">
<rdf:RDF>
<Airline:name>Aeroperú</Airline:name>
<Airline:alternateName>Aeroperu</Airline:alternateName>
<Airline:iataCode>PL</Airline:iataCode>
<Airline:url>https://airlinelogos.aero/PL</Airline:url>
</rdf:RDF>
</metadata>
<path fill="#261642" d="M150.777,76.626c0.358,1.197,0.587,2.526,0.712,3.961h12.703c-0.097-1.371-0.292-2.687-0.56-3.961H150.777z
M150.341,90.709c-0.513,1.31-1.182,2.454-2.01,3.429c-0.133,0.156-0.272,0.292-0.41,0.438h13.982
c0.563-1.237,1.045-2.519,1.407-3.867H150.341z M1.205,73.378h11.037c0.483-1.42,1.063-2.56,1.733-3.423H1.746
C1.376,71.087,1.178,72.239,1.205,73.378z M151.575,83.835c-0.036,1.295-0.153,2.504-0.351,3.626h12.725
c0.167-1.171,0.265-2.381,0.299-3.626H151.575L151.575,83.835z M101.64,97.823H89.595v3.275h12.045V97.823z M116.819,76.626
c-0.289,1.307-0.484,2.627-0.572,3.961h12.693c0.128-1.436,0.359-2.765,0.719-3.961H116.819z M86.947,92.191l-13.054-0.02
c-0.239,0.89-0.521,1.688-0.842,2.404h13.013C86.395,93.767,86.693,92.965,86.947,92.191L86.947,92.191z M116.216,83.835
c0.043,1.254,0.14,2.462,0.288,3.626h12.69c-0.199-1.123-0.315-2.332-0.349-3.626H116.216z M56.25,90.709H43.724
c0.257,1.352,0.601,2.635,1.011,3.867h13.012C57.072,93.455,56.571,92.168,56.25,90.709L56.25,90.709z M101.64,92.352
c0-0.562,0.002-1.107,0.005-1.643h-12.05v3.867h12.045V92.352z M50.931,104.347c3.752,3.282,8.722,4.927,14.917,4.927
c5.156,0,9.452-1.267,12.887-3.804c0.437-0.322,0.87-0.7,1.296-1.123H50.931z M89.595,104.347v3.026h12.045v-3.026H89.595z
M29.876,104.347c0.362,1.292,0.678,2.311,0.941,3.026h11.915c-0.474-1.039-0.869-2.046-1.208-3.026H29.876z M146.126,69.955
c0.784,0.552,1.522,1.213,2.205,2.016c0.368,0.433,0.694,0.91,1,1.407h13.41c-0.418-1.19-0.928-2.328-1.518-3.423H146.126z
M126.191,104.347c0.599,0.39,1.213,0.765,1.862,1.104c3.877,2.016,7.951,3.022,12.224,3.022c5.204,0,9.736-1.377,13.604-4.126
H126.191z M116.849,59.739v-2.104c-1.343-0.854-3.875-0.662-6.194-0.138c-2.078,0.469-3.985,1.204-4.707,1.695
c-0.229,0.155-0.462,0.343-0.699,0.547H116.849z M121.201,66.707h37.945c-0.504-0.655-1.042-1.291-1.621-1.904
c-0.615-0.652-1.259-1.251-1.922-1.815h-30.942C123.37,64.072,122.216,65.312,121.201,66.707z M33.08,59.739
c-0.041-0.021-0.078-0.045-0.12-0.065c-2.629-1.359-6.629-2.039-12.001-2.039c-4.756,0-8.073,0.673-10.755,2.104H33.08z
M76.007,59.739c-3.22-1.937-7.02-2.905-11.398-2.905c-3.981,0-7.515,0.977-10.614,2.905H76.007z M100.782,59.739v-1.005H89.595
v1.005H100.782z M4.006,104.347c0.016,0.016,0.028,0.034,0.044,0.05c2.701,2.719,6.394,4.076,11.08,4.076
c2.657,0,5.157-0.534,7.501-1.604c1.405-0.641,2.752-1.497,4.055-2.522H4.006z M89.595,62.987v3.72h27.254v-3.72h-14.372
c-0.549,0.789-1.111,1.667-1.694,2.662v-2.662H89.595L89.595,62.987z M49.18,63.896c-0.75,0.869-1.407,1.819-2.02,2.811h35.698
c-0.523-0.888-1.091-1.719-1.714-2.479c-0.356-0.435-0.729-0.843-1.107-1.24H50.044C49.754,63.289,49.458,63.574,49.18,63.896
L49.18,63.896z M118.302,94.576h14.225c-0.138-0.146-0.279-0.282-0.412-0.438c-0.837-0.979-1.511-2.123-2.029-3.429h-12.999
C117.405,92.069,117.812,93.359,118.302,94.576z M119.211,69.955c-0.569,1.13-1.051,2.271-1.46,3.423h13.357
c0.308-0.497,0.635-0.976,1.006-1.407c0.686-0.803,1.429-1.464,2.215-2.016H119.211L119.211,69.955z M39.202,66.707
c-0.198-0.724-0.429-1.346-0.691-1.858c-0.336-0.658-0.76-1.274-1.251-1.861H6.07c-0.995,1.063-1.983,2.334-2.813,3.72H39.202
L39.202,66.707z M40.116,76.626H25.561c-2.22,0.689-5.198,1.412-8.974,2.169c-2.633,0.539-4.874,1.137-6.727,1.792h30.222
L40.116,76.626L40.116,76.626z M150.466,59.739c-3.061-1.387-6.478-2.104-10.276-2.104c-3.714,0-7.138,0.71-10.28,2.104H150.466
L150.466,59.739z M142.05,97.823c-0.588,0.099-1.188,0.162-1.816,0.162c-0.627,0-1.23-0.063-1.818-0.162H119.91
c0.718,1.192,1.538,2.28,2.45,3.275h35.198c0.959-1.032,1.802-2.129,2.556-3.275H142.05L142.05,97.823z M39.989,91.389l0.006-0.68
H28.148c-0.078,0.921-0.188,1.643-0.331,2.146c-0.168,0.612-0.424,1.177-0.723,1.721h12.938
C40.004,93.592,39.989,92.533,39.989,91.389z M40.568,100.848c-0.156-0.821-0.279-1.836-0.372-3.024H23.922
c-1.662,1.049-3.393,1.58-5.191,1.58c-1.739,0-3.2-0.528-4.39-1.58H0.425c0.27,1.161,0.659,2.257,1.193,3.275h39.007
C40.608,101.016,40.584,100.93,40.568,100.848z M84.57,97.823H70.645c-1.284,1.007-2.831,1.53-4.665,1.53
c-1.943,0-3.663-0.519-5.17-1.53H46.065c0.496,1.011,1.036,1.985,1.655,2.899c0.089,0.129,0.184,0.25,0.275,0.376h34.648
C83.331,100.07,83.98,98.965,84.57,97.823L84.57,97.823z M28.254,73.378h11.799c-0.052-1.255-0.139-2.396-0.261-3.424H27.303
C27.841,70.821,28.156,71.964,28.254,73.378z M20.959,85.984c3.344-0.763,5.786-1.419,7.329-1.969v2.565
c0,0.306-0.002,0.594-0.006,0.88h11.741l0.031-3.626H4.122c-0.888,0.838-1.65,1.804-2.279,2.906
c-0.135,0.235-0.259,0.477-0.379,0.72H15.9C17.097,86.976,18.776,86.483,20.959,85.984z M44.321,73.378h12.522
c0.429-1.216,1.021-2.296,1.797-3.223c0.06-0.07,0.125-0.131,0.186-0.201H45.461C45.009,71.031,44.646,72.187,44.321,73.378z
M12.044,92.764c0-0.737,0.134-1.421,0.389-2.055H0.349C0.121,91.781,0,92.907,0,94.092c0,0.165,0.016,0.321,0.021,0.484h12.262
C12.127,94.002,12.044,93.398,12.044,92.764z M89.595,73.378h14.832c1.038-1.054,2.483-2.116,4.268-2.83
c0.615-0.246,1.284-0.44,1.966-0.593H89.595V73.378L89.595,73.378z M56.137,76.626H43.62c-0.208,1.27-0.369,2.581-0.453,3.961
h43.576c-0.114-1.38-0.271-2.704-0.485-3.961H74.444c0.08,0.679,0.14,1.382,0.157,2.13H56.032
C56.025,78.011,56.067,77.307,56.137,76.626z M55.841,87.461c-0.009-0.194-0.025-0.382-0.029-0.579h31.125
c0.018-1.046,0.008-2.058-0.019-3.047H43.089c0.011,1.25,0.08,2.454,0.193,3.626H55.841z M71.815,69.99
c0.821,0.929,1.452,2.063,1.911,3.388h11.836c-0.318-1.21-0.692-2.351-1.12-3.424H71.78C71.792,69.968,71.805,69.979,71.815,69.99z
M89.595,76.626v3.961h12.403c0.134-1.637,0.305-2.961,0.515-3.961H89.595z M101.799,83.835H89.595v3.626h12.092
C101.712,86.154,101.75,84.945,101.799,83.835L101.799,83.835z M180.774,70.443c1.942-2.427,4.386-3.641,7.329-3.641
c2.829,0,5.199,1.236,7.114,3.71c1.914,2.473,2.872,6.26,2.872,11.357c0,5.467-0.929,9.397-2.786,11.795
c-1.857,2.396-4.186,3.595-6.986,3.595c-2.914,0-5.386-1.306-7.415-3.917c-2.028-2.609-3.043-6.648-3.043-12.112
C177.859,76.467,178.831,72.872,180.774,70.443z M165.944,124.876h12.044v-24.503c2.257,2.597,4.408,4.428,6.451,5.496
c2.042,1.069,4.32,1.604,6.836,1.604c5.286,0,9.787-2.251,13.501-6.755s5.572-10.816,5.572-18.939
c0-7.907-1.844-14.075-5.529-18.502c-3.687-4.427-8.172-6.642-13.458-6.642c-3.029,0-5.787,0.764-8.273,2.29
c-2.484,1.527-4.457,3.512-5.914,5.955v-7.146h-11.229V124.876L165.944,124.876z M226.648,77.887
c-0.028-3.512,0.814-6.29,2.529-8.336c1.715-2.045,3.886-3.068,6.515-3.068c2.457,0,4.543,0.969,6.258,2.908
c1.715,1.938,2.614,4.77,2.7,8.496H226.648z M241.05,96.206c-1.286,1.1-2.872,1.649-4.758,1.649c-2.771,0-5.086-1.062-6.943-3.184
s-2.828-5.092-2.914-8.907h30.174c0.172-9.862-1.7-17.183-5.615-21.962c-3.914-4.778-9.258-7.168-16.03-7.168
c-6.028,0-11.015,2.284-14.958,6.848c-3.942,4.565-5.915,10.877-5.915,18.938c0,6.748,1.5,12.335,4.502,16.762
c3.8,5.527,9.657,8.29,17.572,8.29c5,0,9.165-1.229,12.493-3.688c3.328-2.457,6.419-7.101,7.962-11.803l-12.965-0.063
C242.996,94.36,242.335,95.106,241.05,96.206L241.05,96.206z M271.652,91.352c0-8.274,0.336-13.709,1.008-16.305
c0.328-1.27,2.348-4.004,5.515-5.27c3.311-1.322,7.789-1.132,8.826-0.414V56.635c-1.167-0.742-5.914-0.782-9.103,1.1
c-3.76,2.218-5.998,6.606-7.033,8.373l-0.07-8.373h-11.188v48.639h12.045V91.352L271.652,91.352z M320.085,62.839v15.414
c0,6.961-0.3,11.335-0.9,13.121c-0.6,1.785-1.714,3.282-3.343,4.487c-1.629,1.208-3.472,1.811-5.529,1.811
c-1.8,0-3.286-0.45-4.457-1.353c-1.173-0.899-1.979-2.12-2.422-3.664c-0.443-1.541-0.665-5.73-0.665-12.571v-22.35h-12.044v30.777
c0,4.58,0.543,8.168,1.629,10.763s2.843,4.611,5.272,6.045c2.428,1.437,5.171,2.153,8.229,2.153c3,0,5.85-0.748,8.551-2.244
c2.7-1.496,4.878-3.541,6.536-6.137v7.281h11.187v-32.19L320.085,62.839z M320.132,57.734h11.997v11.299L320.132,57.734z"/>
<path fill="#261642" d="M478.839,105.553c0-5.672-4.708-10.271-10.518-10.271s-10.518,4.599-10.518,10.271
c0,5.673,4.708,10.27,10.518,10.27S478.839,111.226,478.839,105.553z M404.115,91.139L404.115,91.139L404.115,91.139L404.115,91.139
z M398.062,106.188c0-5.869-4.999-10.627-11.165-10.627c-6.167,0-11.165,4.758-11.165,10.627s4.998,10.627,11.165,10.627
C393.063,116.814,398.062,112.057,398.062,106.188z M491.644,105.91c0,12.871-10.151,23.306-22.675,23.306
c-8.061,0-15.134-4.327-19.156-10.84c0,0-3.787,4.234-10.217,8.827c-6.431,4.593-12.233,7.607-12.233,7.607
s-4.367-2.545-12.175-8.424s-9.235-8.364-9.235-8.364c-3.98,6.712-11.168,11.193-19.375,11.193
c-12.523,0-22.676-10.435-22.676-23.306c0-9.725,5.797-18.055,14.03-21.55l-0.778-0.201l-14.43-31.215
c0,0,18.347-0.468,28.948,0.416c10.601,0.883,30.242,4.374,30.242,4.374l-9.119,36.438h29.118l-8.81-36.438
c0,0,16.532-3.226,29.757-4.19c13.596-0.992,29.141-0.992,29.141-0.992s-12.662,29.253-14.135,31.607
c-0.043,0.069-0.15,0.127-0.316,0.177C485.816,87.813,491.644,96.16,491.644,105.91L491.644,105.91z M406.018,37.055
c2.668-2.544,5.586-4.592,8.686-6.083l-8.808-26.953c-8.116,3.288-15.406,8.472-21.446,15.057L406.018,37.055z M420.248,28.978
c2.036-0.496,4.127-0.769,6.263-0.769c2.307,0,4.562,0.315,6.752,0.893l7.734-27.13C436.348,0.689,431.487,0,426.479,0
c-5.184,0-10.214,0.729-15.013,2.101L420.248,28.978z M472.702,24.129l-21.469,17.627c2.014,2.592,3.815,5.505,5.384,8.668
l27.087-3.813C481.366,38.297,477.592,30.685,472.702,24.129z M438.79,31.199c3.044,1.529,5.903,3.607,8.521,6.157l21.658-17.783
c-6.242-6.952-13.869-12.375-22.381-15.732L438.79,31.199L438.79,31.199z M402.058,41.421c-1.912,2.416-3.129,5.048-3.863,8.447
l-27.905-3.134c1.449-8.716,4.022-17.718,10.384-23.139L402.058,41.421z"/>
</svg>
