<?xml version="1.0" encoding="UTF-8"?>
<svg xmlns="http://www.w3.org/2000/svg" viewBox="0 0 266 62" fill="none">
<title>Air Niugini</title>
<desc>Air Niugini logo</desc>
<metadata xmlns:rdf="http://www.w3.org/1999/02/22-rdf-syntax-ns#" xmlns:Airline="http://schema.org/Airline">
<rdf:RDF>
<Airline:name>Air Niugini</Airline:name>
<Airline:iataCode>PX</Airline:iataCode>
<Airline:url>https://airlinelogos.aero/PX</Airline:url>
</rdf:RDF>
</metadata>
<path d="M38.2592 47.7137C35.778 55.7263 28.5679 61.5103 20.0853 61.5103C9.54638 61.5103 1 52.592 1 41.6432C1 37.0294 2.48486 32.8134 5.0289 29.4365" stroke="#740054" stroke-width="0.405688" stroke-miterlimit="3.864"/>
<path d="M36.3715 47.1842C35.0352 52.4155 30.4548 56.2795 25.0049 56.2795C17.1066 56.5103 13.2354 50.7827 13.2354 44.0281C13.2354 43.5866 13.2563 43.167 13.2982 42.7246" stroke="#740054" stroke-width="0.405688" stroke-miterlimit="3.864"/>
<path d="M10.8388 15.2649C22.7505 13.4332 22.9902 16.2801 22.9902 16.2801C22.9902 16.2801 22.2263 21.6446 22.2263 21.7103V21.3582C22.2263 21.3582 21.9082 21.8434 21.4415 21.5999C19.0451 20.4296 9.76681 15.43 10.8388 15.2649Z" fill="#F58220"/>
<path d="M10.8388 15.2649C22.7505 13.4332 22.9902 16.2801 22.9902 16.2801C22.9902 16.2801 22.2263 21.6446 22.2263 21.7103V21.3582C22.2263 21.3582 21.9082 21.8434 21.4415 21.5999C19.0451 20.4296 9.76681 15.43 10.8388 15.2649Z" stroke="#F58220" stroke-width="0.0261468" stroke-miterlimit="3.864"/>
<path d="M21.612 21.6388C21.612 21.6388 21.4425 21.5777 21.4635 21.357C22.1845 15.353 18.1756 18.355 17.9432 18.1562C17.4984 18.1562 17.1374 17.7813 17.1374 17.3179V17.2951C17.1374 17.2951 15.5687 15.9405 15.7874 14.71C15.7929 14.679 15.0865 14.2986 13.6855 14.8924C13.6235 14.9179 13.4047 15.4415 14.2324 16.5006C14.2743 16.5234 13.7447 16.766 13.7867 17.0524C13.7867 17.119 15.493 20.0288 19.2466 21.6844C19.2895 21.7063 21.612 21.6388 21.612 21.6388Z" fill="#004A2A"/>
<path d="M21.612 21.6388C21.612 21.6388 21.4425 21.5777 21.4635 21.357C22.1845 15.353 18.1756 18.355 17.9432 18.1562C17.4984 18.1562 17.1374 17.7813 17.1374 17.3179V17.2951C17.1374 17.2951 15.5687 15.9405 15.7874 14.71C15.7929 14.679 15.0865 14.2986 13.6855 14.8924C13.6235 14.9179 13.4047 15.4415 14.2324 16.5006C14.2743 16.5234 13.7447 16.766 13.7867 17.0524C13.7867 17.119 15.493 20.0288 19.2466 21.6844C19.2895 21.7063 21.612 21.6388 21.612 21.6388Z" stroke="#004A2A" stroke-width="0.0261468" stroke-miterlimit="3.864"/>
<path d="M19.6177 22.2397C19.7024 21.8858 20.8263 21.7754 21.5264 21.7754C32.0444 21.7754 40.6117 30.6718 40.6117 41.6425C40.6117 43.8719 40.3146 46.477 39.785 48.8833C39.7421 48.6407 32.7663 46.3667 32.9358 46.0136C33.1045 45.6606 38.8726 40.8927 34.2922 30.472C34.1655 30.1646 25.7257 32.1286 19.6177 22.2397Z" fill="#740054"/>
<path d="M19.6177 22.2397C19.7024 21.8858 20.8263 21.7754 21.5264 21.7754C32.0444 21.7754 40.6117 30.6718 40.6117 41.6425C40.6117 43.8719 40.3146 46.477 39.785 48.8833C39.7421 48.6407 32.7663 46.3667 32.9358 46.0136C33.1045 45.6606 38.8726 40.8927 34.2922 30.472C34.1655 30.1646 25.7257 32.1286 19.6177 22.2397Z" stroke="#740054" stroke-width="0.0261468" stroke-miterlimit="3.864"/>
<path d="M34.4623 60.2737C38.5551 55.7484 40.6123 47.9119 40.6123 41.6435C40.6123 31.0249 32.2783 22.2616 22.2271 21.7098C25.8321 17.5156 31.5145 14.7344 37.2397 14.7344C42.14 14.7344 46.2957 17.3395 49.7312 20.4957C44.0907 18.5536 39.6161 18.2207 35.8406 18.5308C46.6566 18.5308 55.5202 27.8906 55.5202 39.4132C55.5202 50.9367 46.7195 60.2965 35.9044 60.2965C35.5653 60.2965 34.8014 60.2965 34.4623 60.2737Z" fill="#D83A4E"/>
<path d="M34.4623 60.2737C38.5551 55.7484 40.6123 47.9119 40.6123 41.6435C40.6123 31.0249 32.2783 22.2616 22.2271 21.7098C25.8321 17.5156 31.5145 14.7344 37.2397 14.7344C42.14 14.7344 46.2957 17.3395 49.7312 20.4957C44.0907 18.5536 39.6161 18.2207 35.8406 18.5308C46.6566 18.5308 55.5202 27.8906 55.5202 39.4132C55.5202 50.9367 46.7195 60.2965 35.9044 60.2965C35.5653 60.2965 34.8014 60.2965 34.4623 60.2737Z" stroke="#D83A4E" stroke-width="0.0261468" stroke-miterlimit="3.864"/>
<path d="M36.0534 5C22.3323 6.61181 22.078 21.5769 22.2275 21.4456C28.6947 15.22 36.1163 14.4045 36.1163 14.6699C36.1172 14.9117 37.2903 10.5624 36.0534 5Z" fill="#740054"/>
<path d="M36.0534 5C22.3323 6.61181 22.078 21.5769 22.2275 21.4456C28.6947 15.22 36.1163 14.4045 36.1163 14.6699C36.1172 14.9117 37.2903 10.5624 36.0534 5Z" stroke="#6D1F60" stroke-width="0.0261468" stroke-miterlimit="3.864"/>
<path d="M17.1362 17.4167C17.1362 17.0098 17.4534 16.6787 17.8454 16.6787C18.2355 16.6787 18.5527 17.0098 18.5527 17.4167C18.5527 17.8235 18.2355 18.1537 17.8454 18.1537C17.4534 18.1537 17.1362 17.8235 17.1362 17.4167Z" fill="white"/>
<path d="M17.8445 18.1546C18.2356 18.1546 18.5527 17.8242 18.5527 17.4167C18.5527 17.0091 18.2356 16.6787 17.8445 16.6787C17.4533 16.6787 17.1362 17.0091 17.1362 17.4167C17.1362 17.8242 17.4533 18.1546 17.8445 18.1546Z" stroke="white" stroke-width="0.0778899" stroke-miterlimit="3.864"/>
<path d="M51.2115 21.0723C47.8608 17.7256 42.5266 14.1836 37.4868 14.1836C31.4927 14.1836 25.7091 16.9128 22.0156 21.4864L22.548 21.9535C26.1111 17.5413 31.6959 14.9069 37.4868 14.9069C41.8092 14.9069 46.3896 17.6571 49.6364 20.5615L51.2115 21.0723Z" fill="#EAC27A"/>
<path d="M40.2644 41.6424C40.2644 47.4219 38.3675 55.3496 34.1299 60.0409L33.8984 60.2626L34.809 60.331C39.0521 55.4737 40.9599 47.484 40.9599 41.6424C40.9599 36.246 38.9372 31.1688 35.2647 27.345C31.5904 23.5203 26.712 21.4141 21.5263 21.4141C20.8819 21.4141 19.6532 21.4569 18.9395 21.5536L18.9559 21.6813L18.9841 21.6832L19.5894 22.214C20.2055 22.1657 20.9867 22.1374 21.5263 22.1374C26.526 22.1374 31.2303 24.1679 34.7734 27.8567C38.3147 31.5437 40.2644 36.4385 40.2644 41.6424Z" fill="#EAC27A"/>
<path d="M75.52 47.9865C80.4103 39.7614 84.9105 31.1989 89.4726 22.7093H98.4173C100.512 31.0091 103.216 39.6109 105.693 47.9865H97.7756L95.9681 40.7092H87.2348L83.6836 47.9865H75.52ZM95.0921 35.4049L93.2791 28.1659H93.208L89.5537 35.4049H95.0921Z" fill="#730053"/>
<path d="M108.201 29.0755H114.946L113.005 47.9867H106.26L108.201 29.0755ZM108.9 22.2552H115.645L115.187 26.7266H108.442L108.9 22.2552Z" fill="#730053"/>
<path d="M124.315 31.1216L124.379 31.1983C125.599 29.6813 126.952 28.6214 128.939 28.6214C129.401 28.6214 129.929 28.6588 130.374 28.8102L130.246 34.9108C129.626 34.7211 129.006 34.5314 128.404 34.5314C126.272 34.5314 124.114 35.8586 123.749 39.4197L122.87 47.9859H116.125L118.066 29.0747H124.526L124.315 31.1216Z" fill="#730053"/>
<path d="M143.527 22.7093H152.331L159.731 39.1567H159.803L161.489 22.7093H168.022L165.428 47.9865H156.732L149.193 31.8419H149.122L147.465 47.9865H140.934L143.527 22.7093Z" fill="#730053"/>
<path d="M170.777 29.0755H177.522L175.581 47.9867H168.836L170.777 29.0755ZM171.475 22.2552H178.22L177.762 26.7266H171.016L171.475 22.2552Z" fill="#730053"/>
<path d="M191.485 45.5229L191.406 45.5977C189.871 47.7577 187.779 48.4409 185.081 48.4409C180.819 48.4409 178.617 46.394 178.998 42.6805L180.393 29.0755H187.138L186.1 39.1933C185.909 41.0505 186.574 42.5273 188.525 42.5273C190.335 42.5273 191.948 41.0122 192.343 37.1482L193.171 29.0755H199.915L197.974 47.9867H191.232L191.485 45.5229Z" fill="#730053"/>
<path d="M202.17 50.3348C204.356 51.1685 206.669 51.8125 209.473 51.8125C213.307 51.8125 213.548 49.4628 213.944 45.5988C212.026 47.342 210.165 48.1748 207.788 48.1748C203.208 48.1748 200.395 44.4632 200.941 39.1178C201.672 31.9956 206.704 28.6224 213.698 28.6224C216.608 28.6224 219.472 29.0757 222.325 29.6449L220.211 50.2591C219.891 53.3669 218.21 56.9672 211.074 56.9672C208.055 56.9672 205.05 56.513 202.146 55.754L202.17 50.3348ZM215.1 34.3435C214.373 34.1538 213.746 34.0398 213.108 34.0398C210.053 34.0398 208.002 36.0484 207.695 39.0412C207.469 41.2404 208.494 43.021 210.448 43.021C212.506 43.021 214.358 41.5816 214.797 37.2999L215.1 34.3435Z" fill="#730053"/>
<path d="M225.507 29.0755H232.25L230.309 47.9867H223.567L225.507 29.0755ZM226.206 22.2552H232.951L232.492 26.7266H225.746L226.206 22.2552Z" fill="#730053"/>
<path d="M241.231 31.804L241.295 31.8797C243.603 29.4542 245.961 28.6214 248.622 28.6214C252.455 28.6214 255.334 30.3262 254.836 35.1753L253.523 47.985H246.778L247.813 37.9046C247.983 36.2371 247.449 34.5314 245.319 34.5314C243.508 34.5314 241.172 35.8586 240.604 41.3918L239.927 47.9859H233.184L235.124 29.0756H241.513L241.231 31.804Z" fill="#730053"/>
<path d="M258.333 29.0755H265.077L263.136 47.9867H256.393L258.333 29.0755ZM259.033 22.2552H265.778L265.319 26.7266H258.573L259.033 22.2552Z" fill="#730053"/>
</svg>
