<?xml version="1.0" encoding="UTF-8"?>
<svg xmlns="http://www.w3.org/2000/svg" viewBox="0 0 122 24">
<title>Qantas Airways</title>
<desc>Qantas Airways logo</desc>
<metadata xmlns:rdf="http://www.w3.org/1999/02/22-rdf-syntax-ns#" xmlns:Airline="http://schema.org/Airline">
<rdf:RDF>
<Airline:name>Qantas Airways</Airline:name>
<Airline:iataCode>QF</Airline:iataCode>
<Airline:url>https://airlinelogos.aero/QF</Airline:url>
</rdf:RDF>
</metadata>
<defs>
  <style>.cls-1{fill:url(#linear-gradient-1);}.cls-2{fill:#fff;}.cls-3{fill:url(#linear-gradient-2);}.cls-4{fill:url(#linear-gradient-3);}.cls-5{fill:url(#linear-gradient-4);}.cls-6{fill:#323232;}</style>
  <linearGradient id="linear-gradient-1" x1="21.39" y1="23.91" x2="4.98" y2="-0.07" gradientUnits="userSpaceOnUse"><stop offset="0" stop-color="#be0000"/><stop offset="0.39" stop-color="#de0000"/><stop offset="0.77" stop-color="#f60000"/><stop offset="1" stop-color="red"/></linearGradient>
  <linearGradient id="linear-gradient-2" x1="16.86" y1="13.09" x2="17.08" y2="10.56" gradientUnits="userSpaceOnUse"><stop offset="0.65" stop-color="#fff" stop-opacity="0"/><stop offset="0.69" stop-color="#ededed" stop-opacity="0.23"/><stop offset="0.76" stop-color="#d7d7d7" stop-opacity="0.5"/><stop offset="0.81" stop-color="#c6c6c6" stop-opacity="0.72"/><stop offset="0.87" stop-color="#b9b9b9" stop-opacity="0.87"/><stop offset="0.91" stop-color="#b2b2b2" stop-opacity="0.97"/><stop offset="0.95" stop-color="#afafaf"/></linearGradient>
  <linearGradient id="linear-gradient-3" x1="13.61" y1="19.76" x2="24.25" y2="19.76" gradientUnits="userSpaceOnUse"><stop offset="0" stop-color="#fff" stop-opacity="0"/><stop offset="0.07" stop-color="#f3f3f3" stop-opacity="0.15"/><stop offset="0.21" stop-color="#dedede" stop-opacity="0.41"/><stop offset="0.35" stop-color="#cdcdcd" stop-opacity="0.62"/><stop offset="0.49" stop-color="silver" stop-opacity="0.79"/><stop offset="0.63" stop-color="#b7b7b7" stop-opacity="0.91"/><stop offset="0.77" stop-color="#b1b1b1" stop-opacity="0.98"/><stop offset="0.9" stop-color="#afafaf"/></linearGradient>
  <linearGradient id="linear-gradient-4" x1="0.31" y1="8.72" x2="12.21" y2="8.72" gradientUnits="userSpaceOnUse"><stop offset="0.25" stop-color="#fff" stop-opacity="0"/><stop offset="0.36" stop-color="#f7f7f7" stop-opacity="0.11"/><stop offset="0.58" stop-color="#e1e1e1" stop-opacity="0.38"/><stop offset="0.88" stop-color="#bebebe" stop-opacity="0.82"/><stop offset="1" stop-color="#afafaf"/></linearGradient>
</defs>
<g>
  <path class="cls-1" d="M9.15,24H33.76L14,4.19A14.11,14.11,0,0,0,4.13,0H0L.31.81,1.67,4.39Z"/>
  <path class="cls-2" d="M1.67,4.39C4.37,9,11.44,9.48,12.21,16.64a.65.65,0,0,0,.55.57,24.34,24.34,0,0,1,11.49,5.08h0a.09.09,0,0,0,.07,0,.16.16,0,0,0,.09,0,.13.13,0,0,0,0-.18,24.44,24.44,0,0,0-8.58-5.83l-1-.4a1.37,1.37,0,0,1-.85-1.3c.06-2.14,5.11-1.71,5.62-2.73l.09-.18a9.33,9.33,0,0,0-3.64-1.93,1.14,1.14,0,0,0,.23.75c.31.49-.33,1.27-1.24.43L15,10.85C8.14,4.59,3,7.83.31.81Z"/>
  <path class="cls-3" d="M18.1,11.55a2.13,2.13,0,0,1-1.81-1.06.53.53,0,0,1-.47.8V13c.74-.22,1.58-.35,2.28-.5Z"/>
  <path class="cls-4" d="M13.61,17.36a24.41,24.41,0,0,1,10.64,4.93C17.1,16.18,13.84,17.28,13.61,17.36Z"/>
  <path class="cls-5" d="M3.11,4.71h0A8,8,0,0,1,.31.81L1.67,4.39C4.37,9,11.44,9.48,12.21,16.63,11.43,7.5,7.42,8.87,3.11,4.71Z"/>
  <path class="cls-6" d="M36.26,19.59c-4.86,0-7.95-2.53-7.95-5.7s3.27-5.7,8.09-5.7,8.1,2.48,8.1,5.57a4.32,4.32,0,0,1-1.79,3.47h2.86l-.68,1.18a2.15,2.15,0,0,1-2.11,1.18ZM36.4,17c2.66,0,4.89-1.32,4.89-3.12s-2.23-3.12-4.89-3.12-4.89,1.32-4.89,3.12S33.74,17,36.4,17Z"/>
  <path class="cls-6" d="M57.52,17.67H49.86l-1.09,1.92H45.6l5.31-9.2a2.33,2.33,0,0,1,2.22-1.28h1.19a2.34,2.34,0,0,1,2.23,1.28l5.31,9.2H58.62Zm-6.36-2.31h5.06l-2.34-4.18c-.06-.1-.1-.13-.19-.13s-.12,0-.18.13Z"/>
  <path class="cls-6" d="M77,9.11V19.59H74.15l-8.34-6.94v6.94H63V9.11h1.77a2.55,2.55,0,0,1,1.89.68L74.15,16V9.11Z"/>
  <path class="cls-6" d="M87.08,11.47v8.12H84.24V11.47H78.42V9.11H92.9v2.36Z"/>
  <path class="cls-6" d="M102.35,17.67H94.68l-1.09,1.92H90.42l5.31-9.2A2.34,2.34,0,0,1,98,9.11h1.18a2.34,2.34,0,0,1,2.23,1.28l5.31,9.2h-3.24ZM96,15.36h5.07L98.7,11.18c-.06-.1-.1-.13-.18-.13s-.13,0-.19.13Z"/>
  <path class="cls-6" d="M107.66,18.84l-.27-.08.72-2.28a20.74,20.74,0,0,0,6.19.92c3.23,0,4-.38,4-.78,0-.17-.12-.3-.37-.38a37.82,37.82,0,0,0-3.86-.73,21.76,21.76,0,0,1-5.2-1.16,2.36,2.36,0,0,1-1.55-2.21,2.44,2.44,0,0,1,1-1.94A8.73,8.73,0,0,1,113.49,9a30,30,0,0,1,7.44.84l.22.07-.6,2.22a29.17,29.17,0,0,0-6.47-.79,11.66,11.66,0,0,0-3.08.26c-.31.1-.43.24-.43.41s.09.29.4.39a30.24,30.24,0,0,0,3.75.7,25.29,25.29,0,0,1,5,1.05,2.53,2.53,0,0,1,1.86,2.3c0,1.31-1,2.27-2.76,2.8a15.11,15.11,0,0,1-4.14.5A25.31,25.31,0,0,1,107.66,18.84Z"/>
</g>
</svg>
