<?xml version="1.0" encoding="UTF-8"?>
<svg xmlns="http://www.w3.org/2000/svg" viewBox="0 0 642 78">
<title>LASER Airlines</title>
<desc>LASER Airlines logo</desc>
<metadata xmlns:rdf="http://www.w3.org/1999/02/22-rdf-syntax-ns#" xmlns:Airline="http://schema.org/Airline">
<rdf:RDF>
<Airline:name>LASER Airlines</Airline:name>
<Airline:iataCode>QL</Airline:iataCode>
<Airline:url>https://airlinelogos.aero/QL</Airline:url>
</rdf:RDF>
</metadata>
<path fill="#00ae42" d="M256.41,69.38h2.21s-1.02-.23-1.02-.23l-1.87-.37-1.54-.29-2.01-.37c-9.35-1.67-16.98-3.62-16.98-3.62-16.12-4.71-26.34-14.49-29.65-18.25-3.31-3.75-10.16-11.04-10.16-11.04-14.58-16.78-30.04-15.68-30.04-15.68h-5.25c-.96-.03-1.5,0-1.5,0h-8s-44.32,0-44.32,0h-.5s-1.49,0-1.49,0l1.13.28,1.78.37,1.54.29,2.01.37c9.35,1.67,16.98,3.62,16.98,3.62,16.12,4.71,26.34,14.49,29.65,18.25,3.31,3.75,10.16,11.04,10.16,11.04,14.58,16.78,30.04,15.68,30.04,15.68h5.25c.96.03,1.5,0,1.5,0h7.98s43.6-.06,43.6-.06h.51Z"/>
<path fill="#ffda00" d="M208.83,60.01h2.28s-1.06-.23-1.06-.23l-1.93-.38-1.59-.3-2.08-.38c-9.65-1.72-17.52-3.74-17.52-3.74-16.63-4.86-27.18-14.95-30.59-18.82s-10.48-11.39-10.48-11.39c-15.04-17.32-30.99-16.18-30.99-16.18h-5.42c-.99-.03-1.55,0-1.55,0h-8.25s-45.73,0-45.73,0h-.52s-1.54,0-1.54,0l1.17.28,1.83.38,1.59.3,2.08.38c9.65,1.72,17.52,3.74,17.52,3.74,16.63,4.86,27.18,14.95,30.59,18.82,3.42,3.87,10.48,11.39,10.48,11.39,15.04,17.32,30.99,16.18,30.99,16.18h5.42c.99.03,1.55,0,1.55,0h8.24s44.98-.06,44.98-.06h.53Z"/>
<path fill="#00ae42" d="M175.55,69.38h2.21s-1.02-.23-1.02-.23l-1.87-.37-1.54-.29-2.01-.37c-9.35-1.67-16.98-3.62-16.98-3.62-16.12-4.71-26.34-14.49-29.65-18.25-3.31-3.75-10.16-11.04-10.16-11.04-14.58-16.78-30.04-15.68-30.04-15.68h-5.25c-.96-.03-1.5,0-1.5,0h-8s-44.32,0-44.32,0h-.5s-1.49,0-1.49,0l1.13.28,1.78.37,1.54.29,2.01.37c9.35,1.67,16.98,3.62,16.98,3.62,16.12,4.71,26.34,14.49,29.65,18.25,3.31,3.75,10.16,11.04,10.16,11.04,14.58,16.78,30.04,15.68,30.04,15.68h5.25c.96.03,1.5,0,1.5,0h7.98s43.6-.06,43.6-.06h.51Z"/>
<path fill="#616160" d="M258.93,19.45h9.11v32.5h15.95v7.62h-25.06V19.45Z"/>
<path fill="#616160" d="M299.05,49.27l-2.86,10.3h-9.4l12.26-40.12h11.91l12.44,40.12h-9.76l-3.1-10.3h-11.49ZM309.22,42.48l-2.5-8.51c-.71-2.38-1.43-5.36-2.02-7.74h-.12c-.59,2.38-1.19,5.42-1.85,7.74l-2.38,8.51h8.87Z"/>
<path fill="#616160" d="M329.05,50.22c2.44,1.25,6.19,2.5,10.06,2.5,4.17,0,6.37-1.73,6.37-4.35s-1.9-3.93-6.73-5.66c-6.67-2.32-11.01-6.01-11.01-11.84,0-6.84,5.71-12.08,15.18-12.08,4.52,0,7.86.95,10.24,2.02l-2.02,7.32c-1.61-.77-4.46-1.9-8.39-1.9s-5.83,1.79-5.83,3.87c0,2.56,2.26,3.69,7.44,5.65,7.08,2.62,10.42,6.31,10.42,11.96,0,6.73-5.18,12.44-16.19,12.44-4.58,0-9.11-1.19-11.37-2.44l1.85-7.5Z"/>
<path fill="#616160" d="M384.77,42.6h-14.76v9.52h16.49v7.44h-25.59V19.45h24.76v7.44h-15.65v8.33h14.76v7.38Z"/>
<path fill="#616160" d="M392.69,19.99c2.92-.48,7.26-.83,12.08-.83,5.95,0,10.12.89,12.98,3.15,2.38,1.9,3.69,4.7,3.69,8.39,0,5.12-3.63,8.63-7.08,9.88v.18c2.8,1.13,4.35,3.81,5.36,7.5,1.25,4.52,2.5,9.76,3.27,11.31h-9.28c-.65-1.13-1.61-4.41-2.8-9.35-1.07-5-2.8-6.37-6.49-6.43h-2.74v15.77h-8.99V19.99ZM401.67,37.25h3.57c4.52,0,7.2-2.26,7.2-5.77,0-3.69-2.5-5.53-6.67-5.59-2.2,0-3.45.18-4.11.3v11.07Z"/>
<path fill="#616160" d="M447.88,46.13l-4.35,13.44h-5.36l13.63-40.12h6.25l13.69,40.12h-5.54l-4.41-13.44h-13.91ZM460.52,42.08l-3.61-10.73c-.89-2.62-1.49-5-2.08-7.32h-.12c-.59,2.38-1.25,4.82-2.02,7.26l-3.74,10.79h11.58Z"/>
<path fill="#616160" d="M483.11,22.66c.06,1.79-1.25,3.21-3.33,3.21-1.84,0-3.15-1.43-3.15-3.21s1.37-3.27,3.27-3.27,3.21,1.43,3.21,3.27ZM477.28,59.57v-28.81h5.24v28.81h-5.24Z"/>
<path fill="#616160" d="M491.21,39.75c0-3.39-.06-6.31-.24-8.99h4.58l.18,5.65h.24c1.31-3.87,4.46-6.31,7.98-6.31.6,0,1.01.06,1.49.18v4.94c-.54-.12-1.07-.18-1.79-.18-3.69,0-6.31,2.8-7.02,6.73-.12.71-.24,1.55-.24,2.44v15.36h-5.18v-19.82Z"/>
<path fill="#616160" d="M510.91,17.31h5.24v42.26h-5.24V17.31Z"/>
<path fill="#616160" d="M530.79,22.66c.06,1.79-1.25,3.21-3.33,3.21-1.84,0-3.15-1.43-3.15-3.21s1.37-3.27,3.27-3.27,3.21,1.43,3.21,3.27ZM524.96,59.57v-28.81h5.24v28.81h-5.24Z"/>
<path fill="#616160" d="M538.89,38.56c0-2.98-.06-5.42-.24-7.8h4.64l.3,4.76h.12c1.43-2.74,4.76-5.42,9.52-5.42,3.99,0,10.18,2.38,10.18,12.26v17.2h-5.24v-16.61c0-4.64-1.73-8.51-6.67-8.51-3.45,0-6.13,2.44-7.02,5.36-.24.65-.36,1.55-.36,2.44v17.32h-5.24v-21.01Z"/>
<path fill="#616160" d="M574.84,46.12c.12,7.08,4.64,10,9.88,10,3.75,0,6.01-.65,7.98-1.49l.89,3.75c-1.84.83-5,1.79-9.58,1.79-8.87,0-14.17-5.83-14.17-14.52s5.12-15.53,13.51-15.53c9.4,0,11.9,8.27,11.9,13.57,0,1.07-.12,1.9-.18,2.44h-20.24ZM590.2,42.37c.06-3.33-1.37-8.51-7.26-8.51-5.3,0-7.62,4.88-8.04,8.51h15.3Z"/>
<path fill="#616160" d="M601.03,54.21c1.55,1.01,4.29,2.08,6.9,2.08,3.81,0,5.59-1.9,5.59-4.29,0-2.5-1.49-3.87-5.36-5.3-5.18-1.84-7.62-4.7-7.62-8.15,0-4.64,3.75-8.45,9.94-8.45,2.92,0,5.48.83,7.08,1.79l-1.31,3.81c-1.13-.72-3.21-1.67-5.89-1.67-3.1,0-4.82,1.79-4.82,3.93,0,2.38,1.73,3.45,5.48,4.88,5,1.9,7.56,4.41,7.56,8.69,0,5.06-3.93,8.63-10.77,8.63-3.15,0-6.07-.77-8.09-1.96l1.31-3.99Z"/>
</svg>
