<?xml version="1.0" encoding="UTF-8"?>
<svg xmlns="http://www.w3.org/2000/svg" viewBox="0 0 1760 595">
<title>Raya Airways</title>
<desc>Raya Airways logo</desc>
<metadata xmlns:rdf="http://www.w3.org/1999/02/22-rdf-syntax-ns#" xmlns:Airline="http://schema.org/Airline">
<rdf:RDF>
<Airline:name>Raya Airways</Airline:name>
<Airline:iataCode>TH</Airline:iataCode>
<Airline:url>https://airlinelogos.aero/TH</Airline:url>
</rdf:RDF>
</metadata>
<path d="M 268.99 4.25 C 270.84 4.58 272.55 5.94 274.20 6.81 C 347.06 48.59 419.98 90.42 492.87 132.14 C 500.06 136.15 506.60 140.79 511.66 147.38 C 521.02 159.20 526.15 175.80 522.73 190.72 C 519.49 207.67 510.42 222.25 498.50 234.50 C 483.39 249.91 464.88 261.50 446.40 272.41 C 436.25 278.19 425.96 283.89 415.95 289.94 C 414.42 290.85 413.46 290.99 411.88 290.05 C 364.30 262.72 316.67 235.47 269.07 208.17 C 208.48 242.87 147.91 277.62 87.32 312.33 C 81.07 316.15 74.49 319.29 68.41 323.41 C 56.80 331.26 45.80 340.00 35.53 349.54 C 27.48 357.17 20.10 365.04 14.31 374.57 C 14.27 310.71 14.32 246.85 14.28 183.00 C 14.18 174.55 15.95 166.20 19.58 158.57 C 24.17 148.32 32.37 139.68 42.02 134.02 C 114.88 92.26 187.74 50.49 260.60 8.72 C 263.40 7.31 266.03 5.24 268.99 4.25 Z" fill="#ffb814" />
<path d="M 670.77 151.21 C 705.51 151.19 740.26 151.20 775.00 151.20 C 782.68 151.13 790.37 151.40 798.05 151.72 C 818.01 153.18 838.27 155.88 855.89 166.07 C 868.91 173.37 879.53 184.63 885.76 198.22 C 890.99 209.61 893.41 222.56 894.14 235.01 C 895.28 253.00 893.44 272.46 886.21 289.15 C 880.83 301.68 871.75 311.92 860.73 319.83 C 853.44 324.84 845.08 328.51 836.59 330.94 C 853.75 359.93 870.90 388.92 888.06 417.91 C 893.32 427.16 899.19 436.09 904.16 445.49 C 888.76 445.61 873.36 445.49 857.97 445.56 C 844.47 445.78 831.07 438.35 824.46 426.50 C 807.66 397.25 791.08 367.84 774.24 338.61 C 759.64 339.06 744.99 338.71 730.39 338.80 C 730.16 357.53 730.35 376.27 730.29 395.00 C 730.09 403.81 731.21 411.58 728.04 420.06 C 723.04 434.78 708.58 445.25 693.06 445.54 C 685.63 445.55 678.20 445.55 670.77 445.53 C 670.77 347.42 670.77 249.31 670.77 151.21 Z" fill="#031d3e" />
<path d="M 1115.28 151.20 C 1151.35 249.25 1187.22 347.44 1223.20 445.53 C 1157.52 445.53 1091.84 445.59 1026.16 445.50 C 1028.42 438.62 1030.57 431.71 1032.77 424.82 C 1034.85 418.50 1036.09 412.56 1039.88 406.93 C 1046.83 396.47 1058.41 390.30 1070.92 389.85 C 1093.59 389.68 1116.32 389.90 1139.00 389.74 C 1138.12 385.88 1136.63 382.25 1135.36 378.51 C 1120.48 335.09 1105.59 291.62 1090.75 248.19 C 1086.09 234.52 1081.16 220.90 1076.89 207.10 C 1074.80 212.14 1073.25 217.36 1071.40 222.49 C 1054.53 272.33 1037.47 322.20 1020.58 372.04 C 1015.47 387.30 1009.78 402.37 1004.78 417.67 C 1002.15 426.13 996.95 433.64 989.65 438.71 C 983.02 443.25 975.08 445.76 967.03 445.56 C 955.75 445.49 944.48 445.61 933.21 445.50 C 952.26 393.97 970.98 342.29 990.02 290.75 C 995.64 274.67 1001.89 258.81 1007.53 242.73 C 1013.26 227.02 1019.21 211.39 1024.78 195.62 C 1030.23 180.88 1035.79 166.17 1040.94 151.31 C 1065.71 151.05 1090.50 151.27 1115.28 151.20 Z" fill="#031d3e" />
<path d="M 1194.55 151.25 C 1212.04 151.13 1229.53 151.24 1247.02 151.19 C 1256.26 150.96 1265.69 154.23 1272.67 160.33 C 1277.49 164.25 1281.01 170.35 1284.64 175.39 C 1305.00 204.92 1325.43 234.39 1345.78 263.93 C 1348.17 262.43 1349.46 259.27 1351.11 257.00 C 1371.23 227.15 1391.19 197.33 1411.33 167.42 C 1418.37 157.18 1430.59 150.98 1442.99 151.19 C 1459.68 151.26 1476.37 151.09 1493.05 151.28 C 1453.37 206.54 1413.72 261.84 1374.07 317.13 C 1373.10 318.28 1373.27 319.54 1373.20 320.95 C 1373.25 362.47 1373.21 404.00 1373.22 445.51 C 1353.38 445.57 1333.53 445.53 1313.68 445.53 C 1313.69 405.69 1313.68 365.84 1313.69 326.00 C 1313.65 323.52 1313.88 320.94 1313.49 318.49 C 1312.45 316.60 1311.03 314.91 1309.79 313.15 C 1271.42 259.16 1232.89 205.26 1194.55 151.25 Z" fill="#031d3e" />
<path d="M 1585.00 151.20 C 1605.46 151.19 1625.93 151.21 1646.39 151.19 C 1678.02 237.30 1709.61 323.54 1741.13 409.69 C 1745.36 421.64 1750.31 433.40 1754.01 445.51 C 1688.46 445.56 1622.90 445.54 1557.34 445.53 C 1560.41 435.57 1563.47 425.61 1566.71 415.71 C 1569.68 406.90 1575.93 399.34 1584.04 394.79 C 1590.18 391.30 1597.00 389.93 1604.00 389.78 C 1626.10 389.80 1648.21 389.80 1670.30 389.79 C 1649.44 328.97 1628.74 268.10 1607.79 207.32 C 1602.55 221.78 1597.99 236.50 1592.78 250.99 C 1588.60 263.14 1584.70 275.39 1580.39 287.49 C 1565.28 331.84 1550.38 376.37 1534.78 420.55 C 1529.57 435.00 1515.42 445.19 1500.06 445.54 C 1488.17 445.52 1476.27 445.58 1464.37 445.50 C 1499.93 348.37 1535.56 251.25 1571.14 154.12 C 1571.42 153.21 1571.69 152.30 1571.94 151.39 C 1576.30 151.06 1580.64 151.22 1585.00 151.20 Z" fill="#031d3e" />
<path d="M 730.29 197.71 C 745.53 197.70 760.77 197.73 776.00 197.70 C 780.11 197.72 784.19 198.38 788.29 198.60 C 800.46 199.97 813.07 203.08 822.01 212.00 C 829.90 219.67 832.63 230.35 833.43 240.99 C 834.02 251.12 833.11 262.31 828.46 271.49 C 824.51 279.61 817.19 285.56 808.90 288.86 C 797.01 293.73 782.73 294.47 770.03 294.61 C 756.78 294.62 743.53 294.61 730.29 294.61 C 730.28 262.31 730.28 230.01 730.29 197.71 Z" fill="#ffffff" />
<path d="M 523.82 222.17 C 523.96 286.11 523.83 350.07 523.88 414.01 C 523.99 426.37 519.79 438.60 512.37 448.45 C 507.73 454.12 502.27 459.19 495.88 462.84 C 420.22 506.08 344.69 549.60 269.01 592.78 C 193.43 549.51 117.81 506.10 42.23 462.81 C 31.85 456.79 23.28 447.46 18.74 436.31 C 13.23 423.40 12.56 407.96 17.87 394.87 C 24.12 378.74 36.47 365.55 49.04 354.05 C 59.84 344.66 71.42 336.04 83.78 328.80 C 97.20 321.00 110.83 313.50 124.15 305.52 C 172.48 333.14 220.81 360.86 269.06 388.62 C 321.84 358.22 374.76 328.00 427.60 297.68 C 441.69 289.43 456.22 281.69 470.00 272.91 C 490.98 259.23 509.78 243.13 523.82 222.17 Z" fill="#031d3e" />
</svg>
