<?xml version="1.0" encoding="UTF-8"?>
<svg xmlns="http://www.w3.org/2000/svg" viewBox="0 0 35.949001 23.758373">
<title>Air Tahiti Nui</title>
<desc>Air Tahiti Nui logo</desc>
<metadata xmlns:rdf="http://www.w3.org/1999/02/22-rdf-syntax-ns#" xmlns:Airline="http://schema.org/Airline">
<rdf:RDF>
<Airline:name>Air Tahiti Nui</Airline:name>
<Airline:iataCode>TN</Airline:iataCode>
<Airline:url>https://airlinelogos.aero/TN</Airline:url>
</rdf:RDF>
</metadata>
<g transform="translate(-92.126717,-208.79033)">
  <rect style="fill:#2dccd3" width="35.949001" height="23.758373" x="92.126717" y="208.79033" />
  <g transform="translate(2.0000414,-1.4913581)" style="fill:#ffffff">
    <path d="m 96.190627,229.47057 h -0.267758 c -0.01199,0 -0.02152,0.01 -0.02152,0.0219 v 2.72274 c 0,0.012 0.0095,0.0215 0.02152,0.0215 h 0.468489 c 0.01199,0 0.02152,-0.01 0.02152,-0.0215 v -2.52236 c 0,-0.12277 -0.09948,-0.22225 -0.22225,-0.22225" />
    <path d="m 110.12835,229.47057 h -0.26776 c -0.012,0 -0.0215,0.01 -0.0215,0.0219 v 2.72274 c 0,0.012 0.01,0.0215 0.0215,0.0215 h 0.46849 c 0.012,0 0.0215,-0.01 0.0215,-0.0215 v -2.52236 c 0,-0.12277 -0.0995,-0.22225 -0.22225,-0.22225" />
    <path d="m 114.44716,229.47057 h -0.26776 c -0.012,0 -0.0215,0.01 -0.0215,0.0219 v 2.72274 c 0,0.012 0.01,0.0215 0.0215,0.0215 h 0.46849 c 0.012,0 0.0215,-0.01 0.0215,-0.0215 v -2.52236 c 0,-0.12277 -0.0995,-0.22225 -0.22225,-0.22225" />
    <path d="m 123.75386,229.47057 h -0.26776 c -0.012,0 -0.0215,0.01 -0.0215,0.0219 v 2.72274 c 0,0.012 0.01,0.0215 0.0215,0.0215 h 0.46849 c 0.012,0 0.0215,-0.01 0.0215,-0.0215 v -2.52236 c 0,-0.12277 -0.0995,-0.22225 -0.22225,-0.22225" />
    <path d="m 102.15148,229.4004 h 1.14441 c 0.0914,0 0.12524,-0.0441 0.12524,-0.12206 v -0.13406 c 0,-0.012 -0.01,-0.0219 -0.0215,-0.0219 h -2.73438 c -0.012,0 -0.0215,0.01 -0.0215,0.0219 v 0.23425 c 0,0.012 0.01,0.0219 0.0215,0.0219 h 1.09396 v 2.81481 c 0,0.012 0.01,0.0215 0.0219,0.0215 h 0.50377 c 0.012,0 0.0219,-0.01 0.0219,-0.0215 v -2.57845 c 0,-0.0995 -0.0653,-0.20108 -0.15522,-0.23636" />
    <path d="m 93.967104,229.31545 c -0.07585,-0.16757 -0.131586,-0.19297 -0.197203,-0.19297 h -0.09137 c -0.01199,0 -0.02611,0.009 -0.03105,0.0198 l -1.419225,3.07481 c -0.0053,0.0109 3.53e-4,0.0197 0.01235,0.0197 h 0.239183 c 0.01199,0 0.02575,-0.009 0.03104,-0.0197 l 0.444853,-0.98425 h 1.000831 c 0.0822,0 0.130175,-0.0286 0.167216,-0.11007 l 0.05151,-0.11042 0.536222,1.20474 c 0.0049,0.0113 0.01905,0.0197 0.03104,0.0197 h 0.525286 c 0.01199,0 0.01729,-0.008 0.01235,-0.0197 z m -0.896761,1.66405 0.549275,-1.21496 0.540808,1.21496 z" />
    <path d="m 108.83192,229.47057 h -0.46814 c -0.012,0 -0.0219,0.01 -0.0219,0.0219 v 1.20932 h -1.32186 v -1.00894 c 0,-0.12277 -0.0998,-0.22225 -0.2226,-0.22225 h -0.2674 c -0.012,0 -0.0219,0.01 -0.0219,0.0219 v 2.72274 c 0,0.012 0.01,0.0215 0.0219,0.0215 h 0.46813 c 0.012,0 0.0219,-0.01 0.0219,-0.0215 v -1.28199 h 1.32186 v 1.28199 c 0,0.012 0.01,0.0215 0.0219,0.0215 h 0.46814 c 0.012,0 0.0219,-0.01 0.0219,-0.0215 v -2.72274 c 0,-0.012 -0.01,-0.0219 -0.0219,-0.0219" />
    <path d="m 104.67807,229.62717 c -0.0526,-0.11148 -0.0998,-0.15663 -0.17462,-0.15663 h -0.0741 c -0.012,0 -0.0261,0.009 -0.031,0.0197 l -1.24884,2.72697 c -0.005,0.0109 3.6e-4,0.0194 0.0123,0.0194 h 0.21414 c 0.012,0 0.0261,-0.008 0.031,-0.0194 l 0.39547,-0.88265 h 0.8837 c 0.0727,0 0.11183,-0.0325 0.14006,-0.0945 l 0.0473,-0.10266 0.50059,1.07985 c 0.005,0.0109 0.0191,0.0194 0.0307,0.0194 h 0.48578 c 0.012,0 0.0176,-0.008 0.0127,-0.0194 z m -0.77223,1.47602 0.46778,-1.04422 0.48401,1.04422 z" />
    <path d="m 113.46707,229.47057 h -2.42535 c -0.012,0 -0.0219,0.01 -0.0219,0.0219 v 0.18556 c 0,0.012 0.01,0.0215 0.0219,0.0215 h 0.95568 v 2.51566 c 0,0.012 0.01,0.0215 0.0215,0.0215 h 0.46849 c 0.012,0 0.0215,-0.01 0.0215,-0.0215 v -2.3114 c 0,-0.0991 -0.0646,-0.17745 -0.15417,-0.20426 h 1.03435 c 0.0727,0 0.0998,-0.0349 0.0998,-0.0967 v -0.11042 c 0,-0.012 -0.01,-0.0219 -0.0219,-0.0219" />
    <path d="m 122.54789,229.47057 h -0.21414 c -0.012,0 -0.0215,0.01 -0.0215,0.0219 v 1.72544 c 0,0.56762 -0.28539,0.8509 -0.83961,0.8509 -0.63076,0 -0.83679,-0.3549 -0.83679,-0.84667 v -1.52929 c 0,-0.12277 -0.0995,-0.22225 -0.2226,-0.22225 h -0.2674 c -0.012,0 -0.0219,0.01 -0.0219,0.0219 v 1.77977 c 0,0.63464 0.46426,1.03716 1.32292,1.03716 0.70979,0 1.12289,-0.38241 1.12289,-1.04986 v -1.76707 c 0,-0.012 -0.01,-0.0219 -0.0219,-0.0219" />
    <path d="m 100.42019,232.40233 c -0.0145,0 -0.0579,0.005 -0.0949,0.005 -0.7052,0 -1.359603,-0.96026 -1.5561,-1.45239 0.386644,-0.096 0.603956,-0.35242 0.603956,-0.70485 0,-0.49812 -0.38347,-0.77893 -1.051984,-0.77893 h -0.899936 c -0.01199,0 -0.02187,0.01 -0.02187,0.0215 v 2.72274 c 0,0.012 0.0099,0.0219 0.02187,0.0219 h 0.468136 c 0.01199,0 0.02187,-0.01 0.02187,-0.0219 v -1.18957 h 0.3429 c 0.292806,0.69991 0.950384,1.50248 1.764598,1.50248 0.22225,0 0.41769,-0.0607 0.41769,-0.11113 0,-0.008 -0.004,-0.0145 -0.0162,-0.0145 m -2.16888,-1.59808 h -0.340078 v -1.10455 h 0.340078 c 0.404636,0 0.575734,0.22225 0.575734,0.54998 0,0.32808 -0.140053,0.55457 -0.575734,0.55457" />
    <path d="m 119.20691,229.12245 h -0.24659 c -0.012,0 -0.0219,0.01 -0.0219,0.0219 v 2.24543 l -1.80058,-2.0835 c -0.1076,-0.12453 -0.17851,-0.1838 -0.30833,-0.1838 h -0.1337 c -0.012,0 -0.0219,0.01 -0.0219,0.0219 v 3.07058 c 0,0.012 0.01,0.0219 0.0219,0.0219 h 0.24659 c 0.012,0 0.0219,-0.01 0.0219,-0.0219 v -2.29376 l 1.98826,2.29905 c 0.008,0.009 0.024,0.0166 0.036,0.0166 h 0.21978 c 0.0113,0 0.0205,-0.01 0.0205,-0.0219 v -3.07058 c 0,-0.012 -0.01,-0.0219 -0.0219,-0.0219" />
    <path d="m 115.58155,221.18262 c -0.2734,-0.44309 -0.46002,-0.65511 -0.56903,-0.7493 -0.50906,-0.43991 -0.99166,-0.62618 -1.38959,-0.79904 -0.0695,-0.03 -0.15346,-0.0656 -0.32209,-0.13723 -1.01917,-0.43392 -1.80728,-0.50659 -2.31775,-0.53375 h -7e-4 c -0.18662,-0.01 -0.45191,0.0183 -0.56762,0.0346 -0.0596,0.008 -0.13688,0.0187 -0.22825,0.054 -0.0469,0.018 -0.11077,0.0455 -0.18415,0.0854 0.0444,-0.0339 0.11077,-0.0794 0.1972,-0.12135 0.1203,-0.0586 0.20038,-0.079 0.20038,-0.079 0,3.5e-4 0.012,-0.004 0.012,-0.004 7.1e-4,0.002 1.63195,-0.42016 3.23392,-1.32503 0.83961,-0.47449 1.53987,-0.86995 1.48519,-1.29964 -0.0575,-0.45261 -0.93839,-0.83502 -1.67216,-0.77188 -0.2727,0.0236 -0.46885,0.10372 -0.67698,0.18874 -0.51294,0.20955 -0.6403,0.40887 -1.43652,1.02623 -0.71225,0.5521 -0.87453,0.59725 -1.23154,0.98884 -0.23284,0.25506 -0.44909,0.60325 -0.49989,0.65369 -0.0505,0.0508 -0.24624,0.21661 -0.19262,0.30869 0.0226,0.0388 0.1076,0.0328 0.17922,0.11112 0.024,0.0268 0.0723,0.13794 0.11394,0.16933 0.0603,0.0575 0.0903,0.0251 0.10654,0.0815 0.008,0.0286 -0.0152,0.0536 -0.001,0.0935 0.0166,0.0473 0.0205,0.0462 0.0374,0.0924 0.006,0.0173 -0.003,0.0674 -0.0335,0.0928 -0.0335,0.0282 -0.0878,0.004 -0.16157,0.0508 -0.0409,0.0265 -0.0607,0.0632 -0.0617,0.11254 -7.1e-4,0.0328 0.0166,0.0832 0.0741,0.10195 0,0 0.0215,0.004 0.11606,0.025 0.11748,0.0258 0.21167,0.15028 0.23813,0.18803 0.004,0.005 0.006,0.008 0.006,0.009 0.8001,1.17404 3.93171,2.15476 3.93171,2.15476 0.14358,0.0529 1.49401,0.41805 1.80516,-0.0466 0.12206,-0.22402 -0.0942,-0.60078 -0.1905,-0.75671" />
    <path d="m 110.61409,220.64283 c -0.097,-0.2226 -0.15557,-0.2988 -0.21661,-0.35666 -0.0871,-0.0832 -0.14922,-0.10125 -0.23741,-0.19367 -0.007,-0.009 -0.0145,-0.018 -0.0226,-0.0275 -0.0494,-0.0593 -0.0656,-0.0924 -0.14323,-0.17992 -0.0409,-0.0462 -0.0709,-0.0797 -0.0981,-0.10512 -0.0293,-0.03 -0.0543,-0.0501 -0.0836,-0.0649 -0.0734,-0.0363 -0.17604,-0.0529 -0.2734,-0.0286 -0.10125,0.0254 -0.13476,0.0808 -0.20109,0.0607 -0.0462,-0.0141 -0.0473,-0.0445 -0.10371,-0.0829 -0.0854,-0.0579 -0.14288,-0.0423 -0.22225,-0.0702 -0.0991,-0.0353 -0.16934,-0.16898 -0.19297,-0.26388 -0.0307,-0.1217 -0.0318,-0.22225 0.024,-0.33408 0.0265,-0.0522 0.0758,-0.115 0.11571,-0.14675 0.0526,-0.0413 0.13934,-0.0773 0.20284,-0.0928 0.0473,-0.0116 0.0921,-0.0413 0.11713,-0.0833 0.0205,-0.0332 0.0191,-0.0663 0.0374,-0.10724 0.002,-0.005 0.0201,-0.0423 0.0494,-0.0794 0.0494,-0.061 0.0885,-0.0674 0.16051,-0.12594 0.0321,-0.0258 0.0529,-0.0487 0.0949,-0.0942 0.21273,-0.23107 0.47413,-0.7874 0.47413,-0.7874 0.0716,-0.17815 0.18486,-0.45332 0.33585,-0.78352 0.635,-1.38889 0.89041,-1.47426 1.06927,-2.18123 0.0769,-0.30409 0.27728,-1.14546 -0.11783,-1.99813 -0.14781,-0.31962 -0.33726,-0.54927 -0.47554,-0.69391 -0.019,-0.019 -0.0589,-0.0307 -0.0945,-0.0286 0,0 -0.0649,7.1e-4 -0.14323,0.066 -0.69356,0.57679 -1.32962,2.32939 -1.32962,2.32939 -0.40005,1.10102 -0.57996,1.46156 -0.78175,2.27683 -0.10478,0.42333 -0.19509,0.88653 -0.066,1.42134 0.0734,0.30445 0.19967,0.55739 0.19015,0.56621 -0.0586,-0.0836 -0.30128,-0.58737 -0.53693,-1.12818 -0.15134,-0.34749 -0.18486,-0.45226 -0.39441,-0.95885 -0.11818,-0.28575 -0.22754,-0.54928 -0.45649,-1.0728 -0.82268,-1.88172 -1.10843,-2.23943 -1.30951,-2.45851 -0.28434,-0.31044 -0.56762,-0.61101 -0.90594,-0.56656 -0.46319,0.0607 -0.69532,0.72567 -0.72954,0.82303 -0.0384,0.11007 -0.0631,0.21908 -0.0773,0.32597 -0.0762,0.5722 0.15628,1.08338 0.26353,1.31903 0.0332,0.0734 0.0723,0.14535 0.12065,0.22296 0.10583,0.17074 0.25505,0.36795 0.4826,0.66922 0.31644,0.41875 0.87242,1.08938 1.08055,1.30528 0.0258,0.0268 0.11501,0.12135 0.22084,0.26176 0.0265,0.0353 0.0526,0.0737 0.0917,0.13405 0.0674,0.10478 0.14393,0.22543 0.23742,0.35067 0.11923,0.16121 0.26634,0.32984 0.45825,0.48154 0.23425,0.18521 0.47273,0.30586 0.641,0.37853 -0.18803,-0.0709 -0.51012,-0.20003 -1.02376,-0.42581 -0.49636,-0.21801 -1.04916,-0.46108 -1.76389,-0.82479 -0.9278,-0.47202 -1.67746,-0.91863 -2.61726,-1.23613 -0.0265,-0.009 -0.41592,-0.13723 -0.93839,-0.13653 -0.26352,3.5e-4 -0.53869,0.003 -0.71931,0.10407 -0.0624,0.0332 -0.11465,0.0776 -0.15169,0.13723 -0.26035,0.42087 0.13864,1.01671 0.37041,1.3582 0.31009,0.4572 0.67769,0.8576 1.13101,1.17686 0.98954,0.69639 2.20556,1.00718 3.38208,1.20827 1.30351,0.2226 2.24261,0.042 2.24896,0.0402 0.008,-0.002 0.30197,-0.073 0.30056,-0.0797 0,-3.6e-4 0.007,0.0571 -0.0688,0.0797 -0.16545,0.0483 -0.17745,0.0575 -0.25153,0.073 v 0 c -0.25082,0.0526 -0.39652,0.11924 -0.94685,0.37747 -0.22649,0.0924 -0.53623,0.21978 -0.97896,0.40428 -0.97191,0.40499 -0.98355,0.43216 -1.44216,0.69004 -0.8897,0.49988 -1.04634,0.66816 -1.18498,0.77822 -0.3817,0.30339 -1.01071,1.05552 -1.03575,1.60761 -0.006,0.12947 0.0399,0.17745 0.11641,0.24801 0.35807,0.33055 1.13524,0.31185 1.43334,0.29668 1.00153,-0.0512 1.51976,-0.32843 1.9431,-0.57503 0.4318,-0.25117 0.84208,-0.56973 0.91087,-0.62371 0.13829,-0.10759 0.25259,-0.20355 0.58949,-0.50341 0.17604,-0.15663 0.63853,-0.61419 0.8061,-0.78916 0.71049,-0.7419 0.7366,-0.87242 0.84878,-1.02306 0.0116,-0.0159 0.0229,-0.0314 0.0332,-0.0462 0.0392,-0.055 0.0752,-0.11677 0.17921,-0.24624 0.0667,-0.0829 0.127,-0.1838 0.13194,-0.1965 -0.001,0.0138 -0.012,0.13229 -0.0871,0.24342 -0.0229,0.0346 -0.036,0.061 -0.0596,0.0921 -0.0413,0.055 -0.10689,0.17851 -0.16475,0.29528 -0.19262,0.38982 -0.15134,0.61983 -0.12347,0.74048 0.27587,1.18745 0.46955,2.94851 1.53105,4.09398 0.42016,0.45332 0.86466,0.6918 1.30987,0.51118 0.11641,-0.0469 0.29457,-0.79058 0.33126,-1.83903 0.049,-1.397 -0.7366,-2.67512 -1.14195,-3.50591 -0.037,-0.11606 -0.0868,-0.254 -0.15169,-0.40287" />
  </g>
</g>
</svg>
