<?xml version="1.0" encoding="UTF-8"?>
<svg xmlns="http://www.w3.org/2000/svg" viewBox="0 0 71.6 63.2">
<title>Scoot</title>
<desc>Scoot logo</desc>
<metadata xmlns:rdf="http://www.w3.org/1999/02/22-rdf-syntax-ns#" xmlns:Airline="http://schema.org/Airline">
<rdf:RDF>
<Airline:name>Scoot</Airline:name>
<Airline:iataCode>TR</Airline:iataCode>
<Airline:url>https://airlinelogos.aero/TR</Airline:url>
</rdf:RDF>
</metadata>
<path fill="#ffe900" d="M31.6,63.2A31.6,31.6,0,1,0,0,31.6,31.6,31.6,0,0,0,31.6,63.2"/>
<polyline fill="#1d1d1b" points="61.6 30 64.6 29.2 67 39 71.6 37.9 71.5 35.2 70.2 35.5 68.4 28.3 71.6 27.5 70.8 23.9 67.6 24.7 66.6 20.7 63.1 23.1 63.7 25.6 60.7 26.4 61.5 30"/>
<path fill="#1d1d1b" d="M61.1,26.7a7,7,0,0,0-5.1-2,6.89,6.89,0,0,0-7.1,7h0a7.1,7.1,0,0,0,14.2,0,7.21,7.21,0,0,0-1.2-4Zm-2,5A3.18,3.18,0,0,1,55.9,35a3.24,3.24,0,0,1-3.2-3.3h0a3.2,3.2,0,1,1,6.4,0m-10.3,0a7.1,7.1,0,0,0-14.2,0h0a7.1,7.1,0,0,0,14.2,0m-3.9,0A3.18,3.18,0,0,1,41.7,35a3.24,3.24,0,0,1-3.2-3.3h0a3.18,3.18,0,0,1,3.2-3.3,3.24,3.24,0,0,1,3.2,3.3M30.7,30.2h4a7,7,0,0,0-7-5.5,6.87,6.87,0,0,0-6.9,7,7,7,0,0,0,13.9,1.6h-4a3,3,0,0,1-2.8,1.8,3,3,0,0,1-3.1-3.3,3.41,3.41,0,0,1,.9-2.4,2.81,2.81,0,0,1,2.3-.9,2.67,2.67,0,0,1,2.7,1.7M16.6,28.8h3.9c-.3-3.5-3.3-4.1-5.1-4.1-2.7,0-5.1,1.7-5.1,4.5,0,1.8,1.4,2.9,3.1,3.4,2.5,1,3.5,1.1,3.5,2,0,.6-.7,1-1.4,1A1.4,1.4,0,0,1,14,34.4H10.1c.4,3.5,3.4,4.4,5.4,4.4,2.9,0,5.4-1.7,5.4-4.6s-2.4-3.5-4.6-4.1c-1-.3-2-.7-2-1.3,0-.4.3-.9,1.1-.9,1.1-.1,1.2.6,1.2.9"/>
</svg>
