<?xml version="1.0" encoding="UTF-8"?>
<svg xmlns="http://www.w3.org/2000/svg" viewBox="0 0 171.9 100">
<title>Air Transat</title>
<desc>Air Transat logo</desc>
<metadata xmlns:rdf="http://www.w3.org/1999/02/22-rdf-syntax-ns#" xmlns:Airline="http://schema.org/Airline">
<rdf:RDF>
<Airline:name>Air Transat</Airline:name>
<Airline:iataCode>TS</Airline:iataCode>
<Airline:url>https://airlinelogos.aero/TS</Airline:url>
</rdf:RDF>
</metadata>
<line x1="0" y1="3" x2="0" y2="0"/>
<line x1="0" y1="100" x2="0" y2="97"/>
<path fill="#3FBBEF" d="M22.5,46.7c0,0-5.3,15.4-6.3,25.4c3.7-8.8,10.7-21,14.9-26.8C25,40.4,14,35.3,14,35.3
	s8.8-3.8,26.5-4.7c0,0,7.4-14.2,26.4-27.6C55.3,6.7,44.5,16.5,33.4,27.2C19.2,28,3.9,33.7,2.3,34.4C18.6,42.8,22.5,46.7,22.5,46.7"/>
<path fill="#3FBBEF" d="M86.6,35.5c-13.8-5.6-30.9-7-30.9-7s-0.4-4.4,0.9-12.8c-1.6,3.5-4.6,11-5.1,16.6
	c12.4,1,20.9,3.8,20.9,3.8s-12.6,4.8-19.6,10.3c1.3,3.1,4.1,12.1,5.7,19.1c-2.7-2.5-10.9-9.2-16.8-12.7C33.9,55.8,12.2,77.2,0,97.1
	c5.3-5.5,20.7-23,41.7-35.6C46,64,65.9,77.1,65.9,77.1s-4.4-23.2-6-28.5C66.1,44.3,76.7,38.5,86.6,35.5"/>
<path fill="#002855" d="M82.1,56h-0.2h-1.5c0,0-2.9,4.8-3,5.1c-0.3,0-2.1,0.1-2.1,0.1v2.6h1.9v7.7c0,1.7,0.5,3.1,1.3,4
	c0.9,0.9,2.1,1.4,3.6,1.4c0.7,0,1.4,0,2.1-0.1c0.7-0.1,1.3-0.2,1.8-0.4l0.1-0.1v-2.8l-0.3,0.1c-0.3,0.1-0.6,0.2-0.9,0.2
	c-0.3,0.1-0.7,0.1-1.1,0.1c-0.7,0-1.2-0.2-1.4-0.5c-0.2-0.3-0.4-0.9-0.4-1.6v-8h4.2V61h-4.2V56z"/>
<path fill="#002855" d="M164.7,56h-0.2H163c0,0-2.9,4.8-3,5.1c-0.3,0-2.1,0.1-2.1,0.1v2.6h1.9v7.7c0,1.7,0.4,3.1,1.3,4
	c0.9,0.9,2.1,1.4,3.6,1.4c0.7,0,1.4,0,2.1-0.1c0.7-0.1,1.3-0.2,1.8-0.4l0.1-0.1v-2.8l-0.3,0.1c-0.3,0.1-0.6,0.2-0.9,0.2
	c-0.3,0.1-0.7,0.1-1.1,0.1c-0.7,0-1.2-0.2-1.4-0.5c-0.2-0.3-0.4-0.9-0.4-1.6v-8h4.2V61h-4.2V56z"/>
<rect x="113.1" y="61" fill="#002855" width="4.9" height="15.7"/>
<path fill="#002855" d="M118.7,65c0.2-0.1,0.4-0.2,0.6-0.3c0.5-0.2,1.1-0.3,1.7-0.3c0.5,0,0.8,0.1,1.2,0.4
	c0.3,0.2,0.4,0.7,0.4,1.5v10.6h4.9V65.8c0-1.9-0.4-3.2-1.1-4c-0.8-0.8-1.8-1.1-3.1-1.1c-1.1,0-2.1,0.2-2.9,0.6L118.7,65L118.7,65z"/>
<path fill="#002855" d="M140,68.6c-0.7-0.8-1.9-1.5-3.7-2c-1.3-0.4-2.2-0.7-2.6-0.9c-0.3-0.2-0.5-0.5-0.5-0.9
	c0-0.4,0.2-0.6,0.6-0.9c0.5-0.2,1.1-0.4,1.9-0.4c0.7,0,1.4,0.1,2.2,0.2c0.3,0.1,0.6,0.1,0.9,0.2l1.2-2.5l-0.1-0.1
	c-0.6-0.3-1.2-0.5-1.9-0.6c-0.7-0.1-1.5-0.2-2.4-0.2c-2.1,0-3.6,0.4-4.6,1.3c-1,0.9-1.5,2-1.5,3.3c0,1.2,0.3,2.3,0.8,3.1
	c0.5,0.8,1.6,1.4,3.1,1.8c1.9,0.5,2.6,0.9,2.8,1.1c0.3,0.3,0.5,0.6,0.5,1.1c0,0.5-0.2,0.8-0.7,1.1c-0.5,0.3-1.3,0.5-2.3,0.5
	c-0.8,0-1.6-0.1-2.4-0.4c-0.8-0.2-1.4-0.5-1.8-0.7l-0.3-0.1l-0.1,0.1h0V76l0.1,0.1c0.4,0.3,1,0.5,1.9,0.6c0.9,0.2,1.8,0.2,2.8,0.2
	c2.5,0,4.3-0.5,5.4-1.5c1.1-1,1.7-2.2,1.7-3.7C141.1,70.5,140.7,69.4,140,68.6"/>
<path fill="#002855" d="M109.7,62.1c-1-0.9-2.6-1.4-4.7-1.4c-1.3,0-2.4,0.1-3.4,0.3c-0.3,0.1-0.7,0.2-1,0.2L99,64.8
	l0.1,0.1l0.2-0.1c0.6-0.3,1.2-0.5,2-0.7c0.7-0.2,1.6-0.3,2.6-0.3c0.9,0,1.5,0.2,2,0.5c0.4,0.3,0.7,0.7,0.7,1.2v1.1
	c-0.3-0.2-0.6-0.3-1-0.5c-0.6-0.2-1.3-0.3-1.9-0.3c-2.1,0-3.8,0.5-5,1.4c-1.3,1-1.9,2.4-1.9,4.1v0.3c0,1.8,0.5,3.1,1.4,4
	c0.9,0.9,2.4,1.3,4.2,1.3c0.8,0,1.4-0.1,2.1-0.3l1.5-3.3l-0.1-0.1c-0.5,0.3-1,0.5-1.6,0.5c-0.7,0-1.4-0.2-1.8-0.5
	c-0.4-0.3-0.7-0.9-0.7-1.9V71c0-0.9,0.2-1.6,0.7-2c0.4-0.4,1.1-0.6,1.8-0.6c0.8,0,1.5,0.2,1.9,0.7c0.4,0.4,0.6,1.1,0.6,1.9l0,5.8
	h4.7V66.5C111.3,64.5,110.7,63,109.7,62.1"/>
<path fill="#002855" d="M155.4,62.1c-1-0.9-2.6-1.4-4.8-1.4c-1.3,0-2.4,0.1-3.4,0.3c-0.3,0.1-0.7,0.2-1,0.2l-1.6,3.5
	l0.1,0.1l0.2-0.1c0.5-0.3,1.2-0.5,2-0.7c0.7-0.2,1.6-0.3,2.6-0.3c0.9,0,1.5,0.2,2,0.5c0.4,0.3,0.7,0.7,0.7,1.2v1.1
	c-0.3-0.2-0.6-0.3-1-0.5c-0.6-0.2-1.3-0.3-1.9-0.3c-2.1,0-3.8,0.5-5,1.4c-1.3,1-1.9,2.4-1.9,4.1v0.3c0,1.8,0.5,3.1,1.4,4
	c0.9,0.9,2.4,1.3,4.2,1.3c0.8,0,1.5-0.1,2.1-0.3l1.5-3.3l-0.1-0.1c-0.5,0.3-1,0.5-1.6,0.5c-0.7,0-1.4-0.2-1.8-0.5
	c-0.4-0.3-0.7-0.9-0.7-1.9V71c0-0.9,0.2-1.6,0.7-2c0.4-0.4,1.1-0.6,1.8-0.6c0.8,0,1.4,0.2,1.9,0.7c0.4,0.4,0.6,1.1,0.6,1.9l0,5.8
	h4.7V66.5C157,64.5,156.4,63,155.4,62.1"/>
<path fill="#002855" d="M98.9,61.6c-0.7-0.6-1.6-0.9-2.7-0.9c-0.9,0-1.8,0.3-2.5,0.7l-0.1,0.1c-0.5,0.3-0.9,0.8-1.2,1.3
	c0-0.7-0.1-1.8-0.1-1.8h-4.7v15.7h4.9v-9.9c0-1,0.5-1.8,1.4-2.3c0,0,0,0,0,0c0.4-0.2,0.9-0.4,1.4-0.4l0.1,0c0.6,0,1.2,0.2,1.7,0.6
	l0.2,0.2L98.9,61.6L98.9,61.6z"/>
<path fill="#3FBBEF" d="M105,56h-3.9l-1.4-3.5h-6.8L91.5,56h-3.9l6.9-17.6h3.6L105,56z M94.1,49.2h4.4l-2.2-5.8L94.1,49.2z"/>
<path fill="#3FBBEF" d="M108.5,38.1c1.2,0,2.1,0.9,2.1,2.1c0,1.1-0.9,2.1-2.1,2.1c-1.2,0-2.1-0.9-2.1-2.1
	C106.4,39,107.4,38.1,108.5,38.1z M106.7,43.7h3.6V56h-3.6V43.7z"/>
<path fill="#3FBBEF" d="M120.7,47h-0.6c-2,0-3.4,1.3-3.4,3.9V56h-3.6V43.7h3.5v1.1c0.7-0.8,1.8-1.3,3.1-1.3c0.4,0,0.6,0,1,0V47z"/>
</svg>
