<?xml version="1.0" encoding="UTF-8"?>
<svg xmlns="http://www.w3.org/2000/svg" viewBox="0 0 228 76">
<title>Ural Airlines logo</title>
  <path fill="#005ba9" d="m 22.92663,71.45432 c -2.905,0 -6.745,-0.74375 -5.68375,-3.95375 l 2.09125,-6.33 3.48625,0 -1.945,5.8675 c -0.4175,1.27375 0.4975,2.0825 2.82125,2.0825 2.3425,0 3.78125,-0.82 4.20125,-2.0825 l 1.94,-5.8675 3.46375,0 -2.0925,6.33 c -1.04125,3.16375 -5.3075,3.95375 -8.2825,3.95375 m 17.6425,-0.17375 -1.91625,-3.60125 -2.625,0 -1.18875,3.60125 -3.485,0 3.34375,-10.11 9.6625,0 c 2.02875,0 3.4575,0.94625 2.7575,3.0425 -0.59875,1.82125 -2.2125,3.11875 -3.805,3.11875 l -0.63,0 2.45,3.94875 -4.56375,0 z m 2.3,-7.7725 -5.4625,0 -0.60375,1.83625 5.53375,0 c 0.51,0 1.1175,-0.25625 1.355,-0.97375 0.19125,-0.56 -0.16125,-0.8625 -0.8225,-0.8625 m 15.205,7.7725 -0.4575,-1.825 -6.51125,0 -1.67,1.825 -4.27625,0 10.24,-10.18625 3.525,0 3.49125,10.18625 -4.34125,0 z m -1.86375,-7.425 -3.17875,3.45625 4.0625,0 -0.88375,-3.45625 z m 6.925,7.425 3.345,-10.11 3.4775,0 -2.5325,7.6525 8.47,0 -0.81,2.4575 -11.95,0 z m 29.4675,0 -0.46125,-1.825 -6.50875,0 -1.6725,1.825 -4.27625,0 10.2375,-10.18625 3.5325,0 3.48625,10.18625 -4.3375,0 z m -1.8625,-7.425 -3.18375,3.45625 4.06625,0 -0.8825,-3.45625 z m 6.98,7.425 3.34124,-10.11 3.48751,0 -3.35125,10.11 -3.4775,0 z m 14.19499,0 -1.91749,-3.60125 -2.62376,0 -1.1925,3.60125 -3.47999,0 3.34375,-10.11 9.66,0 c 2.03,0 3.45625,0.94625 2.76,3.0425 -0.59875,1.82125 -2.21875,3.11875 -3.805,3.11875 l -0.63375,0 2.445,3.94875 -4.55625,0 z m 2.29751,-7.7725 -5.4625,0 -0.6075,1.83625 5.54,0 c 0.51,0 1.12125,-0.25625 1.35751,-0.97375 0.1825,-0.56 -0.17126,-0.8625 -0.82751,-0.8625 m 3.3125,7.7725 3.3425,-10.11 3.4825,0 -2.53125,7.6525 8.4775,0 -0.82,2.4575 -11.95125,0 z m 13.32625,0 3.34375,-10.11 3.47875,0 -3.34125,10.11 -3.48125,0 z m 18.87626,0.185 -8.63626,-5.645 -1.80124,5.46 -3.45626,0 3.39625,-10.27625 0.4375,0 8.69125,5.5225 1.77125,-5.35625 3.43626,0 -3.40501,10.295 -0.43374,0 z m 1.9375,-0.185 3.34499,-10.11 12.585,0 -0.71124,2.16 -9.10501,0 -0.47,1.41125 9.1075,0 -0.71375,2.16375 -9.1075,0 -0.73124,2.215 9.10249,0 -0.71625,2.16 -12.58499,0 z m 19.93374,0.15 c -2.41375,0 -4.28875,-0.27 -5.73751,-0.73375 l -0.32749,-0.10625 1.515,-2.17125 0.3225,0.10625 c 1.01625,0.32375 2.50125,0.77375 4.95,0.77375 1.9925,0 3.45625,-0.1925 3.73375,-1.03125 0.20375,-0.6175 -0.59625,-0.69125 -2.97125,-0.8675 -4.31375,-0.33375 -6.155,-0.93125 -5.41,-3.2 0.72875,-2.2075 4.53375,-3.16375 8.10375,-3.16375 2.0575,0 4.1825,0.22875 5.41375,0.67625 l 0.325,0.12125 -1.45125,2.2 -0.31625,-0.135 c -1.075,-0.46125 -2.86375,-0.7175 -4.6825,-0.7175 -2.05375,0 -3.37875,0.14875 -3.6,0.8125 -0.165,0.49 0.52,0.6575 2.67,0.8225 4.405,0.3325 6.45875,0.78125 5.68125,3.13625 -0.87375,2.6375 -4.93125,3.4775 -8.21875,3.4775"/>
  <path fill="#85c2eb" d="m 0.17,58.78457 0.1875,-0.5325 c 0.20626,0.0613 0.60375,0.10125 0.8675,-0.11875 l 0.035,-0.03 -1.26,-2.31375 1.2425,0 0.7425,1.67875 1.60375,-1.67875 1.1975,0 -2.67875,2.49625 c -0.41375,0.38 -1.03875,0.5425 -1.265,0.5425 -0.22,0 -0.45,0.004 -0.6725,-0.0437 m 6.505,0 1.06375,-2.995 2.27375,0 c 0.96125,0 1.41375,0.37375 1.205,0.965 -0.0975,0.2725 -0.59375,0.955 -1.92875,0.955 l -1.19625,0 -0.3775,1.075 -1.04,0 z m 3.50625,-2.0575 c 0.10875,-0.295 -0.12,-0.415 -0.7725,-0.415 l -0.81875,0 -0.31125,0.88 0.96125,0 c 0.77875,0 0.89375,-0.3325 0.94125,-0.465 m 3.0825,2.0575 2.83875,-2.995 1.20375,0 0.69375,2.995 -1.1325,0 -0.1025,-0.6175 -1.8375,0 -0.56625,0.6175 -1.0975,0 z m 3.395,-1.13125 -0.2025,-1.18 -0.0113,0 -1.055,1.18 1.26875,0 z m 5.84625,0.185 c -0.23625,0.66875 -0.895,1.02375 -1.98125,1.02375 l 0.19376,-0.54625 c 0.53749,0 0.72249,-0.225 0.815,-0.4775 l 0.73124,-2.04875 3.43,0 -1.06125,2.995 -1.04249,0 0.8775,-2.46125 -1.42126,0 -0.54125,1.515 z m 8.41,-0.96125 c 1.33626,0 1.33876,0.68 1.25125,0.95125 -0.21,0.5875 -0.9275,0.95625 -1.89125,0.95625 l -2.27,0 1.0575,-2.995 1.04125,0 -0.38624,1.0875 1.19749,0 z m -1.69499,1.39 0.82374,0 c 0.65,0 0.96875,-0.12125 1.0675,-0.41125 0.045,-0.13125 0.16375,-0.46375 -0.61375,-0.46375 l -0.96125,0 -0.31624,0.875 z M 37.945,56.25587 c -0.4925,0 -1.29625,0.20625 -1.59625,1.04875 -0.19624,0.53375 -0.004,1.015 0.87126,1.015 0.57749,0 1.04624,-0.195 1.29874,-0.55625 l 1.0425,0 c -0.44375,0.645 -1.305,1.09875 -2.55625,1.09875 -1.32375,0 -2.0825,-0.5375 -1.715,-1.565 0.36375,-1.045 1.56375,-1.575 2.85,-1.575 1.48876,0 1.8675,0.6125 1.77375,1.05625 l -1.04125,0 c -0.025,-0.18 -0.0613,-0.5225 -0.9275,-0.5225 m 4.4775,2.52875 1.06,-2.995 1.0425,0 -0.43125,1.22 2.33,-1.22 1.3425,0 -2.4625,1.23375 1.51875,1.76125 -1.33625,0 -1.07375,-1.31 -0.585,0.3 -0.3675,1.01 -1.0375,0 z m 8.53375,-0.9075 2.71375,-2.0875 1.09875,0 -1.05875,2.995 -0.97,0 0.7525,-2.1275 -0.0113,0 -2.78625,2.1275 -1.03875,0 1.05875,-2.995 0.97125,0 -0.74,2.0875 0.01,0 z m 8.01125,-1.55375 -0.22625,0.63 2.4275,0 -0.18625,0.5275 -2.42625,0 -0.27875,0.77625 2.7625,0 -0.19125,0.5275 -3.7725,0 1.06,-2.995 3.6575,0 -0.185,0.53375 -2.64125,0 z m 8.99,2.46125 2.83625,-2.995 1.19625,0 0.7,2.995 -1.13375,0 -0.1075,-0.6175 -1.835,0 -0.55999,0.6175 -1.09626,0 z m 3.38875,-1.13125 -0.2025,-1.18 -0.0138,0 -1.05375,1.18 1.27,0 z m 7.8475,-1.86375 c 1.21875,0 1.365,0.4625 1.26375,0.77375 -0.1575,0.42875 -0.61,0.54625 -0.83875,0.60875 0.56375,0.1375 0.62125,0.43375 0.51625,0.72375 -0.0863,0.2425 -0.3225,0.46625 -0.64875,0.62 -0.3425,0.16375 -0.65125,0.26875 -1.66625,0.26875 l -2.10875,0 1.05875,-2.995 2.42375,0 z M 78.16,58.26712 c 0.5075,0 0.8475,-0.12875 0.96375,-0.43375 0.0875,-0.2625 -0.24875,-0.365 -0.62875,-0.365 l -1.3225,0 -0.285,0.79875 1.2725,0 z m 0.41125,-1.2975 c 0.41375,0 0.7725,-0.0962 0.85125,-0.34125 0.0888,-0.23625 -0.18,-0.31625 -0.64875,-0.31625 l -1.195,0 -0.22625,0.6575 1.21875,0 z m 5.745,0.9075 2.72375,-2.0875 1.09125,0 -1.05875,2.995 -0.9725,0 0.75625,-2.1275 -0.0125,0 -2.78625,2.1275 -1.04375,0 1.06,-2.995 0.97375,0 -0.74,2.0875 0.009,0 z m 5.73375,0.9075 2.83,-2.995 1.2025,0 0.6925,2.995 -1.12625,0 -0.10625,-0.6175 -1.84,0 -0.5625,0.6175 -1.09,0 z m 3.39,-1.13125 -0.20625,-1.18 -0.007,0 -1.05375,1.18 1.2675,0 z m 5.845,0.185 c -0.2375,0.66875 -0.895,1.02375 -1.98875,1.02375 l 0.1975,-0.54625 c 0.5425,0 0.73,-0.225 0.81375,-0.4775 l 0.7325,-2.04875 3.42875,0 -1.06124,2.995 -1.03876,0 0.87875,-2.46125 -1.42375,0 -0.53874,1.515 z m 6.74751,0.0387 2.71124,-2.0875 1.1,0 -1.0625,2.995 -0.97249,0 0.76124,-2.1275 -0.02,0 -2.785,2.1275 -1.03625,0 1.0575,-2.995 0.96501,0 -0.73625,2.0875 0.0175,0 z m 7.11124,0.9075 -1.03125,0 1.05875,-2.995 1.03875,0 -0.4025,1.1375 1.9425,0 0.3975,-1.1375 1.04125,0 -1.05875,2.995 -1.04,0 0.4675,-1.33625 -1.94,0 -0.47375,1.33625 z m 7.615,-0.9075 2.7125,-2.0875 1.095,0 -1.05375,2.995 -0.97875,0 0.76,-2.1275 -0.0175,0 -2.78125,2.1275 -1.04,0 1.0575,-2.995 0.9675,0 -0.7425,2.0875 0.0213,0 z m 7.35625,0 2.7225,-2.0875 1.08875,0 -1.05875,2.995 -0.97125,0 0.75625,-2.1275 -0.01,0 -2.78625,2.1275 -1.0475,0 1.07,-2.995 0.96625,0 -0.74,2.0875 0.01,0 z"/>
  <path fill="#005ba9" d="m 158.5244,18.23439 c 0,0 -25.36666,12.11164 -23.93165,25.24414 0.34001,3.1175 2.35946,5.62555 5.68945,7.56055 3.1875,-4.605 6.53345,-9.07719 9.96095,-13.33594 -1.90751,-7.9175 8.28125,-19.46875 8.28125,-19.46875 z m -5.85352,23.38672 c -4.09375,3.76625 -7.78852,7.35266 -10.72852,10.28516 5.91999,2.78125 15.01679,4.11914 25.87304,4.11914 9.68626,0 20.77508,-1.06414 32.26758,-3.11914 4.96001,-0.88875 9.99469,-1.96094 15.02344,-3.21094 2.92001,-0.7275 5.83632,-1.51047 8.73633,-2.35547 0,0 -3.98824,0.37746 -10.10937,0.73242 -8.1e-4,5e-5 -0.001,-4e-5 -0.002,0 -4.51348,0.26247 -10.1862,0.51501 -16.2754,0.59375 -1.27499,0.0175 -2.57124,0.0254 -3.875,0.0254 -16.305,0 -34.38516,-1.40156 -40.91016,-7.07031 z"/>
  <path fill="#85c2eb" d="m 198.16111,2e-5 c -7.22251,-0.001 -18.02344,6.86492 -29.49219,17.63867 2.91625,1.42375 5.78049,2.88516 8.57423,4.37891 5.68874,-3.5875 10.92764,-5.9336 14.91015,-5.9336 0.15125,0 0.30047,0.004 0.44921,0.0117 10.53625,0.4825 10.58985,21.37305 10.58985,21.37305 0,0 10.80624,-23.13508 1.15625,-34.76758 C 202.8186,0.85742 200.71235,0 198.16111,0 Z m -32.47852,20.51562 c -5.14875,5.09 -10.38194,10.9075 -15.43944,17.1875 -3.4275,4.25875 -6.7747,8.73219 -9.96095,13.33594 -1.8175,2.62375 -3.58234,5.29063 -5.27734,7.98438 0,0 2.6775,-2.87094 6.9375,-7.11719 2.93874,-2.9325 6.63547,-6.52086 10.73046,-10.28711 6.05125,-5.565 12.97188,-11.5007 19.60938,-16.25195 -2.245,-1.69625 -4.46711,-3.32407 -6.59961,-4.85157 z"/>
  <path fill="#e3001d" d="m 200.08362,52.90644 c 0.68875,1.39625 1.14875,2.7275 1.33625,3.975 1.56875,10.4275 -18.91749,14.53125 -18.91749,14.53125 0,0 26.72499,2.15 35.30999,-7.32375 3.26251,-3.5975 1.9025,-8.6575 -2.70624,-14.3925 -2.435,0.60375 -4.87376,1.16875 -7.30376,1.69 2.43,-0.5225 4.86876,-1.08625 7.30376,-1.69125 -0.43001,-0.535 -0.88751,-1.07625 -1.37376,-1.6225 -1.90375,0.11125 -4.015,0.22125 -6.27625,0.315 2.26125,-0.095 4.37251,-0.20375 6.27625,-0.315 -7.28875,-8.20625 -20.70625,-17.6025 -36.49,-26.055 -0.001,0 -0.001,10e-4 -0.001,10e-4 -2.79125,-1.49375 -5.655,-2.95875 -8.5725,-4.38125 l 0,0 c -6.6475,-3.24125 -13.5725,-6.27125 -20.5275,-8.9425 0,0 7.85875,4.8825 17.54125,11.82 l 0,-10e-4 c 2.1325,1.52875 4.35375,3.15625 6.6,4.8525 0,0 -0.001,0 -0.001,0 9.64499,7.285 19.73499,15.85 25.17374,23.3 l 0.003,0 c 1.0675,1.4625 1.955,2.88125 2.625,4.24 l 0.001,0 z M 175.94237,22.85519 c -1.02625,0.67125 -2.06375,1.38125 -3.11,2.12 1.04625,-0.73875 2.08375,-1.44875 3.11,-2.12"/>
</svg>
