<?xml version="1.0" encoding="UTF-8"?>
<svg xmlns="http://www.w3.org/2000/svg" viewBox="0 0 136 20">
<title>Bahamasair</title>
<desc>Bahamasair logo</desc>
<metadata xmlns:rdf="http://www.w3.org/1999/02/22-rdf-syntax-ns#" xmlns:Airline="http://schema.org/Airline">
<rdf:RDF>
<Airline:name>Bahamasair</Airline:name>
<Airline:iataCode>UP</Airline:iataCode>
<Airline:url>https://airlinelogos.aero/UP</Airline:url>
</rdf:RDF>
</metadata>
<path fill-rule="evenodd" clip-rule="evenodd" d="M120.83 5.4275H117.42V6.93162C116.81 6.31327 116.146 5.8495 115.427 5.54031C114.709 5.23115 113.94 5.07655 113.121 5.07654C111.341 5.07655 109.829 5.74923 108.584 7.09457C107.339 8.43992 106.716 10.1655 106.716 12.2712C106.716 14.3018 107.359 16.0002 108.646 17.3664C109.933 18.7327 111.458 19.4158 113.221 19.4158C114.007 19.4158 114.736 19.2758 115.409 18.9959C116.081 18.716 116.752 18.2585 117.42 17.6234V19.0648H120.83V5.4275ZM111.178 9.35701C111.88 8.60914 112.762 8.2352 113.823 8.23519C114.909 8.2352 115.808 8.60287 116.518 9.3382C117.228 10.0736 117.583 11.0345 117.583 12.2211C117.583 13.4328 117.228 14.4125 116.518 15.1604C115.808 15.9083 114.913 16.2822 113.836 16.2822C112.791 16.2822 111.912 15.902 111.197 15.1416C110.483 14.3812 110.125 13.4119 110.125 12.2336C110.125 11.0638 110.476 10.1049 111.178 9.35701ZM123.174 5.4275H126.609V19.0648H123.174V5.4275ZM131.602 5.4275H128.669V19.0648H132.066V13.5497L132.053 12.8854C132.053 10.9802 132.235 9.70171 132.598 9.04992C132.962 8.39814 133.407 8.07225 133.933 8.07224C134.192 8.07225 134.522 8.17253 134.924 8.37307L135.989 5.4275C135.504 5.19354 135.041 5.07655 134.598 5.07654C133.971 5.07655 133.394 5.25204 132.868 5.60298C132.341 5.95396 131.919 6.46786 131.602 7.1447V5.4275Z" fill="#FBB040"/>
<path fill-rule="evenodd" clip-rule="evenodd" d="M3.49177 0.163086V6.93161C4.11012 6.31327 4.77862 5.8495 5.49726 5.54031C6.21589 5.23114 6.98466 5.07655 7.80358 5.07654C9.58343 5.07655 11.0959 5.74922 12.341 7.09456C13.5861 8.43992 14.2086 10.1655 14.2086 12.2712C14.2086 14.3018 13.5652 16.0002 12.2783 17.3664C10.9915 18.7327 9.46645 19.4158 7.7033 19.4158C6.91781 19.4158 6.18664 19.2758 5.50979 18.9959C4.83294 18.716 4.16026 18.2585 3.49177 17.6234V19.0648H0.0949707V0.163086H3.49177ZM7.08912 8.23519C6.01116 8.2352 5.11705 8.60287 4.40678 9.3382C3.6965 10.0736 3.34136 11.0345 3.34136 12.2211C3.34136 13.4328 3.6965 14.4125 4.40678 15.1604C5.11705 15.9083 6.01116 16.2822 7.08912 16.2822C8.13363 16.2822 9.01313 15.902 9.72759 15.1416C10.442 14.3812 10.7993 13.4119 10.7993 12.2336C10.7993 11.0638 10.4483 10.1049 9.74639 9.357C9.04447 8.60914 8.1587 8.2352 7.08912 8.23519ZM28.8047 5.4275H25.3953V6.93161C24.7853 6.31327 24.121 5.8495 23.4024 5.54031C22.6837 5.23114 21.915 5.07655 21.0961 5.07654C19.3162 5.07655 17.8037 5.74922 16.5586 7.09456C15.3136 8.43992 14.691 10.1655 14.691 12.2712C14.691 14.3018 15.3345 16.0002 16.6213 17.3664C17.9082 18.7327 19.4332 19.4158 21.1963 19.4158C21.9818 19.4158 22.7109 19.2758 23.3836 18.9959C24.0562 18.716 24.7268 18.2585 25.3953 17.6234V19.0648H28.8047V5.4275ZM21.798 8.23519C20.7367 8.2352 19.8552 8.60914 19.1532 9.357C18.4513 10.1049 18.1004 11.0638 18.1004 12.2336C18.1004 13.4119 18.4576 14.3812 19.172 15.1416C19.8865 15.902 20.766 16.2822 21.8105 16.2822C22.8885 16.2822 23.7826 15.9083 24.4929 15.1604C25.2031 14.4125 25.5583 13.4328 25.5583 12.2211C25.5583 11.0345 25.2031 10.0736 24.4929 9.3382C23.7826 8.60287 22.8843 8.2352 21.798 8.23519ZM33.9498 0.163086H30.553V19.0648H33.9498V13.5873C33.9498 12.125 34 11.1891 34.1003 10.7797C34.2924 9.98582 34.6371 9.35911 35.1343 8.89951C35.6315 8.43992 36.2269 8.21013 36.9205 8.21011C37.4553 8.21013 37.9044 8.348 38.2679 8.62375C38.6314 8.89951 38.8884 9.31733 39.0388 9.87718C39.1892 10.4371 39.2644 11.5066 39.2644 13.086V19.0648H42.6361V10.0527C42.6361 8.4817 42.2392 7.29095 41.4454 6.48038C40.5178 5.5445 39.3772 5.07655 38.0235 5.07654C37.3299 5.07655 36.6447 5.2207 35.9679 5.50897C35.291 5.79727 34.6183 6.22971 33.9498 6.80627V0.163086ZM54.5328 5.4275H57.9422V19.0648H54.5328V17.6234C53.8643 18.2585 53.1938 18.716 52.5211 18.9959C51.8484 19.2758 51.1193 19.4158 50.3338 19.4158C48.5707 19.4158 47.0457 18.7327 45.7588 17.3664C44.472 16.0002 43.8285 14.3018 43.8285 12.2712C43.8285 10.1655 44.4511 8.43992 45.6962 7.09456C46.9412 5.74922 48.4537 5.07655 50.2336 5.07654C51.0525 5.07655 51.8213 5.23114 52.5399 5.54031C53.2585 5.8495 53.9228 6.31327 54.5328 6.93161V5.4275ZM48.2908 9.357C48.9927 8.60914 49.8743 8.2352 50.9355 8.23519C52.0218 8.2352 52.9201 8.60287 53.6304 9.3382C54.3406 10.0736 54.6958 11.0345 54.6958 12.2211C54.6958 13.4328 54.3406 14.4125 53.6304 15.1604C52.9201 15.9083 52.026 16.2822 50.948 16.2822C49.9035 16.2822 49.024 15.902 48.3096 15.1416C47.5951 14.3812 47.2379 13.4119 47.2379 12.2336C47.2379 11.0638 47.5888 10.1049 48.2908 9.357ZM59.653 5.4275H63.0874V6.99428C63.6723 6.35087 64.322 5.87039 65.0365 5.55284C65.7509 5.23532 66.5301 5.07655 67.3741 5.07654C68.2264 5.07655 68.9952 5.28546 69.6804 5.70325C70.3656 6.12108 70.9171 6.73108 71.3349 7.53326C71.8781 6.73108 72.5445 6.12108 73.3342 5.70325C74.1238 5.28546 74.9866 5.07655 75.9225 5.07654C76.8918 5.07655 77.7441 5.30217 78.4795 5.75339C79.2148 6.20464 79.7434 6.79375 80.0651 7.52073C80.3868 8.24773 80.5476 9.43013 80.5477 11.0679V19.0648H77.1007V12.1459C77.1007 10.6 76.9085 9.55339 76.5242 9.00605C76.1397 8.45872 75.5632 8.18506 74.7944 8.18504C74.2095 8.18506 73.6851 8.35218 73.2214 8.68642C72.7576 9.02068 72.4129 9.48236 72.1873 10.0715C71.9616 10.6606 71.8488 11.6069 71.8488 12.9105V19.0648H68.4019V12.4592C68.4019 11.2393 68.3121 10.3556 68.1324 9.80824C67.9528 9.26092 67.6833 8.85355 67.324 8.58614C66.9646 8.31876 66.5301 8.18506 66.0204 8.18504C65.4522 8.18506 64.9362 8.35427 64.4724 8.69269C64.0086 9.03112 63.6619 9.50534 63.4321 10.1153C63.2023 10.7253 63.0874 11.6863 63.0874 12.9982V19.0648H59.653V5.4275ZM95.8036 5.4275H92.3943V6.93161C91.7842 6.31327 91.1199 5.8495 90.4013 5.54031C89.6827 5.23114 88.9139 5.07655 88.095 5.07654C86.3151 5.07655 84.8026 5.74922 83.5576 7.09456C82.3125 8.43992 81.6899 10.1655 81.6899 12.2712C81.6899 14.3018 82.3334 16.0002 83.6202 17.3664C84.9071 18.7327 86.4321 19.4158 88.1953 19.4158C88.9807 19.4158 89.7098 19.2758 90.3825 18.9959C91.0552 18.716 91.7257 18.2585 92.3943 17.6234V19.0648H95.8036V5.4275ZM88.7969 8.23519C87.7357 8.2352 86.8541 8.60914 86.1522 9.357C85.4502 10.1049 85.0993 11.0638 85.0993 12.2336C85.0993 13.4119 85.4565 14.3812 86.171 15.1416C86.8854 15.902 87.7649 16.2822 88.8094 16.2822C89.8874 16.2822 90.7815 15.9083 91.4918 15.1604C92.202 14.4125 92.5572 13.4328 92.5572 12.2211C92.5572 11.0345 92.202 10.0736 91.4918 9.3382C90.7815 8.60287 89.8832 8.2352 88.7969 8.23519ZM103.769 9.45102L105.887 7.33271C105.344 6.60574 104.682 6.04796 103.901 5.65938C103.119 5.27084 102.286 5.07655 101.4 5.07654C100.105 5.07655 99.0415 5.45885 98.21 6.22343C97.3786 6.98803 96.9629 7.90931 96.9629 8.98725C96.9629 10.6585 98.0659 12.0498 100.272 13.1612L101.425 13.7378C102.419 14.2391 102.917 14.753 102.917 15.2795C102.917 15.5636 102.779 15.8143 102.503 16.0315C102.227 16.2488 101.864 16.3574 101.413 16.3574C100.995 16.3574 100.516 16.2133 99.9774 15.925C99.4384 15.6367 98.9683 15.2586 98.5672 14.7906L96.4615 17.0844C97.6481 18.6387 99.2357 19.4158 101.225 19.4158C102.72 19.4158 103.913 19.0105 104.803 18.2C105.693 17.3894 106.138 16.3783 106.138 15.1667C106.138 14.2558 105.891 13.462 105.398 12.7851C104.905 12.1083 103.999 11.444 102.678 10.7922L101.425 10.1655C100.882 9.89808 100.541 9.68708 100.404 9.53249C100.266 9.37791 100.197 9.2087 100.197 9.02485C100.197 8.78253 100.305 8.57989 100.523 8.41693C100.74 8.254 101.041 8.17252 101.425 8.17251C102.127 8.17252 102.908 8.59869 103.769 9.45102Z" fill="#0399D7"/>
</svg>
