<?xml version="1.0" encoding="UTF-8"?>
<svg xmlns="http://www.w3.org/2000/svg" viewBox="0 0 78 16">
<title>Air Europa</title>
<desc>Air Europa logo</desc>
<metadata xmlns:rdf="http://www.w3.org/1999/02/22-rdf-syntax-ns#" xmlns:Airline="http://schema.org/Airline">
<rdf:RDF>
<Airline:name>Air Europa</Airline:name>
<Airline:iataCode>UX</Airline:iataCode>
<Airline:url>https://airlinelogos.aero/UX</Airline:url>
</rdf:RDF>
</metadata>
<g transform="translate(-582.000000, -141.000000)" fill="#0072CE">
	<g transform="translate(156.000000, 137.000000)">
		<g transform="translate(424.000000, 2.000000)">
			<path d="M30.58,5.22 L27.48,5.22 L25.24,14.12 L27.38,14.12 L27.78,12.42 L30.16,12.42 L30.58,14.12 L32.94,14.12 L30.58,5.22 Z M28,10.8 L28.84,7.02 L28.96,7.02 L29.82,10.8 L28,10.8 Z"/>
			<path d="M34.76,6.7 C34.467258,6.71295236 34.1807701,6.61268159 33.96,6.42 C33.7541252,6.22242271 33.6445876,5.94492751 33.66,5.66 C33.6550543,5.37449543 33.7801531,5.10222147 34,4.92 C34.2207701,4.72731841 34.507258,4.62704764 34.8,4.64 C35.0742927,4.62996683 35.3410537,4.7309034 35.54,4.92 C35.7450045,5.10982503 35.8549431,5.38100704 35.84,5.66 C35.8554124,5.94492751 35.7458748,6.22242271 35.54,6.42 C35.3410537,6.6090966 35.0742927,6.71003317 34.8,6.7"/>
			<polygon points="42.26 14.12 42.26 5.22 47.36 5.22 47.36 6.82 44.34 6.82 44.34 8.82 47.1 8.82 47.1 10.4 44.34 10.4 44.34 12.5 47.4 12.5 47.4 14.12"/>
			<rect x="33.78" y="7.3" width="1.94" height="6.8"/>
			<path d="M55.78,14.12 L55.78,7.3 L57.12,7.3 L57.38,8.44 L57.38,8.44 C57.5155813,8.02635276 57.7824155,7.66823313 58.14,7.42 C58.5534529,7.1693816 59.0436947,7.07701721 59.52,7.16 L59.52,9.16 L57.66,9.38 L57.66,14.12 L55.78,14.12 Z"/>
			<path d="M37.26,14.12 L37.26,7.3 L38.58,7.3 L38.84,8.44 L38.84,8.44 C38.9703103,8.02914279 39.2298658,7.67137715 39.58,7.42 C40.0106158,7.17608269 40.510896,7.08448209 41,7.16 L41,9.16 L39.14,9.34 L39.14,14.14 L37.26,14.12 Z"/>
			<path d="M65.5,8.14 C64.9260851,7.47530113 64.0769494,7.11349548 63.2,7.16 C62.3172485,7.11330547 61.4619508,7.47459498 60.88,8.14 C60.2826548,8.864356 59.9697975,9.78159672 60,10.72 C59.9646772,11.6402405 60.2629846,12.5422651 60.84,13.26 C61.4219508,13.925405 62.2772485,14.2866945 63.16,14.24 C64.0369494,14.2865045 64.8860851,13.9246989 65.46,13.26 C66.0370154,12.5422651 66.3353228,11.6402405 66.3,10.72 C66.3414445,9.7866848 66.0429923,8.87001019 65.46,8.14 M64,12 C63.8254829,12.3203196 63.4845041,12.5140576 63.12,12.5 C62.7769496,12.4918638 62.4643281,12.3012408 62.3,12 C62.0828103,11.6095734 61.9789118,11.166273 62,10.72 C61.9650444,10.2318927 62.0764596,9.74445104 62.32,9.32 C62.4977042,8.99295433 62.8484382,8.7981021 63.22,8.82 C63.5845041,8.80594244 63.9254829,8.99968041 64.1,9.32 C64.3270532,9.75012223 64.4308716,10.2346082 64.4,10.72 C64.3818234,11.174466 64.2438283,11.6160502 64,12"/>
			<path d="M72.62,8 C72.1794489,7.44903542 71.5050916,7.13779361 70.8,7.16 C70.090108,7.14739119 69.4363029,7.54434429 69.12,8.18 L69.12,8.18 L68.92,7.3 L67.42,7.3 L67.42,16.32 L69.42,16.32 L69.42,13.84 C69.5941718,13.9884265 69.7896961,14.1097864 70,14.2 L70.66,14.2 C71.3792327,14.2144801 72.0651542,13.8973336 72.52,13.34 C73.0830108,12.5203108 73.3445186,11.530822 73.26,10.54 C73.3228898,9.64675651 73.0986471,8.75679326 72.62,8 M71,12.16 C70.8392667,12.415125 70.5614501,12.5728046 70.26,12.58 C70.1005802,12.5992696 69.9394198,12.5992696 69.78,12.58 C69.6043451,12.5165451 69.4416977,12.4216674 69.3,12.3 L69.3,9.3 C69.4403523,9.16645487 69.6027459,9.05819241 69.78,8.98 C69.9534824,8.91796011 70.1358059,8.8841965 70.32,8.88 C70.6274989,8.86395966 70.9191282,9.01744879 71.08,9.28 C71.2714524,9.69936466 71.354,10.1602558 71.32,10.62 C71.3762243,11.1541276 71.2643575,11.6924868 71,12.16"/>
			<path d="M79.02,7.76 C78.3905564,7.30138536 77.6154683,7.08805836 76.84,7.16 C76.4436687,7.16092914 76.0484046,7.20112549 75.66,7.28 C75.2170382,7.37104029 74.7822577,7.49812998 74.36,7.66 L74.68,9.04 C75.0148866,8.92895008 75.3553516,8.83548912 75.7,8.76 C75.9722439,8.7254867 76.2477561,8.7254867 76.52,8.76 C76.8576888,8.73221221 77.1951159,8.81656898 77.48,9 C77.6551253,9.14878248 77.7511939,9.37047924 77.74,9.6 L77.74,10 L77.12,10 C76.3047311,9.93476772 75.4920254,10.1538449 74.82,10.62 C74.2824483,11.0307496 73.9889807,11.6854082 74.04,12.36 C74.031558,12.8985145 74.2406639,13.4176739 74.62,13.8 C75.0250152,14.1926797 75.5770303,14.3960537 76.14,14.36 C76.5041278,14.3243327 76.8541525,14.2007946 77.16,14 C77.4889701,13.8152151 77.7752139,13.5630479 78,13.26 L78,13.26 L78.22,14.12 L79.64,14.12 L79.64,9.8 C79.7045302,9.07092284 79.4657911,8.34747113 78.98,7.8 L79.02,7.76 Z M77.7,12.28 C77.5510063,12.4283757 77.3828511,12.5561736 77.2,12.66 C77.0171479,12.7641915 76.8104525,12.8193103 76.6,12.82 C76.4096711,12.8312157 76.2226641,12.7664825 76.08,12.64 C75.9854891,12.4767732 75.9568735,12.2836176 76,12.1 C75.9825285,11.8184661 76.1310668,11.5526607 76.38,11.42 C76.7086378,11.2570289 77.0736509,11.1812715 77.44,11.2 L77.8,11.2 L77.7,12.28 Z"/>
			<path d="M50.66,14.26 C50.0879553,14.2803704 49.5345985,14.0546591 49.14,13.64 C48.7227537,13.0605051 48.5243463,12.3519069 48.58,11.64 L48.58,7.3 L50.58,7.3 L50.58,11.3 C50.558176,11.6601651 50.6341946,12.0195258 50.8,12.34 C50.9529956,12.5499056 51.2004419,12.6698795 51.46,12.66 C51.8553395,12.6383928 52.196862,12.3762941 52.32,12 L52.32,7.3 L54.32,7.3 L54.32,14.12 L52.84,14.12 L52.64,13.22 L52.64,13.22 C52.3996299,13.5523591 52.0932359,13.8315181 51.74,14.04 C51.4337478,14.1852681 51.0989588,14.2604248 50.76,14.26"/>
			<path d="M16.96,9.18 L15.44,10.2 L15.44,11.86 L20.96,8.4 C21.6408208,8.01245951 22.2280356,7.47986931 22.68,6.84 C22.9830381,6.37526081 23.149362,5.83470845 23.16,5.28 C23.235952,4.32932607 22.8396286,3.402079 22.1,2.8 C21.1725694,2.20595176 20.0788504,1.925511 18.98,2 C18.0572864,2.01580868 17.1466834,2.21287947 16.3,2.58 C15.4602282,2.92317282 14.6830562,3.40299201 14,4 C13.537513,3.39083455 12.9513357,2.88644941 12.28,2.52 C11.5822613,2.14034552 10.7933537,1.96041923 10,2 C7.73783588,2.02300994 5.62455079,3.1317405 4.32,4.98 C2.8264896,6.81782419 2.00769715,9.11185477 2,11.48 C1.86886964,12.9902798 2.25690865,14.5001043 3.1,15.76 C3.81289478,16.6172444 4.88622861,17.0909917 6,17.04 C6.83675555,17.01865 7.65760032,16.8065985 8.4,16.42 C9.37944583,15.9057817 10.2928019,15.2744915 11.12,14.54 C11.4404267,15.375874 12.0319802,16.0801043 12.8,16.54 C13.6141601,16.9626094 14.523156,17.1691994 15.44,17.14 C16.8663123,17.149142 18.2615704,16.7235883 19.44,15.92 C20.5378318,15.1688235 21.5804953,14.3400397 22.56,13.44 L21.8,12.28 L20.36,13.34 C19.7752607,13.7632595 19.1526057,14.1314963 18.5,14.44 C17.8824325,14.7654488 17.1978768,14.9434333 16.5,14.96 C15.673671,15.0506253 14.8774358,14.6206583 14.5,13.88 C14.067488,13.0120547 13.8611106,12.0489599 13.9,11.08 C13.8484619,9.24615953 14.3201895,7.43555809 15.26,5.86 C15.8104867,4.58258748 17.0149268,3.70802587 18.4,3.58 C18.8826351,3.48907325 19.3786476,3.6468954 19.72,4 C19.9414653,4.36623236 20.0396069,4.79384944 20,5.22 C20.0424082,5.93659729 19.8298622,6.64508384 19.4,7.22 C18.6635349,7.99136259 17.8298766,8.66366767 16.92,9.22 M11.66,6 C11.567101,6.42293636 11.4400169,6.83763204 11.28,7.24 C10.9804184,7.99006909 10.75273,8.76688821 10.6,9.56 C10.4540647,10.156136 10.3735888,10.7664117 10.36,11.38 C10.36,11.82 10.36,12.16 10.36,12.42 C10.346495,12.6331196 10.346495,12.8468804 10.36,13.06 L8.36,14.2 C8.16831863,14.3158375 7.96767883,14.4161574 7.76,14.5 C7.56958208,14.5782263 7.36585742,14.6189712 7.16,14.62 C6.60354091,14.5018761 6.15751938,14.0866147 6,13.54 C5.64146983,12.7491068 5.46382516,11.8882133 5.48,11.02 C5.39416694,9.10390495 5.94246962,7.21296365 7.04,5.64 C7.76175214,4.47934543 8.99657439,3.73547661 10.36,3.64 C10.7805995,3.59697115 11.1984977,3.7436021 11.5,4.04 C11.7504814,4.33466816 11.879221,4.71373478 11.86,5.1 C11.828245,5.40670587 11.7611327,5.7087114 11.66,6"/>
		</g>
	</g>
</g>
</svg>
