<?xml version="1.0" encoding="UTF-8"?>
<svg xmlns="http://www.w3.org/2000/svg" viewBox="0 0 503.42 258.9">
<title>VivaAerobús logo</title>
<circle fill="#ffffff" cx="88.3" cy="230.87" r="27.11"/>
<path fill="#e0040b" d="M210.37,205a22.43,22.43,0,0,1,8.49,1.42,14.59,14.59,0,0,1,5.64,3.93,15.56,15.56,0,0,1,3.15,5.94,27.25,27.25,0,0,1,1,7.46v32a28.47,28.47,0,0,1-2.85.64c-1.24.23-2.68.47-4.32.74s-3.45.47-5.45.63-4,.25-6.13.25a29.64,29.64,0,0,1-7.41-.88,16.41,16.41,0,0,1-5.89-2.8,13.22,13.22,0,0,1-3.93-4.91,16.93,16.93,0,0,1-1.42-7.31,14.79,14.79,0,0,1,1.57-7.07,13.26,13.26,0,0,1,4.41-4.86,19.79,19.79,0,0,1,6.78-2.8,38.76,38.76,0,0,1,8.54-.88c.91,0,1.88.05,2.89.14s2,.23,3,.4,1.77.32,2.45.49a7.55,7.55,0,0,1,1.43.44v-3.14a33.49,33.49,0,0,0-.4-5.16,11.32,11.32,0,0,0-1.71-4.51,9.63,9.63,0,0,0-3.73-3.24,14,14,0,0,0-6.34-1.23,32.34,32.34,0,0,0-8.34.79c-1.83.52-3.18,1-4,1.27l-.88-5.59a23.35,23.35,0,0,1,5.16-1.47A43.86,43.86,0,0,1,210.37,205Zm.59,47.32c2.48,0,4.66-.09,6.53-.25a44.33,44.33,0,0,0,4.76-.64V233.6a19.27,19.27,0,0,0-3.44-1,31.08,31.08,0,0,0-6.48-.54,36.71,36.71,0,0,0-4.91.35,14.25,14.25,0,0,0-4.71,1.47,9.67,9.67,0,0,0-3.53,3.09,8.9,8.9,0,0,0-1.38,5.21,11.06,11.06,0,0,0,.94,4.81,7.74,7.74,0,0,0,2.65,3.14,11.57,11.57,0,0,0,4.12,1.71A24.32,24.32,0,0,0,211,252.35Z"/>
<path fill="#e0040b" d="M237.23,231.53a32.36,32.36,0,0,1,1.91-11.63,25.7,25.7,0,0,1,5-8.29,19.65,19.65,0,0,1,7.07-5,21.51,21.51,0,0,1,8.19-1.62q9.33,0,14.88,6.09t5.54,18.74c0,.53,0,1-.05,1.58s-.08,1-.14,1.47H244q.3,9.33,4.62,14.33t13.74,5a27.84,27.84,0,0,0,8.24-1A36.85,36.85,0,0,0,275,249.6l1.18,5.49a26,26,0,0,1-5.15,1.87,32.58,32.58,0,0,1-8.89,1.08,29.71,29.71,0,0,1-11.38-2,20.42,20.42,0,0,1-7.76-5.5,21.83,21.83,0,0,1-4.42-8.4A38.85,38.85,0,0,1,237.23,231.53Zm36-4q-.21-7.95-3.74-12.37t-10-4.42a13.27,13.27,0,0,0-6.13,1.38,15.58,15.58,0,0,0-4.72,3.68,17.28,17.28,0,0,0-3.14,5.35,22,22,0,0,0-1.32,6.38Z"/>
<path fill="#e0040b" d="M305.14,205.23a34,34,0,0,1,5.94.49,17.59,17.59,0,0,1,3.88,1l-1.28,5.49a14,14,0,0,0-3.19-.83,36.83,36.83,0,0,0-6.33-.44,30.17,30.17,0,0,0-6.63.59,18.21,18.21,0,0,0-3.28,1V257h-6.38v-48.4a47.61,47.61,0,0,1,6.77-2.21A42.25,42.25,0,0,1,305.14,205.23Z"/>
<path fill="#e0040b" d="M361.67,231.63a32.71,32.71,0,0,1-1.72,10.9,24.23,24.23,0,0,1-4.81,8.34,21.84,21.84,0,0,1-7.31,5.35,23.6,23.6,0,0,1-18.65,0,21.78,21.78,0,0,1-7.32-5.35,24.4,24.4,0,0,1-4.81-8.34,35.37,35.37,0,0,1,0-21.79,25,25,0,0,1,4.81-8.4,21.65,21.65,0,0,1,7.32-5.4,23.72,23.72,0,0,1,18.65,0,21.71,21.71,0,0,1,7.31,5.4,24.8,24.8,0,0,1,4.81,8.4A32.65,32.65,0,0,1,361.67,231.63Zm-6.77,0q0-9.52-4.42-15.17a15.53,15.53,0,0,0-24,0q-4.42,5.65-4.42,15.17t4.42,15.12a15.6,15.6,0,0,0,24,0Q354.89,241.16,354.9,231.63Z"/>
<path fill="#e0040b" d="M377.24,209.25a22.81,22.81,0,0,1,5.35-2.7,24,24,0,0,1,8.69-1.42,23.08,23.08,0,0,1,9.76,2,20.23,20.23,0,0,1,7.22,5.5,24.35,24.35,0,0,1,4.47,8.39,35.64,35.64,0,0,1,1.52,10.65,31.81,31.81,0,0,1-1.82,11.09,23.83,23.83,0,0,1-5.1,8.35,22,22,0,0,1-7.86,5.25,27.27,27.27,0,0,1-10.16,1.82,54.67,54.67,0,0,1-18.45-2.75V182l6.38-1.18Zm0,41.72a27.47,27.47,0,0,0,4.37.93,51.49,51.49,0,0,0,7.61.45q8.23,0,13.25-5.36t5-15.36a35,35,0,0,0-.89-8,19,19,0,0,0-2.84-6.58,14.34,14.34,0,0,0-5.16-4.46,17,17,0,0,0-7.9-1.67,20.81,20.81,0,0,0-4.32.44,24.54,24.54,0,0,0-3.83,1.13,21.29,21.29,0,0,0-3.09,1.47,23.45,23.45,0,0,0-2.21,1.47Z"/>
<path fill="#e0040b" d="M460.86,255.19c-1.9.53-4.45,1.11-7.66,1.77a60.32,60.32,0,0,1-11.78,1,23.91,23.91,0,0,1-9.52-1.67,15.42,15.42,0,0,1-6.18-4.71,19.14,19.14,0,0,1-3.39-7.36,40.92,40.92,0,0,1-1-9.52V206.21h6.38v26.4a44.6,44.6,0,0,0,.79,9.13,14.77,14.77,0,0,0,2.55,6,10,10,0,0,0,4.56,3.34,20,20,0,0,0,6.82,1,54.4,54.4,0,0,0,7.86-.49,20.65,20.65,0,0,0,4.22-.89V206.21h6.38Z"/>
<path fill="#e0040b" d="M482,252.44a20.05,20.05,0,0,0,9.08-1.81,6.34,6.34,0,0,0,3.58-6.14A8.77,8.77,0,0,0,494,241a6.89,6.89,0,0,0-2.11-2.65,17.89,17.89,0,0,0-3.87-2.26q-2.42-1.08-5.94-2.55-2.85-1.19-5.4-2.41a22,22,0,0,1-4.52-2.85,12.51,12.51,0,0,1-3.14-3.87,11.73,11.73,0,0,1-1.18-5.5,12.33,12.33,0,0,1,4.67-10q4.65-3.84,12.81-3.83a34.84,34.84,0,0,1,8.59.88,28.45,28.45,0,0,1,4.76,1.57l-1.48,5.7a35.55,35.55,0,0,0-4-1.57,26,26,0,0,0-8.2-1,17.69,17.69,0,0,0-4.07.45,10.72,10.72,0,0,0-3.39,1.37,7.49,7.49,0,0,0-2.36,2.36,6.63,6.63,0,0,0-.88,3.5,7.4,7.4,0,0,0,.79,3.54,8,8,0,0,0,2.3,2.61,19.82,19.82,0,0,0,3.73,2.1c1.48.66,3.16,1.37,5.06,2.15s3.84,1.58,5.64,2.4a20.33,20.33,0,0,1,4.76,2.94,13.5,13.5,0,0,1,3.34,4.12,12.8,12.8,0,0,1,1.28,6q0,6.87-5.15,10.4T482,258.14A35.44,35.44,0,0,1,471.74,257a38.78,38.78,0,0,1-4.71-1.72l1.67-5.79a11.42,11.42,0,0,0,1.27.64c.66.29,1.54.62,2.65,1a28.41,28.41,0,0,0,4,.93A32.44,32.44,0,0,0,482,252.44Z"/>
<path fill="#009c36" d="M63.13,159Q48.07,129.57,32.54,90.11T3.13,4.12H49.66q3,11.49,7,24.89T64.9,56.1q4.27,13.7,8.57,26.65t8.44,23.56q3.84-10.61,8.27-23.56T98.9,56.1q4.29-13.69,8.28-27.09t6.95-24.89h45.38q-13.89,46.53-29.39,86T99.55,159Z"/>
<path fill="#009c36" d="M212.69,159H168.82V4.12h43.87Z"/>
<path fill="#009c36" d="M277.59,159Q262.52,129.57,247,90.11t-29.4-86h46.53q3,11.49,6.95,24.89t8.28,27.09q4.29,13.7,8.58,26.65t8.43,23.56q3.84-10.61,8.27-23.56t8.72-26.65q4.29-13.69,8.28-27.09t6.95-24.89H374q-13.89,46.53-29.39,86T314,159Z"/>
<path fill="#009c36" d="M436,0q19.44,0,32.4,4.42t20.76,12.66a46.62,46.62,0,0,1,11,20,98.72,98.72,0,0,1,3.24,26.2v91.3q-9.42,2.05-26.21,4.85t-40.64,2.8a128.68,128.68,0,0,1-27.24-2.65,59,59,0,0,1-21.05-8.69,39.7,39.7,0,0,1-13.55-15.75Q370,125.45,370,111.32q0-13.54,5.45-23a41.83,41.83,0,0,1,14.58-15,65.83,65.83,0,0,1,20.9-8.1,117.21,117.21,0,0,1,24.45-2.5,139.06,139.06,0,0,1,15.16.73,66.8,66.8,0,0,1,10.75,1.92V61.25q0-11.19-6.77-18T431,36.52a150,150,0,0,0-22.09,1.62,94.81,94.81,0,0,0-18.84,4.56l-5.6-35.34q3.82-1.17,9.57-2.5T406.54,2.5q6.76-1,14.28-1.76T436,0Zm3.54,128.4q6.47,0,12.37-.3a85.46,85.46,0,0,0,9.42-.88V93.94q-2.65-.59-7.95-1.18a89.13,89.13,0,0,0-9.72-.59,87.06,87.06,0,0,0-11.63.74,30.42,30.42,0,0,0-9.57,2.8A16.41,16.41,0,0,0,416,101.3a15.61,15.61,0,0,0-2.36,8.84q0,10.31,6.92,14.28T439.52,128.4Z"/>
<circle fill="#009c36" cx="27.49" cy="230.91" r="27.49"/>
<circle fill="#e0040b" cx="148.52" cy="230.91" r="27.49"/>
<path fill="#bababf" d="M87.89,204.67a26.24,26.24,0,1,1-26.24,26.24,26.27,26.27,0,0,1,26.24-26.24m0-1.76a28,28,0,1,0,28,28,28,28,0,0,0-28-28Z"/>
<circle fill="#ffffff" cx="34.6" cy="219.55" r="6.53"/>
<circle fill="#bababf" cx="95.02" cy="219.55" r="6.53"/>
<circle fill="#ffffff" cx="155.54" cy="219.55" r="6.53"/>
</svg>
