<?xml version="1.0" encoding="UTF-8"?>
<svg xmlns="http://www.w3.org/2000/svg" viewBox="0 0 573.15 120.872">
<title>Aerosvit Airlines</title>
<desc>Aerosvit Airlines logo</desc>
<metadata xmlns:rdf="http://www.w3.org/1999/02/22-rdf-syntax-ns#" xmlns:Airline="http://schema.org/Airline">
<rdf:RDF>
<Airline:name>Aerosvit Airlines</Airline:name>
<Airline:iataCode>VV</Airline:iataCode>
<Airline:url>https://airlinelogos.aero/VV</Airline:url>
</rdf:RDF>
</metadata>
<g transform="translate(-14.536001,-18.68)">
	<path d="m 18.84,78.75 c 0,-32.968 27.106,-60.07 60.061,-60.07 33.706,0 60.81,27.102 60.81,60.07 0,33.697 -27.104,60.802 -60.81,60.802 -32.954,0 -60.061,-27.105 -60.061,-60.802 l 0,0 z" style="fill:#ffd406" />
	<polygon points="96.981,67.308 158.779,67.308 84.865,95.249 112.101,95.249 14.536,134.864 72.337,41.652 153.98,41.652" style="fill:#233988" />
	<path d="m 190.386,90.133 v 12.71 c 0,0.742 0,2.244 0,2.995 -0.771,2.244 -2.294,2.979 -4.587,2.979 l -0.76,2.993 h 32.115 l 0.759,-2.993 c -2.294,-0.734 -3.587,-2.491 -3.819,-5.974 l -3.828,-61.32 H 197.274 L 159.8,96.86 c -5.354,8.227 -9.184,11.956 -13.763,11.956 l -0.773,2.993 h 23.711 l 0.756,-2.993 c -3.816,0 -5.074,-4.055 -3.9,-6.784 0.659,-1.538 1.657,-3.61 3.144,-5.924 l 3.816,-5.977 17.595,0.002 0,0 z m -0.771,-5.994 h -12.994 l 12.239,-19.442 0.755,19.442 0,0 z" style="fill:#233988" />
	<path d="m 270.713,86.063 c 3.021,-9.069 3.777,-25.712 -14.352,-25.712 -15.108,0 -28.697,10.587 -33.222,27.992 -4.529,15.882 3.019,25.719 15.851,25.719 6.807,0 14.354,-2.276 25.681,-13.622 l -2.263,-3.019 c -4.524,3.776 -8.306,6.044 -12.086,6.044 -8.306,0 -8.306,-8.324 -6.045,-17.4 l 26.436,-0.002 0,0 z m -24.916,-5.294 c 1.503,-6.051 4.525,-14.374 8.305,-14.374 2.26,0 3.781,1.518 0.755,14.374 h -9.06 l 0,0 z" style="fill:#233988" />
	<path d="m 282.14,62.622 h 28.233 c 7.42,0 20.787,0 17.081,15.125 -2.238,7.563 -8.18,10.596 -15.609,11.346 l -0.729,0.759 c 5.203,0.754 5.203,4.543 5.937,7.569 l 1.489,6.044 c 0.733,4.544 2.969,5.288 4.451,6.054 l -0.744,2.267 h -20.058 l -2.967,-20.415 h -1.489 l -3.707,13.611 c -0.272,0.954 -0.748,4.537 2.222,4.537 v 2.267 h -27.476 l 0.749,-2.267 c 3.709,-0.765 4.45,-3.021 5.192,-6.054 l 8.917,-32.526 c 0.95,-3.35 1.246,-5.398 -2.231,-6.052 l 0.739,-2.265 0,0 z m 17.084,23.441 h 0.747 c 2.957,0 6.68,-0.754 8.907,-9.069 2.237,-8.321 -0.737,-9.082 -2.97,-9.082 h -1.489 l -5.195,18.151 0,0 z" style="fill:#233988" />
	<path d="m 348.459,114.061 c 5.282,0 27.213,-2.276 34.021,-27.233 4.543,-15.89 -2.269,-26.477 -18.907,-26.477 -15.879,0 -28.719,10.587 -33.27,26.477 -7.555,24.956 12.861,27.233 18.156,27.233 l 0,0 z m 1.497,-6.053 c -5.281,0 -0.959,-14.073 1.093,-21.181 1.986,-6.895 5.725,-20.433 11.011,-20.433 6.054,0 1.804,13.425 -0.186,20.318 -2.159,7.499 -5.861,21.296 -11.918,21.296 l 0,0 z" style="fill:#233988" />
	<path d="m 446.752,65.446 6.799,-23.183 h -3.024 l -0.761,0.749 c -0.745,2.244 -2.266,2.998 -3.771,2.998 -4.548,0 -6.808,-4.487 -16.636,-4.487 -9.836,0 -29.492,3.732 -34.785,21.688 -5.289,17.202 9.831,20.928 21.174,25.427 9.069,3.731 9.824,5.979 8.317,9.716 -2.27,7.484 -9.07,9.729 -13.603,9.729 -10.595,0 -18.914,-10.468 -18.152,-20.942 h -3.793 l -7.548,26.174 h 3.784 c 0,-0.756 1.503,-4.498 4.531,-4.498 6.047,0 9.836,5.244 21.178,5.244 6.799,0 27.976,-2.252 34.009,-22.434 3.786,-14.962 -5.283,-20.945 -13.606,-24.686 -8.315,-2.981 -16.632,-4.486 -14.368,-11.957 1.522,-5.239 7.568,-7.479 12.863,-7.479 3.022,0 7.559,1.492 10.583,5.231 3.78,3.736 3.78,8.972 3.019,12.709 h 3.79 l 0,0.001 z" style="fill:#233988" />
	<path d="m 459.333,111.911 h 11.343 l 22.215,-38.419 c 4.076,-6.527 6.241,-7.971 7.698,-8.698 l 0.604,-2.172 h -17.392 l -0.604,2.172 c 3.308,0 5.901,2.634 4.448,5.363 -0.462,1.026 -9.6,17.826 -9.6,17.826 h -0.756 L 476.16,72.04 c -0.107,-1.451 -0.313,-3.271 0.174,-4.776 0.373,-1.15 1.57,-2.469 3.09,-2.469 l 0.605,-2.173 h -27.982 l -0.604,2.173 c 2.319,0.726 3.184,2.17 3.497,6.522 l 4.393,40.594 0,0 z" style="fill:#233988" />
	<path d="m 490.603,111.784 h 27.98 l 0.745,-2.267 c -3.773,-0.765 -3.227,-2.768 -2.268,-6.054 l 11.342,-40.842 h -23.429 l -0.759,2.264 c 3.021,0.762 3.021,3.027 2.264,6.052 l -9.824,32.526 c -0.756,3.032 -1.517,5.288 -5.304,6.054 l -0.747,2.267 0,0 z" style="fill:#233988" />
	<path d="m 536.755,103.464 c -1.28,4.182 -3.037,6.054 -6.075,6.054 l -0.755,2.267 h 29.625 l 0.762,-2.267 c -3.811,0 -4.169,-2.031 -3.038,-6.054 l 9.869,-35.551 c 9.876,-0.756 10.629,6.805 9.117,11.352 h 3.038 l 4.547,-16.643 H 533.718 L 528.4,79.264 h 3.039 c 1.527,-4.547 6.075,-12.107 15.949,-11.352 l -10.633,35.552 0,0 z" style="fill:#233988" />
	<path d="m 287.799,122.284 h 2.888 l -1.971,7.436 c -0.179,0.67 -0.264,1.237 -0.254,1.692 0.009,0.454 0.158,0.805 0.444,1.063 0.282,0.263 0.745,0.391 1.383,0.391 0.633,0 1.153,-0.125 1.574,-0.382 0.424,-0.254 0.763,-0.605 1.019,-1.061 0.252,-0.458 0.469,-1.026 0.648,-1.703 l 1.979,-7.436 h 2.887 l -2.1,7.918 c -0.351,1.307 -1.011,2.496 -1.99,3.555 -0.973,1.064 -2.531,1.602 -4.671,1.602 -2.159,0 -3.438,-0.525 -3.847,-1.574 -0.413,-1.053 -0.445,-2.249 -0.087,-3.581 l 2.098,-7.92 0,0 z m 19.487,5.188 6.084,-5.188 h 3.597 l -6.314,5.272 3.297,7.472 h -3.6 l -2.221,-5.491 -1.774,1.454 -1.071,4.037 h -2.889 l 3.382,-12.744 h 2.888 l -1.379,5.188 0,0 z m 12.727,7.555 3.381,-12.744 h 6.269 c 0.673,0 1.236,0.084 1.695,0.254 0.464,0.165 0.822,0.415 1.077,0.724 0.25,0.313 0.4,0.696 0.451,1.146 0.052,0.449 0,0.949 -0.147,1.5 -0.222,0.865 -0.603,1.565 -1.127,2.094 -0.527,0.529 -1.102,0.897 -1.725,1.084 l -0.009,0.05 c 0.657,0.205 1.03,0.574 1.106,1.104 0.076,0.531 0.014,1.195 -0.187,1.986 -0.221,0.913 -0.348,1.528 -0.384,1.86 -0.039,0.326 0.002,0.641 0.121,0.941 h -2.933 c -0.106,-0.265 -0.146,-0.574 -0.116,-0.93 0.032,-0.351 0.153,-0.945 0.353,-1.785 0.107,-0.413 0.155,-0.753 0.147,-1.033 -0.012,-0.281 -0.139,-0.506 -0.379,-0.68 -0.239,-0.186 -0.647,-0.273 -1.235,-0.273 h -2.222 l -1.246,4.701 -2.89,10e-4 0,0 z m 5.614,-10.269 -0.862,3.251 h 2.641 c 1.238,0 2.001,-0.536 2.289,-1.602 0.171,-0.654 0.116,-1.087 -0.172,-1.315 -0.281,-0.221 -0.731,-0.334 -1.357,-0.334 h -2.539 l 0,0 z m 18.327,-2.474 h 2.918 l 1.225,12.744 h -3.05 l -0.158,-2.387 h -4.44 l -1.404,2.387 h -3.053 l 7.962,-12.744 0,0 z m -2.308,8.199 h 3.182 l -0.289,-4.867 -2.893,4.867 0,0 z m 15.898,-8.199 h 2.888 l -3.381,12.744 h -2.886 l 3.379,-12.744 0,0 z m 12.092,4.773 h -0.049 l -2.117,7.971 h -2.888 l 3.383,-12.744 h 2.94 l 2.708,7.918 h 0.054 l 2.099,-7.918 h 2.884 l -3.38,12.744 h -2.933 l -2.701,-7.971 0,0 z m 16.549,-4.773 h 2.883 l -3.379,12.744 h -2.885 l 3.381,-12.744 0,0 z m 13.526,0 h 2.917 l 1.228,12.744 h -3.055 l -0.158,-2.387 h -4.438 l -1.403,2.387 h -3.053 l 7.962,-12.744 0,0 z m -2.307,8.199 h 3.185 l -0.291,-4.867 -2.894,4.867 0,0 z m 17.572,-3.426 h -0.048 l -2.117,7.971 h -2.888 l 3.381,-12.744 h 2.936 l 2.717,7.918 h 0.051 l 2.1,-7.918 h 2.885 l -3.378,12.744 h -2.936 l -2.703,-7.971 0,0 z m 30.203,-4.773 h 2.914 l 1.22,12.744 h -3.049 l -0.151,-2.387 h -4.442 l -1.401,2.387 h -3.049 l 7.958,-12.744 0,0 z m -2.308,8.199 h 3.181 l -0.29,-4.867 -2.891,4.867 0,0 z m 15.883,-8.199 h 2.883 l -3.373,12.744 h -2.883 l 3.373,-12.744 0,0 z m 7.026,12.743 3.374,-12.744 h 6.264 c 0.671,0 1.236,0.084 1.699,0.254 0.458,0.165 0.813,0.415 1.07,0.724 0.248,0.313 0.404,0.696 0.452,1.146 0.053,0.449 0.006,0.949 -0.146,1.5 -0.224,0.865 -0.603,1.565 -1.123,2.094 -0.529,0.529 -1.104,0.897 -1.727,1.084 l -0.012,0.05 c 0.661,0.205 1.03,0.574 1.104,1.104 0.08,0.531 0.018,1.195 -0.178,1.986 -0.228,0.913 -0.362,1.528 -0.387,1.86 -0.044,0.326 0,0.641 0.121,0.941 h -2.933 c -0.105,-0.265 -0.146,-0.574 -0.111,-0.93 0.028,-0.351 0.146,-0.945 0.354,-1.785 0.103,-0.413 0.149,-0.753 0.141,-1.033 -0.012,-0.281 -0.135,-0.506 -0.374,-0.68 -0.239,-0.186 -0.652,-0.273 -1.234,-0.273 h -2.225 l -1.248,4.701 -2.881,10e-4 0,0 z m 5.604,-10.269 -0.855,3.251 h 2.633 c 1.24,0 2.006,-0.536 2.29,-1.602 0.172,-0.654 0.111,-1.087 -0.17,-1.315 -0.283,-0.221 -0.738,-0.334 -1.365,-0.334 h -2.533 l 0,0 z m 21.071,7.802 -0.66,2.468 h -8.585 l 3.375,-12.744 h 2.887 l -2.723,10.275 5.706,0.001 0,0 z m 9.171,-10.276 h 2.883 l -3.378,12.744 h -2.882 l 3.377,-12.744 0,0 z m 12.076,4.773 h -0.052 l -2.115,7.971 h -2.884 l 3.375,-12.744 h 2.938 l 2.708,7.918 h 0.051 l 2.095,-7.918 h 2.883 l -3.373,12.744 h -2.935 l -2.691,-7.971 0,0 z m 18.068,0.295 h 5.979 l -0.62,2.339 h -5.978 l -0.766,2.87 h 6.959 l -0.659,2.468 h -9.835 l 3.373,-12.744 h 9.677 l -0.657,2.474 h -6.786 l -0.687,2.593 0,0 z m 11.94,3.541 h 2.918 c -0.146,0.529 -0.112,1.02 0.086,1.478 0.198,0.456 0.793,0.683 1.778,0.683 1.46,0 2.318,-0.478 2.573,-1.441 0.117,-0.434 0.064,-0.773 -0.149,-1.024 -0.223,-0.245 -0.506,-0.427 -0.839,-0.541 -0.341,-0.108 -0.871,-0.248 -1.601,-0.427 -0.573,-0.14 -1.063,-0.284 -1.45,-0.429 -0.399,-0.148 -0.74,-0.357 -1.042,-0.636 -0.31,-0.276 -0.508,-0.65 -0.597,-1.118 -0.106,-0.466 -0.062,-1.05 0.123,-1.752 0.212,-0.794 0.585,-1.479 1.116,-2.038 0.543,-0.566 1.22,-0.994 2.051,-1.287 0.825,-0.29 1.769,-0.438 2.823,-0.438 1.013,0 1.801,0.157 2.359,0.475 0.561,0.309 0.931,0.684 1.124,1.124 0.186,0.443 0.27,0.856 0.257,1.245 -0.005,0.386 -0.048,0.73 -0.121,1.024 h -2.733 c 0.125,-0.607 -0.007,-1.017 -0.385,-1.219 -0.381,-0.204 -0.811,-0.307 -1.296,-0.307 -0.606,0 -1.118,0.119 -1.528,0.361 -0.406,0.236 -0.667,0.572 -0.776,0.992 -0.097,0.356 -0.052,0.649 0.144,0.858 0.196,0.201 0.423,0.346 0.688,0.429 0.262,0.075 0.657,0.169 1.178,0.278 1.015,0.218 1.825,0.464 2.422,0.731 0.596,0.271 1.022,0.662 1.27,1.176 0.251,0.515 0.263,1.199 0.034,2.057 -0.135,0.502 -0.333,0.991 -0.604,1.473 -0.276,0.479 -0.654,0.938 -1.142,1.353 -0.49,0.423 -1.114,0.764 -1.873,1.023 -0.756,0.26 -1.654,0.396 -2.679,0.396 -1.397,0 -2.426,-0.246 -3.091,-0.729 -0.665,-0.489 -1.047,-1.068 -1.148,-1.741 -0.11,-0.673 -0.072,-1.35 0.11,-2.029 l 0,0 z" style="fill:#233988" />
	<polygon points="508.039,53.492 511.618,41.616 587.686,41.616" style="fill:#233988" />
</g>
</svg>
