<?xml version="1.0" encoding="UTF-8"?>
<svg xmlns="http://www.w3.org/2000/svg" viewBox="0 0 2250 466">
<title>RwandAir</title>
<desc>RwandAir logo</desc>
<metadata xmlns:rdf="http://www.w3.org/1999/02/22-rdf-syntax-ns#" xmlns:Airline="http://schema.org/Airline">
<rdf:RDF>
<Airline:name>RwandAir</Airline:name>
<Airline:iataCode>WB</Airline:iataCode>
<Airline:url>https://airlinelogos.aero/WB</Airline:url>
</rdf:RDF>
</metadata>
<path d="M 352.00 0.54 C 377.99 0.24 404.32 2.04 429.80 7.37 C 445.61 10.78 461.83 15.41 476.19 22.98 C 471.11 21.86 466.28 19.95 461.24 18.69 C 437.28 12.23 412.76 9.82 388.00 9.88 C 350.68 10.54 314.51 19.61 280.36 34.36 C 236.63 53.31 196.66 81.34 163.14 115.13 C 130.88 147.89 103.60 187.32 87.54 230.56 C 86.93 231.78 86.77 233.31 85.03 233.19 C 72.52 233.23 59.96 233.36 47.46 233.16 C 42.96 232.49 38.52 232.84 34.00 232.78 C 22.91 232.74 11.82 232.88 0.74 232.74 C 9.94 210.22 22.08 189.06 36.32 169.36 C 55.09 143.47 77.15 120.20 101.58 99.60 C 146.90 61.40 200.15 32.17 257.02 15.34 C 279.81 8.65 303.31 3.82 327.00 1.98 C 335.30 1.17 343.67 0.98 352.00 0.54 Z" fill="#1da2dc" />
<path d="M 388.00 9.88 C 412.76 9.82 437.28 12.23 461.24 18.69 C 466.28 19.95 471.11 21.86 476.19 22.98 C 480.00 24.94 484.04 26.24 487.94 27.96 C 504.31 34.86 519.81 44.15 533.31 55.71 C 552.15 71.80 566.91 92.39 575.24 115.79 C 581.50 132.58 583.82 150.16 584.20 168.00 C 584.01 171.66 583.63 175.31 583.51 178.98 C 582.27 197.62 577.75 215.95 571.44 233.49 C 558.48 233.07 545.44 233.36 532.46 233.39 C 522.42 260.53 508.47 286.08 491.43 309.45 C 468.20 341.39 439.57 369.50 407.60 392.64 C 366.77 422.17 318.86 444.62 268.98 453.05 C 239.45 458.10 209.49 457.46 179.98 452.67 C 167.94 450.72 156.26 447.48 144.57 444.07 C 139.34 441.59 133.81 439.89 128.56 437.42 C 94.78 422.69 65.79 397.91 49.56 364.44 C 39.38 344.01 35.11 321.71 34.83 299.00 C 35.24 276.49 39.70 254.28 47.46 233.16 C 59.96 233.36 72.52 233.23 85.03 233.19 C 86.77 233.31 86.93 231.78 87.54 230.56 C 103.60 187.32 130.88 147.89 163.14 115.13 C 196.66 81.34 236.63 53.31 280.36 34.36 C 314.51 19.61 350.68 10.54 388.00 9.88 Z" fill="#00529c" />
<path d="M 356.91 27.74 L 357.02 27.52 L 357.23 27.07 C 354.39 59.68 351.59 92.36 348.69 124.95 C 369.62 92.59 390.26 60.01 411.02 27.54 C 409.98 32.04 408.12 36.37 406.63 40.79 C 396.27 70.00 385.81 99.18 375.52 128.42 C 380.73 123.33 385.62 117.92 390.63 112.63 C 406.94 95.61 423.08 78.42 439.38 61.39 C 445.70 54.76 451.84 47.92 458.43 41.56 C 438.44 74.19 417.81 106.52 397.87 139.18 C 430.49 115.74 462.85 91.91 495.45 68.44 C 491.64 72.94 487.59 77.24 483.53 81.52 C 460.35 106.50 437.12 131.45 413.93 156.42 C 422.56 152.68 430.98 148.44 439.52 144.50 C 462.17 133.82 484.82 123.16 507.47 112.47 C 511.70 110.52 515.78 108.44 520.09 106.73 C 487.70 130.82 455.32 154.94 422.85 178.92 C 453.61 171.88 484.27 164.30 514.99 157.05 C 520.27 155.85 525.52 154.36 530.86 153.48 C 527.74 154.71 524.75 156.22 521.75 157.72 C 493.47 171.47 465.17 185.16 436.89 198.90 C 432.71 200.96 428.48 202.84 424.42 205.13 C 457.87 205.57 491.34 205.36 524.78 205.87 C 520.61 207.34 516.32 208.21 512.04 209.33 C 480.67 217.23 449.29 225.13 417.91 233.02 C 422.76 234.87 427.81 236.18 432.75 237.76 C 457.15 245.28 481.63 252.58 505.99 260.26 C 471.94 260.66 437.86 260.50 403.83 261.19 C 426.88 278.35 449.91 295.54 472.94 312.73 C 443.13 304.34 413.41 295.64 383.60 287.27 C 398.39 311.49 413.78 335.41 428.45 359.69 C 405.02 343.05 381.65 326.33 358.25 309.65 C 364.07 339.15 370.37 368.63 376.24 398.13 C 360.56 374.46 345.18 350.59 329.61 326.86 C 327.02 351.05 324.53 375.27 322.09 399.49 C 321.00 408.06 320.55 416.73 319.16 425.26 C 313.33 398.41 307.14 371.64 301.19 344.82 C 300.68 342.44 300.09 340.11 299.39 337.78 C 288.93 366.75 278.03 395.60 267.39 424.52 C 265.61 429.42 263.64 434.22 262.22 439.26 C 262.09 432.10 263.06 425.10 263.59 417.99 C 264.91 404.01 265.94 390.01 267.30 376.03 C 267.96 364.60 269.67 353.20 269.95 341.75 C 249.17 374.51 228.21 407.16 207.34 439.86 C 219.36 405.86 231.52 371.91 243.52 337.91 C 215.62 367.12 187.82 396.45 160.03 425.78 C 180.28 392.78 200.99 360.05 221.30 327.09 C 189.95 349.76 158.71 372.57 127.39 395.27 C 126.05 396.21 124.70 397.13 123.34 398.03 C 139.73 380.21 156.31 362.53 172.77 344.78 C 183.48 333.10 194.50 321.69 205.03 309.86 C 169.64 326.58 134.25 343.37 98.76 359.91 C 131.05 335.61 163.74 311.80 196.00 287.47 C 163.05 295.31 130.10 303.17 97.15 311.02 C 94.61 311.65 92.10 312.28 89.49 312.56 C 124.55 295.41 159.68 278.33 194.89 261.45 C 177.60 260.86 160.28 261.45 143.00 260.86 C 126.53 260.71 110.04 260.88 93.57 260.48 C 126.33 252.30 159.05 243.98 191.80 235.77 C 194.98 235.00 198.14 234.19 201.25 233.20 C 171.81 224.48 142.54 215.11 113.08 206.47 C 123.36 205.77 133.70 206.43 144.00 205.89 C 167.74 205.67 191.49 205.60 215.24 205.36 C 192.33 188.17 169.26 171.17 146.38 153.95 C 176.15 162.01 205.70 171.01 235.45 179.14 C 220.46 155.01 205.36 130.95 190.44 106.78 C 213.99 123.27 237.26 140.20 260.77 156.77 C 255.85 132.24 250.73 107.74 245.77 83.21 C 244.81 78.28 243.55 73.44 242.98 68.44 C 258.41 92.21 273.93 115.93 289.43 139.65 C 292.42 110.80 295.35 81.86 298.38 53.02 C 298.67 48.95 299.11 44.94 299.84 40.92 C 305.93 70.14 313.02 99.18 319.19 128.38 C 321.14 124.91 322.19 121.18 323.61 117.49 C 334.74 87.58 345.71 57.62 356.91 27.74 Z" fill="#fbe215" />
<path d="M 1724.73 121.87 C 1739.77 121.97 1754.82 121.84 1769.87 121.85 C 1766.20 139.27 1762.00 156.60 1758.11 173.97 C 1748.69 215.34 1739.23 256.69 1729.80 298.05 C 1728.92 303.04 1727.53 308.79 1728.66 313.79 C 1730.59 318.34 1736.09 320.71 1740.73 321.27 C 1733.87 322.48 1726.94 322.92 1720.01 323.48 C 1711.43 323.46 1703.56 324.07 1695.53 322.15 C 1692.74 321.38 1690.05 318.97 1689.47 316.08 C 1689.22 313.59 1689.73 311.00 1689.91 308.51 C 1677.44 318.19 1662.88 324.61 1647.00 325.53 C 1635.78 326.25 1623.53 325.03 1613.45 319.69 C 1602.25 313.91 1594.21 303.12 1591.13 290.97 C 1588.28 279.68 1588.61 267.50 1591.38 256.23 C 1595.58 239.20 1605.75 224.30 1617.99 211.99 C 1632.05 197.69 1649.99 187.50 1669.82 183.97 C 1681.24 181.95 1693.69 181.30 1705.01 184.20 C 1709.42 185.23 1713.20 187.39 1717.31 189.17 C 1721.10 173.52 1724.76 157.84 1728.53 142.18 C 1729.51 138.10 1730.12 134.06 1729.61 129.86 C 1729.04 126.56 1727.09 124.13 1724.73 121.87 Z" fill="#00529c" />
<path d="M 2085.47 122.58 C 2094.53 119.95 2105.07 122.34 2111.30 129.64 C 2115.59 134.71 2115.59 142.33 2111.35 147.42 C 2105.42 154.50 2094.88 156.83 2086.16 154.65 C 2080.32 153.12 2074.14 149.17 2071.88 143.36 C 2070.75 139.71 2070.83 135.23 2072.84 131.88 C 2075.40 127.30 2080.54 124.08 2085.47 122.58 Z" fill="#00529c" />
<path d="M 1897.84 127.58 C 1912.62 127.27 1927.42 127.50 1942.21 127.44 C 1956.86 186.61 1971.52 245.82 1986.22 304.98 C 1987.56 310.64 1990.47 317.98 1995.99 320.72 C 1977.97 320.96 1959.91 320.91 1941.88 320.74 C 1944.00 319.83 1945.73 318.93 1946.48 316.58 C 1947.50 311.80 1946.07 306.65 1944.87 302.03 C 1940.99 287.31 1937.39 272.50 1933.43 257.80 C 1929.28 257.65 1925.14 257.27 1920.98 257.17 C 1906.73 256.00 1892.31 256.65 1878.00 256.50 C 1864.55 256.21 1851.35 257.45 1837.93 257.80 C 1826.53 273.42 1815.05 288.98 1803.64 304.60 C 1801.20 308.26 1797.66 312.56 1797.12 317.02 C 1797.00 319.41 1798.29 319.96 1799.93 321.20 C 1786.96 321.24 1773.99 321.26 1761.02 321.21 C 1768.55 316.06 1774.63 308.30 1780.00 301.00 C 1818.82 247.81 1857.67 194.65 1896.50 141.47 C 1898.77 138.51 1900.26 135.42 1901.38 131.87 C 1900.97 130.89 1900.55 129.93 1900.12 128.96 C 1899.37 128.49 1898.60 128.03 1897.84 127.58 Z" fill="#00529c" />
<path d="M 802.99 128.48 C 830.33 128.70 857.70 128.50 885.04 128.58 C 902.27 129.36 918.90 131.07 934.94 137.92 C 942.91 141.45 951.17 146.60 955.75 154.24 C 959.95 161.10 960.65 169.26 958.71 176.98 C 956.22 187.60 949.14 196.17 940.47 202.48 C 924.34 214.42 903.66 220.89 883.98 223.70 C 882.93 223.92 881.89 224.20 880.87 224.56 C 883.79 225.75 886.93 226.01 889.86 227.15 C 897.33 229.91 904.08 234.68 909.42 240.55 C 918.69 250.85 925.15 264.07 931.74 276.20 C 937.24 286.13 942.93 296.22 949.70 305.34 C 955.22 312.56 963.65 319.07 972.86 320.29 C 963.99 322.63 954.15 322.62 945.00 323.27 C 936.75 323.65 926.98 323.35 919.56 319.32 C 915.00 316.99 911.82 313.16 908.87 309.09 C 896.98 292.46 888.61 273.68 878.08 256.86 C 873.61 249.90 868.50 242.21 861.97 237.03 C 853.80 230.89 842.54 229.52 832.62 229.52 C 827.27 251.58 822.30 273.74 817.10 295.83 C 815.87 301.56 814.00 306.90 815.11 312.82 C 815.68 316.23 817.55 319.00 819.05 322.30 C 799.07 322.35 779.09 322.24 759.12 322.35 C 764.97 318.33 769.62 313.15 771.17 306.04 C 783.48 253.04 795.72 199.88 807.99 146.86 C 808.66 143.37 809.65 139.47 808.67 136.00 C 807.90 132.86 806.14 129.72 802.99 128.48 Z" fill="#00529c" />
<path d="M 868.00 143.23 C 879.38 143.05 892.07 144.89 901.79 151.23 C 906.93 154.78 910.94 159.71 912.05 165.99 C 913.63 175.79 911.14 186.13 904.85 193.87 C 898.24 202.08 887.85 207.48 877.93 210.56 C 864.57 214.61 849.96 215.33 836.11 214.10 C 836.28 212.47 836.42 210.85 836.79 209.25 C 841.04 191.51 845.19 173.74 849.40 155.98 C 850.31 152.23 851.29 148.52 851.87 144.69 C 857.01 142.92 862.47 143.36 868.00 143.23 Z" fill="#ffffff" />
<path d="M 333.00 151.31 C 345.31 150.20 358.36 152.15 369.48 157.71 C 381.12 163.62 390.46 174.41 394.20 186.97 C 397.18 196.03 397.18 205.58 396.26 214.99 C 393.37 236.38 381.93 256.74 367.51 272.52 C 352.27 289.18 333.19 302.43 311.77 309.78 C 295.86 315.34 277.40 317.49 260.97 313.09 C 252.30 310.94 244.18 306.41 237.59 300.41 C 230.06 292.97 225.03 283.36 223.15 272.94 C 220.24 256.30 223.73 239.98 230.73 224.81 C 241.30 202.15 259.50 182.87 280.53 169.54 C 296.11 159.71 314.52 152.53 333.00 151.31 Z" fill="#ffffff" />
<path d="M 358.40 162.96 C 366.97 166.07 374.49 171.82 379.77 179.24 C 386.23 188.46 388.82 199.86 388.24 211.01 C 387.17 227.11 380.97 241.79 372.09 255.09 C 360.13 272.64 343.45 287.03 324.51 296.59 C 309.82 303.76 292.42 308.64 275.98 306.96 C 265.35 306.07 254.84 302.28 246.64 295.35 C 238.11 288.22 232.95 277.93 231.34 267.00 C 229.13 253.39 232.75 238.76 238.37 226.35 C 245.10 211.90 255.28 198.75 267.29 188.30 C 280.91 176.14 297.39 166.87 315.05 162.10 C 328.91 158.44 344.84 157.78 358.40 162.96 Z" fill="#fbe215" />
<path d="M 1909.19 160.06 C 1910.83 160.68 1910.68 163.05 1911.20 164.51 C 1916.78 186.35 1922.25 208.21 1927.83 230.04 C 1928.67 233.24 1929.52 236.44 1930.12 239.70 C 1923.06 239.68 1916.09 240.69 1909.01 240.61 C 1898.00 241.59 1887.03 241.08 1876.00 241.20 C 1869.99 241.26 1864.02 240.50 1858.00 240.52 C 1855.68 240.55 1853.57 240.36 1851.34 239.70 C 1870.54 213.10 1890.07 186.72 1909.19 160.06 Z" fill="#ffffff" />
<path d="M 1545.81 185.24 C 1553.56 187.73 1560.09 193.07 1562.55 201.03 C 1565.69 210.48 1563.28 219.16 1561.50 228.55 C 1555.92 253.01 1550.24 277.49 1544.66 301.95 C 1543.90 306.36 1542.05 312.09 1544.95 316.04 C 1547.47 319.39 1552.43 321.10 1556.41 321.79 C 1547.63 322.54 1538.82 323.57 1530.00 323.62 C 1524.24 323.73 1517.89 324.28 1512.29 322.71 C 1508.61 321.70 1505.53 319.04 1505.27 315.05 C 1505.39 311.01 1506.57 306.97 1507.33 303.01 C 1512.65 279.67 1518.01 256.31 1523.32 232.97 C 1524.43 226.94 1526.22 220.10 1525.34 214.02 C 1524.50 211.31 1523.37 208.75 1520.81 207.28 C 1515.82 204.19 1509.69 204.36 1504.06 204.84 C 1490.15 206.84 1478.63 214.64 1467.73 222.96 C 1463.49 240.95 1459.62 259.03 1455.49 277.04 C 1453.25 287.68 1450.42 298.28 1448.70 309.01 C 1447.83 313.99 1449.99 318.66 1453.93 321.66 C 1435.65 321.54 1417.37 321.69 1399.09 321.58 C 1406.81 317.56 1411.10 308.09 1413.05 300.01 C 1419.61 270.91 1426.36 241.51 1432.98 212.14 C 1434.32 206.13 1436.12 199.92 1434.56 193.79 C 1434.08 191.18 1432.35 189.02 1430.93 186.85 C 1445.85 186.75 1460.77 186.89 1475.69 186.68 C 1475.57 191.62 1473.29 196.14 1473.21 201.14 C 1484.28 193.40 1496.92 187.66 1510.04 184.43 C 1521.64 181.60 1534.39 181.63 1545.81 185.24 Z" fill="#00529c" />
<path d="M 2226.93 182.09 C 2234.86 180.77 2242.25 182.48 2249.73 184.95 C 2249.47 196.35 2248.24 207.74 2247.59 219.12 C 2244.58 216.44 2241.55 213.87 2237.86 212.13 C 2230.69 208.38 2222.92 207.86 2214.99 208.66 C 2203.91 210.32 2194.63 216.05 2186.51 223.52 C 2185.59 224.47 2184.31 225.54 2183.91 226.84 C 2178.37 250.38 2172.81 273.93 2167.23 297.47 C 2166.37 301.26 2165.33 305.11 2164.91 308.98 C 2164.55 313.56 2166.02 318.01 2169.84 320.77 C 2151.83 320.75 2133.82 320.85 2115.80 320.81 C 2124.80 316.51 2128.47 307.21 2130.29 297.98 C 2137.35 267.26 2144.42 236.55 2151.50 205.83 C 2152.42 201.04 2153.34 195.09 2151.49 190.44 C 2150.67 188.35 2149.07 187.34 2147.18 186.31 C 2162.36 186.10 2177.54 186.24 2192.72 186.14 C 2191.45 192.03 2189.82 197.90 2189.03 203.88 C 2192.74 200.99 2195.94 197.54 2199.60 194.59 C 2207.61 188.21 2216.68 183.45 2226.93 182.09 Z" fill="#00529c" />
<path d="M 1318.03 182.88 C 1328.52 183.78 1337.13 186.80 1345.91 192.56 C 1350.77 191.71 1355.18 188.29 1360.01 187.23 C 1366.14 186.95 1372.32 187.21 1378.47 187.13 C 1370.40 222.77 1362.11 258.36 1353.96 293.98 C 1352.56 299.87 1351.04 305.95 1350.61 312.00 C 1351.31 318.34 1357.27 320.43 1362.54 322.04 C 1350.53 323.17 1338.05 324.89 1326.01 323.69 C 1321.85 323.52 1317.18 322.96 1314.02 319.94 C 1311.52 317.32 1312.40 312.41 1312.10 309.08 C 1310.86 309.83 1309.59 310.53 1308.44 311.42 C 1292.13 323.91 1270.05 328.65 1249.95 324.99 C 1238.85 322.95 1228.59 317.39 1221.70 308.32 C 1214.65 299.16 1211.67 287.42 1211.62 276.00 C 1211.25 259.27 1217.07 243.14 1226.40 229.41 C 1236.11 215.27 1249.03 202.51 1264.20 194.33 C 1280.43 185.38 1299.62 181.67 1318.03 182.88 Z" fill="#00529c" />
<path d="M 2054.07 186.43 C 2069.58 186.22 2085.09 186.34 2100.59 186.25 C 2092.13 222.80 2083.95 259.44 2075.64 296.02 C 2074.61 301.53 2072.28 308.12 2073.44 313.64 C 2075.31 318.07 2080.64 320.07 2084.99 321.09 C 2076.69 322.81 2068.41 322.70 2060.00 323.19 C 2054.32 323.35 2048.09 323.56 2042.56 322.16 C 2039.07 321.09 2035.47 319.01 2035.00 315.02 C 2034.60 311.35 2035.74 307.41 2036.41 303.82 C 2043.44 272.78 2050.59 241.72 2057.67 210.69 C 2059.08 204.88 2060.77 197.70 2058.90 191.88 C 2058.10 189.30 2056.44 187.64 2054.07 186.43 Z" fill="#00529c" />
<path d="M 994.07 187.32 C 1010.07 187.47 1026.07 187.29 1042.06 187.42 C 1038.26 189.21 1036.51 192.92 1036.32 196.97 C 1035.95 206.89 1038.09 217.11 1038.82 227.03 C 1040.40 241.01 1041.81 254.99 1043.41 268.96 C 1043.65 272.03 1043.84 275.04 1044.68 278.01 C 1064.31 247.90 1083.64 217.56 1103.17 187.38 C 1109.20 187.41 1115.22 187.28 1121.25 187.46 C 1123.40 200.51 1125.94 213.50 1128.27 226.52 C 1131.50 243.44 1134.24 260.50 1137.76 277.37 C 1139.41 275.09 1140.85 272.69 1142.26 270.26 C 1153.21 251.89 1164.24 233.57 1175.19 215.20 C 1178.81 209.12 1182.73 202.71 1185.05 196.01 C 1186.12 193.11 1186.00 190.27 1185.42 187.30 C 1196.61 187.37 1207.81 186.94 1219.01 187.23 C 1211.48 193.33 1206.20 200.84 1200.91 208.85 C 1193.99 219.67 1187.58 230.89 1180.93 241.87 C 1165.17 268.53 1149.15 295.04 1133.43 321.73 C 1125.88 321.96 1118.32 321.83 1110.77 321.83 C 1105.92 295.25 1101.18 268.61 1096.39 242.02 C 1095.81 238.56 1095.23 235.12 1094.32 231.73 C 1075.17 261.80 1055.75 291.69 1036.59 321.74 C 1029.29 321.79 1021.97 322.20 1014.68 322.06 C 1013.35 313.59 1012.81 305.01 1011.71 296.50 C 1008.48 267.81 1005.43 239.06 1002.10 210.38 C 1000.58 202.20 1001.05 193.09 994.07 187.32 Z" fill="#00529c" />
<path d="M 1311.00 198.31 C 1320.60 198.12 1329.06 201.70 1335.50 208.83 C 1330.16 233.43 1324.29 257.95 1318.82 282.53 C 1318.39 286.15 1314.46 288.59 1311.98 290.97 C 1305.07 296.51 1296.77 301.57 1288.01 303.39 C 1280.08 304.48 1271.31 304.12 1264.57 299.30 C 1258.44 294.86 1255.87 287.28 1255.34 280.00 C 1254.36 264.54 1257.55 249.02 1263.99 234.96 C 1268.49 225.07 1274.78 215.14 1283.21 208.14 C 1290.99 201.64 1300.81 197.92 1311.00 198.31 Z" fill="#ffffff" />
<path d="M 1684.00 198.14 C 1693.05 197.40 1702.27 198.53 1709.38 204.67 C 1710.51 205.80 1712.73 207.25 1712.75 208.93 C 1712.51 212.31 1711.39 215.65 1710.68 218.97 C 1705.62 241.16 1700.40 263.36 1695.40 285.57 C 1690.51 290.69 1685.03 295.24 1678.80 298.64 C 1670.63 303.06 1661.12 304.82 1651.96 302.98 C 1645.52 301.86 1639.68 298.27 1636.40 292.53 C 1633.68 287.62 1632.78 281.53 1632.55 276.00 C 1632.54 262.43 1635.10 248.92 1640.61 236.49 C 1644.95 226.75 1650.85 216.92 1658.70 209.62 C 1665.78 203.23 1674.38 198.83 1684.00 198.14 Z" fill="#ffffff" />
<path d="M 532.46 233.39 C 545.44 233.36 558.48 233.07 571.44 233.49 C 586.85 234.02 602.33 233.58 617.76 233.71 C 613.89 244.49 608.42 254.78 603.01 264.86 C 592.70 283.34 580.52 300.72 566.95 316.94 C 530.60 360.24 485.52 395.39 435.39 421.41 C 396.40 441.37 354.42 455.88 311.01 462.26 C 299.05 464.04 287.04 464.71 275.00 465.60 C 265.00 465.61 255.00 465.57 245.00 465.61 C 216.69 464.23 189.16 460.75 162.19 451.63 C 156.28 449.36 150.01 447.36 144.57 444.07 C 156.26 447.48 167.94 450.72 179.98 452.67 C 209.49 457.46 239.45 458.10 268.98 453.05 C 318.86 444.62 366.77 422.17 407.60 392.64 C 439.57 369.50 468.20 341.39 491.43 309.45 C 508.47 286.08 522.42 260.53 532.46 233.39 Z" fill="#94c945" />
</svg>
