<?xml version="1.0" encoding="UTF-8"?>
<svg xmlns="http://www.w3.org/2000/svg" viewBox="0 0 371.96 251.51">
<title>iAero Airways</title>
<desc>iAero Airways logo</desc>
<metadata xmlns:rdf="http://www.w3.org/1999/02/22-rdf-syntax-ns#" xmlns:Airline="http://schema.org/Airline">
<rdf:RDF>
<Airline:name>iAero Airways</Airline:name>
<Airline:iataCode>WQ</Airline:iataCode>
<Airline:url>https://airlinelogos.aero/WQ</Airline:url>
</rdf:RDF>
</metadata>
<path fill="#004a98" d="M4.2,251.51H0V229.27H4.2Z"/>
<path fill="#004a98" d="M11,251.51l14.8-27.07h4.83l15.05,27.07h-5l-3.46-6.66H18.89l-3.47,6.66Zm9.82-10.12H35.36l-7.29-13.85Z"/>
<path fill="#004a98" d="M52.52,251.51V229.27h22.4v3.3H56.71v5.72h11v3.31h-11v6.61H75.13v3.3Z"/>
<path fill="#004a98" d="M83,251.51V229.27h17.89q4.67,0,4.67,4.3v5q0,4.24-4.67,4.24H98l9.81,8.71h-5.61l-8.87-8.71H87.19v8.71Zm16-19H87.19v7.19H99.05c1.12,0,1.82-.26,2.1-.79a3.19,3.19,0,0,0,.26-1.47v-2.67C101.41,233.27,100.62,232.52,99.05,232.52Z"/>
<path fill="#004a98" d="M114.63,234.57c0-2,.39-3.42,1.16-4.17s2.2-1.13,4.3-1.13h16c2.1,0,3.53.38,4.3,1.13s1.16,2.14,1.16,4.17v11.7c0,2-.39,3.41-1.16,4.14s-2.2,1.1-4.3,1.1h-16c-2.14,0-3.58-.36-4.33-1.07s-1.13-2.11-1.13-4.17Zm4.2,13.59H137.4V232.57H118.83Z"/>
<path fill="#004a98" d="M159.17,251.51,174,224.44h4.82l15.06,27.07h-5l-3.47-6.66H167.09l-3.46,6.66ZM169,241.39h14.59l-7.29-13.85Z"/>
<path fill="#004a98" d="M204.82,251.51h-4.2V229.27h4.2Z"/>
<path fill="#004a98" d="M215,251.51V229.27h17.89c3.12,0,4.67,1.43,4.67,4.3v5c0,2.83-1.55,4.24-4.67,4.24H230l9.81,8.71h-5.62l-8.86-8.71h-6.09v8.71Zm16.06-19H219.19v7.19h11.86c1.12,0,1.82-.26,2.1-.79a3.19,3.19,0,0,0,.26-1.47v-2.67C233.41,233.27,232.62,232.52,231.05,232.52Z"/>
<path fill="#004a98" d="M251.82,251.51l-8.6-22.24h4.35l6.14,17,6.56-17h2.78l6.4,17,6.14-17h3.78l-8.5,22.24h-3.1l-6.24-16.58L255,251.51Z"/>
<path fill="#004a98" d="M282.15,251.51,295,229.27h3.83L312,251.51h-4.57l-2.88-5.19H289.18l-2.84,5.19Zm8.81-8.39h11.8l-5.92-10.6Z"/>
<path fill="#004a98" d="M326.22,251.51v-9.7l-11.6-12.54h5.09l8.87,9.65,8.44-9.65H342l-11.54,12.54v9.7Z"/>
<path fill="#004a98" d="M367.87,232.57H352.29v5.78h14.27c2.1,0,3.52.36,4.28,1.1s1.12,2.11,1.12,4.14v2.68c0,2-.37,3.41-1.12,4.14s-2.18,1.1-4.28,1.1H353c-2.13,0-3.57-.36-4.32-1.1s-1.13-2.11-1.13-4.14v-.63l3.83-.79v3.31h16.79v-6.25H353.86c-2.09,0-3.52-.36-4.27-1.1s-1.13-2.11-1.13-4.14v-2.1c0-2.07.38-3.46,1.13-4.2s2.18-1.1,4.27-1.1h12.38q3,0,4.23,1c.82.7,1.23,2,1.23,3.83v.52l-3.83.84Z"/>
<path fill="#004a98" d="M256.93,87.22c6.31-11.3,13.47-23.17,19.83-33.2h0l-.15-.27c-26.64,33.32-50,60.41-72.77,81.62,11-2.22,22-4.76,33.33-7.86A373.69,373.69,0,0,1,256.93,87.22Z"/>
<path fill="#004a98" d="M197.31,141.34a267.22,267.22,0,0,0,38-9.12c.32-.84.68-1.7,1-2.56-13.13,3.47-24.63,5.88-34.57,7.67Q199.53,139.37,197.31,141.34Z"/>
<path fill="#004a98" d="M145.73,150.51h0c-.44,0-1,1-1.29,3.86-.14,1.7-.2,8.5-.2,16l1.85-1.15c.15-6.79.25-12.89.24-14.89C146.29,151.32,146,150.54,145.73,150.51Z"/>
<path fill="#004a98" d="M148.32,169.6c0,1.44-.06,2.91-.1,4.38a255.54,255.54,0,0,0,34.95-24.79q-2.17-.83-4.38-1.59C167.57,156.51,157.4,163.76,148.32,169.6Z"/>
<path fill="#004a98" d="M270.19,58.64c-30.12,34.2-56.73,60-79.55,79.25q3.5-.63,7-1.29Q230.94,106.27,270.19,58.64Z"/>
<path fill="#004a98" d="M118.4,186l.69.56,1.23-.32A118.36,118.36,0,0,0,143,176.9c0-1.3,0-2.61,0-3.91A201.54,201.54,0,0,1,118.4,186Z"/>
<path fill="#004a98" d="M139.79,136.13a1.27,1.27,0,0,0-.28,0l-.06,0a1.23,1.23,0,0,0-.71.51c-.2.32,0,.92.76,1.61a17.88,17.88,0,0,0,4.13,2.09l.2.05a34.24,34.24,0,0,0,4.26.76c1.91.23,3.84.37,5.76.47,2.46.12,4.93.16,7.4.16H163c-6.89-1.78-17.23-4.71-23-5.68Z"/>
<path fill="#004a98" d="M144.42,191.61a33.36,33.36,0,0,0,.74,7.17c.28-1,.16-3.06.32-7.17.1-2.61.24-7.84.38-13.6l-1.61.81C144.28,183.93,144.34,188.66,144.42,191.61Z"/>
<path fill="#004a98" d="M144.23,176.21l1.7-.92c0-1.41.07-2.82.1-4.23l-1.81,1.13C144.22,173.53,144.23,174.87,144.23,176.21Z"/>
<path fill="#004a98" d="M185.87,140.11c-5.07.92-9.75,1.74-14.11,2.14,1.73.53,3.34,1.06,4.81,1.56,1.71-.11,3.48-.24,5.31-.41C183.2,142.33,184.53,141.22,185.87,140.11Z"/>
<path fill="#004a98" d="M239.58,126.85q2.38-.66,4.8-1.37C258.09,94.6,277,60.31,288.54,40.18,275.54,58.67,253.12,92.94,239.58,126.85Z"/>
<path fill="#004a98" d="M247.12,128.45c12.62-4.13,26.13-9.18,41.22-15.64-14.71,5.61-28.14,10-40.33,13.6C247.71,127.09,247.41,127.77,247.12,128.45Z"/>
<path fill="#004a98" d="M237.8,131.45l4.6-1.46,1-2.25c-1.57.44-3.12.87-4.65,1.28Q238.25,130.24,237.8,131.45Z"/>
<path fill="#004a98" d="M337.88,88.33l-2.19,1.1-.23.12-.14.07a479.11,479.11,0,0,1-45.48,19.3c.05-1.32.08-2.65.08-4A104.52,104.52,0,0,0,281,62.6c10-19,17.56-32.41,17.78-32.8h0l1.61-3.29-.37-9.6L298.31,19,273.7,48.9A104.94,104.94,0,1,0,116.06,184.07c-11,4.69-19.09,5.47-19.18,5.48l-1,.09,3.86,4.13,0,.06c.12,0,13.2-1.4,23.16-4.23h0A104.95,104.95,0,0,0,289.12,118c14.38-6.78,30.89-15.64,44.29-22.47l3.44-6h0Zm-2.57,2.36L332.73,94c-25.66,13.06-53.34,27.35-86.9,38.23-7.85,18.22-15.1,36-15.1,49.16l-.29,16.2a2,2,0,0,1-1.83,1.55.9.9,0,0,1-.79-.41c-.4-.58-.78-3.57-.94-4.24-3.14-13.22-10.48-28.19-32.4-40.47-2.42-1.17-4.91-2.27-7.45-3.3a218.31,218.31,0,0,1-38.88,26.16c-.15,6.19-.31,11.94-.42,14.8,0,.66-.06,1.32-.11,2s-.11,1.16-.19,1.73-.15,1-.24,1.51-.18.85-.3,1.27a10.24,10.24,0,0,1-.33,1,6.2,6.2,0,0,1-.36.79,3.37,3.37,0,0,1-.38.55,1.44,1.44,0,0,1-.39.31.64.64,0,0,1-.4.06.8.8,0,0,1-.49-.3,2.48,2.48,0,0,1-.32-.55,7.58,7.58,0,0,1-.28-.8c-.09-.35-.17-.71-.24-1.07s-.14-.87-.2-1.31-.12-1-.16-1.54-.1-1.19-.13-1.78-.06-1.26-.07-1.89c-.08-2.66-.14-7.19-.17-12.22A142.19,142.19,0,0,1,120.8,188h0l0,0-.85.27a129,129,0,0,1-20.19,4.13l-1.84-2,.9-.14,0-.06,1-.11a78.44,78.44,0,0,0,13-3.69l.33-.13a193.84,193.84,0,0,0,29.77-15.07c0-7.82,0-15.08.21-16.94.11-1.25.43-5,2.57-5.06a1.59,1.59,0,0,1,1.11.47,6.41,6.41,0,0,1,1.75,4.7c0,1.92-.08,7.29-.21,13.46a353.68,353.68,0,0,0,28.92-20.74l-2.24-.75c-21.46.89-34.36-3.69-37.14-7.05a2.54,2.54,0,0,1-.66-3.54,3,3,0,0,1,3-1.35c7.85,1.32,18.76,4,27.57,6.5,8-.43,8.88-.55,20.1-2.52,24.47-20.62,53.38-49.16,86.29-88.61h0L283.15,39q7.92-9.75,16.12-20.33l-.58,7.63c-.47.78-29.07,51.64-49.66,97.86,25.09-7.57,52.59-18.11,86.65-34l-.47.6Z"/>
<path fill="#004a98" d="M185.29,147.43c1.17-1,1.32-1.11,2.51-2.13l-5.63.55C183.85,146.54,183.69,146.7,185.29,147.43Z"/>
<path fill="#004a98" d="M215.63,168.88l.12.13-.05-.06Z"/>
<path fill="#004a98" d="M195.68,138.38l-.34.05c-2.32.38-4.57.79-6.74,1.18-1.44,1.2-2.87,2.39-4.28,3.54,1.14-.12,2.3-.25,3.49-.4l3.46-.46C192.73,141,194.2,139.7,195.68,138.38Z"/>
<path fill="#004a98" d="M193.33,145c-1.67,1.46-2.58,2.63-4.23,4l1.25.61c10.29,4.62,19.66,10.46,26.79,18.28A50.5,50.5,0,0,1,225,179.05q-.26-18,8.92-43.07A277.25,277.25,0,0,1,193.33,145Z"/>
<path fill="#004a98" d="M228.34,171.76c1.66-10.2,6-22.84,12.41-37.88-1.46.46-2.89.89-4.33,1.33C231.93,147.92,228.9,160.39,228.34,171.76Z"/>
</svg>
