<?xml version="1.0" encoding="UTF-8"?>
<svg xmlns="http://www.w3.org/2000/svg" viewBox="0 0 219.911 25.364">
<title>Air Premia</title>
<desc>Air Premia logo</desc>
<metadata xmlns:rdf="http://www.w3.org/1999/02/22-rdf-syntax-ns#" xmlns:Airline="http://schema.org/Airline">
<rdf:RDF>
<Airline:name>Air Premia</Airline:name>
<Airline:iataCode>YP</Airline:iataCode>
<Airline:url>https://airlinelogos.aero/YP</Airline:url>
</rdf:RDF>
</metadata>
<g transform="translate(-84.089 -86.124)">
  <path d="M100.811,94.486a8.361,8.361,0,1,0-16.722,0v8.64a8.361,8.361,0,1,0,16.722,0Z" fill="#ff5800"/>
  <path d="M262.035,86.125a8.346,8.346,0,0,0-6.5,3.109,8.355,8.355,0,0,0-14.857,5.253V110.8h3.73V94.487a4.631,4.631,0,1,1,9.262,0V110.8h3.73V94.487a4.631,4.631,0,1,1,9.262,0V110.8H270.4V94.487a8.371,8.371,0,0,0-8.362-8.362" fill="#1b2b45"/>
  <path d="M227.485,107.758a4.637,4.637,0,0,1-4.631-4.631v-2.1h8.154V97.3h-8.154v-2.81a4.631,4.631,0,1,1,9.262,0h3.731a8.361,8.361,0,1,0-16.722,0v8.641a8.361,8.361,0,1,0,16.722,0h-3.731a4.636,4.636,0,0,1-4.631,4.631" fill="#1b2b45"/>
  <rect width="3.73" height="24.034" transform="translate(136.351 86.768)" fill="#1b2b45"/>
  <path d="M126.431,101.013a4.627,4.627,0,0,1-9.255,0h0V94.487a4.631,4.631,0,1,1,9.262,0v6.526ZM121.8,86.125a8.37,8.37,0,0,0-8.36,8.362V110.8h3.729v-2.839a8.33,8.33,0,0,0,9.262,0V110.8h3.731V94.487a8.371,8.371,0,0,0-8.362-8.362" fill="#1b2b45"/>
  <rect width="3.73" height="24.034" transform="translate(276.972 86.768)" fill="#1b2b45"/>
  <path d="M300.266,101.013a4.628,4.628,0,0,1-9.255,0h0V94.487a4.631,4.631,0,1,1,9.261,0v6.526Zm-4.628-14.888a8.371,8.371,0,0,0-8.361,8.362V110.8h3.731v-2.839a8.328,8.328,0,0,0,9.261,0V110.8H304V94.487a8.371,8.371,0,0,0-8.362-8.362" fill="#1b2b45"/>
  <path d="M184.366,99.109h-4.627V94.486a4.628,4.628,0,1,1,4.627,4.623m8.365-4.623a8.371,8.371,0,0,0-8.362-8.361h0a8.366,8.366,0,0,0-8.357,8.357V110.8h3.73v-7.963h4.627a8.366,8.366,0,0,0,8.357-8.353Z" fill="#1b2b45"/>
  <path d="M150.385,99.109V94.486a4.628,4.628,0,1,1,4.627,4.623Zm9.879,1.865a8.339,8.339,0,0,0,3.1-6.488h.008a8.371,8.371,0,0,0-8.361-8.361h0a8.367,8.367,0,0,0-8.357,8.357V110.8h3.73v-7.963h4.627a4.633,4.633,0,0,1,4.628,4.628V110.8h3.729v-3.335a8.346,8.346,0,0,0-3.1-6.493" fill="#1b2b45"/>
  <path d="M201.3,99.109V94.486a4.628,4.628,0,1,1,4.627,4.623Zm9.879,1.865a8.339,8.339,0,0,0,3.105-6.488h.008a8.371,8.371,0,0,0-8.361-8.361h0a8.367,8.367,0,0,0-8.357,8.357V110.8h3.73v-7.963h4.627a4.633,4.633,0,0,1,4.628,4.628V110.8h3.729v-3.335a8.343,8.343,0,0,0-3.105-6.493" fill="#1b2b45"/>
</g>
</svg>
