<?xml version="1.0" encoding="UTF-8"?>
<svg xmlns="http://www.w3.org/2000/svg" viewBox="0 0 294 144">
<title>Bek Air logo</title>
<g>
	<g>
		<g>
			<g>
				<path fill="#FEE300" d="M85.9,48h22.7c2.2,0,3.9,0.6,5,1.7c1.2,1.1,1.8,2.6,1.8,4.3c0,0.3,0,0.6-0.1,0.9c0,0.3-0.1,0.6-0.1,0.7
					c-0.7,3.6-2.3,5.8-4.6,6.5c0.9,0.6,1.6,1.2,2.1,1.9c0.4,0.7,0.7,1.7,0.7,3.1c0,1.2-0.2,3-0.7,5.2c-0.8,3.7-2.1,6.2-3.9,7.6
					c-1.6,1.2-4,1.9-7.4,1.9H82c-0.6,0-1-0.2-1.2-0.5c-0.3-0.3-0.4-0.7-0.4-1.3c0-0.2,0-0.5,0.1-0.8l6.6-28.8c0.1-0.4-0.1-0.7-0.4-1
					s-0.7-0.5-1.1-0.5L85.9,48z M95.4,74.4h3.2c0.9,0,1.8-0.4,2.2-0.8c0.3-0.4,0.7-1.2,1-2.6c0.2-0.9,0.3-1.7,0.3-2.3
					c0-1.1-0.9-1.7-2.1-1.7h-2.9L95.4,74.4z M98.6,60.5h3.5c0.6,0,1.2-0.2,1.5-0.5c0.2-0.3,0.5-0.8,0.7-1.6s0.3-1.4,0.3-1.8
					c0-0.9-0.8-1.3-1.7-1.3h-3L98.6,60.5z"/>
			</g>
			<path fill="#FEE300" d="M285.4,48.1h-22.6l-0.3,1.1c0.4,0,0.7,0.2,1.1,0.5c0.3,0.3,0.5,0.7,0.4,1l-6.6,28.7
				c-0.1,0.3-0.1,0.6-0.1,0.8c0,0.5,0.1,0.9,0.4,1.3c0.3,0.3,0.7,0.5,1.2,0.5h13.5l0.2-1.1c-0.4,0-0.8-0.1-1-0.3
				c-0.3-0.2-0.4-0.5-0.4-0.8v-0.5l2.5-10.8l3.2,11.3c0.2,0.7,0.6,1.2,1.2,1.6s1.3,0.7,2.2,0.7h5.7c2,0,3.2-0.8,3.5-2.3l1.2-5.6
				h-1.4c-0.5,0-0.9-0.1-1.3-0.4s-0.7-0.6-0.9-1l-1.7-4.5c2-0.5,3.5-1.4,4.6-2.8s1.9-3.5,2.6-6.5c0.1-0.5,0.2-1.1,0.3-2
				c0.1-0.5,0.1-1.1,0.1-1.7C293,50.5,290.5,48.1,285.4,48.1z M281.6,57.9c-0.1,0.3-0.1,0.7-0.2,1.1c-0.4,1.9-1.5,2.8-2.6,2.8h-3.5
				l1.4-6.1h3.5c0.8,0,1.5,0.5,1.5,1.4C281.6,57.3,281.6,57.6,281.6,57.9z"/>
			<path fill="#FEE300" d="M257.4,50.5l-6.7,28.9c-0.1,0.3,0.1,0.7,0.4,1c0.4,0.3,0.7,0.5,1.1,0.5l-0.3,1.1h-13.5c-1,0-1.6-0.5-1.6-1.6
				c0-0.1,0-0.4,0.1-0.8l6.7-28.9c0.1-0.3-0.1-0.7-0.4-1c-0.3-0.3-0.7-0.5-1-0.5l0.2-1.1H256c0.6,0,0.9,0.1,1.2,0.4
				c0.2,0.3,0.4,0.7,0.4,1.2L257.4,50.5z"/>
			<path fill="#FEE300" d="M182.2,74.1l-1.3,5.7c-0.2,0.7-0.6,1.3-1.2,1.6c-0.6,0.4-1.8,0.5-3.5,0.5h-3.3c-0.7,0-1.4-0.3-2.1-0.8
				c-0.6-0.5-1.1-1.1-1.4-1.8l-4.2-10.4l-3.4,3.2l-1.7,7.3c0,0.4,0.2,0.7,0.5,0.9c0.3,0.3,0.7,0.4,1,0.4l-0.2,1.1h-13.6
				c-1.1,0-1.6-0.5-1.6-1.6c0-0.2,0-0.4,0.1-0.8l6.7-28.8c0.1-0.3-0.1-0.7-0.4-1c-0.4-0.3-0.7-0.5-1.1-0.5l0.3-1.1h13.5
				c1,0,1.6,0.5,1.6,1.6l-0.1,1l-1.7,6.7c0,0,0.6-0.7,1.5-1.7c1-1.1,4-4.3,4-4.3c0.3-0.3,0.4-0.6,0.4-0.9c0-0.3-0.1-0.6-0.3-0.8
				s-0.4-0.3-0.6-0.3l0.3-1.1h12.4c0.6,0,1.1,0.2,1.4,0.5c0.3,0.4,0.5,0.8,0.5,1.2c0,0.5-0.2,0.9-0.6,1.4l-9.9,9.4l4.9,12.2
				c0.4,0.9,1,1.3,1.9,1.3L182.2,74.1L182.2,74.1z"/>
			<path fill="#FEE300" d="M121.6,48.1h25.8l-1.1,4.8c-0.2,0.9-0.7,1.6-1.3,1.9c-0.7,0.4-1.5,0.5-2.6,0.5h-6.8l-1.3,5.2h8.1l-0.9,4.1
				c-0.2,0.7-0.6,1.3-1.3,1.7c-0.7,0.4-1.5,0.7-2.4,0.7h-3c-1.3,0-2.2,0.7-2.5,2.2l-1.1,4.8h7.9c0.5,0,1-0.1,1.5-0.4
				c0.5-0.2,0.9-0.5,0.9-0.9h1.1l-1.8,7.5c-0.2,0.7-0.5,1.1-1.1,1.3c-0.6,0.2-1.3,0.3-2.2,0.3h-20c-0.6,0-1-0.2-1.2-0.5
				c-0.3-0.3-0.4-0.7-0.4-1.3c0-0.2,0-0.5,0.1-0.8l6.6-28.7c0.1-0.4-0.1-0.7-0.4-1s-0.7-0.5-1.1-0.5L121.6,48.1z"/>
			<path fill="#FEE300" d="M234.4,82h-12.6c-0.8,0-1.5-0.1-1.9-0.4s-0.6-0.8-0.7-1.4l-0.4-5h-7.6l-2,4c0,0.1,0,0.2,0,0.2s0,0.2,0,0.4
				c0,0.3,0.1,0.5,0.4,0.8c0.3,0.2,0.6,0.3,1,0.3l-0.2,1.1h-9.8c-1.4,0-2-0.5-2-1.6c0-0.3,0.1-0.6,0.2-0.9l14.3-28
				c0.1-0.2,0.1-0.4,0.1-0.7c0-0.4-0.2-0.7-0.5-1s-0.6-0.5-1-0.5l0.3-1.1h15.6c0.7,0,1.4,0.2,1.9,0.6c0.5,0.4,0.8,1,0.8,1.7
				l2.2,28.7c0,0.4,0.2,0.8,0.7,1.2c0.5,0.4,0.9,0.5,1.4,0.5L234.4,82z M218.3,59.2c0,0-2.9,6.6-3.4,7.6c-0.4,1-0.8,1.8-0.8,1.8h4.7
				c0,0-0.1-0.9-0.2-2C218.6,65.4,218.3,59.2,218.3,59.2z"/>
		</g>
	</g>
</g>
<g>
	<g>
		<path fill="#00758D" d="M65.9,67.4c-0.2-0.3-0.7-0.7-1.4-0.9c-0.1,0-0.2,0-0.3,0c-0.4,0-0.5,0.5-0.5,0.5s-0.5-0.1-0.8-0.1
			c-0.1,0-0.2,0-0.3,0c-0.4,0.1-0.2,0.5-0.6,2.3c-0.4,1.8-1.9,4.3-2.2,4.3l0,0c-0.3,0-0.6-0.3-2.2-1.6c-0.4-0.3-1-0.6-1.6-0.8
			c-0.4-0.8-1-1.7-1-1.7v-0.2c0,0,0.3,0,0.4-1c0.1-0.9,0.1-1.4,0.1-1.4s1.5,0,1.3-3.3c-0.1-3.2-1.9-5.8-3-6.4c0,0-0.6-2.8-1.2-3.2
			c0,0-0.3-1.4-0.9-2.8c-0.6-1.4-0.8-2.4-0.8-2.4s0.5-0.3,0.4-0.6s-0.5-0.5-0.7-0.8S50,45.9,50,45.9s0.1-1-0.2-1.5
			c0,0,0-2.1-1.1-4.1c-0.1-0.2-0.2-0.3-0.3-0.5c0.3-0.7,0.8-2.1,1.4-3.6c0.5-0.2,1-0.9,1.9-2c0.9-1.2,0.4-1.8-0.3-2
			c0.3-0.9,0.6-1.5,0.6-1.6c0.1-0.2,0-0.3-0.2-0.3c-0.1,0-0.2,0.1-0.3,0.2c0,0.1-0.3,0.7-0.6,1.6c-0.1,0-0.2,0-0.3,0s-0.3,0-0.4,0.1
			c-0.1-0.1-0.3-0.2-0.4-0.2c0.3-0.9,0.6-1.5,0.6-1.6c0.1-0.2,0-0.3-0.2-0.3c-0.1,0-0.2,0.1-0.3,0.2c0,0.1-0.3,0.7-0.6,1.6
			c-0.1,0-0.2,0-0.3,0s-0.3,0-0.4,0.1c-0.1-0.1-0.3-0.2-0.4-0.2c0.3-0.8,0.6-1.5,0.6-1.6c0.1-0.2,0-0.3-0.2-0.3
			c-0.1,0-0.2,0.1-0.3,0.2c0,0.1-0.3,0.7-0.6,1.6c-0.1,0-0.2,0-0.3,0c-0.5,0-0.7,0.3-1.1,1.3c-0.4,1.1-0.4,2.3-0.1,2.7
			c-0.2,0.6-0.4,1.1-0.5,1.4c-0.3-0.2-0.7-0.4-1.2-0.4c-0.9-0.1-1.4-0.1-1.6-0.1c-0.1,0-0.2,0-0.2,0s-0.4-2-0.4-7.3
			c-0.3-3.8-0.5-8.5-0.8-12.5c0.2-0.7,0.3-1.2,0.5-1.5c0.5-0.8,0.6-1.7,0.3-1.7l0,0c-0.3,0.1-0.6,0.1-0.9,0.2
			c-0.2-1.9-0.4-3.5-0.5-4.5l0,0L41,8.8c0.7,0.7,0.8,1.1,1.3,1.1l0,0c0.5,0,0.8-0.6,0.9-1c0.1-0.4-0.3-1.9-1-3.1
			C41.5,4.7,41,4,40.1,4l0,0c-0.9,0-1.5,0.6-1.5,1.8c0,1.1,0.3,1.3,0.6,1.5c0,0.1,0,0.2,0,0.2l-0.1,1.2c-0.5,1.2-1.3,3.2-2.2,5.5
			c0-0.3,0.1-0.6,0-0.8c0-0.1,0-0.2-0.1-0.2c-0.3,0-1.3,2.5-1.3,2.5s-0.2-0.3-0.4-0.3c-0.1,0-0.2,0.2-0.2,0.7c0,1.3-1.5,6.7-1.5,6.7
			l0,0c-0.6,1.5-1,2.5-1.1,2.7c-0.4,0.9-0.3,1.7-0.3,1.7s-0.1,0.1-0.2,0.9c0,0.6,0,0.7,0.1,0.7l0,0c0,0-0.5,5.5-0.6,6.6
			c-0.1,1-0.7,1.2-0.7,1.2s-0.3,1.7,0.3,2.2c0.3,0.2,0.5,0.3,0.6,0.3s0.1,0,0.1,0c0.1,0.3,0.2,0.7,0.2,0.7s-1.6,0.5-2.5,1.7
			c0,0-0.3,0-0.5,0c-0.1,0-0.2,0-0.2,0c0-0.1-0.3-0.3-0.7-0.3c-0.1,0-0.2,0-0.3,0c0,0-2.8,0.5-3.4,2.7c-0.3,1.2-0.4,2.3-0.4,3.3
			C22.9,47,22.7,47,22.6,47s-0.1,0-0.1,0l-0.6-0.4c0-0.5,0-1.9,0-2.1c0-0.4,0.4-0.5,0.4-0.5c-0.1-0.4-0.5-1.1-1.3-1.1
			c-0.1,0-0.2,0-0.4,0c-0.3,0.1-0.7,0.5-0.8,1.1c0,0.6,0,1.6-0.3,2.4c0,0-0.2-0.1-0.5-0.1s-0.7,0.2-0.9,0.9c-0.3,1.4-1,4.8,0.3,8.3
			l-0.3,3.1c-0.3,0.1-0.5,0.3-0.5,0.6c0,0.5,0.2,0.6,0.2,0.6s-0.5,0.4-0.4,1c0.2,0.6,0.4,0.6,0.4,0.6s-0.1,0.5,0.1,0.9
			s0.5,0.4,0.5,0.4s-0.2,0.5,0.2,0.8c0.4,0.3,1,0.3,1.7,0.4c0.1,0,0.1,0,0.2,0c0.5,0,0.9-0.2,1.2-0.4c0.5,0.2,1.2,0.4,2.1,0.4h0.1
			c1.6,0,2-0.2,2-0.2l-0.4,1.8L25.1,66c0,0-0.3,1.5-0.3,1.6c0,0.2,0.6,0.7,0.6,0.7s-0.6,5.4,0.5,9.7c0,0-0.3,0.9-0.1,1.6
			s0.3,0.8,0.3,0.8s0.2,2,1,3.3c0,0,0,1.2,0.6,3.1c0,0-0.4,0.1-0.2,1.1c0.2,1.1-0.1,3.4-0.1,3.4s-0.7-1.7-1.3-2.6
			c0,0,0.3-1.2-0.3-1.7c0,0-0.1-1.1-0.6-1.3c0,0,0.1-0.7-0.5-0.9c0,0,0.8-1.9,0.4-2.2c-0.2-0.1-0.6-0.2-1-0.2
			c-0.6,0-1.4,0.2-2.2,0.8c0,0-1.2-0.8-2.8-0.8c0,0,0,0-0.1,0c-1.5,0-2.3,0.6-3.9,2.6c0,0-0.5,0-0.6,0.7s-0.1,1.4,0,1.7
			c0.2,0.3,0.3,0.4,0.3,0.4s-0.7,1.1-0.3,2.2c0,0-0.2,1.2,0.4,1.9c0.6,0.7,1.2,0.8,1.7,0.8c0,0,0.2,0.5,0.9,0.5l0,0
			c0,0-0.1,1.5,0.9,1.8L18,99.6c0,0-3.9,2.8-4.7,4.5s-0.2,2.8-0.2,2.8l-0.3,2c0,0-0.1,0-0.3,0c-0.3,0-0.9,0.2-1.4,1.1
			c0,0-0.7,0.1-1.1,0.9c0,0-0.6,0.6-1.8,0.9l-1.5,0.3c0,0-0.6-0.6-1.5-0.6c-0.1,0-0.2,0-0.4,0c0,0-0.7-0.4-1.5-0.4
			c-0.4,0-0.7,0.1-1.1,0.3c0,0-0.1,0-0.2,0c-0.4,0-1.1,0.1-1.3,0.7c-0.3,0.8-0.3,1.3-0.3,1.3s-0.6,0.3-0.3,1.3
			c0.2,0.9,0.6,1.1,1,1.1c0.1,0,0.1,0,0.2,0c0.2,0,0.5,0,0.7,0s0.4,0,0.4,0s0.5,0.7,2.3,0.8c1.8,0.1,2.7,0.2,3.4,0.6
			c0.7,0.3,1,0.5,4.3,0.9c1,0.1,1.8,0.1,2.5,0.1c1.4,0,2.1-0.2,2.7-0.3l0,0c0.6,0,3.8,3.2,4.5,3.5c4.7,2.3,9.9,3.8,15.1,4.4l0,0
			c-0.2,0,0,2.5,0.1,2.8c0.4,0.9,1.3,1.6,2.3,2c0.6,0.3,1.2,0.5,1.7,0.6c1,0.3,1.5,0.4,1.7,0.5s0.3,0.2,0.4,0.3
			c1.1,1.6,2.1,2.9,2.9,4.9c0,0,0.5,1.5,2.6,3.9c0.1,0.1,0.3,0.2,0.5,0.2c0.3,0,0.7-0.2,0.7-0.2s0.3,0,0.6,0s0.6,0,0.7-0.1
			c0.3-0.2,0.7-0.5,0.7-0.9c0,0,1-0.3,1.3-0.6c0.4-0.5,0.9-1.4,0.4-2c-0.4-0.6-1.6-0.8-1.6-0.8s-0.7-0.8-1.6-0.8l0,0
			c0,0,0.1-1.1-0.3-2c-0.3-0.9-1.3-4.3-1.5-4.9c-0.1-0.2-0.1-0.3-0.2-0.4c0.2,0.1,0.4,0.1,0.6,0.3c1.7,1.2,4.2,1,4.7,1.6
			c1.2,1.5,2.2,2.7,3.1,4.8c0,0-0.5,0.7,0.4,2.1c0.6,0.9,1.1,1.1,1.3,1.1c0.1,0,0.2-0.1,0.2-0.1s0.4,0.3,0.8,0.7
			c0.1,0.1,0.3,0.1,0.5,0.1c0.4,0,0.7-0.2,0.7-0.2s0.1,0,0.3,0c0.3,0,0.8,0,1-0.2c0.3-0.2,0.6-0.5,0.6-0.9c0,0,0.7-0.3,0.9-0.7
			s0.6-1.1,0.2-1.7c-0.4-0.6-1.5-0.8-1.5-0.8s-0.5-0.6-1.2-0.6c-0.1,0-0.3,0-0.4,0.1c0,0,0.3-1.6-0.1-2.5c-0.4-0.9-1.5-4.2-1.8-4.9
			c-0.2-0.7-0.5-0.7-0.5-0.7s0.2-0.8-0.3-1.7c-0.5-0.9-1.3-0.9-1.4-0.9l0,0c0,0,1.5-1.4,1-3.7c-0.5-2.4-1.7-4.3-5.3-6
			c0,0,0.6,0,0.9-0.8c0.3-0.8,0-1.6-0.9-1.9c-0.3-0.1-0.6-0.2-0.9-0.2c-0.5,0-1,0.3-1.5,1c-0.8,1.3-0.2,2.5-0.2,2.5
			s-4.5-4.3-9.4-4.6c0,0-1.6-1.5-3-2.1c0,0,4.4-1.9,6.1-3.2c0,0,5.8,1.3,8.9,1.6c0.3,0,0.5,0,0.8,0c2.6,0,4-1.3,4.3-1.8
			c0,0,0.4-0.4,0.5-1.2c0,0,0.5-0.3,0.7-1.5c0.1-0.7-0.2-1-0.2-1s0.6-1.8-0.5-1.9V98c-0.5,0-1,0.4-1.6,0.8s-1.2,0.8-2,0.8
			c-0.1,0-0.2,0-0.3,0c-1.8-0.2-7.2-2.7-7.2-2.7s0-0.3-1.4-1c-0.7-0.3-1.4-0.6-2.3-0.6c-0.8,0-1.9,0.3-3.4,1.1c0,0,1.9-7.4,0.4-10.4
			c0.7-5.6-0.2-7.6-0.2-7.6s0.8-6.8,0.2-9.6c0,0,0.3,0,0.4-0.5l2,7.8c0,0-0.3,0.5,0.1,0.8c0.2,0.1,0.5,0.2,0.7,0.2
			c0.4,0,0.7-0.2,0.5-0.7c-0.1-0.3-0.3-0.4-0.3-0.4l-1.3-6.7c0.7,0.8,1.3,1.4,2.2,2.3c1.6,1.6,2.9,2.9,4.1,3c0.1,0,0.1,0,0.2,0
			c0.9,0,1.7-0.7,2-0.9c0.4,0.4,2,0.7,3,0.7l0,0c0.6,0,1.2-0.3,1.6-0.7l1.1,0.1c0,0,1.6,1.4,3,1.5h0.1c1.3,0,2.6-1.9,3.2-3.9
			c0.6-2,1-2.8,1.4-3c0.2-0.1,0.5-0.1,0.8-0.1c0.1,0,0.2,0,0.3,0c0.1,0,0.2,0,0.3,0c0.1,0,0.1,0,0.1,0
			C65.9,68.2,66.1,67.7,65.9,67.4z M22.6,58.8c0-0.2-0.1-0.3-0.2-0.4l0.2-0.1c0,0,0.3-0.6-0.1-0.9c-0.4-0.2-0.9-0.2-0.9-0.2l0.1-2.5
			c0,0,1.6-2.1,2.1-4.3l0,0h0.1c0,0,0.3,1.2,0.3,3.7v3.8C24.4,57.7,23.4,58.3,22.6,58.8z M54.7,117.5c1.2,1.9,0.7,3.4,0.7,3.4
			c-2.5-1.6-3.4-4.8-4.6-6.2C50.8,114.7,53.5,115.6,54.7,117.5z M48,35.9c0.3-0.1,0.5-0.4,0.9-0.8c0,0.4,0.1,0.8,0.2,1
			c-0.5,1.3-1,2.5-1.3,3.2c-0.3-0.4-0.6-0.6-0.9-0.8C47.2,37.9,47.6,37,48,35.9z M46.3,35.6c0.3-0.1,0.5-0.4,0.9-0.8
			c0,0.4,0.1,0.8,0.2,1c-0.4,1-0.7,1.9-0.9,2.4C46.2,38,46,38,46,38s-0.1-0.3-0.4-0.7C45.8,37,46,36.4,46.3,35.6z M50.1,70.4
			c-0.1,0.1,0,0.6,0.1,1.1c-0.5,0.6-0.7,1.3-0.7,1.3h-0.1c-2,0-6.3-5.2-7.7-7l-0.8-4.1c0,0,0.5-0.1,0.3-1c-0.2-0.8-0.8-1.1-0.8-1.1
			l-0.3-1.8l2.6-5.4c0,0,0.4,0.1,1,0.1c0.3,0,0.6,0,0.9-0.1c0,0,1.3,1.9,1.7,2.4c0.3,0.4,0.5,0.4,0.7,0.4c0.1,0,0.1,0,0.1,0l0.5,1.2
			c0,0-0.3,0.7,0.5,2.3s1.5,2.9,2.2,4.9c0.7,2,1.2,5.4,1.2,5.4S50.3,70.1,50.1,70.4z"/>
		<g>
			<path fill="#FEE300" d="M32.6,31c0.1,0,0.3,0,0.3,0l0,0c0.1,0,0.2,0,0.3-0.1c0.1,0,0.2-0.1,0.3-0.1s0.2,0,0.2,0.1
				c0.2,0.4-0.6,0.6-0.9,0.6C32.7,32,33,32,33.2,32.1c0.1,0.1,0.3,0.2,0.5,0.2c0.1,0,0.1,0,0.2-0.1c0,0,0-0.1,0.1-0.1l0,0
				c0.1,0,0.1,0.5,0.1,0.5L34,32.7c-0.1,0-0.2-0.2-0.3-0.2h-0.1l0,0c-0.1,0-0.3,0-0.4,0c-0.1,0-0.3,0-0.4,0.1c0.1,0,0.2,0.2,0.2,0.3
				s-0.2,0.2-0.2,0.4s0,0.3,0.2,0.4c0.2,0.1,0.4,0.1,0.6,0.2c0.3,0.1,0.6,0.1,0.8,0.1c0.3,0,0.6-0.1,0.9-0.2
				c0.4-0.2,0.8-0.3,1.2-0.4c0.1,0,0.2,0,0.3-0.1c0,0,0-0.1,0-0.2c0-0.3,0-0.7,0.1-1c0.1-0.6,0.3-1.1,0.5-1.7
				c0.1-0.3,0.1-0.6,0.1-0.9c0-0.2-0.2-0.4-0.3-0.6c-0.2-0.4-0.6-0.9-1-1.1c-0.6-0.2-1.3-0.2-1.9-0.2c-0.1,0-0.1,0-0.2,0
				c-0.2,0-0.4,0-0.6,0.2l-0.1,0.1l0.1,0.1l0,0h0.1c0.2-0.1,0.3-0.1,0.5-0.1c0.1,0,0.3,0,0.4,0l0,0l0,0h-0.1
				c-0.2,0.1-0.4,0.2-0.5,0.4l-0.1,0.1v0.1c0,0,0,0,0.1,0H34c0.2-0.1,0.4-0.1,0.7-0.1c0.2,0,0.4,0,0.6,0.1c0.1,0.1,0.3,0.2,0.4,0.2
				c0.1,0,0.1,0,0.1,0c0.1,0,0.1-0.1,0.1-0.2c0.1,0,0.2,0.1,0.2,0.2c0,0,0.2,0.3,0.1,0.3l0,0c-0.1,0-0.1,0-0.2,0
				c-0.6,0-1.1,0.4-1.6,0.4c-0.1,0-0.1,0-0.2,0c-0.2,0-0.5-0.1-0.7-0.2s-0.3-0.3-0.4-0.5c0-0.1-0.1-0.4-0.3-0.4c0,0,0,0-0.1,0
				s-0.1,0.1-0.1,0.2c-0.2,0.6-0.3,1.2-0.5,1.7c0,0.1-0.1,0.5,0,0.6C32.5,31,32.5,31,32.6,31z M34,30.4C34.1,30.4,34.1,30.4,34,30.4
				L34,30.4c0.1-0.1,0.2,0,0.2,0c0.2,0.1,0.4,0.3,0.6,0.4c0.2,0.1,0.4,0.3,0.7,0.4c0.1,0.1,0.4,0.1,0.1,0.3c-0.1,0-0.2,0.1-0.3,0.1
				s-0.1,0-0.2,0c-0.1,0-0.1,0-0.2,0l0,0h-0.1c-0.1,0-0.3,0-0.4-0.1c-0.2-0.1-0.4-0.3-0.5-0.5C33.8,30.7,33.9,30.6,34,30.4z"/>
			<path fill="#FEE300" d="M29.5,48.2c0.1,0,0.1,0,0.2,0c1.4,0,3.5-1.2,3.9-3.6c0.4-2.1-1.2-2.8-2.3-2.8c-0.2,0-0.3,0-0.5,0.1
				c0,0-0.1,0.1-0.2,0.4c-0.2,0.4-0.5,0.7-0.8,1.8c0,0.2-0.2,0.2-0.3,0.5c-0.1,0.4,0.1,0.4,0.1,0.6c-0.2,1.2-0.1,1.9-0.1,2.4
				C29.4,48,29.5,48.2,29.5,48.2z"/>
			<path fill="#FEE300" d="M52.5,62.2c0.7,1.8,1.5,3.2,2.6,3.2h0.1c1.2-0.1,1.3-1.6,0.6-3.9c-0.6-2.3-1.5-3.2-2.7-3.7H53
				C51.7,57.8,51.8,60.4,52.5,62.2z M54.3,60.7L54.3,60.7c0.2,0.1,0.1,0.2,0.1,0.4s0.1,0.3,0.1,0.5c0.1,0.1,0.1,0.2,0.2,0.3l0,0
				l0.1,0.1c0,0.1,0,0.2-0.1,0.2s-0.3-0.1-0.4-0.1C54.2,62,54,61.9,54,61.8c-0.1-0.2-0.2-0.6,0-0.8C54.1,60.8,54.2,60.7,54.3,60.7z"
				/>
			<path fill="#FEE300" d="M37.1,94.1c0.1-1.2,0.1-2.5,0.3-3.7c0.1-1,0.2-1.9,0.3-2.9c-0.1,0-0.2-0.1-0.3-0.1s-0.6-0.1-0.7-0.2
				c0,0,0-0.1-0.1-0.1c0-0.1,0-0.5,0-1h-0.1c-0.2,0-0.4,0-0.6,0.1c0,0.3,0,0.5-0.1,0.8v0.1c0,0.1-0.1,0.1-0.2,0.1l0,0
				c-0.1,0-0.2,0-0.3,0C35,87.1,35,86.8,35,86.6v-0.1c-0.1,0-0.1,0-0.1,0c-0.3,1.3,0.3,9.1,0.5,11.9c0.4-0.2,1-0.5,1.6-0.8
				C37,96.5,37.1,95.3,37.1,94.1z"/>
			<path fill="#FEE300" d="M36.6,87.2C36.6,87.2,36.6,87.3,36.6,87.2c0.2,0.2,0.6,0.2,0.8,0.3c0.1,0,0.2,0.1,0.3,0.1c0-0.1,0-0.2,0-0.3
				c0.4,0,0.9,0.2,1.3,0.4c0.2-1.4,0.3-4.2,0.3-5.2c0-1.3,0-2.7-0.4-3.9c-0.1-0.3-0.2-0.5-0.3-0.7l-0.1-0.1c0,0.1-0.1,0.1-0.2,0.2
				c-0.3-0.3-0.9-0.8-1.1-1.1c-0.1-0.1-0.2-0.2-0.3-0.3c-0.4-0.2-0.8-0.4-1.2-0.5c-0.7-0.3-1.6-0.4-2.4-0.4l0,0c0,0,0.3,2.3,0.3,2.5
				C34,80,35,81.5,36,83c0.3,0.5,0.5,0.9,0.6,1.5c0,0.1-0.1,1.2-0.1,2.1C36.6,86.7,36.6,87.1,36.6,87.2z"/>
			<path fill="#FEE300" d="M38.4,77.8c0.1-0.1,0.1-0.1,0.2-0.2c0.8-1.2,0.8-5.5,0.7-7.3c0-0.5-0.1-0.9-0.1-1.4c0-0.2-0.1-1.3-0.2-1.3
				c-1.1-0.5-2.6-1-4-1c-0.8,0-1.5,0.2-2.1,0.7c-0.1,1.7,0.9,5.1,1.2,7.1c1.3,0.4,2,0.9,2.9,2c0.1,0.1,0.2,0.2,0.3,0.3
				C37.5,77,38.1,77.4,38.4,77.8z"/>
			<path fill="#FEE300" d="M37.6,64.2c0.1-0.1,0.2-0.1,0.3-0.2c0.2-0.1,0.4-0.2,0.6-0.2h0.1c0.1,0,0.3,0,0.4,0.1
				c0.5,0.1,0.8,0.3,1.2,0.6c-0.1-0.5-0.2-1-0.3-1.4c-0.1-0.6-0.2-1.1-0.3-1.7c-0.3-1.2-0.6-1.8-0.6-3c0-0.1,0-0.2,0-0.2
				c0-0.1-0.1-0.1-0.2-0.1c-0.3-0.2-0.6-0.3-0.9-0.5c-0.8-0.4-1.7-0.5-2.5-0.5c-0.6,0-1.2,0.1-1.8,0.1s-1.2,0.1-1.8,0.2
				c-0.2,0-0.7,0-0.8,0.2c-0.2,0.2-1,4.9,0,8.3c1.4-0.7,2.9-1,4.5-1c0.1,0,0.2,0,0.2,0c0.7,0,1.3,0.1,1.9,0.2c0-0.2,0-0.3,0.1-0.5
				C37.5,64.5,37.5,64.3,37.6,64.2z"/>
			<path fill="#FEE300" d="M45.7,45.4c0.8,0.2,1.4,0.3,2.2,0.3c0.2,0,0.4,0.1,0.6,0.1c0.1,0,0.3,0,0.4-0.1c0.2-0.1-0.2-1.2-0.2-1.2
				s-0.2-2.6-0.7-3.8c-0.5-1.1-1.5-1.9-2.6-2.3c-0.6-0.2-1.2-0.3-1.8-0.3h-0.1c-1.2,0-2.8,0.3-2.9,1.8c-0.1,1.1,0.2,2.1,0.7,3
				C42.4,44.4,44,45.1,45.7,45.4z"/>
			<path fill="#FEE300" d="M38.3,16.7c-0.2,0.6-0.2,1.1-0.3,1.7c0.4-0.6,0.8-1.4,1.1-2.5c0.2-1,0.6-1.5,1.1-1.8
				c-0.1-1.6-0.2-3.1-0.4-4.8c-0.1-0.1-0.2-0.1-0.2-0.1c-0.1,0-0.2,0-0.2,0.1c-0.3,1.4-0.4,2.5-0.7,3.9c-0.1,0.6-0.1,0.6-0.2,1.2
				C38.5,14.9,38.5,16.1,38.3,16.7z"/>
			<path fill="#FEE300" d="M39,20.9c-0.4,0.3-0.9,0.7-1.1,1.1c-0.3,0.6-0.6,1.2-0.8,1.8c0,0.1-0.1,0.2-0.2,0.3c-0.1,0.2-0.7,0-1.1,0
				c0,0.1,0,0.5-0.1,0.6c0.1,0,0.2,0.1,0.3,0.2c0.2,0.2,0.2,0.4,0.2,0.6c0,0.3,0,0.4-0.1,0.6c-0.2,0.2-0.4,0.4-0.7,0.5l0,0
				c0,0.1-0.1,0.3-0.1,0.4l1,0.2c0.9,0.1,2.1,1,2.1,1.8c-0.1,1.6-0.4,4.7-1,5.4s-2.1,1.2-2.9,1.2c0,0,0.7,1.7,3,1.7
				c0.1,0,0.2,0,0.3,0c0.2,0,0.4,0,0.5,0c0.6,0,1.2,0.1,1.7,0.1c0.5,0.1,0.9,0.1,1.2,0.1c0.2,0,0.3,0,0.3-0.1
				c-0.2-1.2-0.4-4.8-0.4-8.5c-0.2-3.2-0.4-6.6-0.6-10.6C40.2,19.4,39.7,20.3,39,20.9z"/>
			<path fill="#FEE300" d="M36,23.6C36,23.6,36.1,23.6,36,23.6c0.2,0,0.3,0,0.3,0c0.3-0.1,0.3-0.4,0.4-0.7c0.1-0.2,0.2-0.5,0.3-0.8
				c0.2-0.5,0.6-1,1-1.4c0.2-0.2,0.4-0.3,0.5-0.5c1.7-1.3,2-4.8,2.5-5.6c0.4-0.7,0.6-1,0.3-1h-0.1c-0.3,0.1-0.7,0.2-1,0.4l-0.1,0.1
				c-0.5,0.3-0.9,0.9-1.1,1.8c-0.2,1-0.8,2.1-1.2,2.7c-0.2,0.3-0.4,0.6-0.4,0.6s0.1-1.7,0.4-2.9c0.4-1.3,0.2-2.4,0-2.8
				c-0.2-0.3-0.3-0.5-0.5-0.5c-0.1,0-0.2,0-0.3,0s-0.3,0.6-0.2,1.2c0.1,1-0.9,3.3-0.8,4.9c0.1,1.3-0.1,2.6-0.5,3.8
				c-0.1,0.2-0.1,0.4-0.2,0.6v0.1l0.1,0.1l0,0C35.6,23.6,35.8,23.6,36,23.6z"/>
			<path fill="#FEE300" d="M39.1,8.6c0,0,0.1,0,0.2,0c0.1,0,0.1,0,0.2,0c0.2,0,0.4,0.1,0.5,0.1h0.1c0.1,0,0.1-0.1,0.1-0.4
				c0-0.3,0-0.6,0-0.8c0-0.2-0.1-0.5-0.3-0.6c-0.1-0.1-0.4-0.1-0.5-0.1s-0.2,0-0.2,0C39,6.9,39,7.1,38.9,7.3c0,0.3-0.1,0.9-0.1,1
				C38.9,8.5,38.9,8.6,39.1,8.6z"/>
			<path fill="#FEE300" d="M39.6,6.3c0.1,0,0.2,0.1,0.3,0.1c0.6,0,1-0.5,0.9-0.8c0-0.4-0.4-1.1-1-1.2c-0.1,0-0.3-0.1-0.4-0.1
				c-0.3,0-0.6,0.1-0.6,0.4S38.9,6.1,39.6,6.3z"/>
			<path fill="#FEE300" d="M31.2,54.7C31.2,54.7,31.3,54.7,31.2,54.7c0.1,0,0.2,0,0.2,0s0.1,0,0.1,0.1c0.1,0.1,0.2,0.2,0.2,0.3
				c2.7-0.3,4.9-0.2,5-0.3c0.3-0.1,0.6-0.2,0.8-0.4c0.1,0,0.1-0.1,0.2-0.1l0,0c-0.3-0.3-0.5-0.8-0.4-1.2c0-0.1,0.1-0.1,0.1-0.2
				c0.2-0.2,0.4-0.3,0.6-0.4c0.2-0.1,0.4-0.1,0.6-0.1c0.1,0,0.2,0,0.3,0.1s0.3,0.1,0.4,0.2c0-0.1,0.1-0.1,0.1-0.2
				c0.2-0.4,0.5-0.7,0.7-1.1c0.1-0.1,0.1-0.2,0.2-0.3c0.6-1.2,1.5-3.2,1-4.4c-0.1-0.4-0.6-1.6-1-1.6l0,0c-0.2,0-0.3,0.1-0.5,0.2
				c-0.8,0.5-1.6,0.9-2.4,1.3c-0.2,0.1-0.5,0.2-0.7,0.3c-0.5,0.2-1,0.4-1.4,0.5c-0.3,0.1-0.6,0.2-0.9,0.3c-0.3,0.1-0.5,0.2-0.8,0.2
				c-0.9,1-2.5,1.6-3.9,1.9c0,1.1,0.2,2.1,0.3,3.1c0.1,0.7,0.2,1.2,0.4,1.9l0,0C30.7,54.7,31,54.7,31.2,54.7z"/>
			<path fill="#FEE300" d="M24,90.3L24,90.3c-0.3,0.1-0.4,0.6-0.2,0.8l0.1,0.1c0.2,0.1,0.4,0.2,0.6,0.2l0,0h0.1l0.1-0.1
				c0-0.1,0-0.2-0.1-0.2C24.5,90.8,24.3,90.3,24,90.3z"/>
			<path fill="#FEE300" d="M25,90.7h0.1h0.1c0.1,0,0.1-0.1,0.2-0.2v-0.1c0-0.1-0.1-0.2-0.1-0.3c-0.1-0.1-0.2-0.3-0.3-0.4
				c-0.1-0.2-0.3-0.3-0.5-0.4h-0.1l0,0l-0.1,0.1c-0.1,0.3-0.1,0.3,0.1,0.6C24.6,90.1,24.7,90.4,25,90.7C24.9,90.6,24.9,90.7,25,90.7
				z"/>
			<path fill="#FEE300" d="M25.6,89.6L25.6,89.6c0.1,0,0.1-0.1,0.2-0.1c0-0.1,0-0.2,0-0.2c0-0.2-0.2-0.5-0.3-0.6
				c-0.1-0.1-0.1-0.2-0.2-0.3c-0.2-0.2-0.5-0.3-0.7-0.3l0,0h-0.1c-0.1,0.1-0.2,0.4-0.1,0.5s0.2,0.2,0.3,0.2
				C25,88.9,25.3,89.2,25.6,89.6C25.6,89.5,25.6,89.6,25.6,89.6z"/>
			<path fill="#FEE300" d="M19.8,102.1c0.5,0,1,0.1,1.5,0.3c1-1.5,2.6-2.6,4.3-2.8c0.6-0.1,1.1-0.1,1.7-0.1c0.1,0,0.1,0,0.2,0
				s0.2,0,0.3,0c0.1,0,0.3,0,0.4,0.1c0.3,0.1,0.5,0.3,0.6,0.5c0.3-2.2-0.4-4.4-1.1-6.5l0,0c-0.1-0.3-0.2-0.7-0.4-1
				c-0.2-0.5-0.5-0.9-0.8-1.4c-0.1-0.1-0.5-0.7-0.6-0.7c0,0-0.1,0-0.1,0.1c0,0.4-0.1,0.9-0.2,1.3c-0.2,0.6-0.4,1.1-0.7,1.6
				c-0.6,1-1.3,1.9-2.2,2.6c-0.4,0.3-0.9,0.6-1.3,1c-0.5,0.4-0.9,0.9-1.4,1.5s-0.9,1.1-1.3,1.8c-0.3,0.6-0.5,1.4-0.4,2.1
				C18.7,102.2,19.2,102.1,19.8,102.1z"/>
			<path fill="#FEE300" d="M54.8,101.7c1.3,0,1.9-0.6,2.6-1.1c0.9-0.7,1-1.7,0.8-2c0-0.1-0.1-0.1-0.2-0.1c-0.3,0-0.8,0.4-1.7,1.1
				c-0.6,0.4-1.1,0.6-1.7,0.6c-0.5,0-1.2-0.2-2-0.4c-1.7-0.6-5.7-2.2-5.7-2.2c-0.5,0.8-1.2,1.1-1.2,1.1s3.9,1.8,7.1,2.7
				C53.6,101.6,54.3,101.7,54.8,101.7z"/>
			<path fill="#FEE300" d="M58.1,100.5L58.1,100.5c-0.4,0.4-0.9,0.9-1.5,1.2c-0.6,0.4-1.1,0.6-1.8,0.6c-0.6,0-1.3-0.1-2.3-0.4
				c-2.3-0.6-7.5-2.8-7.5-2.8c-0.5,0.3-1.8,1-1.8,1s0.3,0.2,3.3,1.2c2.9,1,5.6,2,8,2c0.1,0,0.2,0,0.4,0c2-0.1,3.1-1.5,3.2-2.2
				C58.3,100.9,58.2,100.5,58.1,100.5z"/>
			<path fill="#FEE300" d="M56.3,103.8c-0.1,0-0.8,0.3-1.5,0.3h-0.1c-0.4,0-1.4,0-2.3-0.1c-2.7-0.4-10.3-3.1-10.3-3.1
				c-0.4,0.3-1.9,1.2-1.9,1.2s7.1,2,11.5,2.6c0.4,0.1,1,0.1,1.7,0.1C54.3,104.7,55.4,104.5,56.3,103.8L56.3,103.8z"/>
			<path fill="#FEE300" d="M22.1,49.7L22.1,49.7c0-0.2,0-0.4-0.1-0.6c0,0,0-0.1-0.1-0.1c-0.1-0.2-0.1-0.4-0.2-0.6
				c-0.1-0.2-0.2-0.3-0.3-0.5c0-0.1,0-0.1-0.1-0.2c-0.1-0.2-0.1-0.5-0.4-0.6h-0.1c-0.1,0-0.2,0.1-0.3,0.2c-0.2,0.5-0.4,0.9-0.8,1.3
				c-0.1,0.2-0.3,0.3-0.4,0.5c0,0.1-0.2,0.6-0.1,0.7h0.1c0.2,0,0.3-0.1,0.5-0.2c0.3-0.3,0.5-0.6,0.9-0.7h0.1c0.2,0,0.5,0.1,0.7,0.3
				c0.1,0.1,0.1,0.2,0.2,0.3C21.9,49.6,22,49.7,22.1,49.7z"/>
			<path fill="#FEE300" d="M35.8,108.9c-1.7,0-3.4,0.6-4.6,1.7c1,0.5,2.1,0.6,3.1,0.8c0.2,0,0.3,0.1,0.5,0.1c1.4,0.4,2.7,1,4,1.7
				c0.4,0.2,0.8,0.5,1.1,0.8c0.8,0.7,1.3,1.9,2.3,2.5c0.5,0.3,1.2,0.4,1.8,0.6c0.7,0.3,1.4,0.6,2,1c0.5,0.3,1.1,1.4,1.4,1.9
				c0.5,0.7,0.8,1.5,1.2,2.2c0.8,1.1,1.4,1.5,2.6,1.9c1.5,0.5,2.9,1,4.6,1.1h0.1c0.3,0,0.7-0.1,0.8-0.4c0.1-0.2-0.1-0.5-0.2-0.6
				c-1-1.3-2.7-1.7-3.6-3.2c-1-1.6-1.9-3.2-2.7-4.9c-0.5-1.1-1.1-2.3-2.4-2.5c-0.1,0-0.3,0-0.4,0c-0.5,0-1,0.1-1.4,0.1
				c-0.5,0.1-1,0.1-1.4,0.1c-0.2,0-0.4,0-0.6,0c-1.8-0.4-2.7-1.4-3.4-2.6c-0.6-1.2-2-1.8-3.8-2.2C36.5,108.9,36.2,108.9,35.8,108.9z
				"/>
			<path fill="#FEE300" d="M44.9,50c1.7-1.1,3.4-1.6,5.5-1.8c0,0-0.2-0.8-1.3-0.9c-3.4,0.4-5.6,2-5.6,2S44.2,49.6,44.9,50z"/>
			<path fill="#FEE300" d="M24.6,87.1c-0.2,0.1-0.2,0.2-0.1,0.4c0,0.2,0.1,0.1,0.5,0.2s0.5,0.4,0.7,0.4c0,0,0,0,0.1,0
				c0.2-0.1-0.1-0.7-0.3-0.8c-0.2-0.1-0.4-0.2-0.6-0.2C24.8,87,24.7,87,24.6,87.1z"/>
			<path fill="#FEE300" d="M24.3,85.9c-0.2,0-0.3,0-0.3,0.2c0,0.1,0.1,0.3,0.2,0.4c0,0,0.1,0,0.2,0h0.1h0.1c0.3,0,0.5,0,0.7,0.1
				c0.1-0.1-0.1-0.4-0.2-0.5s-0.4-0.2-0.6-0.2C24.4,85.9,24.4,85.9,24.3,85.9z"/>
			<path fill="#FEE300" d="M24,85.3c0.1,0,0.1,0,0.1,0c0.1,0,0.1,0,0.2,0h0.1h0.1h0.1l0.1-0.1h-0.1h-0.1c-0.1-0.1-0.3-0.1-0.4-0.2H24
				c-0.1,0-0.2,0-0.3,0.1C23.5,85.2,23.8,85.3,24,85.3z"/>
			<path fill="#FEE300" d="M20.4,89.9c0.1-0.2-0.1-0.7-0.3-0.8c-0.4-0.2-0.8-0.4-1.3-0.4c-0.2,0-0.4,0-0.6,0.1
				c-0.1-0.3,1.1-0.4,1.2-0.4c0.3,0,0.6-0.1,0.9-0.1s0.5,0,0.8,0.1c0.5,0.2,0.9,0.3,1.4,0.5c0.2,0.1,0.4,0.2,0.5,0.2
				c0.7,0,0.8-0.9,0.8-2.2c-0.1-1.6-0.9-2.3-1.2-2.4c-0.3-0.1-0.4,0-0.7-0.2c-0.3-0.1,0-0.5-1.3-1.1C20.3,83.1,20,83,19.7,83
				c-0.9,0-1.6,0.6-2.1,1.1c-0.7,0.6-0.4,1,0,1.2c-0.7,0.3-0.7,0.7-1.1,0.8c-0.3,0.1-0.6,0.1-0.9,0.6c-0.3,0.5-0.4,3.3-0.2,3.7
				c0,0.1,0.1,0.2,0.3,0.2c0.3,0,0.9-0.4,1.2-0.4l0,0c0.4,0,0.2,0.5,0.5,0.7c0.1,0.1,0.3,0.1,0.5,0.1c0.4,0,0.9-0.1,1.6-0.4
				C19.8,90.5,20.3,90.3,20.4,89.9z M17.4,86.6c-0.1,0-0.1,0-0.2,0s-0.1,0-0.2,0s-0.1,0-0.2-0.1c-0.1-0.2,0-0.4,0.2-0.5
				c0.3-0.2,0.6-0.5,0.9-0.6c0.5-0.3,1.1-0.4,1.7-0.4c0.3,0,0.7,0.1,1,0.2s0.7,0.3,0.9,0.6c-0.3,0.4-0.6,0.9-0.9,1.3
				c-0.4,0.4-0.8,0.7-1.3,0.7l0,0c-0.1,0-0.3,0-0.4-0.1c-0.2-0.1-0.3-0.4-0.4-0.5C18.1,86.7,17.8,86.6,17.4,86.6z"/>
			<path fill="#FEE300" d="M18.9,85.8c0.1,0.1,0.1,0.4,0.1,0.5l0,0l0,0c0.1,0,0.1,0,0.2,0c0.3,0,0.6-0.1,0.9-0.2
				c0.1-0.1,0.2-0.1,0.2-0.3c0-0.1,0-0.1-0.1-0.2c0-0.1-0.1-0.1-0.1-0.2c-0.1,0-0.1-0.1-0.2-0.1c-0.2,0-0.3-0.1-0.4-0.1
				c-0.2,0-0.4,0-0.7,0.1c-0.1,0-0.1,0.1-0.1,0.1C18.8,85.7,18.9,85.8,18.9,85.8z"/>
			<path fill="#FEE300" d="M19.1,111.1c1.7,0.3,2,0.5,2.9,1.3c0.3,0.2,0.6,0.3,1.1,0.3c1,0,2.2-0.5,2.2-0.5s0-1-1.4-1c-1.3,0-2,0-2.3-1
				c0,0,0.1-0.3,1-0.3c0.3,0,0.6,0,1,0.1c1.8,0.3,2.3,0.7,3.4,1.6c0,0,1.2-1,0.6-2.6c-0.4-1.3-1.8-1.7-2.9-1.7c-0.3,0-0.5,0-0.8,0.1
				c-1.1,0.2-2.5,0-3.6,0.9s-0.9,1.2-1.9,1.2s-1.2,0.2-1.2,0.2S17.4,110.8,19.1,111.1z"/>
			<path fill="#FEE300" d="M15,111c0,0.1,0,0.3,0.2,0.3l0,0h0.1c0.1-0.1,0.2-0.3,0.3-0.4c0.1-0.2,0.2-0.4,0.3-0.6
				c0.1-0.1,0.4-0.3,0.4-0.4c0.2-0.4-0.3-0.5-0.6-0.5h-0.1c-0.2,0-0.5,0.1-0.7,0.3c-0.1,0.2-0.1,0.4-0.1,0.5
				C15,110.5,15,110.7,15,111z"/>
			<path fill="#FEE300" d="M13.5,110.8c0.1,0.1,0.2,0.1,0.4,0.1H14c0.1,0,0.1,0,0.2,0c0.1,0,0.1-0.2,0.2-0.3c0.1-0.3,0.1-0.7,0.2-1
				c0-0.2,0.1-0.4,0-0.6c-0.1-0.1-0.2-0.2-0.3-0.2c-0.3,0-0.7,0.5-0.8,0.7s-0.1,0.4-0.1,0.7C13.2,110.4,13.3,110.7,13.5,110.8z"/>
			<path fill="#FEE300" d="M3.7,111.8c0,0-0.1,0-0.2,0c-0.7,0.2-0.8,0.9-0.8,1.5c0,0.1,0,0.2,0.1,0.3h0.1l0,0c0.1,0,0.3-0.1,0.4-0.2
				c0.1-0.1,0.1-0.3,0.2-0.5C3.5,112.7,4.2,111.8,3.7,111.8z"/>
			<path fill="#FEE300" d="M6.2,112.1C6,112,5.9,112,5.8,112s-0.1,0-0.2,0s-0.3,0-0.4,0.1c-0.3,0.1-0.9,0.7-0.6,1
				c0.1,0.1,0.2,0.1,0.3,0.1c0.4,0,0.9-0.5,1.2-0.7c0.1-0.1,0.2-0.2,0.3-0.3C6.2,112.2,6.2,112.2,6.2,112.1L6.2,112.1z"/>
			<path fill="#FEE300" d="M54.7,70.4c-0.4-0.6-1.1-1.2-1.9-1.2c-0.2,0-0.3,0-0.5,0.1c-0.3,0.1-0.5,0.3-0.7,0.5l0,0
				c0,0.1,0.1,0.1,0.1,0.2c0.2,0.1,0.5,0.3,0.6,0.5c0.2,0.5-0.2,0.8-0.2,1.3c0,0.2,0.1,0.4,0.3,0.4l0,0c0.1,0,0.2,0,0.2-0.1
				c0.1,0,0.2-0.1,0.2-0.1h0.1l0.1,0.1c0.2,0.2,0.4,0.3,0.6,0.3l0,0c0.3,0,0.5-0.2,0.8-0.2l0,0c0.1,0,0.1,0,0.2,0c0.1,0,0.1,0,0.2,0
				c0.2,0,0.3-0.1,0.3-0.4c0-0.5-0.3-0.9-0.5-1.3C54.8,70.5,54.7,70.4,54.7,70.4z"/>
			<path fill="#FEE300" d="M31.8,41.2c0.4,0,1.7,0.5,1.8,0.6c0.5,0.4,0.7,0.8,0.9,1.4c0.1,0.5,0.1,1,0.1,1.4c0,0.5-0.2,0.9-0.4,1.3
				c-0.1,0.3-0.1,0.4,0.1,0.4c0.2,0,0.5-0.2,0.7-0.3c0.4-0.2,0.7-0.5,1.1-0.7c0.8-0.4,1.5-0.9,2.2-1.5c0.3-0.2,0.7-0.5,1-0.7
				c0.4-0.3,0.4-0.3,0.3-0.8c-0.2-0.7-0.4-1.4-0.3-2.1c0-0.2,0.2-1.6,0.5-1.6c-2.3,0-4.7,0.6-6.9,1.2c-0.2,0-0.4,0.1-0.6,0.2
				c-0.4,0.2-0.5,0.9-0.6,1.3C31.7,41.3,31.7,41.2,31.8,41.2z"/>
			<path fill="#FEE300" d="M35.2,87.2c0.1,0,0.2,0,0.3,0l0,0c0.1,0,0.2,0,0.2-0.1V87c0-0.3,0.1-0.5,0.1-0.8c0-0.4,0-0.8,0-1.3
				c-0.1-0.4-0.1-0.8-0.3-1.2c-0.1-0.2-0.2-0.5-0.3-0.6c-0.2-0.2-0.4-0.3-0.6-0.3h-0.1c-0.3,0-0.6,0.2-0.6,0.5
				c0,0.2,0.1,0.3,0.2,0.4c0.3,0.6,0.5,1.3,0.6,2c0.1,0.3,0.1,0.5,0.1,0.8v0.1C34.9,86.8,34.9,87.1,35.2,87.2z"/>
			<path fill="#FEE300" d="M37.7,87.6c-0.1,1-0.2,1.9-0.3,2.9c-0.1,1.2-0.2,2.4-0.3,3.7c-0.1,1.2-0.1,2.4-0.2,3.6
				c0.8-0.4,1.6-0.8,2.1-1c0-0.2,0.1-0.4,0.1-0.6c0.2-1.1,0.3-2.2,0.5-3.3c0.2-1.1,0.4-2.1,0.3-3.2c0-0.6-0.2-1.3-0.6-1.7l-0.1-0.1
				c-0.1-0.1-0.2-0.1-0.3-0.2c-0.4-0.2-0.8-0.3-1.3-0.4C37.7,87.3,37.7,87.4,37.7,87.6z"/>
			<path fill="#FEE300" d="M30,100.7c-0.1,0-0.1,0-0.2,0h-0.1c-0.7-0.1-1.3-0.3-1.9-0.4c-0.1,0-0.2,0-0.3,0c-0.1,0-0.2,0-0.2,0
				c-0.7,0-1.5,0.2-2,0.7c-0.7,0.6-0.9,1.6-0.8,2.4c0.1,0.9,0.6,1.7,1.3,2.3c0.6,0.5,1.2,0.9,1.8,1.4c0.9,0.9,1.6,2,1.9,3.2
				c0.4-0.8,0.5-1.8,0.3-2.7c-0.2-0.9-0.6-1.8-1-2.6c0.3,0.1,0.6,0.2,0.9,0.2c0.4,0,0.8-0.1,1.2-0.3c0.9-0.4,1.6-1.2,2.4-1.8
				c0.8-0.7,1.7-1.2,2.7-1.8c0.7-0.4,1.4-0.8,2.1-1.2c2.5-1.3,5.1-2.4,7.7-3.5c-0.8-0.4-1.5-0.7-2.4-0.7c-0.3,0-0.5,0-0.8,0.1
				c-1.1,0.2-2,0.8-3,1.3c-0.1,0.1-0.3,0.1-0.4,0.2c-0.4,0.2-0.8,0.4-1.2,0.5c-0.4,0.2-0.9,0.4-1.3,0.6c-0.5,0.2-1.1,0.5-1.6,0.7
				c-0.2,0.1-0.4,0.2-0.5,0.3c-0.5,0.3-1.1,0.4-1.7,0.6c-0.1,0-0.2,0.1-0.3,0.1C31.5,100.4,30.7,100.7,30,100.7z"/>
		</g>
	</g>
</g>
<g>
	<path fill="#FFFFFF" d="M84.6,100.3c0,2.9-2.1,5.5-5,5.5c-2.2,0-3.6-1.5-3.6-3.6c0-2.9,2.1-5.5,5-5.5C83.4,96.7,84.6,98.4,84.6,100.3z
		 M78.2,102.2c0,1.2,0.6,2,1.7,2c1.6,0,2.6-2.1,2.6-3.9c0-0.9-0.4-2-1.7-2C79.2,98.3,78.2,100.5,78.2,102.2z"/>
	<path fill="#FFFFFF" d="M94.5,96.9l-1.1,6c-0.2,1-0.3,1.9-0.4,2.7h-1.8l0.2-1.5l0,0c-0.8,1.1-1.9,1.7-3,1.7c-1.3,0-2.3-0.7-2.3-2.5
		c0-0.5,0.1-1,0.2-1.6l0.9-4.9h2.1l-0.9,4.7c-0.1,0.4-0.1,0.9-0.1,1.2c0,0.7,0.3,1.2,1.1,1.2c1,0,2.1-1.1,2.4-2.9l0.8-4.2h1.9V96.9z
		"/>
	<path fill="#FFFFFF" d="M95.3,105.6l1-5.4c0.2-1.2,0.3-2.6,0.4-3.3h1.8c-0.1,0.6-0.1,1.2-0.2,1.8h0.1c0.6-1.2,1.5-2,2.7-2
		c0.1,0,0.3,0,0.4,0l-0.4,2c-0.1,0-0.2,0-0.4,0c-1.5,0-2.4,1.5-2.8,3.4l-0.7,3.5H95.3z"/>
	<path fill="#FFFFFF" d="M107.4,96.9l0.6,4.3c0.1,1,0.2,1.7,0.2,2.3h0.1c0.2-0.6,0.5-1.2,0.9-2.2l2.2-4.4h2.3l-4.8,8.7h-2.1l-1.5-8.7
		C105.3,96.9,107.4,96.9,107.4,96.9z"/>
	<path fill="#FFFFFF" d="M118.8,105.6c0-0.5,0.1-1.2,0.2-2h-0.1c-0.9,1.6-2,2.2-3.1,2.2c-1.6,0-2.6-1.2-2.6-3c0-3,2.1-6.1,6.1-6.1
		c0.9,0,2,0.2,2.6,0.4l-0.9,4.5c-0.2,1.3-0.4,2.9-0.4,4H118.8z M119.6,98.4c-0.2-0.1-0.5-0.1-0.9-0.1c-1.9,0-3.4,2.2-3.4,4.1
		c0,0.9,0.3,1.7,1.2,1.7c1,0,2.1-1.2,2.6-3.4L119.6,98.4z"/>
	<path fill="#FFFFFF" d="M122.7,105.6l2.4-12.7h2.1l-2.4,12.7H122.7z"/>
	<path fill="#FFFFFF" d="M136.1,96.9l-1.1,6c-0.2,1-0.3,1.9-0.4,2.7h-1.8l0.2-1.5l0,0c-0.8,1.1-1.9,1.7-3,1.7c-1.3,0-2.3-0.7-2.3-2.5
		c0-0.5,0.1-1,0.2-1.6l0.9-4.9h2.1l-0.9,4.7c-0.1,0.4-0.1,0.9-0.1,1.2c0,0.7,0.3,1.2,1.1,1.2c1,0,2.1-1.1,2.4-2.9l0.8-4.2h1.9V96.9z
		"/>
	<path fill="#FFFFFF" d="M143.7,105.1c-0.9,0.4-2,0.7-3.1,0.7c-2.4,0-3.6-1.5-3.6-3.6c0-2.6,1.9-5.5,4.9-5.5c1.7,0,2.8,1,2.8,2.4
		c0,2.2-2.3,2.9-5.7,2.9c0,0.3,0,0.9,0.2,1.2c0.3,0.6,1,0.9,1.8,0.9c1,0,1.8-0.2,2.4-0.6L143.7,105.1z M141.7,98.3
		c-1.3,0-2.2,1.2-2.4,2.2c2.1,0,3.5-0.3,3.5-1.3C142.8,98.6,142.4,98.3,141.7,98.3z"/>
	<path fill="#FFFFFF" d="M148.7,105.6l1.6-8.7h2.1l-1.7,8.7H148.7z M150.7,94.6c0-0.8,0.6-1.3,1.2-1.3c0.6,0,1.1,0.5,1.1,1.1
		c0,0.8-0.6,1.2-1.3,1.2C151.1,95.7,150.6,95.2,150.7,94.6z"/>
	<path fill="#FFFFFF" d="M153.3,103.7c0.4,0.2,1.3,0.6,2.1,0.6s1.3-0.5,1.3-1.1s-0.3-0.9-1.1-1.3c-1-0.5-1.7-1.3-1.7-2.3
		c0-1.7,1.5-2.9,3.5-2.9c0.9,0,1.7,0.2,2.1,0.4l-0.5,1.5c-0.3-0.2-0.9-0.4-1.6-0.4c-0.8,0-1.3,0.4-1.3,1c0,0.5,0.4,0.8,1.1,1.2
		c0.9,0.5,1.8,1.2,1.8,2.3c0,1.9-1.6,3-3.7,3c-1,0-2-0.3-2.4-0.6L153.3,103.7z"/>
	<path fill="#FFFFFF" d="M172.3,100.3c0,2.9-2.1,5.5-5,5.5c-2.2,0-3.6-1.5-3.6-3.6c0-2.9,2.1-5.5,5-5.5
		C171,96.7,172.3,98.4,172.3,100.3z M165.8,102.2c0,1.2,0.6,2,1.7,2c1.6,0,2.6-2.1,2.6-3.9c0-0.9-0.4-2-1.7-2
		C166.8,98.3,165.8,100.5,165.8,102.2z"/>
	<path fill="#FFFFFF" d="M182.2,96.9l-1.1,6c-0.2,1-0.3,1.9-0.4,2.7h-1.8l0.2-1.5l0,0c-0.8,1.1-1.9,1.7-3,1.7c-1.3,0-2.3-0.7-2.3-2.5
		c0-0.5,0.1-1,0.2-1.6l0.9-4.9h2.1l-0.9,4.7c-0.1,0.4-0.1,0.9-0.1,1.2c0,0.7,0.3,1.2,1.1,1.2c1,0,2.1-1.1,2.4-2.9l0.8-4.2h1.9V96.9z
		"/>
	<path fill="#FFFFFF" d="M182.9,105.6l1-5.4c0.2-1.2,0.3-2.6,0.4-3.3h1.8c-0.1,0.6-0.1,1.2-0.2,1.8h0.1c0.6-1.2,1.5-2,2.7-2
		c0.1,0,0.3,0,0.4,0l-0.4,2c-0.1,0-0.2,0-0.4,0c-1.5,0-2.4,1.5-2.8,3.4l-0.7,3.5H182.9z"/>
	<path fill="#FFFFFF" d="M191.6,109.1l1.7-9c0.2-1,0.4-2.3,0.5-3.2h1.9l-0.2,1.4l0,0c0.7-1,1.8-1.6,2.9-1.6c1.9,0,2.7,1.5,2.7,3.2
		c0,3-2.1,5.9-5.1,5.9c-0.8,0-1.4-0.2-1.7-0.4l0,0l-0.7,3.7H191.6z M194.7,103.8c0.3,0.3,0.8,0.4,1.4,0.4c1.6,0,2.9-2.1,2.9-4.1
		c0-0.8-0.4-1.7-1.4-1.7c-1.1,0-2.2,1.2-2.6,3.2L194.7,103.8z"/>
	<path fill="#FFFFFF" d="M209,105.1c-0.9,0.4-2,0.7-3.1,0.7c-2.4,0-3.6-1.5-3.6-3.6c0-2.6,1.9-5.5,4.9-5.5c1.7,0,2.8,1,2.8,2.4
		c0,2.2-2.3,2.9-5.7,2.9c0,0.3,0,0.9,0.2,1.2c0.3,0.6,1,0.9,1.8,0.9c1,0,1.8-0.2,2.4-0.6L209,105.1z M207,98.3
		c-1.3,0-2.2,1.2-2.4,2.2c2.1,0,3.5-0.3,3.5-1.3C208.1,98.6,207.7,98.3,207,98.3z"/>
	<path fill="#FFFFFF" d="M219.6,100.3c0,2.9-2.1,5.5-5,5.5c-2.2,0-3.6-1.5-3.6-3.6c0-2.9,2.1-5.5,5-5.5
		C218.3,96.7,219.6,98.4,219.6,100.3z M213.1,102.2c0,1.2,0.6,2,1.7,2c1.6,0,2.6-2.1,2.6-3.9c0-0.9-0.4-2-1.7-2
		C214.1,98.3,213.1,100.5,213.1,102.2z"/>
	<path fill="#FFFFFF" d="M219.7,109.1l1.7-9c0.2-1,0.4-2.3,0.5-3.2h1.9l-0.2,1.4l0,0c0.7-1,1.8-1.6,2.9-1.6c1.9,0,2.7,1.5,2.7,3.2
		c0,3-2.1,5.9-5.1,5.9c-0.8,0-1.4-0.2-1.7-0.4l0,0l-0.7,3.7H219.7z M222.8,103.8c0.3,0.3,0.8,0.4,1.4,0.4c1.6,0,2.9-2.1,2.9-4.1
		c0-0.8-0.4-1.7-1.4-1.7c-1.1,0-2.2,1.2-2.6,3.2L222.8,103.8z"/>
	<path fill="#FFFFFF" d="M230.2,105.6l2.4-12.7h2.1l-2.4,12.7H230.2z"/>
	<path fill="#FFFFFF" d="M241.4,105.1c-0.9,0.4-2,0.7-3.1,0.7c-2.4,0-3.6-1.5-3.6-3.6c0-2.6,1.9-5.5,4.9-5.5c1.7,0,2.8,1,2.8,2.4
		c0,2.2-2.3,2.9-5.7,2.9c0,0.3,0,0.9,0.2,1.2c0.3,0.6,1,0.9,1.8,0.9c1,0,1.8-0.2,2.4-0.6L241.4,105.1z M239.5,98.3
		c-1.3,0-2.2,1.2-2.4,2.2c2.1,0,3.5-0.3,3.5-1.3C240.6,98.6,240.1,98.3,239.5,98.3z"/>
</g>
</svg>
