<?xml version="1.0" encoding="utf-8"?>
<svg xmlns="http://www.w3.org/2000/svg" viewBox="0 0 485 114">
<title>ZIPAIR</title>
<desc>ZIPAIR logo</desc>
<metadata xmlns:rdf="http://www.w3.org/1999/02/22-rdf-syntax-ns#" xmlns:Airline="http://schema.org/Airline">
<rdf:RDF>
<Airline:name>ZIPAIR</Airline:name>
<Airline:iataCode>ZG</Airline:iataCode>
<Airline:url>https://airlinelogos.aero/ZG</Airline:url>
</rdf:RDF>
</metadata>
<g fill="none" fill-rule="evenodd">
<path d="M400.233 44.117h.209c18.489 0 35.296-.746 35.296-20.765 0-20.018-19.85-19.396-35.296-18.595l-.21 39.36zm84.11 46.896v3.931l-25.406-.189c-28.297-11.966-19.518-40.16-49.6-45.094-4.195-.69-8.875-.605-8.875-.605s.002 6.45.002 19.154c0 18.498 1.769 22.428 16.528 22.428v3.93h-46.034v-3.93c15.02 0 14.674-4.994 14.674-22.69 0-28.84-.017-35.608-.017-46.06 0-13.605-.053-16.725-13.903-16.725v-3.87c23.219-.905 46.213-2.401 61.22.99 13.928 3.143 20.45 13.762 20.45 21.89 0 9.488-4.237 20.076-28.888 23.247 20.136 2.556 31.365 26.508 41.989 36.156 6.662 6.05 12.405 7.438 17.86 7.438zM279.218 52.788s-1.849-3.698-4.234-8.66c-2.383-4.965-12.704-26.45-12.704-26.45s-10.327 21.478-12.702 26.447a710.12 710.12 0 01-4.213 8.663h33.853zm40.86-51.496h41.962v3.951c-11.645 0-13.519.098-13.519 19.002 0 20.181-.058 34.97-.058 48.474 0 15.122.89 17.927 13.577 17.927l.01 3.931h-78.935v-3.93c11.739 0 11.175-6.017 9.798-9.13-.799-1.808-4.887-10.283-7.464-15.7a1675.98 1675.98 0 01-3.832-8.09h-38.623s-1.461 3.182-4.057 8.596c-2.599 5.413-4.483 9.34-5.91 12.718-3.221 7.631 1.466 11.605 13.439 11.605v3.931h-36.214v-3.93c11.481 0 12.968-3.987 17.543-13.204C231.412 70.16 264.962 0 264.962 0h4.803s34.521 71.701 38.188 79.163c3.67 7.464 6.019 11.558 12.983 11.558 7.093 0 12.694.013 12.694-18.079 0-16.16.009-38.428.009-48.316 0-17.55-1.066-19.157-13.561-19.157V1.292zM176.705 44.087c18.44.368 34.192-.529 34.192-19.829 0-19.299-19.629-20.357-34.192-19.206v39.035zm-28.9-42.795C190.454-.566 203.781-.02 214.66 5.12c10.88 5.141 12.232 14.805 12.232 19.786 0 4.985-2.6 14.533-10.115 18.744-6.41 3.587-13.678 5.712-40.072 5.222 0 0 .022 16.132.022 25.137 0 14.717.858 16.64 14.71 16.64v3.928h-43.644v-3.929c13.372 0 14.073-2.04 14.073-17.845l-.002-50.824c0-16.049.243-16.804-14.06-16.804V1.292z" fill="#272726"/>
<path fill="#008C6E" d="M212.313 113.447h270.233v-9.545H212.313z"/>
<path d="M138.778 94.58H96.812v-3.933c12.499 0 13.568-1.649 13.568-19.66V24.65c0-18.013-1.15-19.48-13.567-19.48V1.291h41.97V5.17c-12.65 0-13.568 1.468-13.568 19.481v46.337c0 18.011 1.238 19.654 13.569 19.654v3.938h-.006zM2.843 24.983h5.638C16.466 9.9 24.523 5.992 29.846 5.992h37.459L0 90.18l1.961 4.399h78.197L92.24 67.449h-5.711c-8.9 16.85-17.058 21.334-23.422 21.334l-41.305-.001L87.815 5.67l-1.942-4.354H13.378L2.843 24.983z" fill="#272726"/>
</g>
</svg>
